<svg width="96" height="96" viewBox="0 0 96 96" fill="none" xmlns="http://www.w3.org/2000/svg">
<rect width="96" height="96" fill="white"/>
<path d="M71.7717 46.6651C71.7717 45.5706 71.337 44.5209 70.563 43.747C69.7891 42.9731 68.7395 42.5383 67.645 42.5383C66.5505 42.5383 65.5008 42.9731 64.7269 43.747C63.953 44.5209 63.5182 45.5706 63.5182 46.6651C63.5399 47.4496 63.8042 48.2082 64.2747 48.8363C64.7452 49.4645 65.3988 49.9314 66.1456 50.1728V56.4593C64.3469 51.8532 60.981 48.0293 56.6403 45.6609C57.273 44.2853 57.9196 43.1023 58.5386 42.0156C60.9031 38.5181 63.5093 35.1902 66.3382 32.0563C67.8926 30.213 69.3645 28.4798 70.5612 26.9667C73.9177 22.7574 77.6042 16.5397 76.9164 12.8531C76.8329 12.3364 76.6352 11.8448 76.3378 11.4141C76.0403 10.9834 75.6506 10.6244 75.197 10.3633C70.5337 7.61213 64.1923 16.5535 57.9608 25.1784C53.8341 30.8733 51.7019 38.9343 50.7252 43.46C48.8139 43.0413 46.8631 42.8291 44.9065 42.8272C42.0616 42.8183 39.2351 43.2832 36.5429 44.2028C36.3678 39.1544 36.5194 34.1001 36.9969 29.0713C38.3725 15.9895 37.7672 8.31368 35.2224 5.68631C34.8958 5.29136 34.4828 4.97679 34.0153 4.76689C33.5478 4.55699 33.0383 4.45739 32.5262 4.47579C25.0155 4.8472 25.8684 27.283 25.9922 29.8416C26.2948 35.9768 28.7433 43.4324 30.229 47.5592C26.7624 50.3016 24.2379 54.0572 23.0071 58.3026H22.4707C21.9054 58.2767 21.3406 58.3633 20.809 58.5573C20.2774 58.7513 19.7896 59.0488 19.3738 59.4326C18.958 59.8165 18.6225 60.2789 18.3867 60.7933C18.1509 61.3077 18.0194 61.8638 18 62.4293V69.5411C18.0212 70.1061 18.1539 70.6613 18.3903 71.1748C18.6268 71.6883 18.9623 72.1501 19.3777 72.5335C19.7932 72.917 20.2803 73.2146 20.811 73.4093C21.3418 73.604 21.9058 73.6918 22.4707 73.6679H23.3786C24.4124 76.0911 25.956 78.2634 27.9042 80.0368L26.5286 81.2474C26.2079 81.5242 26.0093 81.9163 25.9758 82.3386C25.9423 82.7609 26.0767 83.1795 26.3498 83.5033C30.4766 88.5242 37.2307 91.3992 44.8102 91.3992C52.3897 91.3992 59.1714 88.5242 63.2706 83.5033C63.5437 83.1795 63.6781 82.7609 63.6446 82.3386C63.6112 81.9163 63.4125 81.5242 63.0918 81.2474L61.7162 80.0368C63.6702 78.2252 65.2134 76.016 66.2419 73.5578H67.2736C67.8384 73.5818 68.4024 73.4939 68.9332 73.2992C69.464 73.1046 69.9511 72.807 70.3665 72.4235C70.7819 72.04 71.1175 71.5783 71.3539 71.0647C71.5904 70.5512 71.723 69.996 71.7442 69.4311V62.3743C71.7239 61.5678 71.4629 60.7859 70.9947 60.1289C70.5265 59.472 69.8725 58.9701 69.1169 58.6877V50.1728C69.8699 49.9379 70.5306 49.4735 71.0066 48.8446C71.4827 48.2156 71.7502 47.4536 71.7717 46.6651Z" fill="#CDCCCC"/>
<path d="M38.1107 81.1515C39.3762 80.3124 36.0473 80.6288 35.7722 80.0648C34.4427 79.9471 33.1262 79.7124 31.838 79.3632C29.4995 78.7442 23.8871 74.9751 23.2818 71.3573C22.6766 67.7395 23.2818 60.8753 25.8129 56.7486C27.3976 54.2344 29.4416 52.0411 31.838 50.2833C31.838 50.2833 26.9271 38.6045 26.5145 29.787C26.1018 20.9695 26.7896 5.27404 32.5395 4.99893C38.2895 4.72381 37.4504 19.4151 36.4737 28.9754C35.8938 35.3234 35.8018 41.7065 36.1986 48.0686C38.6479 47.2907 41.1952 46.8646 43.7643 46.8031C46.0281 46.7506 48.2903 46.9629 50.5047 47.4358C50.5047 47.4358 52.3342 33.9 58.3593 25.4264C64.3844 16.9528 70.7396 8.30034 74.8664 10.7626C78.9931 13.2249 73.7384 22.015 70.0931 26.5957C66.4478 31.1764 60.1338 38.0543 58.0292 41.7271C56.6494 44.1711 55.4317 46.703 54.3839 49.3066C58.1373 51.2329 61.2064 54.2684 63.1739 58.0003C66.1452 63.9291 66.3652 71.2197 64.7696 74.3148C63.9684 75.7441 62.861 76.9785 61.5269 77.9298C60.1928 78.881 58.6649 79.5255 57.0525 79.8172C55.223 79.8997 47.5334 81.8118 47.5334 81.8118L38.1107 81.1515Z" fill="white"/>
<path d="M51.5786 47.5594C51.5786 47.5594 56.1731 35.5781 60.2861 28.8514C64.3991 22.1248 69.9152 17.0351 71.6484 18.0668C73.3817 19.0985 68.1132 25.385 63.4912 31.5613C59.7262 37.0151 56.3124 42.7033 53.2706 48.5911L51.5786 47.5594Z" fill="#DD00A1"/>
<path d="M33.1318 49.6086L34.5074 48.5907C34.5074 48.5907 34.3148 36.6093 34.5074 29.3324C34.7 22.0556 35.0714 12.9629 32.6366 13.0455C30.2018 13.128 28.5098 20.1573 29.459 30.0753C30.1425 36.6765 31.3709 43.2099 33.1318 49.6086Z" fill="#DD00A1"/>
<path d="M29.0319 75.2914C30.5058 75.2914 31.7006 74.0966 31.7006 72.6227C31.7006 71.1489 30.5058 69.9541 29.0319 69.9541C27.5581 69.9541 26.3633 71.1489 26.3633 72.6227C26.3633 74.0966 27.5581 75.2914 29.0319 75.2914Z" fill="#F9D8D2"/>
<path d="M60.5744 75.2914C62.0483 75.2914 63.243 74.0966 63.243 72.6227C63.243 71.1489 62.0483 69.9541 60.5744 69.9541C59.1006 69.9541 57.9058 71.1489 57.9058 72.6227C57.9058 74.0966 59.1006 75.2914 60.5744 75.2914Z" fill="#F9D8D2"/>
<path d="M49.2257 72.4015C49.1969 72.3845 49.1651 72.3736 49.132 72.3693C49.0989 72.365 49.0653 72.3674 49.0332 72.3764C49.0011 72.3853 48.9711 72.4007 48.9451 72.4216C48.9191 72.4425 48.8975 72.4684 48.8818 72.4978C48.8818 72.4978 48.0839 73.8733 46.9284 73.9559C46.537 73.9443 46.1522 73.853 45.7973 73.6874C45.4425 73.5218 45.1253 73.2855 44.865 72.993V70.9571C45.6079 70.5444 46.8046 69.3064 46.8046 68.88C46.7003 68.4254 46.4357 68.0236 46.0593 67.7482C45.6829 67.4728 45.2198 67.3423 44.755 67.3806C43.3794 67.3806 42.4165 68.2747 42.4165 69.0175C42.4165 69.7603 43.9296 70.7232 44.3561 70.9984V73.0067C44.139 73.2824 43.8664 73.5093 43.5559 73.6728C43.2455 73.8363 42.9042 73.9328 42.5541 73.9559C41.4673 73.9559 40.642 72.4702 40.6282 72.4565C40.5961 72.3974 40.5424 72.353 40.4783 72.3325C40.4143 72.312 40.3448 72.317 40.2843 72.3464C40.2243 72.3812 40.1795 72.4374 40.1591 72.5037C40.1387 72.57 40.1441 72.6416 40.1743 72.7041C40.1743 72.7041 41.151 74.4786 42.5541 74.4786C42.9504 74.4613 43.339 74.3633 43.6961 74.1907C44.0533 74.018 44.3715 73.7743 44.6312 73.4744C45.2021 74.0727 45.979 74.4316 46.8046 74.4786H46.9697C47.4653 74.381 47.9332 74.175 48.3399 73.8754C48.7466 73.5757 49.0819 73.1898 49.3219 72.7454C49.3389 72.7166 49.3498 72.6848 49.3541 72.6517C49.3585 72.6186 49.356 72.585 49.3471 72.5529C49.3381 72.5208 49.3227 72.4908 49.3018 72.4648C49.281 72.4388 49.255 72.4172 49.2257 72.4015Z" fill="#10110E"/>
<path d="M31.8384 50.3101C31.8384 50.3101 28.0281 40.681 27.299 35.6464C26.5699 30.6117 25.9234 22.2069 26.8863 16.6082C27.3 14.029 27.8603 11.4754 28.5645 8.95996C28.5645 8.95996 26.79 22.0143 27.4503 27.723C28.1106 33.4317 31.8384 50.3101 31.8384 50.3101Z" fill="#E5E5E5"/>
<path d="M50.5049 47.4346C50.5049 47.4346 53.2561 32.8671 57.259 27.1447C61.262 21.4222 66.2279 14.4755 68.7452 12.7285L71.2625 10.9678C71.2625 10.9678 61.1657 21.5598 57.259 30.226C53.3524 38.8922 50.5049 47.4346 50.5049 47.4346Z" fill="#E5E5E5"/>
<path d="M34.5075 63.9415C34.0934 63.9387 33.6878 64.059 33.3421 64.2871C32.9965 64.5152 32.7263 64.8408 32.566 65.2226C32.4056 65.6044 32.3622 66.0253 32.4413 66.4318C32.5205 66.8383 32.7185 67.2121 33.0104 67.5059C33.3022 67.7997 33.6748 68.0002 34.0807 68.082C34.4867 68.1638 34.9078 68.1232 35.2907 67.9654C35.6735 67.8075 36.0009 67.5395 36.2313 67.1954C36.4616 66.8513 36.5846 66.4465 36.5846 66.0323C36.5846 65.4802 36.3662 64.9504 35.9771 64.5587C35.5879 64.167 35.0596 63.9451 34.5075 63.9415ZM35.099 65.881C34.9494 65.881 34.806 65.8216 34.7002 65.7158C34.5944 65.6101 34.535 65.4666 34.535 65.317C34.535 65.1675 34.5944 65.024 34.7002 64.9182C34.806 64.8125 34.9494 64.753 35.099 64.753C35.2486 64.753 35.392 64.8125 35.4978 64.9182C35.6036 65.024 35.663 65.1675 35.663 65.317C35.6631 65.3935 35.6476 65.4691 35.6176 65.5394C35.5875 65.6097 35.5435 65.6731 35.4882 65.7259C35.4329 65.7786 35.3674 65.8196 35.2958 65.8463C35.2241 65.8729 35.1478 65.8848 35.0715 65.881H35.099Z" fill="#10110E"/>
<path d="M55.0303 63.9414C54.6168 63.9414 54.2126 64.064 53.8687 64.2938C53.5249 64.5235 53.2569 64.8501 53.0986 65.2321C52.9404 65.6142 52.899 66.0346 52.9796 66.4402C53.0603 66.8458 53.2594 67.2184 53.5519 67.5108C53.8443 67.8032 54.2168 68.0023 54.6224 68.083C55.028 68.1637 55.4484 68.1223 55.8305 67.964C56.2126 67.8058 56.5391 67.5378 56.7689 67.1939C56.9986 66.8501 57.1212 66.4458 57.1212 66.0323C57.1212 65.4778 56.901 64.9459 56.5088 64.5538C56.1167 64.1617 55.5849 63.9414 55.0303 63.9414ZM55.6219 65.881C55.4734 65.8775 55.3319 65.8169 55.2269 65.7119C55.1219 65.6069 55.0614 65.4655 55.0579 65.317C55.0791 65.1808 55.1483 65.0567 55.2529 64.967C55.3576 64.8774 55.4909 64.8281 55.6287 64.8281C55.7666 64.8281 55.8998 64.8774 56.0045 64.967C56.1092 65.0567 56.1784 65.1808 56.1996 65.317C56.196 65.4678 56.1336 65.6113 56.0256 65.7167C55.9176 65.8221 55.7727 65.881 55.6219 65.881Z" fill="#10110E"/>
<path opacity="0.2" d="M45.1399 80.7928C55.8519 80.7928 64.5357 74.5355 64.5357 66.8168C64.5357 59.0981 55.8519 52.8408 45.1399 52.8408C34.4279 52.8408 25.7441 59.0981 25.7441 66.8168C25.7441 74.5355 34.4279 80.7928 45.1399 80.7928Z" fill="#8ACCCE"/>
<path d="M68.622 59.0461V49.871C69.3458 49.7114 69.9969 49.3176 70.4744 48.7506C70.9518 48.1837 71.229 47.4751 71.2631 46.7346C71.1675 45.84 70.7444 45.0123 70.0753 44.4108C69.4061 43.8094 68.5382 43.4766 67.6384 43.4766C66.7387 43.4766 65.8707 43.8094 65.2016 44.4108C64.5324 45.0123 64.1093 45.84 64.0137 46.7346C64.0447 47.4739 64.3191 48.1822 64.7943 48.7494C65.2695 49.3166 65.9187 49.7109 66.6411 49.871V58.8123H66.3797C63.6286 49.2657 55.4988 43.3369 44.8931 43.3369C34.2873 43.3369 26.1025 49.2107 23.3926 58.8123H22.471C21.4742 58.7635 20.4985 59.1105 19.7565 59.7779C19.0144 60.4452 18.5661 61.3787 18.5093 62.3751V69.4868C18.5696 70.4807 19.0194 71.4108 19.7611 72.0752C20.5027 72.7396 21.4764 73.0848 22.471 73.0359H23.7228C24.7864 75.734 26.4852 78.1359 28.6749 80.0376L26.8866 81.6333C26.7766 81.7258 26.6861 81.8393 26.6202 81.9671C26.5544 82.0949 26.5146 82.2345 26.503 82.3778C26.4915 82.5211 26.5086 82.6652 26.5531 82.8019C26.5977 82.9386 26.669 83.065 26.7628 83.1739C30.7795 88.0298 37.3686 90.8772 44.8243 90.8772C52.28 90.8772 58.869 88.1261 62.8858 83.1739C62.9796 83.065 63.0508 82.9386 63.0954 82.8019C63.14 82.6652 63.157 82.5211 63.1455 82.3778C63.134 82.2345 63.0942 82.0949 63.0283 81.9671C62.9625 81.8393 62.872 81.7258 62.762 81.6333L60.9737 80.0376C63.1543 78.1276 64.8513 75.7282 65.9258 73.0359H67.3014C68.2959 73.0848 69.2696 72.7396 70.0113 72.0752C70.7529 71.4108 71.2027 70.4807 71.2631 69.4868V62.3751C71.2324 61.6119 70.96 60.8783 70.4853 60.2799C70.0106 59.6816 69.3581 59.2496 68.622 59.0461ZM44.8931 53.475C54.7148 53.475 62.6932 59.9403 62.6932 67.8774C62.6932 76.4748 53.7243 80.2577 44.8931 80.2577C36.0618 80.2577 27.0929 76.4061 27.0929 67.8774C27.0929 59.9403 35.0714 53.475 44.8931 53.475Z" fill="white"/>
<path d="M69.2815 67.1055H66.6404C66.6404 66.6929 66.6404 66.2802 66.6404 65.8125C66.6389 64.0571 66.4639 62.3062 66.1177 60.5853H67.2319C67.4803 60.5685 67.7295 60.6019 67.9648 60.6834C68.2 60.7649 68.4164 60.8928 68.6012 61.0597C68.786 61.2265 68.9354 61.4288 69.0404 61.6545C69.1455 61.8802 69.2041 62.1247 69.2127 62.3735L69.2815 67.1055Z" fill="#515151"/>
<path d="M67.3009 71.2602H65.9253C66.1871 70.2884 66.3847 69.3005 66.5168 68.3027H69.268V69.4857C69.2593 69.7327 69.2011 69.9755 69.0967 70.1995C68.9924 70.4236 68.844 70.6243 68.6605 70.7899C68.477 70.9554 68.262 71.0824 68.0285 71.1632C67.7949 71.244 67.5475 71.277 67.3009 71.2602Z" fill="#515151"/>
<path d="M44.8927 89.0464C38.2898 89.0464 32.4298 86.6666 28.7295 82.4573L30.5865 80.8066C34.8136 83.6289 39.8119 85.0708 44.8927 84.9334C49.9731 85.068 54.9706 83.6264 59.1988 80.8066L61.0421 82.4573C57.3555 86.6666 51.4817 89.0464 44.8927 89.0464Z" fill="#515151"/>
<path d="M22.4705 60.5856H23.6535C23.31 62.307 23.135 64.0576 23.1308 65.8129C23.098 66.2433 23.098 66.6755 23.1308 67.1059H20.5584V62.3739C20.5537 62.1271 20.6008 61.882 20.6969 61.6546C20.793 61.4272 20.9358 61.2225 21.1161 61.0539C21.2965 60.8852 21.5102 60.7564 21.7435 60.6757C21.9769 60.5951 22.2245 60.5644 22.4705 60.5856Z" fill="#515151"/>
<path d="M44.8924 52.2911C42.6579 52.2977 40.4354 52.6172 38.2896 53.2403V46.0735C40.4371 45.4643 42.6602 45.1633 44.8924 45.1793C47.12 45.1642 49.3384 45.4653 51.4814 46.0735V53.2953C49.3488 52.628 47.127 52.2894 44.8924 52.2911Z" fill="black"/>
<path d="M36.9828 46.4863V53.7219C30.38 56.143 25.7717 61.604 25.7717 67.8767C25.7717 76.0065 33.4888 81.5088 44.8924 81.5088C56.296 81.5088 64.0131 76.0065 64.0131 67.8767C64.0131 61.604 59.3911 56.143 52.802 53.7219V46.4863C60.5191 49.2375 65.3337 56.3768 65.3337 65.8684C65.3337 76.5429 57.1489 83.751 44.8924 83.751C32.6359 83.751 24.4512 76.5842 24.4512 65.8684C24.4512 56.3768 29.2657 49.265 36.9828 46.4863Z" fill="#515151"/>
<path d="M20.4893 68.3027H23.2405C23.366 69.3016 23.5637 70.29 23.832 71.2602H22.4564C22.2092 71.277 21.961 71.2441 21.7267 71.1634C21.4923 71.0828 21.2765 70.956 21.0919 70.7906C20.9073 70.6253 20.7576 70.4246 20.6518 70.2005C20.5459 69.9764 20.486 69.7334 20.4756 69.4857L20.4893 68.3027Z" fill="#515151"/>
<path d="M67.6312 48.151C68.5428 48.151 69.2819 47.4858 69.2819 46.6653C69.2819 45.8448 68.5428 45.1797 67.6312 45.1797C66.7195 45.1797 65.9805 45.8448 65.9805 46.6653C65.9805 47.4858 66.7195 48.151 67.6312 48.151Z" fill="#515151"/>
</svg>
