<?xml version="1.0" encoding="UTF-8"?>
<svg xmlns="http://www.w3.org/2000/svg" width="96" height="96" viewBox="0 0 96 96">
  <defs>
    <style>
      .cls-1 {
        fill: #ca1f27;
      }

      .cls-2 {
        fill: #fff;
      }

      .cls-3 {
        fill: #4a0000;
      }

      .cls-4 {
        fill: #ffd440;
      }
    </style>
  </defs>
  <g id="Layer_2" data-name="Layer 2">
    <rect class="cls-2" width="96" height="96"/>
  </g>
  <g id="Layer_1" data-name="Layer 1">
    <path class="cls-3" d="M91.06,56.94l-6.35-2.24-.77-4.64c-.1-.58-.5-1.05-1.05-1.24-.55-.19-1.16-.06-1.59.33l-7.86,7.26-4.33-9.28c5.4-8.48,8.02-16.92,8.21-17.55.18-.6,0-1.25-.48-1.66-.47-.41-1.14-.5-1.71-.24l-12.4,5.78-2.24-4.81,4.31-9.93c.26-.6.12-1.3-.35-1.76-.47-.46-1.18-.58-1.77-.3L4.5,43.79c-.54.25-.9.79-.92,1.39-.02.6.31,1.15.83,1.44l10.59,5.72,8.19,17.56c.18.38.5.67.89.82l24.02,8.76c.17.06.36.1.54.1.23,0,.46-.05.67-.15l41.89-19.57c.58-.27.94-.87.91-1.51-.03-.64-.45-1.2-1.05-1.41"/>
    <path class="cls-1" d="M81.74,56.14l-.44-2.67-6.45,5.96,1.77,3.79,9.74-4.57-3.58-1.27c-.54-.19-.94-.67-1.04-1.23"/>
    <path class="cls-4" d="M17.43,50.05l-8.77-4.74,5.4-2.5,3.37,7.24"/>
    <path class="cls-1" d="M64.65,48.02s.05-.06.07-.1c4.1-5.77,6.87-12.01,8.33-15.77l-31.25,14.57c-.47.22-1.03.19-1.48-.07-.45-.27-.74-.74-.77-1.26,0-.07-.49-6.86-4.31-9.25-1.78-1.12-4.15-1.09-7.02.08l-14.17,6.6,11.73,25.16,22.78,8.32,22.82-10.64c-1.49-2.17-4.81-6.55-9.24-9.69-3.48,3.48-7.58,6.37-12.35,7.87-.15.05-.31.07-.47.07-.69,0-1.3-.45-1.51-1.11-.26-.83.2-1.72,1.03-1.98,0,0,0,0,0,0,0,0,8.55-2.18,15.79-12.8"/>
    <path class="cls-3" d="M25.65,42.27c-1.97-.72-4.15.3-4.86,2.27-.72,1.97.3,4.15,2.27,4.86,1.97.72,4.15-.3,4.86-2.27.71-1.97-.3-4.14-2.27-4.86"/>
  </g>
</svg>
