<svg width="96" height="96" viewBox="0 0 96 96" fill="none" xmlns="http://www.w3.org/2000/svg">
<rect width="96" height="96" fill="white"/>
<g clip-path="url(#clip0_6115_512)">
<path d="M47.8742 11C30.4028 11 30.2151 17.7818 30.2151 19.1777C30.2151 21.2954 30.2151 27.65 30.2151 27.65H48.2106V30.1936C48.2106 30.1936 29.4738 30.1936 23.0674 30.1936C17.7199 30.1936 11 33.4449 11 47.8527C11 61.0872 16.2419 66.2053 21.5322 66.2053C23.103 66.2053 27.8182 66.2053 27.8182 66.2053C27.8182 66.2053 27.8182 59.6362 27.8182 57.3758C27.8182 53.6819 29.6487 46.8436 38.1822 46.8436C48.8853 46.8436 51.6173 46.8436 56.0303 46.8436C58.6553 46.8436 66.058 45.7026 66.058 37.1523C66.058 28.1027 66.058 25.1172 66.058 20.8595C66.0587 18.7384 65.6961 11 47.8742 11ZM37.9515 16.6973C39.7423 16.6973 41.1893 18.1437 41.1893 19.9352C41.1893 21.7253 39.7423 23.173 37.9515 23.173C36.1607 23.173 34.7136 21.726 34.7136 19.9352C34.7136 18.1437 36.1607 16.6973 37.9515 16.6973Z" fill="url(#paint0_linear_6115_512)"/>
<path d="M48.1259 85.0003C65.5892 85.0003 65.8065 78.0907 65.8065 76.8226C65.8065 74.7048 65.8065 68.3503 65.8065 68.3503H47.7895V65.8067C47.7895 65.8067 66.6474 65.8067 72.9327 65.8067C78.3206 65.8067 85.0001 62.474 85.0001 48.1476C85.0001 32.4582 77.9109 29.7949 74.4679 29.7949C72.8964 29.7949 68.1819 29.7949 68.1819 29.7949C68.1819 29.7949 68.1819 36.6675 68.1819 38.6245C68.1819 42.3184 66.412 49.1567 57.8179 49.1567C47.1148 49.1567 44.7158 49.1567 39.9691 49.1567C37.3508 49.1567 29.9414 50.4322 29.9414 58.848C29.9414 68.5857 29.9414 71.1354 29.9414 75.1408C29.9414 78.6591 32.0914 85.0003 48.1259 85.0003ZM58.0493 79.3029C56.2585 79.3029 54.8115 77.8559 54.8115 76.0651C54.8115 74.2743 56.2578 72.8273 58.0493 72.8273C59.8394 72.8273 61.2871 74.2743 61.2871 76.0651C61.2871 77.8559 59.8394 79.3029 58.0493 79.3029Z" fill="url(#paint1_linear_6115_512)"/>
</g>
<defs>
<linearGradient id="paint0_linear_6115_512" x1="17.9348" y1="17.6104" x2="54.7179" y2="54.5164" gradientUnits="userSpaceOnUse">
<stop stop-color="#387EB8"/>
<stop offset="1" stop-color="#366994"/>
</linearGradient>
<linearGradient id="paint1_linear_6115_512" x1="40.2886" y1="41.1902" x2="79.7253" y2="78.9726" gradientUnits="userSpaceOnUse">
<stop stop-color="#FFE052"/>
<stop offset="1" stop-color="#FFC331"/>
</linearGradient>
<clipPath id="clip0_6115_512">
<rect width="74" height="74" fill="white" transform="translate(11 11)"/>
</clipPath>
</defs>
</svg>
