<svg width="96" height="96" viewBox="0 0 96 96" fill="none" xmlns="http://www.w3.org/2000/svg">
<rect width="96" height="96" fill="white"/>
<path d="M34.1396 38.6462L35.5169 72.9393L60.3066 41.3168C61.0965 40.3255 62.5345 40.1434 63.5269 40.9527L79.0002 53.3548L73.9572 31.3223L34.1396 38.6462Z" fill="#4279F4"/>
<path d="M36.3672 79.2323H58.362L44.8735 68.4082L36.3672 79.2323Z" fill="#0028AA"/>
<path d="M62.4732 45.9512L47.6885 64.8073L63.4454 77.432L78.3921 58.6973L62.4732 45.9512Z" fill="#014BD1"/>
<path d="M29.9873 35.3284L42.9897 19.0215L22.0075 29.1172L16.8228 51.7972L29.9873 35.3284Z" fill="#BEDCFF"/>
<path d="M17.127 58.7575L31.0611 76.2176L29.7244 42.9766L17.127 58.7575Z" fill="#6CA1FF"/>
<path d="M69.9266 27.4182L49.876 17.7676L37.3799 33.4068L69.9266 27.4182Z" fill="#A1C3FF"/>
</svg>
