<svg width="96" height="96" viewBox="0 0 96 96" fill="none" xmlns="http://www.w3.org/2000/svg">
<rect width="96" height="96" fill="white"/>
<path fill-rule="evenodd" clip-rule="evenodd" d="M31.0353 71.4751L19 63.9023V31.8142L48.4481 15L77 31.8142V65.5709L47.936 82L37.8212 75.7107V60.3084L32.3157 56.8429V39.387L48.1921 30.2739L63.6843 39.387V57.613L51.3929 64.5441V57.228C55.106 55.8161 57.6667 52.2222 57.6667 47.8582C57.6667 43.4943 53.3135 37.8467 47.936 37.8467C42.5585 37.8467 38.2053 42.3391 38.2053 47.8582C38.2053 53.3774 40.894 55.8161 44.479 57.228V71.2184L47.936 73.4004L69.4459 61.2069V35.9215L48.1921 23.3429L26.298 35.9215V59.6667L30.9073 62.6188V71.3467L31.0353 71.4751ZM48.064 43.3659C50.4967 43.3659 52.4172 45.4195 52.4172 47.9866C52.4172 50.5536 50.4967 52.6073 48.064 52.6073C45.6313 52.6073 43.7108 50.5536 43.7108 47.9866C43.7108 45.4195 45.6313 43.3659 48.064 43.3659Z" fill="#6983FF"/>
</svg>
