<svg width="96" height="96" viewBox="0 0 96 96" fill="none" xmlns="http://www.w3.org/2000/svg">
<rect width="96" height="96" fill="white"/>
<g clip-path="url(#clip0_6115_663)">
<path d="M47.9695 38.6511L40.4883 30.1934" stroke="#284A6A" stroke-width="0.26" stroke-miterlimit="10"/>
<path d="M24.375 32.1465L30.2306 40.6965" stroke="#284A6A" stroke-width="0.13" stroke-miterlimit="10"/>
<path d="M47.9693 38.6633L55.3695 30.1133M56.9153 48.0987L65.6981 40.6984M56.9153 48.0874L65.6981 55.8128M55.4516 65.5733L47.9704 57.2787L40.4891 65.5733M30.2404 55.4877L38.6981 48.0874M30.2415 40.6849L38.6993 48.0852M47.9693 38.6509L30.2393 40.6838M47.9693 38.652L65.6993 40.6849" stroke="#284A6A" stroke-width="0.26" stroke-miterlimit="10"/>
<path d="M55.3682 30.1133L56.915 48.0874L55.4525 65.5722" stroke="#284A6A" stroke-width="0.26" stroke-miterlimit="10"/>
<path d="M65.698 55.8126L47.968 57.2751M30.2402 55.4863L47.9702 57.2863" stroke="#284A6A" stroke-width="0.26" stroke-miterlimit="10"/>
<path d="M40.4885 65.5732L38.6885 48.0884M40.4885 30.1953L38.6885 48.0862" stroke="#284A6A" stroke-width="0.26" stroke-miterlimit="10"/>
<path d="M22.1084 42.9624L30.2421 40.6854M31.9488 24.0962L40.4988 30.1959M40.4886 30.1959L42.4405 20.2734L55.369 30.1127" stroke="#284A6A" stroke-width="0.13" stroke-miterlimit="10"/>
<path d="M53.418 20.2734L55.3687 30.1127L71.5541 32.1467M63.9097 24.0962L55.3597 30.1149M71.5541 32.1354L65.6985 40.6854L73.9931 42.9624" stroke="#284A6A" stroke-width="0.13" stroke-miterlimit="10"/>
<path d="M65.6986 40.6854L73.8323 53.0469M53.4181 20.2734L40.4873 30.1959" stroke="#284A6A" stroke-width="0.13" stroke-miterlimit="10"/>
<path d="M65.6984 40.6861L63.8984 24.0957M65.6984 55.8128L73.8322 53.0476" stroke="#284A6A" stroke-width="0.13" stroke-miterlimit="10"/>
<path d="M65.6986 55.8126L73.9933 42.9629M65.6986 55.8126L71.5543 63.7011M65.6986 55.8126L63.8986 71.7516M55.4521 65.5731L63.9099 71.7539" stroke="#284A6A" stroke-width="0.13" stroke-miterlimit="10"/>
<path d="M55.4519 65.572L71.554 63.7012M55.4519 65.572L53.5124 75.562M55.4519 65.572L42.4402 75.562M40.4883 65.572L42.4402 75.5845" stroke="#284A6A" stroke-width="0.13" stroke-miterlimit="10"/>
<path d="M40.4884 65.572L53.5125 75.562M31.9496 71.7527L40.4996 65.572L24.375 63.781L30.2408 55.4863" stroke="#284A6A" stroke-width="0.13" stroke-miterlimit="10"/>
<path d="M31.9486 71.7524L30.2408 55.4872L22.0283 52.9672L30.2408 40.6855" stroke="#284A6A" stroke-width="0.13" stroke-miterlimit="10"/>
<path d="M30.2412 55.4874L22.1074 42.9639M31.9489 24.0977L30.2412 40.688" stroke="#284A6A" stroke-width="0.13" stroke-miterlimit="10"/>
<path d="M24.375 32.1472L40.4771 30.1953" stroke="#284A6A" stroke-width="0.13" stroke-miterlimit="10"/>
<path d="M25.6865 21.1694L31.9483 24.0966L31.4623 17.2656L42.44 20.2739" stroke="#24405D" stroke-width="0.101" stroke-miterlimit="10"/>
<path d="M31.9482 24.0956L37.7229 14.4994L42.44 20.2729L44.3907 13.3496L53.4177 20.2729" stroke="#24405D" stroke-width="0.101" stroke-miterlimit="10"/>
<path d="M42.4287 20.2722L51.3747 13.1172L53.4177 20.2733L58.1348 14.4987M63.9095 24.0949L58.1247 14.4998" stroke="#24405D" stroke-width="0.101" stroke-miterlimit="10"/>
<path d="M63.9097 24.0958L64.479 17.2648M63.9097 24.0958L70.3222 20.8423M63.9097 24.0958L75.0506 25.8035M53.418 20.273L64.4767 17.2637" stroke="#24405D" stroke-width="0.101" stroke-miterlimit="10"/>
<path d="M71.5546 32.1458L75.0511 25.803M71.5546 32.1458L70.334 20.8418M71.5546 32.1458L78.8739 31.5765M71.5546 32.1458L81.5671 37.8383" stroke="#24405D" stroke-width="0.101" stroke-miterlimit="10"/>
<path d="M73.9932 42.9631L78.8723 31.5781M73.9932 42.9631L81.5566 37.8399M73.9932 42.9631L82.451 44.6709L73.8301 53.0476" stroke="#24405D" stroke-width="0.101" stroke-miterlimit="10"/>
<path d="M73.9927 42.9629L82.6946 51.4206L73.8296 53.0474L81.393 58.0896L71.5537 63.7011" stroke="#24405D" stroke-width="0.101" stroke-miterlimit="10"/>
<path d="M71.554 63.7006L78.7923 64.4319L73.8423 53.0469M74.9808 70.1131L71.5653 63.7006L70.2637 74.9236" stroke="#24405D" stroke-width="0.101" stroke-miterlimit="10"/>
<path d="M70.2525 74.9242L63.9097 71.7517M63.9097 71.7517L64.398 78.8392M63.9097 71.7517L74.9685 70.125M63.9097 71.7517L58.125 81.5111" stroke="#24405D" stroke-width="0.101" stroke-miterlimit="10"/>
<path d="M53.5123 75.5625L58.1248 81.4991M53.5123 75.5625L64.4102 78.816M53.5123 75.5625L51.3748 82.8818M53.5123 75.5625L44.4043 82.8818" stroke="#24405D" stroke-width="0.101" stroke-miterlimit="10"/>
<path d="M42.44 75.5635L44.3919 82.8827M42.44 75.5635L51.3747 82.8827M42.44 75.5635L37.805 81.5001M31.9482 71.752L37.8039 81.5113" stroke="#24405D" stroke-width="0.101" stroke-miterlimit="10"/>
<path d="M42.4403 75.5623L31.3815 78.9777M31.3792 78.989L31.9485 71.7507L25.6057 75.2473M24.375 63.7812L25.5945 75.2484" stroke="#24405D" stroke-width="0.101" stroke-miterlimit="10"/>
<path d="M31.9484 71.7509L20.8086 70.2074M24.3749 63.7814L20.7974 70.1939M24.3749 63.7814L17.0556 64.5127M24.3749 63.7814L14.3016 58.1699L22.027 52.9657L13.2441 51.4199" stroke="#24405D" stroke-width="0.101" stroke-miterlimit="10"/>
<path d="M22.0272 52.9664L17.0772 64.5145M22.1082 42.9629L13.2432 51.4206" stroke="#24405D" stroke-width="0.101" stroke-miterlimit="10"/>
<path d="M22.027 52.9657L13.2441 44.6699M22.1091 42.9622L14.5458 37.9199" stroke="#24405D" stroke-width="0.101" stroke-miterlimit="10"/>
<path d="M13.2432 44.6709L22.1082 42.9631L17.0659 31.5781" stroke="#24405D" stroke-width="0.101" stroke-miterlimit="10"/>
<path d="M24.375 32.146L17.0558 31.5768M24.375 32.146L14.5459 37.9195M24.375 32.146L20.8875 26.1295M24.375 32.146L25.6766 21.166" stroke="#24405D" stroke-width="0.101" stroke-miterlimit="10"/>
<path d="M31.9487 24.0957L20.8877 26.1297" stroke="#24405D" stroke-width="0.101" stroke-miterlimit="10"/>
<path d="M34.3447 52.3142L34.4044 43.7642L42.96 43.8238L42.9004 52.3738L34.3447 52.3142ZM43.6012 42.8957L43.6609 34.3457L52.2165 34.4053L52.1569 42.9553L43.6012 42.8957ZM43.599 61.6495L43.6586 53.0995L52.2142 53.1591L52.1546 61.7091L43.599 61.6495ZM52.9365 52.2332L52.9961 43.6832L61.5517 43.7428L61.4921 52.2928L52.9365 52.2332Z" fill="#256EA5"/>
<path d="M52.4434 33.0862L52.485 27.1496L58.4475 27.1912L58.4059 33.1278L52.4434 33.0862ZM37.5372 33.0851L37.5788 27.1484L43.5413 27.1901L43.4997 33.1267L37.5372 33.0851ZM27.2187 43.6601L27.2603 37.7234L33.2228 37.7651L33.1812 43.7017L27.2187 43.6601ZM27.2119 58.5742L27.2738 52.6376L33.234 52.6994L33.1722 58.6361L27.2119 58.5742ZM62.7597 58.4617L62.8013 52.5251L68.7638 52.5667L68.7222 58.5033L62.7597 58.4617ZM62.88 43.7017L62.9419 37.7651L68.9022 37.8269L68.8403 43.7636L62.88 43.7017Z" fill="#3378BC"/>
<path d="M22.3866 34.0829L22.4136 30.1791L26.3095 30.2061L26.2825 34.1099L22.3866 34.0829ZM30.0029 26.1381L30.0299 22.2344L33.9258 22.2614L33.8988 26.1651L30.0029 26.1381ZM40.4879 22.2085L40.5149 18.3047L44.4108 18.3318L44.3838 22.2355L40.4879 22.2085ZM20.0928 44.8941L20.1198 40.9904L23.9898 41.0174L23.9628 44.9211L20.0928 44.8941ZM69.5849 30.2331L73.4887 30.2061L73.5156 34.102L69.6119 34.129L69.5849 30.2331ZM61.9653 22.1556L65.869 22.1286L65.896 26.0245L61.9923 26.0515L61.9653 22.1556ZM51.4465 18.3239L55.3503 18.2969L55.3773 22.1927L51.4735 22.2197L51.4465 18.3239ZM71.854 41.0331L75.7578 41.0061L75.7848 44.902L71.881 44.929L71.854 41.0331Z" fill="#169BD6"/>
<path d="M37.4551 68.7003L37.4967 62.7637L43.4592 62.8053L43.4176 68.7419L37.4551 68.7003ZM52.3613 68.7003L52.403 62.7637L58.3655 62.8053L58.3238 68.7419L52.3613 68.7003Z" fill="#3378BC"/>
<path d="M69.5591 65.6956L69.5861 61.7918L73.4819 61.8188L73.4549 65.7226L69.5591 65.6956ZM62.0238 73.7213L62.0508 69.8176L65.9467 69.8446L65.9197 73.7483L62.0238 73.7213ZM51.5388 77.5688L51.5658 73.6651L55.4617 73.6921L55.4347 77.5958L51.5388 77.5688ZM71.8518 54.8843L71.8788 50.9806L75.7747 51.0076L75.7477 54.9113L71.8518 54.8843ZM22.3946 61.7918L26.2983 61.7648L26.3253 65.6607L22.4216 65.6877L22.3946 61.7918ZM30.0131 69.7883L33.9168 69.7613L33.9438 73.6572L30.0401 73.6842L30.0131 69.7883ZM40.4486 73.619L44.3523 73.592L44.3793 77.4878L40.4756 77.5148L40.4486 73.619ZM20.1221 50.9918L24.0258 50.9648L24.0528 54.8607L20.1491 54.8877L20.1221 50.9918Z" fill="#169BD6"/>
<path d="M77.749 32.6228L77.7636 30.5078L79.9191 30.5224L79.9045 32.6374L77.749 32.6228Z" fill="#00A8DA"/>
<path d="M80.5322 39.0115L80.5469 36.8965L82.7024 36.9111L82.6877 39.0261L80.5322 39.0115Z" fill="#00A8DA"/>
<path d="M73.9824 26.9724L73.997 24.8574L76.1525 24.872L76.1379 26.987L73.9824 26.9724Z" fill="#00A8DA"/>
<path d="M24.5996 22.1404L24.6142 20.0254L26.7697 20.04L26.7551 22.155L24.5996 22.1404Z" fill="#00A8DA"/>
<path d="M12.2324 45.7244L12.247 43.6094L14.4025 43.624L14.3879 45.739L12.2324 45.7244Z" fill="#00A8DA"/>
<path d="M69.2324 22.1404L69.247 20.0254L71.4025 20.04L71.3879 22.155L69.2324 22.1404Z" fill="#00A8DA"/>
<path d="M13.4619 39.0095L13.4765 36.8945L15.632 36.9092L15.6174 39.0242L13.4619 39.0095Z" fill="#00A8DA"/>
<path d="M36.7178 15.5896L36.7324 13.4746L38.8879 13.4892L38.8733 15.6042L36.7178 15.5896Z" fill="#00A8DA"/>
<path d="M16.0811 32.6209L16.0957 30.5059L18.2512 30.5205L18.2366 32.6355L16.0811 32.6209Z" fill="#00A8DA"/>
<path d="M19.9307 26.8904L19.9453 24.7754L22.1008 24.79L22.0862 26.905L19.9307 26.8904Z" fill="#00A8DA"/>
<path d="M30.3711 16.1961L32.4861 16.1814L32.5007 18.3369L30.3857 18.3516L30.3711 16.1961ZM43.4346 12.0381L45.5496 12.0234L45.5642 14.1789L43.4492 14.1936L43.4346 12.0381Z" fill="#00A8DA"/>
<path d="M63.499 18.3728L63.5136 16.2578L65.6691 16.2724L65.6545 18.3874L63.499 18.3728Z" fill="#00A8DA"/>
<path d="M81.5986 45.6443L81.6133 43.5293L83.7688 43.5439L83.7541 45.6589L81.5986 45.6443Z" fill="#00A8DA"/>
<path d="M50.3135 14.115L50.3281 12L52.4836 12.0146L52.469 14.1296L50.3135 14.115Z" fill="#00A8DA"/>
<path d="M57.0303 15.5076L57.0449 13.3926L59.2004 13.4072L59.1858 15.5222L57.0303 15.5076Z" fill="#00A8DA"/>
<path d="M69.2305 76.0271L69.2451 73.9121L71.4006 73.9267L71.386 76.0417L69.2305 76.0271Z" fill="#00A8DA"/>
<path d="M81.5986 52.4412L81.6133 50.3262L83.7688 50.3408L83.7541 52.4558L81.5986 52.4412Z" fill="#00A8DA"/>
<path d="M24.5977 76.0252L24.6123 73.9102L26.7678 73.9248L26.7532 76.0398L24.5977 76.0252Z" fill="#00A8DA"/>
<path d="M80.5322 59.2498L80.5469 57.1348L82.7024 57.1494L82.6877 59.2644L80.5322 59.2498Z" fill="#00A8DA"/>
<path d="M57.0273 82.6619L57.042 80.5469L59.1975 80.5615L59.1828 82.6765L57.0273 82.6619Z" fill="#00A8DA"/>
<path d="M77.748 65.6267L77.7627 63.5117L79.9182 63.5263L79.9035 65.6413L77.748 65.6267Z" fill="#00A8DA"/>
<path d="M73.9814 71.3591L73.9961 69.2441L76.1516 69.2588L76.1369 71.3738L73.9814 71.3591Z" fill="#00A8DA"/>
<path d="M63.4125 77.8506L65.5275 77.8359L65.5421 79.9914L63.4271 80.0061L63.4125 77.8506ZM50.4277 81.8443L52.5427 81.8297L52.5574 83.9852L50.4424 83.9998L50.4277 81.8443Z" fill="#00A8DA"/>
<path d="M30.4121 80.0408L30.4267 77.9258L32.5822 77.9404L32.5676 80.0554L30.4121 80.0408Z" fill="#00A8DA"/>
<path d="M15.999 65.5427L16.0136 63.4277L18.1691 63.4424L18.1545 65.5574L15.999 65.5427Z" fill="#00A8DA"/>
<path d="M13.46 59.238L13.4746 57.123L15.6301 57.1377L15.6155 59.2527L13.46 59.238Z" fill="#00A8DA"/>
<path d="M19.8467 71.3572L19.8613 69.2422L22.0168 69.2568L22.0022 71.3718L19.8467 71.3572Z" fill="#00A8DA"/>
<path d="M12.2324 52.4412L12.247 50.3262L14.4025 50.3408L14.3879 52.4558L12.2324 52.4412Z" fill="#00A8DA"/>
<path d="M43.5156 83.9705L43.5303 81.8555L45.6858 81.8701L45.6711 83.9851L43.5156 83.9705Z" fill="#00A8DA"/>
<path d="M36.6367 82.5779L36.6513 80.4629L38.8068 80.4775L38.7922 82.5925L36.6367 82.5779Z" fill="#00A8DA"/>
</g>
<defs>
<clipPath id="clip0_6115_663">
<rect width="72" height="72" fill="white" transform="translate(12 12)"/>
</clipPath>
</defs>
</svg>
