<svg width="96" height="96" viewBox="0 0 96 96" fill="none" xmlns="http://www.w3.org/2000/svg">
<rect width="96" height="96" fill="white"/>
<g clip-path="url(#clip0_6114_1025)">
<path d="M79.2501 70.8486L66.7494 57.5479L65.3097 58.4995C58.3815 54.4173 53.1978 48.5291 50.5385 39.6992C41.0692 42.0276 30.0288 47.9995 22.9154 56.0783C22.9168 56.0799 22.9182 56.0813 22.9194 56.0832C15.8554 63.7263 11.3032 70.9184 10.0977 73.5342L16.9912 73.5783C16.7249 70.4846 17.5316 67.9055 19.6339 65.0372C29.1699 52.0278 64.9793 67.0184 79.1181 75.141L86.6499 75.075C86.6498 75.075 85.5266 70.1221 79.2501 70.8486Z" fill="#D1A41A"/>
<path d="M65.5735 58.4999C51.0215 51.2425 47.0742 33.5377 50.6419 21.3867C50.6419 21.3867 53.3507 22.6414 55.9274 28.7169C61.8269 27.0265 68.7008 26.8677 74.691 28.5188C74.691 28.5188 75.4178 23.7641 79.7783 21.5188C80.438 24.3372 84.7996 46.7452 65.5735 58.4999Z" fill="#FFDC76"/>
<path d="M39.341 44.451L43.5766 42.3947L45.997 48.9265L39.341 44.451ZM34.5913 46.84L37.2234 45.2675L39.6436 49.5314L34.5913 46.84ZM29.4785 50.136L31.7776 48.6242L32.9272 52.5553L29.4785 50.136ZM70.1997 61.0222L68.687 59.5104L66.5694 62.8365L70.1997 61.0222ZM73.2252 64.6509L72.015 63.4413L68.3844 65.8604L73.2252 64.6509ZM50.7079 38.1501L50.5347 35.7422L54.7704 37.8892L50.7079 38.1501ZM52.0477 41.6691L51.2035 39.878L54.1653 41.0945L52.0477 41.6691ZM79.881 39.1289L80.4859 37.3147L77.158 38.7056L79.881 39.1289ZM78.6708 42.8181L78.9733 41.3364L76.5531 42.0621L78.6708 42.8181ZM49.3248 47.5052H57.2511V48.4851H49.3248V47.5052ZM49.3248 45.1465H57.2511V46.1262H49.3248V45.1465ZM73.5276 47.5052H81.4539V48.4851H73.5276V47.5052ZM73.5276 45.1465H81.4539V46.1262H73.5276V45.1465Z" fill="black"/>
<path d="M81.3161 30.1542L81.3029 30.1342C81.2973 28.6072 80.8236 22.1529 79.955 20.3759C77.598 21.2766 73.3059 24.201 72.3476 27.1827C67.7051 26.4839 62.4638 26.5683 57.8513 27.366C57.0846 24.1434 53.239 21.7038 50.3337 20.3184C49.1086 22.3996 48.5636 27.2153 48.7043 30.6489C48.6991 30.6525 48.6933 30.6559 48.6882 30.6599C49.2273 45.0262 56.2357 53.9715 65.4007 59.3928C74.8354 53.9715 81.5743 43.3997 81.3046 30.1477C81.3084 30.1499 81.3126 30.1518 81.3161 30.1542ZM65.5307 57.5302C51.1241 50.3021 48.3988 32.0202 50.855 22.2921C51.5378 26.0569 52.7778 28.406 55.4672 29.5506C57.962 28.8314 60.8615 28.3964 63.8267 28.2609L65.9645 33.2021L67.546 28.2496C70.2821 28.359 72.9544 28.7301 75.2952 29.3794C77.7659 27.5722 78.7395 24.8014 79.2486 22.3918C79.9014 25.1989 79.8267 31.2768 79.8296 31.2768L79.8479 31.1771C80.0902 43.1337 74.0368 52.6515 65.5309 57.5305L65.5307 57.5302Z" fill="black"/>
<path d="M86.0949 72.5108C84.6154 70.8452 81.7219 70.0591 79.296 70.1165C77.5768 68.0592 67.6153 57.4968 67.6153 57.4968L66.9235 58.3702L78.964 71.3809L79.485 71.336C82.7497 71.0548 84.6065 72.836 85.1158 73.3902C85.4753 73.797 85.6937 74.1672 85.8137 74.4566H79.1945C64.0392 66.5055 50.7109 60.9034 36.6639 59.6686C36.695 57.6901 37.0442 55.4522 37.7181 52.9523L36.4182 52.5969C35.7266 55.1631 35.364 57.4762 35.322 59.5544C33.8365 59.455 32.3482 59.4053 30.8594 59.4053C29.5895 59.4053 28.4332 59.5239 27.385 59.7306C26.0103 58.3481 24.8392 57.0317 23.8508 55.7851C30.4101 48.9179 41.2523 42.6836 50.657 40.3947L50.3513 39.0695C40.228 41.5241 29.146 48.1952 22.9762 54.6708C20.1129 50.7854 18.9627 47.5928 18.6333 45.1834C18.2081 42.1414 18.932 39.3405 20.7298 37.0815C23.5453 33.5577 27.5287 33.3167 31.6617 34.0094C31.5815 34.6629 31.6669 35.2864 31.9268 35.6718C33.0142 37.2862 38.8454 37.8556 42.35 36.2893C39.7742 32.6752 34.5626 30.8982 33.125 31.5908C32.6458 31.8258 32.2864 32.2565 32.0377 32.7623C30.6149 32.5066 29.2044 32.3166 28.174 32.3227C24.5498 32.3493 21.7643 33.6237 19.6978 36.2079C17.6612 38.7529 16.8376 41.9003 17.3167 45.3338C17.7718 48.5864 19.3713 52.0501 22.0488 55.6342L20.7581 57.0559C14.2288 64.4047 9.43652 72.3261 9.43652 73.6208V74.2985H18.0624L17.9112 73.4944C17.4229 70.9043 18.3964 67.6514 20.391 65.2421C21.643 63.7243 23.7156 61.9892 26.9802 61.1761C29.8735 64.0163 33.5694 67.0192 37.6728 69.9405H44.0823V69.2629C44.0823 68.4977 43.7051 67.8292 43.0222 67.3775C42.0097 66.7119 40.4464 66.6186 39.0087 67.1117C37.6401 65.579 36.8701 63.5276 36.7054 60.9978C50.6325 62.2387 63.9309 67.8949 78.9363 75.7859H87.2028L87.2025 75.2493C87.0707 73.6644 86.0952 72.5106 86.0952 72.5106L86.0949 72.5108ZM19.3041 64.4391C17.2615 66.9179 16.1892 70.1919 16.4287 72.9928H10.9776C12.0708 70.6165 16.4289 63.7465 22.8382 56.789C23.7249 57.8916 24.7102 59.0028 25.7944 60.1322C22.6494 61.087 20.553 62.8609 19.2651 64.4391H19.3041ZM57.4684 35.1824L57.468 35.1822L57.4678 35.1829L57.4684 35.1824Z" fill="black"/>
<path d="M76.0303 35.2928V34.4096C72.7569 34.4096 70.7964 35.7038 69.8585 38.4617H62.7792C63.2742 36.2543 63.359 34.0892 62.6297 32.8373C62.2184 32.1328 61.5708 31.7578 60.7571 31.7578C57.8407 31.7578 56.6898 34.7455 56.6426 34.8724L57.468 35.1807C57.5009 35.0715 58.4665 32.6443 60.7654 32.6443C61.2677 32.6443 61.6205 32.8469 61.8756 33.2854C62.4729 34.3135 62.3759 36.3334 61.8797 38.4563H57.856V39.3393L61.6826 39.3429C61.2741 40.7914 60.7024 42.2216 60.0581 43.3647L59.8496 43.7307L64.9019 46.9058L62.0639 48.7747L62.5511 49.5125L65.7279 47.4229L69.1464 49.6543L69.6154 48.9078L66.4388 46.9452L71.4305 43.7095C71.4288 43.7075 71.4279 43.7056 71.4267 43.7039L71.4095 43.6939L71.4152 43.6929C70.3687 42.1511 70.0387 40.8329 70.474 39.3395L74.5992 39.3449L74.6081 38.4679H70.7659C71.4921 36.7957 72.4905 35.2928 76.0303 35.2928ZM65.6918 46.358L61.9708 44.0144L69.2619 44.0163L65.6918 46.358ZM69.576 39.3429C69.2614 40.3407 69.3885 41.8438 70.1599 43.1228H61.1746C61.7222 42.0281 62.2275 40.6946 62.5966 39.3429H69.576Z" fill="black"/>
</g>
<defs>
<clipPath id="clip0_6114_1025">
<rect width="78.659" height="56" fill="white" transform="translate(9 20)"/>
</clipPath>
</defs>
</svg>
