<svg width="96" height="96" viewBox="0 0 96 96" fill="none" xmlns="http://www.w3.org/2000/svg">
<rect width="96" height="96" fill="white"/>
<path d="M77.75 34.543C77.75 28.8759 67.125 16.1259 66.4171 15.418C68.9646 26.8857 68.6477 25.1735 69.0739 28.8358C69.1869 29.8012 69.2342 30.803 68.8481 31.6955C67.0789 35.7815 60.7488 38.0826 60.7488 38.0826L70.6646 46.5826C70.6646 46.5826 77.75 39.4997 77.75 34.543ZM18.25 34.543C18.25 28.8759 28.875 16.1259 29.5829 15.418C27.0354 26.8857 27.3511 25.1735 26.9261 28.8358C26.8131 29.8012 26.7658 30.803 27.1519 31.6955C28.9211 35.7815 35.2512 38.0826 35.2512 38.0826L25.3354 46.5826C25.3354 46.5826 18.25 39.4997 18.25 34.543Z" fill="#BFBFBF"/>
<path d="M48 28.875C59.1034 28.875 67.1663 36.6792 70.6671 46.5829V63.5829C70.6671 63.5829 63.5829 66.4171 59.3329 69.25C55.0829 72.0829 48.7079 80.5829 48.7079 80.5829H48V28.875Z" fill="#566366"/>
<path d="M48.0001 28.875C36.8966 28.875 28.8338 36.6792 25.333 46.5829V63.5829C25.333 63.5829 32.4171 66.4171 36.6671 69.25C40.9171 72.0829 47.2921 80.5829 47.2921 80.5829H48.0001V28.875Z" fill="#7D9199"/>
<path d="M47.9999 49.4159C49.5645 49.4159 50.8328 48.1475 50.8328 46.5829C50.8328 45.0183 49.5645 43.75 47.9999 43.75C46.4353 43.75 45.167 45.0183 45.167 46.5829C45.167 48.1475 46.4353 49.4159 47.9999 49.4159Z" fill="white"/>
</svg>
