<?xml version="1.0" encoding="UTF-8"?>
<svg xmlns="http://www.w3.org/2000/svg" width="96" height="96" viewBox="0 0 96 96">
  <defs>
    <style>
      .cls-1 {
        fill: #7d64ff;
      }

      .cls-2 {
        fill: #fff;
      }
    </style>
  </defs>
  <g id="Layer_2" data-name="Layer 2">
    <rect class="cls-2" width="96" height="96"/>
  </g>
  <g id="Layer_1" data-name="Layer 1">
    <path class="cls-1" d="M93.96,92.6H2.04L32.64,27.33l18.43,13.55L75.12,3.4l18.84,89.21ZM60.26,78.51h.2c2.27,0,4.46-.88,6.1-2.45,1.7-1.54,2.65-3.74,2.62-6.03.08-2.21-.85-4.34-2.53-5.79-1.39-1.4-3.27-2.21-5.25-2.26h-.15c-.26,0-.52.03-.76.1l4.85-7.21-3.87-2.7-1.83,2.7-4.67,7.14c-.8,1.18-1.48,2.23-1.89,2.95-.43.77-.8,1.57-1.11,2.39-.35.88-.53,1.81-.53,2.75-.02,2.27.92,4.44,2.59,5.97,1.62,1.58,3.79,2.46,6.05,2.45h.18ZM39.71,70.74l5.36,7.58h5.73l-6.3-8.79,5.6-7.77-3.71-2.57-1.64,2.16-5.03,7.1v-14.27l-5.02-4.09v28.23h5.02v-7.58h0ZM60.27,73.77c-2.04,0-3.69-1.65-3.69-3.69s1.65-3.69,3.69-3.69h.03c.98,0,1.92.4,2.6,1.11.72.66,1.12,1.59,1.11,2.56-.03,2.05-1.69,3.7-3.74,3.7h0Z"/>
  </g>
</svg>
