<svg width="96" height="96" viewBox="0 0 96 96" fill="none" xmlns="http://www.w3.org/2000/svg">
<rect width="96" height="96" fill="white"/>
<mask id="mask0_6192_7" style="mask-type:alpha" maskUnits="userSpaceOnUse" x="17" y="15" width="62" height="66">
<path d="M73.4999 33.833L47.9999 47.9997M47.9999 47.9997L22.4999 33.833M47.9999 47.9997L48 76.4998M75 60.1754V35.8241C75 34.7962 75 34.2822 74.8485 33.8238C74.7146 33.4183 74.4955 33.046 74.2061 32.732C73.8789 32.377 73.4297 32.1274 72.5311 31.6281L50.3311 19.2948C49.4803 18.8221 49.0549 18.5858 48.6044 18.4931C48.2056 18.4111 47.7944 18.4111 47.3957 18.4931C46.9451 18.5858 46.5197 18.8221 45.6689 19.2948L23.4689 31.6282C22.5703 32.1274 22.1211 32.377 21.7939 32.732C21.5045 33.046 21.2854 33.4183 21.1515 33.8238C21 34.2822 21 34.7962 21 35.8241V60.1754C21 61.2034 21 61.7173 21.1515 62.1757C21.2854 62.5812 21.5045 62.9535 21.7939 63.2676C22.1211 63.6226 22.5703 63.8722 23.4689 64.3714L45.6689 76.7047C46.5197 77.1774 46.9451 77.4137 47.3957 77.5064C47.7944 77.5884 48.2056 77.5884 48.6044 77.5064C49.0549 77.4137 49.4803 77.1774 50.3311 76.7047L72.5311 64.3714C73.4297 63.8722 73.8789 63.6226 74.2061 63.2676C74.4955 62.9535 74.7146 62.5812 74.8485 62.1757C75 61.7173 75 61.2034 75 60.1754Z" stroke="#6C7E9D" stroke-width="6" stroke-linecap="round" stroke-linejoin="round"/>
<path d="M65.8818 48.8477V57.7235" stroke="#6C7E9D" stroke-width="6" stroke-linecap="round" stroke-linejoin="round"/>
<path d="M57.5391 53.2861V62.162" stroke="#6C7E9D" stroke-width="6" stroke-linecap="round" stroke-linejoin="round"/>
</mask>
<g mask="url(#mask0_6192_7)">
<path d="M12 12H84V84H12V12Z" fill="#263238"/>
</g>
</svg>
