<svg width="96" height="96" viewBox="0 0 96 96" fill="none" xmlns="http://www.w3.org/2000/svg">
<rect width="96" height="96" fill="white"/>
<g clip-path="url(#clip0_6114_790)">
<g filter="url(#filter0_d_6114_790)">
<path d="M77.418 47.91C77.3714 47.8989 77.3291 47.8745 77.2963 47.8397C77.202 47.5935 77.0578 47.3698 76.8729 47.1825C76.6879 46.9952 76.4664 46.8483 76.222 46.7514L76.2098 46.7417C76.1999 46.2442 75.812 45.9448 75.5909 45.5584C74.4386 43.5435 73.459 41.4975 73.9665 39.0524C74.1229 38.2986 74.6082 37.6947 74.7576 36.9533L74.7758 36.9382C74.9506 36.8985 75.1099 36.8081 75.2337 36.6781C75.3576 36.5482 75.4407 36.3846 75.4725 36.2076C75.5443 36.1458 75.6161 36.084 75.6879 36.0222C76.0626 36.0481 76.3062 35.7833 76.5652 35.5898C77.4265 34.9753 78.3266 34.4172 79.2595 33.9188C81.512 32.6506 83.7948 32.2891 86.2871 33.3047C87.237 33.6918 88.0959 34.2655 89.0807 34.558C89.1499 34.6219 89.219 34.6857 89.2882 34.7496C89.2841 34.8094 89.2907 34.8696 89.3075 34.9271C90.3815 36.9778 90.7692 39.0261 89.3048 41.0764C89.2748 41.1182 89.2914 41.1935 89.2862 41.2531C89.2199 41.3194 89.1537 41.3858 89.0875 41.4521C88.4351 41.6984 87.8012 41.8706 87.1184 41.4792C86.2522 41.048 85.3367 40.7246 84.3922 40.516C83.8469 40.3612 83.2231 40.1361 82.7078 40.6686L82.6706 40.7053C82.0975 41.2743 82.6585 41.6354 82.9603 41.9583C84.3713 43.4672 86.3497 44.0746 88.0595 45.1116C88.2405 45.2918 88.4216 45.472 88.6026 45.6522C89.1534 46.8164 89.8174 47.9213 90.3155 49.1157C91.1461 51.1074 91.4827 53.0513 90.571 55.1542C90.1458 56.1347 89.6714 57.1098 89.3361 58.1341L89.3377 58.1315C89.2276 58.1712 89.1239 58.2271 89.0302 58.2973C87.201 60.1663 84.8998 60.7981 82.3785 60.8771C79.7918 61.0163 77.1984 60.7813 74.6784 60.1793L74.6654 60.1656C74.7541 59.5134 74.3195 59.0332 74.1193 58.475C73.74 57.4178 72.9159 56.4616 73.338 55.2142C73.8225 53.8457 74.4128 52.5173 75.1036 51.241C75.4048 50.665 75.6464 50.5241 76.2803 50.8872C77.9248 51.829 79.4645 52.986 81.3761 53.4136C82.5957 53.6863 83.5285 53.4074 84.1373 52.4273C84.6417 51.6155 84.4111 50.9319 83.4903 50.6742C82.9128 50.5035 82.3521 50.2798 81.8155 50.006C80.3573 49.2914 78.8848 48.6067 77.418 47.91ZM81.4793 57.7084C81.9993 57.7084 82.6089 57.7442 83.2132 57.702C85.3991 57.5493 87.1804 56.6808 88.3152 54.7138C88.9509 53.5329 89.2383 52.195 89.144 50.8563C89.0728 48.1592 87.992 46.1369 85.5227 44.9224C84.3543 44.3477 83.2099 43.7231 82.0656 43.1005C81.0552 42.5874 80.2564 41.7347 79.8084 40.6912C79.1445 39.1043 80.0108 37.4633 81.6881 37.2799C83.2307 37.1113 84.8018 37.075 86.2549 37.7268C86.9021 38.017 87.0843 37.7874 87.3356 37.268C88.2394 35.4007 88.2481 35.3919 86.3177 34.6813C86.204 34.6394 86.0992 34.5721 85.9846 34.5347C84.517 34.0573 83.0508 33.4555 81.4866 34.0983C79.8847 34.7402 78.3595 35.5598 76.9392 36.5416C76.2704 37.0061 75.7248 37.6273 75.3495 38.3513C74.9742 39.0753 74.7806 39.8801 74.7857 40.6961C74.7907 41.5121 74.994 42.3145 75.378 43.0339C75.7621 43.7531 76.3153 44.3676 76.9896 44.8239C78.1919 45.6623 79.5791 46.1232 80.877 46.7657C82.3111 47.4758 83.8527 48.001 84.8693 49.3609C85.9463 50.8018 85.9117 52.7644 84.7135 53.6281C84.2275 53.9952 83.6649 54.2469 83.0681 54.3645C82.4711 54.4821 81.8555 54.4624 81.2672 54.307C79.6008 53.8523 78.0223 53.1203 76.5976 52.1415C76.0922 51.8177 75.8228 51.8066 75.5969 52.447C75.2973 53.3687 74.9172 54.262 74.4613 55.1169C73.9628 55.9965 74.3927 56.3293 75.0996 56.5932C77.1168 57.4369 79.2965 57.8179 81.4793 57.7084ZM80.8178 60.128C81.8394 60.0443 82.6552 59.994 83.4662 59.9016C83.7316 59.8714 84.0633 59.7557 84.121 59.4755C84.1958 59.1115 83.7849 59.118 83.5739 58.9851C83.2386 58.8374 82.8691 58.7858 82.5063 58.8362C81.0263 58.7989 79.5548 58.8823 78.0752 58.5268C77.0757 58.2867 76.1148 57.9241 75.1106 57.7197C74.9354 57.6841 74.7035 57.4503 74.5856 57.7964C74.4645 58.1524 75.3822 59.517 75.7988 59.566C77.5387 59.7708 79.2808 59.9574 80.8178 60.128ZM85.6561 38.8991C85.4375 38.9503 85.1762 39.0094 84.916 39.0729C84.6961 39.1266 84.3797 39.0876 84.4288 39.4538C84.4687 39.7505 84.7225 39.8113 84.9741 39.8169C85.3009 39.8471 85.6227 39.9185 85.9318 40.0293C86.3607 40.1478 86.9622 40.7688 87.2268 40.1035C87.4814 39.4634 86.6805 39.3171 86.2246 39.0818C86.0401 39.006 85.85 38.945 85.6561 38.8991Z" fill="#4035A7"/>
<path d="M54.8226 60.0609C54.6964 60.1938 54.5704 60.3267 54.4443 60.4596C53.4583 60.9118 52.4785 61.3791 51.4836 61.8106C51.1977 61.9567 50.8805 62.0305 50.5598 62.0259C50.2391 62.0213 49.9242 61.9383 49.6427 61.7841C48.4535 61.1129 47.3433 60.3098 46.3331 59.3898C46.1086 59.1836 45.9385 58.9249 45.838 58.6368C45.7374 58.3487 45.7095 58.04 45.7567 57.7385C45.8768 56.5649 46.1243 55.4079 46.4946 54.2881C47.2709 52.021 47.8755 49.7054 48.4406 47.3797C49.1261 44.5577 49.8127 41.7353 50.4358 38.8991C50.7413 37.508 51.3873 36.2339 51.6896 34.8486L51.705 34.8319C53.1829 34.059 54.7913 33.8078 56.4139 33.5204C58.4103 33.1668 60.3771 32.382 62.2856 33.7638C62.3022 33.7759 62.3432 33.7543 62.3729 33.7485L62.3819 33.7579C62.3733 33.8765 62.3839 33.9956 62.413 34.1108C64.2956 38.3449 66.183 42.5767 68.0753 46.8064C69.1422 49.1806 70.4656 51.4282 71.5297 53.8071C71.9016 54.6387 71.5776 55.0615 70.8983 55.2617C68.8512 55.8648 67.0459 56.9816 65.1245 57.8503C64.1473 58.2921 63.1956 59.2638 61.9447 58.492C61.583 58.1264 61.2212 57.7609 60.8595 57.3953C60.8877 57.1149 60.6951 56.949 60.5302 56.7741C59.8712 56.0485 59.4834 55.1163 59.4327 54.1362C59.2529 52.7543 58.9658 51.3887 58.574 50.0517C58.4764 49.6499 58.3801 49.1431 57.7839 49.2644C57.2808 49.3728 56.7884 49.5265 56.3128 49.7236C55.9941 49.8519 55.7224 50.1049 55.836 50.5049C56.2128 51.8317 56.1935 53.2107 56.3596 54.5628C56.5993 56.5127 57.1333 58.6104 54.8807 59.8943C54.8423 59.9162 54.8411 60.004 54.8226 60.0609ZM46.986 58.3564C47.6078 58.9589 48.2858 58.6397 48.8992 58.4008C50.0896 57.9575 51.2323 57.3943 52.3094 56.7199C53.7851 55.765 53.9748 56.2572 53.5805 54.1307C53.5481 53.859 53.5399 53.5848 53.5562 53.3116C53.5517 51.6098 53.5485 49.908 53.5468 48.2063L53.7269 48.0256C54.9408 47.715 55.9451 46.9323 57.1188 46.5222C58.4581 46.0542 58.5819 46.0997 59.0858 47.4515C59.8207 49.4226 60.0189 51.5188 60.4956 53.5496C60.6771 54.3229 60.9995 54.3137 61.5803 54.107C62.2038 53.8852 62.846 53.7162 63.4736 53.505C64.7307 53.1666 65.9527 52.7084 67.123 52.1367C67.6489 51.8395 67.8691 51.6001 67.539 50.9284C66.5886 48.9948 65.7446 47.0086 64.8609 45.042C63.3308 41.6368 61.7939 38.2346 60.2806 34.8219C59.9827 34.1502 59.6673 33.807 58.8396 34.0836C57.4936 34.5332 56.0583 34.6382 54.6826 34.9637C53.6602 35.2056 52.3796 35.1341 51.916 36.5019C51.4012 38.1799 51.0006 39.891 50.7169 41.6234C50.1802 44.3909 49.4033 47.0967 48.7538 49.8346C48.1339 52.448 47.4072 55.036 46.7349 57.6371C46.6682 57.8955 46.5832 58.1907 46.9556 58.3213L46.986 58.3564ZM69.4423 54.0468C69.4066 53.8817 69.3377 53.7255 69.2397 53.5881C69.1416 53.4506 69.0167 53.3347 68.8724 53.2474C68.7281 53.1602 68.5676 53.1035 68.4007 53.0808C68.2337 53.058 68.0638 53.0698 67.9016 53.1154C67.1266 53.4342 66.3583 53.7698 65.5924 54.1103C64.4062 54.6375 63.0711 54.6368 61.886 55.1728C61.5986 55.3027 61.306 55.4199 61.2839 55.7682C61.2457 56.3704 62.9003 57.5191 63.4431 57.2621C65.2835 56.3906 67.1185 55.5079 68.9482 54.6138C69.1826 54.4999 69.4787 54.411 69.4423 54.0468ZM50.5274 60.8359C50.9201 60.8225 53.4999 59.5486 54.1598 59.0814C54.8683 58.5797 54.8109 58.1003 54.0379 57.681C53.8293 57.5883 53.5997 57.5533 53.3729 57.5796C53.1463 57.606 52.9307 57.6928 52.7488 57.8309C51.7053 58.427 50.5938 58.8948 49.4387 59.224C49.1316 59.2995 48.8857 59.5177 49.076 59.8058C49.4209 60.3127 49.9361 60.6784 50.5274 60.8359Z" fill="#4035A7"/>
<path d="M7.4887 59.0037C7.424 58.9385 7.35929 58.8733 7.29459 58.8082C6.85813 57.6179 6.01658 56.6441 5.57848 55.4408C4.70756 53.0486 3.92959 50.6834 3.92677 48.0644C3.92435 45.8203 4.38083 43.6712 4.77198 41.5067C4.94495 40.5496 5.07566 39.5017 5.62642 38.6637C7.26243 36.1746 9.11714 33.9553 12.221 33.1829C14.6692 32.5737 16.8056 32.8117 18.6072 34.7746C19.7425 36.0353 20.6688 37.4707 21.3505 39.026C22.5234 41.653 23.3041 44.4389 23.6673 47.2942C23.9759 49.5906 23.3765 51.7994 22.5793 53.9587C22.0293 55.5608 21.1141 57.012 19.9066 58.197C18.699 59.3819 17.2326 60.2678 15.6238 60.7841C13.2464 61.5809 10.8431 60.9206 8.67187 59.6304C8.28803 59.4024 7.98662 59.0157 7.4887 59.0037ZM6.69431 47.1345C6.64115 49.9684 8.10742 53.5896 11.4385 56.3341C12.9181 57.5532 14.6634 58.4045 16.6294 58.0191C20.1297 57.3328 21.874 53.8355 22.3899 51.3205C22.7841 49.1033 22.6714 46.8252 22.0603 44.6579C21.3339 41.7293 20.3525 38.9221 18.5863 36.434C15.8424 32.5687 10.6476 32.9794 8.53472 37.2371C7.21374 39.899 6.74272 42.7385 6.69431 47.1345ZM6.33595 39.7538C5.95592 40.023 5.69577 40.4305 5.61101 40.8894C5.48921 41.5685 5.23509 42.2236 5.11028 42.9025C4.80579 44.5586 4.29714 46.1929 4.68515 47.921C4.92296 48.9802 5.01543 50.0682 5.26391 51.1313C5.68835 53.2333 6.48043 55.2433 7.60345 57.0683C8.35672 58.221 9.00205 58.366 10.2907 57.9025C11.1184 57.6047 10.8757 57.3109 10.402 56.972C9.5208 56.2773 8.77129 55.4292 8.1892 54.4685C6.9775 52.6551 6.17675 50.5973 5.84335 48.44C5.52251 46.4325 5.51905 44.3867 5.8331 42.378C5.95424 41.5594 6.37758 40.7957 6.33595 39.7538Z" fill="#4035A7"/>
<path d="M44.7649 41.3231C44.9311 43.8065 44.1646 46.2623 42.6161 48.2071C41.989 48.9102 41.2571 49.5118 40.4463 49.9902C39.8459 50.3938 39.8136 50.696 40.1841 51.3075C41.2775 53.0195 42.2424 54.8106 43.0708 56.6663C43.8279 58.4743 43.857 60.2219 41.6648 61.3642C40.7516 61.8401 39.8743 62.3815 38.9279 62.7993C38.2155 63.1139 37.7119 63.0557 37.2214 62.3603C36.2178 60.9376 35.5035 59.3589 34.6418 57.8607C34.5093 57.6303 34.4734 57.1485 34.0911 57.2736C33.7655 57.3802 33.8593 57.815 33.9024 58.0955C34.0758 59.4229 34.0494 60.7688 33.8239 62.0882C33.6426 63.3366 33.0252 63.7684 31.822 63.4386C30.9075 63.2096 29.9627 63.1278 29.0227 63.1961C28.5675 63.2269 28.1124 63.1353 27.7046 62.9306C27.2966 62.7259 26.9505 62.4156 26.7021 62.0317C26.175 61.3741 25.793 60.6119 25.5812 59.7952C25.3694 58.9786 25.3328 58.1262 25.4736 57.2943C25.8543 54.7227 26.0764 52.1125 26.4114 49.5269C26.9251 45.56 27.4141 41.5887 28.0694 37.6394C28.2323 36.6581 28.4353 35.6754 28.5424 34.6776C28.7327 32.9014 29.6522 32.147 31.4993 32.0508C32.3479 32.0568 33.1914 32.1851 34.0036 32.4318C36.0289 32.9112 38.148 32.9684 40.1016 33.756C43.3655 35.0717 44.7158 37.0697 44.7639 40.5934C44.7672 40.8368 44.7644 41.0804 44.7649 41.3231ZM33.5455 59.4436H33.5544C33.5544 58.9262 33.5161 58.4051 33.5652 57.8924C33.6145 57.3765 33.2706 56.5408 33.8383 56.4211C34.4683 56.2883 34.6862 57.1513 34.9485 57.667C35.6916 59.2213 36.5452 60.7197 37.5029 62.1508C37.8561 62.652 38.1874 62.8495 38.7818 62.493C39.3986 62.1233 40.0904 61.8815 40.7228 61.5351C43.3876 60.075 43.7237 59.1738 42.5617 56.3375C41.7795 54.5671 40.8434 52.869 39.7643 51.2633C39.3711 50.6427 39.4593 50.2972 39.9884 49.922C40.3091 49.6944 40.625 49.46 40.936 49.2187C41.7721 48.6179 42.4897 47.8666 43.0521 47.0027C44.2348 44.9683 44.7314 42.6052 44.4678 40.2649C44.1954 36.7134 42.5827 34.6115 39.0711 33.7916C36.8991 33.2845 34.6838 32.9647 32.51 32.4645C31.5092 32.2342 30.6469 32.5579 29.7969 32.8846C28.7911 33.2712 28.9438 34.366 28.8041 35.1653C28.3097 37.9936 27.9404 40.8441 27.5326 43.6875C27.2105 45.9336 26.8636 48.1772 26.596 50.4302C26.2641 53.2248 26.0099 56.0287 25.7065 58.8269C25.6126 59.692 26.9655 62.259 27.76 62.6209C27.9278 62.6916 28.1101 62.7204 28.2914 62.7049C29.5309 62.6691 30.7697 62.7962 31.9764 63.0832C33.0333 63.2784 33.4789 62.9193 33.5373 61.817C33.5791 61.0279 33.5455 60.2349 33.5455 59.4436Z" fill="#837CC6"/>
<path d="M7.48875 59.0042C7.98668 59.0163 8.28808 59.4029 8.67194 59.6309C10.8431 60.9211 13.2465 61.5814 15.6238 60.7846C17.2326 60.2683 18.6991 59.3824 19.9067 58.1975C21.1141 57.0125 22.0293 55.5613 22.5794 53.9592C23.3766 51.7999 23.9759 49.5911 23.6673 47.2947C23.3041 44.4394 22.5235 41.6535 21.3506 39.0265C20.6688 37.4712 19.7425 36.0358 18.6071 34.7751C16.8057 32.8122 14.6693 32.5742 12.2211 33.1834C9.11721 33.9558 7.2625 36.1751 5.6265 38.6643C5.07573 39.5022 4.94501 40.5502 4.77203 41.5072C4.3809 43.6717 3.9244 45.8208 3.92682 48.0649C3.92964 50.6839 4.70761 53.0492 5.57853 55.4413C6.01663 56.6445 6.85818 57.6184 7.29463 58.8087C6.35634 58.1847 6.03953 57.1403 5.56554 56.2093C3.79889 52.7392 3.34767 49.015 3.74789 45.2112C3.95162 43.2181 4.36484 41.2521 4.98065 39.3461C5.60919 37.4257 7.12373 36.1522 8.50019 34.7724C10.065 33.2037 12.075 32.7607 14.1051 32.4715C15.7164 32.242 17.1287 32.9845 18.3264 34.0454C20.2918 35.7862 21.4247 38.0708 22.2978 40.4837C23.322 43.3147 24.251 46.2048 23.9609 49.2647C23.5095 54.0252 21.7153 57.9035 17.2717 60.4417C14.332 62.1207 9.92486 61.0789 7.87065 59.4837C7.71363 59.3617 7.49773 59.2574 7.48875 59.0042Z" fill="#837CC6"/>
<path d="M51.6895 34.8477C51.3872 36.233 50.7412 37.5071 50.4357 38.8982C49.8126 41.7344 49.126 44.5568 48.4405 47.3787C47.8754 49.7045 47.2708 52.0201 46.4945 54.2872C46.1242 55.407 45.8768 56.564 45.7566 57.7376C45.7093 58.0391 45.7373 58.3478 45.8379 58.6359C45.9385 58.924 46.1085 59.1827 46.333 59.3888C47.3432 60.3088 48.4533 61.112 49.6426 61.7832C49.9241 61.9374 50.2389 62.0203 50.5597 62.0249C50.8805 62.0296 51.1975 61.9557 51.4834 61.8097C52.4785 61.378 53.4581 60.9109 54.4443 60.4587C53.4043 61.5459 52.0294 62.0156 50.6451 62.3765C49.9038 62.5697 49.297 61.9392 48.6947 61.5473C47.7599 60.9808 46.8827 60.3237 46.0758 59.5856C45.8 59.3222 45.5958 58.9928 45.4821 58.6282C45.3684 58.2638 45.3492 57.8762 45.4262 57.5021C45.7588 55.6229 46.2471 53.7748 46.8859 51.9769C47.4407 50.2449 47.799 48.467 48.2124 46.7005C48.6325 44.9055 49.1543 43.1341 49.5562 41.3354C49.8524 39.759 50.2576 38.2052 50.7686 36.6851C51.008 36.046 51.1261 35.3297 51.6895 34.8477Z" fill="#837CC6"/>
<path d="M61.9453 58.4919C63.1962 59.2637 64.1478 58.292 65.1252 57.8502C67.0464 56.9816 68.8517 55.8647 70.8989 55.2616C71.5782 55.0614 71.9023 54.6386 71.5302 53.807C70.4662 51.4281 69.1428 49.1805 68.076 46.8063C66.1767 42.5798 64.2892 38.3479 62.4137 34.1108C62.3844 33.9955 62.3739 33.8764 62.3824 33.7578C62.9874 34.008 62.9757 34.6463 63.1914 35.1192C65.9115 41.0819 68.4042 47.1502 71.4595 52.9569C71.5866 53.1985 71.6985 53.4486 71.8076 53.6992C72.2125 54.6294 72.0298 55.2603 71.0517 55.5528C68.5022 56.315 66.2597 57.7216 63.8764 58.8313C63.1772 59.1569 62.4385 59.4595 61.9453 58.4919Z" fill="#837CC6"/>
<path d="M77.4181 47.9102C78.8849 48.6069 80.3574 49.2916 81.8155 50.0062C82.3521 50.28 82.9128 50.5037 83.4904 50.6744C84.4112 50.9321 84.6417 51.6157 84.1373 52.4275C83.5285 53.4076 82.5958 53.6865 81.3762 53.4138C79.4644 52.9862 77.9248 51.8292 76.2804 50.8873C75.6464 50.5243 75.4049 50.6653 75.1036 51.2412C74.4129 52.5175 73.8225 53.8458 73.3381 55.2144C72.916 56.4618 73.7401 57.418 74.1193 58.4752C74.3195 59.0334 74.7542 59.5136 74.6655 60.1658C73.913 59.0395 73.35 57.7969 72.9987 56.4876C72.673 55.2696 73.3854 54.1924 73.8208 53.1074C74.1133 52.3786 74.5231 51.6979 74.862 50.9868C75.1982 50.2813 75.6519 50.2006 76.3347 50.5513C77.6257 51.2146 78.7419 52.1963 80.1455 52.6487C80.7476 52.8427 81.351 53.0347 81.9605 53.2039C82.2442 53.2607 82.5377 53.2427 82.8125 53.1518C83.0872 53.061 83.3338 52.9003 83.5283 52.6854C83.7067 52.5662 83.8478 52.3986 83.935 52.2021C84.0222 52.0057 84.052 51.7884 84.021 51.5756C83.9276 51.1262 83.5119 51.042 83.1362 50.9026C81.2603 50.1392 79.4339 49.2587 77.6678 48.2662C77.5539 48.2067 77.5 48.0315 77.4181 47.9102Z" fill="#837CC6"/>
<path d="M54.8223 60.0609C54.8408 60.0039 54.842 59.9161 54.8804 59.8943C57.133 58.6103 56.5989 56.5126 56.3593 54.5627C56.1932 53.2107 56.2124 51.8317 55.8357 50.5049C55.722 50.1048 55.9938 49.8518 56.3125 49.7236C56.7881 49.5264 57.2805 49.3727 57.7836 49.2644C58.3798 49.1431 58.4761 49.6498 58.5737 50.0517C58.9654 51.3887 59.2525 52.7543 59.4324 54.1361C59.4831 55.1163 59.8709 56.0485 60.5299 56.774C60.6948 56.949 60.8874 57.1148 60.8592 57.3953C59.7014 56.5935 59.2697 55.4447 59.103 54.0796C58.9045 52.7645 58.6377 51.4608 58.3038 50.1736C58.14 49.4608 57.6163 49.6841 57.1415 49.7924C56.6063 49.9144 56.1792 50.0343 56.2497 50.7775C56.4215 52.5888 56.8389 54.376 56.7884 56.2091C56.7784 56.574 56.7902 56.9395 56.7895 57.3047C56.7867 58.7876 56.278 59.4999 54.8223 60.0609Z" fill="#837CC6"/>
<path d="M74.6787 60.1805C77.1987 60.7824 79.792 61.0174 82.3788 60.8783C84.9002 60.7992 87.2012 60.1675 89.0304 58.2984C89.1241 58.2282 89.2278 58.1724 89.338 58.1328C89.0748 59.0887 88.2318 59.4907 87.4881 59.8866C85.0751 61.1708 82.4725 61.4681 79.7722 61.2161C78.477 61.1512 77.1871 61.0061 75.9097 60.7815C75.4419 60.6785 74.9293 60.7126 74.6787 60.1805Z" fill="#837CC6"/>
<path d="M89.0808 34.5583C88.096 34.2658 87.2371 33.6922 86.2871 33.305C83.7948 32.2894 81.5119 32.6509 79.2596 33.9191C78.3266 34.4174 77.4266 34.9756 76.5652 35.5902C76.3063 35.7836 76.0626 36.0484 75.6879 36.0225C75.6779 35.8012 75.8591 35.7063 75.9954 35.6068C77.5662 34.4289 79.2916 33.4742 81.1227 32.7698C82.9056 32.1069 84.6251 32.3763 86.3214 33.0008C87.3152 33.3668 88.4024 33.6118 89.0808 34.5583Z" fill="#837CC6"/>
<path d="M89.336 58.1342C89.6713 57.1099 90.1457 56.1349 90.5709 55.1544C91.4826 53.0515 91.146 51.1075 90.3154 49.1159C89.8173 47.9215 89.1533 46.8166 88.6025 45.6523C88.7224 45.6753 88.8347 45.7274 88.9299 45.804C89.025 45.8805 89.1001 45.9793 89.1485 46.0916C90.3358 48.2687 91.6909 50.4476 91.383 53.045C91.1661 54.8755 90.685 56.7091 89.336 58.1342Z" fill="#837CC6"/>
<path d="M62.373 33.7481C62.3433 33.7539 62.3024 33.7755 62.2857 33.7634C60.3773 32.3816 58.4105 33.1664 56.4141 33.52C54.7915 33.8075 53.1831 34.0586 51.7051 34.8315C52.309 33.9625 53.2802 33.6988 54.2001 33.5573C55.9575 33.2871 57.6868 32.9138 59.4234 32.547C60.5922 32.3001 61.5313 32.9919 62.373 33.7481Z" fill="#837CC6"/>
<path d="M74.7576 36.9551C74.6083 37.6964 74.123 38.3003 73.9665 39.0541C73.4591 41.4992 74.4386 43.5452 75.591 45.5601C75.812 45.9466 76.1999 46.2459 76.2099 46.7435C75.0292 45.7407 74.6065 44.3056 74.0213 42.9525C73.655 42.1342 73.4723 41.2451 73.4861 40.3483C73.4999 39.4513 73.7096 38.5684 74.1008 37.7617C74.2473 37.4364 74.3515 37.0705 74.7576 36.9551Z" fill="#837CC6"/>
<path d="M88.0603 45.1134C86.3505 44.0763 84.3721 43.469 82.9611 41.9601C82.6593 41.6371 82.0983 41.2761 82.6714 40.707C82.8077 41.6817 83.5524 42.1871 84.2706 42.6553C85.1456 43.2257 86.0985 43.6749 86.9981 44.2096C87.3964 44.4463 87.8908 44.5959 88.0603 45.1134Z" fill="#837CC6"/>
<path d="M89.2871 41.2536C89.2923 41.1939 89.2758 41.1188 89.3057 41.0768C90.7702 39.0265 90.3824 36.9783 89.3085 34.9275C89.2916 34.87 89.285 34.8099 89.2892 34.75C90.3387 35.2939 90.2991 36.376 90.4881 37.3089C90.7525 38.6141 90.6766 39.8915 89.7046 40.949C89.5879 41.0758 89.5025 41.2576 89.2871 41.2536Z" fill="#837CC6"/>
<path d="M82.708 40.6687C83.2232 40.1362 83.8471 40.3614 84.3924 40.5161C85.3368 40.7248 86.2522 41.0482 87.1186 41.4793C87.8013 41.8708 88.4352 41.6985 89.0877 41.4521C88.689 42.1498 88.1431 42.2286 87.4226 41.9441C85.9014 41.3438 84.4148 40.5884 82.708 40.6687Z" fill="#837CC6"/>
<path d="M76.2227 46.752C76.467 46.8489 76.6886 46.9957 76.8735 47.183C77.0585 47.3703 77.2027 47.5941 77.2969 47.8403C77.0409 47.7645 76.808 47.625 76.6203 47.4347C76.4324 47.2445 76.2956 47.0095 76.2227 46.752Z" fill="#837CC6"/>
<path d="M75.4731 36.209C75.4413 36.3859 75.3583 36.5496 75.2344 36.6795C75.1105 36.8094 74.9512 36.8999 74.7764 36.9395C74.7898 36.7555 74.8667 36.5819 74.9939 36.4486C75.121 36.3153 75.2905 36.2305 75.4731 36.209Z" fill="#837CC6"/>
<path d="M81.4796 57.7102C79.2968 57.8197 77.1171 57.4387 75.0999 56.595C74.393 56.3311 73.9631 55.9983 74.4617 55.1187C74.9176 54.2638 75.2975 53.3705 75.5973 52.4488C75.8232 51.8083 76.0925 51.8195 76.5978 52.1433C78.0227 53.1221 79.6012 53.8541 81.2676 54.3088C81.8557 54.4642 82.4714 54.4839 83.0684 54.3663C83.6653 54.2487 84.2279 53.997 84.7139 53.6299C85.912 52.7662 85.9467 50.8036 84.8697 49.3627C83.853 48.0028 82.3115 47.4776 80.8773 46.7675C79.5796 46.125 78.1923 45.6641 76.99 44.8257C76.3157 44.3694 75.7624 43.7549 75.3784 43.0357C74.9944 42.3163 74.791 41.5139 74.7861 40.6979C74.781 39.8819 74.9746 39.077 75.3499 38.3531C75.7252 37.6291 76.2708 37.0079 76.9395 36.5434C78.3598 35.5615 79.8852 34.742 81.487 34.1001C83.0512 33.4573 84.5174 34.0591 85.985 34.5365C86.0997 34.5738 86.2044 34.6412 86.318 34.6831C88.2485 35.3937 88.2399 35.4025 87.336 37.2698C87.0847 37.7892 86.9024 38.0188 86.2553 37.7286C84.8022 37.0768 83.231 37.1131 81.6884 37.2817C80.0112 37.4651 79.1449 39.1061 79.8088 40.693C80.2567 41.7365 81.0556 42.5892 82.066 43.1023C83.2102 43.7249 84.3546 44.3495 85.523 44.9242C87.9923 46.1387 89.0731 48.161 89.1444 50.8581C89.2386 52.1968 88.9512 53.5347 88.3156 54.7155C87.1808 56.6826 85.3995 57.5511 83.2136 57.7038C82.6093 57.746 81.9995 57.7102 81.4796 57.7102Z" fill="#CCF575"/>
<path d="M80.8182 60.1298C79.2813 59.9593 77.5392 59.7727 75.7993 59.5679C75.3826 59.5188 74.4649 58.1543 74.5861 57.7983C74.7039 57.4521 74.936 57.6859 75.1111 57.7215C76.1154 57.9259 77.0761 58.2886 78.0757 58.5287C79.5553 58.8842 81.0267 58.8008 82.5069 58.838C82.8696 58.7876 83.2391 58.8392 83.5743 58.987C83.7854 59.1199 84.1963 59.1133 84.1214 59.4774C84.0638 59.7575 83.7321 59.8733 83.4667 59.9035C82.6557 59.9958 81.8399 60.0462 80.8182 60.1298Z" fill="#837CC6"/>
<path d="M85.6561 38.9004C85.8502 38.9462 86.0402 39.0072 86.2247 39.083C86.6806 39.3183 87.4816 39.4646 87.227 40.1047C86.9623 40.77 86.3608 40.149 85.9319 40.0305C85.6228 39.9197 85.301 39.8483 84.9742 39.8181C84.7226 39.8125 84.4688 39.7518 84.429 39.4551C84.3797 39.0888 84.6961 39.1278 84.916 39.0741C85.1763 39.0106 85.4375 38.9515 85.6561 38.9004Z" fill="#837CC6"/>
<path d="M53.7273 48.0244C53.6672 48.0846 53.6072 48.1449 53.5471 48.2052C53.2296 48.2813 53.235 48.5404 53.2374 48.7818C53.256 50.632 53.1935 52.4891 53.3381 54.3296C53.4146 55.3023 53.2834 55.9292 52.3467 56.3542C50.6034 57.1449 49.0484 58.4253 46.9863 58.3553L46.9561 58.32C47.3239 56.8149 47.6642 55.3024 48.0644 53.806C49.525 48.3444 50.8429 42.8487 52.0179 37.3189C52.0782 36.8394 52.2998 36.3949 52.6462 36.059C52.9926 35.7231 53.443 35.5159 53.9227 35.4717C55.4997 35.1713 57.0813 34.8754 58.6329 34.4699C59.3734 34.2764 59.7094 34.4165 60.0239 35.1202C62.355 40.3371 64.7115 45.5427 67.0933 50.7369C67.4107 51.4309 67.2585 51.826 66.5659 52.0622C64.8448 52.6493 63.1222 53.2317 61.4044 53.8286C60.9841 53.9748 60.8728 53.7773 60.807 53.4142C60.6604 52.6067 60.4916 51.8032 60.3243 50.9998C60.1014 49.6496 59.7617 48.3214 59.309 47.0304C58.8532 45.8843 58.3714 45.6769 57.2729 46.1188C57.0999 46.175 56.9304 46.2416 56.7654 46.3184C55.7487 46.8798 54.5024 47.0314 53.7273 48.0244ZM53.6094 42.0698C53.5232 43.8443 53.8786 44.099 55.2979 43.5977C55.4687 43.5374 55.6506 43.5088 55.8218 43.4494C58.1085 42.6561 58.231 42.3146 57.5692 39.9397C56.9992 37.8951 56.6216 38.2784 55.0658 38.7565C54.8399 38.847 54.6379 38.9884 54.475 39.1697C54.3123 39.351 54.1933 39.5674 54.1271 39.8022C53.825 40.5223 53.6498 41.2896 53.6094 42.0698Z" fill="#FCFCFD"/>
<path d="M53.7274 48.0244C54.5024 47.0314 55.7487 46.8798 56.7655 46.3184C56.9305 46.2418 57.1 46.1751 57.273 46.1188C58.3714 45.6769 58.8532 45.8843 59.309 47.0304C59.7617 48.3214 60.1014 49.6496 60.3243 50.9998C60.4917 51.8032 60.6604 52.6067 60.8069 53.4142C60.8728 53.7773 60.9841 53.9748 61.4045 53.8286C63.1222 53.2317 64.8449 52.6493 66.566 52.0622C67.2585 51.826 67.4107 51.4309 67.0934 50.7369C64.7172 45.5403 62.3608 40.3347 60.0239 35.1202C59.7094 34.4165 59.3734 34.2764 58.6328 34.4699C57.0812 34.8754 55.4997 35.1713 53.9228 35.4718C53.443 35.5159 52.9926 35.7231 52.6463 36.059C52.2998 36.3949 52.0781 36.8394 52.0179 37.3189C50.8532 42.8504 49.5354 48.3461 48.0644 53.806C47.6643 55.3024 47.324 56.8149 46.956 58.32C46.5836 58.1896 46.6685 57.8943 46.7353 57.6358C47.4075 55.0347 48.1342 52.4468 48.7542 49.8333C49.4037 47.0955 50.1805 44.3898 50.7173 41.6222C51.0009 39.8898 51.4016 38.1787 51.9165 36.5007C52.38 35.1329 53.6606 35.2044 54.6831 34.9625C56.0586 34.637 57.494 34.5321 58.84 34.0824C59.6677 33.8059 59.983 34.1491 60.2809 34.8208C61.7943 38.2334 63.3312 41.6357 64.8612 45.0408C65.7449 47.0074 66.589 48.9937 67.5393 50.9273C67.8694 51.5988 67.6492 51.8382 67.1233 52.1356C65.953 52.7072 64.731 53.1654 63.4739 53.5037C62.8463 53.715 62.2041 53.884 61.5806 54.1059C60.9999 54.3126 60.6774 54.3217 60.4959 53.5485C60.0193 51.5176 59.8211 49.4215 59.0861 47.4503C58.5822 46.0986 58.4584 46.0531 57.1192 46.5209C55.9454 46.931 54.9412 47.7139 53.7274 48.0244Z" fill="#837CC6"/>
<path d="M69.4414 54.0451C69.4786 54.4099 69.1825 54.4988 68.9481 54.6127C67.1163 55.5022 65.2814 56.385 63.4431 57.261C62.9003 57.518 61.2456 56.3693 61.2839 55.7671C61.3061 55.4188 61.5986 55.3016 61.886 55.1717C63.071 54.6358 64.4061 54.6364 65.5924 54.1092C66.3583 53.7688 67.1266 53.4331 67.9016 53.1143C68.0637 53.0686 68.2335 53.0569 68.4003 53.0796C68.5672 53.1022 68.7277 53.1589 68.8719 53.2461C69.0162 53.3333 69.1411 53.4491 69.2391 53.5865C69.337 53.7239 69.4059 53.88 69.4414 54.0451Z" fill="#837CC6"/>
<path d="M50.528 60.8351C49.9367 60.6776 49.4215 60.312 49.0766 59.805C48.8863 59.5169 49.1322 59.2986 49.4393 59.2233C50.5944 58.894 51.7058 58.4263 52.7494 57.8302C52.9313 57.692 53.1469 57.6052 53.3735 57.5788C53.6002 57.5525 53.8299 57.5875 54.0385 57.6802C54.8115 58.0995 54.8689 58.579 54.1604 59.0806C53.5005 59.5479 50.9207 60.8218 50.528 60.8351Z" fill="#837CC6"/>
<path d="M46.9863 58.3552C49.0484 58.4251 50.6034 57.1448 52.3468 56.354C53.2836 55.929 53.4147 55.3021 53.3383 54.3295C53.1936 52.489 53.2561 50.6319 53.2375 48.7817C53.235 48.5403 53.2298 48.2811 53.5473 48.2051C53.5501 49.9068 53.5531 51.6086 53.5566 53.3103C53.5404 53.5835 53.5486 53.8577 53.581 54.1294C53.9752 56.2559 53.7855 55.7637 52.3098 56.7186C51.2327 57.393 50.0901 57.9562 48.8997 58.3995C48.2862 58.6384 47.6083 58.9576 46.9863 58.3552Z" fill="#837CC6"/>
<path d="M6.69475 47.1355C6.74316 42.7395 7.2142 39.9 8.53516 37.2381C10.6481 32.9804 15.8428 32.5697 18.5867 36.435C20.353 38.9231 21.3344 41.7303 22.0608 44.6589C22.6718 46.8262 22.7845 49.1043 22.3904 51.3215C21.8745 53.8365 20.1301 57.3338 16.6299 58.0201C14.6638 58.4055 12.9186 57.5543 11.4389 56.3351C8.10787 53.5906 6.6416 49.9694 6.69475 47.1355ZM11.3235 42.6983C11.3036 44.3682 11.4866 46.0343 11.8685 47.6599C12.0909 48.8917 12.6693 50.0309 13.5319 50.9357C13.8732 51.283 14.2913 51.5448 14.7522 51.6997C15.2132 51.8547 15.7041 51.8984 16.1851 51.8275C16.666 51.7567 17.1237 51.573 17.5207 51.2916C17.9178 51.0101 18.243 50.6387 18.4704 50.2076C19.5329 48.2642 19.4388 46.253 18.8213 44.2055C18.1493 41.977 17.2493 39.859 15.643 38.1397C14.3112 36.7142 12.4103 37.1845 11.7873 39.0164C11.426 40.2085 11.2692 41.4536 11.3235 42.6983Z" fill="#D04485"/>
<path d="M6.33587 39.7539C6.37751 40.7958 5.95415 41.5596 5.83301 42.3781C5.51897 44.3868 5.52242 46.4326 5.84326 48.4401C6.17666 50.5974 6.97741 52.6552 8.18912 54.4686C8.7712 55.4294 9.52072 56.2774 10.4019 56.9721C10.8756 57.311 11.1183 57.6049 10.2906 57.9026C9.00196 58.3661 8.35664 58.2211 7.60337 57.0684C6.48035 55.2435 5.68828 53.2334 5.26383 51.1314C5.01535 50.0683 4.92287 48.9803 4.68509 47.9211C4.2971 46.193 4.80572 44.5587 5.11021 42.9027C5.23503 42.2237 5.48914 41.5686 5.61094 40.8895C5.6957 40.4306 5.95583 40.0231 6.33587 39.7539Z" fill="#837CC6"/>
<path d="M33.5448 59.4435C33.5448 60.2348 33.5785 61.0279 33.5367 61.8169C33.4782 62.9192 33.0325 63.2783 31.9757 63.0831C30.7691 62.7962 29.5302 62.669 28.2908 62.7048C28.1094 62.7203 27.9271 62.6915 27.7594 62.6208C26.9648 62.2589 25.612 59.6919 25.7058 58.8268C26.0093 56.0287 26.2635 53.2248 26.5953 50.4301C26.8629 48.1772 27.2098 45.9336 27.5319 43.6874C27.9397 40.844 28.309 37.9936 28.8034 35.1653C28.9431 34.3659 28.7904 33.2712 29.7962 32.8846C30.6462 32.5579 31.5086 32.2341 32.5094 32.4644C34.6832 32.9647 36.8984 33.2844 39.0704 33.7916C42.5821 34.6115 44.1947 36.7134 44.4672 40.2649C44.7307 42.6051 44.2341 44.9682 43.0514 47.0028C42.489 47.8665 41.7714 48.618 40.9353 49.2187C40.6241 49.4593 40.3083 49.6937 39.9877 49.9219C39.4586 50.2972 39.3704 50.6426 39.7637 51.2632C40.8428 52.8691 41.7789 54.567 42.5611 56.3376C43.723 59.1738 43.387 60.0749 40.7222 61.535C40.0897 61.8814 39.398 62.1232 38.7812 62.493C38.1868 62.8494 37.8555 62.6519 37.5023 62.1508C36.5446 60.7197 35.6909 59.2212 34.9479 57.667C34.6855 57.1512 34.4676 56.2883 33.8376 56.4212C33.27 56.5408 33.6139 57.3765 33.5645 57.8924C33.5154 58.4051 33.5537 58.9261 33.5537 59.4436L33.5448 59.4435ZM26.7756 58.8358C26.7538 58.9347 26.755 59.0374 26.7789 59.1358C26.8028 59.2343 26.8488 59.326 26.9136 59.4038C26.9783 59.4817 27.0599 59.5435 27.1522 59.5848C27.2444 59.626 27.3449 59.6456 27.4459 59.6418C28.2863 59.7448 29.1265 59.8587 29.9701 59.924C31.5042 60.0425 31.5478 60.033 31.6977 58.4569C31.9734 55.5585 32.1939 52.6548 32.4361 49.7533C32.4584 49.4859 32.3936 49.1413 32.7199 49.0533C33.0438 48.9659 33.1789 49.2808 33.3079 49.516C33.9327 50.6545 34.5696 51.7868 35.1661 52.9401C36.1917 54.923 37.2115 56.9094 38.1889 58.9163C38.5355 59.6278 38.8862 59.7106 39.5097 59.2458C40.0727 58.8379 40.6673 58.4758 41.2878 58.1625C41.3934 58.1162 41.488 58.0482 41.5656 57.9629C41.6433 57.8776 41.7023 57.7769 41.7387 57.6673C41.7752 57.5577 41.7883 57.4417 41.7772 57.3266C41.7661 57.2117 41.7311 57.1003 41.6744 56.9998C41.3059 56.0097 40.8764 55.0435 40.3885 54.1068C39.5775 52.62 38.6802 51.1806 37.811 49.7261C37.7184 49.6145 37.6501 49.4848 37.6105 49.3452C37.5708 49.2056 37.5607 49.0593 37.5807 48.9155C37.6007 48.7718 37.6503 48.6338 37.7266 48.5104C37.8028 48.387 37.9038 48.2809 38.0233 48.199C38.3641 47.8955 38.6851 47.5704 38.9846 47.2258C40.5355 45.562 42.1155 43.9139 42.9901 41.7584C43.334 41.0806 43.5097 40.3296 43.5023 39.569C43.3021 37.5243 40.8766 35.0767 38.8465 34.7301C36.556 34.339 34.2713 33.9135 31.9873 33.4852C30.7769 33.2582 30.2528 33.7109 30.0337 34.8951C29.692 36.7422 29.4475 38.6015 29.1661 40.4562C28.8481 42.5522 28.5257 44.6481 28.2527 46.7502C27.9406 49.1537 27.7093 51.5677 27.3882 53.9698C27.1714 55.592 27.2528 57.2505 26.7756 58.8358ZM28.2668 60.6494C27.8938 60.7672 27.3573 60.471 27.2662 60.8966C27.1832 61.2845 27.5452 61.6557 27.9219 61.9133C28.1844 62.0651 28.4867 62.1338 28.7887 62.1101C29.6362 62.1409 30.4841 62.1692 31.3307 62.2172C31.6645 62.2361 32.0868 62.5377 32.231 61.9888C32.2633 61.884 32.2699 61.7729 32.2501 61.665C32.2303 61.557 32.1847 61.4555 32.1173 61.3692C32.0498 61.2828 31.9625 61.2141 31.8628 61.169C31.763 61.1239 31.6539 61.1037 31.5447 61.1102C30.4198 61.0687 29.3341 60.7819 28.2668 60.6494ZM37.7841 61.0077C37.845 60.8957 37.8787 60.7711 37.8825 60.6436C37.8865 60.5162 37.8603 60.3895 37.8063 60.2741C36.8792 57.9992 35.8098 55.7852 34.6046 53.6455C34.462 53.3712 34.387 52.7624 33.8979 53.0626C33.4571 53.3331 33.9189 53.7177 34.0589 54.0047C34.7721 55.4665 35.506 56.9181 36.2604 58.3596C36.7145 59.2294 37.0141 60.1943 37.7841 61.0077Z" fill="#4035A7"/>
<path d="M53.6088 42.0698C53.6491 41.2896 53.8243 40.5223 54.1265 39.8022C54.1926 39.5674 54.3116 39.351 54.4744 39.1697C54.6372 38.9884 54.8393 38.847 55.0652 38.7565C56.621 38.2783 56.9985 37.8951 57.5685 39.9397C58.2305 42.3145 58.1078 42.6561 55.8212 43.4494C55.65 43.5088 55.468 43.5373 55.2972 43.5977C53.878 44.0989 53.5225 43.8442 53.6088 42.0698ZM55.1682 41.2898C55.2302 41.5594 55.0362 41.9857 55.5154 41.991C55.5925 41.9937 55.6694 41.981 55.7416 41.9536C55.8138 41.9261 55.8798 41.8845 55.9357 41.8311C55.9916 41.7777 56.0364 41.7137 56.0673 41.6428C56.0982 41.5718 56.1148 41.4955 56.1159 41.418C56.1205 41.2313 56.0556 41.0496 55.9337 40.9084C55.8119 40.7672 55.642 40.6766 55.4571 40.6544C55.0466 40.6247 55.2658 41.0694 55.1682 41.2898Z" fill="#4035A7"/>
<path d="M11.3231 42.6982C11.2684 41.4533 11.4251 40.2083 11.7865 39.0162C12.4095 37.1843 14.3104 36.714 15.6423 38.1395C17.2485 39.8588 18.1484 41.9768 18.8204 44.2052C19.4379 46.2529 19.5321 48.2641 18.4695 50.2074C18.2423 50.6386 17.9169 51.0099 17.5198 51.2914C17.1228 51.5728 16.6653 51.7564 16.1843 51.8274C15.7033 51.8983 15.2124 51.8544 14.7515 51.6996C14.2904 51.5446 13.8723 51.2828 13.531 50.9355C12.6686 50.0307 12.0901 48.8916 11.8677 47.6597C11.4858 46.0342 11.3029 44.3681 11.3231 42.6982ZM14.2104 50.0598C14.3921 50.6878 14.6749 50.8092 15.1223 50.4514L15.4616 50.2396C15.6403 50.244 15.8182 50.2654 15.9929 50.3034C17.3271 50.723 17.6494 50.5849 18.2603 49.3267C18.3865 49.067 18.4941 48.7754 18.2701 48.5699C18.0175 48.3381 17.7637 48.5928 17.5368 48.7218C17.0919 48.9746 16.9141 49.5346 16.4084 49.722L16.3549 49.6636C16.0897 49.0834 17.0674 48.6689 16.5681 48.0574L16.6009 47.3409C17.0732 46.9666 17.0711 46.5912 16.6037 46.2146L16.5626 45.6827C16.8894 45.2228 16.711 44.9366 16.2433 44.7499L16.1871 44.405C16.249 44.0187 16.1954 43.6228 16.033 43.2671C15.8708 42.9113 15.6072 42.6118 15.2755 42.4062C15.2346 42.3812 15.2032 42.3432 15.1862 42.2983C15.3164 41.8829 15.1284 41.7027 14.7302 41.6779L14.7311 41.6788C14.6948 40.9547 14.0634 40.9399 13.6027 40.804C13.2333 40.695 12.8084 40.7625 12.7564 41.3141C12.3427 42.5699 12.6605 43.8604 12.5754 45.1317C12.2951 45.6115 12.3096 46.0088 12.8864 46.2488L12.9498 46.7756C12.6299 47.2299 12.8906 47.4867 13.2645 47.7051L13.3157 48.0544C13.2889 48.8689 13.4449 49.6013 14.211 50.0601L14.2104 50.0598Z" fill="#4035A7"/>
<path d="M26.7762 58.8368C27.2534 57.2516 27.172 55.5931 27.3889 53.971C27.71 51.5688 27.9413 49.1548 28.2534 46.7513C28.5264 44.6492 28.8487 42.5533 29.1667 40.4573C29.4481 38.6026 29.6927 36.7433 30.0344 34.8962C30.2535 33.712 30.7776 33.2593 31.9879 33.4863C34.2719 33.9146 36.5566 34.3401 38.8471 34.7312C40.8772 35.0778 43.3029 37.5254 43.503 39.5701C43.5103 40.3307 43.3346 41.0817 42.9907 41.7595C42.1161 43.915 40.5362 45.5631 38.9853 47.2269C38.6859 47.5715 38.3648 47.8966 38.024 48.2001C37.9046 48.282 37.8035 48.3881 37.7273 48.5115C37.6511 48.6349 37.6013 48.7728 37.5813 48.9166C37.5614 49.0604 37.5715 49.2067 37.6111 49.3463C37.6508 49.4859 37.719 49.6156 37.8116 49.7272C38.6808 51.1817 39.5782 52.6212 40.3891 54.1079C40.877 55.0446 41.3064 56.0108 41.675 57.0008C41.7317 57.1014 41.7667 57.2128 41.7778 57.3277C41.7889 57.4427 41.7757 57.5588 41.7394 57.6684C41.7029 57.778 41.6439 57.8787 41.5662 57.964C41.4885 58.0493 41.3939 58.1173 41.2885 58.1636C40.668 58.4769 40.0734 58.839 39.5102 59.2469C38.8868 59.7117 38.5361 59.6289 38.1896 58.9174C37.2121 56.9105 36.1922 54.9241 35.1667 52.9412C34.5702 51.7879 33.9333 50.6556 33.3086 49.517C33.1795 49.2819 33.0445 48.967 32.7205 49.0544C32.3942 49.1424 32.4591 49.4869 32.4368 49.7544C32.1946 52.6559 31.9741 55.5595 31.6984 58.4579C31.5484 60.0341 31.5048 60.0434 29.9708 59.925C29.1271 59.8598 28.2869 59.7459 27.4466 59.6429C27.3456 59.6466 27.2451 59.6271 27.1528 59.5858C27.0606 59.5446 26.9789 59.4826 26.9142 59.4049C26.8495 59.3271 26.8034 59.2354 26.7795 59.1369C26.7556 59.0385 26.7545 58.9358 26.7762 58.8368ZM32.2372 42.4659C32.2372 43.0052 32.2373 43.3394 32.2372 43.6736C32.237 44.9531 32.4314 45.1504 33.7117 45.1174C34.6992 45.101 35.669 44.8524 36.5433 44.3915C37.4176 43.9306 38.1718 43.2704 38.7455 42.4639C40.0182 40.7906 40.0477 37.7645 37.8838 36.7882C36.3797 36.1096 34.8207 36.2484 33.279 36.6146C33.0823 36.6627 32.9087 36.7785 32.7883 36.9418C32.6679 37.1051 32.6084 37.3056 32.6202 37.5084C32.7299 39.248 32.1483 40.9344 32.2372 42.4659Z" fill="#5EBAB4"/>
<path d="M28.2675 60.6504C29.3347 60.7829 30.4205 61.0697 31.5454 61.1112C31.6546 61.1047 31.7637 61.1249 31.8634 61.17C31.9631 61.2152 32.0504 61.2839 32.1179 61.3702C32.1854 61.4565 32.231 61.5581 32.2508 61.666C32.2706 61.7739 32.264 61.885 32.2316 61.9898C32.0875 62.5387 31.6652 62.2371 31.3314 62.2182C30.4848 62.1704 29.6369 62.1419 28.7894 62.1111C28.4873 62.1348 28.1851 62.0662 27.9225 61.9143C27.5459 61.6567 27.1839 61.2856 27.2669 60.8976C27.3579 60.472 27.8944 60.7682 28.2675 60.6504Z" fill="#837CC6"/>
<path d="M37.7843 61.0087C37.0143 60.1953 36.7148 59.2305 36.2607 58.3606C35.5081 56.9187 34.7743 55.467 34.0592 54.0057C33.9191 53.7187 33.4573 53.3341 33.8981 53.0636C34.3873 52.7634 34.4622 53.3722 34.6048 53.6465C35.8101 55.7862 36.8795 58.0002 37.8065 60.2751C37.8606 60.3905 37.8867 60.5172 37.8829 60.6446C37.8789 60.7721 37.8452 60.8969 37.7843 61.0087Z" fill="#837CC6"/>
<path d="M55.1689 41.2911C55.2666 41.0707 55.0474 40.6261 55.4578 40.6557C55.6427 40.6779 55.8127 40.7685 55.9345 40.9097C56.0563 41.0509 56.1212 41.2326 56.1166 41.4193C56.1155 41.4968 56.099 41.5731 56.068 41.6441C56.0371 41.715 55.9924 41.779 55.9364 41.8324C55.8805 41.8858 55.8145 41.9273 55.7423 41.9549C55.6702 41.9823 55.5933 41.995 55.5162 41.9923C55.037 41.987 55.2309 41.5608 55.1689 41.2911Z" fill="#837CC6"/>
<path d="M16.188 44.4039C16.2068 44.519 16.2255 44.6339 16.2443 44.7489C16.2062 44.9188 16.216 45.096 16.2723 45.2607C16.3287 45.4253 16.4295 45.5711 16.5636 45.6818C16.5773 45.8591 16.5909 46.0363 16.6045 46.2137C16.5113 46.5831 16.5103 46.9699 16.6018 47.3399L16.5689 48.0563L15.4626 50.2386L15.1231 50.4504C14.7885 50.4085 14.4725 50.2728 14.2113 50.0588L14.2118 50.0591C13.9204 49.3874 13.8041 48.637 13.3165 48.0534L13.2653 47.7041C13.3105 47.5353 13.3047 47.3569 13.2487 47.1914C13.1927 47.0259 13.089 46.8809 12.9507 46.7746C12.9296 46.599 12.9084 46.4234 12.8873 46.2478C12.9234 46.0502 12.9142 45.8468 12.8603 45.6533C12.8064 45.4597 12.7093 45.281 12.5763 45.1307C12.6614 43.8593 12.3436 42.5688 12.7572 41.3131C13.5077 40.9325 14.111 41.353 14.7319 41.6779L14.731 41.6769C14.745 41.9857 14.9697 42.1388 15.1872 42.2972C15.2041 42.3422 15.2355 42.3802 15.2764 42.4052C15.5535 43.0837 15.6973 43.8233 16.188 44.4039Z" fill="#FCFCFD"/>
<path d="M15.4619 50.2389L16.5683 48.0566C17.0675 48.6681 16.0899 49.0827 16.3557 49.6636C16.2636 49.725 16.1374 49.7663 16.088 49.852C16.078 49.872 16.0745 49.8945 16.0778 49.9166C16.0812 49.9387 16.0913 49.9591 16.1069 49.9753C16.1223 49.9913 16.1424 50.002 16.1643 50.0061C16.1862 50.01 16.2088 50.0072 16.2291 49.9977C16.3137 49.9479 16.3507 49.8167 16.4086 49.7212C16.9143 49.5338 17.0922 48.9738 17.5371 48.721C17.764 48.5921 18.0178 48.3374 18.2703 48.5691C18.4944 48.7746 18.3867 49.0663 18.2605 49.326C17.6496 50.5842 17.3274 50.7223 15.9931 50.3026C15.8184 50.2647 15.6406 50.2433 15.4619 50.2389Z" fill="#837CC6"/>
<path d="M19.3819 39.3953C18.761 39.0704 18.1577 38.6499 17.4072 39.0305C17.4593 38.4789 17.8842 38.4114 18.2535 38.5204C18.7144 38.6563 19.3456 38.6711 19.3819 39.3953Z" fill="#837CC6"/>
<path d="M16.188 44.405C15.6973 43.8244 15.5536 43.0848 15.2764 42.4062C15.6081 42.6118 15.8717 42.9114 16.0339 43.2671C16.1962 43.6228 16.2497 44.0188 16.188 44.405Z" fill="#837CC6"/>
<path d="M13.3163 48.0527C13.8038 48.6364 13.92 49.3868 14.2114 50.0584C13.4455 49.5996 13.2895 48.8672 13.3163 48.0527Z" fill="#837CC6"/>
<path d="M12.5762 45.1309C12.7092 45.2812 12.8063 45.4599 12.8602 45.6534C12.914 45.8469 12.9234 46.0504 12.8872 46.248C12.3103 46.008 12.2959 45.6106 12.5762 45.1309Z" fill="#837CC6"/>
<path d="M16.5627 45.6829C16.4287 45.5722 16.328 45.4264 16.2716 45.2618C16.2152 45.0971 16.2055 44.9199 16.2434 44.75C16.7111 44.9367 16.8895 45.2229 16.5627 45.6829Z" fill="#837CC6"/>
<path d="M16.6012 47.341C16.5096 46.9711 16.5106 46.5843 16.6039 46.2148C17.0713 46.5913 17.0734 46.9668 16.6012 47.341Z" fill="#837CC6"/>
<path d="M12.9498 46.7754C13.088 46.8817 13.1918 47.0267 13.2478 47.1922C13.3038 47.3577 13.3095 47.5361 13.2644 47.7049C12.8906 47.4866 12.6298 47.2297 12.9498 46.7754Z" fill="#837CC6"/>
<path d="M14.2109 50.0586C14.4721 50.2726 14.7882 50.4083 15.1228 50.4502C14.6754 50.808 14.3926 50.6866 14.2109 50.0586Z" fill="#837CC6"/>
<path d="M15.1865 42.2981C14.9692 42.1396 14.7444 41.9865 14.7305 41.6777C15.1288 41.7025 15.3166 41.8827 15.1865 42.2981Z" fill="#837CC6"/>
<path d="M32.2368 42.4651C32.1478 40.9335 32.7296 39.2471 32.6199 37.5075C32.6081 37.3047 32.6675 37.1042 32.7879 36.9409C32.9083 36.7776 33.082 36.6618 33.2787 36.6137C34.8204 36.2475 36.3794 36.1087 37.8834 36.7873C40.0474 37.7636 40.0178 40.7897 38.7452 42.4629C38.1715 43.2695 37.4172 43.9297 36.543 44.3906C35.6687 44.8515 34.6989 45.1001 33.7114 45.1165C32.4311 45.1494 32.2366 44.9522 32.2368 43.6727C32.2369 43.3385 32.2368 43.0042 32.2368 42.4651ZM36.6696 39.4635C36.0816 39.3857 35.5914 39.5886 35.5677 40.3455C35.5412 41.1924 35.5705 42.0412 35.5744 42.8891C35.5766 43.3746 35.7844 43.4806 36.1976 43.2406C36.923 42.799 37.5128 42.1649 37.9017 41.4083C38.5534 40.2289 38.1114 39.4896 36.6696 39.4635ZM33.3478 41.1741H33.339C33.339 41.8436 33.3328 42.5132 33.3416 43.1825C33.3463 43.54 33.2857 44.0074 33.8165 43.9931C34.3013 43.9801 34.4346 43.5825 34.4344 43.142C34.4339 42.3203 34.4077 41.4968 34.4544 40.6776C34.4732 40.1329 34.3366 39.594 34.0607 39.1245C33.9427 38.9022 33.8098 38.6231 33.5644 38.6531C33.2295 38.6942 33.3604 39.0397 33.3542 39.2572C33.3362 39.8957 33.3478 40.5351 33.3478 41.1741Z" fill="#4035A7"/>
<path d="M16.4092 49.7217C16.3513 49.8172 16.3142 49.9484 16.2296 49.9982C16.2094 50.0076 16.1868 50.0105 16.1649 50.0065C16.143 50.0025 16.1229 49.9917 16.1073 49.9757C16.0919 49.9597 16.0817 49.9391 16.0784 49.9171C16.075 49.895 16.0786 49.8724 16.0886 49.8525C16.1379 49.7668 16.2642 49.7255 16.3563 49.6641L16.4092 49.7217Z" fill="#4035A7"/>
<path d="M36.6696 39.4628C38.1114 39.4889 38.5534 40.2282 37.9017 41.4076C37.5127 42.1642 36.923 42.7983 36.1975 43.2399C35.7844 43.4799 35.5766 43.3739 35.5743 42.8884C35.5704 42.0404 35.5411 41.1917 35.5677 40.3447C35.5913 39.5879 36.0816 39.385 36.6696 39.4628Z" fill="#FCFCFD"/>
<path d="M33.3477 41.1736C33.3477 40.5346 33.336 39.8952 33.3541 39.2567C33.3603 39.0392 33.2295 38.6937 33.5642 38.6526C33.8096 38.6226 33.9426 38.9016 34.0606 39.124C34.3365 39.5935 34.4731 40.1324 34.4543 40.6771C34.4077 41.4963 34.4338 42.3197 34.4342 43.1414C34.4345 43.582 34.3012 43.9796 33.8164 43.9927C33.2856 44.0068 33.3462 43.5395 33.3415 43.182C33.3327 42.5127 33.339 41.8431 33.339 41.1736H33.3477Z" fill="#837CC6"/>
</g>
</g>
<defs>
<filter id="filter0_d_6114_790" x="2.5243" y="32.0508" width="89.9914" height="33.6701" filterUnits="userSpaceOnUse" color-interpolation-filters="sRGB">
<feFlood flood-opacity="0" result="BackgroundImageFix"/>
<feColorMatrix in="SourceAlpha" type="matrix" values="0 0 0 0 0 0 0 0 0 0 0 0 0 0 0 0 0 0 127 0" result="hardAlpha"/>
<feOffset dy="1.088"/>
<feGaussianBlur stdDeviation="0.544"/>
<feComposite in2="hardAlpha" operator="out"/>
<feColorMatrix type="matrix" values="0 0 0 0 0 0 0 0 0 0 0 0 0 0 0 0 0 0 0.25 0"/>
<feBlend mode="normal" in2="BackgroundImageFix" result="effect1_dropShadow_6114_790"/>
<feBlend mode="normal" in="SourceGraphic" in2="effect1_dropShadow_6114_790" result="shape"/>
</filter>
<clipPath id="clip0_6114_790">
<rect width="89.488" height="34" fill="white" transform="translate(3 31)"/>
</clipPath>
</defs>
</svg>
