<svg width="96" height="96" viewBox="0 0 96 96" fill="none" xmlns="http://www.w3.org/2000/svg">
<g clip-path="url(#clip0_6105_311)">
<rect width="96" height="96" fill="white"/>
<path d="M73.3522 42.7355L73.2803 42.5474L66.1396 23.917C65.9969 23.552 65.7403 23.2445 65.4063 23.0322C65.0734 22.8187 64.6829 22.718 64.287 22.7391C63.8932 22.7601 63.5149 22.9039 63.2063 23.1494C62.9 23.3972 62.6787 23.7323 62.5748 24.1106L57.7535 38.8665H38.2471L33.4258 24.1106C33.3218 23.7323 33.1006 23.3972 32.7942 23.1494C32.4856 22.9039 32.1073 22.7601 31.7136 22.7391C31.3176 22.718 30.9272 22.8187 30.5943 23.0322C30.2602 23.2445 30.0036 23.552 29.8609 23.917L22.7202 42.5485L22.6483 42.7355C20.5324 48.2547 22.3353 54.494 27.0471 58.0577C27.056 58.0632 27.0637 58.0698 27.0726 58.0765L27.1356 58.124L38.0126 66.2668L43.3924 70.3393L46.6664 72.8147C47.455 73.412 48.5455 73.412 49.3342 72.8147L52.6081 70.3393L57.9869 66.2668L68.928 58.0765C68.9379 58.0687 68.9468 58.0621 68.9567 58.0544C73.6652 54.4906 75.467 48.2536 73.3522 42.7355Z" fill="#E24329"/>
<path d="M73.3519 42.7369L73.28 42.5488C69.7373 43.2766 66.4745 44.7753 63.6806 46.8658C63.6352 46.899 55.1905 53.2853 48 58.7216C53.3389 62.7587 57.9866 66.2682 57.9866 66.2682L68.9277 58.0779C68.9377 58.0701 68.9465 58.0635 68.9565 58.0558C73.665 54.492 75.4667 48.255 73.3519 42.7369Z" fill="#FC6D26"/>
<path d="M38.0127 66.2673L43.3926 70.3398L46.6665 72.8152C47.4551 73.4125 48.5457 73.4125 49.3343 72.8152L52.6082 70.3398L57.987 66.2673C57.987 66.2673 53.3393 62.7578 48.0004 58.7207C42.6603 62.7578 38.0127 66.2673 38.0127 66.2673Z" fill="#FCA326"/>
<path d="M32.3186 46.8647C29.5258 44.7753 26.264 43.2755 22.7202 42.5488L22.6483 42.7358C20.5324 48.255 22.3353 54.4942 27.0471 58.058C27.056 58.0635 27.0637 58.0701 27.0726 58.0768L27.1356 58.1243L38.0126 66.2671C38.0126 66.2671 42.6602 62.7576 48.0003 58.7205C40.8098 53.2842 32.3639 46.8978 32.3186 46.8647Z" fill="#FC6D26"/>
</g>
<defs>
<clipPath id="clip0_6105_311">
<rect width="96" height="96" fill="white"/>
</clipPath>
</defs>
</svg>
