<svg width="96" height="96" viewBox="0 0 96 96" fill="none" xmlns="http://www.w3.org/2000/svg">
<rect width="96" height="96" fill="white"/>
<g clip-path="url(#clip0_6114_333)">
<path d="M32.1264 76.5117L26.6064 77.3733L27.4598 82.9463L32.9798 82.0915L32.1264 76.5117Z" fill="url(#paint0_linear_6114_333)"/>
<path d="M52.0596 70.1906L76.4329 66.4012L75.5796 60.8281L51.2129 64.6108L52.0596 70.1906Z" fill="url(#paint1_linear_6114_333)"/>
<path d="M42.5664 65.9572L43.4131 71.5303L48.9397 70.6755L48.0864 65.0957L42.5664 65.9572Z" fill="url(#paint2_linear_6114_333)"/>
<path d="M41.6263 80.745L40.7729 75.1719L35.2529 76.0267L36.0996 81.6065L41.6263 80.745Z" fill="url(#paint3_linear_6114_333)"/>
<path d="M26.1269 74.2159L31.6469 73.3611L30.8003 67.7812L25.2803 68.6428L26.1269 74.2159Z" fill="url(#paint4_linear_6114_333)"/>
<path d="M76.9134 69.5586L52.54 73.3413L53.3934 78.9211L77.76 75.1317L76.9134 69.5586Z" fill="url(#paint5_linear_6114_333)"/>
<path d="M43.9004 74.6877L44.7471 80.2608L50.2671 79.406L49.4204 73.8262L43.9004 74.6877Z" fill="url(#paint6_linear_6114_333)"/>
<path d="M34.7733 72.876L40.2933 72.0145L39.4466 66.4414L33.9199 67.2962L34.7733 72.876Z" fill="url(#paint7_linear_6114_333)"/>
<path d="M24.8 65.4926L27.1267 65.1291L20.3333 20.5176L18 20.881L24.8 65.4926Z" fill="url(#paint8_linear_6114_333)"/>
<path d="M28.0004 64.9959L30.3337 64.6325L23.0404 16.7363L20.707 17.0998L28.0004 64.9959Z" fill="url(#paint9_linear_6114_333)"/>
<path d="M33.4802 64.1404L35.8069 63.7769L28.0736 13L25.7402 13.3635L33.4802 64.1404Z" fill="url(#paint10_linear_6114_333)"/>
<path d="M36.6803 63.6421L39.0136 63.2786L31.9603 16.9844L29.627 17.3478L36.6803 63.6421Z" fill="url(#paint11_linear_6114_333)"/>
<path d="M42.087 62.8068L44.4203 62.4434L38.1536 21.3184L35.8203 21.6751L42.087 62.8068Z" fill="url(#paint12_linear_6114_333)"/>
<path d="M45.2938 62.3096L47.6271 61.9461L41.1204 19.2461L38.7871 19.6028L45.2938 62.3096Z" fill="url(#paint13_linear_6114_333)"/>
</g>
<defs>
<linearGradient id="paint0_linear_6114_333" x1="32.4709" y1="97.1356" x2="19.2432" y2="11.9959" gradientUnits="userSpaceOnUse">
<stop stop-color="#FAED1E"/>
<stop offset="1" stop-color="#F15B2B"/>
</linearGradient>
<linearGradient id="paint1_linear_6114_333" x1="67.8298" y1="91.6412" x2="66.0357" y2="6.22845" gradientUnits="userSpaceOnUse">
<stop stop-color="#FAED1E"/>
<stop offset="1" stop-color="#F15B2B"/>
</linearGradient>
<linearGradient id="paint2_linear_6114_333" x1="49.7613" y1="94.4487" x2="36.5336" y2="9.30901" gradientUnits="userSpaceOnUse">
<stop stop-color="#FAED1E"/>
<stop offset="1" stop-color="#F15B2B"/>
</linearGradient>
<linearGradient id="paint3_linear_6114_333" x1="41.1159" y1="95.792" x2="27.8883" y2="10.6524" gradientUnits="userSpaceOnUse">
<stop stop-color="#FAED1E"/>
<stop offset="1" stop-color="#F15B2B"/>
</linearGradient>
<linearGradient id="paint4_linear_6114_333" x1="32.4714" y1="97.135" x2="19.2167" y2="11.9995" gradientUnits="userSpaceOnUse">
<stop stop-color="#FAED1E"/>
<stop offset="1" stop-color="#F15B2B"/>
</linearGradient>
<linearGradient id="paint5_linear_6114_333" x1="67.8302" y1="91.6418" x2="66.036" y2="6.22905" gradientUnits="userSpaceOnUse">
<stop stop-color="#FAED1E"/>
<stop offset="1" stop-color="#F15B2B"/>
</linearGradient>
<linearGradient id="paint6_linear_6114_333" x1="49.762" y1="94.4494" x2="36.5072" y2="9.31396" gradientUnits="userSpaceOnUse">
<stop stop-color="#FAED1E"/>
<stop offset="1" stop-color="#F15B2B"/>
</linearGradient>
<linearGradient id="paint7_linear_6114_333" x1="41.1163" y1="95.7914" x2="27.8886" y2="10.6517" gradientUnits="userSpaceOnUse">
<stop stop-color="#FAED1E"/>
<stop offset="1" stop-color="#F15B2B"/>
</linearGradient>
<linearGradient id="paint8_linear_6114_333" x1="30.6244" y1="95.7279" x2="-1.19181" y2="87.132" gradientUnits="userSpaceOnUse">
<stop stop-color="#FAED1E"/>
<stop offset="1" stop-color="#F15B2B"/>
</linearGradient>
<linearGradient id="paint9_linear_6114_333" x1="34.1726" y1="97.4718" x2="0.598094" y2="88.7067" gradientUnits="userSpaceOnUse">
<stop stop-color="#FAED1E"/>
<stop offset="1" stop-color="#F15B2B"/>
</linearGradient>
<linearGradient id="paint10_linear_6114_333" x1="39.9463" y1="98.5891" x2="4.82122" y2="89.6597" gradientUnits="userSpaceOnUse">
<stop stop-color="#FAED1E"/>
<stop offset="1" stop-color="#F15B2B"/>
</linearGradient>
<linearGradient id="paint11_linear_6114_333" x1="42.6865" y1="95.0324" x2="9.95281" y2="86.3402" gradientUnits="userSpaceOnUse">
<stop stop-color="#FAED1E"/>
<stop offset="1" stop-color="#F15B2B"/>
</linearGradient>
<linearGradient id="paint12_linear_6114_333" x1="47.5545" y1="90.6667" x2="17.5888" y2="82.2193" gradientUnits="userSpaceOnUse">
<stop stop-color="#FAED1E"/>
<stop offset="1" stop-color="#F15B2B"/>
</linearGradient>
<linearGradient id="paint13_linear_6114_333" x1="50.9248" y1="91.2439" x2="20.1136" y2="82.7256" gradientUnits="userSpaceOnUse">
<stop stop-color="#FAED1E"/>
<stop offset="1" stop-color="#F15B2B"/>
</linearGradient>
<clipPath id="clip0_6114_333">
<rect width="60" height="70" fill="white" transform="translate(18 13)"/>
</clipPath>
</defs>
</svg>
