<svg role="img" viewBox="-8 -8 96 96" xmlns="http://www.w3.org/2000/svg" id="Victoriametrics" height="96" width="96" style="background-color: #ffffff">
  <title>VictoriaMetrics</title>
  <path d="M6.3100000000000005 10.26C0.7966666666666666 5.123333333333333 16.153333333333336 0.03 39.876666666666665 0h0.25333333333333335c23.72 0.03 39.07666666666667 5.123333333333333 33.55666666666667 10.26 0 0 -20.560000000000002 18.85 -27.67 24.91 -1.346666666666667 1.1533333333333333 -3.6133333333333337 2.0233333333333334 -5.886666666666667 2.0533333333333332h-0.25333333333333335c-2.2733333333333334 -0.03 -4.540000000000001 -0.9033333333333334 -5.89 -2.0533333333333332 -7.106666666666667 -6.0600000000000005 -27.67 -24.91 -27.67666666666667 -24.91Zm68.49666666666667 9.236666666666666V28.6c0 1 -0.38333333333333336 2.3266666666666667 -1.0633333333333335 2.95 -4.44 4.073333333333333 -21.566666666666666 19.75 -27.730000000000004 25.006666666666668 -1.35 1.15 -3.6166666666666667 2.02 -5.89 2.0500000000000003h-0.24c-2.276666666666667 -0.03 -4.540000000000001 -0.9000000000000001 -5.89 -2.0500000000000003 -6.163333333333333 -5.256666666666667 -23.290000000000003 -20.933333333333334 -27.733333333333334 -25.006666666666668 -0.6799999999999999 -0.6233333333333334 -1.06 -1.95 -1.06 -2.95V19.49666666666667c6.533333333333333 5.96 23.87666666666667 21.683333333333334 28.793333333333333 25.880000000000003 1.346666666666667 1.1533333333333333 3.6133333333333337 2.0233333333333334 5.89 2.0533333333333332h0.24c2.2733333333333334 -0.03 4.540000000000001 -0.9033333333333334 5.89 -2.0533333333333332 4.913333333333333 -4.193333333333333 22.26 -19.91 28.793333333333333 -25.880000000000003Zm0 21.393333333333334v9.1c0 1.0033333333333334 -0.38333333333333336 2.3266666666666667 -1.0633333333333335 2.95 -4.44 4.073333333333333 -21.566666666666666 19.753333333333334 -27.730000000000004 25.006666666666668 -1.35 1.1533333333333333 -3.6166666666666667 2.0233333333333334 -5.89 2.0533333333333332h-0.24c-2.276666666666667 -0.03 -4.540000000000001 -0.9033333333333334 -5.89 -2.0533333333333332 -6.163333333333333 -5.253333333333334 -23.290000000000003 -20.933333333333334 -27.733333333333334 -25.006666666666668 -0.6799999999999999 -0.6233333333333334 -1.06 -1.95 -1.06 -2.95v-9.1c6.533333333333333 5.96 23.87666666666667 21.683333333333334 28.793333333333333 25.880000000000003 1.346666666666667 1.1533333333333333 3.6133333333333337 2.02 5.89 2.0500000000000003h0.24c2.2733333333333334 -0.03 4.540000000000001 -0.9000000000000001 5.89 -2.0500000000000003 4.913333333333333 -4.193333333333333 22.26 -19.92 28.793333333333333 -25.880000000000003Z" fill="#000000" stroke-width="3.3333"></path>
</svg>
