<svg width="96" height="96" viewBox="0 0 96 96" fill="none" xmlns="http://www.w3.org/2000/svg">
<rect width="96" height="96" fill="white"/>
<g clip-path="url(#clip0_6114_681)">
<path d="M30.8008 28.8711C30.6836 28.8125 30.625 28.6953 30.5078 28.6367C28.6328 26.8203 27.168 24.6523 26.2891 22.1328C26.0547 21.4297 25.8789 20.7266 25.8789 19.9648V19.7305C25.9375 18.7344 26.582 18.2656 27.5195 18.5C27.8125 18.5586 28.1055 18.6758 28.3398 18.8516C29.3945 19.3789 30.2148 20.1406 30.9766 21.0195C32.3242 22.4844 33.4375 24.2422 34.1992 26.1172C34.1992 26.1758 34.2578 26.2344 34.2578 26.2344C34.2578 26.2344 34.3164 26.293 34.375 26.293C38.0078 24.0664 42.168 22.7188 46.4453 22.4844C46.3867 22.3672 46.3867 22.25 46.3867 22.1328C45.9766 20.3164 45.8008 18.3828 45.9766 16.5078C46.0352 15.3945 46.2695 14.2812 46.6211 13.168C46.7969 12.582 47.0898 12.1133 47.4414 11.6445C47.5586 11.4688 47.7344 11.3516 47.9102 11.2344C48.2617 11 48.7305 11 49.082 11.2344C49.4336 11.4688 49.7266 11.8203 49.9609 12.2305C50.3125 12.9336 50.6055 13.6953 50.7227 14.457C51.0742 16.0977 51.1914 17.7969 51.0156 19.4961C50.957 20.4922 50.7812 21.5469 50.4883 22.543C51.543 22.7188 52.5977 22.8945 53.6523 23.1289C54.707 23.3633 55.7031 23.6562 56.6992 24.0664C57.6953 24.418 58.6914 24.8867 59.6289 25.3555C60.5664 25.8242 61.4453 26.4102 62.3828 26.9375C62.4414 26.8789 62.4414 26.8203 62.5 26.7031C63.4961 23.9492 65.1953 21.4883 67.4219 19.5547C67.9492 19.0859 68.5352 18.7344 69.1797 18.5C69.3555 18.4414 69.5312 18.3828 69.707 18.3828C70.6445 18.2656 71.0547 18.8516 71.1133 19.6133C71.1719 20.1406 71.1133 20.668 70.9961 21.1953C70.6445 22.543 70.1172 23.7734 69.4141 24.9453C68.418 26.6445 67.1875 28.1094 65.6641 29.3398C65.6055 29.3984 65.5469 29.3984 65.4883 29.5156C66.9531 30.9219 68.3008 32.5039 69.4727 34.2031C69.3555 34.2031 69.2969 34.2617 69.2383 34.2617H64.4922C64.3164 34.2617 64.1406 34.1445 64.0234 34.0273C60.5664 30.1602 55.9375 27.6992 50.8984 26.9375C49.4336 26.7031 47.9102 26.6445 46.3867 26.7617C41.9336 27.0547 37.5977 28.7539 34.1406 31.625C33.2617 32.3281 32.3828 33.1484 31.6211 34.0273C31.5039 34.2031 31.2695 34.3203 31.0352 34.3203H26.1719C26.2891 33.9688 27.168 32.6797 28.2227 31.5078C29.1016 30.5703 29.9219 29.75 30.8008 28.8711ZM69.1211 63.3828C68.0664 64.9062 66.8945 66.2539 65.5469 67.543C65.6641 67.6602 65.7227 67.7188 65.8398 67.7773C68.125 69.7109 69.8828 72.2305 70.8789 75.1016C71.1133 75.8047 71.2305 76.5664 71.2305 77.2695C71.2305 77.4453 71.1719 77.6211 71.1133 77.8555C70.9375 78.3828 70.4102 78.7344 69.8828 78.6172C69.5312 78.5586 69.1797 78.4414 68.8867 78.3242C68.418 78.0898 67.9492 77.7969 67.5391 77.4453C65.3125 75.5703 63.6133 73.1094 62.6172 70.3555C62.5586 70.2969 62.5586 70.1797 62.5 70.0625C61.3281 70.8828 60.0977 71.5859 58.8086 72.1719C57.5195 72.7578 56.1719 73.2852 54.8242 73.6367C53.418 73.9883 52.0703 74.2813 50.6055 74.457C50.6641 74.5742 50.6641 74.6914 50.6641 74.8086C51.1328 76.625 51.25 78.5 51.1328 80.375C51.0742 81.5469 50.8398 82.6602 50.4883 83.7734C50.3125 84.2422 50.0781 84.6523 49.8438 85.1211C49.7266 85.2969 49.6094 85.4141 49.4922 85.5898C48.9062 86.2344 48.2031 86.2344 47.6172 85.5898C47.3828 85.3555 47.207 85.0625 47.0312 84.7109C46.5625 83.832 46.3281 82.8945 46.1523 81.8984C45.918 80.5508 45.8594 79.2031 45.918 77.8555C45.9766 76.8594 46.0938 75.8633 46.3281 74.9258C46.3281 74.8672 46.3867 74.75 46.3867 74.6914C46.3867 74.6914 46.3867 74.6328 46.3281 74.5742C42.0508 74.3398 37.9492 73.0508 34.2578 70.7656L34.082 71.1172C33.0273 73.5781 31.5039 75.7461 29.5117 77.4453C28.9844 77.9141 28.3984 78.2656 27.7539 78.5C27.4609 78.6172 27.1094 78.6758 26.8164 78.6172C26.4648 78.5586 26.1719 78.3242 25.9961 77.9141C25.7617 77.3867 25.8203 76.8594 25.8789 76.332C25.9961 75.5703 26.2305 74.8672 26.5234 74.1641C27.4023 71.9961 28.8086 70.0625 30.4492 68.4219C30.5078 68.3633 30.5664 68.3047 30.6836 68.2461C30.6836 68.1875 30.7422 68.1875 30.7422 68.1289C29.1602 66.7227 27.6953 65.1406 26.5234 63.3828C26.6992 63.3828 26.7578 63.3242 26.875 63.3242H31.5625C31.7969 63.3242 31.9727 63.4414 32.0898 63.5586C33.7891 65.375 35.7812 66.8398 37.9492 67.9531C40.2344 69.1836 42.7539 69.9453 45.332 70.1797C52.3633 70.8828 58.3984 68.7148 63.4375 63.6758C63.6719 63.4414 63.9648 63.2656 64.3164 63.3242H69.0625L69.1211 63.3828ZM62.6172 40.5313C63.0273 40.5313 63.4375 40.5898 63.8477 40.5313C64.3164 40.4727 64.6094 40.6484 64.9609 40.9414C66.8359 42.6992 68.7109 44.457 70.6445 46.2148L70.9375 46.5078C71.0547 46.3906 71.1719 46.332 71.2891 46.2148C73.2227 44.3984 75.2148 42.582 77.0898 40.7656C77.2656 40.5898 77.5 40.5313 77.7344 40.5313H79.1992V56.5859C78.9648 56.6445 75.5078 56.7031 75.0977 56.5859V48.4414L75.0391 48.3828C73.6914 49.6133 72.3438 50.9023 70.9961 52.1328C69.6484 50.8438 68.3008 49.6133 66.8945 48.3828L66.8359 48.4414V56.6445H62.7344C62.6172 56.3516 62.5586 41.4688 62.6172 40.5313ZM25 40.5313H29.043C29.1602 40.8242 29.1602 56.2344 29.043 56.5859H25C24.9414 55.5898 25 54.5352 25 53.5391V50.4922H19.9609V56.5273C19.668 56.6445 16.2109 56.6445 15.8594 56.5273V40.5313H19.9609V46.2148C20.2539 46.332 24.5312 46.332 25 46.2148V40.5313ZM33.9062 56.5859V40.5898C34.1406 40.5312 43.0469 40.4727 43.6328 40.5313V43.9297C43.5156 43.9297 43.3398 43.9883 43.2227 43.9883H38.0078V46.625H42.9883V50.1406H38.0664C37.9492 50.4336 37.9492 52.543 38.0078 53.1289C38.125 53.1289 38.3008 53.1875 38.418 53.1875H43.6328V56.5859H33.9062ZM48.3203 56.5859C48.2617 56.1758 48.2617 40.8242 48.3203 40.5313H52.3633V52.3672C52.5391 52.3672 52.6562 52.3672 52.832 52.4258H58.0469V56.6445L48.3203 56.5859Z" fill="#0F1689"/>
</g>
<defs>
<clipPath id="clip0_6114_681">
<rect width="75" height="75" fill="white" transform="translate(10 11)"/>
</clipPath>
</defs>
</svg>
