<svg width="96" height="96" viewBox="0 0 96 96" fill="none" xmlns="http://www.w3.org/2000/svg">
<g clip-path="url(#clip0_6114_353)">
<rect width="96" height="96" fill="white"/>
<path fill-rule="evenodd" clip-rule="evenodd" d="M73.1991 62.4169C73.9564 62.4169 74.377 63.3447 73.7881 63.9351L54.7732 82.9134C54.1842 83.5038 53.2587 83.0821 53.2587 82.323V63.2603C53.2587 62.7543 53.6794 62.4169 54.1001 62.4169H73.1991ZM14.5558 44.4508C13.7986 44.4508 13.3779 43.523 13.9669 42.9325L32.9818 23.8699C33.5707 23.2795 34.4962 23.7012 34.4962 24.4604V43.6073C34.4962 44.1134 34.0756 44.4508 33.6549 44.4508H14.5558Z" fill="url(#paint0_linear_6114_353)"/>
<path d="M55.9507 41.3303H81.36C81.8649 41.3303 82.2014 40.9085 82.2014 40.4868V14.9294C82.2014 14.4233 81.7807 14.0859 81.36 14.0859H55.9507C55.4459 14.0859 55.1094 14.5077 55.1094 14.9294V40.4868C55.1094 40.9085 55.4459 41.3303 55.9507 41.3303Z" fill="url(#paint1_linear_6114_353)"/>
<path d="M74.7975 58.0319H39.7125C39.2076 58.0319 38.8711 57.6101 38.8711 57.1884V22.0154C38.8711 21.5093 39.2918 21.1719 39.7125 21.1719H49.8089C50.3137 21.1719 50.6502 21.5936 50.6502 22.0154V44.8736C50.6502 45.3797 51.0709 45.7171 51.4916 45.7171H74.7133C75.2182 45.7171 75.5547 46.1388 75.5547 46.5606V57.104C75.5547 57.6101 75.3023 58.0319 74.7975 58.0319Z" fill="url(#paint2_linear_6114_353)"/>
</g>
<defs>
<linearGradient id="paint0_linear_6114_353" x1="74.0557" y1="23.4367" x2="24.4137" y2="72.465" gradientUnits="userSpaceOnUse">
<stop stop-color="#4D29B4"/>
<stop offset="1" stop-color="#836FFF"/>
</linearGradient>
<linearGradient id="paint1_linear_6114_353" x1="53.0605" y1="43.065" x2="87.3981" y2="9.42049" gradientUnits="userSpaceOnUse">
<stop stop-color="#70FFE5"/>
<stop offset="1" stop-color="#6295E1"/>
</linearGradient>
<linearGradient id="paint2_linear_6114_353" x1="69.7779" y1="27.6623" x2="37.4683" y2="58.2639" gradientUnits="userSpaceOnUse">
<stop offset="0.00747511" stop-color="#654FEC"/>
<stop offset="1" stop-color="#71B2FF"/>
</linearGradient>
<clipPath id="clip0_6114_353">
<rect width="96" height="96" fill="white"/>
</clipPath>
</defs>
</svg>
