<svg width="96" height="96" viewBox="0 0 96 96" fill="none" xmlns="http://www.w3.org/2000/svg">
<rect width="96" height="96" fill="white"/>
<path d="M77.6744 34.9856C74.4316 29.381 70.2779 24.4307 65.5378 20.4814L65.4478 20.407C64.5037 19.6234 63.5381 18.877 62.551 18.1777C55.9207 13.482 48.6669 11 41.5714 11C32.5584 11 24.3937 15.8191 18.5804 24.5717C10.404 36.878 8.66044 54.1286 14.2371 67.4966C18.4221 77.5285 29.2882 84.0362 43.3013 84.906C44.3217 84.9687 45.3498 85 46.376 85C52.8636 85 59.4137 83.7482 65.1077 81.3935C72.3498 78.3983 77.8933 73.8143 81.1361 68.1353C85.9525 59.7019 84.6252 46.9999 77.6724 34.9836L77.6744 34.9856ZM44.9217 36.8682C48.1098 36.8682 51.2842 38.1768 53.5673 40.743C55.6256 43.0565 56.6616 46.0342 56.4856 49.1274C56.3136 52.1599 54.9923 54.9475 52.7659 57.0005L52.4981 57.2395C48.5653 60.65 42.9534 60.936 38.7449 58.2738C37.7852 57.596 36.8645 56.7732 35.9967 55.7957C35.7719 55.543 35.5627 55.2785 35.3673 55.0043C34.6773 53.9935 34.1671 52.9023 33.8328 51.77C33.8133 51.6995 33.7918 51.6309 33.7742 51.5604C33.7722 51.5506 33.7703 51.5428 33.7664 51.533C32.7421 47.5347 33.911 42.8783 37.1069 39.9202L37.3513 39.695C39.5327 37.8006 42.2301 36.8682 44.9217 36.8682ZM41.5714 15.2608C47.7834 15.2608 54.1889 17.4724 60.0959 21.6587C61.0029 22.3013 61.8884 22.9869 62.7563 23.7059L64.1793 24.9949C75.0727 35.1462 78.4797 45.0469 77.6275 55.2923C77.0684 62.0194 72.7916 67.3908 66.6617 71.5517C60.825 75.5127 51.896 76.647 45.516 75.9613C39.2512 75.2894 32.7578 72.7584 28.565 67.0657C25.0974 62.3563 24.0672 57.2982 24.5364 51.8719C25.0035 46.473 27.1654 41.4247 30.6721 37.9123C32.6385 35.9416 35.9967 33.4674 41.3584 33.0149C38.8485 33.5928 36.4462 34.7917 34.3919 36.6272C30.2303 40.3473 28.4985 45.7913 29.3019 50.9414C29.6459 53.2941 30.5177 55.5606 31.9348 57.5216C32.2945 58.0387 32.6854 58.5441 33.1155 59.0261C34.1436 60.1818 35.3067 61.1476 36.5577 61.9273C42.6856 66.0764 50.3206 65.7492 57.7757 60.795C61.8376 58.0955 64.5839 53.4156 65.3071 47.952C66.1848 41.3346 64.0659 34.5468 59.4919 29.3301C54.5173 23.6569 47.6329 20.2992 40.6019 20.119C34.0654 19.9466 28.0196 22.5305 23.1153 27.5787C21.6141 29.1244 20.2478 30.7973 19.0281 32.5702C19.9096 30.5995 20.9417 28.711 22.1204 26.9342C27.1205 19.4079 34.0283 15.2627 41.5714 15.2627V15.2608Z" fill="#FD6F00"/>
</svg>
