<svg width="96" height="96" viewBox="0 0 96 96" fill="none" xmlns="http://www.w3.org/2000/svg">
<rect width="96" height="96" fill="white"/>
<path fill-rule="evenodd" clip-rule="evenodd" d="M45.1911 19.6015C37.9178 21.1615 30.4502 25.2811 26.3928 29.9728L25.1603 31.3976L25.0494 26.6928C24.924 21.3709 24.5839 20.5011 22.2892 19.6367C20.7733 19.066 19.6572 19.3253 18.2396 20.579L17.1404 21.5507L17.0384 47.6679C16.9468 71.1608 16.9912 73.8882 17.4829 74.815C18.5994 76.9206 21.4586 77.6309 23.2386 76.2451C25.0396 74.8432 25.1081 74.3059 25.1081 61.6015C25.1081 50.9842 25.1712 49.6541 25.7896 47.2458C28.1765 37.9506 35.0287 30.856 44.4459 27.9293C46.647 27.2451 47.8427 26.676 52.2656 26.6928C56.8825 26.7102 57.4142 27.2672 60.0303 28.1155C63.6453 29.2869 66.5771 30.8822 69.2281 33.1193C72.9305 36.244 73.6595 36.5124 75.7599 35.5262C77.1158 34.8894 78 33.4445 78 31.865C78 28.4903 68.5629 22.1057 60.5389 20.0521C55.7963 18.8384 49.5974 18.6566 45.1911 19.6015ZM48.7603 31.0174C43.6115 31.6113 39.2818 33.7317 35.4492 37.5369C32.396 40.5679 30.5272 43.4826 29.4202 46.9405C28.7824 48.933 28.6708 50.0276 28.6858 54.1549C28.7017 58.5607 28.7888 59.2526 29.6066 61.479C34.4171 74.574 49.4692 80.7157 61.8968 74.6542C64.7285 73.2731 68.0309 70.7296 68.9735 69.2032C70.7643 66.3036 67.4654 62.3746 64.3291 63.6715C63.7294 63.9195 62.5247 64.7339 61.6517 65.4819C55.7054 70.5752 46.5337 70.2534 40.9791 64.7557C33.2172 57.0742 35.4173 44.8141 45.4277 39.966C47.5512 38.9375 47.9129 38.4251 51.6302 38.4396C56.1752 38.4573 58.0845 39.523 60.8779 41.7343C63.6022 43.8909 64.5441 44.4221 65.6247 44.4107C66.9595 44.3966 68.0556 43.7688 68.8639 42.5558C70.2595 40.4602 69.4434 38.3865 66.2332 35.8712C61.3109 32.014 55.0941 30.2872 48.7603 31.0174Z" fill="#1E2129"/>
</svg>
