<svg width="96" height="96" viewBox="0 0 96 96" fill="none" xmlns="http://www.w3.org/2000/svg">
<rect width="96" height="96" fill="white"/>
<g clip-path="url(#clip0_6105_342)">
<path d="M74.6278 42.603H55.7543C55.4432 42.6049 55.1349 42.5451 54.8471 42.427C54.5593 42.3088 54.2978 42.1347 54.0778 41.9147C53.8579 41.6948 53.6838 41.4333 53.5656 41.1455C53.4475 40.8577 53.3876 40.5493 53.3896 40.2383V21.3648C53.3896 21.0549 53.3283 20.7481 53.2093 20.4621C53.0903 20.176 52.9159 19.9163 52.6961 19.6979C52.4763 19.4795 52.2155 19.3067 51.9287 19.1894C51.6419 19.0722 51.3347 19.0129 51.0249 19.0148H43.9603C43.6504 19.0129 43.3432 19.0722 43.0564 19.1894C42.7696 19.3067 42.5088 19.4795 42.289 19.6979C42.0692 19.9163 41.8948 20.176 41.7758 20.4621C41.6568 20.7481 41.5955 21.0549 41.5955 21.3648V40.2383C41.5975 40.5493 41.5377 40.8577 41.4195 41.1455C41.3014 41.4333 41.1273 41.6948 40.9073 41.9147C40.6873 42.1347 40.4258 42.3088 40.1381 42.427C39.8503 42.5451 39.5419 42.6049 39.2308 42.603H32.1662C31.8551 42.6049 31.5467 42.5451 31.2589 42.427C30.9711 42.3088 30.7097 42.1347 30.4897 41.9147C30.2697 41.6948 30.0956 41.4333 29.9775 41.1455C29.8593 40.8577 29.7995 40.5493 29.8014 40.2383V21.3648C29.8034 21.0537 29.7436 20.7453 29.6254 20.4575C29.5073 20.1697 29.3332 19.9083 29.1132 19.6883C28.8932 19.4683 28.6318 19.2942 28.344 19.1761C28.0562 19.0579 27.7478 18.9981 27.4367 19H20.3573C20.0475 19 19.7407 19.0613 19.4546 19.1803C19.1685 19.2993 18.9088 19.4738 18.6904 19.6935C18.472 19.9133 18.2992 20.1741 18.182 20.4609C18.0648 20.7478 18.0054 21.0549 18.0074 21.3648V75.6353C18.0054 75.9464 18.0652 76.2548 18.1834 76.5425C18.3015 76.8303 18.4756 77.0918 18.6956 77.3118C18.9156 77.5317 19.1771 77.7059 19.4648 77.824C19.7526 77.9421 20.061 78.002 20.3721 78H74.6278C74.9389 78.002 75.2473 77.9421 75.5351 77.824C75.8229 77.7059 76.0843 77.5317 76.3043 77.3118C76.5243 77.0918 76.6984 76.8303 76.8165 76.5425C76.9347 76.2548 76.9945 75.9464 76.9925 75.6353V45.0121C77.0005 44.6973 76.945 44.3841 76.8296 44.0911C76.7141 43.7982 76.5409 43.5314 76.3204 43.3067C76.0998 43.082 75.8363 42.9039 75.5455 42.783C75.2548 42.6621 74.9427 42.6009 74.6278 42.603ZM65.1393 62.6441C65.1413 63.1092 65.0514 63.5701 64.8747 64.0004C64.6981 64.4306 64.4382 64.8218 64.11 65.1513C63.7818 65.4809 63.3917 65.7424 62.9622 65.9209C62.5327 66.0993 62.0722 66.1912 61.607 66.1911H56.8776C56.4125 66.1912 55.9519 66.0993 55.5224 65.9209C55.0929 65.7424 54.7028 65.4809 54.3746 65.1513C54.0464 64.8218 53.7865 64.4306 53.6099 64.0004C53.4333 63.5701 53.3433 63.1092 53.3453 62.6441V57.9294C53.3433 57.4643 53.4333 57.0033 53.6099 56.5731C53.7865 56.1428 54.0464 55.7517 54.3746 55.4221C54.7028 55.0925 55.0929 54.831 55.5224 54.6526C55.9519 54.4741 56.4125 54.3823 56.8776 54.3823H61.607C62.0722 54.3823 62.5327 54.4741 62.9622 54.6526C63.3917 54.831 63.7818 55.0925 64.11 55.4221C64.4382 55.7517 64.6981 56.1428 64.8747 56.5731C65.0514 57.0033 65.1413 57.4643 65.1393 57.9294V62.6441Z" fill="#FF6600"/>
</g>
<defs>
<clipPath id="clip0_6105_342">
<rect width="59" height="59" fill="white" transform="translate(18 19)"/>
</clipPath>
</defs>
</svg>
