<?xml version="1.0" encoding="UTF-8" standalone="no"?>
<svg
   width="96"
   height="96"
   viewBox="0 0 96 96"
   version="1.1"
   id="svg4"
   sodipodi:docname="test4.svg"
   inkscape:export-filename="logo.svg"
   inkscape:export-xdpi="72.18045"
   inkscape:export-ydpi="72.18045"
   inkscape:version="1.4.2 (ebf0e940, 2025-05-08)"
   xmlns:inkscape="http://www.inkscape.org/namespaces/inkscape"
   xmlns:sodipodi="http://sodipodi.sourceforge.net/DTD/sodipodi-0.dtd"
   xmlns="http://www.w3.org/2000/svg"
   xmlns:svg="http://www.w3.org/2000/svg">
  <sodipodi:namedview
     id="namedview4"
     pagecolor="#ffffff"
     bordercolor="#000000"
     borderopacity="0.25"
     inkscape:showpageshadow="2"
     inkscape:pageopacity="0.0"
     inkscape:pagecheckerboard="0"
     inkscape:deskcolor="#d1d1d1"
     inkscape:document-units="in"
     inkscape:zoom="5.7017542"
     inkscape:cx="63.840002"
     inkscape:cy="63.927694"
     inkscape:window-width="2304"
     inkscape:window-height="1186"
     inkscape:window-x="275"
     inkscape:window-y="58"
     inkscape:window-maximized="0"
     inkscape:current-layer="svg4" />
  <defs
     id="defs1">
    <style
       id="style1">
      .cls-1 {
        stroke: #000;
        stroke-miterlimit: 10;
        stroke-width: .36px;
      }

      .cls-2 {
        fill: #fff;
      }
    </style>
  </defs>
  <g
     id="Layer_2"
     data-name="Layer 2">
    <rect
       class="cls-2"
       width="96"
       height="96"
       id="rect1"
       x="0"
       y="0" />
  </g>
  <g
     id="Layer_1"
     data-name="Layer 1">
    <path
       class="cls-1"
       d="m 63.73,39.92 c -6.07,1.12 -9.07,0.41 -9.36,-0.79 -0.1,-0.4 0.07,-0.92 0.49,-1.54 2.13,-3.18 9.57,-7.67 18.09,-10.91 4.11,-1.57 8.14,-2.74 11.67,-3.39 6.06,-1.12 9.06,-0.41 9.35,0.79 0.1,0.4 -0.07,0.92 -0.49,1.54 -2.13,3.18 -9.57,7.67 -18.09,10.92 -4.1,1.56 -8.14,2.73 -11.66,3.38 z"
       id="path1" />
    <path
       class="cls-1"
       d="m 65.11,52.51 c -7.87,0.56 -13.02,-1.26 -12.72,-3.25 0.07,-0.44 0.4,-0.92 1,-1.42 1.98,-1.66 6.96,-3.59 13.61,-4.17 0.22,-0.02 0.43,-0.04 0.65,-0.05 7.86,-0.56 13,1.26 12.7,3.25 -0.07,0.44 -0.41,0.92 -1.01,1.42 -1.99,1.66 -6.96,3.6 -13.6,4.17 -0.21,0.02 -0.42,0.03 -0.63,0.05 z"
       id="path2" />
    <path
       class="cls-1"
       d="m 59.96,62.23 c -0.03,-3.6 -3.21,-6.5 -7.11,-6.47 -2.52,0.02 -4.73,1.26 -5.96,3.11 v 0 c 0,0 -0.02,0.03 -0.02,0.03 -0.04,0.07 -0.09,0.14 -0.13,0.2 L 40.65,68.83 15.18,27.61 C 13.25,24.48 8.94,23.4 5.55,25.18 2.24,26.92 1.04,30.77 2.8,33.86 v 0 c 0,0 0.04,0.06 0.04,0.06 0.03,0.05 0.06,0.1 0.09,0.16 0.03,0.05 0.07,0.1 0.1,0.15 l 36.56,59.2 v 0 c 0.19,0.34 0.58,0.58 1.03,0.58 0.42,0 0.79,-0.21 0.99,-0.52 v 0 c 0,0 17.49,-28.08 17.49,-28.08 v 0 c 0.55,-0.94 0.87,-2.02 0.86,-3.17"
       id="path3" />
    <path
       class="cls-1"
       d="M 92.69,2.86 C 90.89,0.33 80.72,3.6 69.97,10.15 59.22,16.7 51.97,24.07 53.77,26.59 55.57,29.12 65.74,25.85 76.49,19.3 87.23,12.75 94.49,5.39 92.68,2.86"
       id="path4" />
  </g>
</svg>
