<svg width="96" height="96" viewBox="0 0 96 96" fill="none" xmlns="http://www.w3.org/2000/svg">
<rect width="96" height="96" fill="white"/>
<g clip-path="url(#clip0_6115_473)">
<path d="M77.7374 39.5C76.4878 39.5 75.4748 40.513 75.4748 41.7626C75.4748 60.3813 60.3813 75.4748 41.7626 75.4748C40.513 75.4748 39.5 76.4878 39.5 77.7374C39.5 78.987 40.513 80 41.7626 80C62.8805 80 80 62.8805 80 41.7626C80 40.513 78.987 39.5 77.7374 39.5Z" fill="#005EB8"/>
<path d="M64.0814 54C66.2572 50.4505 68.3615 45.7178 67.9475 39.0921C67.0899 25.3673 54.6589 14.9554 42.9206 16.0837C38.3253 16.5255 33.6068 20.2712 34.026 26.9805C34.2082 29.8961 35.6352 31.6169 37.9544 32.9399C40.1618 34.1992 42.9978 34.9969 46.2128 35.9011C50.0962 36.9934 54.6009 38.2203 58.063 40.7717C62.2125 43.8295 65.0491 47.3743 64.0814 54Z" fill="#003B5C"/>
<path d="M19.9186 30C17.7428 33.5495 15.6385 38.2822 16.0525 44.9079C16.9101 58.6327 29.3411 69.0446 41.0794 67.9163C45.6747 67.4745 50.3932 63.7288 49.974 57.0195C49.7918 54.1039 48.3647 52.3831 46.0456 51.0601C43.8382 49.8008 41.0022 49.0031 37.7872 48.0989C33.9038 47.0066 29.3991 45.7797 25.9369 43.2283C21.7875 40.1704 18.9509 36.6257 19.9186 30Z" fill="#005EB8"/>
</g>
<defs>
<clipPath id="clip0_6115_473">
<rect width="64" height="64" fill="white" transform="translate(16 16)"/>
</clipPath>
</defs>
</svg>
