<svg width="96" height="96" viewBox="0 0 96 96" fill="none" xmlns="http://www.w3.org/2000/svg">
<rect width="96" height="96" fill="white"/>
<path d="M55.9788 55.1233H53.2423C51.7329 55.1233 50.5049 53.8953 50.5049 52.3858C50.5049 50.8764 51.7329 49.6484 53.2423 49.6484C54.7517 49.6484 55.9788 50.8764 55.9788 52.3858V55.1233ZM53.2414 50.7612C52.3451 50.7612 51.6159 51.4904 51.6159 52.3867C51.6159 53.2831 52.3451 54.0123 53.2414 54.0123H54.867V52.3867C54.867 51.4904 54.1378 50.7612 53.2414 50.7612Z" fill="#031730"/>
<path d="M74.345 55.1233H71.6085C70.0991 55.1233 68.8711 53.8953 68.8711 52.3858C68.8711 50.8764 70.0991 49.6484 71.6085 49.6484C73.1179 49.6484 74.345 50.8764 74.345 52.3858V55.1233ZM71.6085 50.7612C70.7122 50.7612 69.9829 51.4904 69.9829 52.3867C69.9829 53.2831 70.7122 54.0123 71.6085 54.0123H73.2341V52.3867C73.2341 51.4904 72.5048 50.7612 71.6085 50.7612Z" fill="#031730"/>
<path d="M65.4854 55.1232C63.9759 55.1232 62.7471 53.8952 62.7471 52.3849V49.8164H63.8589V52.3849C63.8589 53.2813 64.589 54.0114 65.4854 54.0114C66.3817 54.0114 67.1118 53.2821 67.1118 52.3849V49.8164H68.2236V52.3849C68.2236 53.8952 66.9957 55.1232 65.4854 55.1232Z" fill="#031730"/>
<path d="M59.3624 49.6484C57.853 49.6484 56.625 50.8764 56.625 52.3858C56.625 53.8953 57.853 55.1233 59.3624 55.1233L60.4734 54.0114H59.3624C58.4661 54.0114 57.7369 53.2822 57.7369 52.3858C57.7369 51.4895 58.4661 50.7603 59.3624 50.7603C60.2587 50.7603 60.988 51.4895 60.988 52.3858V57.7349H62.0989V52.3858C62.0998 50.8764 60.8719 49.6484 59.3624 49.6484Z" fill="#031730"/>
<path d="M28.0614 72.9832V75.6802C26.2239 75.6802 24.5693 75.0196 23.2639 73.9235C21.6243 72.5469 20.5811 70.4807 20.5811 68.1717V54.6641H23.2639V60.7942H28.0614V63.5096H23.2639V68.2403C23.3009 70.866 25.4278 72.9832 28.0614 72.9832Z" fill="#031730"/>
<path d="M37.6217 60.7949V63.4743C35.0787 63.4795 33.008 65.4965 32.9148 68.0184V75.6818H30.2275V60.7949H32.9148V62.4935C34.1929 61.4344 35.8334 60.7976 37.6217 60.7949Z" fill="#031730"/>
<path d="M39.3457 59.3067V56.959H42.0286V59.3067H39.3457ZM39.3457 75.6819V60.7951H42.0286V75.6819H39.3457Z" fill="#031730"/>
<path d="M58.478 60.7949L51.0407 75.6818L43.5938 60.7949H46.6425L51.0407 69.5868L55.4292 60.7949H58.478Z" fill="#031730"/>
<path d="M74.5636 60.7947C74.5636 60.7947 74.5636 77.0705 74.5636 78.1472C74.5636 82.3026 71.1533 85.6205 67.1149 85.617C65.2228 85.6188 63.4697 84.901 62.1406 83.7082L64.0688 81.7801C64.8921 82.4776 65.9547 82.8998 67.1149 82.8989C69.7292 82.8989 71.8447 80.7614 71.8447 78.1472V73.9874C70.5472 75.0606 68.8918 75.6825 67.1149 75.6807C63.0677 75.6842 59.6592 72.4182 59.6592 68.2302C59.6592 68.1423 59.6592 60.793 59.6592 60.793H62.3772C62.3772 60.793 62.3781 68.0314 62.3781 68.2302C62.3781 70.8331 64.4989 72.9855 67.114 72.982C69.7283 72.982 71.8438 70.8445 71.8438 68.2302V60.7938H74.5636V60.7947Z" fill="#031730"/>
<path d="M37.9366 26.745C37.9393 26.745 37.941 26.745 37.9437 26.745C38.3254 26.7459 38.6421 26.4521 38.6421 26.0703V13.4063L37.9296 13.0078L37.2197 13.4045V26.0703C37.2197 26.4521 37.5355 26.7467 37.9182 26.745C37.9243 26.745 37.9305 26.745 37.9366 26.745Z" fill="#08B1D5"/>
<path d="M33.6623 32.4929L21.9131 40.3779V41.276L22.5825 41.6428L34.4531 33.676C34.7583 33.471 34.834 33.0629 34.6361 32.7532C34.6273 32.74 34.6193 32.7268 34.6114 32.7136C34.4082 32.3847 33.9825 32.2773 33.6623 32.4929Z" fill="#1904DA"/>
<path d="M41.417 33.6821L53.2779 41.6419L53.9455 41.2759V40.3761L42.2095 32.499C41.8884 32.2835 41.4627 32.3899 41.2586 32.718C41.2507 32.7303 41.2428 32.7427 41.2349 32.7559C41.0352 33.0672 41.1108 33.4772 41.417 33.6821Z" fill="#FFC900"/>
<path d="M55.3683 21.9311V21.1175L54.6399 20.7102L54.5863 20.6821L38.6236 11.7679L37.9296 11.3809L37.2382 11.7679L21.273 20.6821L21.2184 20.7102L20.4901 21.1175V21.9311L20.4355 21.9628L20.4901 21.991V22.802V42.1186L21.2299 42.5224L36.7791 51.0407L36.9752 51.1489L37.9314 51.6723L38.8849 51.1489L39.0811 51.0407L54.6303 42.5224L55.3674 42.1186V22.802V21.9936L55.4246 21.9619L55.3683 21.9311ZM38.6597 49.6535V35.2813C38.6597 34.8898 38.3395 34.5697 37.9472 34.5705H37.9367H37.9296C37.5382 34.5705 37.2171 34.8907 37.2171 35.2822V49.6544L22.5827 41.6436L21.9133 41.2768V40.3787V22.6542L33.5658 29.0385C33.9018 29.2224 34.3293 29.0992 34.5149 28.7632L34.5228 28.7483C34.7111 28.4087 34.5861 27.9786 34.2457 27.7912L22.7437 21.4896L37.2189 13.404L37.9287 13.0073L38.6412 13.4058L53.1138 21.4896L41.603 27.7956C41.2643 27.9812 41.1579 28.4052 41.3461 28.7421C41.3496 28.7474 41.3523 28.7535 41.3558 28.7588C41.5405 29.0931 41.9513 29.2259 42.2855 29.0421L53.9442 22.6524V40.3752V41.2751L53.2765 41.641L38.6597 49.6535Z" fill="#031730"/>
<path d="M37.9367 32.721C39.0764 32.721 40.0003 31.7971 40.0003 30.6574C40.0003 29.5177 39.0764 28.5938 37.9367 28.5938C36.797 28.5938 35.873 29.5177 35.873 30.6574C35.873 31.7971 36.797 32.721 37.9367 32.721Z" fill="#FF0036"/>
<path d="M48.9563 20.8075L37.8079 14.5586C37.4649 14.3668 37.3435 13.9332 37.5352 13.5901C37.727 13.2471 38.1606 13.1257 38.5037 13.3175L49.6521 19.5663C49.9952 19.7581 50.1166 20.1918 49.9248 20.5348C49.7322 20.877 49.2985 20.9993 48.9563 20.8075Z" fill="#08B1D5"/>
<path d="M44.0699 21.2899L37.8069 17.7793C37.4639 17.5876 37.3425 17.1539 37.5342 16.8108C37.726 16.4678 38.1597 16.3464 38.5027 16.5382L44.7657 20.0488C45.1087 20.2405 45.2301 20.6742 45.0384 21.0172C44.8466 21.3594 44.413 21.4817 44.0699 21.2899Z" fill="#08B1D5"/>
<path d="M46.1224 22.4395C45.7793 22.2477 45.6579 21.8141 45.8497 21.471C46.0414 21.1279 46.4751 21.0066 46.8182 21.1983C47.1612 21.3901 47.2826 21.8237 47.0908 22.1668C46.8982 22.5098 46.4654 22.6321 46.1224 22.4395Z" fill="#08B1D5"/>
<path d="M39.904 22.2827L37.8245 21.1172C37.4815 20.9254 37.3601 20.4918 37.5518 20.1487C37.7436 19.8057 38.1772 19.6843 38.5203 19.876L40.6006 21.0416C40.9437 21.2333 41.0651 21.667 40.8733 22.01C40.6807 22.3531 40.247 22.4754 39.904 22.2827Z" fill="#08B1D5"/>
<path d="M43.0424 24.1981L41.8382 23.5235C41.4951 23.3317 41.3737 22.898 41.5655 22.555C41.7573 22.2119 42.1909 22.0905 42.534 22.2823L43.7382 22.957C44.0812 23.1487 44.2026 23.5824 44.0109 23.9254C43.8191 24.2685 43.3855 24.3908 43.0424 24.1981Z" fill="#08B1D5"/>
</svg>
