<svg width="96" height="96" viewBox="0 0 96 96" fill="none" xmlns="http://www.w3.org/2000/svg">
<rect width="96" height="96" fill="white"/>
<g clip-path="url(#clip0_6115_33)">
<path d="M71.383 29.8237L51.8143 18.1987C49.4771 16.8062 46.5951 16.8062 44.258 18.1987L24.6893 29.8237C22.3521 31.2042 20.9111 33.7714 20.9111 36.5444V59.7823C20.9111 62.5554 22.3521 65.1226 24.6893 66.503L44.258 78.1159C45.4205 78.8062 46.7283 79.1573 48.0361 79.1573C49.3439 79.1573 50.6396 78.8062 51.8143 78.1159L71.383 66.503C73.7201 65.1104 75.1611 62.5554 75.1611 59.7823V36.5444C75.1611 33.7714 73.7201 31.2042 71.383 29.8237Z" fill="white"/>
<path d="M71.383 29.8246L51.8143 18.1996C50.6518 17.5094 49.3439 17.1582 48.0361 17.1582C46.7283 17.1582 45.4326 17.5094 44.258 18.1996L24.6893 29.8246C22.3521 31.2051 20.9111 33.7723 20.9111 36.5453V59.7832C20.9111 62.5563 22.3521 65.1234 24.6893 66.5039L44.258 78.1168C45.4205 78.807 46.7283 79.1582 48.0361 79.1582C49.3439 79.1582 50.6396 78.807 51.8143 78.1168L71.383 66.5039C73.7201 65.1113 75.1611 62.5563 75.1611 59.7832V36.5453C75.1611 33.7723 73.7201 31.2051 71.383 29.8246ZM44.9482 76.9301L25.3795 65.3172C23.4662 64.1789 22.2795 62.0598 22.2795 59.7832V36.5453C22.2795 34.2687 23.4662 32.1496 25.3795 31.0113L44.9482 19.3984C45.8928 18.8414 46.9584 18.5508 48.0361 18.5508C49.1139 18.5508 50.1916 18.8414 51.124 19.3984L70.6928 31.0113C72.3033 31.968 73.3932 33.627 73.6959 35.4918C73.042 34.1113 71.5889 33.7238 69.8814 34.7289L51.3662 46.1723C49.0533 47.5164 47.358 49.0422 47.358 51.8152V74.6293C47.358 76.3004 48.024 77.3781 49.0654 77.693C48.7264 77.7535 48.3873 77.7898 48.0361 77.7898C46.9584 77.7777 45.8807 77.4871 44.9482 76.9301Z" fill="#283037"/>
<path d="M66.2605 62.0227L61.3805 64.9411C61.2473 65.0137 61.1504 65.0985 61.1504 65.2559V66.5274C61.1504 66.6848 61.2594 66.7454 61.3805 66.6727L66.3332 63.6696C66.4664 63.5969 66.4785 63.4516 66.4785 63.2942V62.168C66.4906 62.0106 66.3816 61.95 66.2605 62.0227Z" fill="#4DA825"/>
<path d="M55.8828 51.2945C56.0402 51.2098 56.1734 51.3188 56.1734 51.5246L56.1855 53.2078C56.8878 52.9293 57.5054 52.8567 58.0625 52.9777C58.1835 53.0141 58.232 53.1715 58.1835 53.3652L57.8082 54.8547C57.7839 54.9637 57.7113 55.0848 57.6386 55.1574C57.6023 55.1938 57.5781 55.218 57.5417 55.2301C57.4933 55.2543 57.4449 55.2664 57.3964 55.2543C57.1421 55.1938 56.5367 55.0606 55.5921 55.5449C54.5992 56.0535 54.248 56.9133 54.2601 57.5551C54.2722 58.318 54.6597 58.5602 56.016 58.5723C57.8203 58.5965 58.6074 59.3957 58.6195 61.2121C58.6437 63.0043 57.6871 64.9176 56.2218 66.1043L56.2582 67.7754C56.2582 67.9813 56.1249 68.2113 55.9675 68.284L54.9746 68.8531C54.8171 68.9379 54.6839 68.841 54.6839 68.6352L54.6718 66.9883C53.8242 67.3395 52.9644 67.4242 52.4195 67.2063C52.3105 67.1699 52.2742 67.0125 52.3105 66.843L52.6738 65.3293C52.698 65.2082 52.7707 65.0871 52.8554 65.0145C52.8917 64.9902 52.916 64.966 52.9523 64.9418C53.0128 64.9176 53.0613 64.9055 53.1097 64.9297C53.7031 65.1235 54.4539 65.0387 55.1804 64.6633C56.1007 64.191 56.7183 63.2586 56.7062 62.3141C56.6941 61.4664 56.2339 61.1152 55.1199 61.1031C53.7031 61.1031 52.371 60.8246 52.3468 58.7297C52.3347 57.0102 53.2308 55.218 54.6476 54.0797L54.6355 52.3965C54.6355 52.1906 54.7566 51.9606 54.9261 51.8758L55.8828 51.2945Z" fill="white"/>
</g>
<defs>
<clipPath id="clip0_6115_33">
<rect width="62" height="62" fill="white" transform="translate(17 17)"/>
</clipPath>
</defs>
</svg>
