<svg width="96" height="96" viewBox="0 0 96 96" fill="none" xmlns="http://www.w3.org/2000/svg">
<rect width="96" height="96" fill="white"/>
<g clip-path="url(#clip0_6114_715)">
<path d="M22.25 33.2211H65.117C69.841 33.2211 74.0594 31.0482 76.8899 27.6559C70.9856 19.9625 61.719 15 51.2921 15C38.5249 15 27.4908 22.4343 22.25 33.2211Z" fill="#F0BF1A"/>
<path d="M61.4839 38.2822H20.3039C19.4606 41.1734 19 44.2284 19 47.3927C19 50.5572 19.4606 53.6125 20.3039 56.5034H61.4839C66.4286 56.5034 70.5661 52.4543 70.5661 47.3927C70.5661 42.3313 66.5296 38.2822 61.4839 38.2822Z" fill="#07A5DE"/>
<path d="M77 66.99C74.1874 63.6738 70.003 61.5654 65.3186 61.5654H22.25C27.4908 72.3525 38.5249 79.7866 51.2919 79.7866C61.7831 79.7866 71.1016 74.7645 77 66.99Z" fill="#3EBEB0"/>
<path d="M20.3039 38.2822C19.4604 41.1734 19 44.2284 19 47.3927C19 50.5572 19.4604 53.6125 20.3039 56.5034H47.2553C47.9617 53.7702 48.3652 50.7334 48.3652 47.3927C48.3652 44.0522 47.9617 41.0154 47.2553 38.2822H20.3039Z" fill="#231F20"/>
<path d="M35.0455 19.3525C29.5959 22.5919 25.055 27.4507 22.2295 33.2209H46.0448C43.6229 27.6532 39.7883 22.9969 35.0455 19.3525Z" fill="#D7A229"/>
<path d="M36.0546 75.94C40.6964 72.1945 44.4301 67.2343 46.7513 61.5654H22.2295C25.2568 67.6393 30.1007 72.7007 36.0546 75.94Z" fill="#019B8F"/>
</g>
<defs>
<clipPath id="clip0_6114_715">
<rect width="58" height="65" fill="white" transform="translate(19 15)"/>
</clipPath>
</defs>
</svg>
