<svg width="96" height="96" viewBox="0 0 96 96" fill="none" xmlns="http://www.w3.org/2000/svg">
  <rect width="96" height="96" fill="white"/>
  <g transform="translate(8,9.5) scale(0.5229)">
    <path d="M50.1,112.3l-3.7,4.7,8.5,13.2-.9,6.1h36l2.5-6.1-14.5-17.9h-27.8Z" fill="black"/>
    <path d="M69.8,32l-13,22.7,63.4,74.8-1.8,6.9h29.1l5.3-24.3L84.9,32h-15.1Z" fill="black"/>
    <path d="M78.4,14.9l-6.2,11.3h15.3l26.3,31.2,15.7-12.8v-8.1l-5.4-7.6,4-4.2L96.7,0l-18.3,14.9Z" fill="black"/>
    <path d="M31.2,78.1h-8.6L0,106.7v29.6h24.2l4.3-5.5,18.7-24.1h27l8.3-12.7-29.3-34.7-22.1,18.9Z" fill="black"/>
  </g>
</svg>
