<svg width="96" height="96" viewBox="0 0 96 96" fill="none" xmlns="http://www.w3.org/2000/svg">
<rect width="96" height="96" fill="white"/>
<path d="M48 9C40.2865 9 32.7463 11.3166 26.3328 15.657C19.9193 19.9973 14.9205 26.1663 11.9687 33.384C9.0169 40.6017 8.24457 48.5438 9.74939 56.2061C11.2542 63.8683 14.9686 70.9065 20.4229 76.4307C25.8771 81.9549 32.8262 85.7169 40.3915 87.241C47.9567 88.7651 55.7983 87.9829 62.9247 84.9932C70.051 82.0036 76.1419 76.9407 80.4273 70.445C84.7127 63.9493 87 56.3124 87 48.5C86.998 38.0246 82.8885 27.9787 75.575 20.5715C68.2615 13.1642 58.3428 9.00199 48 9ZM48 80.7245C41.7082 80.72 35.559 78.8263 30.3297 75.2827C25.1005 71.7391 21.0259 66.7048 18.6212 60.8161C16.2165 54.9275 15.5896 48.4489 16.8198 42.1995C18.05 35.95 21.082 30.2103 25.5325 25.7059C29.983 21.2015 35.6522 18.1346 41.8234 16.8931C47.9946 15.6515 54.3907 16.291 60.2031 18.7306C66.0155 21.1703 70.9833 25.3006 74.4783 30.5994C77.9734 35.8982 79.8389 42.1276 79.8389 48.5C79.8389 52.7337 79.0152 56.9259 77.4148 60.837C75.8145 64.7481 73.4689 68.3015 70.5121 71.2941C67.5553 74.2867 64.0453 76.6599 60.1825 78.278C56.3198 79.8961 52.1801 80.7274 48 80.7245Z" fill="#727174"/>
<path d="M48 83C66.7777 83 82 67.5538 82 48.5C82 29.4462 66.7777 14 48 14C29.2223 14 14 29.4462 14 48.5C14 67.5538 29.2223 83 48 83Z" fill="white"/>
<path d="M48 54C51.3137 54 54 51.3137 54 48C54 44.6863 51.3137 42 48 42C44.6863 42 42 44.6863 42 48C42 51.3137 44.6863 54 48 54Z" fill="#78BE43"/>
<path d="M68.7291 33.7509L70.0196 38.8736L74 38.3829L71.6678 29.1487L71.5512 28.777L62.4321 25L61.2426 28.7175L66.2803 30.7993L55 39.8476C55.9465 40.7579 56.7106 41.8264 57.2545 43L68.7291 33.7509Z" fill="#1ABFD3"/>
<path d="M29.3045 30.7707L34.1152 28.6991L32.9898 25L24.3171 28.7879L24.2068 29.1578L22 38.3465L25.7736 38.8348L26.9873 33.7374L37.8888 43C38.3966 41.8293 39.112 40.7614 40 39.8483L29.3045 30.7707Z" fill="#79459B"/>
<path d="M22.5827 52.4498L23.8419 47.3468L20.2767 46L18 55.2482L18.2269 55.5625L24.0835 63L26.7628 60.2614L23.4905 56.1386L38 52.8838C37.4105 51.7514 37.0261 50.5195 36.8653 49.2474L22.5827 52.4498Z" fill="#1E4488"/>
<path d="M75.6624 46L71.9022 47.3627L73.2248 52.4634L58.1996 49.2764C58.0309 50.5505 57.6245 51.7843 57 52.9177L72.2329 56.1568L68.8034 60.2597L71.61 63L77.7616 55.5983L78 55.2856L75.6624 46Z" fill="#1E4488"/>
<path d="M57.0485 71.9177L51.8641 71.6664L51.2856 75.5583L60.6293 76H61.0394L67 68.4905L63.822 66.3199L60.5268 70.4707L54.3538 56C53.3448 56.783 52.2088 57.3711 51 57.7365L57.0485 71.9177Z" fill="#79459B"/>
<path d="M35.4703 70.4538L32.1766 66.2903L29 68.4675L34.9579 76H35.3678L44.7072 75.5569L44.1363 71.6532L38.9543 71.9206L45 57.7341C43.7892 57.3721 42.651 56.7846 41.6404 56L35.4703 70.4538Z" fill="#1ABFD3"/>
<path d="M49.9619 37V23.1965L54.8492 25.5092L57 22.3255L48.1966 18.1903L47.8188 18L39 22.1718L41.1585 25.3702L46.0381 23.0647V36.9707C46.6717 36.8626 47.3139 36.8062 47.9576 36.8024C48.6305 36.8128 49.3011 36.8789 49.9619 37Z" fill="#218FCF"/>
</svg>
