<svg width="96" height="96" viewBox="0 0 96 96" fill="none" xmlns="http://www.w3.org/2000/svg">
<rect width="96" height="96" fill="white"/>
<path d="M47.9917 1.00015C40.1969 1.00015 33.145 5.31969 29.588 12.2701L29.5082 12.4273L29.4332 12.5882L4.92961 65.7053L4.75072 66.0952L4.61045 66.4999C4.12687 67.899 3 71.468 3 74.4282C3 85.8293 12.2757 95.1035 23.6758 95.1035C31.5853 95.1035 38.7596 90.6036 42.2271 83.5554L63.4999 93.129C66.2731 94.4391 69.242 95.1035 72.3247 95.1035C83.7246 95.1035 93 85.8293 93 74.4282C93 71.468 91.8734 67.899 91.3893 66.4999L91.2494 66.0952L91.0687 65.704C67.3812 14.3859 66.3994 12.2589 66.1976 11.8764C62.5823 5.16864 55.6062 1.00015 47.9917 1.00015Z" fill="white"/>
<mask id="mask0_6115_593" style="mask-type:luminance" maskUnits="userSpaceOnUse" x="37" y="50" width="31" height="36">
<path d="M61.3056 79.2006L61.3033 79.2016L48.0002 50.343L37.957 72.1312L67.1399 85.2656L67.1412 85.2631C64.54 84.0154 62.4566 81.8561 61.3056 79.2006Z" fill="white"/>
</mask>
<g mask="url(#mask0_6115_593)">
<path d="M61.3056 79.2006L61.3033 79.2016L48.0002 50.343L37.957 72.1312L67.1399 85.2656L67.1412 85.2631C64.54 84.0154 62.4566 81.8561 61.3056 79.2006Z" fill="url(#paint0_linear_6115_593)"/>
</g>
<mask id="mask1_6115_593" style="mask-type:luminance" maskUnits="userSpaceOnUse" x="48" y="15" width="37" height="72">
<path d="M83.1898 69.3414L83.1996 69.3365L59.1051 17.0876C59.0374 16.9241 58.9585 16.7669 58.8836 16.6072L58.7037 16.216L58.6964 16.2197C58.6563 16.1392 58.6094 16.0625 58.566 15.9845C59.4799 17.6781 60.0007 19.6169 60.0007 21.677C60.0007 23.4523 59.6057 25.1324 58.9141 26.6477L58.9214 26.6514L48 50.3427L61.3031 79.2013L61.3055 79.2003C63.152 83.4575 67.3874 86.4375 72.3247 86.4375C78.9569 86.4375 84.3325 81.0608 84.3325 74.4285C84.3325 72.6077 83.9152 70.8881 83.1898 69.3414Z" fill="white"/>
</mask>
<g mask="url(#mask1_6115_593)">
<path d="M83.1898 69.3414L83.1996 69.3365L59.1051 17.0876C59.0374 16.9241 58.9585 16.7669 58.8836 16.6072L58.7037 16.216L58.6964 16.2197C58.6563 16.1392 58.6094 16.0625 58.566 15.9845C59.4799 17.6781 60.0007 19.6169 60.0007 21.677C60.0007 23.4523 59.6057 25.1324 58.9141 26.6477L58.9214 26.6514L48 50.3427L61.3031 79.2013L61.3055 79.2003C63.152 83.4575 67.3874 86.4375 72.3247 86.4375C78.9569 86.4375 84.3325 81.0608 84.3325 74.4285C84.3325 72.6077 83.9152 70.8881 83.1898 69.3414Z" fill="url(#paint1_linear_6115_593)"/>
</g>
<mask id="mask2_6115_593" style="mask-type:luminance" maskUnits="userSpaceOnUse" x="11" y="9" width="50" height="78">
<path d="M47.9919 9.66673C43.3261 9.66673 39.2918 12.3335 37.3041 16.2197L37.2969 16.216L37.1166 16.6072C37.0415 16.7669 36.9632 16.9241 36.8956 17.0876L12.8005 69.3365L12.8103 69.3414C12.0848 70.8881 11.668 72.6077 11.668 74.4285C11.668 81.0608 17.0433 86.4375 23.676 86.4375C28.6122 86.4375 32.8486 83.4575 34.6951 79.2003L34.6975 79.2013L58.9216 26.6514L58.9143 26.6477C59.6058 25.1324 60.0009 23.4523 60.0009 21.677C60.0009 15.0436 54.6247 9.66673 47.9919 9.66673Z" fill="white"/>
</mask>
<g mask="url(#mask2_6115_593)">
<path d="M47.9919 9.66673C43.3261 9.66673 39.2918 12.3335 37.3041 16.2197L37.2969 16.216L37.1166 16.6072C37.0415 16.7669 36.9632 16.9241 36.8956 17.0876L12.8005 69.3365L12.8103 69.3414C12.0848 70.8881 11.668 72.6077 11.668 74.4285C11.668 81.0608 17.0433 86.4375 23.676 86.4375C28.6122 86.4375 32.8486 83.4575 34.6951 79.2003L34.6975 79.2013L58.9216 26.6514L58.9143 26.6477C59.6058 25.1324 60.0009 23.4523 60.0009 21.677C60.0009 15.0436 54.6247 9.66673 47.9919 9.66673Z" fill="url(#paint2_linear_6115_593)"/>
</g>
<defs>
<linearGradient id="paint0_linear_6115_593" x1="81.6708" y1="81.6171" x2="22.0118" y2="50.1928" gradientUnits="userSpaceOnUse">
<stop stop-color="#421644"/>
<stop offset="1" stop-color="#151530"/>
</linearGradient>
<linearGradient id="paint1_linear_6115_593" x1="43.7794" y1="10.8614" x2="76.6214" y2="84.5787" gradientUnits="userSpaceOnUse">
<stop stop-color="#A21058"/>
<stop offset="1" stop-color="#421644"/>
</linearGradient>
<linearGradient id="paint2_linear_6115_593" x1="19.3916" y1="85.7754" x2="51.5248" y2="12.0581" gradientUnits="userSpaceOnUse">
<stop stop-color="#EE1A6D"/>
<stop offset="1" stop-color="#A21058"/>
</linearGradient>
</defs>
</svg>
