<svg xmlns="http://www.w3.org/2000/svg" viewBox="0 0 128 128" role="img" aria-label="FleetConfig Controller logo">
  <rect width="128" height="128" rx="24" fill="#0b1f33"/>
  <path d="M64 18 96 34v28c0 23-13.9 39.9-32 48-18.1-8.1-32-25-32-48V34l32-16Z" fill="#1d9bf0"/>
  <path d="M64 28 87 39.5v22.2c0 16.7-9.9 29.7-23 36.1-13.1-6.4-23-19.4-23-36.1V39.5L64 28Z" fill="#7dd3fc"/>
  <circle cx="46" cy="54" r="8" fill="#0b1f33"/>
  <circle cx="82" cy="54" r="8" fill="#0b1f33"/>
  <circle cx="64" cy="78" r="8" fill="#0b1f33"/>
  <path d="M52 58 58 70M76 58 70 70M54 54h20" stroke="#0b1f33" stroke-width="6" stroke-linecap="round"/>
</svg>
