<svg width="96" height="96" viewBox="0 0 96 96" fill="none" xmlns="http://www.w3.org/2000/svg">
<rect width="96" height="96" fill="white"/>
<path d="M31.3313 37.4162C21.0717 37.3294 9.43889 34.9964 19.2249 23.3244C20.8151 21.4283 21.5502 18.6654 21.5592 16.2038C21.5641 14.7356 21.2062 13.7472 20.7451 13.0332C22.3873 14.3862 24.071 16.4456 23.8151 19.0925C23.3318 24.0954 19.5453 26.1131 20.7533 29.9053C21.3061 31.6396 26.0981 34.8873 31.3313 37.4162Z" fill="#5750C3"/>
<path d="M42.9194 30.7455C39.1059 31.5977 35.7091 33.5474 33.2395 36.3756C32.9469 36.7103 32.6695 37.0583 32.4088 37.4181H32.408C32.0509 37.4202 31.6924 37.4202 31.331 37.4167C26.0979 34.8878 21.3058 31.6401 20.7531 29.9058C19.545 26.1135 23.3315 24.0958 23.8149 19.093C24.0708 16.446 22.387 14.3867 20.7448 13.0337C19.7794 11.5383 18.3612 11.2452 18.8696 10.2701C19.2433 9.55256 23.9495 10.2346 26.3898 12.6787C29.6999 15.9939 28.9641 18.8547 27.6915 22.8644C24.8704 31.7533 40.5823 30.9178 42.9194 30.7455Z" fill="#5965CA"/>
<path d="M63.7383 37.4162C73.9979 37.3294 85.6307 34.9964 75.8447 23.3244C74.2545 21.4283 73.5194 18.6654 73.5104 16.2038C73.5056 14.7356 73.8633 13.7472 74.3245 13.0332C72.6823 14.3862 70.9985 16.4456 71.2545 19.0925C71.7378 24.0954 75.5243 26.1131 74.3162 29.9053C73.7635 31.6396 68.9714 34.8873 63.7383 37.4162Z" fill="#5750C3"/>
<path d="M52.1504 30.7455C55.9639 31.5977 59.3607 33.5474 61.8303 36.3756C62.1229 36.7103 62.4004 37.0583 62.661 37.4181H62.6618C63.0189 37.4202 63.3775 37.4202 63.7388 37.4167C68.9719 34.8878 73.764 31.6401 74.3167 29.9058C75.5248 26.1135 71.7383 24.0958 71.2549 19.093C70.999 16.446 72.6828 14.3867 74.325 13.0337C75.2904 11.5383 76.7086 11.2452 76.2003 10.2701C75.8265 9.55256 71.1204 10.2346 68.68 12.6787C65.3699 15.9939 66.1057 18.8547 67.3783 22.8644C70.1994 31.7533 54.4875 30.9178 52.1504 30.7455Z" fill="#5965CA"/>
<path d="M67.7366 85.2256C58.0303 88.917 56.4326 77.9657 47.709 77.7187C37.8835 77.4419 35.4223 89.04 26.0843 84.8561C17.4482 80.9866 13.4295 48.9498 22.6966 35.9512C24.2812 33.7286 28.8334 26.7414 39.1658 23.9785C39.1436 23.9722 39.1318 23.9688 39.1318 23.9688C44.4232 22.5463 44.3955 21.8698 44.4516 21.1655C44.5231 20.2675 43.4079 19.7952 42.9356 19.5903C42.8309 19.5452 42.8205 19.4007 42.9169 19.3396C44.7977 18.1463 47.1591 19.5896 47.7354 20.7773C48.0883 21.5045 49.2014 21.0142 48.8935 20.2661C48.82 20.0869 48.7146 19.9327 48.6071 19.8424C48.5634 19.8056 48.5745 19.7355 48.6279 19.7153C49.1245 19.5223 50.3894 19.4625 50.4782 20.8245C50.5503 21.9365 52.0045 22.0199 51.8332 21.26C51.8013 21.1184 51.8846 20.9731 52.024 20.9336C52.8035 20.7106 53.4533 21.2961 54.0358 22.4414C54.5157 23.3861 55.8035 23.5652 57.2703 24.0133C57.2738 24.0139 57.2765 24.0146 57.28 24.016C67.1839 26.7769 72.1493 33.6161 73.5509 36.061C80.2973 47.8329 79.4068 80.787 67.7366 85.2256Z" fill="#5F97FF"/>
<mask id="mask0_6114_587" style="mask-type:luminance" maskUnits="userSpaceOnUse" x="17" y="18" width="61" height="68">
<path d="M42.917 19.3396C42.8206 19.4007 42.831 19.5452 42.9358 19.5904C43.408 19.7952 44.5232 20.2675 44.4518 21.1655C44.3956 21.8699 44.4233 22.5463 39.1319 23.9688C39.1319 23.9688 39.1437 23.9722 39.1658 23.9785C28.8334 26.7415 24.2813 33.7286 22.6967 35.9513C13.4294 48.95 17.4483 80.9868 26.0844 84.8563C31.4128 87.2439 34.5022 84.492 37.9984 81.7407C40.6292 79.6701 43.4903 77.6 47.7092 77.7189C56.4326 77.9654 58.0304 88.9172 67.7367 85.2258C79.4071 80.7867 80.2975 47.8329 73.5511 36.0609C72.1495 33.6161 67.1839 26.7769 57.2798 24.016C57.2767 24.0146 57.2737 24.014 57.2706 24.0132C55.8037 23.5653 54.5157 23.3861 54.0358 22.4414C53.4532 21.2962 52.8038 20.7106 52.0239 20.9336C51.8847 20.9731 51.8014 21.1183 51.8333 21.26C52.0049 22.0198 50.5504 21.9365 50.4783 20.8245C50.3895 19.4625 49.1246 19.5222 48.628 19.7154C48.5746 19.7355 48.5635 19.8056 48.6072 19.8424C48.7147 19.9328 48.8201 20.0869 48.8936 20.2661C49.2015 21.0141 48.0885 21.5045 47.7355 20.7773C47.3117 19.904 45.9229 18.8925 44.4697 18.8926C43.9465 18.8926 43.4149 19.0237 42.917 19.3396Z" fill="white"/>
</mask>
<g mask="url(#mask0_6114_587)">
<path d="M80.7583 77.7782C79.9573 79.0299 78.8515 79.8309 77.5607 80.0946C76.6163 80.2873 75.5882 80.3896 74.5869 80.3896H74.5863C72.7766 80.3892 69.4725 80.0514 67.6785 77.7879C66.7808 76.6554 66.4029 74.9736 66.6137 73.0517C66.816 71.2083 67.7339 68.8033 69.7031 67.5833C71.1167 66.7074 72.8387 66.5234 74.0343 66.5234C74.7591 66.5234 75.4933 66.5886 76.217 66.7177C77.2671 66.9044 78.117 67.1839 78.8144 67.5712C80.2861 68.3886 81.4049 69.9069 81.8073 71.6327C82.2752 73.6399 81.8636 76.0521 80.7583 77.7782Z" fill="#7EBEFF"/>
<path d="M53.7422 28.9136C53.5422 29.2261 53.2661 29.4262 52.9438 29.492C52.708 29.5401 52.4513 29.5656 52.2013 29.5656H52.2011C51.7493 29.5656 50.9244 29.4812 50.4764 28.916C50.2523 28.6332 50.1579 28.2134 50.2105 27.7335C50.2611 27.2732 50.4903 26.6727 50.9819 26.3682C51.3349 26.1494 51.7648 26.1035 52.0633 26.1035C52.2443 26.1035 52.4276 26.1198 52.6083 26.152C52.8705 26.1986 53.0827 26.2684 53.2568 26.3651C53.6243 26.5692 53.9036 26.9483 54.0041 27.3792C54.121 27.8803 54.0182 28.4826 53.7422 28.9136Z" fill="#7EBEFF"/>
<path d="M63.6654 30.4767C63.239 31.1429 62.6504 31.5694 61.9635 31.7096C61.4608 31.8122 60.9136 31.8666 60.3806 31.8666H60.3803C59.4171 31.8665 57.6584 31.6867 56.7036 30.4819C56.2257 29.8791 56.0246 28.984 56.1368 27.961C56.2445 26.9799 56.7331 25.6998 57.7812 25.0504C58.5336 24.5842 59.4501 24.4863 60.0865 24.4863C60.4723 24.4863 60.8631 24.521 61.2482 24.5897C61.8072 24.6891 62.2595 24.8379 62.6308 25.044C63.4141 25.4791 64.0095 26.2872 64.2237 27.2057C64.4728 28.2741 64.2537 29.558 63.6654 30.4767Z" fill="#7EBEFF"/>
<path d="M21.7656 49.3432C21.2711 50.1157 20.5886 50.6101 19.792 50.7728C19.209 50.8918 18.5745 50.9549 17.9564 50.9549H17.956C16.8391 50.9547 14.7997 50.7462 13.6924 49.3491C13.1383 48.6501 12.9051 47.6121 13.0352 46.4259C13.1601 45.2881 13.7266 43.8036 14.9421 43.0506C15.8146 42.51 16.8774 42.3965 17.6154 42.3965C18.0627 42.3965 18.5159 42.4367 18.9626 42.5163C19.6107 42.6316 20.1353 42.8042 20.5658 43.0432C21.4741 43.5477 22.1646 44.4848 22.413 45.55C22.7018 46.7889 22.4477 48.2778 21.7656 49.3432Z" fill="#7EBEFF"/>
<path d="M21.9931 58.035C21.7457 58.4216 21.4041 58.669 21.0054 58.7505C20.7137 58.81 20.3961 58.8416 20.0868 58.8416H20.0866C19.5277 58.8415 18.5071 58.7372 17.953 58.038C17.6757 57.6881 17.5589 57.1687 17.6241 56.575C17.6865 56.0057 17.9701 55.2628 18.5784 54.886C19.015 54.6154 19.5469 54.5586 19.9162 54.5586C20.1401 54.5586 20.3669 54.5787 20.5903 54.6186C20.9147 54.6762 21.1772 54.7626 21.3927 54.8822C21.8472 55.1347 22.1928 55.6037 22.3171 56.1367C22.4617 56.7567 22.3345 57.5018 21.9931 58.035Z" fill="#7EBEFF"/>
<path d="M72.0667 62.7628C71.7914 63.193 71.4113 63.4683 70.9677 63.5589C70.6431 63.6252 70.2897 63.6604 69.9455 63.6604H69.9453C69.3234 63.6603 68.1877 63.5441 67.5711 62.7661C67.2626 62.3769 67.1327 61.7988 67.2052 61.1383C67.2747 60.5047 67.5902 59.6781 68.267 59.2588C68.7529 58.9578 69.3447 58.8945 69.7556 58.8945C70.0048 58.8945 70.2571 58.9169 70.5059 58.9613C70.8668 59.0254 71.1589 59.1216 71.3986 59.2546C71.9044 59.5356 72.2889 60.0574 72.4272 60.6506C72.5881 61.3404 72.4466 62.1695 72.0667 62.7628Z" fill="#7EBEFF"/>
</g>
<path d="M56.8634 59.2153C55.5165 60.3697 53.9512 61.2964 52.2384 61.7532C51.1521 62.0428 49.9487 62.1912 48.7011 62.2062C48.5199 62.2094 48.3373 62.2088 48.154 62.2055C44.8188 62.1457 41.2523 61.165 38.8287 59.4243C32.6326 54.9777 30.9438 45.4481 35.4187 39.3356C35.6254 39.0525 35.8456 38.7773 36.0789 38.5105C36.231 38.3367 36.3862 38.1675 36.5454 38.0035C37.8501 36.6539 39.3933 35.614 41.0658 34.878C41.9495 34.4888 42.8689 34.1843 43.8091 33.9644C44.9878 33.6871 46.1983 33.542 47.4075 33.527C47.5634 33.5251 47.7194 33.5251 47.8753 33.5283C49.0189 33.5452 50.1579 33.6786 51.2658 33.9266C52.9785 34.3099 54.6166 34.9665 56.0798 35.8905C57.0239 36.486 57.8953 37.1927 58.6672 38.0094C60.1382 39.564 61.2493 41.5169 61.8153 43.8563C63.1473 49.3578 61.1558 55.5321 56.8634 59.2153ZM63.9348 43.296C63.4494 41.2911 62.6294 39.5556 61.571 38.0777C59.1649 34.7179 55.5243 32.6862 51.7648 31.837C50.3821 31.524 48.9832 31.3711 47.6232 31.3711C46.2009 31.3711 44.8091 31.526 43.4718 31.8253C43.4712 31.8247 43.4706 31.8253 43.4699 31.8253C39.8969 32.6238 36.7144 34.4505 34.4006 37.1003C34.1264 37.4139 33.8665 37.74 33.6222 38.0771H33.6215C33.5357 38.1948 33.4519 38.3146 33.3694 38.435C31.2915 41.4857 30.3734 45.3778 30.8327 49.3604C31.3922 54.2052 33.8366 58.5086 37.5422 61.1682C40.3296 63.1686 44.4465 64.3634 48.553 64.3634H48.5543C50.1137 64.3634 51.5679 64.1871 52.8752 63.8376C54.7504 63.3378 56.5632 62.3461 58.2611 60.8884C63.1811 56.6696 65.4598 49.5992 63.9348 43.296Z" fill="#7EBEFF"/>
<path d="M56.8402 59.215C55.4934 60.37 53.928 61.2967 52.2153 61.7534C48.0917 62.8525 42.2755 61.9163 38.8051 59.4244C32.3227 54.7722 30.774 44.5557 36.0556 38.5107C37.4524 36.912 39.1662 35.7034 41.0427 34.8779C45.8481 32.7618 51.7189 33.1508 56.0563 35.8902C58.7987 37.6198 60.9282 40.289 61.7917 43.8562C63.1243 49.3577 61.1325 55.5323 56.8402 59.215Z" fill="#C1E8FE"/>
<path d="M48.0893 55.3794C46.1863 55.3794 44.2229 54.8187 42.9655 53.9159C41.2832 52.7086 40.1713 50.7405 39.9148 48.5164C39.6738 46.4276 40.2547 44.4066 41.5085 42.9716C42.9611 41.309 45.1791 40.3555 47.5937 40.3555C50.6549 40.3555 54.1461 42.0183 55.0452 45.7328C55.7476 48.6359 54.6979 51.892 52.4328 53.8356C51.674 54.4862 50.8772 54.9257 50.0641 55.1427C49.4743 55.2997 48.8099 55.3794 48.0899 55.3794H48.0893Z" fill="#303475"/>
<path d="M53.9282 41.7822C52.0278 41.4901 50.9013 43.1232 51.0147 44.6747C51.0778 45.5405 51.5914 46.3667 52.3522 46.7827C53.1131 47.1988 54.0994 47.18 54.8302 46.713C55.7335 46.1359 56.1484 44.9423 55.9229 43.8933C55.6971 42.8441 55.2607 42.1599 53.9282 41.7822Z" fill="white"/>
<g opacity="0.4">
<path d="M55.2448 47.0477C54.4846 47.9577 53.5571 48.7593 52.4798 49.3886C49.6341 51.0515 46.1946 51.5237 42.9248 51.1134C42.0875 51.0087 41.2348 50.8136 40.407 50.5329H40.4058C37.3486 49.498 34.6467 47.301 34.465 44.1905C34.2405 40.3603 37.2346 36.9715 41.0662 34.8779C45.8716 32.7618 51.7423 33.1508 56.0797 35.8902C58.5359 39.0911 57.9765 43.7742 55.2448 47.0477Z" fill="#DBE7F5"/>
</g>
<path d="M53.5203 66.8359C55.2051 66.8359 55.7853 69.6017 54.3175 70.625C52.7003 71.7524 50.3896 72.4609 47.7741 72.4609C45.1604 72.4609 42.8087 71.7551 41.1741 70.6298C39.6982 69.6137 40.2753 66.8359 41.9643 66.8359H53.5203Z" fill="#303475"/>
<path d="M47.9299 66.8359V69.0814C47.9299 69.4369 47.6419 69.7254 47.287 69.7254H44.3324C43.9775 69.7254 43.6895 69.4369 43.6895 69.0814V66.8359H47.9299Z" fill="white"/>
</svg>
