<svg width="96" height="96" viewBox="0 0 96 96" fill="none" xmlns="http://www.w3.org/2000/svg">
<rect width="96" height="96" fill="#512BD4"/>
<path d="M45.8126 9H48.7922C56.5631 9.32184 64.2451 11.9416 70.4743 16.6254C76.375 21.0102 80.9854 27.1149 83.5444 34.0142C85.0128 37.8564 85.7486 41.9428 86 46.0406V48.5738C85.751 55.3672 83.7959 62.121 80.1468 67.8731C76.0556 74.4271 69.9672 79.7419 62.8657 82.8087C58.2167 84.8246 53.2173 85.9088 48.1509 86H46.8611C39.8018 85.8851 32.7786 83.7983 26.8309 79.9892C20.0958 75.7103 14.7311 69.2904 11.775 61.8719C10.1376 57.8409 9.26529 53.5277 9 49.1916V46.2096C9.30319 37.5532 12.5811 28.9995 18.2701 22.4503C22.937 17.0068 29.1523 12.8981 36.0023 10.7668C39.1816 9.76398 42.4926 9.24664 45.8126 9ZM24.154 31.5724C24.1359 38.8832 24.1473 46.1934 24.1473 53.5018C25.0076 53.5084 25.8678 53.5084 26.7299 53.5084C26.6847 47.2323 26.7906 40.958 26.6661 34.6837C26.9548 35.2293 27.2183 35.7906 27.5474 36.3121C31.2789 42.0318 34.9304 47.8008 38.6624 53.5156C39.708 53.5018 40.7535 53.5018 41.799 53.518C41.7972 46.203 41.7948 38.888 41.8014 31.573C40.9492 31.5647 40.097 31.5623 39.2448 31.5658C39.2899 37.7739 39.1629 43.9821 39.32 50.1836C35.4056 43.9562 31.4389 37.7643 27.4722 31.5682C26.3661 31.5614 25.26 31.5628 24.154 31.5724ZM47.5211 31.5658C47.4435 38.8808 47.5186 46.1958 47.4928 53.5084C51.3843 53.4994 55.2758 53.5228 59.1691 53.4964C59.1551 52.7039 59.1599 51.9112 59.1835 51.119C56.1685 51.1094 53.1517 51.1232 50.1342 51.107C50.0897 48.5744 50.1318 46.0382 50.1102 43.505C52.754 43.4581 55.3979 43.5122 58.0388 43.4767C58.0322 42.7086 58.0322 41.9404 58.0273 41.1716C55.3883 41.2564 52.7498 41.1391 50.1084 41.1788C50.1156 38.7587 50.1204 36.3362 50.1204 33.9131C52.9472 33.9131 55.7739 33.9011 58.5982 33.9203C58.5934 33.1377 58.5982 32.3527 58.6078 31.5706C54.9112 31.561 51.2146 31.5658 47.5211 31.5658ZM61.1176 31.5983C61.12 32.3599 61.12 33.119 61.1224 33.8782C63.2206 33.8542 65.3165 33.9438 67.4147 33.8993C67.4009 40.434 67.4171 46.964 67.4081 53.4946C68.2864 53.5204 69.1707 53.5156 70.049 53.4404C69.9768 49.8359 70.12 46.2289 69.9551 42.6261C69.9954 41.0025 69.913 39.3813 70.0255 37.7595C70.0893 36.4722 69.8589 35.1866 70.0045 33.8993C72.1195 33.9275 74.2364 33.9083 76.3509 33.9083C76.3413 33.1396 76.3564 32.3708 76.3961 31.6031C71.3014 31.5399 66.2074 31.5466 61.1176 31.5983ZM17.1512 50.5644C15.9619 51.1118 15.8843 52.9844 17.0615 53.5884C18.0962 54.2983 19.6513 53.3652 19.6043 52.1386C19.6844 50.9331 18.2268 49.9201 17.1512 50.5644ZM34.7348 59.7617C32.162 61.8485 32.1926 66.4961 35.0356 68.3339C36.6406 69.3536 38.7064 69.1424 40.4028 68.4632C40.41 68.0897 40.419 67.7179 40.4328 67.3443C38.8261 68.1835 36.5768 68.355 35.2143 66.9774C33.4307 65.0301 33.8325 61.4015 36.1846 60.0739C37.5147 59.3736 39.1365 59.5782 40.4473 60.2176C40.4431 59.8206 40.4449 59.4236 40.4473 59.0265C38.5842 58.3654 36.2833 58.4009 34.7348 59.7617ZM45.0859 61.3919C43.949 61.5242 42.8253 62.1258 42.2989 63.1761C41.5451 64.6776 41.6318 66.7055 42.8186 67.9646C44.0428 69.3463 46.3949 69.3602 47.7394 68.1432C49.1982 66.7548 49.363 64.2523 48.1948 62.6305C47.5042 61.6506 46.2259 61.3167 45.0859 61.3919ZM55.8461 63.0299C54.8475 64.7642 55.0448 67.3913 56.8074 68.5709C58.1206 69.3048 59.7749 69.0714 61.0628 68.3857C61.0604 68.0145 61.0652 67.6427 61.0815 67.274C60.0666 67.9176 58.7131 68.3905 57.5852 67.7414C56.7977 67.307 56.5601 66.3837 56.4338 65.5607C58.1633 65.5373 59.8904 65.5114 61.6223 65.5162C61.5772 64.4165 61.5513 63.1737 60.75 62.3231C59.4272 60.8613 56.7532 61.3263 55.8461 63.0299ZM50.7845 61.6247V68.8482C51.1768 68.8482 51.5738 68.8482 51.9714 68.8507C51.9852 67.5302 51.9474 66.2074 51.9853 64.884C51.9949 64.12 52.3023 63.3452 52.878 62.8302C53.3598 62.4663 54.0107 62.6678 54.5629 62.6822C54.5557 62.2996 54.5509 61.9183 54.5491 61.5381C53.4705 61.2986 52.5423 61.9303 51.9973 62.8116C51.9852 62.4308 51.9732 62.05 51.9666 61.6722C51.572 61.6578 51.1768 61.6415 50.7845 61.6247Z" fill="white"/>
<path d="M44.3465 62.6727C45.3403 62.1885 46.7666 62.4261 47.3212 63.4548C47.9529 64.5899 47.939 66.0914 47.2388 67.1911C46.3244 68.5662 43.914 68.2655 43.3148 66.7447C42.7084 65.3864 42.9436 63.4463 44.3465 62.6727ZM56.5474 64.5923C56.5751 63.6455 57.2356 62.7052 58.1872 62.4989C58.7744 62.4002 59.4487 62.5031 59.8554 62.9759C60.2596 63.4054 60.3444 64.007 60.4449 64.564C59.1455 64.5713 57.8468 64.5454 56.5474 64.5923Z" fill="white"/>
</svg>
