<?xml version="1.0" encoding="UTF-8" standalone="no"?>
<svg
   width="96"
   height="96"
   viewBox="0 0 96 96"
   fill="none"
   version="1.1"
   id="svg3"
   sodipodi:docname="authzed-logomark-circle-color.svg"
   inkscape:version="1.3 (0e150ed, 2023-07-21)"
   inkscape:export-filename="authzed-logomark-circle-color.svg"
   inkscape:export-xdpi="96"
   inkscape:export-ydpi="96"
   xmlns:inkscape="http://www.inkscape.org/namespaces/inkscape"
   xmlns:sodipodi="http://sodipodi.sourceforge.net/DTD/sodipodi-0.dtd"
   xmlns="http://www.w3.org/2000/svg"
   xmlns:svg="http://www.w3.org/2000/svg">
  <defs
     id="defs3" />
  <sodipodi:namedview
     id="namedview3"
     pagecolor="#ffffff"
     bordercolor="#000000"
     borderopacity="0.25"
     inkscape:showpageshadow="2"
     inkscape:pageopacity="0.0"
     inkscape:pagecheckerboard="0"
     inkscape:deskcolor="#d1d1d1"
     inkscape:zoom="1.8952618"
     inkscape:cx="200.5"
     inkscape:cy="200.23618"
     inkscape:window-width="1392"
     inkscape:window-height="1212"
     inkscape:window-x="0"
     inkscape:window-y="30"
     inkscape:window-maximized="0"
     inkscape:current-layer="svg3" />
  <rect
     style="fill:#ffffff"
     id="rect3"
     width="100.25"
     height="99.722366"
     x="-2.6381578"
     y="-2.1105263"
     inkscape:label="rect3" />
  <path
     d="m 79.353346,50.709583 c -0.270479,5.066356 -1.790911,10.119439 -4.379481,14.486174 -4.336049,7.316041 -11.600326,13.030252 -20.833935,14.762904 -4.609652,0.827311 -7.962338,0.7225 -11.727511,0.144858 -2.716271,-0.604678 -4.426295,-2.811195 -2.602356,-5.433583 2.234604,-3.214838 5.402114,-5.32721 8.563641,-7.439837 9.221643,-6.162584 19.017018,-11.31346 28.90291,-16.304908 1.105334,-0.557089 2.154498,-1.659571 2.076732,-0.215608 z"
     fill="#a43189"
     id="path1"
     style="stroke-width:0.26008" />
  <path
     d="m 85.911772,38.887924 c 2.322514,-1.837202 4.565702,-4.197423 6.15505,-6.725917 l 0.0025,-0.0018 0.0025,-0.0018 c 1.749031,-2.784411 0.75579,-5.298601 -2.448398,-6.060635 -3.684028,-0.876728 -6.807318,-0.523539 -10.577699,0 -0.91808,0.12744 -1.152407,0.32536 -1.466325,0.523801 -0.636153,0.401562 -0.706375,1.627578 0.209625,1.780245 1.675948,0.104812 7.16649,-0.270223 8.483272,0.314177 3.751918,1.665809 -6.514469,7.211223 -7.863506,8.284835 -0.809363,0.642917 -1.197408,0.565931 -1.652544,-0.446556 C 73.185806,28.616628 67.371722,22.988193 59.246578,19.792438 54.15448,17.790398 48.908154,17.33206 43.488355,18.017057 c -2.920694,0.368975 -5.211996,1.171138 -7.895236,2.216502 -0.885051,0.34471 -2.055671,0.931917 -2.86972,1.399775 -1.908204,1.094441 -3.664521,2.322147 -5.262971,3.689645 -1.392205,1.191165 -0.574515,3.323557 1.249683,3.49469 l 33.588762,3.153465 c 1.491038,0.139924 2.227319,1.880896 1.289994,3.048133 l -18.73326,23.954088 c -0.681408,0.848382 0.188559,2.247344 1.198967,1.843184 7.621373,-3.058796 15.030521,-6.770656 22.366584,-10.459359 6.117598,-3.076225 12.134534,-7.232818 17.490614,-11.469256 z"
     fill="#f0546c"
     id="path2"
     style="stroke-width:0.26008" />
  <path
     fill-rule="evenodd"
     clip-rule="evenodd"
     d="m 51.020534,40.934231 c 1.195846,-1.280893 0.142784,-3.356843 -1.597408,-3.148518 L 18.99714,41.429685 c -0.920291,0.110277 -1.686123,0.773476 -1.871871,1.681414 -1.170098,5.719667 -0.703308,11.479652 1.498214,17.245102 0.824427,2.159954 0.876078,2.222114 -1.349397,2.495724 -0.290196,0.03567 -0.580966,0.0752 -0.872203,0.11469 -1.677877,0.227309 -3.37149,0.456961 -5.059692,-0.02235 -4.0807537,-1.1623 2.19567,-5.027862 2.669561,-6.679625 0.34991,-1.219778 -1.307967,-1.676738 -2.344514,-0.944614 -3.321529,2.345663 -6.4837332,5.082996 -8.4446029,8.702782 -0.4190148,0.837979 -0.3671807,1.886099 -0.209546,2.452556 1.1610729,4.171418 10.1501779,3.41432 13.1117309,2.882462 3.880622,-0.696753 6.682538,-0.949809 10.452912,-2.101706 1.028355,-0.314436 1.04734,-0.41873 2.618222,-2.037465 7.959736,-7.388336 15.243786,-17.462 21.82458,-24.284412 z"
     fill="#ffb471"
     id="path3"
     style="stroke-width:0.26008" />
</svg>
