<svg width="96" height="96" viewBox="0 0 96 96" fill="none" xmlns="http://www.w3.org/2000/svg">
<rect width="96" height="96" fill="white"/>
<path d="M29.9713 75.4507L47.6407 49.8196L42.0717 41.1016L25.7948 60.4186C20.389 66.8362 19.5187 68.4351 15.0049 75.9617L29.9767 75.4507H29.9713Z" fill="url(#paint0_linear_6112_23)"/>
<path d="M73.8374 75.9612L80.9997 75.9341L48.8099 20L64.3528 75.9612H73.8428H73.8374ZM48.8045 20L40.6631 33.4546L42.3 30.7519L48.8045 20.0054V20Z" fill="url(#paint1_linear_6112_23)"/>
<path d="M42.0668 41.101L64.3479 75.9612L48.8052 20L42.3063 30.7463L15 75.9612L42.0668 41.101Z" fill="url(#paint2_linear_6112_23)"/>
<defs>
<linearGradient id="paint0_linear_6112_23" x1="40.9797" y1="42.1769" x2="22.5209" y2="99.2767" gradientUnits="userSpaceOnUse">
<stop stop-color="#A92F33"/>
<stop offset="1" stop-color="#E62129"/>
</linearGradient>
<linearGradient id="paint1_linear_6112_23" x1="51.3496" y1="25.6939" x2="70.3191" y2="70.2716" gradientUnits="userSpaceOnUse">
<stop stop-color="#A92F33"/>
<stop offset="1" stop-color="#E8443F"/>
</linearGradient>
<linearGradient id="paint2_linear_6112_23" x1="29.7024" y1="60.0565" x2="49.6497" y2="35.9089" gradientUnits="userSpaceOnUse">
<stop stop-color="#E62129"/>
<stop offset="1" stop-color="#E8443F"/>
</linearGradient>
</defs>
</svg>
