<svg width="96" height="96" viewBox="0 0 96 96" fill="none" xmlns="http://www.w3.org/2000/svg">
<rect width="96" height="96" fill="white"/>
<path d="M76.8544 28.7925C76.593 28.0494 75.9875 27.3752 75.1482 26.9211L48.8666 14.4545L48.8528 14.4408C48.5639 14.3032 48.1511 14.2344 47.6144 14.2344C47.1191 14.2344 46.9127 14.2344 46.6512 14.2481C46.4448 14.2619 46.2659 14.2757 46.1283 14.3032L20.0119 26.7697L19.9843 26.7835C19.2413 27.1275 18.7322 27.7329 18.5395 28.5448L12.0861 56.5739C11.9485 57.427 12.1411 58.2801 12.6503 59.0094L30.7447 81.163C31.4189 81.796 32.3683 82.2225 33.2627 82.2913H62.3101L62.4202 82.3051C63.2183 82.3876 63.9751 82.0437 64.5117 81.3281L64.5392 81.2868L82.7437 58.9956C83.2391 58.2801 83.473 57.3995 83.3767 56.4913C83.3767 56.5189 76.8544 28.7925 76.8544 28.7925Z" stroke="url(#paint0_linear_6120_2717)" stroke-width="4.128"/>
<path d="M65.2687 86.4594C68.2325 86.4594 70.6351 84.0567 70.6351 81.093C70.6351 78.1292 68.2325 75.7266 65.2687 75.7266C62.305 75.7266 59.9023 78.1292 59.9023 81.093C59.9023 84.0567 62.305 86.4594 65.2687 86.4594Z" fill="#326DE6"/>
<path d="M31.9699 86.4594C34.9337 86.4594 37.3363 84.0567 37.3363 81.093C37.3363 78.1292 34.9337 75.7266 31.9699 75.7266C29.0061 75.7266 26.6035 78.1292 26.6035 81.093C26.6035 84.0567 29.0061 86.4594 31.9699 86.4594Z" fill="#326DE6"/>
<path d="M47.2434 20.4125C50.2071 20.4125 52.6098 18.0099 52.6098 15.0461C52.6098 12.0823 50.2071 9.67969 47.2434 9.67969C44.2796 9.67969 41.877 12.0823 41.877 15.0461C41.877 18.0099 44.2796 20.4125 47.2434 20.4125Z" fill="#326DE6"/>
<path d="M76.2766 33.0707C79.2403 33.0707 81.643 30.6681 81.643 27.7043C81.643 24.7405 79.2403 22.3379 76.2766 22.3379C73.3128 22.3379 70.9102 24.7405 70.9102 27.7043C70.9102 30.6681 73.3128 33.0707 76.2766 33.0707Z" fill="#326DE6"/>
<path d="M18.76 33.0707C21.7237 33.0707 24.1264 30.6681 24.1264 27.7043C24.1264 24.7405 21.7237 22.3379 18.76 22.3379C15.7962 22.3379 13.3936 24.7405 13.3936 27.7043C13.3936 30.6681 15.7962 33.0707 18.76 33.0707Z" fill="#326DE6"/>
<path d="M83.0197 63.2055C85.9835 63.2055 88.3861 60.8028 88.3861 57.8391C88.3861 54.8753 85.9835 52.4727 83.0197 52.4727C80.0559 52.4727 77.6533 54.8753 77.6533 57.8391C77.6533 60.8028 80.0559 63.2055 83.0197 63.2055Z" fill="#326DE6"/>
<path d="M13.1184 63.2055C16.0821 63.2055 18.4848 60.8028 18.4848 57.8391C18.4848 54.8753 16.0821 52.4727 13.1184 52.4727C10.1546 52.4727 7.75195 54.8753 7.75195 57.8391C7.75195 60.8028 10.1546 63.2055 13.1184 63.2055Z" fill="#326DE6"/>
<path d="M31.9416 55.4994L28.7768 49.844L27.8274 50.821V55.4994H25.3506V43.1291H27.8274V47.1195L31.4463 43.1291H34.7899L30.4555 47.9726L34.8863 55.4994H31.9416ZM45.6879 43.1291V45.6059H37.4319V43.1291H45.6879ZM37.4319 50.3669V47.8901H44.2706V50.3669H37.4319ZM37.4319 55.5131V53.0363H45.6328V55.5131H37.4319ZM48.2197 43.1291H51.7147C53.3522 43.1154 54.9208 43.7621 56.0767 44.9317C56.6546 45.4958 57.0949 46.1701 57.3976 46.9131C58.0581 48.4542 58.0581 50.2018 57.3976 51.7291C57.0949 52.4722 56.6546 53.1326 56.0767 53.683C54.9208 54.8389 53.3522 55.4994 51.7147 55.4994H49.2242H48.2197V43.1291ZM50.6965 53.0363H51.7285C53.7787 53.0088 55.4299 51.3163 55.4024 49.2661C55.3749 47.2571 53.7512 45.6197 51.7285 45.5922H50.6965V53.0363ZM64.8143 43.1291H65.5435L71.3915 55.5131H68.6533L65.117 47.9864L61.2779 55.5131H58.4984L64.8143 43.1291Z" fill="#326DE6"/>
<path d="M66.4663 54.9898L67.1405 53.7927H64.5536L65.3242 48.4263L65.2829 48.3438L61.1824 55.7742L61.0586 55.9943L63.6868 55.9668L62.9988 61.2644L63.0125 61.3332L66.1911 55.5127L66.4663 54.9898Z" fill="white" stroke="#326DE6" stroke-width="0.1376" stroke-miterlimit="10"/>
<path d="M66.191 55.5132L67.1405 53.7932H64.5536L65.3654 48.2204L61.3338 55.5132H60.4531L65.1315 46.748L69.7962 55.5132H66.191Z" fill="#326DE6"/>
<defs>
<linearGradient id="paint0_linear_6120_2717" x1="47.7204" y1="14.2336" x2="47.7204" y2="82.3281" gradientUnits="userSpaceOnUse">
<stop stop-color="#719BEA"/>
<stop offset="1" stop-color="#5478E0"/>
</linearGradient>
</defs>
</svg>
