<svg width="96" height="96" viewBox="0 0 96 96" fill="none" xmlns="http://www.w3.org/2000/svg">
<g clip-path="url(#clip0_6115_904)">
<rect width="96" height="96" fill="white"/>
<g filter="url(#filter0_f_6115_904)">
<path d="M66.6689 87.5718L50.7738 87.4784L42.9072 73.6661L50.9357 59.9473L66.8308 60.0407L74.6974 73.853L66.6689 87.5718Z" fill="white"/>
<path d="M43.707 74.2534L27.8119 74.16L19.9453 60.3477L27.9738 46.6289L43.8689 46.7223L51.7355 60.5346L43.707 74.2534Z" fill="white"/>
<path d="M66.8095 60.9995L50.9144 60.9061L43.0479 47.0938L51.0763 33.375L66.9714 33.4685L74.838 47.2807L66.8095 60.9995Z" fill="white"/>
<path d="M66.7988 34.5699L50.9037 34.4764L43.0371 20.6641L51.0656 6.94531L66.9607 7.03876L74.8273 20.851L66.7988 34.5699Z" fill="white"/>
<path d="M43.8281 47.8433L27.933 47.7499L20.0664 33.9376L28.0949 20.2188L43.99 20.3122L51.8566 34.1245L43.8281 47.8433Z" fill="white"/>
</g>
<path d="M65.8495 59.2347L51.9634 59.1916L45.0577 47.1443L52.0381 35.1402L65.9241 35.1833L72.8298 47.2305L65.8495 59.2347Z" fill="#C12766"/>
<path d="M42.7459 72.4886L28.8599 72.4455L21.9542 60.3982L28.9345 48.3941L42.8206 48.4372L49.7263 60.4844L42.7459 72.4886Z" fill="#3E489F"/>
<path d="M65.7059 85.8089L51.8198 85.7658L44.9141 73.7185L51.8945 61.7144L65.7806 61.7575L72.6863 73.8048L65.7059 85.8089Z" fill="#714099"/>
<path d="M42.868 46.0784L28.9819 46.0353L22.0762 33.9881L29.0566 21.9839L42.9427 22.027L49.8484 34.0743L42.868 46.0784Z" fill="#78932C"/>
<path d="M65.8387 32.805L51.9526 32.7619L45.0469 20.7146L52.0273 8.7105L65.9134 8.75361L72.8191 20.8009L65.8387 32.805Z" fill="#CF242A"/>
<path d="M58.8026 76.8064C60.4847 76.8064 61.8484 75.4427 61.8484 73.7606C61.8484 72.0785 60.4847 70.7148 58.8026 70.7148C57.1205 70.7148 55.7568 72.0785 55.7568 73.7606C55.7568 75.4427 57.1205 76.8064 58.8026 76.8064Z" fill="white"/>
<path d="M61.0558 19.3594L33.9033 34.9157" stroke="white" stroke-width="0.996797"/>
<path d="M35.8691 31.7051L35.9607 62.998" stroke="white" stroke-width="0.996797"/>
<path d="M33.9873 59.334L60.8915 75.3158" stroke="white" stroke-width="0.996797"/>
<path d="M58.8525 18.2598L58.9441 49.5527" stroke="white" stroke-width="0.996797"/>
<path d="M58.9805 44.8301L59.072 76.123" stroke="white" stroke-width="0.996887"/>
<path d="M61.0899 46L33.9375 61.5563" stroke="white" stroke-width="0.996797"/>
<path d="M34.0615 32.9316L60.9658 48.9134" stroke="white" stroke-width="0.996797"/>
<path d="M35.5262 63.3845C37.2084 63.3845 38.572 62.0209 38.572 60.3387C38.572 58.6566 37.2084 57.293 35.5262 57.293C33.8441 57.293 32.4805 58.6566 32.4805 60.3387C32.4805 62.0209 33.8441 63.3845 35.5262 63.3845Z" fill="white"/>
<path d="M59.4452 50.5271C61.1273 50.5271 62.491 49.1634 62.491 47.4813C62.491 45.7992 61.1273 44.4355 59.4452 44.4355C57.7631 44.4355 56.3994 45.7992 56.3994 47.4813C56.3994 49.1634 57.7631 50.5271 59.4452 50.5271Z" fill="white"/>
<path d="M35.9618 37.0779C37.6439 37.0779 39.0076 35.7142 39.0076 34.0321C39.0076 32.35 37.6439 30.9863 35.9618 30.9863C34.2797 30.9863 32.916 32.35 32.916 34.0321C32.916 35.7142 34.2797 37.0779 35.9618 37.0779Z" fill="white"/>
<path d="M58.9335 23.8025C60.6156 23.8025 61.9792 22.4388 61.9792 20.7567C61.9792 19.0746 60.6156 17.7109 58.9335 17.7109C57.2513 17.7109 55.8877 19.0746 55.8877 20.7567C55.8877 22.4388 57.2513 23.8025 58.9335 23.8025Z" fill="white"/>
</g>
<defs>
<filter id="filter0_f_6115_904" x="19.184" y="6.18404" width="56.4151" height="82.1495" filterUnits="userSpaceOnUse" color-interpolation-filters="sRGB">
<feFlood flood-opacity="0" result="BackgroundImageFix"/>
<feBlend mode="normal" in="SourceGraphic" in2="BackgroundImageFix" result="shape"/>
<feGaussianBlur stdDeviation="0.380636" result="effect1_foregroundBlur_6115_904"/>
</filter>
<clipPath id="clip0_6115_904">
<rect width="96" height="96" fill="white"/>
</clipPath>
</defs>
</svg>
