<svg width="96" height="96" viewBox="0 0 96 96" fill="none" xmlns="http://www.w3.org/2000/svg">
<g clip-path="url(#clip0_6114_405)">
<rect width="96" height="96" fill="white"/>
<g clip-path="url(#clip1_6114_405)">
<path d="M96 0H0V96H96V0Z" fill="#FAFF69"/>
<mask id="mask0_6114_405" style="mask-type:luminance" maskUnits="userSpaceOnUse" x="12" y="11" width="75" height="74">
<path d="M86.6149 11.1777H12.9707V84.8219H86.6149V11.1777Z" fill="white"/>
</mask>
<g mask="url(#mask0_6114_405)">
<path d="M18.7227 17.6559C18.7227 17.2554 19.0484 16.9297 19.4489 16.9297H24.9003C25.3008 16.9297 25.6266 17.2554 25.6266 17.6559V78.3385C25.6266 78.739 25.3008 79.0648 24.9003 79.0648H19.4489C19.0484 79.0648 18.7227 78.739 18.7227 78.3385V17.6559Z" fill="#1E1E1E"/>
<path d="M32.5322 17.6559C32.5322 17.2554 32.8579 16.9297 33.2585 16.9297H38.7099C39.1104 16.9297 39.4361 17.2554 39.4361 17.6559V78.3385C39.4361 78.739 39.1104 79.0648 38.7099 79.0648H33.2585C32.8579 79.0648 32.5322 78.739 32.5322 78.3385V17.6559Z" fill="#1E1E1E"/>
<path d="M46.3398 17.6559C46.3398 17.2554 46.6656 16.9297 47.0661 16.9297H52.5175C52.918 16.9297 53.2437 17.2554 53.2437 17.6559V78.3385C53.2437 78.739 52.918 79.0648 52.5175 79.0648H47.0661C46.6656 79.0648 46.3398 78.739 46.3398 78.3385V17.6559Z" fill="#1E1E1E"/>
<path d="M60.1465 17.6559C60.1465 17.2554 60.4722 16.9297 60.8727 16.9297H66.3241C66.7247 16.9297 67.0504 17.2554 67.0504 17.6559V78.3385C67.0504 78.739 66.7247 79.0648 66.3241 79.0648H60.8727C60.4722 79.0648 60.1465 78.739 60.1465 78.3385V17.6559Z" fill="#1E1E1E"/>
<path d="M73.957 41.8219C73.957 41.4214 74.2827 41.0957 74.6833 41.0957H80.1347C80.5352 41.0957 80.8594 41.4214 80.8594 41.8219V54.1773C80.8594 54.5778 80.5337 54.9035 80.1347 54.9035H74.6833C74.2827 54.9035 73.957 54.5778 73.957 54.1773V41.8219Z" fill="#1E1E1E"/>
</g>
</g>
</g>
<defs>
<clipPath id="clip0_6114_405">
<rect width="96" height="96" fill="white"/>
</clipPath>
<clipPath id="clip1_6114_405">
<rect width="96" height="96" fill="white"/>
</clipPath>
</defs>
</svg>
