<svg width="96" height="96" viewBox="0 0 96 96" fill="none" xmlns="http://www.w3.org/2000/svg">
<rect width="96" height="96" fill="white"/>
<g clip-path="url(#clip0_6105_272)">
<path fill-rule="evenodd" clip-rule="evenodd" d="M84.2881 48.1906C84.2121 48.027 84.1779 47.9447 84.1369 47.8662C83.0372 45.7605 81.9403 43.6547 80.8292 41.549C80.7178 41.3379 80.732 41.2132 80.8844 41.0311C82.6343 38.9738 84.3616 36.905 86.1144 34.8562C86.1763 34.7839 86.2314 34.7074 86.2546 34.5785C85.7458 34.7119 85.2369 34.844 84.7252 34.9797C82.6134 35.5431 80.4846 36.1037 78.3926 36.6757C78.1961 36.7289 78.1071 36.6711 78.0081 36.5066C76.8094 34.4891 75.6023 32.4659 74.3895 30.474C74.3276 30.3696 74.26 30.2683 74.1277 30.1809C74.0304 30.7187 73.9321 31.2537 73.8365 31.7915C73.5001 33.6895 73.1637 35.5761 72.8301 37.4827C72.7936 37.6873 72.7439 37.8924 72.7263 38.0973C72.7096 38.2931 72.6093 38.3654 72.4323 38.4217C69.9417 39.2099 67.4567 40.0039 64.9689 40.7978C64.8598 40.8322 64.7526 40.8777 64.6353 40.9844C66.6708 41.7983 68.7063 42.6121 70.77 43.4402C70.6948 43.5002 70.6451 43.5469 70.5899 43.5825C69.3177 44.4105 68.0427 45.2386 66.7734 46.0695C66.621 46.1697 66.5006 46.1839 66.3296 46.1062C64.8086 45.4176 63.2763 44.7403 61.7497 44.0574C61.0656 43.7501 60.4521 43.3431 59.9743 42.7513C58.8916 41.4195 59.1064 39.9057 60.5482 38.9666C61.0203 38.6622 61.5575 38.4374 62.0918 38.2609C64.5315 37.4613 66.9826 36.6902 69.4139 35.9162C69.6191 35.8504 69.7135 35.7582 69.7531 35.5349C70.0811 33.634 70.4175 31.7218 70.7595 29.8437C70.9416 28.8278 71.0377 27.7892 71.5285 26.8558C71.7165 26.4973 71.9413 26.1473 72.2126 25.8485C73.1852 24.7615 74.5393 24.7217 75.5768 25.7552C75.9246 26.1052 76.2214 26.5149 76.4787 26.9389C77.6095 28.7971 78.7234 30.6666 79.8429 32.5447C79.9743 32.7658 80.0925 32.8102 80.3348 32.7459C83.0629 32.0089 85.791 31.2833 88.5332 30.5577C89.0986 30.4077 89.6669 30.3533 90.2464 30.4623C91.5045 30.6991 92.0557 31.6632 91.6289 32.8896C91.4358 33.4473 91.1002 33.9169 90.7242 34.3636C88.8188 36.6202 86.9077 38.8881 85.0135 41.1361C84.8578 41.3205 84.8547 41.452 84.9627 41.6597C86.1048 43.8252 87.2356 45.985 88.3834 48.1761C88.6551 48.694 88.864 49.2346 88.8696 49.8294C88.8829 51.1839 87.8971 52.2936 86.5599 52.4928C85.8108 52.603 85.1153 52.4419 84.4114 52.2239C82.701 51.6918 80.9906 51.1682 79.2661 50.6475C79.107 50.5997 79.0462 50.5362 79.0176 50.364C78.8209 49.149 78.6049 47.9368 78.3957 46.7217C78.3903 46.6884 78.4002 46.6528 78.4059 46.5783C80.3594 47.1218 82.3072 47.6568 84.3144 48.2173" fill="#E25A1C"/>
<path fill-rule="evenodd" clip-rule="evenodd" d="M80.896 65.9754C79.3525 65.9731 77.8145 65.9654 76.2597 65.9723C76.0553 65.9723 75.9402 65.9134 75.8271 65.7386C74.0009 62.9386 72.152 60.1328 70.3426 57.3442C70.2841 57.2554 70.2222 57.1697 70.1185 57.0198C69.7255 60.0361 69.3382 62.9955 68.9509 65.9549H64.9082C64.9557 65.5594 64.9978 65.1752 65.0476 64.7939C65.4405 61.7491 65.8391 58.7328 66.2349 55.688C66.6138 52.7856 66.9898 49.8831 67.3742 46.9806C67.3853 46.8949 67.4427 46.7848 67.5122 46.7393C68.9031 45.8258 70.2997 44.9209 71.6962 44.016C71.7163 44.0027 71.7449 44.0015 71.8167 43.9805C71.3954 47.2244 70.977 50.4399 70.5558 53.6554C70.5725 53.6665 70.5889 53.6788 70.6056 53.6899C72.7965 51.2484 74.9875 48.7955 77.2209 46.3198C77.285 46.6954 77.3413 47.017 77.3964 47.3385C77.5533 48.2577 77.7046 49.1825 77.8714 50.1016C77.9056 50.2871 77.8558 50.4004 77.7334 50.5313C76.3171 52.0224 74.9064 53.5191 73.4928 55.0273C73.4309 55.093 73.3724 55.1608 73.3017 55.2387C73.347 55.3107 73.3857 55.381 73.4309 55.4453C75.865 58.8885 78.2935 62.3316 80.7247 65.7748C80.7688 65.8371 80.8327 65.886 80.887 65.9415V65.9959" fill="#3C3A3E"/>
<path fill-rule="evenodd" clip-rule="evenodd" d="M33.1188 56.8696C33.0569 56.5538 33.0128 56.0871 32.8726 55.6517C32.1941 53.5488 30.054 52.4078 27.8404 52.9171C25.4063 53.4862 23.6564 55.4127 23.4302 57.9253C23.2436 59.775 24.2331 61.5677 26.0707 62.2222C27.552 62.76 28.9825 62.5352 30.3112 61.7356C32.0668 60.677 33.0167 59.1034 33.1383 56.8696H33.1188ZM22.4325 64.695C22.3132 65.5999 22.1985 66.4507 22.0876 67.3044C21.9398 68.4369 21.7908 69.5723 21.6494 70.7191C21.633 70.8514 21.5932 70.9103 21.4518 70.9092C20.3408 70.9049 19.2298 70.906 18.1159 70.9037C18.0905 70.9037 18.065 70.8904 18.0054 70.8727C18.0727 70.3378 18.138 69.7999 18.2075 69.265C18.4526 67.3869 18.6966 65.5088 18.9454 63.6307C19.2309 61.4795 19.4542 59.3339 19.8189 57.1997C20.4635 53.4151 23.6637 50.1711 27.3954 49.3459C29.5638 48.8735 31.636 49.0924 33.5301 50.3219C35.4186 51.5455 36.4985 53.3383 36.753 55.5578C37.1035 58.7164 35.9473 61.3343 33.728 63.5254C32.2636 64.9511 30.5052 65.856 28.498 66.1633C26.4144 66.4792 24.4553 66.13 22.7025 64.8942C22.6383 64.8486 22.5688 64.8088 22.4585 64.7388" fill="#3C3A3E"/>
<path fill-rule="evenodd" clip-rule="evenodd" d="M20.5665 46.7672C19.3226 47.7006 18.1211 48.5998 16.9196 49.5018C16.7254 49.1945 16.5521 48.8872 16.3486 48.5998C15.8256 47.8628 15.1753 47.3136 14.2311 47.2481C13.4452 47.1924 12.7723 47.4525 12.238 48.0364C11.7603 48.5571 11.6981 49.2998 12.1442 49.8888C12.6361 50.5376 13.1732 51.1523 13.7245 51.7527C14.6376 52.7487 15.5904 53.7048 16.495 54.7121C17.3177 55.6227 17.9764 56.6414 18.1799 57.8992C18.4219 59.3789 18.1282 60.7732 17.4336 62.0822C16.1473 64.4867 14.1259 65.8952 11.4402 66.3221C10.2585 66.5142 9.08248 66.4766 7.93469 66.1351C6.40526 65.6827 5.33946 64.6725 4.65531 63.2611C4.4136 62.7574 4.22843 62.2253 4.01074 61.6846C5.34794 60.9647 6.65121 60.2618 7.96862 59.5533C8.01385 59.6634 8.04693 59.7556 8.08905 59.8435C8.31436 60.296 8.49897 60.7769 8.77602 61.1952C9.60435 62.433 10.9387 62.8086 12.2816 62.1968C12.6293 62.0389 12.9657 61.8184 13.2512 61.5623C14.122 60.7826 14.2859 59.6956 13.6414 58.7167C13.271 58.1533 12.8074 57.6468 12.3551 57.1431C11.2751 55.9366 10.15 54.767 9.10396 53.5292C8.37741 52.6812 7.88267 51.6966 7.72436 50.5698C7.55332 49.3291 7.79956 48.1624 8.4396 47.1266C10.0312 44.5343 12.3409 43.1997 15.3942 43.2851C17.1384 43.3486 18.5322 44.1701 19.6065 45.536C19.9259 45.94 20.2256 46.3583 20.5507 46.7966" fill="#3C3A3E"/>
<path fill-rule="evenodd" clip-rule="evenodd" d="M50.0807 60.5697C49.8775 62.1319 49.6849 63.6145 49.487 65.0942C49.476 65.1699 49.4175 65.272 49.3545 65.301C46.3295 66.7068 42.3716 66.5104 39.9121 63.6819C38.5834 62.1624 38.0265 60.3526 38.1084 58.3607C38.3015 53.7224 42.1229 49.6532 46.7027 49.0841C49.3742 48.754 51.7066 49.4796 53.5159 51.5711C54.7485 52.9939 55.3195 54.7012 55.2347 56.5793C55.1796 57.82 54.9862 59.0521 54.8333 60.2786C54.6156 62.0258 54.3781 63.7787 54.1491 65.5145C54.1404 65.5754 54.1282 65.6377 54.1138 65.7168H50.5234C50.5709 65.3156 50.615 64.9229 50.6659 64.5302C50.9266 62.5127 51.2144 60.4894 51.4434 58.4691C51.5859 57.2113 51.4962 55.9621 50.9232 54.7983C50.3154 53.5605 49.2976 52.9031 47.9548 52.7608C45.1786 52.4649 42.5268 54.4056 41.9614 57.143C41.5713 58.9585 42.1867 60.7 43.6237 61.6675C45.0231 62.6037 46.5073 62.6066 48.0339 62.0004C48.8086 61.6931 49.4644 61.2037 50.092 60.5464" fill="#3C3A3E"/>
<path fill-rule="evenodd" clip-rule="evenodd" d="M65.3469 49.5568C65.1823 50.8146 65.0189 52.0524 64.8549 53.313C64.0916 53.313 63.3453 53.3087 62.599 53.3141C61.994 53.3187 61.4427 53.7125 61.2589 54.2816C61.1883 54.5039 61.162 54.7426 61.1309 54.976C60.752 57.8785 60.3761 60.7525 60.0001 63.6265C59.9051 64.355 59.8135 65.0835 59.7185 65.8233H55.9585C56.028 65.2684 56.0942 64.7306 56.1637 64.1928C56.4077 62.3204 56.6528 60.4366 56.8988 58.587C57.1119 56.9679 57.303 55.343 57.5546 53.7211C57.8911 51.5584 60.0283 49.6234 62.191 49.5381C63.2257 49.4925 64.2632 49.5304 65.329 49.5304" fill="#3C3A3E"/>
<path d="M85.4189 65.9758V64.3823H85.4102L84.7882 65.9758H84.5906L83.9687 64.3823H83.9588V65.9758H83.6478V64.0664H84.1312L84.6966 65.5177L85.2536 64.0664H85.7342V65.9758H85.4189ZM82.6654 64.3225V65.9758H82.3544V64.3225H81.7607V64.0667H83.2619V64.3225H82.6682" fill="#3C3A3E"/>
<path d="M25.5703 44.094H26.5004L26.2805 42.6769L25.5703 44.094ZM26.6474 45.0103H25.101L24.6091 45.9807H23.5122L25.9293 41.4277H26.9867L27.8093 45.9807H26.7944L26.6485 45.0103" fill="#3C3A3E"/>
<path d="M32.1856 42.3565H31.6343L31.4489 43.4065H32.0001C32.3337 43.4065 32.5966 43.1865 32.5966 42.7719C32.5966 42.4973 32.431 42.3565 32.1839 42.3565H32.1856ZM30.8512 41.4402H32.2987C33.0563 41.4402 33.585 41.8955 33.585 42.6752C33.585 43.6597 32.8952 44.3199 31.9114 44.3199H31.2866L30.9926 45.9846H30.0483L30.8456 41.4316" fill="#3C3A3E"/>
<path d="M36.7938 44.094H37.7239L37.5043 42.6769L36.7938 44.094ZM37.8681 45.0103H36.3217L35.8298 45.9807H34.7329L37.15 41.4277H38.2074L39.03 45.9807H38.0151L37.8692 45.0103" fill="#3C3A3E"/>
<path d="M43.8615 45.829C43.542 45.9758 43.1915 46.0635 42.8381 46.0635C41.6422 46.0635 40.8931 45.1614 40.8931 44.0317C40.8931 42.5862 42.1002 41.3711 43.5364 41.3711C43.8954 41.3711 44.2205 41.4579 44.4863 41.6044L44.3537 42.6943C44.1549 42.4732 43.8335 42.3187 43.4377 42.3187C42.615 42.3187 41.8828 43.0671 41.8828 43.935C41.8828 44.5951 42.2956 45.113 42.9458 45.113C43.3444 45.113 43.7289 44.9585 43.989 44.746L43.8632 45.8273" fill="#3C3A3E"/>
<path d="M49.7984 44.151H47.8336L47.5142 45.9807H46.5728L47.37 41.4277H48.3142L47.9976 43.2261H49.9624L50.2819 41.4277H51.2261L50.4289 45.9807H49.4846L49.8012 44.151" fill="#3C3A3E"/>
<path d="M53.1909 45.9709L53.9881 41.418H56.4929L56.3338 42.3342H54.7732L54.6141 43.2164H56.0474L55.8882 44.1327H54.4549L54.2957 45.0489H55.8563L55.6971 45.9652H53.1923" fill="#3C3A3E"/>
</g>
<defs>
<clipPath id="clip0_6105_272">
<rect width="88" height="46" fill="white" transform="translate(4 25)"/>
</clipPath>
</defs>
</svg>
