<svg width="96" height="96" viewBox="0 0 96 96" fill="none" xmlns="http://www.w3.org/2000/svg">
<rect width="96" height="96" fill="white"/>
<mask id="mask0_6114_777" style="mask-type:luminance" maskUnits="userSpaceOnUse" x="48" y="12" width="33" height="73">
<path d="M79.9573 29.747L48.8965 12V84.74L61.3054 77.5391V57.0726L70.6771 62.4973L70.6241 48.4951L61.3054 43.1715V35.0417L80.0006 45.843L79.9573 29.747Z" fill="white"/>
</mask>
<g mask="url(#mask0_6114_777)">
<path d="M88.4526 11.7363H12.1748V84.8325H88.4526V11.7363Z" fill="url(#paint0_linear_6114_777)"/>
</g>
<mask id="mask1_6114_777" style="mask-type:luminance" maskUnits="userSpaceOnUse" x="15" y="12" width="32" height="73">
<path d="M15.0433 29.747L46.1041 12V84.74L33.6952 77.5391V35.0417L15 45.843L15.0433 29.747Z" fill="white"/>
</mask>
<g mask="url(#mask1_6114_777)">
<path d="M87.937 11.7363H11.6592V84.8325H87.937V11.7363Z" fill="url(#paint1_linear_6114_777)"/>
</g>
<defs>
<linearGradient id="paint0_linear_6114_777" x1="12.1748" y1="48.2844" x2="88.4526" y2="48.2844" gradientUnits="userSpaceOnUse">
<stop stop-color="#FF6F00"/>
<stop offset="1" stop-color="#FFA800"/>
</linearGradient>
<linearGradient id="paint1_linear_6114_777" x1="11.6592" y1="48.2844" x2="87.937" y2="48.2844" gradientUnits="userSpaceOnUse">
<stop stop-color="#FF6F00"/>
<stop offset="1" stop-color="#FFA800"/>
</linearGradient>
</defs>
</svg>
