<svg width="96" height="96" viewBox="0 0 96 96" fill="none" xmlns="http://www.w3.org/2000/svg">
<rect width="96" height="96" fill="white"/>
<g clip-path="url(#clip0_6115_1015)">
<path d="M78.692 26.208C77.0893 26.208 75.7924 24.9089 75.7924 23.3084C75.7924 21.7056 77.0893 20.4088 78.692 20.4088C80.2926 20.4088 81.5917 21.7056 81.5917 23.3084C81.5917 24.9089 80.2926 26.208 78.692 26.208ZM49.8943 75.7507C48.2915 75.7507 46.9947 74.4516 46.9947 72.8511C46.9947 71.2483 48.2915 69.9514 49.8943 69.9514C51.4948 69.9514 52.7917 71.2483 52.7917 72.8511C52.7917 74.4516 51.4948 75.7507 49.8943 75.7507ZM78.692 18C75.7604 18 73.3837 20.3768 73.3837 23.3084C73.3837 23.934 73.5412 24.5162 73.7398 25.0733L48.8372 67.755C46.4307 68.2596 44.5859 70.2939 44.5859 72.8511C44.5859 75.7827 46.9627 78.1594 49.8943 78.1594C52.8236 78.1594 55.2004 75.7827 55.2004 72.8511C55.2004 72.262 55.0429 71.7232 54.8671 71.1935L79.8953 28.3725C82.2287 27.8131 84.0004 25.813 84.0004 23.3084C84.0004 20.3768 81.6236 18 78.692 18Z" fill="#0C544C"/>
<path d="M56.9717 26.208C55.3689 26.208 54.072 24.9089 54.072 23.3084C54.072 21.7056 55.3689 20.4088 56.9717 20.4088C58.5722 20.4088 59.869 21.7056 59.869 23.3084C59.869 24.9089 58.5722 26.208 56.9717 26.208ZM28.1717 75.7507C26.5712 75.7507 25.272 74.4516 25.272 72.8511C25.272 71.2483 26.5712 69.9514 28.1717 69.9514C29.7745 69.9514 31.0713 71.2483 31.0713 72.8511C31.0713 74.4516 29.7745 75.7507 28.1717 75.7507ZM56.9717 18C54.0378 18 51.6633 20.3768 51.6633 23.3084C51.6633 23.934 51.8208 24.5162 52.0195 25.0733L27.1168 67.755C24.7081 68.2596 22.8633 70.2939 22.8633 72.8511C22.8633 75.7827 25.2401 78.1594 28.1717 78.1594C31.1033 78.1594 33.4801 75.7827 33.4801 72.8511C33.4801 72.262 33.3225 71.7232 33.1467 71.1935L58.1749 28.3725C60.5083 27.8131 62.2801 25.813 62.2801 23.3084C62.2801 20.3768 59.901 18 56.9717 18Z" fill="#073551"/>
<path d="M17.3084 35.0826C18.9089 35.0826 20.208 36.3817 20.208 37.9822C20.208 39.5827 18.9089 40.8818 17.3084 40.8818C15.7056 40.8818 14.4088 39.5827 14.4088 37.9822C14.4088 36.3817 15.7056 35.0826 17.3084 35.0826ZM17.3084 43.2906C20.24 43.2906 22.6168 40.9138 22.6168 37.9822C22.6168 37.3954 22.457 36.8543 22.2811 36.3246C21.5779 34.2173 19.6509 32.6738 17.3084 32.6738C16.9339 32.6738 16.6052 32.8131 16.2513 32.8884C13.8448 33.3907 12 35.4251 12 37.9822C12 40.9138 14.3768 43.2906 17.3084 43.2906Z" fill="#073551"/>
<path d="M14.4088 56.531C14.4088 54.9282 15.7079 53.6314 17.3084 53.6314C18.9089 53.6314 20.208 54.9282 20.208 56.531C20.208 58.1315 18.9089 59.4284 17.3084 59.4284C15.7079 59.4284 14.4088 58.1315 14.4088 56.531ZM22.6168 56.531C22.6168 55.942 22.457 55.4032 22.2811 54.8735C21.5779 52.7661 19.6532 51.2227 17.3084 51.2227C16.9339 51.2227 16.6052 51.3619 16.2513 51.435C13.8448 51.9396 12 53.9739 12 56.531C12 59.4604 14.3768 61.8394 17.3084 61.8394C20.24 61.8394 22.6168 59.4604 22.6168 56.531Z" fill="#073551"/>
</g>
<defs>
<clipPath id="clip0_6115_1015">
<rect width="72" height="60.1594" fill="white" transform="translate(12 18)"/>
</clipPath>
</defs>
</svg>
