<svg width="96" height="96" viewBox="0 0 96 96" fill="none" xmlns="http://www.w3.org/2000/svg">
<rect width="96" height="96" fill="white"/>
<path fill-rule="evenodd" clip-rule="evenodd" d="M31.0768 26.4591C31.05 26.4859 31.028 26.5665 31.028 26.6382C31.028 26.7296 30.9753 26.7683 30.8505 26.7683C30.7085 26.7683 30.673 26.8038 30.673 26.9458C30.673 27.0878 30.6375 27.1233 30.4955 27.1233C30.3535 27.1233 30.318 27.1588 30.318 27.3008C30.318 27.4428 30.2825 27.4783 30.1405 27.4783C29.9985 27.4783 29.963 27.5138 29.963 27.6558C29.963 27.7978 29.9275 27.8333 29.7855 27.8333C29.6435 27.8333 29.608 27.8688 29.608 28.0108C29.608 28.1528 29.5725 28.1883 29.4305 28.1883C29.2885 28.1883 29.253 28.2238 29.253 28.3658C29.253 28.5078 29.2175 28.5433 29.0755 28.5433C28.9335 28.5433 28.898 28.5788 28.898 28.7208C28.898 28.8628 28.8625 28.8983 28.7205 28.8983C28.5785 28.8983 28.543 28.9338 28.543 29.0758C28.543 29.2178 28.5075 29.2533 28.3655 29.2533C28.2235 29.2533 28.188 29.2888 28.188 29.4308C28.188 29.5728 28.1525 29.6083 28.0105 29.6083C27.8685 29.6083 27.833 29.6438 27.833 29.7858C27.833 29.9278 27.7975 29.9633 27.6555 29.9633C27.5135 29.9633 27.478 29.9988 27.478 30.1408C27.478 30.2828 27.4425 30.3183 27.3005 30.3183C27.1585 30.3183 27.123 30.3538 27.123 30.4958C27.123 30.6378 27.0875 30.6733 26.9455 30.6733C26.8035 30.6733 26.768 30.7088 26.768 30.8508C26.768 30.9928 26.7325 31.0283 26.5905 31.0283C26.4485 31.0283 26.413 31.0638 26.413 31.2058C26.413 31.3478 26.3775 31.3833 26.2355 31.3833C26.0935 31.3833 26.058 31.4188 26.058 31.5608C26.058 31.7028 26.0225 31.7383 25.8805 31.7383C25.7385 31.7383 25.703 31.7738 25.703 31.9158C25.703 32.0578 25.6675 32.0933 25.5255 32.0933C25.3835 32.0933 25.348 32.1288 25.348 32.2708C25.348 32.4128 25.3125 32.4483 25.1705 32.4483C25.0285 32.4483 24.993 32.4838 24.993 32.6258C24.993 32.7678 24.9575 32.8033 24.8155 32.8033C24.6735 32.8033 24.638 32.8388 24.638 32.9808C24.638 33.1228 24.6025 33.1583 24.4605 33.1583C24.3185 33.1583 24.283 33.1938 24.283 33.3358C24.283 33.4778 24.2475 33.5133 24.1055 33.5133C23.9635 33.5133 23.928 33.5488 23.928 33.6908C23.928 33.8328 23.8925 33.8683 23.7505 33.8683C23.6085 33.8683 23.573 33.9038 23.573 34.0458C23.573 34.1726 23.5347 34.2233 23.4386 34.2233C23.3648 34.2233 23.1275 34.3911 22.9111 34.5961C22.6947 34.8011 22.4164 35.0487 22.2925 35.1463C22.1686 35.244 21.9187 35.4697 21.7373 35.648C21.5559 35.8262 21.3486 35.9941 21.2765 36.0211C21.2044 36.048 21.1294 36.132 21.1095 36.2078C21.0898 36.2834 21.0049 36.3551 20.921 36.3672C20.8271 36.3805 20.76 36.4485 20.7463 36.5442C20.7326 36.6411 20.6657 36.708 20.5688 36.7217C20.4721 36.7355 20.4052 36.8024 20.3913 36.8992C20.3776 36.9961 20.3107 37.063 20.2138 37.0767C20.1155 37.0907 20.0502 37.1574 20.0358 37.2586C20.0194 37.3741 19.9655 37.4183 19.8405 37.4183C19.7039 37.4183 19.668 37.4553 19.668 37.5958C19.668 37.7378 19.6325 37.7733 19.4905 37.7733C19.3485 37.7733 19.313 37.8088 19.313 37.9508C19.313 38.0928 19.2775 38.1283 19.1355 38.1283C18.9935 38.1283 18.958 38.1638 18.958 38.3058C18.958 38.4478 18.9225 38.4833 18.7805 38.4833C18.6385 38.4833 18.603 38.5188 18.603 38.6608C18.603 38.8028 18.5675 38.8383 18.4255 38.8383C18.2835 38.8383 18.248 38.8738 18.248 39.0158C18.248 39.1578 18.2125 39.1933 18.0705 39.1933C17.9285 39.1933 17.893 39.2288 17.893 39.3708C17.893 39.5128 17.8575 39.5483 17.7155 39.5483C17.5735 39.5483 17.538 39.5838 17.538 39.7258C17.538 39.8678 17.5025 39.9033 17.3605 39.9033C17.2185 39.9033 17.183 39.9388 17.183 40.0808C17.183 40.2228 17.1475 40.2583 17.0055 40.2583C16.8635 40.2583 16.828 40.2938 16.828 40.4358C16.828 40.5778 16.7925 40.6133 16.6505 40.6133C16.5085 40.6133 16.473 40.6488 16.473 40.7908C16.473 40.9328 16.4375 40.9683 16.2955 40.9683C16.1535 40.9683 16.118 41.0038 16.118 41.1458C16.118 41.2878 16.0825 41.3233 15.9405 41.3233C15.7985 41.3233 15.763 41.3588 15.763 41.5008C15.763 41.6428 15.7275 41.6783 15.5855 41.6783C15.4435 41.6783 15.408 41.7138 15.408 41.8558C15.408 41.9978 15.3725 42.0333 15.2305 42.0333C15.0885 42.0333 15.053 42.0688 15.053 42.2108C15.053 42.3528 15.0175 42.3883 14.8755 42.3883C14.7335 42.3883 14.698 42.4238 14.698 42.5658C14.698 42.7078 14.6625 42.7433 14.5205 42.7433C14.3785 42.7433 14.343 42.7788 14.343 42.9208C14.343 43.0628 14.3075 43.0983 14.1655 43.0983C14.0235 43.0983 13.988 43.1338 13.988 43.2758C13.988 43.4178 13.9525 43.4533 13.8105 43.4533C13.6685 43.4533 13.633 43.4888 13.633 43.6308C13.633 43.7728 13.5975 43.8083 13.4555 43.8083C13.3135 43.8083 13.278 43.8438 13.278 43.9858C13.278 44.1278 13.2425 44.1633 13.1005 44.1633C12.9585 44.1633 12.923 44.1988 12.923 44.3408C12.923 44.4828 12.8875 44.5183 12.7455 44.5183C12.6035 44.5183 12.568 44.5538 12.568 44.6958C12.568 44.8378 12.5325 44.8733 12.3905 44.8733C12.2485 44.8733 12.213 44.9088 12.213 45.0508C12.213 45.1613 12.1727 45.2283 12.1065 45.2283C12.0154 45.2283 12 45.4295 12 46.6128C12 47.7962 12.0154 47.9973 12.1065 47.9973C12.1674 47.9973 12.213 48.0612 12.213 48.1468C12.213 48.2292 12.2907 48.3577 12.3859 48.4324C12.481 48.5073 12.5689 48.6557 12.5811 48.7622C12.595 48.8813 12.6651 48.9828 12.7632 49.026C12.8612 49.0689 12.923 49.1582 12.923 49.2567C12.923 49.3808 12.9635 49.4173 13.1005 49.4173C13.2425 49.4173 13.278 49.4528 13.278 49.5948C13.278 49.7368 13.3135 49.7723 13.4555 49.7723C13.5975 49.7723 13.633 49.8078 13.633 49.9498C13.633 50.0918 13.6685 50.1273 13.8105 50.1273C13.9525 50.1273 13.988 50.1628 13.988 50.3048C13.988 50.4468 14.0235 50.4823 14.1655 50.4823C14.3075 50.4823 14.343 50.5178 14.343 50.6598C14.343 50.8018 14.3785 50.8373 14.5205 50.8373C14.6625 50.8373 14.698 50.8728 14.698 51.0148C14.698 51.1568 14.7335 51.1923 14.8755 51.1923C15.0086 51.1923 15.053 51.2298 15.053 51.3418C15.053 51.4242 15.1309 51.5527 15.2261 51.6276C15.3317 51.7106 15.4078 51.8532 15.4213 51.9929C15.438 52.1643 15.4818 52.2273 15.596 52.2435C15.6799 52.2556 15.7646 52.3271 15.7845 52.4025C15.8042 52.478 15.9032 52.5712 16.0046 52.6097C16.1061 52.6482 16.189 52.7142 16.189 52.7563C16.189 52.7982 16.2928 52.8766 16.4197 52.9306C16.5467 52.9846 16.7866 53.1747 16.953 53.3531C17.1193 53.5314 17.319 53.6773 17.3967 53.6773C17.5 53.6773 17.538 53.7249 17.538 53.8548C17.538 53.9968 17.5735 54.0323 17.7155 54.0323C17.8575 54.0323 17.893 54.0678 17.893 54.2098C17.893 54.3518 17.9285 54.3873 18.0705 54.3873C18.2125 54.3873 18.248 54.4228 18.248 54.5648C18.248 54.7068 18.2835 54.7423 18.4255 54.7423C18.5675 54.7423 18.603 54.7778 18.603 54.9198C18.603 55.0618 18.6385 55.0973 18.7805 55.0973C18.9225 55.0973 18.958 55.1328 18.958 55.2748C18.958 55.4168 18.9935 55.4523 19.1355 55.4523C19.2775 55.4523 19.313 55.4878 19.313 55.6298C19.313 55.7718 19.3485 55.8073 19.4905 55.8073C19.6325 55.8073 19.668 55.8428 19.668 55.9848C19.668 56.1268 19.7035 56.1623 19.8455 56.1623C19.9875 56.1623 20.023 56.1978 20.023 56.3398C20.023 56.4818 20.0585 56.5173 20.2005 56.5173C20.3425 56.5173 20.378 56.5528 20.378 56.6948C20.378 56.8368 20.4135 56.8723 20.5555 56.8723C20.6975 56.8723 20.733 56.9078 20.733 57.0498C20.733 57.1918 20.7685 57.2273 20.9105 57.2273C21.0525 57.2273 21.088 57.2628 21.088 57.4048C21.088 57.5468 21.1235 57.5823 21.2655 57.5823C21.4075 57.5823 21.443 57.6178 21.443 57.7598C21.443 57.9018 21.4785 57.9373 21.6205 57.9373C21.7625 57.9373 21.798 57.9728 21.798 58.1148C21.798 58.2568 21.8335 58.2923 21.9755 58.2923C22.1175 58.2923 22.153 58.3278 22.153 58.4698C22.153 58.6118 22.1885 58.6473 22.3305 58.6473C22.4725 58.6473 22.508 58.6828 22.508 58.8248C22.508 58.9668 22.5435 59.0023 22.6855 59.0023C22.8275 59.0023 22.863 59.0378 22.863 59.1798C22.863 59.3204 22.8989 59.3573 23.0355 59.3573C23.1605 59.3573 23.2144 59.4015 23.2308 59.5171C23.2452 59.6183 23.3105 59.685 23.4088 59.699C23.5057 59.7127 23.5726 59.7796 23.5863 59.8765C23.6 59.9722 23.6671 60.0402 23.761 60.0535C23.8449 60.0656 23.9298 60.1373 23.9495 60.2129C23.9694 60.2887 24.0444 60.3726 24.1165 60.3996C24.1886 60.4266 24.3991 60.6025 24.5844 60.7905C24.7697 60.9785 24.9671 61.1323 25.023 61.1323C25.0789 61.1323 25.1875 61.2122 25.2644 61.3098C25.3411 61.4075 25.4712 61.4873 25.5535 61.4873C25.6655 61.4873 25.703 61.5317 25.703 61.6648C25.703 61.8068 25.7385 61.8423 25.8805 61.8423C26.0225 61.8423 26.058 61.8778 26.058 62.0198C26.058 62.1618 26.0935 62.1973 26.2355 62.1973C26.3775 62.1973 26.413 62.2328 26.413 62.3748C26.413 62.5168 26.4485 62.5523 26.5905 62.5523C26.7325 62.5523 26.768 62.5878 26.768 62.7298C26.768 62.8718 26.8035 62.9073 26.9455 62.9073C27.0875 62.9073 27.123 62.9428 27.123 63.0848C27.123 63.2268 27.1585 63.2623 27.3005 63.2623C27.4425 63.2623 27.478 63.2978 27.478 63.4398C27.478 63.5818 27.5135 63.6173 27.6555 63.6173C27.7975 63.6173 27.833 63.6528 27.833 63.7948C27.833 63.9368 27.8685 63.9723 28.0105 63.9723C28.1525 63.9723 28.188 64.0078 28.188 64.1498C28.188 64.2918 28.2235 64.3273 28.3655 64.3273C28.5075 64.3273 28.543 64.3628 28.543 64.5048C28.543 64.6468 28.5785 64.6823 28.7205 64.6823C28.8625 64.6823 28.898 64.7178 28.898 64.8598C28.898 65.0018 28.9335 65.0373 29.0755 65.0373C29.2175 65.0373 29.253 65.0728 29.253 65.2148C29.253 65.3568 29.2885 65.3923 29.4305 65.3923C29.5725 65.3923 29.608 65.4278 29.608 65.5698C29.608 65.7118 29.6435 65.7473 29.7855 65.7473C29.9275 65.7473 29.963 65.7828 29.963 65.9248C29.963 66.0668 29.9985 66.1023 30.1405 66.1023C30.2825 66.1023 30.318 66.1378 30.318 66.2798C30.318 66.4218 30.3535 66.4573 30.4955 66.4573C30.6375 66.4573 30.673 66.4928 30.673 66.6348C30.673 66.7768 30.7085 66.8123 30.8505 66.8123C30.9925 66.8123 31.028 66.8478 31.028 66.9898C31.028 67.1446 31.0591 67.1673 31.2714 67.1673C31.4464 67.1673 31.5539 67.2172 31.6544 67.3448C31.7914 67.5191 31.8117 67.5223 32.7955 67.5223H33.797V67.3448C33.797 67.1867 33.8263 67.1673 34.0668 67.1673C34.4056 67.1673 34.507 67.0672 34.507 66.7321C34.507 66.5115 34.5336 66.4634 34.6667 66.4446C34.8206 66.4227 34.8272 66.3917 34.8466 65.5876L34.8664 64.7533H34.6868C34.5184 64.7533 34.507 64.7308 34.507 64.3983C34.507 64.067 34.4951 64.0433 34.3295 64.0433C34.1875 64.0433 34.152 64.0078 34.152 63.8658C34.152 63.7238 34.1165 63.6883 33.9745 63.6883C33.8325 63.6883 33.797 63.6528 33.797 63.5108C33.797 63.3688 33.7615 63.3333 33.6195 63.3333C33.4775 63.3333 33.442 63.2978 33.442 63.1558C33.442 63.0138 33.4065 62.9783 33.2645 62.9783C33.1225 62.9783 33.087 62.9428 33.087 62.8008C33.087 62.6588 33.0515 62.6233 32.9095 62.6233C32.7675 62.6233 32.732 62.5878 32.732 62.4458C32.732 62.3038 32.6965 62.2683 32.5545 62.2683C32.4125 62.2683 32.377 62.2328 32.377 62.0908C32.377 61.9488 32.3415 61.9133 32.1995 61.9133C32.0575 61.9133 32.022 61.8778 32.022 61.7358C32.022 61.5938 31.9865 61.5583 31.8445 61.5583C31.7025 61.5583 31.667 61.5228 31.667 61.3808C31.667 61.2388 31.6315 61.2033 31.4895 61.2033C31.3475 61.2033 31.312 61.1678 31.312 61.0258C31.312 60.8838 31.2765 60.8483 31.1345 60.8483C30.9925 60.8483 30.957 60.8128 30.957 60.6708C30.957 60.5288 30.9215 60.4933 30.7795 60.4933C30.6375 60.4933 30.602 60.4578 30.602 60.3158C30.602 60.1738 30.5665 60.1383 30.4245 60.1383C30.2825 60.1383 30.247 60.1028 30.247 59.9608C30.247 59.8188 30.2115 59.7833 30.0695 59.7833C29.9275 59.7833 29.892 59.7478 29.892 59.6058C29.892 59.4638 29.8565 59.4283 29.7145 59.4283C29.5725 59.4283 29.537 59.3928 29.537 59.2508C29.537 59.1088 29.5015 59.0733 29.3595 59.0733C29.2175 59.0733 29.182 59.0378 29.182 58.8958C29.182 58.7538 29.1465 58.7183 29.0045 58.7183C28.8625 58.7183 28.827 58.6828 28.827 58.5408C28.827 58.3988 28.7915 58.3633 28.6495 58.3633C28.5075 58.3633 28.472 58.3278 28.472 58.1858C28.472 58.0438 28.4365 58.0083 28.2945 58.0083C28.1525 58.0083 28.117 57.9728 28.117 57.8308C28.117 57.6888 28.0815 57.6533 27.9395 57.6533C27.7975 57.6533 27.762 57.6178 27.762 57.4758C27.762 57.3338 27.7265 57.2983 27.5845 57.2983C27.4425 57.2983 27.407 57.2628 27.407 57.1208C27.407 56.9788 27.3715 56.9433 27.2295 56.9433C27.0875 56.9433 27.052 56.9078 27.052 56.7658C27.052 56.6238 27.0165 56.5883 26.8745 56.5883C26.7325 56.5883 26.697 56.5528 26.697 56.4108C26.697 56.2688 26.6615 56.2333 26.5195 56.2333C26.3775 56.2333 26.342 56.1978 26.342 56.0558C26.342 55.9138 26.3065 55.8783 26.1645 55.8783C26.0225 55.8783 25.987 55.8428 25.987 55.7008C25.987 55.5588 25.9515 55.5233 25.8095 55.5233C25.6675 55.5233 25.632 55.4878 25.632 55.3458C25.632 55.2038 25.5965 55.1683 25.4545 55.1683C25.3125 55.1683 25.277 55.1328 25.277 54.9908C25.277 54.8488 25.2415 54.8133 25.0995 54.8133C24.9575 54.8133 24.922 54.7778 24.922 54.6358C24.922 54.4938 24.8865 54.4583 24.7445 54.4583C24.6178 54.4583 24.567 54.42 24.567 54.324C24.567 54.2501 24.3993 54.0119 24.1942 53.7945C23.9892 53.5772 23.5819 53.1415 23.289 52.8262C22.9961 52.511 22.5888 52.0782 22.3837 51.8647C22.1787 51.651 22.011 51.4465 22.011 51.4101C22.011 51.3737 21.9505 51.3248 21.8766 51.3013C21.8028 51.2779 21.7252 51.1934 21.7045 51.1137C21.6835 51.034 21.6033 50.9522 21.5259 50.932C21.4485 50.9117 21.3686 50.8318 21.3484 50.7545C21.3282 50.6771 21.247 50.597 21.1682 50.5764C21.0894 50.5557 21.0152 50.4703 21.0032 50.3863C20.9898 50.2924 20.9219 50.2253 20.8262 50.2117C20.7293 50.198 20.6624 50.1311 20.6487 50.0342C20.6348 49.9374 20.5679 49.8705 20.4712 49.8567C20.3743 49.843 20.3074 49.7761 20.2937 49.6792C20.2798 49.5824 20.2129 49.5155 20.1162 49.5017C20.0193 49.488 19.9524 49.4211 19.9387 49.3242C19.9248 49.2274 19.8579 49.1605 19.7612 49.1467C19.6643 49.133 19.5974 49.0661 19.5837 48.9692C19.5698 48.8724 19.5029 48.8055 19.4062 48.7917C19.3093 48.778 19.2424 48.7111 19.2287 48.6142C19.2148 48.5174 19.1479 48.4505 19.0512 48.4367C18.9543 48.423 18.8874 48.3561 18.8737 48.2592C18.8598 48.1624 18.7929 48.0955 18.6962 48.0817C18.5993 48.068 18.5324 48.0011 18.5187 47.9042C18.5047 47.8058 18.4379 47.7405 18.3368 47.7261C18.2212 47.7098 18.177 47.6558 18.177 47.5309C18.177 47.3942 18.1401 47.3583 17.9995 47.3583H17.822V46.6128V45.8673H17.9995C18.1415 45.8673 18.177 45.8318 18.177 45.6898C18.177 45.5478 18.2125 45.5123 18.3545 45.5123C18.4965 45.5123 18.532 45.4768 18.532 45.3348C18.532 45.1928 18.5675 45.1573 18.7095 45.1573C18.8515 45.1573 18.887 45.1218 18.887 44.9798C18.887 44.8378 18.9225 44.8023 19.0645 44.8023C19.2065 44.8023 19.242 44.7668 19.242 44.6248C19.242 44.4828 19.2775 44.4473 19.4195 44.4473C19.5615 44.4473 19.597 44.4118 19.597 44.2698C19.597 44.1278 19.6325 44.0923 19.7745 44.0923C19.9165 44.0923 19.952 44.0568 19.952 43.9148C19.952 43.7728 19.9875 43.7373 20.1295 43.7373C20.2715 43.7373 20.307 43.7018 20.307 43.5598C20.307 43.4178 20.3425 43.3823 20.4845 43.3823C20.6265 43.3823 20.662 43.3468 20.662 43.2048C20.662 43.0628 20.6975 43.0273 20.8395 43.0273C20.9815 43.0273 21.017 42.9918 21.017 42.8498C21.017 42.7078 21.0525 42.6723 21.1945 42.6723C21.3365 42.6723 21.372 42.6368 21.372 42.4948C21.372 42.3528 21.4075 42.3173 21.5495 42.3173C21.6915 42.3173 21.727 42.2818 21.727 42.1398C21.727 41.9978 21.7625 41.9623 21.9045 41.9623C22.0465 41.9623 22.082 41.9268 22.082 41.7848C22.082 41.6428 22.1175 41.6073 22.2595 41.6073C22.4015 41.6073 22.437 41.5718 22.437 41.4298C22.437 41.2878 22.4725 41.2523 22.6145 41.2523C22.7565 41.2523 22.792 41.2168 22.792 41.0748C22.792 40.9328 22.8275 40.8973 22.9695 40.8973C23.1115 40.8973 23.147 40.8618 23.147 40.7198C23.147 40.5778 23.1825 40.5423 23.3245 40.5423C23.4665 40.5423 23.502 40.5068 23.502 40.3648C23.502 40.2228 23.5375 40.1873 23.6795 40.1873C23.8215 40.1873 23.857 40.1518 23.857 40.0098C23.857 39.8678 23.8925 39.8323 24.0345 39.8323C24.1765 39.8323 24.212 39.7968 24.212 39.6548C24.212 39.5128 24.2475 39.4773 24.3895 39.4773C24.5315 39.4773 24.567 39.4418 24.567 39.2998C24.567 39.1578 24.6025 39.1223 24.7445 39.1223C24.8865 39.1223 24.922 39.0868 24.922 38.9448C24.922 38.8028 24.9575 38.7673 25.0995 38.7673C25.2415 38.7673 25.277 38.7318 25.277 38.5898C25.277 38.4478 25.3125 38.4123 25.4545 38.4123C25.5965 38.4123 25.632 38.3768 25.632 38.2348C25.632 38.0928 25.6675 38.0573 25.8095 38.0573C25.9515 38.0573 25.987 38.0218 25.987 37.8798C25.987 37.7378 26.0225 37.7023 26.1645 37.7023C26.3065 37.7023 26.342 37.6668 26.342 37.5248C26.342 37.3828 26.3775 37.3473 26.5195 37.3473C26.6615 37.3473 26.697 37.3118 26.697 37.1698C26.697 37.0278 26.7325 36.9923 26.8745 36.9923C27.0165 36.9923 27.052 36.9568 27.052 36.8148C27.052 36.6728 27.0875 36.6373 27.2295 36.6373C27.3715 36.6373 27.407 36.6018 27.407 36.4598C27.407 36.3178 27.4425 36.2823 27.5845 36.2823C27.7265 36.2823 27.762 36.2468 27.762 36.1048C27.762 35.9628 27.7975 35.9273 27.9395 35.9273C28.0815 35.9273 28.117 35.8918 28.117 35.7498C28.117 35.6078 28.1525 35.5723 28.2945 35.5723C28.4365 35.5723 28.472 35.5368 28.472 35.3948C28.472 35.2528 28.5075 35.2173 28.6495 35.2173C28.7915 35.2173 28.827 35.1818 28.827 35.0398C28.827 34.8978 28.8625 34.8623 29.0045 34.8623C29.1465 34.8623 29.182 34.8268 29.182 34.6848C29.182 34.5428 29.2175 34.5073 29.3595 34.5073C29.5015 34.5073 29.537 34.4718 29.537 34.3298C29.537 34.1878 29.5725 34.1523 29.7145 34.1523C29.8565 34.1523 29.892 34.1168 29.892 33.9748C29.892 33.8328 29.9275 33.7973 30.0695 33.7973C30.2115 33.7973 30.247 33.7618 30.247 33.6198C30.247 33.4778 30.2825 33.4423 30.4245 33.4423C30.5665 33.4423 30.602 33.4068 30.602 33.2648C30.602 33.1228 30.6375 33.0873 30.7795 33.0873C30.9215 33.0873 30.957 33.0518 30.957 32.9098C30.957 32.7678 30.9925 32.7323 31.1345 32.7323C31.2765 32.7323 31.312 32.6968 31.312 32.5548C31.312 32.4128 31.3475 32.3773 31.4895 32.3773C31.6315 32.3773 31.667 32.3418 31.667 32.1998C31.667 32.0578 31.7025 32.0223 31.8445 32.0223C31.9865 32.0223 32.022 31.9868 32.022 31.8448C32.022 31.7028 32.0575 31.6673 32.1995 31.6673C32.3415 31.6673 32.377 31.6318 32.377 31.4898C32.377 31.3478 32.4125 31.3123 32.5545 31.3123C32.6965 31.3123 32.732 31.2768 32.732 31.1348C32.732 30.9928 32.7675 30.9573 32.9095 30.9573C33.0515 30.9573 33.087 30.9218 33.087 30.7798C33.087 30.6378 33.1225 30.6023 33.2645 30.6023C33.4065 30.6023 33.442 30.5668 33.442 30.4248C33.442 30.2828 33.4775 30.2473 33.6195 30.2473C33.7615 30.2473 33.797 30.2118 33.797 30.0698C33.797 29.9278 33.8325 29.8923 33.9745 29.8923C34.1165 29.8923 34.152 29.8568 34.152 29.7148C34.152 29.5728 34.1875 29.5373 34.3295 29.5373H34.507V28.5078V27.4783H34.3295C34.1639 27.4783 34.152 27.4547 34.152 27.1233C34.152 26.8019 34.1367 26.7683 33.9914 26.7683C33.8928 26.7683 33.8036 26.7066 33.7606 26.6086C33.69 26.4478 31.2256 26.3106 31.0768 26.4591ZM61.2898 26.4969C61.242 26.5447 61.203 26.6253 61.203 26.676C61.203 26.7272 61.1238 26.7683 61.0255 26.7683C60.8599 26.7683 60.848 26.792 60.848 27.1233C60.848 27.4547 60.8361 27.4783 60.6705 27.4783H60.493V28.5078V29.5373H60.6705C60.8125 29.5373 60.848 29.5728 60.848 29.7148C60.848 29.8568 60.8835 29.8923 61.0255 29.8923C61.1675 29.8923 61.203 29.9278 61.203 30.0698C61.203 30.2118 61.2385 30.2473 61.3805 30.2473C61.5225 30.2473 61.558 30.2828 61.558 30.4248C61.558 30.5668 61.5935 30.6023 61.7355 30.6023C61.8775 30.6023 61.913 30.6378 61.913 30.7798C61.913 30.9218 61.9485 30.9573 62.0905 30.9573C62.2325 30.9573 62.268 30.9928 62.268 31.1348C62.268 31.2768 62.3035 31.3123 62.4455 31.3123C62.5875 31.3123 62.623 31.3478 62.623 31.4898C62.623 31.6318 62.6585 31.6673 62.8005 31.6673C62.9425 31.6673 62.978 31.7028 62.978 31.8448C62.978 31.9868 63.0135 32.0223 63.1555 32.0223C63.2975 32.0223 63.333 32.0578 63.333 32.1998C63.333 32.3418 63.3685 32.3773 63.5105 32.3773C63.6525 32.3773 63.688 32.4128 63.688 32.5548C63.688 32.6968 63.7235 32.7323 63.8655 32.7323C64.0075 32.7323 64.043 32.7678 64.043 32.9098C64.043 33.0518 64.0785 33.0873 64.2205 33.0873C64.3625 33.0873 64.398 33.1228 64.398 33.2648C64.398 33.4068 64.4335 33.4423 64.5755 33.4423C64.7175 33.4423 64.753 33.4778 64.753 33.6198C64.753 33.7618 64.7885 33.7973 64.9305 33.7973C65.0725 33.7973 65.108 33.8328 65.108 33.9748C65.108 34.1168 65.1435 34.1523 65.2855 34.1523C65.4275 34.1523 65.463 34.1878 65.463 34.3298C65.463 34.4718 65.4985 34.5073 65.6405 34.5073C65.7825 34.5073 65.818 34.5428 65.818 34.6848C65.818 34.8254 65.8539 34.8623 65.9905 34.8623C66.1155 34.8623 66.1694 34.9065 66.1858 35.0221C66.2002 35.1233 66.2655 35.19 66.3638 35.204C66.4607 35.2177 66.5276 35.2846 66.5413 35.3815C66.5552 35.4783 66.6221 35.5452 66.7188 35.559C66.8157 35.5727 66.8826 35.6396 66.8963 35.7365C66.9102 35.8333 66.9771 35.9002 67.0738 35.914C67.1707 35.9277 67.2376 35.9946 67.2513 36.0915C67.265 36.1872 67.3321 36.2552 67.426 36.2685C67.5099 36.2806 67.5953 36.3548 67.6161 36.4336C67.6367 36.5124 67.7167 36.5935 67.7941 36.6137C67.8715 36.634 67.9508 36.7112 67.9702 36.7856C67.9895 36.8599 68.0644 36.9428 68.1365 36.97C68.2086 36.9971 68.4995 37.2529 68.7831 37.5383C69.0666 37.8238 69.3382 38.0573 69.3866 38.0575C69.4349 38.0575 69.7079 38.2971 69.9933 38.59C70.2874 38.8918 70.5718 39.1223 70.6501 39.1223C70.7498 39.1223 70.788 39.1713 70.788 39.2998C70.788 39.4418 70.8235 39.4773 70.9655 39.4773C71.1075 39.4773 71.143 39.5128 71.143 39.6548C71.143 39.7968 71.1785 39.8323 71.3205 39.8323C71.4625 39.8323 71.498 39.8678 71.498 40.0098C71.498 40.1518 71.5335 40.1873 71.6755 40.1873C71.8175 40.1873 71.853 40.2228 71.853 40.3648C71.853 40.5068 71.8885 40.5423 72.0305 40.5423C72.1725 40.5423 72.208 40.5778 72.208 40.7198C72.208 40.8618 72.2435 40.8973 72.3855 40.8973C72.5275 40.8973 72.563 40.9328 72.563 41.0748C72.563 41.2168 72.5985 41.2523 72.7405 41.2523C72.8825 41.2523 72.918 41.2878 72.918 41.4298C72.918 41.5718 72.9535 41.6073 73.0955 41.6073C73.2375 41.6073 73.273 41.6428 73.273 41.7848C73.273 41.9268 73.3085 41.9623 73.4505 41.9623C73.5925 41.9623 73.628 41.9978 73.628 42.1398C73.628 42.2818 73.6635 42.3173 73.8055 42.3173C73.9475 42.3173 73.983 42.3528 73.983 42.4948C73.983 42.6368 74.0185 42.6723 74.1605 42.6723C74.3025 42.6723 74.338 42.7078 74.338 42.8498C74.338 42.9918 74.3735 43.0273 74.5155 43.0273C74.6575 43.0273 74.693 43.0628 74.693 43.2048C74.693 43.3468 74.7285 43.3823 74.8705 43.3823C75.0125 43.3823 75.048 43.4178 75.048 43.5598C75.048 43.7018 75.0835 43.7373 75.2255 43.7373C75.3675 43.7373 75.403 43.7728 75.403 43.9148C75.403 44.0568 75.4385 44.0923 75.5805 44.0923C75.7225 44.0923 75.758 44.1278 75.758 44.2698C75.758 44.4118 75.7935 44.4473 75.9355 44.4473C76.0775 44.4473 76.113 44.4828 76.113 44.6248C76.113 44.7668 76.1485 44.8023 76.2905 44.8023C76.4325 44.8023 76.468 44.8378 76.468 44.9798C76.468 45.1218 76.5035 45.1573 76.6455 45.1573C76.7875 45.1573 76.823 45.1928 76.823 45.3348C76.823 45.4768 76.8585 45.5123 77.0005 45.5123C77.1425 45.5123 77.178 45.5478 77.178 45.6898C77.178 45.8318 77.2135 45.8673 77.3555 45.8673H77.533V46.6128V47.3583H77.3555C77.2135 47.3583 77.178 47.3938 77.178 47.5358C77.178 47.6778 77.1425 47.7133 77.0005 47.7133C76.8585 47.7133 76.823 47.7488 76.823 47.8908C76.823 48.0328 76.7875 48.0683 76.6455 48.0683C76.5035 48.0683 76.468 48.1038 76.468 48.2458C76.468 48.3878 76.4325 48.4233 76.2905 48.4233C76.1485 48.4233 76.113 48.4588 76.113 48.6008C76.113 48.7428 76.0775 48.7783 75.9355 48.7783C75.7935 48.7783 75.758 48.8138 75.758 48.9558C75.758 49.0978 75.7225 49.1333 75.5805 49.1333C75.4385 49.1333 75.403 49.1688 75.403 49.3108C75.403 49.4528 75.3675 49.4883 75.2255 49.4883C75.0835 49.4883 75.048 49.5238 75.048 49.6658C75.048 49.8078 75.0125 49.8433 74.8705 49.8433C74.7285 49.8433 74.693 49.8788 74.693 50.0208C74.693 50.1628 74.6575 50.1983 74.5155 50.1983C74.3735 50.1983 74.338 50.2338 74.338 50.3758C74.338 50.5178 74.3025 50.5533 74.1605 50.5533C74.0185 50.5533 73.983 50.5888 73.983 50.7308C73.983 50.8728 73.9475 50.9083 73.8055 50.9083C73.6635 50.9083 73.628 50.9438 73.628 51.0858C73.628 51.2278 73.5925 51.2633 73.4505 51.2633C73.3085 51.2633 73.273 51.2988 73.273 51.4408C73.273 51.5828 73.2375 51.6183 73.0955 51.6183C72.9535 51.6183 72.918 51.6538 72.918 51.7958C72.918 51.9378 72.8825 51.9733 72.7405 51.9733C72.5985 51.9733 72.563 52.0088 72.563 52.1508C72.563 52.2928 72.5275 52.3283 72.3855 52.3283C72.2435 52.3283 72.208 52.3638 72.208 52.5058C72.208 52.6478 72.1725 52.6833 72.0305 52.6833C71.8885 52.6833 71.853 52.7188 71.853 52.8608C71.853 53.0028 71.8175 53.0383 71.6755 53.0383C71.5335 53.0383 71.498 53.0738 71.498 53.2158C71.498 53.3578 71.4625 53.3933 71.3205 53.3933C71.1785 53.3933 71.143 53.4288 71.143 53.5708C71.143 53.7128 71.1075 53.7483 70.9655 53.7483C70.8235 53.7483 70.788 53.7838 70.788 53.9258C70.788 54.0678 70.7525 54.1033 70.6105 54.1033C70.4685 54.1033 70.433 54.1388 70.433 54.2808C70.433 54.4228 70.3975 54.4583 70.2555 54.4583C70.1135 54.4583 70.078 54.4938 70.078 54.6358C70.078 54.7778 70.0425 54.8133 69.9005 54.8133C69.7585 54.8133 69.723 54.8488 69.723 54.9908C69.723 55.1328 69.6875 55.1683 69.5455 55.1683C69.4035 55.1683 69.368 55.2038 69.368 55.3458C69.368 55.4878 69.3325 55.5233 69.1905 55.5233C69.0485 55.5233 69.013 55.5588 69.013 55.7008C69.013 55.8428 68.9775 55.8783 68.8355 55.8783C68.6935 55.8783 68.658 55.9138 68.658 56.0558C68.658 56.1978 68.6225 56.2333 68.4805 56.2333C68.3385 56.2333 68.303 56.2688 68.303 56.4108C68.303 56.5528 68.2675 56.5883 68.1255 56.5883C67.9835 56.5883 67.948 56.6238 67.948 56.7658C67.948 56.9078 67.9125 56.9433 67.7705 56.9433C67.6285 56.9433 67.593 56.9788 67.593 57.1208C67.593 57.2628 67.5575 57.2983 67.4155 57.2983C67.2735 57.2983 67.238 57.3338 67.238 57.4758C67.238 57.6178 67.2025 57.6533 67.0605 57.6533C66.9185 57.6533 66.883 57.6888 66.883 57.8308C66.883 57.9728 66.8475 58.0083 66.7055 58.0083C66.5635 58.0083 66.528 58.0438 66.528 58.1858C66.528 58.3278 66.4925 58.3633 66.3505 58.3633C66.2085 58.3633 66.173 58.3988 66.173 58.5408C66.173 58.6828 66.1375 58.7183 65.9955 58.7183C65.8535 58.7183 65.818 58.7538 65.818 58.8958C65.818 59.0378 65.7825 59.0733 65.6405 59.0733C65.4985 59.0733 65.463 59.1088 65.463 59.2508C65.463 59.3928 65.4275 59.4283 65.2855 59.4283C65.1435 59.4283 65.108 59.4638 65.108 59.6058C65.108 59.7478 65.0725 59.7833 64.9305 59.7833C64.7885 59.7833 64.753 59.8188 64.753 59.9608C64.753 60.1028 64.7175 60.1383 64.5755 60.1383C64.4335 60.1383 64.398 60.1738 64.398 60.3158C64.398 60.4578 64.3625 60.4933 64.2205 60.4933C64.0785 60.4933 64.043 60.5288 64.043 60.6708C64.043 60.8128 64.0075 60.8483 63.8655 60.8483C63.7235 60.8483 63.688 60.8838 63.688 61.0258C63.688 61.1678 63.6525 61.2033 63.5105 61.2033C63.3685 61.2033 63.333 61.2388 63.333 61.3808C63.333 61.5228 63.2975 61.5583 63.1555 61.5583C63.0135 61.5583 62.978 61.5938 62.978 61.7358C62.978 61.8778 62.9425 61.9133 62.8005 61.9133C62.6585 61.9133 62.623 61.9488 62.623 62.0908C62.623 62.2328 62.5875 62.2683 62.4455 62.2683C62.3035 62.2683 62.268 62.3038 62.268 62.4458C62.268 62.5878 62.2325 62.6233 62.0905 62.6233C61.9485 62.6233 61.913 62.6588 61.913 62.8008C61.913 62.9428 61.8775 62.9783 61.7355 62.9783C61.5935 62.9783 61.558 63.0138 61.558 63.1558C61.558 63.2978 61.5225 63.3333 61.3805 63.3333C61.2385 63.3333 61.203 63.3688 61.203 63.5108C61.203 63.6528 61.1675 63.6883 61.0255 63.6883C60.8835 63.6883 60.848 63.7238 60.848 63.8658C60.848 64.0078 60.8125 64.0433 60.6705 64.0433C60.5049 64.0433 60.493 64.067 60.493 64.3983C60.493 64.7308 60.4816 64.7533 60.3132 64.7533H60.1336L60.1534 65.5876C60.1728 66.3917 60.1794 66.4227 60.3332 66.4446C60.4664 66.4634 60.493 66.5115 60.493 66.7321C60.493 67.0672 60.5943 67.1673 60.9332 67.1673C61.1737 67.1673 61.203 67.1867 61.203 67.3448V67.5223H62.2511C63.27 67.5223 63.3012 67.5179 63.3694 67.3626C63.4207 67.246 63.5101 67.197 63.7013 67.181C63.9085 67.1638 63.9677 67.1267 63.9853 67.0035C63.9992 66.9064 64.0659 66.8395 64.1628 66.8257C64.2597 66.812 64.3266 66.7451 64.3403 66.6482C64.3542 66.5514 64.4211 66.4845 64.5178 66.4707C64.6147 66.457 64.6816 66.3901 64.6953 66.2932C64.709 66.1973 64.7761 66.1295 64.8705 66.116C64.9637 66.1027 65.0407 66.0264 65.0672 65.9208C65.094 65.8141 65.162 65.7473 65.2436 65.7473C65.3263 65.7473 65.3934 65.6801 65.4211 65.5698C65.4488 65.4596 65.5161 65.3923 65.5986 65.3923C65.6813 65.3923 65.7484 65.3251 65.7761 65.2148C65.8049 65.1002 65.8705 65.0373 65.9614 65.0373C66.064 65.0373 66.102 64.9894 66.102 64.8598C66.102 64.7178 66.1375 64.6823 66.2795 64.6823C66.4215 64.6823 66.457 64.6468 66.457 64.5048C66.457 64.3628 66.4925 64.3273 66.6345 64.3273C66.7765 64.3273 66.812 64.2918 66.812 64.1498C66.812 64.0078 66.8475 63.9723 66.9895 63.9723C67.1315 63.9723 67.167 63.9368 67.167 63.7948C67.167 63.6528 67.2025 63.6173 67.3445 63.6173C67.4865 63.6173 67.522 63.5818 67.522 63.4398C67.522 63.2978 67.5575 63.2623 67.6995 63.2623C67.8415 63.2623 67.877 63.2268 67.877 63.0848C67.877 62.9428 67.9125 62.9073 68.0545 62.9073C68.1965 62.9073 68.232 62.8718 68.232 62.7298C68.232 62.5878 68.2675 62.5523 68.4095 62.5523C68.5515 62.5523 68.587 62.5168 68.587 62.3748C68.587 62.2328 68.6225 62.1973 68.7645 62.1973C68.9065 62.1973 68.942 62.1618 68.942 62.0198C68.942 61.8778 68.9775 61.8423 69.1195 61.8423C69.2615 61.8423 69.297 61.8068 69.297 61.6648C69.297 61.5228 69.3325 61.4873 69.4745 61.4873C69.6165 61.4873 69.652 61.4518 69.652 61.3098C69.652 61.1678 69.6875 61.1323 69.8295 61.1323C69.9715 61.1323 70.007 61.0968 70.007 60.9548C70.007 60.8128 70.0425 60.7773 70.1845 60.7773C70.3265 60.7773 70.362 60.7418 70.362 60.5998C70.362 60.4578 70.3975 60.4223 70.5395 60.4223C70.6815 60.4223 70.717 60.3868 70.717 60.2448C70.717 60.1028 70.7525 60.0673 70.8945 60.0673C71.0365 60.0673 71.072 60.0318 71.072 59.8898C71.072 59.7478 71.1075 59.7123 71.2495 59.7123C71.3915 59.7123 71.427 59.6768 71.427 59.5348C71.427 59.3928 71.4625 59.3573 71.6045 59.3573C71.7465 59.3573 71.782 59.3218 71.782 59.1798C71.782 59.0378 71.8175 59.0023 71.9595 59.0023C72.1015 59.0023 72.137 58.9668 72.137 58.8248C72.137 58.6828 72.1725 58.6473 72.3145 58.6473C72.4565 58.6473 72.492 58.6118 72.492 58.4698C72.492 58.3278 72.5275 58.2923 72.6695 58.2923C72.8115 58.2923 72.847 58.2568 72.847 58.1148C72.847 57.9728 72.8825 57.9373 73.0245 57.9373C73.1665 57.9373 73.202 57.9018 73.202 57.7598C73.202 57.6178 73.2375 57.5823 73.3795 57.5823C73.5215 57.5823 73.557 57.5468 73.557 57.4048C73.557 57.2628 73.5925 57.2273 73.7345 57.2273C73.8765 57.2273 73.912 57.1918 73.912 57.0498C73.912 56.9078 73.9475 56.8723 74.0895 56.8723C74.2315 56.8723 74.267 56.8368 74.267 56.6948C74.267 56.5528 74.3025 56.5173 74.4445 56.5173C74.5865 56.5173 74.622 56.4818 74.622 56.3398C74.622 56.1978 74.6575 56.1623 74.7995 56.1623C74.9415 56.1623 74.977 56.1268 74.977 55.9848C74.977 55.8428 75.0125 55.8073 75.1545 55.8073C75.2965 55.8073 75.332 55.7718 75.332 55.6298C75.332 55.4878 75.3675 55.4523 75.5095 55.4523C75.6515 55.4523 75.687 55.4168 75.687 55.2748C75.687 55.1328 75.7225 55.0973 75.8645 55.0973C76.0065 55.0973 76.042 55.0618 76.042 54.9198C76.042 54.7778 76.0775 54.7423 76.2195 54.7423C76.3615 54.7423 76.397 54.7068 76.397 54.5648C76.397 54.4228 76.4325 54.3873 76.5745 54.3873C76.7165 54.3873 76.752 54.3518 76.752 54.2098C76.752 54.0678 76.7875 54.0323 76.9295 54.0323C77.0715 54.0323 77.107 53.9968 77.107 53.8548C77.107 53.7128 77.1425 53.6773 77.2845 53.6773C77.4265 53.6773 77.462 53.6418 77.462 53.4998C77.462 53.3578 77.4975 53.3223 77.6395 53.3223C77.7815 53.3223 77.817 53.2868 77.817 53.1448C77.817 53.0028 77.8525 52.9673 77.9945 52.9673C78.1365 52.9673 78.172 52.9318 78.172 52.7898C78.172 52.6478 78.2075 52.6123 78.3495 52.6123C78.4915 52.6123 78.527 52.5768 78.527 52.4348C78.527 52.2928 78.5625 52.2573 78.7045 52.2573C78.8465 52.2573 78.882 52.2218 78.882 52.0798C78.882 51.9378 78.9175 51.9023 79.0595 51.9023C79.2015 51.9023 79.237 51.8668 79.237 51.7248C79.237 51.5828 79.2725 51.5473 79.4145 51.5473C79.5565 51.5473 79.592 51.5118 79.592 51.3698C79.592 51.2278 79.6275 51.1923 79.7695 51.1923C79.9115 51.1923 79.947 51.1568 79.947 51.0148C79.947 50.8728 79.9825 50.8373 80.1245 50.8373C80.2665 50.8373 80.302 50.8018 80.302 50.6598C80.302 50.5178 80.3375 50.4823 80.4795 50.4823C80.6215 50.4823 80.657 50.4468 80.657 50.3048C80.657 50.1628 80.6925 50.1273 80.8345 50.1273C80.9765 50.1273 81.012 50.0918 81.012 49.9498C81.012 49.8078 81.0475 49.7723 81.1895 49.7723C81.3315 49.7723 81.367 49.7368 81.367 49.5948C81.367 49.4528 81.4025 49.4173 81.5445 49.4173C81.6865 49.4173 81.722 49.3818 81.722 49.2398C81.722 49.0978 81.7575 49.0623 81.8995 49.0623C82.0415 49.0623 82.077 49.0268 82.077 48.8848C82.077 48.7428 82.1125 48.7073 82.2545 48.7073C82.3965 48.7073 82.432 48.6718 82.432 48.5298C82.432 48.3878 82.4675 48.3523 82.6095 48.3523C82.7515 48.3523 82.787 48.3168 82.787 48.1748C82.787 48.0644 82.8273 47.9973 82.8935 47.9973C82.9846 47.9973 83 47.7962 83 46.6128C83 45.4295 82.9846 45.2283 82.8935 45.2283C82.8273 45.2283 82.787 45.1613 82.787 45.0508C82.787 44.9088 82.7515 44.8733 82.6095 44.8733C82.4675 44.8733 82.432 44.8378 82.432 44.6958C82.432 44.5538 82.3965 44.5183 82.2545 44.5183C82.1125 44.5183 82.077 44.4828 82.077 44.3408C82.077 44.1988 82.0415 44.1633 81.8995 44.1633C81.7575 44.1633 81.722 44.1278 81.722 43.9858C81.722 43.8438 81.6865 43.8083 81.5445 43.8083C81.4025 43.8083 81.367 43.7728 81.367 43.6308C81.367 43.4888 81.3315 43.4533 81.1895 43.4533C81.0475 43.4533 81.012 43.4178 81.012 43.2758C81.012 43.1338 80.9765 43.0983 80.8345 43.0983C80.6925 43.0983 80.657 43.0628 80.657 42.9208C80.657 42.7788 80.6215 42.7433 80.4795 42.7433C80.3375 42.7433 80.302 42.7078 80.302 42.5658C80.302 42.4238 80.2665 42.3883 80.1245 42.3883C79.9825 42.3883 79.947 42.3528 79.947 42.2108C79.947 42.0688 79.9115 42.0333 79.7695 42.0333C79.6275 42.0333 79.592 41.9978 79.592 41.8558C79.592 41.7138 79.5565 41.6783 79.4145 41.6783C79.2725 41.6783 79.237 41.6428 79.237 41.5008C79.237 41.3588 79.2015 41.3233 79.0595 41.3233C78.9175 41.3233 78.882 41.2878 78.882 41.1458C78.882 41.0038 78.8465 40.9683 78.7045 40.9683C78.5625 40.9683 78.527 40.9328 78.527 40.7908C78.527 40.6488 78.4915 40.6133 78.3495 40.6133C78.2075 40.6133 78.172 40.5778 78.172 40.4358C78.172 40.2938 78.1365 40.2583 77.9945 40.2583C77.8525 40.2583 77.817 40.2228 77.817 40.0808C77.817 39.9388 77.7815 39.9033 77.6395 39.9033C77.4975 39.9033 77.462 39.8678 77.462 39.7258C77.462 39.5838 77.4265 39.5483 77.2845 39.5483C77.1425 39.5483 77.107 39.5128 77.107 39.3708C77.107 39.2288 77.0715 39.1933 76.9295 39.1933C76.7875 39.1933 76.752 39.1578 76.752 39.0158C76.752 38.8738 76.7165 38.8383 76.5745 38.8383C76.4325 38.8383 76.397 38.8028 76.397 38.6608C76.397 38.5188 76.3615 38.4833 76.2195 38.4833C76.0775 38.4833 76.042 38.4478 76.042 38.3058C76.042 38.1638 76.0065 38.1283 75.8645 38.1283C75.7225 38.1283 75.687 38.0928 75.687 37.9508C75.687 37.8088 75.6515 37.7733 75.5095 37.7733C75.3675 37.7733 75.332 37.7378 75.332 37.5958C75.332 37.4538 75.2965 37.4183 75.1545 37.4183C75.0125 37.4183 74.977 37.3828 74.977 37.2408C74.977 37.1003 74.9411 37.0633 74.8045 37.0633C74.6795 37.0633 74.6255 37.0191 74.6092 36.9036C74.5948 36.8024 74.5295 36.7357 74.4312 36.7217C74.3343 36.708 74.2674 36.6411 74.2537 36.5442C74.2398 36.4474 74.1729 36.3805 74.0762 36.3667C73.9793 36.353 73.9124 36.2861 73.8987 36.1892C73.885 36.0935 73.8179 36.0255 73.724 36.0122C73.6401 36.0001 73.5547 35.9259 73.5339 35.8471C73.5133 35.7683 73.4313 35.6868 73.3516 35.6659C73.2719 35.6451 73.188 35.5691 73.1653 35.4973C73.1424 35.4254 73.063 35.3475 72.989 35.3238C72.915 35.3002 72.8351 35.2204 72.8115 35.1463C72.7879 35.0723 72.705 34.9914 72.6271 34.9667C72.487 34.9222 72.3949 34.8517 71.9362 34.4369C71.8063 34.3194 71.6386 34.2233 71.5635 34.2233C71.4652 34.2233 71.427 34.1736 71.427 34.0458C71.427 33.9038 71.3915 33.8683 71.2495 33.8683C71.1075 33.8683 71.072 33.8328 71.072 33.6908C71.072 33.5488 71.0365 33.5133 70.8945 33.5133C70.7525 33.5133 70.717 33.4778 70.717 33.3358C70.717 33.1938 70.6815 33.1583 70.5395 33.1583C70.3975 33.1583 70.362 33.1228 70.362 32.9808C70.362 32.8388 70.3265 32.8033 70.1845 32.8033C70.0425 32.8033 70.007 32.7678 70.007 32.6258C70.007 32.4838 69.9715 32.4483 69.8295 32.4483C69.6875 32.4483 69.652 32.4128 69.652 32.2708C69.652 32.1288 69.6165 32.0933 69.4745 32.0933C69.3325 32.0933 69.297 32.0578 69.297 31.9158C69.297 31.7738 69.2615 31.7383 69.1195 31.7383C68.9775 31.7383 68.942 31.7028 68.942 31.5608C68.942 31.4188 68.9065 31.3833 68.7645 31.3833C68.6225 31.3833 68.587 31.3478 68.587 31.2058C68.587 31.0638 68.5515 31.0283 68.4095 31.0283C68.2675 31.0283 68.232 30.9928 68.232 30.8508C68.232 30.7088 68.1965 30.6733 68.0545 30.6733C67.9125 30.6733 67.877 30.6378 67.877 30.4958C67.877 30.3538 67.8415 30.3183 67.6995 30.3183C67.5575 30.3183 67.522 30.2828 67.522 30.1408C67.522 29.9988 67.4865 29.9633 67.3445 29.9633C67.2025 29.9633 67.167 29.9278 67.167 29.7858C67.167 29.6438 67.1315 29.6083 66.9895 29.6083C66.8475 29.6083 66.812 29.5728 66.812 29.4308C66.812 29.2888 66.7765 29.2533 66.6345 29.2533C66.4925 29.2533 66.457 29.2178 66.457 29.0758C66.457 28.9338 66.4215 28.8983 66.2795 28.8983C66.1375 28.8983 66.102 28.8628 66.102 28.7208C66.102 28.5941 66.0637 28.5433 65.9676 28.5433C65.8837 28.5433 65.8168 28.477 65.7889 28.3658C65.7612 28.2556 65.6939 28.1883 65.6114 28.1883C65.5287 28.1883 65.4616 28.1211 65.4339 28.0108C65.4062 27.9006 65.3389 27.8333 65.2564 27.8333C65.1737 27.8333 65.1066 27.7661 65.0789 27.6558C65.0512 27.5456 64.9839 27.4783 64.9014 27.4783C64.8187 27.4783 64.7516 27.4111 64.7239 27.3008C64.6953 27.1869 64.6293 27.1233 64.54 27.1233C64.4507 27.1233 64.3847 27.0598 64.3561 26.9458C64.3247 26.8202 64.2635 26.7683 64.1467 26.7683C64.0299 26.7683 63.9752 26.7218 63.9592 26.6086C63.9321 26.4178 61.4717 26.315 61.2898 26.4969Z" fill="#3C9CC4"/>
<path fill-rule="evenodd" clip-rule="evenodd" d="M43.1686 14.4364C43.1686 14.468 43.1402 14.4764 43.1056 14.4549C43.071 14.4334 43.047 14.4716 43.0524 14.5394C43.0586 14.6184 43.0114 14.6629 42.9214 14.6631C42.8033 14.6631 42.7765 14.7202 42.7551 15.0181C42.7258 15.4265 42.7331 15.4127 42.5426 15.4269C42.4627 15.4329 42.399 15.4553 42.4009 15.4764C42.4546 16.0664 42.3766 16.4734 42.2101 16.4734C42.0447 16.4734 42.0326 16.4974 42.0326 16.8252C42.0326 17.1057 41.9968 17.2129 41.8551 17.3545C41.7085 17.5011 41.6776 17.6004 41.6776 17.9257C41.6776 18.1423 41.675 18.3434 41.6716 18.3727C41.6602 18.4729 41.5197 18.6018 41.4611 18.5658C41.4085 18.5333 41.3461 18.818 41.2962 19.3164C41.272 19.5587 41.1957 19.6698 41.0832 19.6265C41.015 19.6004 40.987 19.6886 40.9774 19.9586C40.9639 20.3367 40.9231 20.4735 40.8384 20.4226C40.7277 20.3555 40.6389 20.5825 40.6204 20.9805C40.5981 21.4656 40.5745 21.5258 40.4185 21.4986C40.3297 21.483 40.2993 21.5618 40.2756 21.8694C40.2591 22.0849 40.1955 22.3156 40.1341 22.3842C40.0496 22.4782 40.0453 22.5084 40.1165 22.5084C40.168 22.5084 40.1863 22.5324 40.157 22.5617C40.1277 22.5909 40.0681 22.6149 40.0244 22.6149C39.9807 22.6149 39.9328 22.7427 39.9179 22.8989C39.903 23.0551 39.8602 23.1941 39.8228 23.2076C39.7828 23.2221 39.7889 23.2733 39.8373 23.3318C39.897 23.4037 39.8978 23.4314 39.8403 23.4314C39.7965 23.4314 39.7606 23.4657 39.7606 23.5076C39.7606 23.5493 39.7127 23.6314 39.6541 23.69C39.5956 23.7486 39.5439 23.93 39.5395 24.0933C39.5262 24.5736 39.5178 24.6029 39.3929 24.6038C39.2173 24.6052 39.2028 24.6386 39.1848 25.0838C39.1722 25.3937 39.1335 25.5199 39.0219 25.6147C38.907 25.7123 38.8946 25.7142 38.964 25.6241C39.0364 25.5298 39.0299 25.4916 38.9273 25.4111C38.8163 25.3241 38.8121 25.3257 38.8904 25.426C38.9388 25.4881 38.9562 25.5612 38.9289 25.5884C38.9017 25.6155 38.868 25.8039 38.8538 26.0068C38.8245 26.4287 38.8302 26.4175 38.6376 26.4319C38.5577 26.4379 38.494 26.4603 38.4959 26.4814C38.5496 27.0714 38.4716 27.4784 38.3051 27.4784C38.1397 27.4784 38.1276 27.5024 38.1276 27.8302C38.1276 28.1053 38.0911 28.2186 37.9597 28.3499C37.8328 28.4767 37.7891 28.6036 37.7812 28.8679C37.7648 29.4139 37.6894 29.6531 37.5593 29.5727C37.5041 29.5385 37.4418 29.8159 37.3912 30.3214C37.3662 30.5735 37.2898 30.6743 37.1615 30.6251C37.0928 30.5989 37.0571 30.6198 37.0657 30.6816C37.1256 31.1111 37.0518 31.5297 36.8892 31.6823C36.7651 31.7986 36.7096 31.936 36.694 32.1644C36.6762 32.4252 36.6469 32.4839 36.5351 32.4843C36.4199 32.4844 36.3935 32.5466 36.3693 32.8748C36.3533 33.0894 36.2953 33.3155 36.2399 33.3771C36.1845 33.4389 36.1599 33.51 36.1851 33.5352C36.2103 33.5604 36.1785 33.6013 36.1143 33.6258C36.0337 33.6568 35.9976 33.756 35.9976 33.947C35.9976 34.1041 35.9632 34.2234 35.9179 34.2234C35.8629 34.2234 35.8656 34.2562 35.9266 34.3299C35.9877 34.4036 35.9904 34.4364 35.9353 34.4364C35.8915 34.4364 35.8556 34.4817 35.8556 34.537C35.8556 34.5923 35.8212 34.649 35.779 34.6631C35.7064 34.6874 35.6567 34.916 35.6201 35.3949C35.6078 35.5541 35.5684 35.6079 35.4634 35.6079C35.3451 35.6079 35.3201 35.6631 35.304 35.9595C35.2935 36.153 35.2456 36.3362 35.1975 36.3667C35.1494 36.3972 35.138 36.4228 35.1721 36.4233C35.2062 36.4239 35.1946 36.472 35.1463 36.5302C35.0981 36.5882 35.0303 36.6184 34.9956 36.5969C34.961 36.5755 34.9326 36.5918 34.9326 36.6331C34.9326 36.6745 34.9726 36.7089 35.0214 36.7095C35.0787 36.7102 35.084 36.729 35.0365 36.7627C34.996 36.7915 34.9532 36.9427 34.9412 37.0989C34.9158 37.4303 34.9204 37.4228 34.7326 37.4369C34.6527 37.4429 34.589 37.4653 34.5909 37.4864C34.6277 37.8916 34.5622 38.5636 34.4885 38.5354C34.3535 38.4836 34.2608 38.6302 34.2335 38.939C34.2182 39.1105 34.1536 39.2621 34.0648 39.334C33.9612 39.4178 33.9122 39.5592 33.8907 39.8368C33.8414 40.4684 33.7815 40.6564 33.6543 40.5777C33.5923 40.5394 33.5119 40.9372 33.4894 41.3951C33.4793 41.6008 33.4507 41.642 33.3216 41.6378C33.2361 41.6349 33.1679 41.6509 33.1702 41.6733C33.2167 42.1216 33.1397 42.5414 32.9842 42.6873C32.8601 42.8036 32.8046 42.941 32.789 43.1694C32.7712 43.4302 32.7419 43.4889 32.6301 43.4893C32.5149 43.4894 32.4885 43.5516 32.4643 43.8798C32.4482 44.0968 32.386 44.3249 32.3241 44.3942C32.2627 44.4625 32.2416 44.5195 32.2769 44.5207C32.3122 44.522 32.2886 44.5628 32.2245 44.6116C32.118 44.6927 32.1017 44.7884 32.0944 45.3711C32.0932 45.4737 32.0289 45.5891 31.943 45.6427C31.861 45.694 31.8136 45.7038 31.8379 45.6645C31.8621 45.6253 31.8562 45.5774 31.8248 45.5578C31.7934 45.5385 31.7593 45.688 31.7492 45.8903C31.7137 46.5992 31.7101 46.6129 31.5601 46.6129C31.3816 46.6129 31.3042 47.6376 31.4675 47.8393C31.5364 47.9243 31.5374 47.9401 31.4714 47.9003C31.4226 47.871 31.3826 47.8808 31.3826 47.9221C31.3826 47.9747 33.4819 47.9974 38.3106 47.9974H45.2385L45.2205 48.2992C45.2019 48.6121 45.1117 48.8029 45.0118 48.7411C44.9621 48.7104 44.8705 49.2122 44.843 49.6659C44.8377 49.7538 44.788 49.8042 44.7124 49.7981C44.6451 49.7928 44.6076 49.8168 44.6291 49.8514C44.6506 49.886 44.6422 49.9144 44.6106 49.9144C44.5791 49.9144 44.5443 50.0821 44.5334 50.2872C44.5182 50.5744 44.475 50.6943 44.3453 50.8101C44.2111 50.9299 44.1726 51.0447 44.155 51.3781C44.1316 51.8263 44.0638 51.9855 43.9203 51.9305C43.8557 51.9056 43.8266 52.0009 43.8172 52.2689C43.8099 52.474 43.7649 52.6665 43.7171 52.6971C43.6692 52.7274 43.658 52.7528 43.6921 52.7533C43.7262 52.7539 43.7146 52.802 43.6663 52.8602C43.6181 52.9182 43.5517 52.9491 43.5187 52.9289C43.4858 52.9085 43.462 52.9647 43.4658 53.0538C43.4901 53.6208 43.4562 53.7484 43.2817 53.7484C43.1165 53.7484 43.1106 53.7663 43.1053 54.2987C43.1015 54.673 43.0691 54.8716 43.0037 54.9199C42.8355 55.0445 42.7426 55.2919 42.7426 55.6161C42.7426 55.8976 42.7258 55.9301 42.5832 55.9224C42.4134 55.9134 42.4187 55.8917 42.3965 56.6992C42.3915 56.8772 42.3637 57.01 42.3344 56.9943C42.2833 56.967 42.0326 57.19 42.0326 57.2629C42.0326 57.2824 42.0326 57.4775 42.0326 57.6965C42.0326 57.9868 42.0085 58.0853 41.9435 58.0604C41.8035 58.0066 41.7153 58.1589 41.6879 58.5022C41.6723 58.6957 41.5965 58.9053 41.4927 59.0415C41.3832 59.1849 41.3226 59.3592 41.3226 59.5303C41.3226 59.7099 41.2765 59.8344 41.1803 59.914C41.0693 60.0058 41.0289 60.1499 40.9973 60.5644C40.9453 61.2499 40.9293 61.2943 40.755 61.2391C40.6252 61.1979 40.6126 61.2258 40.6126 61.5536C40.6126 61.7861 40.5825 61.9134 40.5274 61.9134C40.4644 61.9134 40.463 61.9342 40.5221 61.9933C40.5812 62.0524 40.5603 62.1181 40.4412 62.2464C40.3432 62.3522 40.2756 62.5215 40.2679 62.6813C40.2456 63.1435 40.1639 63.3717 40.0471 63.2995C39.9635 63.2479 39.9026 63.4424 39.9026 63.761C39.9026 63.9117 39.8691 64.0557 39.8283 64.081C39.7766 64.1128 39.7777 64.1559 39.8316 64.2209C39.8813 64.2807 39.8844 64.3304 39.84 64.3578C39.8018 64.3814 39.75 64.3677 39.7251 64.3274C39.7003 64.2871 39.6467 64.2745 39.6062 64.2995C39.5586 64.329 39.5666 64.3668 39.6288 64.4062C39.6998 64.4511 39.7017 64.4675 39.6364 64.4683C39.5776 64.4691 39.5476 64.5866 39.5476 64.8152C39.5476 65.1251 39.5317 65.1601 39.3937 65.1524C39.2571 65.1448 39.2375 65.1851 39.2187 65.5119C39.1673 66.4089 39.1238 66.5513 38.9241 66.4766C38.8176 66.4366 38.8144 66.4459 38.8996 66.5506C38.9631 66.6287 38.9692 66.6704 38.9173 66.6704C38.8717 66.6704 38.8376 66.7918 38.8376 66.9544C38.8376 67.1106 38.8037 67.2384 38.7624 67.2384C38.721 67.2384 38.7047 67.2668 38.7262 67.3014C38.7773 67.3841 38.5918 67.5366 38.5226 67.4686C38.4931 67.4395 38.4759 67.4638 38.4842 67.5224C38.5584 68.0434 38.4787 68.5349 38.3403 68.4095C38.1548 68.2418 38.066 68.3306 38.2338 68.5161C38.3495 68.6439 38.3508 68.6584 38.2451 68.6584C38.1527 68.6584 38.1276 68.7287 38.1276 68.9875C38.1276 69.2438 38.0898 69.3515 37.9571 69.4747C37.8197 69.602 37.7858 69.7055 37.7835 70.0055C37.7803 70.4226 37.7737 70.4368 37.5779 70.4515C37.4549 70.4607 37.4366 70.5211 37.4238 70.9581C37.4114 71.3827 37.3843 71.4775 37.2361 71.615C37.0884 71.7517 37.0626 71.8404 37.0626 72.2127C37.0626 72.5339 37.039 72.6406 36.9735 72.6154C36.8211 72.5568 36.744 72.7246 36.7204 73.1658C36.6982 73.5828 36.6258 73.718 36.4591 73.6541C36.4023 73.6323 36.3711 73.7409 36.3622 73.9925C36.3523 74.2763 36.315 74.3869 36.2032 74.4651C36.0958 74.5406 36.0688 74.6137 36.1013 74.7429C36.1315 74.8635 36.1203 74.9029 36.0653 74.8688C36.012 74.8359 35.9898 74.8874 35.9991 75.0227C36.0347 75.5529 35.9971 75.7536 35.8471 75.834C35.7413 75.8906 35.7108 75.8914 35.7447 75.8365C35.7713 75.7936 35.7632 75.7584 35.7268 75.7584C35.6904 75.7584 35.6577 75.9077 35.654 76.09C35.6503 76.2724 35.6109 76.4441 35.5665 76.4716C35.5083 76.5076 35.5074 76.5351 35.5633 76.5698C35.6187 76.604 35.6157 76.6457 35.5532 76.7135C35.4884 76.784 35.4401 76.7886 35.37 76.7313C35.2983 76.6725 35.2786 76.6787 35.2898 76.7563C35.348 77.1624 35.2802 77.5031 35.1279 77.5698C34.9893 77.6307 34.9658 77.6999 34.9507 78.0938C34.9412 78.3433 34.8996 78.5881 34.8584 78.6376C34.8089 78.6974 34.8077 78.7425 34.8551 78.7718C34.8943 78.7961 34.9081 78.8638 34.8856 78.9223C34.8505 79.0138 34.8327 79.012 34.7576 78.9092C34.6962 78.8254 34.6552 78.8142 34.6197 78.8716C34.592 78.9167 34.6069 78.9534 34.6531 78.9534C34.7134 78.9534 34.7157 78.9791 34.6612 79.0446C34.6195 79.0949 34.5878 79.2307 34.5906 79.3464C34.5996 79.7262 34.5791 79.8054 34.4711 79.8054C34.4126 79.8054 34.3646 79.8533 34.3646 79.9119C34.3646 79.9705 34.3394 80.0184 34.3087 80.0184C34.278 80.0184 34.248 80.083 34.242 80.162C34.2361 80.2408 34.2576 80.2891 34.2899 80.2692C34.3222 80.2493 34.3442 80.2841 34.3389 80.3466C34.3236 80.5246 34.5418 80.6336 34.6815 80.5177C34.745 80.4648 34.7812 80.3805 34.7621 80.3301C34.739 80.2703 34.7656 80.2534 34.8386 80.2815C34.9394 80.3202 34.9392 80.3074 34.8368 80.1512C34.7298 79.9877 34.7312 79.9778 34.8623 79.9778C34.9474 79.9778 34.9761 80.0033 34.9362 80.0433C34.8962 80.0832 34.9085 80.1464 34.9676 80.2055C35.0956 80.3335 35.2166 80.3287 35.2166 80.1959C35.2166 80.1373 35.1847 80.0894 35.1456 80.0894C35.1066 80.0894 35.0746 80.0555 35.0746 80.0141C35.0746 79.9728 35.1016 79.9557 35.1346 79.9762C35.1676 79.9966 35.1897 79.8388 35.1834 79.6254C35.1724 79.2477 35.2001 79.203 35.4327 79.2241C35.4669 79.2271 35.4822 79.1313 35.525 78.649C35.5312 78.5792 35.5688 78.4994 35.6087 78.4715C35.722 78.3927 35.9266 78.0466 35.9266 77.934C35.9266 77.8783 35.973 77.8149 36.0294 77.7931C36.086 77.7714 36.1666 77.6257 36.2089 77.469C36.2509 77.3124 36.3171 77.1649 36.3557 77.1411C36.3942 77.1172 36.4744 76.9812 36.534 76.8388C36.5935 76.6963 36.6663 76.5628 36.6959 76.5419C36.7254 76.5209 36.8729 76.2483 37.0238 75.9359C37.1746 75.6235 37.3328 75.3241 37.3756 75.2706C37.4771 75.1432 38.0978 74.018 38.2421 73.6994C38.3041 73.5627 38.3965 73.403 38.4475 73.3444C38.4984 73.2858 38.6789 72.9738 38.8486 72.6509C39.0183 72.3282 39.2434 71.9129 39.3487 71.7279C39.4541 71.5431 39.6073 71.2641 39.6891 71.1079C39.7709 70.9517 39.9362 70.6482 40.0562 70.4334C40.1762 70.2186 40.3514 69.8991 40.4456 69.7234C40.5399 69.5477 40.6945 69.2761 40.7892 69.1199C40.884 68.9637 41.0285 68.7081 41.1103 68.5519C41.192 68.3957 41.3503 68.1082 41.4621 67.9129C41.574 67.7177 41.7433 67.4141 41.8385 67.2384C42.0662 66.8184 42.2827 66.4313 42.5341 65.9959C42.6468 65.8007 42.8197 65.4812 42.9185 65.2859C43.0172 65.0907 43.1747 64.8031 43.2682 64.6469C43.3618 64.4907 43.5591 64.1233 43.707 63.8304C43.8547 63.5375 44.0416 63.2024 44.1223 63.0858C44.2031 62.9692 44.3243 62.7615 44.3918 62.6243C44.4594 62.4871 44.5459 62.327 44.584 62.2684C44.6492 62.1685 45.4215 60.779 45.7797 60.1173C45.8684 59.9531 46.0188 59.6911 46.1134 59.5349C46.2081 59.3787 46.3264 59.171 46.3761 59.0734C46.4854 58.8583 47.3379 57.3059 47.4286 57.1564C47.5342 56.9828 49.4947 53.4376 49.8556 52.7679C50.0384 52.4285 50.278 51.9945 50.3881 51.8032C50.4981 51.612 50.7166 51.2087 50.8737 50.907C51.0308 50.6052 51.1954 50.3143 51.2394 50.2605C51.2834 50.2069 51.4584 49.8997 51.6283 49.5779C51.7982 49.2559 52.0248 48.8405 52.132 48.6549C52.2394 48.469 52.394 48.1891 52.476 48.0329C52.5579 47.8767 52.7156 47.5892 52.8268 47.3939C52.9379 47.1987 53.1102 46.8792 53.2098 46.6839C53.3094 46.4887 53.4864 46.1692 53.603 45.9739C53.7196 45.7787 53.8653 45.5231 53.9266 45.4059C53.9878 45.2888 54.1245 45.0415 54.2301 44.8567C54.3357 44.6718 54.5773 44.2245 54.7668 43.8627C54.9564 43.5008 55.1499 43.157 55.1967 43.0984C55.2438 43.0398 55.3198 42.912 55.3659 42.8144C55.4119 42.7168 55.5013 42.5656 55.5649 42.4784C55.7763 42.188 55.5801 42.1759 50.5303 42.1676C45.506 42.1596 41.7903 42.0991 41.7158 42.0244C41.6464 41.9548 41.818 41.3355 42.0475 40.8264C42.1619 40.5726 42.2976 40.2691 42.3491 40.1519C42.4008 40.0348 42.5227 39.7632 42.6205 39.5484C42.7765 39.2053 43.041 38.5995 43.4395 37.6729C43.5054 37.5201 43.647 37.2212 43.7544 37.0089C43.8618 36.7966 43.9496 36.5895 43.9496 36.5485C43.9496 36.5077 44.0265 36.3112 44.1206 36.112C44.2145 35.9128 44.3941 35.5103 44.5196 35.2174C44.7546 34.6693 44.999 34.1171 45.2266 33.6199C45.2981 33.4637 45.4586 33.0963 45.583 32.8034C45.8444 32.1882 45.9904 31.86 46.2491 31.3053C46.3512 31.0866 46.4346 30.8814 46.4346 30.8495C46.4346 30.8174 46.5324 30.5809 46.6519 30.3241C46.7714 30.0671 46.9347 29.7131 47.0145 29.5374C47.0946 29.3617 47.2364 29.0661 47.3298 28.8807C47.4231 28.6952 47.4996 28.506 47.4996 28.4602C47.4996 28.3746 47.8257 27.6437 48.0708 27.1804C48.1472 27.0359 48.2096 26.8822 48.2096 26.8387C48.2096 26.795 48.3078 26.5458 48.4276 26.2847C48.5474 26.0236 48.6876 25.7141 48.7391 25.5969C48.7908 25.4798 48.9127 25.2082 49.0105 24.9934C49.1665 24.6503 49.431 24.0445 49.8295 23.1179C49.8954 22.9651 50.037 22.6662 50.1444 22.4539C50.2518 22.2416 50.3396 22.0345 50.3396 21.9935C50.3396 21.9527 50.4165 21.7562 50.5106 21.557C50.6045 21.3579 50.7841 20.9553 50.9096 20.6624C51.1446 20.1143 51.389 19.5621 51.6166 19.0649C51.6881 18.9087 51.8486 18.5413 51.973 18.2484C52.2344 17.6332 52.3804 17.305 52.6391 16.7503C52.7412 16.5316 52.8246 16.3245 52.8246 16.2899C52.8246 16.2553 52.9017 16.0668 52.9957 15.871C53.3786 15.0749 53.5955 14.5559 53.5487 14.5481C53.5215 14.5434 53.4698 14.5452 53.4338 14.552C53.398 14.5589 53.4033 14.5227 53.4455 14.4717C53.5089 14.3954 52.5983 14.3789 48.3456 14.3789C45.4983 14.3789 43.1686 14.4048 43.1686 14.4364ZM63.0813 18.0402C62.998 18.1749 63.1195 18.2081 63.243 18.0844C63.3538 17.9738 63.3539 17.9644 63.2455 17.9644C63.1809 17.9644 63.107 17.9985 63.0813 18.0402ZM41.37 18.2958C41.2882 18.3774 41.3182 18.4614 41.4291 18.4614C41.4877 18.4614 41.5356 18.4135 41.5356 18.3549C41.5356 18.244 41.4517 18.214 41.37 18.2958ZM61.9126 19.6661C61.9126 19.7041 61.9685 19.714 62.0369 19.6885C62.1453 19.6476 62.1489 19.6569 62.0644 19.7609C62.0111 19.8262 61.9313 19.8596 61.8869 19.8347C61.8324 19.8042 61.8335 19.8193 61.8903 19.8807C61.9584 19.9544 61.9957 19.9506 62.0855 19.8606C62.2378 19.7083 62.2249 19.5974 62.0546 19.5974C61.9765 19.5974 61.9126 19.6283 61.9126 19.6661ZM55.8066 29.0049C55.8066 29.2034 55.9075 29.2337 56.0603 29.0811C56.2129 28.9282 56.1826 28.8274 55.9841 28.8274C55.8421 28.8274 55.8066 28.8629 55.8066 29.0049ZM37.465 29.3008C37.3832 29.3824 37.4132 29.4664 37.5241 29.4664C37.5827 29.4664 37.6306 29.4185 37.6306 29.3599C37.6306 29.249 37.5467 29.219 37.465 29.3008ZM55.125 30.0722C55.125 30.2359 55.2388 30.2724 55.3483 30.1441C55.4692 30.0021 55.4456 29.9208 55.2835 29.9208C55.1691 29.9208 55.125 29.9629 55.125 30.0722ZM36.7076 31.4899C36.7076 31.5485 36.7556 31.5964 36.8141 31.5964C36.8727 31.5964 36.9206 31.5485 36.9206 31.4899C36.9206 31.4313 36.8727 31.3834 36.8141 31.3834C36.7556 31.3834 36.7076 31.4313 36.7076 31.4899ZM51.1916 36.0426C51.1916 36.1369 51.211 36.1418 51.2981 36.0694C51.3567 36.0208 51.4046 35.9689 51.4046 35.9542C51.4046 35.9395 51.3567 35.9274 51.2981 35.9274C51.2396 35.9274 51.1916 35.9792 51.1916 36.0426ZM33.56 40.3058C33.4782 40.3874 33.5082 40.4714 33.6191 40.4714C33.6777 40.4714 33.7256 40.4235 33.7256 40.3649C33.7256 40.254 33.6417 40.224 33.56 40.3058ZM32.8026 42.4949C32.8026 42.5535 32.8506 42.6014 32.9091 42.6014C32.9677 42.6014 33.0156 42.5535 33.0156 42.4949C33.0156 42.4363 32.9677 42.3884 32.9091 42.3884C32.8506 42.3884 32.8026 42.4363 32.8026 42.4949ZM44.92 48.4708C44.8382 48.5524 44.8682 48.6364 44.9791 48.6364C45.0377 48.6364 45.0856 48.5885 45.0856 48.5299C45.0856 48.419 45.0017 48.389 44.92 48.4708ZM44.2281 50.583C44.1999 50.6139 44.1834 50.8374 44.2095 50.8374C44.251 50.8374 44.4466 50.6462 44.4466 50.6058C44.4466 50.5825 44.2477 50.5617 44.2281 50.583ZM55.1854 51.5275C55.1366 51.5449 55.0966 51.6113 55.0966 51.675C55.0966 51.7805 55.1075 51.7801 55.2166 51.6708C55.345 51.5424 55.3304 51.4757 55.1854 51.5275ZM50.9254 57.5625C50.8766 57.5799 50.8366 57.6463 50.8366 57.71C50.8366 57.8155 50.8475 57.8151 50.9566 57.7058C51.085 57.5774 51.0704 57.5107 50.9254 57.5625ZM39.95 63.0258C39.8682 63.1074 39.8982 63.1914 40.0091 63.1914C40.0677 63.1914 40.1156 63.1435 40.1156 63.0849C40.1156 62.974 40.0317 62.944 39.95 63.0258ZM46.6654 63.5975C46.6166 63.6149 46.5766 63.6813 46.5766 63.745C46.5766 63.8505 46.5875 63.8501 46.6966 63.7408C46.825 63.6124 46.8104 63.5457 46.6654 63.5975ZM42.4054 69.6325C42.3566 69.6499 42.3166 69.7163 42.3166 69.78C42.3166 69.8855 42.3275 69.8851 42.4366 69.7758C42.565 69.6474 42.5504 69.5807 42.4054 69.6325ZM38.1454 75.6675C38.0966 75.6849 38.0566 75.7513 38.0566 75.815C38.0566 75.9205 38.0675 75.9201 38.1766 75.8108C38.305 75.6824 38.2904 75.6157 38.1454 75.6675ZM34.2471 79.7729C34.1855 79.9334 34.2407 79.9419 34.3824 79.7935C34.4875 79.6835 34.49 79.6634 34.3978 79.6634C34.3382 79.6634 34.2702 79.7127 34.2471 79.7729Z" fill="#FCD214"/>
<path fill-rule="evenodd" clip-rule="evenodd" d="M42.828 14.4282C42.6972 14.559 42.7267 14.6795 42.8875 14.6705C43.0211 14.663 43.1651 14.5221 43.1677 14.3963C43.1695 14.3114 42.9216 14.3347 42.828 14.4282ZM45.8542 14.3963C47.2336 14.4071 49.4701 14.4071 50.8242 14.3963C52.1784 14.3854 51.0498 14.3766 48.3163 14.3766C45.5828 14.3766 44.4749 14.3854 45.8542 14.3963ZM53.4615 14.4523C53.4106 14.5138 53.3981 14.5585 53.434 14.5516C53.47 14.5448 53.5217 14.543 53.5488 14.5477C53.5957 14.5555 53.3788 15.0745 52.9959 15.8706C52.9019 16.0664 52.8248 16.2549 52.8248 16.2895C52.8248 16.3241 52.7414 16.5312 52.6393 16.7499C52.3805 17.3046 52.2346 17.6328 51.9732 18.248C51.8487 18.5409 51.6883 18.9083 51.6168 19.0645C51.3892 19.5617 51.1448 20.1139 50.9098 20.662C50.7843 20.9549 50.6046 21.3574 50.5107 21.5566C50.4167 21.7558 50.3398 21.9523 50.3398 21.9931C50.3398 22.0341 50.252 22.2412 50.1446 22.4535C50.0372 22.6658 49.8955 22.9647 49.8297 23.1175C49.4312 24.0441 49.1667 24.6499 49.0107 24.993C48.9129 25.2078 48.791 25.4794 48.7393 25.5965C48.6878 25.7137 48.5476 26.0232 48.4278 26.2843C48.308 26.5454 48.2098 26.7946 48.2098 26.8383C48.2098 26.8818 48.1473 27.0355 48.071 27.18C47.8259 27.6433 47.4998 28.3742 47.4998 28.4598C47.4998 28.5056 47.4233 28.6948 47.3299 28.8803C47.2366 29.0657 47.0948 29.3613 47.0147 29.537C46.9348 29.7127 46.7715 30.0667 46.6521 30.3237C46.5326 30.5805 46.4348 30.817 46.4348 30.8491C46.4348 30.881 46.3514 31.0862 46.2493 31.3049C45.9905 31.8596 45.8446 32.1878 45.5832 32.803C45.4587 33.0959 45.2983 33.4633 45.2268 33.6195C44.9992 34.1167 44.7548 34.6689 44.5198 35.217C44.3943 35.5099 44.2146 35.9124 44.1207 36.1116C44.0267 36.3108 43.9498 36.5072 43.9498 36.5481C43.9498 36.5891 43.862 36.7962 43.7546 37.0085C43.6472 37.2208 43.5055 37.5197 43.4397 37.6725C43.0412 38.5991 42.7767 39.2049 42.6207 39.548C42.5229 39.7628 42.401 40.0344 42.3493 40.1515C42.2978 40.2687 42.162 40.5722 42.0477 40.826C41.8182 41.3351 41.6466 41.9544 41.716 42.024C41.7905 42.0987 45.5061 42.1592 50.5305 42.1672C55.5803 42.1755 55.7765 42.1876 55.5651 42.478C55.5015 42.5651 55.4121 42.7164 55.3661 42.814C55.3199 42.9116 55.244 43.0394 55.1969 43.098C55.1501 43.1566 54.9566 43.5004 54.767 43.8623C54.5774 44.2241 54.3359 44.6714 54.2303 44.8563C54.1246 45.0411 53.988 45.2884 53.9267 45.4055C53.8655 45.5227 53.7198 45.7783 53.6032 45.9735C53.4865 46.1688 53.3096 46.4883 53.21 46.6835C53.1104 46.8788 52.9381 47.1983 52.8269 47.3935C52.7158 47.5888 52.558 47.8763 52.4762 48.0325C52.3942 48.1887 52.2396 48.4686 52.1322 48.6545C52.025 48.8401 51.7983 49.2555 51.6285 49.5775C51.4586 49.8993 51.2836 50.2065 51.2396 50.2601C51.1955 50.3139 51.031 50.6048 50.8739 50.9066C50.7168 51.2083 50.4983 51.6116 50.3883 51.8028C50.2782 51.9941 50.0386 52.4281 49.8558 52.7675C49.4949 53.4372 47.5344 56.9824 47.4288 57.156C47.3381 57.3055 46.4856 58.8579 46.3762 59.073C46.3265 59.1706 46.2083 59.3783 46.1135 59.5345C46.0189 59.6907 45.8686 59.9527 45.7798 60.1169C45.4216 60.7786 44.6493 62.1681 44.5842 62.268C44.546 62.3266 44.4596 62.4867 44.392 62.6239C44.3245 62.7611 44.2033 62.9688 44.1225 63.0854C44.0418 63.202 43.8549 63.5371 43.7072 63.83C43.5593 64.1229 43.3619 64.4903 43.2684 64.6465C43.1749 64.8027 43.0174 65.0903 42.9187 65.2855C42.8198 65.4808 42.647 65.8003 42.5343 65.9955C42.2829 66.4309 42.0664 66.818 41.8386 67.238C41.7435 67.4137 41.5742 67.7173 41.4623 67.9125C41.3505 68.1078 41.1922 68.3953 41.1105 68.5515C41.0287 68.7077 40.8842 68.9633 40.7894 69.1195C40.6946 69.2757 40.54 69.5473 40.4458 69.723C40.3515 69.8987 40.1763 70.2182 40.0564 70.433C39.9364 70.6478 39.7711 70.9513 39.6893 71.1075C39.6075 71.2637 39.4543 71.5427 39.3488 71.7275C39.2436 71.9125 39.0185 72.3278 38.8488 72.6505C38.6791 72.9734 38.4986 73.2854 38.4477 73.344C38.3967 73.4026 38.3043 73.5623 38.2423 73.699C38.098 74.0176 37.4773 75.1428 37.3757 75.2702C37.333 75.3237 37.1748 75.6231 37.0239 75.9355C36.8731 76.2479 36.7256 76.5205 36.6961 76.5415C36.6665 76.5624 36.5937 76.6959 36.5342 76.8384C36.4746 76.9808 36.3944 77.1168 36.3558 77.1407C36.3173 77.1645 36.2511 77.312 36.209 77.4686C36.1668 77.6253 36.0862 77.771 36.0296 77.7927C35.9731 77.8145 35.9268 77.8779 35.9268 77.9336C35.9268 78.0462 35.7222 78.3923 35.6089 78.4711C35.569 78.499 35.5313 78.5788 35.5251 78.6486C35.4824 79.1309 35.4671 79.2267 35.4328 79.2237C35.214 79.2038 35.173 79.2535 35.1732 79.5388C35.1733 79.7047 35.1478 79.8964 35.1165 79.9648C35.08 80.0446 35.0892 80.089 35.1424 80.089C35.1879 80.089 35.2069 80.0592 35.1843 80.0228C35.1618 79.9864 35.2317 79.9465 35.3398 79.934C35.5202 79.9135 35.5381 79.8836 35.558 79.5743C35.5775 79.2698 35.5965 79.237 35.7532 79.237C35.8911 79.237 35.9268 79.2004 35.9268 79.0595C35.9268 78.9175 35.9623 78.882 36.1043 78.882C36.2463 78.882 36.2818 78.8465 36.2818 78.7045C36.2818 78.6069 36.3157 78.527 36.3571 78.527C36.3984 78.527 36.4148 78.4986 36.3933 78.464C36.3718 78.4294 36.41 78.3575 36.4778 78.3042C36.5896 78.2167 36.5921 78.2194 36.5039 78.3318C36.4503 78.4001 36.4389 78.456 36.4785 78.456C36.5731 78.456 36.6368 78.2821 36.6368 78.0241C36.6368 77.8506 36.6656 77.817 36.8143 77.817C36.9563 77.817 36.9918 77.7815 36.9918 77.6395C36.9918 77.4975 37.0273 77.462 37.1693 77.462C37.3349 77.462 37.3468 77.4384 37.3468 77.107C37.3468 76.7756 37.3587 76.752 37.5243 76.752C37.6649 76.752 37.7018 76.7161 37.7018 76.5795C37.7018 76.4545 37.746 76.4006 37.8616 76.3842C37.9979 76.3649 38.0245 76.312 38.043 76.0243C38.0549 75.8388 38.0948 75.6831 38.1317 75.6781C38.1686 75.6733 38.2388 75.6653 38.2876 75.6604C38.3364 75.6556 38.3866 75.5796 38.399 75.4918C38.4152 75.3776 38.4695 75.332 38.5895 75.332C38.7198 75.332 38.7624 75.2883 38.7798 75.1368C38.7959 74.9964 38.8423 74.9415 38.9443 74.9415C39.0897 74.9415 39.0995 74.9145 39.1136 74.472C39.1213 74.2345 39.1357 74.2184 39.3096 74.2516C39.4797 74.284 39.494 74.2702 39.4621 74.1033C39.4323 73.947 39.4546 73.9163 39.6115 73.898C39.778 73.8786 39.7984 73.843 39.818 73.5393C39.8375 73.2348 39.8565 73.202 40.0132 73.202C40.1511 73.202 40.1868 73.1654 40.1868 73.0245C40.1868 72.8825 40.2223 72.847 40.3643 72.847C40.5063 72.847 40.5418 72.8115 40.5418 72.6695C40.5418 72.5719 40.5757 72.492 40.6171 72.492C40.6584 72.492 40.6748 72.4636 40.6533 72.429C40.6318 72.3944 40.67 72.3225 40.7378 72.2692C40.8496 72.1817 40.8521 72.1844 40.7639 72.2968C40.7103 72.3651 40.6989 72.421 40.7385 72.421C40.8331 72.421 40.8968 72.2471 40.8968 71.9891C40.8968 71.8156 40.9256 71.782 41.0743 71.782C41.2163 71.782 41.2518 71.7465 41.2518 71.6045C41.2518 71.4625 41.2873 71.427 41.4293 71.427C41.5949 71.427 41.6068 71.4034 41.6068 71.072C41.6068 70.7406 41.6187 70.717 41.7843 70.717C41.9249 70.717 41.9618 70.6811 41.9618 70.5445C41.9618 70.4195 42.006 70.3656 42.1216 70.3492C42.2579 70.3299 42.2845 70.277 42.303 69.9893C42.3149 69.8038 42.3548 69.6481 42.3917 69.6431C42.4286 69.6383 42.4988 69.6303 42.5476 69.6254C42.5964 69.6206 42.6466 69.5446 42.659 69.4568C42.6752 69.3426 42.7295 69.297 42.8495 69.297C42.9798 69.297 43.0224 69.2533 43.0398 69.1018C43.0559 68.9614 43.1023 68.9065 43.2043 68.9065C43.3497 68.9065 43.3595 68.8795 43.3737 68.437C43.3813 68.1995 43.3957 68.1834 43.5696 68.2166C43.7397 68.249 43.754 68.2352 43.7221 68.0683C43.6923 67.912 43.7146 67.8813 43.8715 67.863C44.038 67.8436 44.0584 67.808 44.078 67.5043C44.0975 67.1998 44.1165 67.167 44.2732 67.167C44.4111 67.167 44.4468 67.1304 44.4468 66.9895C44.4468 66.8475 44.4823 66.812 44.6243 66.812C44.7663 66.812 44.8018 66.7765 44.8018 66.6345C44.8018 66.5369 44.8357 66.457 44.8771 66.457C44.9184 66.457 44.9348 66.4286 44.9133 66.394C44.8918 66.3594 44.93 66.2875 44.9978 66.2342C45.1096 66.1467 45.1121 66.1494 45.0239 66.2618C44.9703 66.3301 44.9589 66.386 44.9985 66.386C45.0931 66.386 45.1568 66.2121 45.1568 65.9541C45.1568 65.7806 45.1856 65.747 45.3343 65.747C45.4763 65.747 45.5118 65.7115 45.5118 65.5695C45.5118 65.4275 45.5473 65.392 45.6893 65.392C45.8549 65.392 45.8668 65.3684 45.8668 65.037C45.8668 64.7056 45.8787 64.682 46.0443 64.682C46.1849 64.682 46.2218 64.6461 46.2218 64.5095C46.2218 64.3845 46.266 64.3306 46.3816 64.3142C46.5179 64.2949 46.5445 64.242 46.563 63.9543C46.5749 63.7688 46.6148 63.6131 46.6517 63.6081C46.6886 63.6033 46.7588 63.5953 46.8076 63.5904C46.8564 63.5856 46.9066 63.5096 46.919 63.4218C46.9352 63.3076 46.9895 63.262 47.1095 63.262C47.2398 63.262 47.2824 63.2183 47.2998 63.0668C47.3159 62.9264 47.3623 62.8715 47.4643 62.8715C47.6097 62.8715 47.6194 62.8445 47.6336 62.402C47.6413 62.1645 47.6557 62.1484 47.8296 62.1816C47.9997 62.214 48.014 62.2002 47.9821 62.0333C47.9523 61.877 47.9746 61.8463 48.1315 61.828C48.298 61.8086 48.3184 61.773 48.338 61.4693C48.3575 61.1648 48.3765 61.132 48.5332 61.132C48.6711 61.132 48.7068 61.0954 48.7068 60.9545C48.7068 60.8125 48.7423 60.777 48.8843 60.777C49.0263 60.777 49.0618 60.7415 49.0618 60.5995C49.0618 60.5019 49.0957 60.422 49.1371 60.422C49.1784 60.422 49.1948 60.3936 49.1733 60.359C49.1518 60.3244 49.19 60.2525 49.2578 60.1992C49.3696 60.1117 49.3721 60.1144 49.2839 60.2268C49.2303 60.2951 49.2189 60.351 49.2585 60.351C49.3531 60.351 49.4168 60.1771 49.4168 59.9191C49.4168 59.7456 49.4456 59.712 49.5943 59.712C49.7363 59.712 49.7718 59.6765 49.7718 59.5345C49.7718 59.3925 49.8073 59.357 49.9493 59.357C50.1149 59.357 50.1268 59.3334 50.1268 59.002C50.1268 58.6706 50.1387 58.647 50.3043 58.647C50.4449 58.647 50.4818 58.6111 50.4818 58.4745C50.4818 58.3495 50.526 58.2956 50.6416 58.2792C50.7779 58.2599 50.8045 58.207 50.823 57.9193C50.8349 57.7338 50.8748 57.5781 50.9117 57.5731C50.9486 57.5683 51.0188 57.5603 51.0676 57.5554C51.1164 57.5506 51.1666 57.4746 51.179 57.3868C51.1952 57.2726 51.2495 57.227 51.3695 57.227C51.4998 57.227 51.5424 57.1833 51.5598 57.0318C51.5759 56.8913 51.6223 56.8365 51.7243 56.8365C51.8697 56.8365 51.8794 56.8095 51.8937 56.367C51.9013 56.1295 51.9157 56.1134 52.0896 56.1466C52.2597 56.179 52.274 56.1652 52.2421 55.9984C52.2123 55.842 52.2346 55.8113 52.3915 55.793C52.558 55.7736 52.5784 55.738 52.598 55.4343C52.6175 55.1298 52.6365 55.097 52.7932 55.097C52.9311 55.097 52.9668 55.0604 52.9668 54.9195C52.9668 54.7775 53.0023 54.742 53.1443 54.742C53.2863 54.742 53.3218 54.7065 53.3218 54.5645C53.3218 54.4669 53.3557 54.387 53.3971 54.387C53.4384 54.387 53.4548 54.3586 53.4333 54.324C53.4118 54.2894 53.45 54.2175 53.5178 54.1642C53.6296 54.0767 53.6321 54.0794 53.5439 54.1918C53.4903 54.2601 53.4789 54.316 53.5185 54.316C53.6131 54.316 53.6768 54.1421 53.6768 53.8841C53.6768 53.7106 53.7056 53.677 53.8543 53.677C53.9963 53.677 54.0318 53.6415 54.0318 53.4995C54.0318 53.3575 54.0673 53.322 54.2093 53.322C54.3749 53.322 54.3868 53.2984 54.3868 52.967C54.3868 52.6356 54.3987 52.612 54.5643 52.612C54.7049 52.612 54.7418 52.5761 54.7418 52.4395C54.7418 52.3145 54.786 52.2606 54.9016 52.2442C55.0379 52.2249 55.0645 52.172 55.083 51.8843C55.0949 51.6988 55.1348 51.5431 55.1717 51.5381C55.2086 51.5332 55.2788 51.5253 55.3276 51.5204C55.3764 51.5156 55.4266 51.4396 55.439 51.3518C55.4552 51.2376 55.5095 51.192 55.6295 51.192C55.7598 51.192 55.8024 51.1483 55.8198 50.9968C55.8359 50.8563 55.8823 50.8015 55.9843 50.8015C56.1297 50.8015 56.1394 50.7745 56.1536 50.332C56.1613 50.0945 56.1757 50.0784 56.3496 50.1116C56.5197 50.144 56.534 50.1302 56.5021 49.9634C56.4723 49.807 56.4946 49.7763 56.6515 49.758C56.818 49.7386 56.8384 49.703 56.858 49.3993C56.8775 49.0948 56.8965 49.062 57.0532 49.062C57.2162 49.062 57.2581 49.0009 57.2332 48.8007C57.2275 48.7546 57.3117 48.7066 57.4201 48.6942C57.541 48.6802 57.6095 48.6342 57.5971 48.5753C57.5859 48.5224 57.6097 48.4395 57.6496 48.3912C57.6897 48.343 57.7061 48.287 57.686 48.2668C57.6658 48.2467 57.7061 48.1857 57.7753 48.1314C57.89 48.0416 57.8924 48.0437 57.8039 48.1568C57.7467 48.2297 57.7373 48.281 57.7813 48.281C57.8729 48.281 57.972 48.0313 57.9996 47.7308C58.0041 47.6819 58.0877 47.642 58.1853 47.642C58.2829 47.642 58.3591 47.618 58.3545 47.5888C58.3241 47.3972 58.3791 47.287 58.5048 47.287C58.6097 47.287 58.6497 47.2361 58.6576 47.0918C58.6635 46.9844 58.6759 46.8646 58.685 46.8255C58.694 46.7865 58.705 46.7169 58.7096 46.6707C58.7141 46.6246 58.7897 46.5766 58.8776 46.5642C58.9913 46.5481 59.0357 46.4955 59.0316 46.3818C59.0279 46.2742 59.0671 46.222 59.1518 46.222C59.3124 46.222 59.3779 46.1132 59.398 45.813C59.4141 45.5697 59.4585 45.4836 59.5757 45.4676C59.6115 45.4628 59.6728 45.4548 59.7118 45.4499C59.7509 45.4451 59.7828 45.3771 59.7828 45.299C59.7828 45.2064 59.8302 45.157 59.9191 45.157C60.0116 45.157 60.07 45.0913 60.1004 44.9525C60.1297 44.8192 60.1873 44.7512 60.2658 44.7573C60.3322 44.7624 60.3902 44.7186 60.3948 44.66C60.4259 44.2725 60.5162 44.092 60.6792 44.092C60.8118 44.092 60.8478 44.054 60.8478 43.9145C60.8478 43.8073 60.8883 43.737 60.9501 43.737C61.1141 43.737 61.1545 43.6346 61.1957 43.1158C61.1996 43.0669 61.2667 43.027 61.3448 43.027C61.4788 43.027 61.5172 42.9594 61.4932 42.7657C61.4875 42.7196 61.5717 42.6716 61.6801 42.6592C61.809 42.6443 61.8773 42.595 61.8773 42.5167C61.8773 42.4507 61.9492 42.3296 62.0371 42.2476C62.1249 42.1656 62.2016 42.0598 62.2076 42.0124C62.2135 41.9652 62.2259 41.8946 62.235 41.8555C62.244 41.8165 62.255 41.7446 62.2596 41.6958C62.2641 41.6469 62.3477 41.607 62.4453 41.607C62.5429 41.607 62.6191 41.583 62.6145 41.5538C62.5841 41.3622 62.6391 41.252 62.7648 41.252C62.8697 41.252 62.9097 41.2011 62.9176 41.0568C62.9235 40.9494 62.9359 40.8296 62.945 40.7905C62.954 40.7515 62.965 40.6819 62.9696 40.6357C62.9741 40.5896 63.0497 40.5416 63.1376 40.5292C63.2513 40.5131 63.2957 40.4605 63.2916 40.3468C63.2879 40.2392 63.3271 40.187 63.4118 40.187C63.5724 40.187 63.6379 40.0782 63.658 39.778C63.6741 39.5347 63.7185 39.4486 63.8357 39.4326C63.8715 39.4278 63.9328 39.4198 63.9718 39.4149C64.0109 39.4101 64.0428 39.3421 64.0428 39.264C64.0428 39.1714 64.0902 39.122 64.1791 39.122C64.2716 39.122 64.33 39.0563 64.3604 38.9175C64.3897 38.7842 64.4473 38.7162 64.5258 38.7223C64.5922 38.7274 64.6502 38.6836 64.6548 38.625C64.6859 38.2375 64.7762 38.057 64.9392 38.057C65.0718 38.057 65.1078 38.019 65.1078 37.8795C65.1078 37.7723 65.1483 37.702 65.2101 37.702C65.3624 37.702 65.4112 37.5815 65.4442 37.1226L65.4742 36.708H58.1512C53.7933 36.708 50.8444 36.6819 50.8682 36.6437C50.8901 36.6082 50.9746 36.5967 51.056 36.618C51.1703 36.648 51.2009 36.6262 51.1899 36.5227C51.1428 36.0827 51.1899 35.927 51.3693 35.927C51.5113 35.927 51.5468 35.8915 51.5468 35.7495C51.5468 35.6075 51.5823 35.572 51.7243 35.572C51.8899 35.572 51.9018 35.5484 51.9018 35.217C51.9018 34.8883 51.9146 34.862 52.0745 34.862C52.2103 34.862 52.2522 34.8201 52.2698 34.6668C52.2881 34.5079 52.323 34.4758 52.4574 34.4946C52.582 34.5122 52.6193 34.4859 52.609 34.3881C52.5634 33.9511 52.6104 33.797 52.7893 33.797C52.94 33.797 52.9668 33.7642 52.9668 33.5797C52.9668 33.4603 52.9924 33.3785 53.0234 33.3976C53.1401 33.4697 53.265 33.3099 53.3007 33.0433C53.3406 32.745 53.4251 32.6505 53.5939 32.7153C53.6688 32.7441 53.6889 32.724 53.6601 32.6491C53.6042 32.5034 53.7136 32.3429 53.869 32.342C53.9981 32.3415 54.0089 32.3099 54.0237 31.8978C54.0306 31.7011 54.0581 31.667 54.2093 31.667C54.3513 31.667 54.3868 31.6315 54.3868 31.4895C54.3868 31.3271 54.4788 31.2705 54.6886 31.3037C54.7179 31.3083 54.7381 31.288 54.7335 31.2588C54.6737 30.8801 54.7523 30.602 54.9193 30.602C55.07 30.602 55.0968 30.5692 55.0968 30.3847C55.0968 30.2387 55.1236 30.1842 55.1788 30.2182C55.2349 30.253 55.2411 30.2376 55.1985 30.1693C55.0588 29.9454 55.1369 29.8455 55.3483 29.9779C55.3929 30.0056 55.4291 29.9351 55.4394 29.8011C55.4568 29.5716 55.5686 29.4454 55.7092 29.4967C55.7532 29.5127 55.7882 29.4884 55.7868 29.4426C55.7726 28.9394 55.8086 28.827 55.9843 28.827C56.1263 28.827 56.1618 28.7915 56.1618 28.6495C56.1618 28.5075 56.1973 28.472 56.3393 28.472C56.4813 28.472 56.5168 28.4365 56.5168 28.2945C56.5168 28.1969 56.5507 28.117 56.5921 28.117C56.6334 28.117 56.6498 28.0886 56.6283 28.054C56.6068 28.0194 56.645 27.9475 56.7128 27.8942C56.8246 27.8067 56.8271 27.8094 56.7389 27.9218C56.6853 27.9901 56.6739 28.046 56.7135 28.046C56.807 28.046 56.8718 27.8726 56.8718 27.6218C56.8718 27.429 57.028 27.2925 57.1572 27.3724C57.1901 27.3928 57.2401 27.3719 57.2683 27.3262C57.3005 27.2742 57.2889 27.2622 57.2378 27.2938C57.1927 27.3216 57.1558 27.3106 57.1558 27.2693C57.1558 27.2279 57.1917 27.194 57.2355 27.194C57.2905 27.194 57.2879 27.1612 57.2268 27.0875C57.1658 27.0138 57.1631 26.981 57.2181 26.981C57.262 26.981 57.2978 26.9194 57.2978 26.844C57.2978 26.7559 57.355 26.6988 57.4576 26.6842C57.5602 26.6697 57.6255 26.6043 57.64 26.5018C57.6544 26.4002 57.7117 26.342 57.7973 26.342C57.9052 26.342 57.9412 26.2715 57.9791 25.987C58.0165 25.7042 58.0531 25.632 58.159 25.632C58.2858 25.632 58.3225 25.5612 58.2971 25.3658C58.2907 25.3169 58.319 25.2731 58.3596 25.2681C58.4004 25.2633 58.4631 25.2552 58.499 25.2504C58.5346 25.2456 58.5902 25.2152 58.6223 25.1833C58.6837 25.1217 58.6898 25.0897 58.707 24.7333C58.7159 24.5482 58.742 24.5155 58.8566 24.5455C58.9615 24.573 59.0068 24.5367 59.0417 24.397C59.0673 24.2953 59.1309 24.212 59.1829 24.212C59.2349 24.212 59.3005 24.1747 59.3288 24.1289C59.3737 24.0563 59.3884 23.9715 59.4207 23.5984C59.4246 23.5538 59.5111 23.4965 59.6128 23.4709C59.75 23.4365 59.7887 23.39 59.7626 23.2904C59.7253 23.1475 59.8829 23.0417 60.0132 23.1223C60.0586 23.1504 60.0679 23.1351 60.0361 23.0838C60.0072 23.0371 60.0203 22.9546 60.065 22.9006C60.1098 22.8467 60.1407 22.7602 60.1337 22.7086C60.1053 22.4986 60.1462 22.437 60.3139 22.437C60.4658 22.437 60.4868 22.4091 60.4664 22.2341C60.4468 22.0662 60.4683 22.0325 60.5917 22.0389C60.6735 22.0431 60.7433 22.0146 60.7465 21.9755C60.7802 21.5681 60.8734 21.372 61.0333 21.372C61.1265 21.372 61.1991 21.348 61.1945 21.3188C61.1613 21.1089 61.2167 20.9629 61.3256 20.9716C61.4005 20.9776 61.4542 20.9259 61.4627 20.8395C61.5049 20.4126 61.6018 20.2104 61.7389 20.263C61.8037 20.2878 61.8203 20.2628 61.7907 20.1852C61.7591 20.1031 61.7731 20.0871 61.84 20.1284C61.9105 20.1719 61.9249 20.1416 61.8986 20.0042C61.8715 19.8622 61.8899 19.8274 61.9829 19.8453C62.0504 19.8583 62.1022 19.8235 62.1022 19.7651C62.1022 19.7083 62.0596 19.6783 62.0074 19.6982C61.9554 19.7182 61.9128 19.7037 61.9128 19.6657C61.9128 19.6279 61.9961 19.597 62.0979 19.597C62.2396 19.597 62.2726 19.57 62.2387 19.4815C62.1801 19.3288 62.3195 19.168 62.4629 19.223C62.5474 19.2555 62.5648 19.2363 62.5309 19.1478C62.5058 19.0824 62.5161 19.029 62.5541 19.029C62.5919 19.029 62.6228 18.9987 62.6228 18.9617C62.6228 18.9246 62.7027 18.8082 62.8003 18.7028C62.8979 18.5975 62.9778 18.45 62.9778 18.3749C62.9778 18.1827 63.1072 17.964 63.221 17.964C63.2737 17.964 63.3156 17.9241 63.3138 17.8753C63.3025 17.571 63.3431 17.4753 63.4926 17.4542C63.5804 17.4418 63.6566 17.3836 63.6619 17.325C63.667 17.2664 63.675 17.1796 63.6796 17.1321C63.6843 17.0829 63.737 17.0643 63.8014 17.0891C63.9409 17.1425 64.0723 16.9617 63.9503 16.8843C63.8854 16.8429 63.8863 16.83 63.9541 16.8291C64.0052 16.8285 64.0428 16.7375 64.0428 16.615C64.0428 16.4485 64.0742 16.402 64.1866 16.402C64.2901 16.402 64.3424 16.3413 64.3737 16.1851C64.4012 16.0479 64.4507 15.9812 64.5088 16.0033C64.5592 16.0227 64.6428 15.9865 64.6944 15.9226C64.7626 15.8386 64.764 15.8214 64.6996 15.8601C64.6037 15.9176 64.5767 15.8209 64.6641 15.7334C64.7168 15.6806 64.7267 15.6453 64.7439 15.4485C64.7489 15.3926 64.8247 15.3366 64.9126 15.3242C65.0597 15.3033 65.0721 15.2653 65.07 14.84L65.0679 14.3785L59.311 14.3595C54.147 14.3426 53.5446 14.3522 53.4615 14.4523ZM41.5358 18.3545C41.5358 18.4131 41.4879 18.461 41.4293 18.461C41.3581 18.461 41.326 18.5258 41.3324 18.6563C41.3409 18.8252 41.3462 18.8298 41.373 18.6907C41.3901 18.6023 41.4314 18.5469 41.465 18.5677C41.5298 18.6076 41.6294 18.4846 41.6517 18.3368C41.6592 18.2879 41.6361 18.248 41.6006 18.248C41.5649 18.248 41.5358 18.2959 41.5358 18.3545ZM41.0333 19.3308C40.9847 19.4901 40.9998 19.5942 41.0761 19.6235C41.1911 19.6675 41.3336 19.5123 41.2655 19.4172C41.2204 19.3542 41.0461 19.2894 41.0333 19.3308ZM40.2791 21.6168C40.2754 21.697 40.2878 21.7224 40.3066 21.6734C40.3254 21.6242 40.3751 21.6052 40.4169 21.631C40.4596 21.6574 40.4722 21.6448 40.4458 21.602C40.4201 21.5603 40.439 21.5106 40.4882 21.4918C40.5372 21.473 40.5118 21.4606 40.4316 21.4643C40.3366 21.4687 40.2836 21.5218 40.2791 21.6168ZM39.9028 22.5728C39.9028 22.6449 40.0844 22.6342 40.1611 22.5573C40.1882 22.5302 40.1412 22.508 40.0567 22.508C39.972 22.508 39.9028 22.5371 39.9028 22.5728ZM39.6419 23.3229C39.5803 23.3898 39.5794 23.4342 39.6383 23.4931C39.6974 23.5522 39.696 23.573 39.633 23.573C39.5862 23.573 39.5478 23.6232 39.5478 23.6847C39.5478 23.7837 39.5597 23.7842 39.6543 23.6896C39.7129 23.631 39.7608 23.5515 39.7608 23.513C39.7608 23.4745 39.7963 23.431 39.8396 23.4166C39.8923 23.3991 39.8863 23.3641 39.8219 23.3112C39.7502 23.2526 39.7038 23.2556 39.6419 23.3229ZM39.278 24.3682C39.1429 24.5033 39.1786 24.6194 39.3526 24.6105C39.4658 24.6048 39.5146 24.556 39.5203 24.4428C39.5292 24.2688 39.4131 24.2331 39.278 24.3682ZM38.877 25.4368C38.7954 25.7018 38.8577 25.78 39.0249 25.623C39.1149 25.5385 39.1715 25.4421 39.1509 25.4087C39.0943 25.3169 38.9081 25.3359 38.877 25.4368ZM55.9252 28.9454C55.8487 29.0217 55.8705 29.0874 55.9724 29.0874C56.0246 29.0874 56.0672 29.0448 56.0672 28.9926C56.0672 28.8907 56.0015 28.8689 55.9252 28.9454ZM37.6308 29.3595C37.6308 29.4181 37.5829 29.466 37.5243 29.466C37.4531 29.466 37.421 29.5308 37.4274 29.6613C37.4359 29.8302 37.4412 29.8348 37.468 29.6957C37.4851 29.6073 37.5264 29.5519 37.56 29.5727C37.6248 29.6126 37.7244 29.4896 37.7467 29.3418C37.7542 29.2929 37.7311 29.253 37.6956 29.253C37.6599 29.253 37.6308 29.3009 37.6308 29.3595ZM37.1283 30.3358C37.0797 30.4951 37.0948 30.5992 37.1711 30.6285C37.2861 30.6725 37.4286 30.5173 37.3605 30.4222C37.3154 30.3592 37.1411 30.2944 37.1283 30.3358ZM36.9208 31.4895C36.9208 31.5481 36.8729 31.596 36.8143 31.596C36.7557 31.596 36.7078 31.6478 36.7078 31.7112C36.7078 31.8108 36.7247 31.8131 36.8321 31.729C37.0545 31.5545 37.1336 31.383 36.9918 31.383C36.9528 31.383 36.9208 31.4309 36.9208 31.4895ZM36.37 32.6209C36.362 32.726 36.3754 32.7393 36.4185 32.6695C36.4513 32.6166 36.5214 32.5465 36.5743 32.5137C36.6441 32.4705 36.6308 32.4572 36.5257 32.4652C36.435 32.472 36.3768 32.5302 36.37 32.6209ZM35.7369 34.3279C35.6753 34.3948 35.6744 34.4392 35.7333 34.4981C35.7924 34.5572 35.791 34.578 35.728 34.578C35.6812 34.578 35.6428 34.6282 35.6428 34.6897C35.6428 34.7887 35.6547 34.7892 35.7493 34.6946C35.8079 34.636 35.8558 34.5565 35.8558 34.518C35.8558 34.4795 35.8913 34.436 35.9346 34.4216C35.9873 34.4041 35.9813 34.3691 35.9169 34.3162C35.8452 34.2576 35.7988 34.2606 35.7369 34.3279ZM35.373 35.3732C35.2379 35.5083 35.2736 35.6244 35.4476 35.6155C35.5608 35.6098 35.6096 35.561 35.6153 35.4478C35.6242 35.2738 35.5081 35.2381 35.373 35.3732ZM34.9683 36.424C34.8918 36.5477 35.0052 36.6533 35.1158 36.5614C35.1705 36.5159 35.1978 36.4506 35.1763 36.416C35.1245 36.3322 35.0226 36.3361 34.9683 36.424ZM33.7258 40.3645C33.7258 40.4231 33.6779 40.471 33.6193 40.471C33.5481 40.471 33.516 40.5358 33.5224 40.6663C33.5309 40.8352 33.5362 40.8398 33.563 40.7007C33.5801 40.6123 33.6214 40.5569 33.655 40.5777C33.7198 40.6176 33.8194 40.4946 33.8417 40.3468C33.8492 40.2979 33.8261 40.258 33.7906 40.258C33.7549 40.258 33.7258 40.3059 33.7258 40.3645ZM33.2217 41.347C33.1289 41.4984 33.2024 41.7279 33.3289 41.6812C33.5087 41.6146 33.5261 41.3793 33.3531 41.3539C33.2847 41.3438 33.2256 41.3408 33.2217 41.347ZM33.0158 42.4945C33.0158 42.5531 32.9679 42.601 32.9093 42.601C32.8507 42.601 32.8028 42.6528 32.8028 42.7162C32.8028 42.8158 32.8197 42.8181 32.9271 42.734C33.1495 42.5595 33.2286 42.388 33.0868 42.388C33.0478 42.388 33.0158 42.4359 33.0158 42.4945ZM32.465 43.6259C32.457 43.731 32.4704 43.7443 32.5135 43.6745C32.5463 43.6216 32.6164 43.5515 32.6693 43.5187C32.7391 43.4755 32.7258 43.4622 32.6207 43.4702C32.53 43.477 32.4718 43.5352 32.465 43.6259ZM31.8798 45.3634C31.7683 45.4818 31.7359 45.6554 31.8259 45.6521C31.9767 45.6466 32.0928 45.5532 32.0928 45.4376C32.0928 45.2585 32.0069 45.2287 31.8798 45.3634ZM31.468 46.3782C31.3329 46.5133 31.3686 46.6294 31.5426 46.6205C31.6558 46.6148 31.7046 46.566 31.7103 46.4528C31.7192 46.2788 31.6031 46.2431 31.468 46.3782ZM45.0858 48.5295C45.0858 48.5881 45.0379 48.636 44.9793 48.636C44.9042 48.636 44.876 48.7042 44.8835 48.8668C44.8934 49.0833 44.8959 49.0854 44.9238 48.901C44.9401 48.7929 44.9811 48.7216 45.0148 48.7425C45.0798 48.7826 45.1794 48.6598 45.2017 48.5118C45.2092 48.4629 45.1861 48.423 45.1506 48.423C45.1149 48.423 45.0858 48.4709 45.0858 48.5295ZM44.603 49.5732C44.5095 49.6667 44.4862 49.9147 44.5711 49.9129C44.6969 49.9103 44.8378 49.7663 44.8453 49.6327C44.8544 49.4719 44.7338 49.4424 44.603 49.5732ZM44.3201 50.7401C44.2308 50.8324 44.1859 50.908 44.2203 50.908C44.2956 50.908 44.5528 50.6338 44.5114 50.5976C44.4955 50.5835 44.4094 50.6476 44.3201 50.7401ZM43.8733 51.6358C43.8247 51.7952 43.8398 51.8992 43.9161 51.9285C44.0311 51.9725 44.1736 51.8173 44.1055 51.7222C44.0604 51.6592 43.8861 51.5944 43.8733 51.6358ZM43.4883 52.754C43.4118 52.8777 43.5252 52.9833 43.6358 52.8914C43.6905 52.8459 43.7178 52.7806 43.6963 52.746C43.6445 52.6622 43.5426 52.6661 43.4883 52.754ZM42.7449 55.0438C42.7469 55.2528 42.7547 55.2612 42.8285 55.1325C42.8733 55.0544 42.9603 54.9516 43.0217 54.9041C43.1173 54.8299 43.1054 54.8173 42.9381 54.8153C42.7643 54.8132 42.743 54.8384 42.7449 55.0438ZM42.0328 57.0554C42.0328 57.1173 42.0708 57.1551 42.1171 57.1397C42.2488 57.0958 42.2707 56.943 42.1452 56.943C42.0834 56.943 42.0328 56.9936 42.0328 57.0554ZM40.78 61.0385C40.6496 61.1712 40.6435 61.1996 40.7385 61.236C40.8816 61.2909 40.9865 61.1849 40.9561 61.0159C40.9337 60.8915 40.9231 60.8929 40.78 61.0385ZM40.3473 62.0229C40.2848 62.0907 40.2818 62.1324 40.3372 62.1667C40.3911 62.2 40.386 62.2327 40.3207 62.273C40.2688 62.3051 40.244 62.3488 40.2653 62.3701C40.2866 62.3915 40.3714 62.3315 40.4538 62.2368C40.6213 62.044 40.5184 61.837 40.3473 62.0229ZM40.1158 63.0845C40.1158 63.1431 40.0679 63.191 40.0093 63.191C39.9507 63.191 39.9033 63.2469 39.9039 63.3153C39.9048 63.4214 39.9151 63.4241 39.9738 63.333C40.0116 63.2744 40.0432 63.2569 40.0438 63.294C40.0453 63.3953 40.2113 63.2088 40.2296 63.0852C40.2381 63.0263 40.2161 62.978 40.1806 62.978C40.1449 62.978 40.1158 63.0259 40.1158 63.0845ZM39.633 64.1282C39.5327 64.2285 39.5184 64.3536 39.6138 64.2945C39.6502 64.2722 39.7005 64.2867 39.7253 64.327C39.7502 64.3673 39.802 64.381 39.8402 64.3574C39.8851 64.3297 39.8835 64.2828 39.8359 64.2255C39.7952 64.1765 39.783 64.1154 39.8087 64.0897C39.8345 64.0639 39.8245 64.043 39.7869 64.043C39.7491 64.043 39.6799 64.0813 39.633 64.1282ZM38.9033 66.1908C38.8547 66.3501 38.8698 66.4542 38.9461 66.4835C39.0611 66.5275 39.2036 66.3723 39.1355 66.2772C39.0904 66.2142 38.9161 66.1494 38.9033 66.1908ZM38.5183 67.309C38.4418 67.4327 38.5552 67.5383 38.6658 67.4464C38.7205 67.4009 38.7478 67.3356 38.7263 67.301C38.6745 67.2172 38.5726 67.2211 38.5183 67.309ZM38.213 68.3882C38.0912 68.51 38.1078 68.658 38.243 68.658C38.3314 68.658 38.3398 68.6358 38.279 68.5627C38.1763 68.4388 38.2636 68.3515 38.3875 68.4542C38.4606 68.5149 38.4828 68.5066 38.4828 68.4182C38.4828 68.2829 38.3348 68.2664 38.213 68.3882ZM37.7739 69.5278C37.7748 69.6454 37.7913 69.6619 37.8365 69.5904C37.8704 69.537 37.9418 69.4656 37.9952 69.4317C38.0668 69.3865 38.0502 69.37 37.9326 69.3691C37.8136 69.3684 37.7732 69.4088 37.7739 69.5278ZM35.8051 75.588C35.7186 75.6815 35.6806 75.758 35.7206 75.758C35.7605 75.758 35.7715 75.7932 35.7449 75.8361C35.711 75.891 35.7415 75.8902 35.8473 75.8336C35.9382 75.785 35.9978 75.6836 35.9978 75.578C35.9978 75.3719 36.0053 75.3716 35.8051 75.588ZM35.3796 76.5754C35.3125 76.6482 35.3125 76.6838 35.3796 76.7387C35.4374 76.7861 35.4932 76.7785 35.551 76.7156C35.6181 76.6428 35.6181 76.6072 35.551 76.5523C35.4932 76.5049 35.4374 76.5126 35.3796 76.5754ZM34.9752 77.593C34.9506 77.6326 34.9651 77.6865 35.0074 77.7126C35.1165 77.7803 35.187 77.6878 35.0958 77.5965C35.0448 77.5456 35.0051 77.5444 34.9752 77.593ZM34.663 78.6832C34.5624 78.7838 34.5484 78.9086 34.6444 78.8492C34.6811 78.8266 34.7402 78.8602 34.7759 78.9237C34.8343 79.0281 34.845 79.0286 34.8836 78.9276C34.9073 78.866 34.8955 78.7963 34.8576 78.7728C34.8196 78.7494 34.807 78.7004 34.8293 78.664C34.8884 78.5685 34.7633 78.5829 34.663 78.6832ZM34.4527 79.7102C34.3297 79.7599 34.1942 80.018 34.2913 80.018C34.3318 80.018 34.3648 79.9701 34.3648 79.9115C34.3648 79.8529 34.4127 79.805 34.4713 79.805C34.5299 79.805 34.5778 79.7731 34.5778 79.734C34.5778 79.695 34.5698 79.6655 34.5601 79.6687C34.5503 79.6717 34.502 79.6905 34.4527 79.7102ZM34.7969 80.1002C34.879 80.2539 35.0038 80.3352 35.0038 80.2353C35.0038 80.1939 34.968 80.16 34.9241 80.16C34.8673 80.16 34.8661 80.1339 34.9202 80.0688C34.9774 79.9999 34.9633 79.9774 34.8636 79.9774C34.7599 79.9774 34.7454 80.0042 34.7969 80.1002Z" fill="#FCBC0C"/>
</svg>
