<svg width="96" height="96" viewBox="0 0 96 96" fill="none" xmlns="http://www.w3.org/2000/svg">
<rect width="96" height="96" fill="white"/>
<path d="M64.3702 3.40307C62.9566 4.2323 60.6041 6.58004 57.7979 9.98505L60.3694 14.8153C62.1794 12.2499 64.0155 9.93322 65.8464 7.97418C65.9924 7.8187 66.0603 7.74614 66.0603 7.74614C65.9925 7.8187 65.9142 7.90162 65.8464 7.97418C65.2465 8.62719 63.4261 10.7417 60.6824 14.9189C63.327 14.7894 67.3591 14.2504 70.6974 13.6907C71.6885 8.19703 69.7324 5.70936 69.7324 5.70936C69.7324 5.70936 67.2495 1.71871 64.3598 3.4238L64.3702 3.40307Z" fill="url(#paint0_linear_6256_17)"/>
<path d="M55.7115 43.9775C55.3829 44.0345 55.049 44.0967 54.6996 44.1538C54.6996 44.1538 54.6943 44.1537 54.6943 44.1589C54.8717 44.133 55.0438 44.1071 55.216 44.0812C55.3777 44.0449 55.5446 44.0138 55.7115 43.9775Z" fill="#BD202E"/>
<path d="M55.7115 43.9775C55.3829 44.0345 55.049 44.0967 54.6996 44.1538C54.6996 44.1538 54.6943 44.1537 54.6943 44.1589C54.8717 44.133 55.0438 44.1071 55.216 44.0812C55.3777 44.0449 55.5446 44.0138 55.7115 43.9775Z" fill="black"/>
<path d="M56.598 39.7806C56.5928 39.7806 56.5928 39.7806 56.5928 39.7857C56.6449 39.7806 56.7023 39.7702 56.7545 39.7598C56.9736 39.7287 57.1874 39.6925 57.3961 39.6406C57.1353 39.6873 56.8744 39.7339 56.598 39.7806Z" fill="#BD202E"/>
<path d="M56.598 39.7806C56.5928 39.7806 56.5928 39.7806 56.5928 39.7857C56.6449 39.7806 56.7023 39.7702 56.7545 39.7598C56.9736 39.7287 57.1874 39.6925 57.3961 39.6406C57.1353 39.6873 56.8744 39.7339 56.598 39.7806Z" fill="black"/>
<path d="M52.79 27.2906C53.5725 25.8342 54.3653 24.4142 55.1634 23.0356C55.9928 21.5948 56.8378 20.2059 57.688 18.8584C57.735 18.7806 57.7923 18.6977 57.8393 18.62C58.6791 17.2984 59.5293 16.0234 60.3796 14.8107L57.808 9.98047C57.615 10.2137 57.422 10.4521 57.2238 10.7009C56.4779 11.6234 55.7111 12.6081 54.9182 13.6602C54.0263 14.8418 53.1134 16.1064 52.1797 17.4331C51.3243 18.6562 50.448 19.9364 49.5717 21.2683C48.8257 22.3981 48.0851 23.559 47.3444 24.751C47.3183 24.7925 47.2922 24.8392 47.2661 24.8858L50.6201 31.4678C51.3295 30.0425 52.0598 28.6484 52.79 27.2906Z" fill="url(#paint1_linear_6256_17)"/>
<path d="M37.507 64.3461C37.0636 65.5537 36.615 66.7923 36.1717 68.0517C36.1664 68.0672 36.1612 68.088 36.1508 68.1035C36.0882 68.2797 36.0204 68.4611 35.963 68.6373C35.6605 69.4873 35.3997 70.2543 34.7998 71.9905C35.7857 72.4362 36.5785 73.6179 37.3296 74.955C37.2514 73.5712 36.6776 72.2704 35.577 71.2649C40.4437 71.4826 44.6531 70.2595 46.7918 66.7249C46.9848 66.4088 47.1621 66.0823 47.3238 65.7247C46.338 66.9685 45.1122 67.492 42.8118 67.3676C46.2023 65.8594 47.8976 64.4135 49.3842 62.0294C49.7389 61.4594 50.0884 60.8426 50.4431 60.1533C47.4803 63.1748 44.0794 64.0351 40.428 63.3821L37.7156 63.6775C37.627 63.9056 37.5487 64.1284 37.4601 64.3565L37.507 64.3461Z" fill="url(#paint2_linear_6256_17)"/>
<path d="M38.8111 58.3339C39.3953 56.831 40.0004 55.3073 40.6159 53.7732C41.2105 52.3013 41.8156 50.8191 42.4416 49.3369C43.0675 47.8546 43.7039 46.3568 44.3507 44.8642C45.0079 43.3457 45.686 41.8324 46.3798 40.3242C47.0631 38.8316 47.7516 37.3494 48.4558 35.8879C48.7062 35.3592 48.967 34.8306 49.2226 34.3071C49.666 33.4002 50.1145 32.4984 50.5684 31.607C50.5944 31.5603 50.6153 31.5085 50.6414 31.4619L47.2874 24.8799C47.2352 24.968 47.1778 25.0613 47.1205 25.1442C46.338 26.414 45.5608 27.7096 44.7993 29.0312C44.0273 30.3683 43.2709 31.7314 42.5302 33.1151C41.9095 34.2812 41.2992 35.4525 40.6994 36.6445C40.5794 36.8829 40.4646 37.1265 40.3447 37.3649C39.6144 38.8627 38.9572 40.2983 38.3573 41.6924C37.6792 43.2628 37.0846 44.7657 36.5682 46.191C36.2239 47.129 35.9161 48.0308 35.6292 48.9015C35.3945 49.6426 35.1754 50.3889 34.9564 51.1301C34.4556 52.8714 34.0227 54.6128 33.668 56.3645L37.0376 62.9983C37.481 61.8167 37.94 60.6143 38.4095 59.4016C38.5503 59.0543 38.6755 58.7123 38.8111 58.3806V58.3339Z" fill="url(#paint3_linear_6256_17)"/>
<path d="M33.5947 56.5716C33.1722 58.6861 32.8697 60.7902 32.7184 62.8944L32.7028 63.1121C31.6491 61.4381 28.8376 59.8055 28.8428 59.8211C30.8615 62.7234 32.3898 65.6257 32.6141 68.4243C31.5344 68.642 30.0582 68.3258 28.3525 67.7039C30.1312 69.3313 31.4665 69.777 31.9934 69.9014C30.3555 70.005 28.655 71.1193 26.9389 72.4046C29.4479 71.3888 31.477 70.9845 32.9375 71.311C30.632 77.7894 28.3264 84.9414 26 92.5599C26.7094 92.3526 27.1319 91.8758 27.3666 91.2384C27.7787 89.865 30.5068 80.8212 34.7736 69.0048C34.8988 68.6679 35.0188 68.3258 35.1439 67.989C35.1752 67.8905 35.2118 67.7972 35.2483 67.7091C35.6969 66.4653 36.1715 65.1955 36.6514 63.8998C36.761 63.6044 36.8705 63.309 36.9852 63.0136C36.9852 63.0084 36.9905 63.0032 36.9905 62.9981L33.6156 56.3643C33.6052 56.4316 33.5895 56.5094 33.5739 56.5871L33.5947 56.5716Z" fill="url(#paint4_linear_6256_17)"/>
<path d="M51.1211 32.0067C51.022 32.2037 50.9281 32.4006 50.829 32.5976C50.5369 33.1936 50.2448 33.7999 49.9423 34.4219C49.6189 35.0956 49.2955 35.7797 48.9669 36.4846C48.8 36.837 48.633 37.1946 48.4661 37.5574C47.9654 38.6405 47.4594 39.76 46.943 40.9157C46.3118 42.3306 45.6598 43.8077 45.0078 45.3417C44.3871 46.8032 43.7455 48.3114 43.1091 49.8766C42.4988 51.3588 41.8833 52.8929 41.2574 54.4684C40.6992 55.8729 40.1359 57.324 39.5726 58.8115C39.5465 58.8788 39.5204 58.9566 39.4943 59.0239C38.931 60.501 38.3624 62.0195 37.7938 63.5743C37.7834 63.6106 37.7678 63.6417 37.7573 63.6832L40.4697 63.3877C40.4176 63.3774 40.3602 63.3722 40.308 63.3618C43.5473 62.9628 47.8715 60.5528 50.636 57.5573C51.9192 56.189 53.0824 54.572 54.157 52.6804C54.955 51.2759 55.7114 49.7107 56.4312 47.9849C57.0571 46.4767 57.657 44.839 58.236 43.0717C57.4901 43.4604 56.6398 43.7507 55.7009 43.9476C55.534 43.9839 55.3671 44.015 55.195 44.0461C55.0228 44.0772 54.8507 44.1031 54.6734 44.1238C54.6734 44.1238 54.6786 44.1238 54.6786 44.1186C57.7039 42.9629 59.6078 40.7343 60.9901 38.0031C60.1973 38.5421 58.9037 39.2469 57.3545 39.5838C57.1458 39.6304 56.932 39.6667 56.7129 39.703C56.6607 39.7082 56.6033 39.7185 56.5512 39.7289H56.5616C57.6153 39.2936 58.4968 38.8012 59.2636 38.2259C59.4305 38.1016 59.5922 37.9772 59.7383 37.8424C59.973 37.6403 60.1921 37.4278 60.4111 37.2101C60.5468 37.065 60.6772 36.9199 60.8076 36.7696C61.1101 36.412 61.3918 36.0285 61.6526 35.6139C61.7308 35.4843 61.8143 35.3599 61.8873 35.2252C61.9916 35.0334 62.0855 34.8417 62.1794 34.6603C62.6019 33.8207 62.941 33.064 63.207 32.4058C63.3426 32.0741 63.4574 31.7735 63.5617 31.4833C63.6034 31.3693 63.6399 31.2604 63.6765 31.1516C63.786 30.8355 63.8695 30.5556 63.9373 30.3068C64.0416 29.9337 64.1042 29.6383 64.1355 29.4258C64.0312 29.5035 63.9164 29.5864 63.7808 29.6642C62.868 30.2084 61.3031 30.6955 60.0408 30.9288C60.0251 30.9339 60.0043 30.9339 59.9834 30.9391C59.853 30.9598 59.733 30.9806 59.6026 30.9961L59.6652 30.965L51.1629 31.8927C51.1629 31.9135 51.1472 31.9497 51.1316 31.9808L51.1211 32.0067Z" fill="url(#paint5_linear_6256_17)"/>
<path d="M60.7189 14.9034C59.9626 16.0591 59.1384 17.3703 58.2412 18.8578C58.1943 18.9303 58.1421 19.0184 58.1004 19.091C57.3336 20.3763 56.5199 21.786 55.654 23.3356C54.9133 24.6727 54.1413 26.1031 53.338 27.6424C52.6391 28.9847 51.9193 30.4099 51.1733 31.9181L59.6757 30.9904C62.1586 29.8554 63.2644 28.8344 64.3389 27.347C64.6206 26.9375 64.9127 26.5125 65.1944 26.0668C66.0707 24.709 66.9262 23.2164 67.6929 21.729C68.4336 20.2934 69.0857 18.8733 69.5864 17.588C69.9046 16.7743 70.1602 16.0177 70.3375 15.3491C70.494 14.7635 70.614 14.2037 70.7079 13.6699C67.4061 14.2348 63.3531 14.7738 60.6928 14.9034H60.7189Z" fill="url(#paint6_linear_6256_17)"/>
<path d="M55.1896 44.082C55.0175 44.1131 54.8453 44.139 54.668 44.1598C54.8453 44.1442 55.0227 44.1131 55.1896 44.082Z" fill="#BD202E"/>
<path opacity="0.35" d="M55.1896 44.082C55.0175 44.1131 54.8453 44.139 54.668 44.1598C54.8453 44.1442 55.0227 44.1131 55.1896 44.082Z" fill="#BD202E"/>
<path d="M55.1896 44.082C55.0175 44.1131 54.8453 44.139 54.668 44.1598C54.8453 44.1442 55.0227 44.1131 55.1896 44.082Z" fill="url(#paint7_linear_6256_17)"/>
<path d="M56.5981 39.7798C56.6503 39.7746 56.7077 39.7643 56.7598 39.7539C56.7077 39.7591 56.6555 39.7746 56.5981 39.7798Z" fill="#BD202E"/>
<path opacity="0.35" d="M56.5981 39.7798C56.6503 39.7746 56.7077 39.7643 56.7598 39.7539C56.7077 39.7591 56.6555 39.7746 56.5981 39.7798Z" fill="#BD202E"/>
<path d="M56.5981 39.7798C56.6503 39.7746 56.7077 39.7643 56.7598 39.7539C56.7077 39.7591 56.6555 39.7746 56.5981 39.7798Z" fill="url(#paint8_linear_6256_17)"/>
<path d="M56.5981 39.7806C56.6033 39.7755 56.6033 39.7806 56.5981 39.7806C56.6033 39.7755 56.6033 39.7806 56.5981 39.7806Z" fill="#BD202E"/>
<path opacity="0.35" d="M56.5981 39.7806C56.6033 39.7755 56.6033 39.7806 56.5981 39.7806C56.6033 39.7755 56.6033 39.7806 56.5981 39.7806Z" fill="#BD202E"/>
<defs>
<linearGradient id="paint0_linear_6256_17" x1="60.1094" y1="10.7392" x2="78.9457" y2="5.41051" gradientUnits="userSpaceOnUse">
<stop stop-color="#F59723"/>
<stop offset="0.312" stop-color="#F69822"/>
<stop offset="0.838" stop-color="#E87726"/>
</linearGradient>
<linearGradient id="paint1_linear_6256_17" x1="18.8268" y1="94.9098" x2="56.7714" y2="12.8984" gradientUnits="userSpaceOnUse">
<stop offset="0.323" stop-color="#9C2063"/>
<stop offset="0.63" stop-color="#C82037"/>
<stop offset="0.751" stop-color="#CC2135"/>
<stop offset="1" stop-color="#E87726"/>
</linearGradient>
<linearGradient id="paint2_linear_6256_17" x1="31.7325" y1="88.8311" x2="54.3334" y2="39.9826" gradientUnits="userSpaceOnUse">
<stop stop-color="#282661"/>
<stop offset="0.0955" stop-color="#662E8C"/>
<stop offset="0.788" stop-color="#9E2064"/>
<stop offset="0.949" stop-color="#CC2032"/>
</linearGradient>
<linearGradient id="paint3_linear_6256_17" x1="20.2" y1="89.9605" x2="58.1446" y2="7.9491" gradientUnits="userSpaceOnUse">
<stop offset="0.323" stop-color="#9C2063"/>
<stop offset="0.63" stop-color="#C82037"/>
<stop offset="0.751" stop-color="#CC2135"/>
<stop offset="1" stop-color="#E87726"/>
</linearGradient>
<linearGradient id="paint4_linear_6256_17" x1="24.1251" y1="84.4881" x2="44.0605" y2="41.4006" gradientUnits="userSpaceOnUse">
<stop stop-color="#282661"/>
<stop offset="0.0955" stop-color="#662E8C"/>
<stop offset="0.788" stop-color="#9E2064"/>
<stop offset="0.949" stop-color="#CC2032"/>
</linearGradient>
<linearGradient id="paint5_linear_6256_17" x1="28.7561" y1="93.9199" x2="66.7006" y2="11.9085" gradientUnits="userSpaceOnUse">
<stop offset="0.323" stop-color="#9C2063"/>
<stop offset="0.63" stop-color="#C82037"/>
<stop offset="0.751" stop-color="#CC2135"/>
<stop offset="1" stop-color="#E87726"/>
</linearGradient>
<linearGradient id="paint6_linear_6256_17" x1="25.9416" y1="98.7886" x2="63.8861" y2="16.7773" gradientUnits="userSpaceOnUse">
<stop offset="0.323" stop-color="#9C2063"/>
<stop offset="0.63" stop-color="#C82037"/>
<stop offset="0.751" stop-color="#CC2135"/>
<stop offset="1" stop-color="#E87726"/>
</linearGradient>
<linearGradient id="paint7_linear_6256_17" x1="31.2839" y1="95.0892" x2="69.2284" y2="13.0778" gradientUnits="userSpaceOnUse">
<stop offset="0.323" stop-color="#9C2063"/>
<stop offset="0.63" stop-color="#C82037"/>
<stop offset="0.751" stop-color="#CC2135"/>
<stop offset="1" stop-color="#E87726"/>
</linearGradient>
<linearGradient id="paint8_linear_6256_17" x1="30.9926" y1="94.9537" x2="68.9373" y2="12.9425" gradientUnits="userSpaceOnUse">
<stop offset="0.323" stop-color="#9C2063"/>
<stop offset="0.63" stop-color="#C82037"/>
<stop offset="0.751" stop-color="#CC2135"/>
<stop offset="1" stop-color="#E87726"/>
</linearGradient>
</defs>
</svg>
