<svg width="96" height="96" viewBox="0 0 96 96" fill="none" xmlns="http://www.w3.org/2000/svg">
<rect width="96" height="96" fill="#6B73AC"/>
<g clip-path="url(#clip0_6114_959)">
<path fill-rule="evenodd" clip-rule="evenodd" d="M45.7049 15C56.9407 15 66.0492 24.1538 66.0492 35.4455L66.0492 64.3519L75.6229 64.3518C80.2495 64.3518 84 68.1211 84 72.7706V80H82.8983C80.2374 80 78.0664 77.8588 78.0164 75.1852V73.9784L78.0159 73.9187C77.9842 71.9536 76.3892 70.3704 74.4262 70.3704H26.5574C17.9653 70.3704 11 63.3704 11 54.7355L11 35.4455C11 24.1538 20.1084 15 31.3443 15H45.7049ZM44.5082 21.0185H32.541L32.2837 21.0206C23.8103 21.1587 16.9836 28.1048 16.9836 36.6533V54.7304L16.9849 54.8895C17.0694 60.1299 21.3228 64.3518 26.5574 64.3518H50.4918C55.7792 64.3518 60.0656 60.0442 60.0656 54.7304V36.6533L60.0635 36.3948C59.9261 27.8792 53.0144 21.0185 44.5082 21.0185ZM32.5889 30.6481C33.9531 30.6481 35.0302 31.7676 35.0302 33.1759V40.5065L43.3234 31.912C44.4005 30.9009 45.8725 30.8287 46.9136 31.8037V31.8398C47.9189 32.7787 47.847 34.3315 46.7341 35.3426L40.5949 41.6981L47.7393 51.9537C48.601 53.2176 48.3497 54.8065 47.2008 55.5648C45.9443 56.287 44.5082 55.8898 43.6466 54.6259L37.2202 45.1648L35.0302 47.4759V53.3981C35.0302 54.8426 33.9531 55.9259 32.5889 55.9259C31.2246 55.9259 30.1475 54.8426 30.1475 53.3981V33.1759C30.1475 31.7676 31.2246 30.6481 32.5889 30.6481Z" fill="white"/>
</g>
<defs>
<clipPath id="clip0_6114_959">
<rect width="73" height="65" fill="white" transform="translate(11 15)"/>
</clipPath>
</defs>
</svg>
