<svg width="96" height="96" viewBox="0 0 96 96" fill="none" xmlns="http://www.w3.org/2000/svg">
<rect width="96" height="96" fill="white"/>
<g clip-path="url(#clip0_6185_7)">
<mask id="mask0_6185_7" style="mask-type:luminance" maskUnits="userSpaceOnUse" x="8" y="8" width="80" height="80">
<path d="M47.9866 87.9859C25.8737 87.9859 8 70.1122 8 47.9993C8 25.8864 25.8737 8.0127 47.9866 8.0127C70.0995 8.0127 87.9751 25.8864 87.9751 47.9993C87.9751 70.1122 70.0995 87.9859 47.9866 87.9859Z" fill="white"/>
</mask>
<g mask="url(#mask0_6185_7)">
<path d="M87.9809 48.0014C87.9809 26.6042 69.378 8.02051 47.9809 8.02051C26.5837 8.02051 8 26.6042 8 48.0014C8 69.3985 26.5837 87.9822 47.9809 87.9822C69.378 87.9822 87.9809 69.3985 87.9809 48.0014Z" fill="white"/>
<path d="M48.0188 24.6904C33.2629 24.6904 18.8896 33.4177 18.8896 50.9105C18.8896 61.5325 24.2868 65.4177 24.2868 72.3842C24.2868 79.3699 23.349 78.5852 23.349 78.5852C23.349 78.5852 32.0571 87.2359 48.0188 87.2359C63.9806 87.2359 72.459 78.5852 72.459 78.5852C72.459 78.5852 70.8322 79.3699 70.8322 73.1689C70.8322 66.1833 77.148 60.7478 77.148 50.9105C77.148 33.4177 62.7748 24.6904 48.0188 24.6904Z" fill="#272733"/>
<path d="M54.1049 54.8706L48.5547 65.9903V52.2295C51.1958 52.2295 54.1049 54.8706 54.1049 54.8706Z" fill="white"/>
<path d="M42.7178 54.8706C42.7178 54.8706 45.8948 52.2295 48.5551 52.2295V65.9903L42.7178 54.8706Z" fill="white"/>
<path d="M63.4061 52.2881C59.0042 54.7761 50.9468 48.9771 50.9468 48.9771C53.186 46.7761 64.5353 35.7331 66.9468 39.9436C69.4157 44.2689 67.8272 49.8 63.4061 52.2881Z" fill="white"/>
<path d="M33.3391 52.0572C28.9563 49.5118 27.4635 43.9616 29.9898 39.6745C32.4587 35.4831 43.6357 46.6984 45.8367 48.9376C45.8367 48.9376 37.7027 54.6218 33.3391 52.0572Z" fill="white"/>
<path fill-rule="evenodd" clip-rule="evenodd" d="M58.3344 49.7625C56.6884 49.7625 55.3296 48.4228 55.3296 46.7577C55.3296 45.0926 56.6884 43.7529 58.3344 43.7529C59.9994 43.7529 61.3392 45.0926 61.3392 46.7577C61.3392 48.4228 59.9994 49.7625 58.3344 49.7625Z" fill="#272733"/>
<path fill-rule="evenodd" clip-rule="evenodd" d="M38.8134 49.7625C37.1483 49.7625 35.8086 48.4228 35.8086 46.7577C35.8086 45.0926 37.1483 43.7529 38.8134 43.7529C40.4593 43.7529 41.8182 45.0926 41.8182 46.7577C41.8182 48.4228 40.4593 49.7625 38.8134 49.7625Z" fill="#272733"/>
<path d="M60.9948 27.2167C63.5211 25.4559 65.1288 22.987 64.7077 19.5803C60.6121 18.8339 55.636 23.1976 52.5164 25.7813C51.9422 25.7622 50.9853 25.7047 50.4111 25.7047C54.6408 20.9966 58.6408 15.3698 54.1049 15.3124C50.6982 15.2741 47.9422 19.8291 45.6455 24.3459C47.636 19.1401 48.746 13.4942 42.9853 14.4703C37.2819 15.4464 40.2484 21.8196 41.9326 26.7382L60.9948 27.2167Z" fill="#272733"/>
<path fill-rule="evenodd" clip-rule="evenodd" d="M47.9419 88.2687C25.6644 88.2687 7.65479 70.24 7.65479 47.9625C7.65479 25.685 25.6644 7.65625 47.9419 7.65625C70.2385 7.65625 88.2481 25.685 88.2481 47.9625C88.2481 70.24 70.2385 88.2687 47.9419 88.2687ZM85.1476 47.9625C85.1476 27.3883 68.516 10.7567 47.9419 10.7567C27.3677 10.7567 10.7553 27.3883 10.7553 47.9625C10.7553 68.5366 27.3677 85.1682 47.9419 85.1682C68.516 85.1682 85.1476 68.5366 85.1476 47.9625Z" fill="#272733"/>
</g>
</g>
<defs>
<clipPath id="clip0_6185_7">
<rect width="80" height="80" fill="white" transform="translate(8 8)"/>
</clipPath>
</defs>
</svg>
