<svg width="96" height="96" viewBox="0 0 96 96" fill="none" xmlns="http://www.w3.org/2000/svg">
<rect width="96" height="96" fill="white"/>
<g clip-path="url(#clip0_6115_410)">
<path d="M5 62.962V32.8213C5 8.47758 8.47386 5 32.7929 5H62.9907C87.3094 5 90.7833 8.47758 90.7833 32.8217V62.962C90.7833 87.3061 87.3095 90.7833 62.9904 90.7833H32.7929C8.4742 90.7833 5 87.3061 5 62.962Z" fill="url(#paint0_linear_6115_410)"/>
<path d="M23.514 21.168C19.2976 47.8916 21.5035 72.9119 21.5035 72.9119H34.6838C33.4297 66.2404 28.9306 35.7612 32.6733 35.6607C34.6791 35.9789 43.8432 61.5186 43.8432 61.5186C43.8432 61.5186 45.8611 61.2673 47.8919 61.2673C49.9228 61.2673 51.941 61.5186 51.941 61.5186C51.941 61.5186 61.1051 35.9793 63.1109 35.6607C66.8532 35.7612 62.3542 66.2404 61.1004 72.9115H74.2804C74.2804 72.9115 76.4866 47.8916 72.2699 21.168H60.067C57.7444 21.1954 48.9073 36.6937 47.8919 36.6937C46.8765 36.6937 38.0395 21.1954 35.7168 21.168H23.5143H23.514Z" fill="url(#paint1_linear_6115_410)"/>
<path d="M45.2928 69.7924C45.2928 70.6197 44.9641 71.4132 44.3791 71.9982C43.7941 72.5832 43.0006 72.9119 42.1732 72.9119C41.3459 72.9119 40.5524 72.5832 39.9674 71.9982C39.3824 71.4132 39.0537 70.6197 39.0537 69.7924C39.0537 68.965 39.3824 68.1716 39.9674 67.5865C40.5524 67.0015 41.3459 66.6729 42.1732 66.6729C43.0006 66.6729 43.7941 67.0015 44.3791 67.5865C44.9641 68.1716 45.2928 68.965 45.2928 69.7924Z" fill="url(#paint2_radial_6115_410)"/>
<path d="M56.7299 69.7932C56.7299 70.6205 56.4013 71.4139 55.8163 71.9989C55.2313 72.5839 54.4379 72.9126 53.6106 72.9126C52.7833 72.9126 51.9898 72.5839 51.4049 71.9989C50.8199 71.4139 50.4912 70.6205 50.4912 69.7932C50.4912 68.9659 50.8199 68.1725 51.4049 67.5875C51.9898 67.0025 52.7833 66.6738 53.6106 66.6738C54.4379 66.6738 55.2313 67.0025 55.8163 67.5875C56.4013 68.1725 56.7299 68.9659 56.7299 69.7932Z" fill="url(#paint3_radial_6115_410)"/>
<path opacity="0.1" d="M71.649 22.0513C73.5512 34.9263 73.9974 47.2825 73.9626 56.4869C73.9267 65.9015 73.3873 72.018 73.3873 72.018H62.293L61.1008 72.9119H74.2808C74.2808 72.9119 76.487 47.8916 72.2703 21.168L71.649 22.0513ZM36.7229 21.7263C40.1852 25.578 46.1737 35.8002 46.9988 35.8002C44.8035 32.9926 39.4109 24.0351 36.7229 21.7263ZM31.7802 34.7671C28.0375 34.8677 32.5366 65.3469 33.7907 72.018H22.285L21.5039 72.9119H34.6843C33.4366 66.2743 28.9771 36.0656 32.6179 35.6607C32.2786 35.1514 31.9861 34.8 31.7802 34.7671ZM62.2175 34.7671C60.212 35.0854 51.0476 60.625 51.0476 60.625C51.0476 60.625 49.0297 60.3738 46.9988 60.3738C45.7972 60.3738 44.7628 60.4476 44.0633 60.5126L43.8433 61.5186C43.8433 61.5186 45.8615 61.2673 47.8927 61.2673C49.9232 61.2673 51.9415 61.5186 51.9415 61.5186C51.9415 61.5186 61.0365 36.1465 63.0832 35.6607C62.8628 35.102 62.5902 34.7773 62.2175 34.7671Z" fill="black"/>
<path opacity="0.3" d="M23.514 21.1686C19.2976 47.8923 21.5035 72.9125 21.5035 72.9125L22.2795 72.0397C21.8824 66.1368 20.8216 44.7905 24.4075 22.0618H36.6107C36.869 22.0652 37.2157 22.2768 37.616 22.6205C36.8169 21.7314 36.1526 21.1734 35.7168 21.168H23.5143L23.514 21.1686ZM60.067 21.1686C57.7444 21.1961 48.9073 36.6947 47.8919 36.6947C48.306 37.2242 48.6422 37.5882 48.7858 37.5882C49.8009 37.5882 58.6379 22.0896 60.9606 22.0622H71.7295L72.2699 21.1683L60.067 21.1686ZM33.511 36.5549C36.4753 41.0065 43.8428 61.5192 43.8428 61.5192L44.0585 60.5191C42.2396 55.5311 35.3082 36.8315 33.5668 36.5549C33.5479 36.5555 33.5296 36.5528 33.511 36.5549ZM64.0044 36.5549C65.9926 41.6258 62.2289 66.9085 61.1004 72.9125L62.2956 71.9791C63.8219 63.0249 67.4972 36.649 64.0044 36.5549Z" fill="white"/>
</g>
<defs>
<linearGradient id="paint0_linear_6115_410" x1="4294.17" y1="8583.33" x2="4294.17" y2="5" gradientUnits="userSpaceOnUse">
<stop stop-color="#574C4A"/>
<stop offset="1" stop-color="#80716D"/>
</linearGradient>
<linearGradient id="paint1_linear_6115_410" x1="4808.77" y1="5109.77" x2="1843.7" y2="-531.421" gradientUnits="userSpaceOnUse">
<stop stop-color="#268D83"/>
<stop offset="1" stop-color="#2EA19E"/>
</linearGradient>
<radialGradient id="paint2_radial_6115_410" cx="0" cy="0" r="1" gradientUnits="userSpaceOnUse" gradientTransform="translate(297.388 333.131) scale(3.11953)">
<stop stop-color="#DB7C7C"/>
<stop offset="1" stop-color="#C83737"/>
</radialGradient>
<radialGradient id="paint3_radial_6115_410" cx="0" cy="0" r="1" gradientUnits="userSpaceOnUse" gradientTransform="translate(326.686 333.117) scale(3.11936 3.11936)">
<stop stop-color="#DB7C7C"/>
<stop offset="1" stop-color="#C83737"/>
</radialGradient>
<clipPath id="clip0_6115_410">
<rect width="86" height="86" fill="white" transform="translate(5 5)"/>
</clipPath>
</defs>
</svg>
