<svg width="96" height="96" viewBox="0 0 96 96" fill="none" xmlns="http://www.w3.org/2000/svg">
<g clip-path="url(#clip0_6114_686)">
<rect width="96" height="96" fill="white"/>
<g clip-path="url(#clip1_6114_686)">
<path d="M96 0H0V96H96V0Z" fill="#466BB0"/>
<path d="M47.9978 20.209C34.4817 20.209 23.4854 31.2053 23.4854 44.7215V72.1206C23.4854 74.1443 25.1277 75.7868 27.1516 75.7868C29.1754 75.7868 30.8178 74.1443 30.8178 72.1206V44.7215C30.8178 35.248 38.5243 27.5415 47.9978 27.5415C57.4714 27.5415 65.1778 35.248 65.1778 44.7215L65.1657 68.4544H43.7156L60.4484 46.7844C61.5189 45.4279 61.7291 43.5435 60.9763 41.962C60.2455 40.4247 58.7594 39.469 57.0951 39.469H35.359V46.8015H51.1703L34.4376 68.4739C33.367 69.8303 33.1568 71.7149 33.9097 73.2962C34.6405 74.8335 36.1265 75.7892 37.791 75.7892H65.1705C69.2204 75.7892 72.5152 72.4945 72.5152 68.4445V44.7215C72.5128 31.2053 61.5164 20.209 47.9978 20.209Z" fill="white"/>
</g>
</g>
<defs>
<clipPath id="clip0_6114_686">
<rect width="96" height="96" fill="white"/>
</clipPath>
<clipPath id="clip1_6114_686">
<rect width="96" height="96" fill="white"/>
</clipPath>
</defs>
</svg>
