<?xml version="1.0" encoding="UTF-8" standalone="no"?>
<svg
   id="d208ed77-f9de-4ff6-a340-a22520c8e4f4"
   data-name="Laag 1"
   viewBox="0 0 368 368"
   version="1.1"
   sodipodi:docname="logo.svg"
   width="368"
   height="368"
   xmlns:inkscape="http://www.inkscape.org/namespaces/inkscape"
   xmlns:sodipodi="http://sodipodi.sourceforge.net/DTD/sodipodi-0.dtd"
   xmlns="http://www.w3.org/2000/svg"
   xmlns:svg="http://www.w3.org/2000/svg"
   xmlns:rdf="http://www.w3.org/1999/02/22-rdf-syntax-ns#"
   xmlns:cc="http://creativecommons.org/ns#"
   xmlns:dc="http://purl.org/dc/elements/1.1/">
  <defs
     id="defs9" />
  <sodipodi:namedview
     id="namedview9"
     pagecolor="#ffffff"
     bordercolor="#000000"
     borderopacity="0.25"
     inkscape:showpageshadow="2"
     inkscape:pageopacity="0.0"
     inkscape:pagecheckerboard="0"
     inkscape:deskcolor="#d1d1d1"
     inkscape:export-bgcolor="#ffffff00">
    <inkscape:page
       x="0"
       y="0"
       width="368"
       height="368"
       id="page2"
       margin="0"
       bleed="0" />
  </sodipodi:namedview>
  <title
     id="title1">druid</title>
  <g
     id="g9"
     transform="translate(-2.2913387,-0.01260451)">
    <path
       d="m 190.67127,49.016728 c 23.5,0 47,-0.12 70.49,0 45,0.28 86.29,29 102,70.920002 6.77,18.1 8.24,36.83 6.31,56.06 -2.83,28.24 -11.26,54.45 -27.23,77.94 -24.64,36.26 -59.37,56.41 -102.38,63.12 -14.58,2.27 -29.21,2 -43.86,2 -6.08,0 -9.33,-2.78 -9.69,-7.81 -0.39,-5.39 3,-9.53 9,-9.89 6.64,-0.41 13.33,-0.07 20,-0.25 40.49,-1.1 75.55,-15.05 103.32,-45 19.46,-21 29.32,-46.58 32.66,-74.77 2.32,-19.56 2.07,-39 -5.66,-57.53 -11.86,-28.350002 -33.11,-45.730002 -62.37,-53.790002 -11.36,-3.13 -23,-3.72 -34.65,-3.79 -43.49,-0.26 -87,-0.1 -130.48,-0.11 -1.83,0 -3.68,0.07 -5.5,-0.09 a 8.75,8.75 0 0 1 -7.93,-8.22 8.54,8.54 0 0 1 7,-8.53 33.71,33.71 0 0 1 6,-0.29 q 36.49,0 73,0 z"
       style="fill:#29f1fb"
       id="path1" />
    <path
       d="M 146.13127,257.01673 H 68.131273 a 37.77,37.77 0 0 1 -5,-0.11 c -4.51,-0.61 -7.35,-3.2 -7.79,-7.76 -0.44,-4.56 1.7,-7.68 6,-9.28 2.73,-1 5.59,-0.79 8.41,-0.79 51.309997,0 102.629997,0.08 153.939997,-0.09 18,-0.06 33.54,-6.73 45.89,-19.93 10.59,-11.32 16.14,-25 17.79,-40.4 1.3,-12.08 -0.42,-23.19 -7.92,-33.05 -8.34,-11 -19.61,-16.52 -33.16,-16.58 -48.48,-0.21 -97,-0.08 -145.44,-0.15 -5.149997,0 -10.309997,-0.42 -15.439997,-0.9 -4.43,-0.41 -6.88,-3.08 -7.18,-7.54 -0.33,-4.86 2.16,-8.36 6.57,-9.21 a 23.76,23.76 0 0 1 4.46,-0.21 q 77.999997,0 155.999997,0 c 26.21,0.05 48.87,15.9 57.13,40.68 5.86,17.59 3.77,35.32 -2.8,52.37 -12.62,32.73 -42.33,52.86 -77.49,52.95 -25.32,0.07 -50.65,0 -75.97,0 z"
       style="fill:#29f1fb"
       id="path2" />
    <path
       d="m 29.811273,128.01673 c -6,0 -12,0.08 -18,0 -5.0000003,-0.09 -8.8400003,-3.38 -9.4100003,-7.86 -0.57,-4.48 2.24,-8.33 7.6500003,-9.43 a 47.28,47.28 0 0 1 8.94,-0.59 c 8.16,-0.07 16.33,-0.09 24.49,0 a 31.86,31.86 0 0 1 7.4,0.86 c 4.41,1.12 6.82,4.88 6.3,9.45 -0.52,4.57 -3.28,7.32 -7.9,7.47 -6.49,0.22 -13,0.06 -19.49,0.06 z"
       style="fill:#29f1fb"
       id="path3" />
    <path
       d="m 139.26127,319.01673 c -5.66,0 -11.32,0.1 -17,0 -5.38,-0.12 -9,-3.17 -9.55,-7.67 a 9,9 0 0 1 8.11,-9.75 236.26,236.26 0 0 1 36.38,-0.05 8.4,8.4 0 0 1 8,9.23 c -0.37,5 -3.89,8.06 -9.45,8.28 h -16.49 z"
       style="fill:#29f1fb"
       id="path4" />
  </g>
  <metadata
     id="metadata9">
    <rdf:RDF>
      <cc:Work
         rdf:about="">
        <dc:title>druid</dc:title>
      </cc:Work>
    </rdf:RDF>
  </metadata>
</svg>
