<svg width="96" height="96" viewBox="0 0 96 96" fill="none" xmlns="http://www.w3.org/2000/svg">
<rect width="96" height="96" fill="white"/>
<path d="M40.1464 16.7626C39.3084 15.9187 38.1457 15.3988 36.8496 15.3988C35.5567 15.3988 34.403 15.9187 33.5756 16.7626H33.5544C32.7188 17.6007 32.2005 18.7703 32.2005 20.0622C32.2005 21.3615 32.7188 22.5237 33.5544 23.3537L33.5756 23.3766C34.403 24.2131 35.5567 24.7257 36.8496 24.7257C38.1457 24.7257 39.3084 24.2131 40.1464 23.3766L40.1562 23.3537C40.995 22.5237 41.5068 21.3615 41.5068 20.0622C41.5068 18.7703 40.995 17.6007 40.1562 16.7626H40.1464ZM36.8496 80.6012C38.1457 80.6012 39.3084 80.0715 40.1464 79.2431L40.1562 79.2187C40.995 78.3919 41.5068 77.2224 41.5068 75.937C41.5068 74.6377 40.995 73.4738 40.1562 72.6316H40.1464C39.3084 71.7795 38.1457 71.2645 36.8496 71.2645C35.5567 71.2645 34.403 71.7795 33.5756 72.6316H33.5544C32.7188 73.4738 32.2005 74.6377 32.2005 75.937C32.2005 77.2224 32.7188 78.3919 33.5544 79.2187L33.5756 79.2431C34.403 80.0715 35.5567 80.6012 36.8496 80.6012ZM62.1802 66.4713C63.3315 66.1677 64.3738 65.4267 65.0108 64.3053L65.0963 64.1413C65.6625 63.0795 65.7659 61.852 65.4632 60.7624C65.1581 59.5994 64.4112 58.5678 63.2957 57.9255L63.2298 57.8814C62.1428 57.2824 60.9061 57.1518 59.7686 57.4628C58.6125 57.7525 57.5735 58.5246 56.9405 59.6362C56.2993 60.7412 56.1659 62.0111 56.4726 63.1798C56.7891 64.3298 57.5303 65.3687 58.6393 66.0184H58.6458C59.7572 66.6591 61.0135 66.7741 62.1802 66.4713ZM41.6183 43.2211C40.3978 42.0001 38.7136 41.2346 36.8496 41.2346C34.988 41.2346 33.3087 42.0001 32.0907 43.2211C30.8768 44.4404 30.1282 46.1225 30.1282 47.9922C30.1282 49.862 30.8768 51.5514 32.0907 52.7846C33.3087 53.9982 34.988 54.7564 36.8496 54.7564C38.7136 54.7564 40.3978 53.9982 41.6183 52.7846C42.8354 51.5514 43.584 49.862 43.584 47.9922C43.584 46.1225 42.8354 44.4404 41.6183 43.2211ZM38.9365 35.2727C41.6427 35.7199 44.0722 37.02 45.9297 38.8963H45.9435C46.2388 39.1918 46.5261 39.5174 46.7937 39.8422L51.4355 37.149C50.8114 35.2572 50.7821 33.2796 51.2841 31.4246C51.9456 28.941 53.5509 26.7179 55.9576 25.3247L56.0357 25.2749C58.4164 23.9242 61.1217 23.6426 63.5634 24.3062C66.0368 24.9713 68.2678 26.5889 69.6566 28.999V29.0063C71.039 31.4033 71.3189 34.1537 70.6598 36.6299C70.0016 39.1126 68.3906 41.3513 65.9864 42.7363L65.3525 43.1117H65.2883C63.0646 44.1735 60.6197 44.34 58.3741 43.7467C56.5304 43.257 54.8397 42.2238 53.5151 40.7588L48.8799 43.4447C49.4128 44.8583 49.7073 46.382 49.7073 47.9922C49.7073 49.5943 49.4128 51.1401 48.8799 52.561L53.5151 55.2396C54.8397 53.7518 56.5304 52.7422 58.3741 52.2509C60.8483 51.5727 63.5902 51.8608 65.9864 53.2621L66.1401 53.3339V53.3412C68.4549 54.7491 70.0089 56.9217 70.6598 59.3758C71.3189 61.8373 71.039 64.5893 69.6566 66.9912L69.5728 67.1585L69.5631 67.1447C68.175 69.4601 65.9864 71.0287 63.5707 71.6922C61.0932 72.3476 58.3505 72.0676 55.9576 70.6867V70.6679C53.5509 69.2723 51.9456 67.0443 51.2841 64.5656C50.7821 62.7187 50.8114 60.7412 51.4355 58.8502L46.7937 56.1635C46.5261 56.4883 46.2388 56.7992 45.9435 57.0947L45.9297 57.1094C44.0722 58.9792 41.6427 60.2785 38.9365 60.711V66.091C40.8648 66.495 42.5914 67.4621 43.9436 68.8194L43.9509 68.8333C45.7637 70.6435 46.8865 73.1653 46.8865 75.937C46.8865 78.7004 45.7637 81.2076 43.9509 83.0268L43.9436 83.0554C42.1178 84.8737 39.6135 86 36.8496 86C34.1004 86 31.5895 84.8737 29.7678 83.0554H29.7605V83.0268C27.9461 81.2076 26.8208 78.7004 26.8208 75.937C26.8208 73.1653 27.9461 70.6435 29.7605 68.8333V68.8194H29.7678C31.1192 67.4621 32.849 66.495 34.77 66.091V60.711C32.0647 60.2785 29.6392 58.9792 27.785 57.1094L27.7655 57.0947C25.4499 54.7638 24 51.5514 24 47.9922C24 44.4404 25.4499 41.2281 27.7655 38.8963H27.785C29.6392 37.02 32.0647 35.7199 34.77 35.2727V29.9155C32.849 29.4976 31.1192 28.5305 29.7678 27.1806H29.7605V27.1659C27.9461 25.3394 26.8208 22.8347 26.8208 20.0622C26.8208 17.3045 27.9461 14.7777 29.7605 12.9585L29.7678 12.9512C31.5895 11.1255 34.1004 10 36.8496 10C39.6135 10 42.1178 11.1255 43.9436 12.9512V12.9585H43.9509C45.7637 14.7777 46.8865 17.3045 46.8865 20.0622C46.8865 22.8347 45.7637 25.3394 43.9509 27.1659L43.9436 27.1806C42.5914 28.5305 40.8648 29.4976 38.9365 29.9155V35.2727ZM65.0108 31.6996L64.971 31.6408C64.3314 30.5586 63.3095 29.8372 62.1802 29.5262C61.0135 29.2153 59.7572 29.3458 58.6393 29.989H58.6458C57.5303 30.6239 56.7842 31.6621 56.4726 32.8259C56.1659 33.9807 56.2993 35.2572 56.9405 36.3696L56.9624 36.3981C57.6044 37.4958 58.6271 38.232 59.7686 38.5283C60.9158 38.8539 62.194 38.716 63.2957 38.0728L63.3551 38.0443C64.4397 37.3946 65.1622 36.3696 65.4632 35.2433C65.7707 34.0811 65.6479 32.8112 65.0108 31.6996Z" fill="black"/>
</svg>
