<svg width="96" height="96" viewBox="0 0 96 96" fill="none" xmlns="http://www.w3.org/2000/svg">
<rect width="96" height="96" fill="white"/>
<path d="M48.2085 13.3117L48.6016 13.5198C53.8279 16.0636 59.0772 18.6536 64.3035 21.1742C68.2579 23.0936 72.2354 24.9667 76.1897 26.8398C76.343 26.8942 76.4782 26.9899 76.5802 27.1165C76.6823 27.243 76.7472 27.3954 76.7679 27.5567C77.1841 29.3836 77.6004 31.2105 77.9935 33.0373C78.7335 36.3673 79.4504 39.6742 80.306 43.0042C81.231 47.1205 82.2022 51.2136 83.1735 55.3298C83.3354 56.0698 83.4972 56.8098 83.6822 57.5267V58.128L83.3354 58.5673C80.0516 62.6373 76.7447 66.7073 73.4841 70.8005C70.2235 74.8936 67.3791 78.5242 64.2341 82.363C64.0986 82.5775 63.895 82.7404 63.656 82.8255H61.5054H51.5616H51.4229H32.9229C32.2985 82.8255 32.2754 82.8255 31.836 82.2473C28.4597 78.0617 25.2685 73.9455 22.031 69.8755C18.7935 65.8055 15.8335 62.1748 12.781 58.313L12.5729 58.0123C12.5159 57.8634 12.5159 57.6987 12.5729 57.5498L13.6135 52.6242C15.4018 45.2088 17.1054 37.7626 18.7241 30.2855C18.9322 29.3142 19.1635 28.3661 19.3716 27.418C19.3898 27.3014 19.4347 27.1906 19.5029 27.0943C19.5711 26.998 19.6608 26.9188 19.7647 26.863H20.0191L33.8941 20.2723L47.7691 13.5661L48.0004 13.3117H48.301M48.5322 12.3867H47.746L47.5147 12.5255L43.4447 14.5142L33.4779 19.2548L23.8579 23.8798L19.6029 25.8917H19.4641C19.2246 26.003 19.0154 26.1704 18.8544 26.3797C18.6934 26.5891 18.5852 26.8342 18.5391 27.0942C18.5391 27.5105 18.3541 27.9267 18.2616 28.343C18.1691 28.7592 18.0304 29.4298 17.8916 29.9617C16.1572 37.9167 14.4691 45.2242 12.8041 52.2773C12.596 53.0636 12.411 53.873 12.226 54.5898C12.041 55.3067 11.7172 56.463 11.5091 57.2492C11.4611 57.4496 11.4548 57.6576 11.4906 57.8605C11.5264 58.0634 11.6036 58.2568 11.7172 58.4286L11.9716 58.7755L14.8622 62.3598L21.2679 70.338L27.9972 78.8711C28.9685 80.0736 29.9397 81.3455 30.911 82.5711C31.1109 82.8683 31.3709 83.1204 31.6741 83.3111C32.0075 83.4612 32.3734 83.5249 32.7379 83.4961H63.9104C64.3356 83.3584 64.7074 83.0917 64.9741 82.733C65.7835 81.6692 66.616 80.6055 67.4254 79.588C69.7379 76.813 71.8885 73.9455 74.1316 71.1473C76.3747 68.3492 78.641 65.528 80.861 62.7992L83.9829 58.9142L84.2372 58.5905V58.4517L84.4454 58.1973V57.203V57.0873L84.3066 56.3936C84.3066 55.8848 84.0522 55.3992 83.9366 54.8905C83.6591 53.6186 83.3585 52.3236 83.0579 51.098L81.0691 42.5417C80.5604 40.2292 80.0285 37.9167 79.5429 35.6042C79.3116 34.6098 79.0804 33.5692 78.8722 32.5517C78.7566 32.0661 78.641 31.5805 78.5485 31.0948C78.2941 30.008 78.0629 28.6436 77.6929 27.1867C77.6323 26.8896 77.5023 26.6111 77.3134 26.3739C77.1245 26.1368 76.882 25.9478 76.606 25.8223L74.1316 24.8742C71.1254 23.2786 67.8416 21.7755 64.7197 20.2492L53.666 14.8842L49.041 12.5717H48.7866L48.5322 12.3867Z" fill="#373435"/>
<path d="M83.0811 55.2612C82.1099 51.145 81.1386 47.0288 80.2136 42.9356C79.4505 39.6056 78.7336 36.2987 77.9011 32.9688C77.4849 31.1419 77.0918 29.315 76.6986 27.4881C76.6691 27.3301 76.6008 27.1819 76.4999 27.0568C76.399 26.9317 76.2687 26.8336 76.1205 26.7713C72.2355 24.875 68.258 23.025 64.3036 21.1056C59.0774 18.585 53.8511 16.0181 48.6018 13.4512L48.2086 13.3125H48.0005H47.723L33.848 20.0188L19.973 26.6094H19.7186C19.6147 26.6652 19.525 26.7444 19.4568 26.8407C19.3886 26.937 19.3437 27.0478 19.3255 27.1644C19.1174 28.1125 18.8861 29.0837 18.678 30.0319C17.0824 37.6862 15.3943 45.1325 13.6136 52.625L12.4343 57.5737C12.401 57.6463 12.3838 57.7252 12.3838 57.805C12.3838 57.8848 12.401 57.9637 12.4343 58.0363L12.6424 58.3369C15.7411 62.1756 18.863 66.0144 21.8924 69.8994C24.9218 73.7844 28.4599 78.0625 31.6743 82.1325C32.1368 82.7106 32.1368 82.7106 32.8536 82.7106H51.3536H61.4361L61.8755 82.6875H63.5868C63.8258 82.6024 64.0294 82.4395 64.1649 82.225C67.2174 78.3631 70.2468 74.5012 73.4149 70.6625C76.583 66.8237 79.9824 62.4994 83.2661 58.4294L83.613 57.99V57.3887C83.4049 56.7181 83.243 56.0012 83.0811 55.2612ZM59.3086 70.3156L59.0774 70.5469C54.9954 74.0454 49.7712 75.9239 44.3959 75.8258C39.0207 75.7278 33.8685 73.6601 29.9168 70.015C26.2725 66.6891 23.8737 62.2181 23.118 57.3425C22.9099 56.1361 22.817 54.9127 22.8405 53.6887C22.8405 53.55 22.8405 53.4344 22.8405 53.2725C22.1005 53.2725 21.3605 53.2725 20.528 53.2725C20.6436 53.0413 24.2743 49.6881 24.7136 49.3644C24.9449 49.48 28.8299 53.0181 28.9918 53.2725H26.6793C26.6691 53.4188 26.6691 53.5656 26.6793 53.7119C26.6568 58.376 28.2686 62.9006 31.2349 66.5C34.2296 70.3764 38.5553 73.0048 43.3755 73.8769C46.0417 74.3972 48.7857 74.3704 51.4412 73.798C54.0966 73.2255 56.6081 72.1195 58.823 70.5469L59.193 70.3387L59.3086 70.3156ZM63.9336 52.5788C63.7699 52.6952 63.5786 52.7669 63.3786 52.7869C63.0953 52.8331 62.8064 52.8331 62.523 52.7869C61.8061 52.6712 61.0893 52.4862 60.3724 52.3475C60.1874 52.3475 59.9561 52.2319 59.7943 52.4631C59.7541 52.4803 59.7108 52.4892 59.6671 52.4892C59.6234 52.4892 59.5801 52.4803 59.5399 52.4631H58.5918C58.2911 52.4631 58.268 52.4631 58.1755 52.7175C57.4609 54.7988 56.1302 56.6135 54.3599 57.9206L54.1286 58.1056L54.2674 58.4525L54.938 59.5625C54.938 59.7012 55.0536 59.8631 54.938 59.9788C54.8224 60.0944 54.938 60.21 54.938 60.3488L55.678 61.7131C55.8168 61.9906 55.9555 62.2681 56.0711 62.5456C56.143 62.7542 56.182 62.9726 56.1868 63.1931C56.1936 63.3092 56.1678 63.4249 56.1124 63.5271C56.057 63.6294 55.9742 63.7141 55.8732 63.7718C55.7723 63.8295 55.6572 63.8578 55.541 63.8537C55.4248 63.8495 55.3121 63.8129 55.2155 63.7481C54.9922 63.6169 54.796 63.4442 54.6374 63.2394C54.4524 62.9388 54.2674 62.615 54.1055 62.2913L53.5043 61.1119C53.4882 61.0589 53.4538 61.0135 53.4071 60.9838C53.3604 60.9541 53.3046 60.9421 53.2499 60.95C53.1731 60.9685 53.0923 60.9603 53.0208 60.9267C52.9493 60.893 52.8914 60.836 52.8568 60.765L52.6255 60.4412L52.1168 59.5625L51.9549 59.285C49.5018 60.2436 46.7867 60.2928 44.3005 59.4238L44.1155 59.7012L43.5374 60.6262C43.4133 60.8507 43.2055 61.017 42.9593 61.0887C42.8794 61.1375 42.809 61.2002 42.7511 61.2738L41.8493 62.8231C41.6908 63.0901 41.5131 63.3452 41.3174 63.5863C41.175 63.7689 40.982 63.9057 40.7624 63.9794C40.5906 64.0309 40.4056 64.014 40.2461 63.932C40.0866 63.8501 39.9649 63.7096 39.9068 63.54C39.8274 63.2997 39.8274 63.0403 39.9068 62.8C40.0224 62.5456 40.1611 62.2912 40.2999 62.0369C40.4386 61.7825 40.878 61.1119 41.1555 60.6262C41.1899 60.5623 41.2079 60.4908 41.2079 60.4181C41.2079 60.3455 41.1899 60.274 41.1555 60.21C41.1159 60.1229 41.0954 60.0282 41.0954 59.9325C41.0954 59.8368 41.1159 59.7422 41.1555 59.655C41.3405 59.3313 41.5024 58.9844 41.6643 58.6606C41.8261 58.3369 41.6643 58.4525 41.7799 58.36C41.2943 57.9669 40.8086 57.5969 40.3693 57.1806C39.9324 56.7589 39.5302 56.3027 39.1668 55.8162C38.8007 55.3309 38.4685 54.8209 38.1724 54.29C37.8949 53.7581 37.6868 53.18 37.4093 52.6019H37.2011L35.883 52.8563C35.5824 52.8563 35.5824 52.8563 35.4436 52.625V52.4631H35.1893L33.7093 52.625C33.4096 52.6592 33.107 52.6592 32.8074 52.625H32.4374C32.1368 52.625 31.8824 52.3937 31.8361 52.0469C31.8141 51.8889 31.8453 51.7281 31.9248 51.5899C32.0044 51.4517 32.1278 51.344 32.2755 51.2837C32.5957 51.1279 32.9395 51.0263 33.293 50.9831L35.1199 50.6131C35.2355 50.6131 35.3511 50.6131 35.3743 50.405C35.3974 50.1969 35.5593 50.0581 35.7674 50.0119L36.7386 49.85C37.1549 49.85 37.1549 49.85 37.1318 49.3644C37.0754 47.6303 37.4404 45.9084 38.1955 44.3463C38.3805 43.9531 38.6118 43.5831 38.8199 43.2131C39.028 42.8431 38.9586 43.005 38.8199 42.8431C38.6811 42.6813 38.3111 42.3806 38.0568 42.1494C37.8024 41.9181 37.8718 41.9644 37.918 41.8025C37.9643 41.6406 37.918 41.6175 37.7793 41.5481L35.9755 40.1144C35.752 39.9559 35.5431 39.7779 35.3511 39.5825C35.1842 39.4231 35.0779 39.2105 35.0505 38.9813C35.023 38.8283 35.0557 38.6705 35.142 38.5412C35.2282 38.4118 35.3612 38.3209 35.513 38.2875C35.7451 38.2064 35.9978 38.2064 36.2299 38.2875C36.5754 38.424 36.8899 38.6284 37.1549 38.8888C37.6405 39.3975 38.2418 39.7675 38.7736 40.23C38.8255 40.2629 38.8857 40.2804 38.9471 40.2804C39.0085 40.2804 39.0687 40.2629 39.1205 40.23C39.1205 40.23 39.3286 40.23 39.4211 40.23L40.2305 40.8081L40.5311 40.9931L40.7855 40.785C42.3773 39.3558 44.3569 38.4304 46.4743 38.1256C46.7749 38.1256 46.7749 38.1256 46.8211 37.7787V36.6456C46.8211 36.4838 46.8211 36.345 47.0061 36.2756C47.1911 36.2063 47.1218 36.0906 47.1218 35.975C47.1218 35.3044 47.1218 34.6338 47.1218 33.94C47.0644 33.5877 47.0644 33.2285 47.1218 32.8762C47.1604 32.6987 47.2396 32.5325 47.353 32.3906C47.4031 32.2825 47.483 32.191 47.5834 32.1269C47.6838 32.0627 47.8004 32.0286 47.9196 32.0286C48.0387 32.0286 48.1554 32.0627 48.2557 32.1269C48.3561 32.191 48.4361 32.2825 48.4861 32.3906C48.5825 32.595 48.645 32.8137 48.6711 33.0381C48.6827 33.2615 48.6827 33.4854 48.6711 33.7087C48.6711 34.4256 48.6711 35.1194 48.6711 35.8363C48.6616 35.9192 48.6736 36.0032 48.706 36.0802C48.7384 36.1572 48.7901 36.2245 48.8561 36.2756C48.8561 36.2756 48.8561 36.4606 48.9718 36.5531V37.7094C48.9718 37.9869 48.9718 38.01 49.2955 38.0562C51.5617 38.3932 53.6606 39.4467 55.2849 41.0625L55.493 41.2475L55.7936 41.0625C56.0711 40.8775 56.3255 40.6694 56.6261 40.5075C56.6699 40.4884 56.7171 40.4785 56.7649 40.4785C56.8126 40.4785 56.8599 40.4884 56.9036 40.5075C57.0424 40.5075 57.1349 40.5075 57.2505 40.5075C57.8588 40.0757 58.4382 39.6044 58.9849 39.0969C59.1573 38.8849 59.3511 38.6912 59.563 38.5187C59.7858 38.3865 60.0453 38.3297 60.303 38.3569C60.4048 38.3572 60.505 38.3824 60.5949 38.4303C60.6847 38.4782 60.7615 38.5473 60.8185 38.6317C60.8755 38.7161 60.911 38.8131 60.9219 38.9143C60.9329 39.0156 60.9188 39.1179 60.8811 39.2125C60.8184 39.4085 60.7161 39.5895 60.5805 39.7444C60.3752 39.9341 60.159 40.1117 59.933 40.2762L58.1986 41.6637C58.1573 41.6925 58.1233 41.7304 58.0992 41.7745C58.0751 41.8187 58.0617 41.8679 58.0599 41.9181C58.0433 42.071 57.9688 42.2116 57.8518 42.3113L57.1811 42.8894L56.9268 43.0512C57.0272 43.1664 57.1354 43.2745 57.2505 43.375C58.4059 45.2537 58.9624 47.4394 58.8461 49.6419C58.8461 49.9425 58.8461 49.9656 59.1005 50.035L59.9793 50.2663C60.0486 50.274 60.1155 50.2966 60.1754 50.3325C60.2353 50.3684 60.2867 50.4168 60.3261 50.4744C60.351 50.5231 60.3869 50.5652 60.4312 50.5974C60.4754 50.6295 60.5265 50.6508 60.5805 50.6594L62.5693 51.0294C62.906 51.0819 63.2383 51.1592 63.5636 51.2606C63.7607 51.332 63.9416 51.4421 64.0955 51.5844C64.1759 51.6503 64.2386 51.7354 64.2778 51.8317C64.317 51.9281 64.3316 52.0327 64.3201 52.1361C64.3086 52.2394 64.2715 52.3383 64.212 52.4237C64.1526 52.5091 64.0728 52.5783 63.9799 52.625L63.9336 52.5788ZM75.1493 46.0344L72.5593 48.3469L71.4261 49.4106L71.1486 49.6188C70.8711 49.4569 67.0324 45.9419 66.9168 45.7106C67.6568 45.7106 68.3736 45.7106 69.2293 45.7106C69.2293 45.5719 69.2293 45.4562 69.2293 45.3175C69.316 40.2989 67.517 35.4303 64.188 31.6737C61.1201 28.1287 56.8898 25.7922 52.2555 25.0831C49.63 24.6177 46.9381 24.6807 44.3373 25.2684C41.7364 25.8561 39.2789 26.9566 37.1086 28.5056L36.808 28.7137C39.5688 26.2358 42.9201 24.509 46.5404 23.6991C50.1606 22.8892 53.9283 23.0234 57.4818 24.0887C62.1473 25.4129 66.2243 28.2831 69.0443 32.2288C71.8741 36.1328 73.3224 40.8684 73.1605 45.6875H75.473C75.3805 45.9188 75.288 45.965 75.1955 46.0344H75.1493Z" fill="url(#paint0_linear_6114_452)"/>
<path d="M64.0265 51.6058C63.8809 51.4641 63.7077 51.3539 63.5177 51.2821C63.1917 51.1831 62.8595 51.1059 62.5233 51.0508L60.5115 50.6808C60.4162 50.6462 60.3349 50.5812 60.2802 50.4958C60.1974 50.3783 60.0737 50.2958 59.9333 50.2646L59.0546 50.0564C58.754 50.0564 58.7771 50.0564 58.7771 49.6633C58.9419 47.4584 58.4079 45.2575 57.2508 43.3733L57.0658 43.0265L57.3202 42.8646L57.9677 42.2865C58.0309 42.24 58.084 42.1812 58.1238 42.1137C58.1635 42.0461 58.1891 41.9711 58.199 41.8933C58.1988 41.8427 58.2114 41.7928 58.2357 41.7483C58.2599 41.7038 58.295 41.6662 58.3377 41.639L60.0721 40.2515C60.2956 40.093 60.5045 39.915 60.6965 39.7196C60.8388 39.5656 60.9488 39.3848 61.0202 39.1877C61.0525 39.093 61.0624 38.9921 61.0492 38.893C61.036 38.7938 60.9999 38.699 60.9439 38.6161C60.8879 38.5332 60.8134 38.4644 60.7264 38.4152C60.6393 38.3659 60.542 38.3374 60.4421 38.3321C60.1844 38.3049 59.9249 38.3617 59.7021 38.494C59.4724 38.6189 59.2556 38.7661 59.0546 38.9333C58.5031 39.4354 57.9241 39.9063 57.3202 40.344C57.2046 40.344 57.1121 40.4827 56.9733 40.344C56.8754 40.3137 56.7706 40.3137 56.6727 40.344L55.8633 40.9221L55.5627 41.1071L55.2852 41.0608C53.6614 39.5722 51.6187 38.6195 49.4346 38.3321C49.134 38.3321 49.1108 38.3321 49.1108 37.9852C49.1108 37.6383 49.1108 37.2221 49.1108 36.829C49.1108 36.4358 49.1108 36.5977 48.9952 36.5515C48.9292 36.5003 48.8775 36.433 48.8451 36.356C48.8127 36.2791 48.8007 36.195 48.8102 36.1121C48.8102 35.3952 48.8102 34.7015 48.8102 33.9846C48.8218 33.7612 48.8218 33.5373 48.8102 33.314C48.7841 33.0895 48.7216 32.8708 48.6252 32.6665C48.5712 32.5594 48.4886 32.4695 48.3865 32.4067C48.2845 32.3438 48.167 32.3105 48.0471 32.3105C47.9272 32.3105 47.8097 32.3438 47.7077 32.4067C47.6056 32.4695 47.523 32.5594 47.469 32.6665C47.3723 32.8152 47.3019 32.9795 47.2608 33.1521C47.2038 33.5044 47.2038 33.8635 47.2608 34.2158C47.2608 34.9096 47.2608 35.5802 47.2608 36.2508C47.2608 36.2508 47.2608 36.4821 47.1452 36.5515C47.0296 36.6208 46.9833 36.7596 46.9602 36.9215C46.9371 37.0833 46.9602 37.6846 46.9602 38.0546C46.9602 38.4246 46.9602 38.3552 46.6365 38.4015C44.4481 38.6745 42.3929 39.6013 40.7396 41.0608L40.4621 41.2921L40.1846 41.0608L39.3521 40.4827C39.3521 40.4827 39.1902 40.344 39.0746 40.4827C39.0275 40.5266 38.9655 40.551 38.9012 40.551C38.8368 40.551 38.7748 40.5266 38.7277 40.4827C38.1624 40.0759 37.6219 39.6358 37.109 39.1646C36.844 38.9043 36.5294 38.6998 36.184 38.5633C35.944 38.4823 35.684 38.4823 35.444 38.5633C35.2964 38.6017 35.169 38.6947 35.0874 38.8235C35.0058 38.9523 34.9762 39.1073 35.0046 39.2571C35.032 39.4863 35.1383 39.6989 35.3052 39.8583C35.4972 40.0538 35.7061 40.2318 35.9296 40.3902C36.5077 40.8758 37.1321 41.3383 37.7333 41.824C37.7333 41.824 37.9183 41.9627 37.8721 42.0783C37.8542 42.14 37.8582 42.206 37.8835 42.265C37.9088 42.3241 37.9538 42.3725 38.0108 42.4021L38.774 43.0958C38.9358 43.2577 38.9358 43.2577 38.774 43.4658C38.6121 43.674 38.3346 44.229 38.1496 44.599C37.3855 46.1662 37.0201 47.8978 37.0858 49.6402C37.0858 50.0796 37.0858 50.0333 36.6927 50.1027L35.7215 50.2877C35.5133 50.2877 35.3283 50.4265 35.3052 50.6808C35.2821 50.9352 35.3052 50.8658 35.074 50.889L33.2471 51.2358C32.8851 51.2871 32.5337 51.3964 32.2065 51.5596C32.0605 51.6203 31.9397 51.7291 31.864 51.8679C31.7883 52.0066 31.7623 52.1671 31.7902 52.3227C31.7902 52.6696 32.0908 52.8083 32.3915 52.9008H32.7615C33.0617 52.9236 33.3632 52.9236 33.6633 52.9008C34.1952 52.9008 34.7271 52.6696 35.2358 52.554H35.5133C35.5061 52.6154 35.5061 52.6775 35.5133 52.739C35.6521 53.0165 35.6521 53.0165 35.9527 52.9702L37.2708 52.7158H37.479C37.7333 53.294 37.9646 53.8721 38.2421 54.404C38.5382 54.9349 38.8705 55.4448 39.2365 55.9302C39.6013 56.4225 40.0116 56.8793 40.4621 57.2946C40.8783 57.7108 41.3871 58.0577 41.8496 58.474C41.8211 58.5703 41.7823 58.6633 41.734 58.7515C41.5721 59.0983 41.4102 59.4221 41.2252 59.769C41.1556 59.9474 41.1556 60.1455 41.2252 60.324C41.2596 60.3879 41.2776 60.4594 41.2776 60.5321C41.2776 60.6047 41.2596 60.6762 41.2252 60.7402L40.3696 61.8733C40.2132 62.1176 40.0741 62.3726 39.9534 62.6365C39.8723 62.8765 39.8723 63.1364 39.9534 63.3765C39.9697 63.4624 40.0034 63.5442 40.0522 63.6168C40.1011 63.6895 40.1642 63.7514 40.2377 63.799C40.3112 63.8465 40.3935 63.8787 40.4798 63.8935C40.5661 63.9083 40.6545 63.9055 40.7396 63.8852C40.9592 63.8115 41.1522 63.6748 41.2946 63.4921C41.4903 63.251 41.668 62.996 41.8265 62.729L42.7283 61.1796C42.7862 61.106 42.8566 61.0434 42.9365 60.9946C43.0616 60.9588 43.1777 60.8971 43.2773 60.8134C43.377 60.7298 43.4578 60.626 43.5146 60.509C43.7227 60.2083 43.9077 59.9077 44.0927 59.584C44.1601 59.5035 44.2219 59.4185 44.2777 59.3296C46.7612 60.206 49.4763 60.165 51.9321 59.214L52.094 59.4683L52.6027 60.4627L52.7646 60.7171C52.8014 60.7874 52.8587 60.8449 52.9289 60.8821C52.9991 60.9192 53.0788 60.9343 53.1577 60.9252C53.2098 60.9107 53.2655 60.9171 53.313 60.943C53.3605 60.9689 53.396 61.0123 53.4121 61.064C53.6202 61.4571 53.8052 61.8733 54.0133 62.2433C54.1719 62.5695 54.3495 62.8861 54.5452 63.1915C54.6974 63.4022 54.8949 63.5761 55.1233 63.7002C55.2162 63.7662 55.3259 63.8045 55.4396 63.8105C55.5534 63.8166 55.6665 63.7902 55.7658 63.7345C55.8652 63.6788 55.9467 63.596 56.0008 63.4957C56.0549 63.3955 56.0794 63.282 56.0715 63.1683C56.1183 62.9472 56.1183 62.7188 56.0715 62.4977C55.956 62.2166 55.8167 61.9458 55.6552 61.6883C55.424 61.2258 55.1927 60.7633 54.9383 60.3008C54.8989 60.2516 54.8775 60.1904 54.8775 60.1274C54.8775 60.0643 54.8989 60.0032 54.9383 59.954C54.9781 59.8961 54.9994 59.8276 54.9994 59.7574C54.9994 59.6872 54.9781 59.6187 54.9383 59.5608L54.3833 58.3815L54.2446 58.0577L54.4758 57.8496C56.2274 56.5293 57.5343 54.7061 58.2221 52.6233C58.2221 52.3227 58.2221 52.3227 58.6383 52.3458L59.5865 52.4615C59.5865 52.4615 59.7946 52.4615 59.8408 52.4615C59.8871 52.4615 60.2108 52.3227 60.419 52.3458L62.5696 52.8083C62.8538 52.8429 63.1411 52.8429 63.4252 52.8083C63.6271 52.7805 63.8183 52.7008 63.9802 52.5771C64.0595 52.525 64.1253 52.4549 64.1722 52.3726C64.2192 52.2902 64.2461 52.1979 64.2506 52.1032C64.2551 52.0085 64.2371 51.9141 64.1982 51.8276C64.1592 51.7412 64.1004 51.6652 64.0265 51.6058ZM39.7452 49.2933C39.6321 47.7192 40.0383 46.1514 40.9015 44.8302L41.0865 44.9921L43.2602 46.9346C43.3571 47.0239 43.4425 47.1249 43.5146 47.2352C43.6183 47.401 43.6522 47.601 43.6088 47.7916C43.5655 47.9823 43.4485 48.148 43.2833 48.2527C43.0717 48.3984 42.8372 48.5078 42.5896 48.5765C41.7108 48.8308 40.809 49.0389 39.9302 49.2702L39.7452 49.2933ZM44.3702 52.4846C44.3702 52.4846 44.3702 52.6696 44.3702 52.7621L43.2371 55.4908C43.1957 55.5857 43.1494 55.6783 43.0983 55.7683C41.7867 54.8075 40.7889 53.4798 40.2308 51.9527H40.5315L42.844 51.629C43.1668 51.5949 43.4924 51.5949 43.8152 51.629C44.3933 51.629 44.6477 52.0221 44.509 52.6002L44.3702 52.4846ZM45.3415 44.599C44.4396 44.0208 43.584 43.4196 42.7052 42.8183C43.792 41.852 45.1469 41.239 46.5902 41.0608V41.3152C46.5902 42.1477 46.5902 42.9802 46.4283 43.8127C46.4409 43.9666 46.4409 44.1213 46.4283 44.2752C46.4081 44.3799 46.3623 44.478 46.295 44.5608C46.2277 44.6436 46.141 44.7084 46.0426 44.7496C45.9442 44.7908 45.8372 44.8071 45.731 44.7969C45.6248 44.7868 45.5228 44.7505 45.434 44.6915L45.3415 44.599ZM45.6883 57.0171L45.804 56.7858C46.0583 56.3927 46.3127 55.9996 46.544 55.6065C46.7752 55.2133 47.1221 54.6352 47.3996 54.1496C47.4714 54.0321 47.5568 53.9234 47.654 53.8258C47.7256 53.7387 47.8156 53.6685 47.9175 53.6203C48.0195 53.5721 48.1309 53.5471 48.2437 53.5471C48.3564 53.5471 48.4678 53.5721 48.5698 53.6203C48.6717 53.6685 48.7618 53.7387 48.8334 53.8258C49.3421 54.7508 49.8971 55.6296 50.4521 56.5315L50.5677 56.7858C49.0155 57.4185 47.2934 57.5001 45.6883 57.0171ZM50.3133 44.7377C50.2126 44.7575 50.1089 44.7562 50.0087 44.7337C49.9085 44.7113 49.8141 44.6683 49.7314 44.6074C49.6488 44.5465 49.5797 44.4691 49.5286 44.38C49.4775 44.291 49.4455 44.1923 49.4346 44.0902C49.4346 43.7202 49.4346 43.3502 49.4346 42.9802C49.4346 42.6102 49.4346 41.7777 49.319 41.1765V41.0608C50.7977 41.2426 52.1855 41.8719 53.2965 42.8646L50.8221 44.5758C50.7257 44.6453 50.6151 44.6927 50.4983 44.7146L50.3133 44.7377ZM52.9727 55.5833C52.9213 55.4856 52.875 55.3852 52.834 55.2827L51.7471 52.9702C51.6794 52.8053 51.6253 52.6351 51.5852 52.4615C51.5474 52.3552 51.538 52.2409 51.558 52.1299C51.5779 52.0189 51.6265 51.9151 51.699 51.8286C51.7714 51.7422 51.8651 51.6761 51.9709 51.6371C52.0767 51.598 52.1909 51.5872 52.3021 51.6058L53.5971 51.7677C54.129 51.7677 54.6608 51.9065 55.1927 51.9758C55.3234 51.9628 55.4551 51.9628 55.5858 51.9758C55.1128 53.4154 54.1985 54.6695 52.9727 55.5602V55.5833ZM56.164 49.2933H55.8633L53.2502 48.5996C53.0404 48.5389 52.8386 48.4536 52.649 48.3452C52.5757 48.3093 52.5108 48.2582 52.4587 48.1954C52.4066 48.1326 52.3683 48.0595 52.3465 47.9809C52.3246 47.9022 52.3197 47.8198 52.332 47.7392C52.3442 47.6585 52.3735 47.5813 52.4177 47.5127C52.5209 47.2773 52.6703 47.0649 52.8571 46.8883C53.5046 46.2408 54.1983 45.6396 54.869 45.0152H55.0308C55.8169 46.3514 56.2097 47.8825 56.164 49.4321V49.2933Z" fill="white"/>
<path d="M75.3801 45.6863C75.3801 45.8713 75.3801 45.9175 75.1951 45.9869L72.6051 48.2994L71.472 49.3631L71.1945 49.5713C70.917 49.4094 67.0782 45.8944 66.9626 45.6631C67.7026 45.6631 68.4195 45.6631 69.2751 45.6631C69.2751 45.5244 69.2751 45.4088 69.2751 45.27C69.3375 40.2611 67.5226 35.4103 64.1876 31.6725C61.1236 28.1226 56.8914 25.7851 52.2551 25.0819C49.6296 24.6165 46.9377 24.6795 44.3369 25.2671C41.736 25.8548 39.2786 26.9554 37.1082 28.5044L36.8076 28.7125C39.5684 26.2346 42.9197 24.5078 46.54 23.6979C50.1602 22.888 53.9279 23.0222 57.4814 24.0875C62.1469 25.4116 66.2239 28.2819 69.0439 32.2275C71.8737 36.1316 73.3221 40.8672 73.1601 45.6863H75.4726H75.3801Z" fill="white"/>
<path d="M59.2855 70.3148C59.221 70.4103 59.1431 70.4959 59.0543 70.5692C54.9722 74.0678 49.748 75.9462 44.3728 75.8482C38.9976 75.7501 33.8454 73.6824 29.8936 70.0373C26.2493 66.7115 23.8506 62.2404 23.0949 57.3648C22.8868 56.1585 22.7939 54.9351 22.8174 53.7111C22.8174 53.5723 22.8174 53.4567 22.8174 53.2948C22.0774 53.2948 21.3374 53.2948 20.5049 53.2948C20.6205 53.0636 24.2511 49.7105 24.6905 49.3867C24.9218 49.3867 28.8068 53.0405 28.9686 53.2948H26.6561C26.646 53.4411 26.646 53.5879 26.6561 53.7342C26.6456 58.3932 28.2654 62.9091 31.2349 66.4992C34.2296 70.3756 38.5553 73.004 43.3755 73.8761C46.0416 74.3965 48.7857 74.3696 51.4412 73.7972C54.0966 73.2248 56.608 72.1187 58.823 70.5461L59.2855 70.3148Z" fill="white"/>
<path d="M50.6131 56.879C49.0364 57.4922 47.2962 57.5412 45.6875 57.0177C45.7171 56.9438 45.756 56.8738 45.8031 56.8096C46.0344 56.3934 46.3119 56.0002 46.5431 55.6071C46.7744 55.214 47.1212 54.6359 47.3987 54.1502L47.63 53.8265C47.7038 53.7389 47.7959 53.6685 47.8997 53.6202C48.0036 53.5719 48.1167 53.5469 48.2313 53.5469C48.3458 53.5469 48.4589 53.5719 48.5628 53.6202C48.6666 53.6685 48.7587 53.7389 48.8325 53.8265C49.3413 54.7515 49.8962 55.6302 50.4512 56.5321L50.6131 56.879Z" fill="url(#paint1_linear_6114_452)"/>
<path d="M44.4157 52.4847C44.4157 52.4847 44.4157 52.6697 44.4157 52.7622C44.0457 53.6641 43.6526 54.5891 43.2826 55.5141C43.2826 55.5141 43.2826 55.6297 43.1439 55.7685C41.8322 54.8077 40.8344 53.48 40.2764 51.9528H40.577L42.8895 51.6291C43.2123 51.595 43.5379 51.595 43.8607 51.6291C44.3001 51.5366 44.5545 51.9066 44.4157 52.4847Z" fill="url(#paint2_linear_6114_452)"/>
<path d="M43.237 48.2777C43.0253 48.4234 42.7909 48.5328 42.5432 48.6014C41.6645 48.8558 40.7626 49.0639 39.8607 49.2952H39.7451C39.632 47.721 40.0382 46.1532 40.9014 44.832C40.9571 44.8924 41.0191 44.9467 41.0864 44.9939L43.2601 46.9595C43.3618 47.035 43.4481 47.1292 43.5145 47.237C43.6146 47.4016 43.6488 47.5979 43.6102 47.7866C43.5716 47.9754 43.4631 48.1425 43.3064 48.2545L43.237 48.2777Z" fill="url(#paint3_linear_6114_452)"/>
<path d="M56.2331 49.2937H55.9325C55.0537 49.0625 54.175 48.8544 53.3194 48.6C53.1062 48.5493 52.903 48.4633 52.7181 48.3456C52.6448 48.3097 52.58 48.2586 52.5278 48.1958C52.4757 48.1331 52.4375 48.0599 52.4156 47.9813C52.3938 47.9026 52.3888 47.8203 52.4011 47.7396C52.4134 47.6589 52.4426 47.5817 52.4869 47.5131C52.59 47.2777 52.7394 47.0654 52.9262 46.8888C53.5737 46.2413 54.2675 45.64 54.9381 45.0156H55.1C55.8611 46.3115 56.253 47.791 56.2331 49.2937Z" fill="url(#paint4_linear_6114_452)"/>
<path d="M55.6549 51.9993C55.1818 53.4389 54.2676 54.693 53.0417 55.5837C52.9904 55.486 52.9441 55.3856 52.903 55.2831L51.8161 52.9706C51.7518 52.8124 51.6977 52.6502 51.6542 52.485C51.611 52.3775 51.5974 52.2604 51.6148 52.1459C51.6322 52.0314 51.68 51.9237 51.7532 51.8339C51.8264 51.7442 51.9224 51.6757 52.0311 51.6356C52.1397 51.5956 52.2572 51.5854 52.3711 51.6062L53.6661 51.7681L55.2617 51.9762L55.6549 51.9993Z" fill="url(#paint5_linear_6114_452)"/>
<path d="M53.2726 42.7729L50.7982 44.4841C50.7077 44.549 50.6057 44.5961 50.4976 44.6229C50.3952 44.6464 50.2891 44.6478 50.1861 44.6271C50.0831 44.6064 49.9858 44.564 49.9005 44.5028C49.8152 44.4415 49.7439 44.3628 49.6913 44.2719C49.6388 44.181 49.6062 44.0799 49.5957 43.9754C49.5957 43.6054 49.5957 43.2354 49.5957 42.8654C49.5957 42.4954 49.5957 41.6629 49.4801 41.0616C49.4689 40.9927 49.4689 40.9224 49.4801 40.8535C50.9065 41.1034 52.2265 41.7714 53.2726 42.7729Z" fill="url(#paint6_linear_6114_452)"/>
<path d="M46.5897 41.2244C46.5897 42.0569 46.5897 42.8894 46.4278 43.7219C46.452 43.8751 46.452 44.0312 46.4278 44.1844C46.4113 44.2886 46.3686 44.387 46.3038 44.4702C46.239 44.5535 46.1541 44.619 46.0571 44.6606C45.9601 44.7022 45.8541 44.7185 45.7491 44.708C45.6441 44.6975 45.5434 44.6606 45.4566 44.6006C44.5547 44.0225 43.6991 43.4213 42.8203 42.82C43.8755 41.8746 45.1872 41.263 46.5897 41.0625V41.2244Z" fill="url(#paint7_linear_6114_452)"/>
<defs>
<linearGradient id="paint0_linear_6114_452" x1="12.4111" y1="48" x2="83.5899" y2="48" gradientUnits="userSpaceOnUse">
<stop stop-color="#FA8303"/>
<stop offset="1" stop-color="#F4A705"/>
</linearGradient>
<linearGradient id="paint1_linear_6114_452" x1="45.7337" y1="55.4684" x2="50.6131" y2="55.4684" gradientUnits="userSpaceOnUse">
<stop stop-color="#FA8303"/>
<stop offset="1" stop-color="#F4A705"/>
</linearGradient>
<linearGradient id="paint2_linear_6114_452" x1="40.1839" y1="53.641" x2="44.4389" y2="53.641" gradientUnits="userSpaceOnUse">
<stop stop-color="#FA8303"/>
<stop offset="1" stop-color="#F4A705"/>
</linearGradient>
<linearGradient id="paint3_linear_6114_452" x1="39.6757" y1="47.0752" x2="43.6301" y2="47.0752" gradientUnits="userSpaceOnUse">
<stop stop-color="#FA8303"/>
<stop offset="1" stop-color="#F4A705"/>
</linearGradient>
<linearGradient id="paint4_linear_6114_452" x1="52.3944" y1="47.0969" x2="56.2331" y2="47.0969" gradientUnits="userSpaceOnUse">
<stop stop-color="#FA8303"/>
<stop offset="1" stop-color="#F4A705"/>
</linearGradient>
<linearGradient id="paint5_linear_6114_452" x1="51.6311" y1="53.5718" x2="55.6549" y2="53.5718" gradientUnits="userSpaceOnUse">
<stop stop-color="#FA8303"/>
<stop offset="1" stop-color="#F4A705"/>
</linearGradient>
<linearGradient id="paint6_linear_6114_452" x1="49.2951" y1="42.8654" x2="53.2726" y2="42.8654" gradientUnits="userSpaceOnUse">
<stop stop-color="#FA8303"/>
<stop offset="1" stop-color="#F4A705"/>
</linearGradient>
<linearGradient id="paint7_linear_6114_452" x1="42.7047" y1="42.8431" x2="46.5897" y2="42.8431" gradientUnits="userSpaceOnUse">
<stop stop-color="#FA8303"/>
<stop offset="1" stop-color="#F4A705"/>
</linearGradient>
</defs>
</svg>
