<svg width="96" height="96" viewBox="0 0 96 96" fill="none" xmlns="http://www.w3.org/2000/svg">
<rect width="96" height="96" fill="white"/>
<path d="M85.9979 47.5088C85.9979 51.561 83.5161 55.1711 82.3312 58.8231C81.1013 62.6124 80.9442 66.983 78.6489 70.1374C76.3305 73.3232 72.2071 74.8129 69.0212 77.1313C65.8669 79.4266 63.1881 82.9016 59.3999 84.1326C55.7437 85.3195 51.5501 84.121 47.499 84.121C43.4478 84.121 39.2542 85.3195 35.5991 84.1326C31.8098 82.9016 29.1311 79.4266 25.9767 77.1313C22.7909 74.8129 18.6674 73.3232 16.3491 70.1374C14.0537 66.9841 13.8966 62.6134 12.6667 58.8231C11.4797 55.1669 9 51.5568 9 47.5088C9 43.4608 11.4818 39.8465 12.6667 36.1945C13.8966 32.4053 14.0537 28.0346 16.3491 24.8803C18.6674 21.6955 22.7909 20.2047 25.9767 17.8874C29.1311 15.5921 31.8098 12.1161 35.5991 10.8862C39.2542 9.69921 43.4478 10.8966 47.499 10.8966C51.5501 10.8966 55.7437 9.69921 59.3989 10.8862C63.1881 12.1161 65.8669 15.5921 69.0212 17.8874C72.2071 20.2047 76.3305 21.6955 78.6489 24.8803C80.9442 28.0346 81.1013 32.4053 82.3312 36.1945C83.5161 39.8465 85.9979 43.4577 85.9979 47.5088Z" fill="#326CE5"/>
<path d="M34.1631 52.0791C34.4832 52.0791 34.7813 52.0906 35.0605 52.1104L35.0498 52.1455C35.0026 52.2921 34.9907 52.4476 35.0156 52.5996C35.0298 52.6861 35.0562 52.7696 35.0928 52.8486C34.8066 52.8261 34.4982 52.8125 34.1631 52.8125C32.0191 52.8125 30.9646 53.3112 29.874 53.8252C28.742 54.3587 27.5728 54.9072 25.2725 54.9072C23.1923 54.9072 22.038 54.458 20.999 53.9775C20.9261 53.6776 20.8568 53.376 20.7939 53.0723C20.858 53.1022 20.9218 53.1321 20.9854 53.1621C22.0756 53.6761 23.1294 54.1738 25.2725 54.1738C27.4161 54.1738 28.4708 53.6762 29.5615 53.1621C30.6935 52.6286 31.8625 52.0791 34.1631 52.0791ZM69.7197 52.0791C71.9322 52.0791 73.0977 52.5881 74.1904 53.1016C74.1394 53.3466 74.0849 53.5904 74.0273 53.833C74.0213 53.8302 74.0148 53.828 74.0088 53.8252C72.9183 53.3112 71.8638 52.8125 69.7197 52.8125C67.576 52.8126 66.5212 53.3112 65.4307 53.8252C64.2987 54.3587 63.1301 54.9072 60.8301 54.9072C59.7777 54.9072 58.9627 54.7909 58.2793 54.6152C58.4124 54.4025 58.5437 54.1867 58.666 53.9639C58.7188 53.9776 58.7729 53.9848 58.8271 53.9902C59.3821 54.1038 60.0302 54.1738 60.8301 54.1738C62.9734 54.1738 64.0276 53.6761 65.1182 53.1621C66.2501 52.6286 67.4193 52.0792 69.7197 52.0791ZM76.6553 53.999C77.1997 54.1069 77.8333 54.1738 78.6104 54.1738V54.9072C77.7696 54.9072 77.0802 54.8329 76.4883 54.7139C76.547 54.4767 76.6022 54.2384 76.6553 53.999ZM45.8076 54.5605C45.3804 54.6823 44.9021 54.7796 44.3438 54.8398C43.966 54.7693 43.5898 54.6901 43.2168 54.5967C42.7097 54.4741 42.2145 54.3063 41.7354 54.1006C42.1259 54.1471 42.5601 54.1738 43.0518 54.1738C44.2424 54.1738 45.0964 54.0195 45.8076 53.7949V54.5605ZM51.9414 52.0791C53.1198 52.0791 54.0009 52.2242 54.7324 52.4365C54.7466 52.4728 54.7636 52.5085 54.7822 52.543C54.848 52.6642 54.9399 52.7706 55.0508 52.8525C54.9534 52.975 54.8501 53.0925 54.7441 53.207C54.0237 52.9741 53.1582 52.8125 51.9414 52.8125C50.9126 52.8125 50.1348 52.9283 49.4834 53.1045V52.3467C50.1476 52.1842 50.9366 52.0791 51.9414 52.0791ZM16.3838 52.0791C16.9928 52.0791 17.5224 52.119 17.9932 52.1855C18.0332 52.4402 18.0766 52.6938 18.123 52.9463C17.6282 52.8622 17.0602 52.8125 16.3838 52.8125V52.0791ZM34.1631 47.1553C36.4411 47.1553 37.5931 47.6968 38.7188 48.2275C39.8149 48.7444 40.8853 49.25 43.0518 49.25C44.2376 49.25 45.0946 49.0979 45.8076 48.876V49.4238C45.085 49.633 44.2153 49.7744 43.0518 49.7744C40.7735 49.7744 39.6218 49.2319 38.4961 48.7012C38.2004 48.5618 37.9058 48.425 37.5918 48.2969C37.5037 48.2275 37.4045 48.173 37.2969 48.1387C37.2161 48.113 37.132 48.0982 37.0479 48.0947C36.3093 47.8505 35.4211 47.6787 34.1631 47.6787C31.9968 47.6787 30.9256 48.1844 29.8291 48.7012C28.703 49.2319 27.5504 49.7744 25.2725 49.7744C22.9947 49.7744 21.8427 49.2319 20.7168 48.7012C20.5603 48.6274 20.4038 48.5553 20.2451 48.4834C20.2384 48.2912 20.2342 48.0985 20.2314 47.9053C20.475 48.0106 20.7087 48.1183 20.9404 48.2275C22.0367 48.7444 23.1067 49.2499 25.2725 49.25C27.4383 49.25 28.5089 48.7444 29.6055 48.2275C30.7316 47.6968 31.8847 47.1553 34.1631 47.1553ZM69.7197 47.1553C71.9981 47.1553 73.1513 47.6968 74.2773 48.2275C74.4335 48.3011 74.5897 48.3736 74.748 48.4453C74.7417 48.633 74.7347 48.8202 74.7246 49.0068C74.4949 48.9066 74.2733 48.8047 74.0537 48.7012C72.9573 48.1844 71.8862 47.6787 69.7197 47.6787C67.5539 47.6788 66.483 48.1845 65.3867 48.7012C64.2606 49.2319 63.108 49.7744 60.8301 49.7744C60.2223 49.7744 59.6949 49.7347 59.2266 49.668C59.2044 49.5772 59.1823 49.4864 59.1602 49.3955C59.1349 49.2927 59.0922 49.1956 59.0361 49.1074C59.5451 49.1963 60.1303 49.25 60.8301 49.25C62.996 49.25 64.0665 48.7444 65.1631 48.2275C66.2891 47.6968 67.4417 47.1553 69.7197 47.1553ZM77.3184 49.1787C77.7033 49.2231 78.1298 49.25 78.6104 49.25V49.7744C78.1197 49.7744 77.6814 49.7479 77.2842 49.7031C77.2968 49.5287 77.3087 49.3539 77.3184 49.1787ZM51.9414 47.1553C54.2192 47.1554 55.3714 47.6969 56.4971 48.2275C56.9048 48.4197 57.3093 48.6098 57.7676 48.7734C57.6899 48.8147 57.6181 48.8675 57.5537 48.9297L57.3125 49.1592C56.9455 49.0142 56.6082 48.8585 56.2744 48.7012C55.1782 48.1844 54.1076 47.6788 51.9414 47.6787C50.9163 47.6787 50.1366 47.7927 49.4834 47.9668V47.4258C50.1458 47.2616 50.9334 47.1553 51.9414 47.1553ZM16.3838 47.1553C16.8425 47.1553 17.2555 47.1784 17.6318 47.2178C17.6309 47.3146 17.6289 47.4117 17.6289 47.5088C17.6289 47.5876 17.6312 47.6664 17.6318 47.7451C17.2584 47.7039 16.8462 47.6787 16.3838 47.6787V47.1553ZM34.1631 43.0693C36.4189 43.0694 37.555 43.6049 38.6748 44.1328C39.7767 44.6523 40.8633 45.165 43.0518 45.165C44.233 45.165 45.0927 45.014 45.8076 44.7949V45.124C45.0869 45.3354 44.2196 45.4795 43.0518 45.4795C40.7958 45.4795 39.6599 44.945 38.54 44.417C37.4381 43.8974 36.3517 43.3838 34.1631 43.3838C31.9743 43.3838 30.8866 43.8974 29.7842 44.417C28.6641 44.9449 27.5278 45.4795 25.2725 45.4795C23.0172 45.4794 21.8816 44.9449 20.7617 44.417C20.648 44.3634 20.5345 44.3098 20.4199 44.2568C20.4329 44.1476 20.4457 44.0385 20.46 43.9297C20.607 43.9967 20.7514 44.0649 20.8955 44.1328C21.9977 44.6524 23.0843 45.165 25.2725 45.165C27.4607 45.165 28.5479 44.6524 29.6504 44.1328C30.7706 43.6049 31.9071 43.0693 34.1631 43.0693ZM69.7197 43.0693C71.9757 43.0693 73.1123 43.6048 74.2324 44.1328C74.347 44.1868 74.4616 44.2406 74.5771 44.2939C74.5913 44.4148 74.6056 44.5359 74.6182 44.6572C74.4418 44.578 74.2693 44.4979 74.0977 44.417C72.9954 43.8974 71.9084 43.3838 69.7197 43.3838C67.5312 43.3839 66.4442 43.8974 65.3418 44.417C64.2216 44.945 63.0855 45.4795 60.8301 45.4795C58.5748 45.4795 57.4392 44.9449 56.3193 44.417C55.727 44.1378 55.1388 43.861 54.3818 43.6641C54.4185 43.566 54.4473 43.4653 54.4678 43.3623C55.2474 43.566 55.8528 43.8498 56.4531 44.1328C57.5553 44.6524 58.6419 45.165 60.8301 45.165C63.0184 45.165 64.1055 44.6524 65.208 44.1328C66.3281 43.6049 67.4641 43.0694 69.7197 43.0693ZM77.2676 45.0889C77.6665 45.1365 78.1095 45.165 78.6104 45.165V45.4795C78.1213 45.4795 77.6851 45.4529 77.29 45.4082C77.2826 45.3016 77.2761 45.1951 77.2676 45.0889ZM16.3838 43.0693C16.9733 43.0693 17.4862 43.1075 17.9424 43.1709C17.9273 43.2743 17.9124 43.3777 17.8984 43.4814C17.4559 43.42 16.9578 43.3838 16.3838 43.3838V43.0693Z" fill="white"/>
<path d="M47.4964 14.8066C29.4355 14.8066 14.7939 29.4482 14.7939 47.5091C14.7939 65.5701 29.4355 80.2116 47.4964 80.2116C65.5574 80.2116 80.1989 65.5743 80.1989 47.5091C80.1989 29.444 65.5574 14.8066 47.4964 14.8066ZM47.488 77.3663C30.9943 77.3663 17.6424 64.0081 17.6393 47.5144C17.6393 31.0028 31.0258 17.6258 47.531 17.6572C64.0362 17.6886 77.3682 31.0458 77.3536 47.5374C77.3389 64.029 63.9818 77.3715 47.488 77.3663Z" fill="white"/>
<path d="M32.4104 62.328C32.3056 61.9665 31.808 61.6072 31.4214 61.6554C30.8724 61.7256 30.3256 61.8167 29.6656 61.9152C29.9086 61.2709 30.114 60.7209 30.3235 60.1709C30.5047 59.6932 30.114 59.4617 29.8688 59.2061C29.6237 58.9504 29.432 59.2731 29.2654 59.4051C28.3781 60.1081 27.518 60.8456 26.6223 61.537C26.1969 61.8649 26.5175 62.0556 26.6893 62.2913C26.8611 62.527 27.0361 62.7921 27.387 62.483C27.7914 62.1279 28.2188 61.7979 28.6442 61.4532C28.6599 61.493 28.6745 61.5119 28.6704 61.5244C28.5865 61.7675 28.4954 62.0085 28.4137 62.2525C28.2429 62.768 28.5729 63.1441 29.1145 63.0592C29.3398 63.0236 29.5692 62.9544 29.8374 63.0697C29.4016 63.4269 29.0234 63.7622 28.619 64.0607C28.2869 64.3059 28.4462 64.506 28.6463 64.6893C28.8464 64.8726 28.9302 65.3504 29.3586 65.0036C30.3217 64.227 31.2817 63.4479 32.2385 62.6664C32.337 62.5857 32.4638 62.5103 32.4104 62.328Z" fill="white"/>
<path d="M49.921 27.0852C50.6061 27.368 50.8775 27.2381 51.0189 26.53C51.0503 26.376 51.0786 26.223 51.1163 26.0711C51.1467 25.9475 51.1163 25.739 51.306 25.7652C51.4956 25.7914 51.7386 25.7526 51.8078 26.0355C51.8769 26.3183 51.9628 26.5687 52.0403 26.8348C52.2582 27.5681 52.408 27.6823 53.155 27.7211C53.4358 27.7358 53.4986 27.6404 53.4242 27.39C53.3069 26.9909 53.2053 26.5865 53.0806 26.1895C53.023 26.0082 52.9759 25.9014 53.2241 25.7977C53.8297 25.542 53.9931 24.9931 54.036 24.4284C54.036 23.7307 53.617 23.2205 52.8334 23.011C52.1964 22.8413 51.5427 22.7355 50.8974 22.592C50.6564 22.5396 50.536 22.637 50.4909 22.8675C50.2437 24.1246 49.9922 25.3901 49.7481 26.6536C49.7157 26.8243 49.6916 26.9909 49.921 27.0852ZM51.7585 23.8376C52.2876 23.7841 52.7978 24.09 52.7925 24.4033C52.7873 24.7165 52.604 24.8684 52.2488 24.8779C52.0299 24.6935 51.5218 24.9931 51.4474 24.5248C51.416 24.3268 51.3426 23.8847 51.7585 23.8418V23.8376Z" fill="white"/>
<path d="M43.0222 68.0706C42.7247 67.9731 42.4209 67.8506 42.3162 68.3451C42.202 68.8888 42.0281 69.4189 41.8479 70.0736C41.5723 69.2544 41.3167 68.5525 41.1041 67.838C40.9647 67.3708 40.5645 67.375 40.2272 67.3142C39.8553 67.2534 39.9223 67.6285 39.8637 67.838C39.5494 68.9233 39.2791 70.0233 38.9418 71.1024C38.7762 71.6346 39.1691 71.5864 39.431 71.6775C39.7097 71.7729 40.0041 71.887 40.1099 71.4261C40.2366 70.874 40.4053 70.3313 40.5761 69.7143C40.6462 69.8756 40.6944 69.9678 40.7269 70.0642C40.9364 70.6928 41.1554 71.314 41.3555 71.9436C41.499 72.4088 41.9181 72.3805 42.2522 72.4266C42.5864 72.4727 42.5173 72.1123 42.5728 71.9227C42.8871 70.8352 43.1522 69.7342 43.4947 68.6572C43.6508 68.1355 43.2894 68.1586 43.0222 68.0706Z" fill="white"/>
<path d="M68.2555 61.444C67.9119 61.3948 67.5735 61.2932 67.2289 61.2607C66.9449 61.2345 66.8737 61.136 66.8643 60.8416C66.8412 60.1083 66.1781 59.507 65.4563 59.4986C64.9608 59.485 64.5815 59.7332 64.2777 60.0811C63.8995 60.5137 63.5748 60.9925 63.1955 61.4241C62.9378 61.7185 62.9703 61.9008 63.2772 62.1323C64.1949 62.8258 65.1053 63.5309 65.9948 64.259C66.309 64.5104 66.4672 64.4842 66.6988 64.1689C67.1178 63.5979 67.1346 63.6115 66.5699 63.1736C66.4463 63.0772 66.3164 62.9872 66.2032 62.8792C66.1163 62.7965 65.9005 62.763 66.022 62.5744C66.1205 62.4225 66.2053 62.2234 66.4578 62.2748C66.7103 62.3261 66.9816 62.3334 67.2257 62.4225C67.7883 62.632 68.1382 62.4131 68.4441 61.9469C68.6463 61.6441 68.6568 61.5006 68.2555 61.444ZM65.1127 62.0129C65.0341 62.0192 64.4705 61.5352 64.4757 61.465C64.4893 61.2806 65.1336 60.6635 65.3138 60.6635C65.5558 60.7117 65.7328 60.8322 65.7527 61.0983C65.7643 61.2607 65.2321 62.0024 65.1127 62.0129Z" fill="white"/>
<path d="M42.212 27.1899C42.2487 27.3995 42.3168 27.5671 42.5776 27.5262C43.5205 27.3628 44.4696 27.2214 45.4062 27.0265C45.9007 26.9217 45.5602 26.5488 45.5654 26.2932C45.5707 26.0197 45.4219 25.937 45.1537 25.9894C44.6414 26.0889 44.1218 26.157 43.6095 26.2586C43.3434 26.311 43.2732 26.1895 43.2481 25.9621C43.2261 25.7599 43.1968 25.6028 43.489 25.5703C43.9217 25.5242 44.345 25.4016 44.7776 25.3555C45.2459 25.3053 45.16 25.0109 45.1097 24.7134C45.0594 24.4158 44.9966 24.1717 44.5859 24.2849C44.2014 24.3896 43.7939 24.4064 43.4063 24.5038C43.1339 24.573 43.0009 24.5562 42.9443 24.2377C42.8825 23.8941 43.0731 23.8658 43.3162 23.8292C43.7468 23.7653 44.1752 23.6825 44.6058 23.6196C44.8813 23.5777 45.093 23.5013 44.9819 23.1545C44.8929 22.8758 45.0196 22.4358 44.4445 22.5553C43.6263 22.726 42.8018 22.8695 41.9742 22.9743C41.5782 23.0246 41.5237 23.2016 41.5824 23.5306C41.795 24.7532 42.0035 25.9747 42.212 27.1899Z" fill="white"/>
<path d="M56.1893 68.5641C55.8837 68.6878 55.5718 68.7952 55.2548 68.8857C54.9919 68.9695 54.8022 69.0764 54.9594 69.4095C55.084 69.6672 55.0505 70.0957 55.5481 69.8966C55.6393 69.86 55.7367 69.7741 55.8258 69.8851C55.9148 69.9962 55.8561 70.1282 55.8121 70.2329C55.6843 70.5336 55.4161 70.6625 55.1155 70.7148C54.8148 70.7672 54.5665 70.6237 54.4167 70.3618C54.2067 69.9995 54.0647 69.6018 53.9977 69.1885C53.9002 68.5777 54.4817 68.0434 55.0358 68.3105C55.4926 68.5305 55.8362 68.3545 56.2239 68.2414C56.4889 68.1639 56.4899 68.0057 56.337 67.8129C55.9829 67.3666 55.4989 67.2252 54.9499 67.2022C54.3722 67.2002 53.8136 67.4087 53.3785 67.7888C52.8547 68.2582 52.6452 68.8532 52.8547 69.5331C53.1198 70.4225 53.2738 71.4188 54.38 71.7122C55.2286 71.9353 55.9766 71.6724 56.58 71.071C57.2327 70.4173 57.0745 69.6557 56.7896 68.8794C56.6649 68.5484 56.5434 68.408 56.1893 68.5641Z" fill="white"/>
<path d="M62.687 66.5852C62.3035 66.8848 61.8866 67.1414 61.5021 67.4411C61.2926 67.6045 61.1878 67.5532 61.0527 67.3562C60.9175 67.1592 60.8756 67.0419 61.1009 66.8942C61.4497 66.6648 61.7839 66.4133 62.1233 66.1703C62.2344 66.0907 62.3685 66.0257 62.3559 65.833C62.2667 65.5947 62.1151 65.3849 61.917 65.2253C61.7221 65.0881 61.5712 65.2976 61.4193 65.4024C61.1051 65.6203 60.7761 65.8214 60.4828 66.0666C60.2387 66.2698 60.1685 66.0844 60.048 65.9398C59.9034 65.7712 59.9013 65.6664 60.1035 65.5344C60.4964 65.2777 60.8599 64.976 61.2559 64.7267C61.5807 64.5234 61.5115 64.3265 61.3209 64.0918C61.1522 63.8823 61.0495 63.568 60.6766 63.8509C59.9935 64.36 59.2916 64.8451 58.5929 65.3353C58.3729 65.4893 58.3634 65.6423 58.5174 65.8591C59.2403 66.8617 59.9537 67.8706 60.6692 68.8794C60.7991 69.0617 60.9259 69.134 61.1407 68.9779C61.8572 68.4541 62.5798 67.939 63.3082 67.4327C63.6508 67.1949 63.4433 66.9969 63.2967 66.7821C63.15 66.5673 63.0107 66.3306 62.687 66.5852Z" fill="white"/>
<path d="M35.6266 64.8854C35.48 64.7807 35.3249 64.8299 35.1929 64.9326C34.1327 65.7567 33.0736 66.5822 32.0155 67.4091C31.8762 67.5139 31.7725 67.6679 31.9736 67.78C32.3445 67.9895 32.6839 68.5133 33.1773 67.9602C33.2013 67.9237 33.2387 67.898 33.2814 67.8888C33.3241 67.8796 33.3688 67.8875 33.4057 67.9109C33.7996 68.1687 34.1966 68.4211 34.5895 68.6788C34.6943 68.7501 34.6597 68.8611 34.6471 68.9638C34.5916 69.4132 34.9027 69.9192 35.3501 69.9433C35.8173 69.9674 35.5973 69.474 35.744 69.2425C35.7613 69.2119 35.7733 69.1786 35.7796 69.144C36.052 68.0283 36.3244 66.9115 36.6177 65.7026C36.5004 65.25 35.9818 65.1557 35.6266 64.8854ZM34.9562 67.6847C34.138 67.2038 34.138 67.2038 34.8022 66.6737C34.9363 66.5689 35.0746 66.4642 35.2715 66.3133C35.2215 66.7814 35.1156 67.2418 34.9562 67.6847Z" fill="white"/>
<path d="M34.274 29.5728C34.7978 30.2998 35.6023 30.5156 36.4551 30.2014C37.3414 29.8808 38.0265 29.0155 37.9909 28.2245C37.9723 28.0348 37.9286 27.8485 37.861 27.6703C37.8515 27.6185 37.8238 27.5717 37.7829 27.5385C37.742 27.5052 37.6905 27.4877 37.6379 27.4891C37.334 27.4891 36.7757 28.0328 36.7715 28.3586C36.7662 28.7976 36.4855 29.0176 36.1345 29.1579C35.8024 29.2899 35.506 29.1579 35.31 28.8824C35.0763 28.5587 34.8683 28.2172 34.6878 27.861C34.5411 27.5603 34.5683 27.2324 34.8418 26.9988C35.1152 26.7652 35.4536 26.607 35.8422 26.8196C36.1146 26.9695 36.849 26.7149 37.0051 26.4498C37.1099 26.2801 36.9758 26.1848 36.8909 26.0905C36.7498 25.9309 36.5752 25.8042 36.3797 25.7195C36.1842 25.6348 35.9725 25.594 35.7595 25.6002C34.3578 25.6055 33.2651 26.6845 33.4128 27.8641C33.4966 28.5283 33.9083 29.0521 34.274 29.5728Z" fill="white"/>
<path d="M49.1578 69.3604C48.8027 68.4364 48.5586 68.3127 47.6084 68.5223C47.5309 68.5305 47.4574 68.5609 47.3967 68.6097C47.3359 68.6586 47.2905 68.7238 47.2658 68.7978C46.8677 70.0717 46.471 71.3477 46.0757 72.6258C46.0412 72.7379 45.9909 72.8699 46.125 72.9579C46.411 73.1464 47.1621 72.8825 47.291 72.5504C47.3444 72.4121 47.3455 72.2434 47.5749 72.2476C47.9939 72.256 48.413 72.2476 48.832 72.2277C48.9808 72.2214 49.073 72.278 49.0992 72.4121C49.1798 72.8311 49.4313 72.9547 49.778 72.8646C50.4873 72.8468 50.4904 72.8447 50.2578 72.2361C49.8919 71.2751 49.5252 70.3165 49.1578 69.3604ZM48.0516 71.2534C47.7373 71.2534 47.6912 71.1654 47.7855 70.8983C47.8996 70.5714 47.995 70.2383 48.128 69.8129C48.2674 70.1691 48.37 70.4258 48.4675 70.6835C48.6854 71.267 48.6801 71.2471 48.0516 71.2534Z" fill="white"/>
<path d="M58.3639 30.131C58.609 30.2651 58.8427 30.6223 59.1255 30.1499C59.4995 29.5213 59.9049 28.9147 60.2947 28.2977C60.764 27.556 60.7766 27.534 61.5309 28.0085C61.9321 28.2621 62.0379 27.9886 62.2066 27.7445C62.3868 27.4826 62.458 27.2825 62.1018 27.073C61.2637 26.5736 60.4413 26.0526 59.6347 25.51C59.2921 25.2816 59.1224 25.3423 58.9013 25.6818C58.6562 26.0558 58.7065 26.2548 59.0857 26.456C59.3057 26.5723 59.5519 26.6791 59.7038 26.897C59.6263 27.0217 59.5634 27.1264 59.4943 27.2291C59.0197 27.9792 58.5588 28.7377 58.0674 29.4763C57.8034 29.8827 58.1083 29.9906 58.3639 30.131Z" fill="white"/>
<path d="M59.3544 52.9419C59.0852 51.8377 58.8191 50.7503 58.5498 49.6503C58.5361 49.5929 58.5074 49.5401 58.4667 49.4974C58.426 49.4546 58.3747 49.4234 58.318 49.4068C58.2613 49.3902 58.2013 49.3889 58.144 49.4029C58.0866 49.417 58.034 49.446 57.9915 49.4869L55.4017 51.9656C55.3613 52.0045 55.3318 52.0534 55.3162 52.1073C55.3006 52.1612 55.2994 52.2183 55.3128 52.2728C55.3261 52.3273 55.3536 52.3774 55.3923 52.4179C55.4311 52.4585 55.4799 52.4882 55.5337 52.504C55.6301 52.5313 55.7244 52.5575 55.8208 52.5774C56.0303 52.6224 56.0094 52.6926 55.9119 52.8403C55.3692 53.6669 54.6546 54.3665 53.8167 54.8916L53.7957 54.9041C53.0735 55.2475 52.3091 55.4941 51.5224 55.6375C50.7089 55.7935 49.885 55.8887 49.0574 55.9224C49.0312 55.9233 49.0052 55.9188 48.9809 55.9093C48.9566 55.8998 48.9344 55.8855 48.9158 55.8671C48.8972 55.8488 48.8825 55.8269 48.8726 55.8027C48.8627 55.7786 48.8579 55.7526 48.8583 55.7265V44.1629C48.8583 44.148 48.8612 44.1333 48.8669 44.1196C48.8726 44.1059 48.8809 44.0934 48.8914 44.0829C48.902 44.0724 48.9144 44.064 48.9282 44.0584C48.9419 44.0527 48.9566 44.0497 48.9715 44.0497C49.0762 44.0497 49.204 44.0707 49.511 44.0676C50.1144 44.0613 50.743 44.0613 51.3485 44.0256C51.5454 44.0141 51.6554 44.0204 51.7812 44.1147C52.0365 44.3164 52.3584 44.4146 52.6829 44.3895C53.0073 44.3645 53.3104 44.2181 53.5317 43.9796C53.7504 43.7401 53.8725 43.4281 53.8746 43.1039C53.8768 42.7796 53.7587 42.4661 53.5433 42.2237C53.3269 41.981 53.0268 41.8291 52.7031 41.7984C52.3794 41.7677 52.0561 41.8605 51.7979 42.0582C51.7254 42.1256 51.6317 42.1656 51.5329 42.1714C50.6892 42.1672 49.8462 42.1672 49.0039 42.1714C48.9522 42.178 48.8999 42.1641 48.8583 42.1326V40.8105C48.8577 40.7654 48.8733 40.7215 48.9023 40.6869C48.962 40.6247 49.0332 40.5745 49.1118 40.5392C50.4737 39.8477 51.1798 38.7121 51.1809 37.2004C51.1809 34.8087 48.8478 33.0686 46.541 33.6951C44.7118 34.1917 43.5238 36.0082 43.8685 37.8615C44.122 39.2234 44.9235 40.1767 46.2267 40.6817C46.2756 40.6994 46.3223 40.7226 46.366 40.7508C46.3897 40.7688 46.4087 40.7921 46.4217 40.8189C46.4346 40.8456 46.441 40.8751 46.4404 40.9048V41.9859C46.4404 42.0106 46.4355 42.035 46.426 42.0578C46.4165 42.0805 46.4026 42.1012 46.385 42.1185C46.3675 42.1359 46.3467 42.1496 46.3238 42.1588C46.301 42.1681 46.2765 42.1727 46.2518 42.1724C45.3456 42.1619 44.4384 42.1661 43.528 42.1724C43.4028 42.1718 43.2811 42.1306 43.1813 42.0551C42.9225 41.8587 42.5988 41.7678 42.2756 41.8009C41.9524 41.8339 41.6538 41.9884 41.4401 42.2332C41.2259 42.4737 41.1089 42.7855 41.112 43.1076C41.1151 43.4297 41.238 43.7391 41.4569 43.9755C41.6757 44.2119 41.9748 44.3583 42.2957 44.3862C42.6167 44.414 42.9365 44.3214 43.1928 44.1262C43.2912 44.0491 43.4135 44.009 43.5385 44.0131C44.4175 44.0131 45.2975 44.0257 46.1764 44.0131C46.2555 44.0014 46.3362 44.0185 46.4037 44.0613C46.4145 44.0715 46.4229 44.0839 46.4285 44.0976C46.4341 44.1113 46.4367 44.1261 46.4362 44.1409V55.6448C46.4362 55.6715 46.4306 55.698 46.4198 55.7225C46.409 55.7469 46.3933 55.7689 46.3736 55.787C46.3539 55.8051 46.3307 55.819 46.3054 55.8277C46.2802 55.8364 46.2533 55.8397 46.2267 55.8376C45.1591 55.7473 44.1005 55.5722 43.0608 55.3137C42.423 55.1599 41.8025 54.942 41.2086 54.6632C41.1983 54.6586 41.1884 54.653 41.1793 54.6464C40.3415 54.0583 39.6427 53.2938 39.1322 52.4066C39.1178 52.3859 39.1092 52.3618 39.107 52.3367C39.1048 52.3116 39.1092 52.2863 39.1198 52.2635C39.1304 52.2406 39.1468 52.2209 39.1673 52.2063C39.1879 52.1917 39.2119 52.1828 39.237 52.1803L39.5146 52.1237C39.5697 52.1113 39.6206 52.0847 39.6622 52.0465C39.7038 52.0082 39.7346 51.9598 39.7515 51.9059C39.7685 51.852 39.771 51.7946 39.7589 51.7395C39.7467 51.6843 39.7203 51.6333 39.6822 51.5916L37.2454 48.9358C37.2083 48.8936 37.1605 48.8622 37.107 48.8448C37.0535 48.8274 36.9964 48.8246 36.9415 48.8368C36.8866 48.849 36.8359 48.8757 36.7949 48.9141C36.7538 48.9526 36.7238 49.0013 36.708 49.0553C36.3476 50.1961 35.9967 51.3108 35.6405 52.4412C35.6218 52.5001 35.6189 52.563 35.6323 52.6234C35.6457 52.6838 35.6749 52.7396 35.7168 52.7851C35.7587 52.8307 35.8119 52.8643 35.871 52.8826C35.9301 52.901 35.9929 52.9034 36.0533 52.8896L36.2418 52.8466C36.3578 52.8201 36.4793 52.8328 36.5872 52.8829C36.6951 52.933 36.7833 53.0175 36.8379 53.1232C38.2396 55.847 40.3475 57.8176 43.1362 59.0632C44.2257 59.5503 44.6574 59.6917 45.5981 59.8353C45.6379 59.8413 45.6746 59.8601 45.7029 59.8887L47.135 61.3082C47.231 61.4017 47.3598 61.454 47.4938 61.454C47.6278 61.454 47.7566 61.4017 47.8526 61.3082L49.2438 59.9463C49.2757 59.9155 49.317 59.8963 49.3612 59.8918C50.7545 59.7609 51.3757 59.4162 52.8749 58.73C55.1954 57.6688 57.0381 55.8218 58.224 53.5632C58.3288 53.362 58.421 53.3379 58.5991 53.3977C58.6672 53.4207 58.7363 53.4427 58.8086 53.4637C58.8822 53.4866 58.9605 53.4894 59.0355 53.4718C59.1105 53.4542 59.1795 53.4168 59.2352 53.3636C59.2909 53.3103 59.3313 53.2431 59.3523 53.169C59.3732 53.0949 59.374 53.0165 59.3544 52.9419ZM47.4011 39.1312C47.156 39.1226 46.9152 39.0655 46.6923 38.9633C46.4695 38.861 46.2691 38.7157 46.1027 38.5356C45.9363 38.3555 45.8073 38.1442 45.723 37.914C45.6388 37.6837 45.6009 37.4391 45.6117 37.1941C45.662 36.0983 46.5735 35.2896 47.6022 35.3681C48.6855 35.4519 49.4314 36.3225 49.3769 37.3261C49.3182 38.4177 48.4235 39.2076 47.4011 39.1312Z" fill="white"/>
</svg>
