<svg width="96" height="96" viewBox="0 0 96 96" fill="none" xmlns="http://www.w3.org/2000/svg">
<rect width="96" height="96" fill="white"/>
<g clip-path="url(#clip0_6115_997)">
<path d="M6 65.9679H8.76732V54.9538L13.0514 64.5589C13.5567 65.7168 14.2491 66.1329 15.6059 66.1329C16.9627 66.1329 17.6279 65.7214 18.1341 64.5589L22.4186 54.9538V65.972H25.1863V54.972C25.1863 53.8989 24.7597 53.3799 23.882 53.1119C21.7799 52.4503 20.3694 53.0226 19.7312 54.4534L15.5271 63.9329L11.4551 54.4493C10.8431 53.0185 9.40635 52.4461 7.3043 53.1078C6.42574 53.3762 6 53.8952 6 54.9679V65.9679ZM27.4864 57H30.2529V63.0706C30.2271 63.4006 30.3579 64.1748 31.8739 64.1983C32.6474 64.2108 37.8433 64.1983 37.8917 64.1983V56.9698H40.6644C40.6767 56.9698 40.6615 66.8259 40.6619 66.8681C40.6771 69.2989 37.6702 69.827 36.2847 69.8679H27.5467V67.9905L36.3003 67.99C38.0812 67.7998 37.8712 66.9078 37.8712 66.6072V65.8752H31.9896C29.253 65.8504 27.5106 64.6458 27.4889 63.2605C27.4869 63.1364 27.548 57.0595 27.4873 56.9996L27.4864 57Z" fill="#00618A"/>
<path d="M42.7979 65.9679H50.7541C51.6851 65.9679 52.5903 65.7715 53.3093 65.4312C54.507 64.877 55.0923 64.1256 55.0923 63.1418V61.1031C55.0923 60.298 54.427 59.547 53.1235 59.0462C52.4316 58.7774 51.5801 58.6347 50.7553 58.6347H47.4023C46.285 58.6347 45.7526 58.2948 45.6197 57.5438C45.5931 57.4545 45.5931 57.3784 45.5931 57.2932V56.0237C45.5931 55.9521 45.5931 55.8802 45.6197 55.7909C45.7526 55.2185 46.0455 55.0573 47.0298 54.9638C47.1098 54.9638 47.2161 54.9456 47.2964 54.9456H55.1993V53.0859H47.4293C46.3117 53.0859 45.7264 53.1575 45.194 53.3183C43.5427 53.8373 42.8241 54.6644 42.8241 56.0952V57.7229C42.8241 58.9751 44.235 60.0482 46.6025 60.2984C46.8691 60.3162 47.1348 60.3339 47.4006 60.3339H50.2746C50.3812 60.3339 50.4879 60.3339 50.5674 60.3521C51.4452 60.4237 51.8184 60.5845 52.0842 60.9063C52.2483 61.0717 52.2975 61.2288 52.2975 61.4025V63.0302C52.2975 63.227 52.1646 63.4776 51.8984 63.6918C51.6589 63.9069 51.2598 64.0495 50.7274 64.0855C50.6208 64.0855 50.5412 64.1033 50.435 64.1033H42.7979V65.9634V65.9679ZM72.3553 62.7308C72.3553 64.6446 73.7655 65.7177 76.6128 65.9324C76.8784 65.9531 77.1446 65.965 77.4109 65.9679H84.6223V64.1079H77.3576C75.7346 64.1079 75.1223 63.6964 75.1223 62.7126V53.0897H72.3549V62.73L72.3553 62.7308ZM56.8576 62.8276V56.1965C56.8576 54.5118 58.0306 53.49 60.3505 53.1674C60.5979 53.1318 60.8475 53.1138 61.0974 53.1136H66.3503C66.609 53.1138 66.8675 53.1318 67.1238 53.1674C69.4436 53.49 70.6167 54.5114 70.6167 56.1965V62.8276C70.6167 64.1943 70.1184 64.9258 68.9699 65.4026L71.6958 67.8838H68.4827L66.2772 65.8765L64.0571 66.0184H61.0974C60.5908 66.0184 60.0576 65.9464 59.4707 65.7851C57.707 65.3013 56.8576 64.3692 56.8576 62.8276ZM59.8448 62.6621C59.8448 62.7519 59.8714 62.8412 59.8981 62.9491C60.0621 63.72 60.7779 64.15 61.8668 64.15H64.3811L62.0719 62.048H65.2851L67.2948 63.8812C67.666 63.6819 67.9101 63.3767 67.9921 62.9851C68.0188 62.8958 68.0188 62.8061 68.0188 62.7163V56.3582C68.0188 56.2867 68.0188 56.1928 67.9921 56.1072C67.828 55.3906 67.1119 54.9783 66.0455 54.9783H61.8718C60.6413 54.9783 59.8456 55.5159 59.8456 56.3582V62.6671L59.8448 62.6621Z" fill="#E48E00"/>
<path d="M87.0566 50.0048C85.3557 49.9585 84.0559 50.1177 82.9452 50.59C82.6294 50.7244 82.1261 50.7277 82.0744 51.1267C82.2479 51.3099 82.2754 51.5837 82.4128 51.8091C82.6782 52.242 83.1265 52.8222 83.5256 53.1258C83.962 53.4578 84.4115 53.8135 84.8803 54.1017C85.7129 54.6137 86.6423 54.906 87.4438 55.4184C87.9163 55.7203 88.3855 56.1007 88.8465 56.4423C89.0742 56.611 89.228 56.8732 89.5233 56.9787V56.9299C89.3674 56.7301 89.3276 56.4555 89.1849 56.2475L88.5561 55.6136C87.9409 54.7865 87.1608 54.0682 86.331 53.4673C85.6695 52.9885 84.1884 52.3417 83.9123 51.5651L83.864 51.5163C84.3332 51.4625 84.8824 51.2917 85.3159 51.1751C86.0431 50.9787 86.6932 51.0292 87.4446 50.834L88.4606 50.5412V50.346C88.0808 49.9531 87.8101 49.4333 87.3962 49.0781C86.3134 48.1476 85.1309 47.2193 83.914 46.4439C83.2389 46.0138 82.4046 45.7351 81.6889 45.3708C81.4481 45.2484 81.0253 45.1847 80.8665 44.9804C80.4908 44.4974 80.2862 43.8845 79.9962 43.3263C79.3891 42.1477 78.7928 40.8599 78.2547 39.6198C77.8876 38.7741 77.6476 37.94 77.1907 37.1811C74.9943 33.5404 72.6298 31.3429 68.9679 29.1834C68.1886 28.7244 67.2506 28.5424 66.2588 28.3055L64.6625 28.2079C64.3376 28.0714 63.9997 27.6703 63.6945 27.4759C62.4813 26.7026 59.3694 25.0224 58.4708 27.2278C57.9035 28.6226 59.3186 29.9836 59.8251 30.6907C60.1803 31.187 60.6356 31.7423 60.889 32.3002C61.056 32.6666 61.0851 33.0342 61.2278 33.4221C61.5793 34.3733 61.8853 35.4166 62.3402 36.2995C62.5699 36.7461 62.8233 37.2167 63.1141 37.6162C63.2926 37.8614 63.5981 37.9693 63.6461 38.3481C63.3475 38.7699 63.3303 39.4233 63.1621 39.9576C62.4062 42.3611 62.6913 45.348 63.7909 47.127C64.1285 47.6729 64.9229 48.844 66.016 48.3949C66.9717 48.0021 66.7543 46.7863 67.032 45.7128C67.0935 45.4688 67.0558 45.291 67.1772 45.1276V45.1764L68.0479 46.9319C68.6919 47.9781 69.8362 49.0719 70.805 49.8101C71.3074 50.1926 71.7073 50.8542 72.3529 51.078V51.0292H72.3045C72.1786 50.8307 71.9817 50.7492 71.8205 50.5908C71.442 50.2166 71.0207 49.7513 70.7078 49.3229C69.8259 48.1162 69.0475 46.7962 68.3379 45.4212C67.9991 44.7649 67.7042 44.0408 67.4191 43.373C67.3092 43.1154 67.3105 42.7262 67.0808 42.5926C66.7678 43.0823 66.3068 43.4776 66.0648 44.0557C65.6776 44.9796 65.6276 46.106 65.4844 47.2747C65.3995 47.3053 65.4373 47.2842 65.3876 47.3235C64.7142 47.1597 64.4771 46.4604 64.2269 45.8604C63.5936 44.3427 63.4763 41.9004 64.0333 40.1545C64.1769 39.7029 64.829 38.2795 64.5653 37.8622C64.4394 37.4458 64.0239 37.2006 63.7913 36.8863C63.5042 36.4934 63.2163 35.9749 63.0174 35.5208C62.4989 34.3381 62.2569 33.0107 61.7114 31.8143C61.4506 31.2428 61.01 30.6647 60.6475 30.1602C60.2463 29.5978 59.7972 29.1826 59.4867 28.506C59.376 28.2641 59.2259 27.8775 59.3899 27.6281C59.4056 27.5565 59.4413 27.4908 59.4927 27.4389C59.5442 27.3871 59.6093 27.3511 59.6803 27.3353C59.9609 27.1174 60.7426 27.4077 61.0347 27.5305C61.8098 27.8555 62.4579 28.1649 63.115 28.6036C63.4308 28.8104 63.7495 29.2223 64.1305 29.3356H64.5653C65.2461 29.4936 66.009 29.3852 66.6448 29.5796C67.7694 29.924 68.7768 30.4604 69.6922 31.0426C72.4805 32.8175 74.7597 35.3442 76.3191 38.3622C76.5701 38.8473 76.6784 39.3108 76.8995 39.8253C77.3453 40.8591 77.9068 41.9314 78.3506 42.9462C78.7936 43.9594 79.2243 44.9808 79.8502 45.8236C80.1791 46.2661 81.4498 46.5043 82.0269 46.7499C82.4317 46.9223 83.0945 47.1022 83.478 47.3351C84.2101 47.7804 84.9197 48.311 85.6067 48.799C85.95 49.0429 87.0053 49.5777 87.0578 50.0181L87.0566 50.0048Z" fill="#00618A"/>
<path fill-rule="evenodd" clip-rule="evenodd" d="M65.4352 31.4247C65.0804 31.418 64.8298 31.4635 64.5645 31.5222V31.571H64.6129C64.7818 31.9217 65.0804 32.1471 65.2896 32.449L65.7736 33.4729L65.822 33.4241C66.1214 33.2111 66.2588 32.8708 66.2568 32.351C66.1366 32.2236 66.1189 32.064 66.0148 31.9118C65.8765 31.7092 65.6046 31.5942 65.4344 31.4238L65.4352 31.4247Z" fill="#00618A"/>
<path fill-rule="evenodd" clip-rule="evenodd" d="M85.9209 64.0561C85.9209 65.2843 86.8835 66.1122 87.9602 66.1122C89.0369 66.1122 89.9995 65.2843 89.9995 64.0561C89.9995 62.8279 89.0369 62 87.9602 62C86.8835 62 85.9209 62.8279 85.9209 64.0561ZM89.5426 64.0561C89.5426 64.9882 88.8359 65.6846 87.9594 65.6846C87.0734 65.6846 86.3762 64.9882 86.3762 64.0561C86.3762 63.124 87.0726 62.4276 87.9594 62.4276C88.8351 62.4276 89.5426 63.124 89.5426 64.0561ZM88.509 65.2297H88.9655L88.2969 64.1992C88.6558 64.1607 88.9273 63.985 88.9273 63.5574C88.9273 63.0801 88.6279 62.8833 88.0521 62.8833H87.1436V65.2301H87.5353V64.2157H87.8995L88.5086 65.2301L88.509 65.2297ZM87.5353 63.8857V63.2117H87.9864C88.2202 63.2117 88.5032 63.2555 88.5032 63.5301C88.5032 63.8588 88.2477 63.8865 87.9536 63.8865H87.5353V63.8857Z" fill="#E48E00"/>
</g>
<defs>
<clipPath id="clip0_6115_997">
<rect width="84" height="44" fill="white" transform="translate(6 26)"/>
</clipPath>
</defs>
</svg>
