<svg width="96" height="96" viewBox="0 0 96 96" fill="none" xmlns="http://www.w3.org/2000/svg">
<rect width="96" height="96" fill="#032E49"/>
<path d="M48.6245 30.5195C51.4731 30.5195 53.788 32.8286 53.788 35.683" stroke="white" stroke-width="2.32066" stroke-linecap="round"/>
<path d="M34.2593 40.5445C34.2593 33.1996 40.2118 27.2471 47.5567 27.2471C54.9016 27.2471 60.8541 33.1996 60.8541 40.5445" stroke="white" stroke-width="2.32066" stroke-linecap="round" stroke-linejoin="round"/>
<path d="M43.7685 61.4075C43.6467 61.5757 43.519 61.6569 43.3914 61.6569C43.2637 61.6569 43.1361 61.5989 43.0085 61.4887C42.8808 61.3785 42.817 61.2682 42.817 61.1638C42.817 61.0594 42.8692 60.9491 42.9679 60.8389L43.9019 59.5277L42.6546 59.1274C42.4109 59.052 42.2891 58.9244 42.2891 58.7445C42.2891 58.6459 42.3065 58.5589 42.3413 58.4776C42.4051 58.2456 42.5443 58.1295 42.759 58.1295C42.8054 58.1295 42.8808 58.1411 42.9911 58.1643L44.2732 58.5821V57.2187C44.2732 56.888 44.4415 56.7197 44.7722 56.7197C45.1029 56.7197 45.2711 56.888 45.2711 57.2187V58.5821L46.5185 58.1643C46.6287 58.1411 46.7215 58.1295 46.8028 58.1295C46.884 58.1295 46.971 58.1875 47.0696 58.2978C47.1683 58.408 47.2205 58.553 47.2205 58.7387C47.2205 58.9244 47.0986 59.052 46.855 59.1274L45.5902 59.5277L46.5359 60.8389C46.6229 60.9375 46.6693 61.042 46.6693 61.1522C46.6693 61.2624 46.6055 61.3727 46.4779 61.4829C46.3502 61.5931 46.2284 61.6511 46.1066 61.6511C45.9847 61.6511 45.8629 61.5699 45.7411 61.4017L44.7606 60.0209L43.7801 61.4017L43.7685 61.4075Z" fill="white"/>
<path d="M38.1523 61.4075C38.0304 61.5757 37.9028 61.6569 37.7752 61.6569C37.6475 61.6569 37.5199 61.5989 37.3923 61.4887C37.2646 61.3785 37.2008 61.2682 37.2008 61.1638C37.2008 61.0594 37.253 60.9491 37.3516 60.8389L38.2857 59.5277L37.0384 59.1274C36.7947 59.052 36.6729 58.9244 36.6729 58.7445C36.6729 58.6459 36.6903 58.5589 36.7251 58.4776C36.7889 58.2456 36.9281 58.1295 37.1428 58.1295C37.1892 58.1295 37.2646 58.1411 37.3749 58.1643L38.657 58.5821V57.2187C38.657 56.888 38.8253 56.7197 39.156 56.7197C39.4867 56.7197 39.6549 56.888 39.6549 57.2187V58.5821L40.9023 58.1643C41.0125 58.1411 41.1053 58.1295 41.1865 58.1295C41.2678 58.1295 41.3548 58.1875 41.4534 58.2978C41.552 58.408 41.6043 58.553 41.6043 58.7387C41.6043 58.9244 41.4824 59.052 41.2388 59.1274L39.974 59.5277L40.9197 60.8389C41.0067 60.9375 41.0531 61.042 41.0531 61.1522C41.0531 61.2624 40.9893 61.3727 40.8616 61.4829C40.734 61.5931 40.6122 61.6511 40.4903 61.6511C40.3685 61.6511 40.2467 61.5699 40.1248 61.4017L39.1444 60.0209L38.1639 61.4017L38.1523 61.4075Z" fill="white"/>
<path d="M49.3788 61.4075C49.257 61.5757 49.1294 61.6569 49.0017 61.6569C48.8741 61.6569 48.7465 61.5989 48.6188 61.4887C48.4912 61.3785 48.4274 61.2682 48.4274 61.1638C48.4274 61.0594 48.4796 60.9491 48.5782 60.8389L49.5123 59.5277L48.2649 59.1274C48.0212 59.052 47.8994 58.9244 47.8994 58.7445C47.8994 58.6459 47.9168 58.5589 47.9516 58.4776C48.0154 58.2456 48.1547 58.1295 48.3693 58.1295C48.4158 58.1295 48.4912 58.1411 48.6014 58.1643L49.8836 58.5821V57.2187C49.8836 56.888 50.0518 56.7197 50.3825 56.7197C50.7132 56.7197 50.8815 56.888 50.8815 57.2187V58.5821L52.1288 58.1643C52.2391 58.1411 52.3319 58.1295 52.4131 58.1295C52.4943 58.1295 52.5813 58.1875 52.68 58.2978C52.7786 58.408 52.8308 58.553 52.8308 58.7387C52.8308 58.9244 52.709 59.052 52.4653 59.1274L51.2006 59.5277L52.1462 60.8389C52.2333 60.9375 52.2797 61.042 52.2797 61.1522C52.2797 61.2624 52.2158 61.3727 52.0882 61.4829C51.9606 61.5931 51.8387 61.6511 51.7169 61.6511C51.5951 61.6511 51.4732 61.5699 51.3514 61.4017L50.3709 60.0209L49.3904 61.4017L49.3788 61.4075Z" fill="white"/>
<path d="M54.9946 61.4075C54.8727 61.5757 54.7451 61.6569 54.6174 61.6569C54.4898 61.6569 54.3622 61.5989 54.2345 61.4887C54.1069 61.3785 54.0431 61.2682 54.0431 61.1638C54.0431 61.0594 54.0953 60.9491 54.1939 60.8389L55.128 59.5277L53.8806 59.1274C53.637 59.052 53.5151 58.9244 53.5151 58.7445C53.5151 58.6459 53.5325 58.5589 53.5673 58.4776C53.6312 58.2456 53.7704 58.1295 53.9851 58.1295C54.0315 58.1295 54.1069 58.1411 54.2171 58.1643L55.4993 58.5821V57.2187C55.4993 56.888 55.6676 56.7197 55.9982 56.7197C56.3289 56.7197 56.4972 56.888 56.4972 57.2187V58.5821L57.7445 58.1643C57.8548 58.1411 57.9476 58.1295 58.0288 58.1295C58.11 58.1295 58.1971 58.1875 58.2957 58.2978C58.3943 58.408 58.4465 58.553 58.4465 58.7387C58.4465 58.9244 58.3247 59.052 58.081 59.1274L56.8163 59.5277L57.7619 60.8389C57.849 60.9375 57.8954 61.042 57.8954 61.1522C57.8954 61.2624 57.8316 61.3727 57.7039 61.4829C57.5763 61.5931 57.4545 61.6511 57.3326 61.6511C57.2108 61.6511 57.089 61.5699 56.9671 61.4017L55.9866 60.0209L55.0062 61.4017L54.9946 61.4075Z" fill="white"/>
<path d="M61.6783 54.8574H33.43C33.1513 54.8574 32.9253 55.0834 32.9253 55.3622V63.0145C32.9253 63.2933 33.1513 63.5193 33.43 63.5193H61.6783C61.9571 63.5193 62.183 63.2933 62.183 63.0145V55.3622C62.183 55.0834 61.9571 54.8574 61.6783 54.8574Z" stroke="white" stroke-width="1.7405" stroke-linecap="round" stroke-linejoin="round"/>
<path d="M17.603 62.9516C17.603 60.1029 19.9121 57.7881 22.7665 57.7881" stroke="white" stroke-width="2.32066" stroke-linecap="round"/>
<path d="M14 67.0823C14 65.0923 15.6129 63.4736 17.6086 63.4736C19.6044 63.4736 21.2173 65.0865 21.2173 67.0823" stroke="white" stroke-width="2.32066" stroke-linecap="round"/>
<path d="M25.2319 52.792V63.6701" stroke="white" stroke-width="2.32066" stroke-linecap="round" stroke-linejoin="round"/>
<path d="M77.453 62.9516C77.453 60.1029 75.144 57.7881 72.2896 57.7881" stroke="white" stroke-width="2.32066" stroke-linecap="round"/>
<path d="M81.0615 67.0823C81.0615 65.0923 79.4486 63.4736 77.4529 63.4736C75.4571 63.4736 73.8442 65.0865 73.8442 67.0823" stroke="white" stroke-width="2.32066" stroke-linecap="round"/>
<path d="M69.8296 52.792V63.6701" stroke="white" stroke-width="2.32066" stroke-linecap="round" stroke-linejoin="round"/>
<path d="M47.5567 17.8019C48.9345 17.8019 50.0514 16.685 50.0514 15.3072C50.0514 13.9294 48.9345 12.8125 47.5567 12.8125C46.1789 12.8125 45.062 13.9294 45.062 15.3072C45.062 16.685 46.1789 17.8019 47.5567 17.8019Z" fill="white" stroke="white" stroke-width="0.580166" stroke-miterlimit="10"/>
<path d="M47.5566 16.3174V27.3115" stroke="white" stroke-width="2.32066" stroke-linecap="round"/>
<path d="M45.4975 74.5079L28.7075 74.682V43.6953H66.3545V74.682L52.2506 74.5369" stroke="white" stroke-width="2.32066" stroke-linecap="round" stroke-linejoin="round"/>
<path d="M52.9468 72.2344L48.9204 74.5086L52.9003 76.8583L52.9468 72.2344Z" fill="white"/>
</svg>
