<svg width="96" height="96" viewBox="0 0 96 96" fill="none" xmlns="http://www.w3.org/2000/svg">
<rect width="96" height="96" fill="white"/>
<path d="M71.8693 69.7521C69.8055 69.7521 68.8157 70.5373 67.6702 71.4466C66.4264 72.4345 65.0156 73.5534 62.2899 73.5534C59.5639 73.5534 58.1537 72.4345 56.9097 71.4466C55.7644 70.5373 54.7749 69.7521 52.7119 69.7521C50.6481 69.7521 49.6587 70.5373 48.5134 71.4466C47.2691 72.4345 45.8591 73.5534 43.1332 73.5534C40.4072 73.5534 38.9972 72.4345 37.7532 71.4466C36.6077 70.5373 35.6182 69.7521 33.5552 69.7521C31.4922 69.7521 30.503 70.5373 29.3574 71.4466C28.4716 72.2261 27.4423 72.8254 26.3271 73.2108C31.6702 77.9204 38.3897 80.7811 45.4879 81.3679C45.6865 81.3843 45.8859 81.4001 46.0857 81.4135C46.8006 81.4597 47.5197 81.4914 48.2462 81.4914C48.973 81.4914 49.692 81.4597 50.4069 81.4135C50.6068 81.4001 50.8057 81.3843 51.0051 81.3679C59.6831 80.6445 67.7291 76.5393 73.4081 69.9377C72.9052 69.8104 72.388 69.748 71.8693 69.7521Z" fill="#239DE0"/>
<path d="M23.977 44.9542C26.2206 44.9542 27.3265 44.0766 28.4973 43.147C29.7324 42.1665 31.0096 41.1525 33.5547 41.1525C36.0998 41.1525 37.377 42.1665 38.6123 43.147C39.7831 44.0766 40.8888 44.9542 43.1327 44.9542C45.3766 44.9542 46.4822 44.0766 47.6533 43.147C48.8884 42.1665 50.1658 41.1525 52.7114 41.1525C55.2561 41.1525 56.5337 42.1665 57.7688 43.147C58.9393 44.0766 60.045 44.9542 62.2894 44.9542C64.5338 44.9542 65.6395 44.0766 66.8104 43.147C68.0452 42.1665 69.3231 41.1525 71.8688 41.1525C74.4138 41.1525 75.6918 42.1665 76.9272 43.147C78.0753 44.0586 79.1683 44.9157 81.3271 44.9481C81.0307 41.966 80.3291 39.0381 79.2418 36.2455C78.2324 35.8805 77.3011 35.3277 76.4973 34.6164C75.3017 33.6677 74.1732 32.7715 71.8688 32.7715C69.5644 32.7715 68.4353 33.6677 67.2403 34.6164C66.0277 35.5786 64.7744 36.5733 62.2894 36.5733C59.8044 36.5733 58.551 35.5784 57.3389 34.6164C56.1441 33.6677 55.0154 32.7715 52.7114 32.7715C50.4072 32.7715 49.278 33.6677 48.0832 34.6164C46.8709 35.5786 45.6177 36.5733 43.1327 36.5733C40.6479 36.5733 39.3948 35.5784 38.1827 34.6164C36.9877 33.6677 35.8589 32.7715 33.5547 32.7715C31.2507 32.7715 30.122 33.6677 28.9273 34.6164C27.7149 35.5784 26.4617 36.5733 23.977 36.5733C21.492 36.5733 20.2388 35.5784 19.0267 34.6164C18.7581 34.4029 18.4912 34.1938 18.2151 33.9955C17.1101 36.3158 16.2802 38.7572 15.7422 41.2702C17.4292 41.5567 18.4625 42.3579 19.4564 43.147C20.6271 44.0766 21.7331 44.9542 23.977 44.9542Z" fill="#239DE0"/>
<path d="M23.9771 36.0555C26.2811 36.0555 27.4101 35.1593 28.6048 34.2109C29.8169 33.2489 31.0701 32.2537 33.5549 32.2537C36.0396 32.2537 37.2928 33.2489 38.5049 34.2109C39.7002 35.1593 40.8286 36.0555 43.1328 36.0555C45.4371 36.0555 46.5658 35.1593 47.7611 34.2109C48.9732 33.2489 50.2261 32.2537 52.7116 32.2537C55.1964 32.2537 56.449 33.2489 57.6614 34.2109C58.8566 35.1593 59.9854 36.0555 62.2896 36.0555C64.5935 36.0555 65.7226 35.1593 66.9175 34.2109C68.1302 33.2489 69.3834 32.2537 71.869 32.2537C74.3539 32.2537 75.6077 33.2489 76.8197 34.2109C77.4716 34.775 78.2012 35.2425 78.9861 35.5991C76.5553 29.6847 72.4697 24.5972 67.2196 20.9469C61.9694 17.2966 55.7776 15.2385 49.3869 15.0195C42.9962 14.8005 36.678 16.4299 31.1903 19.7122C25.7025 22.9945 21.2783 27.7903 18.4482 33.5244C18.7616 33.7458 19.0571 33.9791 19.3489 34.2109C20.5442 35.1593 21.6729 36.0555 23.9771 36.0555Z" fill="#239DE0"/>
<path d="M71.8688 60.5078C69.7449 60.5078 68.7329 61.311 67.5627 62.2403C66.3405 63.2106 64.9556 64.3098 62.2894 64.3098C59.6233 64.3098 58.2388 63.2106 57.0168 62.2403C55.8456 61.311 54.8343 60.5078 52.7115 60.5078C50.5879 60.5078 49.5766 61.311 48.4053 62.2403C47.1833 63.2106 45.7983 64.3098 43.1327 64.3098C40.4671 64.3098 39.0821 63.2106 37.8601 62.2403C36.6891 61.311 35.6781 60.5078 33.5547 60.5078C31.4314 60.5078 30.4204 61.311 29.2494 62.2403C28.0274 63.2106 26.6429 64.3098 23.977 64.3098C21.3114 64.3098 19.9264 63.2106 18.7044 62.2403C18.3945 61.9943 18.0946 61.7588 17.7832 61.5433C19.4284 65.2947 21.7501 68.7112 24.6323 71.622C26.2614 71.4721 27.1589 70.7658 28.1748 69.9592C29.419 68.9719 30.829 67.8524 33.5547 67.8524C36.2807 67.8524 37.6907 68.9719 38.9347 69.9592C40.0802 70.8684 41.0697 71.6536 43.1327 71.6536C45.196 71.6536 46.1852 70.8684 47.3313 69.9592C48.5747 68.9719 49.9855 67.8524 52.7115 67.8524C55.4374 67.8524 56.8471 68.9719 58.0909 69.9592C59.237 70.8684 60.2264 71.6536 62.2894 71.6536C64.3527 71.6536 65.3425 70.8684 66.4874 69.9592C67.7318 68.9719 69.1427 67.8524 71.8688 67.8524C72.8341 67.8386 73.7929 68.0116 74.6925 68.3619C75.8799 66.8029 76.9273 65.1422 77.8227 63.399C77.2438 63.0565 76.6926 62.6691 76.1743 62.2403C75.0041 61.311 73.9921 60.5078 71.8688 60.5078Z" fill="#239DE0"/>
<path d="M81.3925 45.8134C78.8892 45.7963 77.6151 44.7969 76.3898 43.8248C75.2195 42.8955 74.1126 42.0176 71.869 42.0176C69.6247 42.0176 68.5184 42.8955 67.3475 43.8248C66.1127 44.8054 64.8348 45.8193 62.2896 45.8193C59.7439 45.8193 58.467 44.8054 57.2315 43.8248C56.0606 42.8955 54.9549 42.0176 52.7116 42.0176C50.4672 42.0176 49.3615 42.8955 48.191 43.8248C46.9551 44.8054 45.6782 45.8193 43.1329 45.8193C40.5878 45.8193 39.3106 44.8054 38.0753 43.8248C36.9044 42.8955 35.7988 42.0176 33.5549 42.0176C31.3113 42.0176 30.2055 42.8955 29.0345 43.8248C27.7997 44.8054 26.5223 45.8193 23.9772 45.8193C21.4318 45.8193 20.1546 44.8054 18.9195 43.8248C17.976 43.076 17.0643 42.3688 15.5759 42.1192C15.2762 43.7184 15.0947 45.3375 15.0329 46.9634C15.0163 47.3899 15 47.8158 15 48.2462C15 48.6766 15.0163 49.1031 15.0329 49.5296C15.0398 49.7153 15.0433 49.902 15.0534 50.0871C17.2335 50.2536 18.4708 51.2171 19.5641 52.0851C20.7104 52.9949 21.7934 53.8544 23.9772 53.8544C26.1609 53.8544 27.2436 52.9949 28.3899 52.0851C29.5899 51.1322 30.9494 50.053 33.5549 50.053C36.1604 50.053 37.5201 51.1322 38.7198 52.0851C39.8664 52.9949 40.9493 53.8544 43.1329 53.8544C45.3164 53.8544 46.3996 52.9949 47.5458 52.0851C48.7456 51.1322 50.1053 50.053 52.7116 50.053C55.3168 50.053 56.6769 51.1322 57.8763 52.0851C59.0231 52.9949 60.1058 53.8544 62.2896 53.8544C64.4732 53.8544 65.5567 52.9949 66.7029 52.0851C67.9029 51.1322 69.2631 50.053 71.869 50.053C74.4748 50.053 75.8344 51.1322 77.0344 52.0851C78.1002 52.9308 79.1229 53.7239 81.0132 53.833C81.1848 52.8215 81.3095 51.7956 81.3874 50.7555C81.4185 50.3488 81.4438 49.9414 81.459 49.531V46.9619C81.4438 46.551 81.3925 45.8134 81.3925 45.8134Z" fill="#239DE0"/>
<path d="M71.8692 51.2617C69.6845 51.2617 68.6016 52.1213 67.4554 53.0316C66.2554 53.984 64.8952 55.0632 62.2899 55.0632C59.6843 55.0632 58.3245 53.984 57.1246 53.0316C55.9783 52.1213 54.8953 51.2617 52.7119 51.2617C50.5281 51.2617 49.4447 52.1213 48.2981 53.0316C47.0984 53.984 45.7386 55.0632 43.1331 55.0632C40.5277 55.0632 39.1679 53.984 37.9681 53.0316C36.8216 52.1213 35.7386 51.2617 33.5551 51.2617C31.3717 51.2617 30.2887 52.1213 29.1424 53.0316C27.9427 53.984 26.5829 55.0632 23.9774 55.0632C21.3721 55.0632 20.0119 53.984 18.8121 53.0316C17.8046 52.2319 16.8454 51.4722 15.1465 51.2993C15.3968 54.0462 15.9908 56.7508 16.9147 59.3498C17.9247 59.7405 18.8581 60.3061 19.6718 61.0208C20.8428 61.9504 21.8538 62.7533 23.9774 62.7533C26.1008 62.7533 27.112 61.9504 28.2828 61.0208C29.5048 60.0509 30.8895 58.9515 33.5551 58.9515C36.2208 58.9515 37.6058 60.0509 38.8278 61.0208C39.9985 61.9504 41.0098 62.7533 43.1331 62.7533C45.2565 62.7533 46.268 61.9504 47.4385 61.0208C48.6605 60.0509 50.0457 58.9515 52.7119 58.9515C55.3772 58.9515 56.7625 60.0509 57.9842 61.0208C59.155 61.9504 60.1662 62.7533 62.2899 62.7533C64.4133 62.7533 65.4246 61.9504 66.5955 61.0208C67.8177 60.0509 69.2032 58.9515 71.8692 58.9515C74.5346 58.9515 75.9202 60.0509 77.1423 61.0208C77.5723 61.3781 78.0263 61.7053 78.5013 62.0001C79.5228 59.7691 80.2917 57.4309 80.7937 55.0291C78.614 54.8631 77.376 53.8991 76.2824 53.0316C75.1362 52.1213 74.0533 51.2617 71.8692 51.2617Z" fill="#239DE0"/>
<path d="M66.4879 69.9572C65.343 70.8664 64.3532 71.6516 62.29 71.6516C60.227 71.6516 59.2375 70.8664 58.0914 69.9572C56.8477 68.9699 55.438 67.8504 52.712 67.8504C49.986 67.8504 48.5752 68.9699 47.3318 69.9572C46.1857 70.8664 45.1965 71.6516 43.1332 71.6516C41.0702 71.6516 40.0808 70.8664 38.9352 69.9572C37.6912 68.9699 36.2812 67.8504 33.5553 67.8504C30.8295 67.8504 29.4195 68.9699 28.1753 69.9572C27.1594 70.7638 26.2619 71.4701 24.6328 71.6199C25.178 72.1703 25.7454 72.6984 26.3272 73.21C27.4424 72.8246 28.4717 72.2253 29.3575 71.4458C30.503 70.5365 31.4922 69.7513 33.5553 69.7513C35.6183 69.7513 36.6077 70.5365 37.7533 71.4458C38.9973 72.4338 40.4073 73.5526 43.1332 73.5526C45.8592 73.5526 47.2692 72.4338 48.5134 71.4458C49.6587 70.5365 50.6482 69.7513 52.712 69.7513C54.775 69.7513 55.7645 70.5365 56.9098 71.4458C58.1537 72.4338 59.564 73.5526 62.29 73.5526C65.0156 73.5526 66.4265 72.4338 67.6702 71.4458C68.8158 70.5365 69.8056 69.7513 71.8693 69.7513C72.3881 69.7472 72.9052 69.8096 73.4081 69.9369C73.8508 69.4238 74.2814 68.8994 74.693 68.3599C73.7935 68.0096 72.8346 67.8366 71.8693 67.8504C69.1432 67.8504 67.7323 68.9699 66.4879 69.9572Z" fill="white"/>
<path d="M71.8686 58.9512C69.2026 58.9512 67.8171 60.0505 66.5949 61.0204C65.424 61.95 64.4127 62.753 62.2893 62.753C60.1656 62.753 59.1544 61.95 57.9836 61.0204C56.7619 60.0505 55.3767 58.9512 52.7113 58.9512C50.0452 58.9512 48.6599 60.0505 47.4379 61.0204C46.2674 61.95 45.2559 62.753 43.1325 62.753C41.0092 62.753 39.9979 61.95 38.8272 61.0204C37.6052 60.0505 36.2202 58.9512 33.5546 58.9512C30.8889 58.9512 29.5042 60.0505 28.2822 61.0204C27.1114 61.95 26.1002 62.753 23.9768 62.753C21.8532 62.753 20.8422 61.95 19.6712 61.0204C18.8575 60.3058 17.9241 59.7401 16.9141 59.3494C17.178 60.0928 17.4677 60.8235 17.783 61.5416C18.0944 61.7571 18.3943 61.9926 18.7042 62.2387C19.9262 63.2089 21.3112 64.3081 23.9768 64.3081C26.6427 64.3081 28.0272 63.2089 29.2492 62.2387C30.4202 61.3094 31.4312 60.5061 33.5546 60.5061C35.6779 60.5061 36.6889 61.3094 37.8599 62.2387C39.0819 63.2089 40.4669 64.3081 43.1325 64.3081C45.7982 64.3081 47.1832 63.2089 48.4051 62.2387C49.5764 61.3094 50.5877 60.5061 52.7113 60.5061C54.8341 60.5061 55.8454 61.3094 57.0167 62.2387C58.2386 63.2089 59.6231 64.3081 62.2893 64.3081C64.9554 64.3081 66.3403 63.2089 67.5625 62.2387C68.7328 61.3094 69.7447 60.5061 71.8686 60.5061C73.992 60.5061 75.0039 61.3094 76.1741 62.2387C76.6924 62.6674 77.2436 63.0548 77.8225 63.3973C78.0593 62.9375 78.2854 62.4717 78.5007 61.9997C78.0258 61.7049 77.5717 61.3777 77.1418 61.0204C75.9196 60.0505 74.534 58.9512 71.8686 58.9512Z" fill="white"/>
<path d="M71.8692 50.0527C69.2634 50.0527 67.9032 51.132 66.7031 52.0849C65.557 52.9947 64.4735 53.8542 62.2899 53.8542C60.1061 53.8542 59.0234 52.9947 57.8766 52.0849C56.6771 51.132 55.3171 50.0527 52.7119 50.0527C50.1056 50.0527 48.7459 51.132 47.5461 52.0849C46.3998 52.9947 45.3166 53.8542 43.1331 53.8542C40.9497 53.8542 39.8667 52.9947 38.7201 52.0849C37.5204 51.132 36.1606 50.0527 33.5551 50.0527C30.9497 50.0527 29.5899 51.132 28.3901 52.0849C27.2436 52.9947 26.1611 53.8542 23.9774 53.8542C21.7939 53.8542 20.7107 52.9947 19.5644 52.0849C18.4711 51.2169 17.2338 50.2534 15.0537 50.0869C15.0759 50.4936 15.1094 50.8975 15.1465 51.3C16.8454 51.4729 17.8046 52.2325 18.8121 53.0323C20.0119 53.9846 21.3721 55.0639 23.9774 55.0639C26.5829 55.0639 27.9427 53.9846 29.1424 53.0323C30.2887 52.122 31.3716 51.2624 33.5551 51.2624C35.7387 51.2624 36.8216 52.122 37.9681 53.0323C39.1679 53.9846 40.5276 55.0639 43.1331 55.0639C45.7387 55.0639 47.0984 53.9846 48.2981 53.0323C49.4447 52.122 50.5281 51.2624 52.7119 51.2624C54.8953 51.2624 55.9783 52.122 57.1246 53.0323C58.3245 53.9846 59.6843 55.0639 62.2899 55.0639C64.8952 55.0639 66.2554 53.9846 67.4554 53.0323C68.6016 52.122 69.6845 51.2624 71.8692 51.2624C74.0533 51.2624 75.1362 52.122 76.2824 53.0323C77.376 53.8998 78.614 54.8638 80.7937 55.0297C80.8767 54.634 80.9457 54.2335 81.0134 53.8325C79.1232 53.7237 78.1005 52.9306 77.0347 52.0849C75.8347 51.132 74.4751 50.0527 71.8692 50.0527Z" fill="white"/>
<path d="M23.9774 45.8182C26.5226 45.8182 27.8 44.8042 29.0348 43.8237C30.2056 42.8943 31.3115 42.0164 33.5552 42.0164C35.7991 42.0164 36.9047 42.8943 38.0755 43.8237C39.3109 44.8042 40.588 45.8182 43.1332 45.8182C45.6783 45.8182 46.9554 44.8042 48.1913 43.8237C49.3618 42.8943 50.4675 42.0164 52.7119 42.0164C54.9552 42.0164 56.0609 42.8943 57.2318 43.8237C58.4673 44.8042 59.7442 45.8182 62.2899 45.8182C64.8351 45.8182 66.113 44.8042 67.3478 43.8237C68.5187 42.8943 69.625 42.0164 71.8693 42.0164C74.1129 42.0164 75.2198 42.8943 76.3901 43.8237C77.6154 44.7958 78.8895 45.7978 81.3928 45.8149L81.3877 45.7358C81.3681 45.4731 81.3535 45.2089 81.3276 44.9479C79.1688 44.9155 78.0758 44.0584 76.9277 43.1468C75.6922 42.1663 74.4143 41.1523 71.8693 41.1523C69.3236 41.1523 68.0457 42.1663 66.8108 43.1468C65.6399 44.0765 64.5343 44.9541 62.2899 44.9541C60.0455 44.9541 58.9398 44.0765 57.7693 43.1468C56.5342 42.1663 55.2565 41.1523 52.7119 41.1523C50.1662 41.1523 48.8889 42.1663 47.6538 43.1468C46.4827 44.0765 45.377 44.9541 43.1332 44.9541C40.8893 44.9541 39.7836 44.0765 38.6128 43.1468C37.3774 42.1663 36.1003 41.1523 33.5552 41.1523C31.0101 41.1523 29.7329 42.1663 28.4978 43.1468C27.327 44.0765 26.2211 44.9541 23.9774 44.9541C21.7336 44.9541 20.6276 44.0765 19.4568 43.1468C18.4629 42.3577 17.4296 41.5566 15.7427 41.2701C15.6826 41.5511 15.6289 41.8346 15.5762 42.1181C17.0646 42.3676 17.9763 43.0748 18.9198 43.8237C20.1549 44.8042 21.4321 45.8182 23.9774 45.8182Z" fill="white"/>
<path d="M23.9767 36.5742C26.4615 36.5742 27.7146 35.5793 28.927 34.6173C30.1218 33.6687 31.2505 32.7724 33.5545 32.7724C35.8587 32.7724 36.9874 33.6687 38.1824 34.6173C39.3945 35.5793 40.6477 36.5742 43.1324 36.5742C45.6175 36.5742 46.8706 35.5796 48.083 34.6173C49.2777 33.6687 50.407 32.7724 52.7112 32.7724C55.0151 32.7724 56.1439 33.6687 57.3386 34.6173C58.5507 35.5793 59.8041 36.5742 62.2892 36.5742C64.7743 36.5742 66.0274 35.5796 67.2401 34.6173C68.435 33.6687 69.5641 32.7724 71.8685 32.7724C74.173 32.7724 75.3014 33.6687 76.497 34.6173C77.3009 35.3286 78.2321 35.8814 79.2415 36.2465C79.1573 36.03 79.0737 35.8133 78.9857 35.5993C78.2008 35.2428 77.4712 34.7752 76.8193 34.2111C75.6073 33.2491 74.3534 32.2539 71.8685 32.2539C69.383 32.2539 68.1298 33.2491 66.9171 34.2111C65.7222 35.1595 64.5931 36.0557 62.2892 36.0557C59.9849 36.0557 58.8562 35.1595 57.6609 34.2111C56.4486 33.2491 55.1959 32.2539 52.7112 32.2539C50.2256 32.2539 48.9727 33.2491 47.7606 34.2111C46.5654 35.1595 45.4366 36.0557 43.1324 36.0557C40.8282 36.0557 39.6997 35.1595 38.5045 34.2111C37.2923 33.2491 36.0392 32.2539 33.5544 32.2539C31.0697 32.2539 29.8165 33.2491 28.6044 34.2111C27.4096 35.1595 26.2807 36.0557 23.9767 36.0557C21.6725 36.0557 20.5438 35.1595 19.3485 34.2111C19.0566 33.9793 18.7612 33.746 18.4478 33.5247C18.3697 33.682 18.2905 33.8381 18.2148 33.9964C18.4909 34.1948 18.7578 34.4038 19.0264 34.6173C20.2385 35.5793 21.4917 36.5742 23.9767 36.5742Z" fill="white"/>
</svg>
