<?xml version="1.0" encoding="UTF-8"?>
<svg xmlns="http://www.w3.org/2000/svg" xmlns:xlink="http://www.w3.org/1999/xlink" width="96px" height="96px" viewBox="0 0 96 96" version="1.1">
<g id="surface1">
<path style=" stroke:none;fill-rule:nonzero;fill:rgb(0%,76.862746%,70.19608%);fill-opacity:1;" d="M 25.800781 25.976562 L 19.632812 19.808594 L 19.632812 64.289062 L 19.722656 66.375 C 19.722656 67.332031 19.894531 68.460938 20.242188 69.589844 L 69.066406 86.789062 L 81.230469 81.40625 Z M 25.800781 25.976562 "/>
<path style=" stroke:none;fill-rule:nonzero;fill:rgb(13.333334%,82.745099%,77.254903%);fill-opacity:1;" d="M 20.242188 69.589844 Z M 81.230469 81.40625 L 69.066406 86.789062 L 20.328125 69.589844 C 21.285156 73.152344 23.285156 77.148438 25.542969 79.40625 L 41.441406 95.21875 L 76.886719 95.304688 Z M 81.230469 81.40625 "/>
<path style=" stroke:none;fill-rule:nonzero;fill:rgb(0%,45.882353%,78.823531%);fill-opacity:1;" d="M 19.808594 19.808594 L 0.867188 48.476562 C -0.695312 50.128906 0.0859375 53.605469 2.605469 56.210938 L 13.554688 67.242188 L 20.417969 69.675781 C 20.15625 68.546875 19.894531 67.417969 19.894531 66.460938 L 19.808594 64.375 Z M 19.808594 19.808594 "/>
<path style=" stroke:none;fill-rule:nonzero;fill:rgb(0%,45.882353%,78.823531%);fill-opacity:1;" d="M 69.414062 20.328125 C 68.285156 20.070312 67.15625 19.894531 66.199219 19.808594 L 64.027344 19.722656 L 19.632812 19.722656 L 81.230469 81.316406 L 86.617188 69.15625 Z M 69.414062 20.328125 "/>
<path style=" stroke:none;fill-rule:nonzero;fill:rgb(0%,65.882355%,88.235295%);fill-opacity:1;" d="M 69.328125 20.328125 C 69.414062 20.328125 69.414062 20.328125 69.328125 20.328125 C 69.414062 20.328125 69.414062 20.328125 69.328125 20.328125 Z M 79.234375 25.542969 C 76.972656 23.285156 73.0625 21.199219 69.414062 20.328125 L 86.617188 69.15625 L 81.230469 81.316406 L 94.4375 77.0625 L 94.4375 40.832031 Z M 79.234375 25.542969 "/>
<path style=" stroke:none;fill-rule:nonzero;fill:rgb(0%,76.862746%,70.19608%);fill-opacity:1;" d="M 66.984375 13.554688 L 55.949219 2.605469 C 53.429688 0.0859375 49.953125 -0.695312 48.21875 0.867188 L 19.546875 19.808594 L 63.941406 19.808594 L 66.113281 19.894531 C 67.070312 19.894531 68.199219 20.070312 69.328125 20.417969 Z M 66.984375 13.554688 "/>
</g>
</svg>
