<svg width="96" height="96" viewBox="0 0 96 96" fill="none" xmlns="http://www.w3.org/2000/svg">
<rect width="96" height="96" fill="white"/>
<path fill-rule="evenodd" clip-rule="evenodd" d="M46.1077 15.6498C45.1624 16.5953 45.1231 17.6475 46.0003 18.5248C46.4862 19.0107 47.447 19.2482 49.5969 19.414C64.1462 20.5364 75.4606 31.852 76.5829 46.4029C76.7487 48.553 76.9862 49.5139 77.472 49.9998C78.3496 50.8775 79.4013 50.8379 80.3477 49.8913C81.0577 49.1812 81.1006 48.8749 80.8873 46.0165C80.2976 38.1108 76.8705 30.6355 71.2521 25.0002C65.3572 19.0878 58.1555 15.7465 49.9468 15.1157C47.1219 14.8983 46.8167 14.9408 46.1077 15.6498ZM45.934 26.8115C44.4326 28.471 45.6136 29.9326 48.7614 30.3107C58.2817 31.4541 64.5441 37.7172 65.6873 47.2384C65.9713 49.6033 66.6442 50.6627 67.8631 50.6627C69.4778 50.6627 69.9665 49.5266 69.7589 46.2526C69.0835 35.5906 59.214 26.1522 48.7416 26.1522C47.0571 26.1522 46.3885 26.3094 45.934 26.8115ZM46.1041 37.6408C45.6825 38.0625 45.3375 38.7319 45.3375 39.1284C45.3375 40.2245 46.6202 41.29 47.9505 41.299C50.8579 41.3184 54.0901 44.1238 54.5312 47.0106C54.8949 49.391 55.2448 50.1033 56.2183 50.4457C56.9474 50.702 57.4073 50.6299 58.1508 50.1429C59.0724 49.5392 59.1156 49.3867 58.934 47.3851C58.4467 42.0091 54.129 37.6235 48.7802 37.0713C47.1562 36.9037 46.7558 36.9891 46.1041 37.6408ZM14.6523 47.1087C13.9423 47.8188 13.8994 48.1251 14.1127 50.9835C14.7024 58.8892 18.1295 66.3645 23.7479 71.9998C29.6428 77.9122 36.8445 81.2535 45.0532 81.8843C47.8781 82.1017 48.1833 82.0592 48.8923 81.3501C49.8376 80.4047 49.8769 79.3525 48.9997 78.4752C48.5138 77.9893 47.553 77.7518 45.4031 77.586C30.8538 76.4636 19.5394 65.148 18.4171 50.5971C18.2513 48.447 18.0138 47.4861 17.528 47.0002C16.6504 46.1225 15.5987 46.1621 14.6523 47.1087ZM25.6999 47.0528C25.1496 47.6612 25.0807 48.216 25.2411 50.7474C25.9165 61.4094 35.786 70.8478 46.2584 70.8478C48.6407 70.8478 49.6625 70.2339 49.6625 68.8026C49.6625 67.6456 48.5657 66.9686 46.2386 66.6893C36.7184 65.5459 30.4559 59.2828 29.3127 49.7616C29.1699 48.5721 28.7994 47.3152 28.4895 46.9681C27.7416 46.1308 26.5 46.1686 25.6999 47.0528ZM36.7227 46.9303C35.9539 47.4684 35.8937 47.7164 36.0671 49.6286C36.5486 54.9401 40.9088 59.3805 46.1769 59.924C47.8471 60.0967 48.2403 60.0149 48.8959 59.3592C49.3175 58.9375 49.6625 58.2681 49.6625 57.8716C49.6625 56.7647 48.3805 55.709 47.0358 55.709C45.2817 55.709 42.7844 54.2888 41.6401 52.6405C41.0523 51.7938 40.5081 50.3851 40.3275 49.2436C39.8939 46.5013 38.5582 45.6442 36.7227 46.9303Z" fill="#126ED3"/>
</svg>
