<?xml version="1.0" encoding="UTF-8"?>
<svg xmlns="http://www.w3.org/2000/svg" xmlns:xlink="http://www.w3.org/1999/xlink" width="96px" height="96px" viewBox="0 0 96 96" version="1.1">
<g id="surface1">
<path style=" stroke:none;fill-rule:evenodd;fill:rgb(0%,0%,0%);fill-opacity:1;" d="M 8.367188 66.160156 C 5.792969 60.601562 4.355469 54.414062 4.355469 47.890625 C 4.355469 46.203125 4.453125 44.539062 4.640625 42.898438 C 4.828125 41.246094 5.109375 39.621094 5.480469 38.03125 C 7.546875 29.121094 12.351562 21.253906 18.960938 15.367188 C 24.511719 10.433594 31.3125 6.910156 38.769531 5.3125 C 41.710938 4.6875 44.761719 4.355469 47.890625 4.355469 C 48.988281 4.355469 50.09375 4.398438 51.203125 4.484375 C 56.472656 4.886719 61.453125 6.210938 65.996094 8.292969 C 69.660156 9.972656 73.050781 12.144531 76.085938 14.726562 C 83.703125 21.21875 89.019531 30.257812 90.785156 40.40625 C 91.207031 42.839844 91.429688 45.339844 91.429688 47.890625 C 91.425781 48.988281 91.382812 50.097656 91.300781 51.207031 C 90.980469 55.414062 90.070312 59.433594 88.65625 63.195312 C 86.6875 68.4375 83.734375 73.195312 80.027344 77.253906 C 75.203125 82.179688 69.070312 84.371094 63.949219 84.277344 C 60.226562 84.210938 56.585938 82.730469 54.066406 80.5625 C 50.472656 77.46875 49.019531 73.925781 48.519531 69.976562 C 48.398438 68.996094 48.46875 66.320312 48.980469 64.46875 C 49.359375 63.085938 50.328125 60.417969 51.738281 59.253906 C 50.085938 58.542969 47.960938 56.992188 47.289062 56.246094 C 47.125 56.0625 47.148438 55.777344 47.292969 55.582031 C 47.441406 55.382812 47.699219 55.304688 47.933594 55.390625 C 49.351562 55.878906 51.082031 56.359375 52.90625 56.664062 C 55.308594 57.066406 58.292969 57.570312 61.3125 57.71875 C 68.683594 58.082031 76.382812 54.773438 78.773438 48.1875 C 81.164062 41.605469 80.234375 35.097656 71.664062 31.191406 C 63.089844 27.285156 59.132812 22.640625 52.207031 19.839844 C 47.679688 18.011719 42.644531 19.097656 37.476562 21.953125 C 23.550781 29.648438 11.078125 53.960938 16.828125 76.488281 C 16.910156 76.796875 16.769531 77.121094 16.492188 77.273438 C 16.230469 77.417969 15.90625 77.378906 15.691406 77.179688 C 14.015625 75.339844 12.5 73.355469 11.15625 71.25 C 10.117188 69.621094 9.183594 67.921875 8.367188 66.160156 Z M 8.367188 66.160156 "/>
<path style=" stroke:none;fill-rule:evenodd;fill:rgb(100%,100%,100%);fill-opacity:1;" d="M 50.117188 0.0507812 C 76.519531 1.28125 96.960938 23.714844 95.730469 50.117188 C 94.503906 76.519531 72.070312 96.960938 45.667969 95.730469 C 19.261719 94.503906 -1.175781 72.070312 0.0507812 45.667969 C 1.28125 19.261719 23.714844 -1.175781 50.117188 0.0507812 Z M 61.316406 57.71875 C 58.292969 57.570312 55.308594 57.066406 52.90625 56.664062 C 51.082031 56.359375 49.351562 55.878906 47.933594 55.390625 C 47.699219 55.308594 47.441406 55.382812 47.292969 55.582031 C 47.148438 55.777344 47.125 56.066406 47.289062 56.246094 C 47.960938 56.992188 50.085938 58.542969 51.742188 59.253906 C 50.328125 60.417969 49.363281 63.085938 48.980469 64.46875 C 48.46875 66.320312 48.398438 68.996094 48.519531 69.976562 C 49.019531 73.925781 50.472656 77.46875 54.066406 80.5625 C 56.585938 82.730469 60.226562 84.214844 63.949219 84.28125 C 69.089844 84.371094 75.246094 82.164062 80.074219 77.203125 C 86.394531 70.277344 90.53125 61.269531 91.300781 51.210938 C 93.128906 27.25 75.164062 6.3125 51.203125 4.484375 C 27.246094 2.652344 6.308594 20.621094 4.480469 44.578125 C 3.53125 56.988281 7.894531 68.585938 15.648438 77.136719 C 15.863281 77.371094 16.210938 77.429688 16.492188 77.273438 C 16.769531 77.121094 16.910156 76.796875 16.828125 76.488281 C 11.078125 53.964844 23.550781 29.648438 37.476562 21.953125 C 42.644531 19.097656 47.679688 18.011719 52.207031 19.839844 C 59.132812 22.640625 63.089844 27.285156 71.664062 31.191406 C 80.238281 35.097656 81.164062 41.605469 78.773438 48.191406 C 76.382812 54.773438 68.683594 58.082031 61.316406 57.71875 Z M 46.316406 22.875 C 43.503906 23.097656 41.660156 26.574219 41.417969 28.808594 C 41.175781 31.046875 42.285156 34.738281 45.945312 34.667969 C 50.234375 34.582031 51.535156 30.914062 51.066406 27.363281 C 50.714844 24.695312 48.664062 22.691406 46.316406 22.875 Z M 46.316406 22.875 "/>
<path style=" stroke:none;fill-rule:evenodd;fill:rgb(0%,0%,0%);fill-opacity:1;" d="M 46.332031 22.863281 C 48.683594 22.679688 50.730469 24.683594 51.085938 27.347656 C 51.554688 30.902344 50.253906 34.570312 45.96875 34.652344 C 42.304688 34.726562 41.195312 31.035156 41.4375 28.796875 C 41.679688 26.5625 43.523438 23.082031 46.332031 22.863281 Z M 46.332031 22.863281 "/>
</g>
</svg>
