<?xml version="1.0"?>
<svg width="96" height="96" xmlns="http://www.w3.org/2000/svg" xmlns:svg="http://www.w3.org/2000/svg" enable-background="new 0 0 283.46 283.46" version="1.1" xml:space="preserve">
 <metadata id="metadata3797">image/svg+xml</metadata>

 <g class="layer">
  <title>Layer 1</title>
  <g id="svg_1" transform="translate(0 0) translate(0 0) translate(-1 0) translate(0 0) translate(0 0) translate(0 0) translate(1.01 0) translate(0 0) translate(0 0) translate(0 0) translate(0 -0.03) translate(0 0) matrix(0.47832 0 0 0.478384 -1.44593 -2.83974)">
   <circle cx="100" cy="100" fill="#ffffff" id="path13" opacity="0.8" r="100" stroke-width="0.77" transform="matrix(1 0 0 1 3 6)"/>
   <g id="g3790" transform="matrix(1 0 0 1 293.962 -40.2991)">
    <g id="g3764"/>
    <g id="g3813">
     <path d="m-232.91,106.58c1.35,-2.16 1.48,-11.84 2.02,-19.64c0.54,-7.81 5.64,-10.73 10.49,-10.63c6.46,0.13 13.46,11.52 13.46,11.52c0,0 -1.89,-9.32 -7,-14.71c-4.85,-5.1 -14.71,-3.85 -19.91,1.57c-5,5.22 -3.5,15.61 -4.71,25.83c-0.85,7.16 -3.93,16.3 -5.01,19.34c2.65,-6.6 10.66,-13.28 10.66,-13.28z" fill="#da3b01" id="path3756" stroke-width="1.81"/>
     <path d="m-168.6,73.12c-5.12,5.39 -7,14.71 -7,14.71c0,0 7,-11.39 13.45,-11.52c4.85,-0.1 9.96,2.82 10.5,10.63c0.54,7.8 0.67,17.49 2.02,19.64c0,0 8,6.68 10.65,13.28c-1.08,-3.04 -4.16,-12.17 -5,-19.33c-1.21,-10.23 0.29,-20.62 -4.71,-25.83c-5.2,-5.43 -15.06,-6.68 -19.91,-1.58z" fill="#da3b01" id="path3758" stroke-width="1.81"/>
     <path d="m-135.41,139.18c-0.01,-0.28 -0.03,-0.56 -0.04,-0.83c-0.66,0.06 -1.31,0.12 -1.96,0.18c-0.12,-1.29 -0.23,-2.59 -0.34,-3.88c0.65,-0.06 1.31,-0.12 1.97,-0.18c-4.31,-34.63 -41.45,-35.96 -41.45,-35.96c-1.46,-16.95 8.07,-27.99 8.07,-27.99l-21.91,0.27l-22.06,-0.27c0,0 9.86,11.22 8.07,27.99c0,0 -37.18,1.33 -41.45,36.02c5.38,0.48 10.76,0.9 16.16,1.24c-0.35,5.47 -0.7,10.94 -1.05,16.41c-1.29,-0.08 -2.58,-0.17 -3.87,-0.26c0.31,-4.42 0.62,-8.84 0.93,-13.25c-3.7,-0.26 -7.41,-0.55 -11.11,-0.88c-0.33,3.76 -0.66,7.52 -0.99,11.28c0.33,2.89 0.84,5.94 1.56,9.17c0,0 8.18,37.25 46.75,73.12c0,0 -11.44,2.79 5.85,3.53l1.48,0.01c17.61,-0.66 4.93,-3.56 4.93,-3.56c43.41,-39.46 48.46,-73.1 48.46,-73.1c0.18,-0.82 0.35,-1.62 0.51,-2.42c-4.78,0.42 -9.55,0.77 -14.33,1.08c-0.35,-5.47 -0.69,-10.94 -1.04,-16.41c1.26,-0.08 2.53,-0.16 3.79,-0.25c0.31,4.42 0.62,8.83 0.93,13.25c3.74,-0.26 7.48,-0.56 11.21,-0.88c0.04,-0.23 0.07,-0.45 0.1,-0.67c-0.37,-4.2 -0.74,-8.4 -1.1,-12.6c0.64,-0.05 1.29,-0.11 1.93,-0.16zm-88.62,18.16c-6.46,-0.34 -12.91,-0.77 -19.36,-1.3c0.45,-5.46 0.9,-10.92 1.35,-16.38c1.26,0.1 2.53,0.21 3.79,0.3c-0.33,4.42 -0.67,8.83 -1.01,13.25c3.8,0.29 7.59,0.54 11.38,0.76c0.26,-4.43 0.52,-8.85 0.77,-13.28c1.31,0.08 2.62,0.16 3.93,0.23c-0.29,5.47 -0.57,10.95 -0.85,16.42zm0.89,-17.25c-1.31,-0.07 -2.61,-0.14 -3.92,-0.22c0.08,-1.29 0.15,-2.59 0.23,-3.88c1.29,0.07 2.59,0.15 3.89,0.21c-0.07,1.3 -0.13,2.59 -0.2,3.89zm6.4,17.58c-1.34,-0.05 -2.69,-0.11 -4.03,-0.17c0.06,-1.3 0.12,-2.6 0.18,-3.89c1.34,0.06 2.67,0.12 4.01,0.17c-0.06,1.3 -0.11,2.59 -0.16,3.89zm0.19,-4.71c-1.33,-0.05 -2.67,-0.12 -4,-0.19c0.25,-5.47 0.51,-10.94 0.76,-16.42c6.24,0.29 12.49,0.49 18.74,0.59c-0.09,5.47 -0.18,10.95 -0.26,16.43c-1.29,-0.02 -2.59,-0.04 -3.88,-0.07c0.1,-4.43 0.2,-8.86 0.29,-13.29c-3.71,-0.08 -7.42,-0.19 -11.12,-0.34c-0.18,4.43 -0.36,8.86 -0.53,13.29zm22.85,5.21c-6.47,-0.02 -12.93,-0.14 -19.39,-0.36c0.18,-5.48 0.37,-10.96 0.56,-16.43c1.27,0.04 2.53,0.08 3.8,0.12c-0.12,4.42 -0.25,8.85 -0.37,13.28c3.8,0.1 7.6,0.18 11.4,0.21c0.04,-4.43 0.08,-8.87 0.13,-13.3c1.31,0.02 2.62,0.03 3.93,0.04c-0.02,5.48 -0.04,10.96 -0.06,16.44zm0.06,-17.27c-1.31,0 -2.62,-0.01 -3.92,-0.03c0.01,-1.29 0.02,-2.59 0.03,-3.89c1.3,0.01 2.6,0.02 3.9,0.03c0,1.3 -0.01,2.59 -0.01,3.89zm29.88,-4.52c0.06,1.3 0.12,2.6 0.18,3.89c-1.31,0.06 -2.61,0.12 -3.92,0.17c-0.05,-1.3 -0.1,-2.6 -0.15,-3.89c1.3,-0.05 2.6,-0.11 3.89,-0.17zm-26.16,0.63c6.25,-0.02 12.5,-0.13 18.75,-0.34c0.18,5.48 0.36,10.96 0.54,16.43c-1.29,0.04 -2.58,0.08 -3.87,0.12c-0.12,-4.43 -0.24,-8.86 -0.36,-13.28c-3.71,0.1 -7.42,0.17 -11.13,0.2c0.04,4.43 0.08,8.86 0.12,13.3c-1.34,0 -2.67,0.01 -4.01,0c-0.01,-5.47 -0.02,-10.95 -0.04,-16.43zm0.06,21.16c0,-1.29 -0.01,-2.59 -0.01,-3.89c1.33,0 2.67,-0.01 4,-0.02c0.02,1.3 0.03,2.59 0.04,3.89c-1.35,0.01 -2.69,0.02 -4.03,0.02zm7.68,-0.06c-0.08,-5.48 -0.16,-10.96 -0.24,-16.44c1.26,-0.02 2.53,-0.04 3.8,-0.06c0.09,4.42 0.18,8.85 0.27,13.28c3.8,-0.08 7.6,-0.19 11.4,-0.34c-0.17,-4.43 -0.34,-8.86 -0.52,-13.29c1.31,-0.05 2.62,-0.1 3.93,-0.15c0.25,5.47 0.49,10.94 0.74,16.42c-6.46,0.29 -12.92,0.48 -19.38,0.58zm23.28,-0.77c-0.06,-1.3 -0.13,-2.6 -0.2,-3.89c1.34,-0.07 2.67,-0.14 4.01,-0.22c0.07,1.3 0.15,2.59 0.22,3.89c-1.34,0.07 -2.69,0.15 -4.03,0.22zm15.11,-5.7c-0.34,-4.42 -0.67,-8.83 -1.01,-13.25c-3.7,0.28 -7.4,0.53 -11.11,0.75c0.26,4.42 0.51,8.85 0.77,13.27c-1.33,0.08 -2.67,0.14 -4,0.21c-0.28,-5.48 -0.56,-10.95 -0.85,-16.42c6.25,-0.32 12.48,-0.74 18.72,-1.25c0.45,5.46 0.9,10.92 1.34,16.38c-1.28,0.11 -2.57,0.21 -3.86,0.31z" fill="#da3b01" id="path3760" stroke-width="1.81"/>
     <path d="m-214.56,68.82c0,0 11.78,0 24.03,0c0.01,0 0.03,0 0.05,0c12.25,0 24.03,0 24.03,0c0,0 10.58,-0.67 10.58,-11.12l-34.61,0l-0.06,0l-34.6,0c0,10.45 10.58,11.12 10.58,11.12z" fill="#da3b01" id="path3762" stroke-width="1.81"/>
    </g>
   </g>
  </g>
 </g>
</svg>
