<svg width="96" height="96" viewBox="0 0 96 96" fill="none" xmlns="http://www.w3.org/2000/svg">
<rect width="96" height="96" fill="white"/>
<path d="M48.2118 35.4C61.5836 35.4 72.4236 31.0572 72.4236 25.7C72.4236 20.3428 61.5836 16 48.2118 16C34.84 16 24 20.3428 24 25.7C24 31.0572 34.84 35.4 48.2118 35.4Z" fill="#2962FF"/>
<path d="M48.8228 68.4729C41.1087 70.3059 33.089 72.2154 27.9717 75.6524C25.3748 74.0485 24 72.2154 24 70.5351C24 62.8209 36.8315 59.9186 49.2811 57.0926C58.2173 55.1067 67.3827 52.9682 72.5 48.8438V55.6414C72.5 62.7445 60.4323 65.6469 48.8228 68.4729Z" fill="#2962FF"/>
<path d="M48.3646 52.9678C38.8937 55.1064 29.2701 57.3214 24 61.8277V60.3001C24 46.8576 38.7409 43.4206 52.9472 40.1364C63.2583 37.6923 68.2992 36.4702 72.5 33.0332V40.5182C72.5 47.545 60.2031 50.2946 48.3646 52.9678Z" fill="#2962FF"/>
<path d="M72.5006 63.9648C67.4596 68.242 58.5234 70.3806 49.7399 72.4428C43.4769 73.9704 37.0612 75.4979 32.4785 77.7129C36.6029 79.1641 42.0258 80.157 48.2124 80.157C62.3423 80.157 72.4242 75.0396 72.4242 70.457V63.9648H72.5006Z" fill="#2962FF"/>
</svg>
