<svg width="96" height="96" viewBox="0 0 96 96" fill="none" xmlns="http://www.w3.org/2000/svg">
<g clip-path="url(#clip0_6193_25)">
<rect width="96" height="96" fill="white"/>
<path fill-rule="evenodd" clip-rule="evenodd" d="M0 0V4.909V48V91.091V96H4.909H48H91.091H96V91.091V48V4.909V0H91.091H48H4.909H0ZM37.049 32.25L37.098 43.5L47.886 32.25L58.673 21H67.07H75.467L64.248 32.251L53.029 43.502L65.014 60.437C71.606 69.751 77 77.513 77 77.686C77 77.859 73.409 78 69.02 78H61.039L52.876 65.75C48.386 59.013 44.705 53.238 44.5 53C44.296 52.763 42.402 54.157 40.485 56.015L37 59.392V68.696V78H30.5H24V49.5V21H30.5H37L37.049 32.25Z" fill="#3E5FA8"/>
</g>
<defs>
<clipPath id="clip0_6193_25">
<rect width="96" height="96" fill="white"/>
</clipPath>
</defs>
</svg>
