<svg width="96" height="96" viewBox="0 0 96 96" fill="none" xmlns="http://www.w3.org/2000/svg">
<g clip-path="url(#clip0_6115_762)">
<rect width="96" height="96" fill="white"/>
<path d="M47.8445 6H48.0395C49.0388 6.47599 50.0122 7.00473 50.9555 7.584C61.8135 13.828 72.6715 20.074 83.5295 26.322C83.9495 26.5462 84.2925 26.8915 84.514 27.313C84.7355 27.7345 84.8252 28.2129 84.7715 28.686C84.7475 41.853 84.7715 55.017 84.7565 68.178C84.6152 68.8061 84.2313 69.3528 83.6885 69.699C72.1425 76.347 60.5955 82.991 49.0475 89.631C48.7676 89.8443 48.4303 89.9689 48.079 89.9887C47.7277 90.0084 47.3785 89.9225 47.0765 89.742C35.5165 83.114 23.9675 76.474 12.4295 69.822C12.0545 69.6447 11.7404 69.3603 11.5269 69.0048C11.3133 68.6492 11.2098 68.2383 11.2295 67.824C11.2295 54.66 11.2295 41.497 11.2295 28.335C11.2012 27.9225 11.2965 27.5109 11.5033 27.1529C11.7102 26.7948 12.019 26.5066 12.3905 26.325C23.2345 20.089 34.0785 13.849 44.9225 7.605C45.8885 7.053 46.8365 6.468 47.8445 6Z" fill="#019639"/>
<path d="M26.301 31.6147C26.301 42.4727 26.301 53.3317 26.301 64.1917C26.2872 64.7931 26.3933 65.3912 26.6132 65.9511C26.8332 66.5111 27.1625 67.0215 27.582 67.4527C28.3861 68.247 29.4381 68.7416 30.5628 68.8541C31.6874 68.9666 32.8166 68.6901 33.762 68.0707C34.3948 67.6407 34.9129 67.0624 35.2711 66.3863C35.6293 65.7102 35.8167 64.9568 35.817 64.1917C35.817 56.3317 35.802 48.4717 35.817 40.6117C42.983 49.1917 50.164 57.7597 57.36 66.3157C58.3598 67.3285 59.5978 68.0741 60.9607 68.484C62.3235 68.8939 63.7674 68.955 65.16 68.6617C66.1434 68.468 67.0386 67.9639 67.7142 67.2235C68.3897 66.4832 68.8099 65.5456 68.913 64.5487C68.929 53.4667 68.929 42.3857 68.913 31.3057C68.8097 30.123 68.2669 29.0219 67.3916 28.2198C66.5164 27.4176 65.3722 26.9727 64.185 26.9727C62.9978 26.9727 61.8537 27.4176 60.9784 28.2198C60.1031 29.0219 59.5603 30.123 59.457 31.3057C59.457 39.2917 59.409 47.2687 59.457 55.2517C52.419 46.9537 45.468 38.5837 38.457 30.2557C37.5327 29.0705 36.309 28.1532 34.9121 27.5985C33.5152 27.0437 31.9956 26.8715 30.51 27.0997C29.3846 27.225 28.3413 27.7493 27.5692 28.5775C26.797 29.4058 26.3471 30.4833 26.301 31.6147Z" fill="white"/>
</g>
<defs>
<clipPath id="clip0_6115_762">
<rect width="96" height="96" fill="white"/>
</clipPath>
</defs>
</svg>
