<?xml version="1.0" encoding="UTF-8"?>
<svg xmlns="http://www.w3.org/2000/svg" xmlns:xlink="http://www.w3.org/1999/xlink" width="96" height="96" viewBox="0 0 96 96">
<rect width="96" height="96" fill="white"/>
<path fill-rule="evenodd" fill="rgb(0%, 0%, 0%)" fill-opacity="1" d="M 29.398438 59.652344 L 24.023438 59.652344 L 24.023438 57.964844 C 23.511719 58.605469 22.992188 59.078125 22.46875 59.371094 C 21.550781 59.886719 20.507812 60.140625 19.335938 60.140625 C 17.449219 60.140625 15.765625 59.492188 14.292969 58.191406 C 12.53125 56.640625 11.652344 54.589844 11.652344 52.03125 C 11.652344 49.433594 12.554688 47.355469 14.355469 45.804688 C 15.789062 44.570312 17.433594 43.957031 19.289062 43.957031 C 20.371094 43.957031 21.386719 44.183594 22.335938 44.644531 C 22.882812 44.90625 23.445312 45.335938 24.023438 45.9375 L 24.023438 35.042969 L 29.398438 35.042969 Z M 24.1875 52.046875 C 24.1875 51.085938 23.847656 50.269531 23.171875 49.597656 C 22.496094 48.925781 21.675781 48.589844 20.714844 48.589844 C 19.644531 48.589844 18.765625 48.996094 18.074219 49.804688 C 17.519531 50.460938 17.242188 51.207031 17.242188 52.046875 C 17.242188 52.890625 17.519531 53.636719 18.074219 54.292969 C 18.753906 55.101562 19.632812 55.503906 20.714844 55.503906 C 21.6875 55.503906 22.507812 55.171875 23.179688 54.507812 C 23.851562 53.839844 24.1875 53.019531 24.1875 52.046875 Z M 49.550781 59.652344 L 44.179688 59.652344 L 44.179688 57.964844 C 43.664062 58.605469 43.144531 59.078125 42.621094 59.371094 C 41.703125 59.886719 40.660156 60.140625 39.492188 60.140625 C 37.601562 60.140625 35.921875 59.492188 34.445312 58.191406 C 32.6875 56.640625 31.808594 54.589844 31.808594 52.03125 C 31.808594 49.433594 32.710938 47.355469 34.511719 45.804688 C 35.941406 44.570312 37.585938 43.957031 39.441406 43.957031 C 40.523438 43.957031 41.539062 44.183594 42.492188 44.644531 C 43.035156 44.90625 43.597656 45.335938 44.179688 45.9375 L 44.179688 44.445312 L 49.550781 44.445312 Z M 44.339844 52.046875 C 44.339844 51.085938 44.003906 50.269531 43.324219 49.597656 C 42.648438 48.925781 41.828125 48.589844 40.867188 48.589844 C 39.796875 48.589844 38.917969 48.996094 38.230469 49.804688 C 37.671875 50.460938 37.394531 51.207031 37.394531 52.046875 C 37.394531 52.890625 37.671875 53.636719 38.230469 54.292969 C 38.90625 55.101562 39.789062 55.503906 40.867188 55.503906 C 41.839844 55.503906 42.664062 55.171875 43.335938 54.507812 C 44.007812 53.839844 44.339844 53.019531 44.339844 52.046875 Z M 70.3125 52.066406 C 70.3125 54.664062 69.410156 56.738281 67.609375 58.289062 C 66.179688 59.523438 64.535156 60.140625 62.679688 60.140625 C 61.597656 60.140625 60.582031 59.914062 59.628906 59.453125 C 59.085938 59.191406 58.523438 58.761719 57.941406 58.160156 L 57.941406 67.253906 L 52.570312 67.253906 L 52.570312 44.445312 L 57.941406 44.445312 L 57.941406 46.132812 C 58.421875 45.5 58.941406 45.03125 59.5 44.726562 C 60.417969 44.210938 61.460938 43.957031 62.628906 43.957031 C 64.519531 43.957031 66.199219 44.605469 67.675781 45.90625 C 69.433594 47.457031 70.3125 49.507812 70.3125 52.066406 Z M 64.726562 52.046875 C 64.726562 51.1875 64.453125 50.4375 63.90625 49.804688 C 63.21875 48.996094 62.332031 48.589844 61.253906 48.589844 C 60.28125 48.589844 59.457031 48.925781 58.785156 49.589844 C 58.113281 50.257812 57.777344 51.078125 57.777344 52.046875 C 57.777344 53.007812 58.117188 53.824219 58.792969 54.496094 C 59.472656 55.167969 60.292969 55.503906 61.253906 55.503906 C 62.332031 55.503906 63.214844 55.101562 63.890625 54.292969 C 64.445312 53.636719 64.726562 52.890625 64.726562 52.046875 Z M 84.125 49.410156 C 83.375 49.050781 82.609375 48.871094 81.832031 48.871094 C 80.0625 48.871094 78.917969 49.589844 78.390625 51.03125 C 78.195312 51.558594 78.097656 52.261719 78.097656 53.144531 L 78.097656 59.652344 L 72.722656 59.652344 L 72.722656 44.445312 L 78.097656 44.445312 L 78.097656 46.9375 C 78.664062 46.050781 79.277344 45.414062 79.933594 45.019531 C 80.816406 44.496094 81.867188 44.234375 83.078125 44.234375 C 83.363281 44.234375 83.710938 44.25 84.125 44.28125 Z M 84.125 49.410156 "/>
<path fill-rule="nonzero" fill="rgb(0%, 0%, 0%)" fill-opacity="1" d="M 52.527344 59.761719 L 57.9375 59.761719 L 58.402344 72.464844 L 55.230469 74.6875 L 52.0625 72.464844 Z M 52.527344 59.761719 "/>
<path fill-rule="nonzero" fill="rgb(0%, 0%, 0%)" fill-opacity="1" d="M 41.328125 21.4375 L 59.992188 21.4375 C 60.503906 21.4375 60.921875 21.855469 60.921875 22.367188 L 60.921875 34.953125 C 60.921875 35.464844 60.503906 35.882812 59.992188 35.882812 L 41.328125 35.882812 C 40.8125 35.882812 40.394531 35.464844 40.394531 34.953125 L 40.394531 22.367188 C 40.394531 21.855469 40.8125 21.4375 41.328125 21.4375 Z M 41.328125 21.4375 "/>
<g mask="url(#mask-0)">
<use xlink:href="#source-9"/>
</g>
<path fill-rule="nonzero" fill="rgb(0%, 0%, 0%)" fill-opacity="1" d="M 35.648438 34.953125 L 65.402344 34.953125 C 66.359375 34.953125 67.132812 35.726562 67.132812 36.683594 C 67.132812 37.644531 66.359375 38.417969 65.402344 38.417969 L 35.648438 38.417969 C 34.6875 38.417969 33.914062 37.644531 33.914062 36.683594 C 33.914062 35.726562 34.6875 34.953125 35.648438 34.953125 Z M 35.648438 34.953125 "/>
<g mask="url(#mask-1)">
<use xlink:href="#source-14"/>
</g>
</svg>
