<svg xmlns="http://www.w3.org/2000/svg" width="96" height="96" viewBox="0 0 96 96" fill="none">
<rect width="96" height="96" fill="white"/>
<svg x="16" y="16" width="64" height="64" viewBox="4 4 26 26">
<path d="M9.35374 9.79078C9.50838 9.92068 9.64138 10.0398 9.76973 10.1496L16.8122 6.08396L23.7635 10.1047C23.8934 9.99491 24.0326 9.87429 24.1795 9.74593L16.8122 5.48549L9.35374 9.79078Z" fill="#0E1B2A"/>
<path d="M26.613 18.2788C26.4441 18.3627 26.2712 18.438 26.0949 18.5046V22.1619L21.4556 24.8373C21.5886 24.8713 21.6798 24.8867 21.6798 24.8867C21.5252 25.094 21.1401 25.2502 20.8293 25.3507C20.9081 25.4203 21.0133 25.5146 21.1386 25.6259L26.6114 22.465L26.613 18.2788Z" fill="#0E1B2A"/>
<path d="M17.9824 32.9901L19.6371 32.0344L18.683 31.388L18.4309 31.5334C18.3104 32.0274 18.1607 32.5138 17.9824 32.9901Z" fill="#0E1B2A"/>
<path d="M11.9348 24.8868C11.9348 24.8868 12.026 24.8714 12.1621 24.8358L7.53362 22.162V18.5619C7.36042 18.5016 7.18722 18.432 7.01556 18.3531V22.4605L12.6121 25.6925L12.9462 25.3832C12.6183 25.3028 12.1111 25.1312 11.9348 24.8868Z" fill="#0E1B2A"/>
<path d="M7.51294 8.11096C7.71191 8.30271 7.90831 8.48829 8.10213 8.66767L16.8117 3.6402L25.4269 8.61355C25.6202 8.43416 25.8166 8.24704 26.0145 8.05528L16.8117 2.74172L7.51294 8.11096Z" fill="#0E1B2A"/>
<path d="M28.9885 16.1448C28.7481 16.4612 28.4899 16.7638 28.2153 17.0511V23.3915L22.3388 26.7812C22.5259 26.9746 22.71 27.171 22.8816 27.3658L28.99 23.8399L28.9885 16.1448Z" fill="#0E1B2A"/>
<path d="M6.57479 7.1693L16.9189 1.19694L27.028 7.03476C27.2739 6.77341 27.5136 6.50897 27.7394 6.24762L16.9143 0L5.8557 6.38834C6.08457 6.64969 6.32582 6.91104 6.57479 7.1693Z" fill="#0E1B2A"/>
<path d="M13.1909 30.2548L3.40502 24.6057V11.4949C3.04934 11.1099 2.70294 10.6846 2.36736 10.247V25.2041L13.1445 31.4255C13.1398 31.0347 13.1553 30.644 13.1909 30.2548Z" fill="#0E1B2A"/>
<path d="M30.433 11.0846V24.6052L20.6379 30.2605C20.6703 30.6626 20.6904 31.0646 20.6843 31.4296L31.4691 25.2036V9.7578C31.1444 10.2032 30.7918 10.6625 30.433 11.0846Z" fill="#0E1B2A"/>
<path d="M13.4848 28.0432L13.157 27.853L12.0451 28.1097L13.3534 28.8644C13.4106 28.5257 13.4508 28.2381 13.4848 28.0432Z" fill="#0E1B2A"/>
<path d="M11.4173 26.8492L5.41402 23.3836V17.2056C5.14003 16.9318 4.88187 16.6427 4.6408 16.3396V23.8321L10.8838 27.4368C11.0477 27.2404 11.2302 27.0378 11.4173 26.8492Z" fill="#0E1B2A"/>
<path d="M15.843 32.9824C15.6641 32.5069 15.5143 32.0209 15.3945 31.5272L15.1487 31.3849L14.1945 32.0313L15.843 32.9824Z" fill="#0E1B2A"/>
<path d="M20.5232 27.8202L20.3206 27.9362C20.3515 28.1079 20.4026 28.4001 20.4551 28.7558L21.6335 28.0769L20.5232 27.8202Z" fill="#0E1B2A"/>
<path d="M16.4454 17.0448C16.6078 17.3789 16.7732 17.7206 16.9341 18.0717C17.0887 17.7206 17.2604 17.3789 17.4212 17.0448C18.5408 14.7252 19.1037 13.3798 17.6655 12.6359L17.6021 12.588C17.5271 12.4802 17.427 12.3921 17.3106 12.3313C17.1941 12.2704 17.0647 12.2387 16.9333 12.2387C16.8019 12.2387 16.6725 12.2704 16.556 12.3313C16.4396 12.3921 16.3395 12.4802 16.2645 12.588L16.2011 12.6359C14.7629 13.3798 15.3258 14.7267 16.4454 17.0448Z" fill="#0E1B2A"/>
<path d="M32.0398 6.93422C28.7165 12.37 21.6787 14.9432 21.6787 14.9432C34.0703 7.60693 33.6048 0.228861 33.6048 0.228861C29.1588 8.58737 21.6972 13.1061 18.9647 14.552C18.7977 15.3824 18.3461 16.3165 17.8822 17.2784C17.6409 17.7748 17.3935 18.2897 17.1662 18.8248L16.928 19.3769L16.6899 18.8248C16.461 18.2959 16.2136 17.781 15.9739 17.2784C15.5362 16.3737 15.111 15.4907 14.9238 14.6974C12.4495 13.4324 4.61064 8.89356 0.00225191 0.228861C0.00225191 0.228861 -0.461681 7.60693 11.9284 14.9432C11.9284 14.9432 4.89364 12.37 1.56725 6.93422C1.56725 6.93422 3.93639 14.1051 11.0825 15.7304C11.0825 15.7304 6.57462 15.6716 4.01062 13.0164C4.01062 13.0164 3.85598 16.2098 10.7423 16.6892C10.7423 16.6892 7.36021 17.5103 5.70707 16.0056C5.70707 16.0056 5.78903 17.6279 10.8459 17.781C10.8459 17.781 13.0758 17.6263 14.4955 18.616C14.4506 20.4331 14.8744 22.3151 15.2981 23.7193C15.2239 23.7703 15.2022 24.1291 12.6861 24.924C12.6861 24.9626 14.3006 25.3554 15.0847 24.6147C15.2656 24.7863 13.2661 25.3369 11.3995 27.6704C11.4227 27.5792 13.8491 26.7874 15.5579 26.025C15.5764 26.0142 14.2944 27.2885 14.0346 31.0865C14.0795 31.0741 14.828 29.8494 16.0017 28.4885C15.9204 30.2403 16.2316 31.9881 16.9126 33.6041V27.689V33.5995C17.5653 32.0531 17.8775 30.3843 17.8281 28.7065C18.892 29.9777 19.5616 31.0695 19.6034 31.0819C19.3436 27.2838 18.0569 26.0096 18.0817 26.0204C19.7905 26.7828 22.2169 27.5746 22.2385 27.6658C20.3689 25.3369 18.3585 24.7863 18.5348 24.61C19.3188 25.3461 20.9395 24.9533 20.9318 24.9193C18.3863 24.1152 18.3941 23.7564 18.3183 23.7131C18.3183 23.7131 18.3183 23.7131 18.3183 23.7054C18.7451 22.3012 19.1719 20.4207 19.1317 18.6021C20.5513 17.617 22.7674 17.7763 22.7674 17.7763C27.8242 17.6217 27.9062 16.001 27.9062 16.001C26.2453 17.5026 22.8648 16.6768 22.8648 16.6768C29.7434 16.1974 29.5965 13.004 29.5965 13.004C27.0325 15.6592 22.5246 15.718 22.5246 15.718C29.6707 14.0973 32.0398 6.93422 32.0398 6.93422Z" fill="#0E1B2A"/>
</svg>
</svg>
