<svg width="96" height="96" viewBox="0 0 96 96" fill="none" xmlns="http://www.w3.org/2000/svg">
<rect width="96" height="96" fill="white"/>
<g clip-path="url(#clip0_6204_30)">
<path d="M54.3472 31.9718C54.9236 31.9683 55.4949 32.0795 56.028 32.299C56.561 32.5184 57.0451 32.8416 57.452 33.2499L59.9824 35.7803L57.4365 33.2499C57.0314 32.8435 56.5498 32.5213 56.0196 32.3019C55.4894 32.0826 54.921 31.9704 54.3472 31.9718Z" fill="url(#paint0_linear_6204_30)"/>
<path d="M29.7102 35.0193C30.3777 34.3514 31.1703 33.8215 32.0427 33.46C32.915 33.0985 33.8501 32.9124 34.7944 32.9124C35.7387 32.9124 36.6737 33.0985 37.5461 33.46C38.4185 33.8215 39.211 34.3514 39.8785 35.0193L41.995 37.1358L48.572 30.5587C50.1066 29.0287 52.1851 28.1695 54.3521 28.1695C56.5191 28.1695 58.5977 29.0287 60.1323 30.5587L62.6627 33.0892L68.981 26.7554L55.2008 12.9751C53.2828 11.0672 50.6875 9.99609 47.9821 9.99609C45.2767 9.99609 42.6814 11.0672 40.7634 12.9751L12.3026 41.436C10.6978 43.0527 9.67793 45.1584 9.40426 47.4199C9.13059 49.6814 9.61878 51.9696 10.7916 53.9225L10.8795 53.8345L29.7102 35.0193Z" fill="url(#paint1_linear_6204_30)"/>
<path d="M66.8544 59.7804C65.5057 61.1281 63.677 61.8852 61.7703 61.8852C59.8636 61.8852 58.0349 61.1281 56.6861 59.7804L54.1816 57.2759L45.9021 65.5554C44.3675 67.0854 42.2889 67.9446 40.1219 67.9446C37.9549 67.9446 35.8764 67.0854 34.3418 65.5554L32.2047 63.4182L26.0312 69.5813L38.6989 82.2489C40.6169 84.1569 43.2122 85.228 45.9176 85.228C48.623 85.228 51.2183 84.1569 53.1363 82.2489L81.5971 53.7881C83.0051 52.372 83.9683 50.5751 84.3683 48.6186C84.7682 46.6622 84.5874 44.6314 83.8481 42.7764L82.927 43.6975L66.8544 59.7804Z" fill="url(#paint2_linear_6204_30)"/>
<path d="M43.1903 62.8751C42.7782 63.288 42.2872 63.6136 41.7465 63.8324C40.9511 64.1539 40.0788 64.2345 39.2379 64.0643C38.397 63.8941 37.6247 63.4806 37.0169 62.8751L34.8797 60.738L32.4114 58.2696C31.5933 57.4507 31.1337 56.3405 31.1337 55.1829C31.1337 54.0254 31.5933 52.9152 32.4114 52.0962L44.6599 39.827L51.2628 33.25C51.8766 32.6353 52.6608 32.2189 53.5138 32.0547C53.7884 32.0024 54.0674 31.9764 54.3469 31.977C54.9233 31.9736 55.4947 32.0848 56.0277 32.3042C56.5607 32.5236 57.0448 32.8469 57.4517 33.2552L59.9821 35.7856L62.6782 33.0896L60.1477 30.5592C58.6132 29.0291 56.5346 28.1699 54.3676 28.1699C52.2006 28.1699 50.122 29.0291 48.5875 30.5592L41.9897 37.131L29.7206 49.4002C29.137 49.9816 28.645 50.6481 28.2613 51.377C28.1371 51.615 28.025 51.8565 27.9249 52.1014C27.3187 53.5904 27.1652 55.2252 27.4837 56.801C27.8022 58.3769 28.5785 59.8237 29.7154 60.9605L32.1837 63.4288L34.3208 65.566C35.8554 67.096 37.934 67.9552 40.101 67.9552C42.268 67.9552 44.3466 67.096 45.8811 65.566L54.1606 57.2865L51.4646 54.5904L43.1903 62.8751Z" fill="white"/>
<path d="M82.9216 43.7135L83.8427 42.7924C83.499 41.935 83.0393 41.1289 82.4766 40.3965C82.6784 41.4935 82.8284 42.6009 82.9216 43.7135Z" fill="#2C256C"/>
<path d="M10.9 53.8301L10.812 53.9181C10.8689 54.0112 10.9207 54.1095 10.9828 54.2027C10.9517 54.0785 10.9207 53.9491 10.9 53.8301Z" fill="#5B2D82"/>
<path d="M51.3871 44.3341L59.9409 35.7803L57.4364 33.2499C57.0294 32.8416 56.5454 32.5184 56.0123 32.299C55.4793 32.0795 54.908 31.9683 54.3316 31.9718C54.052 31.9712 53.773 31.9971 53.4984 32.0494C52.6454 32.2137 51.8613 32.6301 51.2474 33.2447L44.66 39.8269L45.1309 40.2978C45.7989 40.9653 46.3288 41.7579 46.6903 42.6303C47.0518 43.5026 47.2379 44.4377 47.2379 45.382C47.2379 46.3263 47.0518 47.2613 46.6903 48.1337C46.3288 49.006 45.7989 49.7986 45.1309 50.4661L34.8799 60.7379L37.017 62.875C37.836 63.6931 38.9462 64.1527 40.1037 64.1527C41.2613 64.1527 42.3715 63.6931 43.1904 62.875L51.4699 54.5955L51.3923 54.5179C50.7217 53.8505 50.1895 53.0572 49.8261 52.1836C49.4628 51.31 49.2755 50.3732 49.275 49.4271C49.2746 48.4809 49.4609 47.544 49.8233 46.67C50.1858 45.796 50.7172 45.0022 51.3871 44.3341Z" fill="url(#paint3_linear_6204_30)"/>
<path d="M51.3871 44.3341L59.9409 35.7803L57.4364 33.2499C57.0294 32.8416 56.5454 32.5184 56.0123 32.299C55.4793 32.0795 54.908 31.9683 54.3316 31.9718C54.052 31.9712 53.773 31.9971 53.4984 32.0494C52.6454 32.2137 51.8613 32.6301 51.2474 33.2447L44.66 39.8269L45.1309 40.2978C45.7989 40.9653 46.3288 41.7579 46.6903 42.6303C47.0518 43.5026 47.2379 44.4377 47.2379 45.382C47.2379 46.3263 47.0518 47.2613 46.6903 48.1337C46.3288 49.006 45.7989 49.7986 45.1309 50.4661L34.8799 60.7379L37.017 62.875C37.836 63.6931 38.9462 64.1527 40.1037 64.1527C41.2613 64.1527 42.3715 63.6931 43.1904 62.875L51.4699 54.5955L51.3923 54.5179C50.7217 53.8505 50.1895 53.0572 49.8261 52.1836C49.4628 51.31 49.2755 50.3732 49.275 49.4271C49.2746 48.4809 49.4609 47.544 49.8233 46.67C50.1858 45.796 50.7172 45.0022 51.3871 44.3341Z" fill="url(#paint4_linear_6204_30)"/>
<path d="M12.3179 55.8685C11.814 55.3635 11.3648 54.8067 10.9777 54.2075C10.9156 54.1143 10.8639 54.016 10.8069 53.9229L8.10057 56.6292C7.43262 57.2967 6.90275 58.0893 6.54124 58.9616C6.17972 59.834 5.99365 60.769 5.99365 61.7133C5.99365 62.6576 6.17972 63.5927 6.54124 64.4651C6.90275 65.3374 7.43262 66.13 8.10057 66.7975L13.3788 72.0757C14.7275 73.4234 16.5562 74.1804 18.4629 74.1804C20.3696 74.1804 22.1983 73.4234 23.547 72.0757L25.2288 70.3939L25.8291 69.7936L26.0309 69.5918L12.3179 55.8685Z" fill="#2C256C"/>
<path d="M29.7208 60.9659C28.5839 59.8292 27.8076 58.3823 27.4891 56.8065C27.1706 55.2306 27.3241 53.5959 27.9303 52.1068C28.0304 51.8619 28.1425 51.6204 28.2667 51.3824C28.6504 50.6535 29.1424 49.987 29.7259 49.4057L41.9951 37.1365L39.8787 35.02C39.2112 34.3521 38.4186 33.8222 37.5462 33.4607C36.6739 33.0992 35.7388 32.9131 34.7945 32.9131C33.8502 32.9131 32.9152 33.0992 32.0428 33.4607C31.1705 33.8222 30.3779 34.3521 29.7104 35.02L10.9004 53.83C10.9004 53.9542 10.9573 54.0784 10.978 54.2026C11.3651 54.8019 11.8143 55.3587 12.3183 55.8637L26.0312 69.5818L32.1839 63.4291L29.7208 60.9659Z" fill="#5B2D82"/>
<path d="M34.8798 60.7381L45.1774 50.4663C45.8454 49.7988 46.3752 49.0063 46.7367 48.1339C47.0983 47.2615 47.2843 46.3265 47.2843 45.3822C47.2843 44.4379 47.0983 43.5028 46.7367 42.6305C46.3752 41.7581 45.8454 40.9655 45.1774 40.298L44.7065 39.8271L32.4373 52.0964C31.6192 52.9153 31.1597 54.0255 31.1597 55.1831C31.1597 56.3406 31.6192 57.4508 32.4373 58.2698L34.8798 60.7381Z" fill="#5B2D82"/>
<path d="M59.9668 35.7803L51.3872 44.334C50.7192 45.0015 50.1894 45.7941 49.8279 46.6665C49.4663 47.5388 49.2803 48.4739 49.2803 49.4182C49.2803 50.3625 49.4663 51.2975 49.8279 52.1699C50.1894 53.0422 50.7192 53.8348 51.3872 54.5023L51.4648 54.5799L62.016 44.0287C62.6307 43.4149 63.0471 42.6308 63.2114 41.7777C63.2636 41.5031 63.2896 41.2241 63.289 40.9446C63.2922 40.3682 63.1808 39.797 62.9614 39.264C62.742 38.731 62.4189 38.2469 62.0108 37.8398L59.9668 35.7803Z" fill="#2C256C"/>
<path d="M66.5284 44.0188C66.6284 43.7739 66.7164 43.5237 66.7923 43.2685C67.2092 41.8557 67.2369 40.3566 66.8726 38.9294C66.5083 37.5022 65.7654 36.1998 64.7224 35.1597L62.6525 33.0898L59.9565 35.7859L62.0264 37.8557C62.4344 38.2628 62.7575 38.7469 62.977 39.2799C63.1964 39.8129 63.3077 40.3842 63.3045 40.9605C63.3051 41.2401 63.2791 41.5191 63.2269 41.7937C63.0626 42.6467 62.6462 43.4308 62.0316 44.0447L51.4907 54.5803L54.1867 57.2764L64.7328 46.7045C65.5048 45.9383 66.1154 45.0251 66.5284 44.0188Z" fill="#623393"/>
<path d="M88.4587 28.0074L83.1805 22.7292C81.9183 21.467 80.2315 20.7196 78.4486 20.6326C76.6656 20.5455 74.9141 21.1251 73.5349 22.2583C73.3538 22.4032 73.183 22.5637 73.0174 22.7292L69.6125 26.1342L69.0122 26.7344L81.6178 39.34C82.5816 40.3263 83.3459 41.4895 83.8687 42.7657L88.4846 38.1498C89.821 36.7987 90.5684 34.9737 90.5635 33.0733C90.5587 31.1729 89.802 29.3517 88.4587 28.0074Z" fill="#623393"/>
<path d="M64.7324 35.1596C65.7754 36.1996 66.5183 37.502 66.8826 38.9292C67.2469 40.3564 67.2191 41.8555 66.8022 43.2683C66.7263 43.5201 66.6384 43.7702 66.5383 44.0186C66.1273 45.0305 65.5166 45.9492 64.7427 46.7198L54.1812 57.271L56.6857 59.7756C58.0345 61.1233 59.8631 61.8803 61.7698 61.8803C63.6765 61.8803 65.5052 61.1233 66.854 59.7756L82.8955 43.734C82.8024 42.6215 82.6523 41.5141 82.4557 40.417C82.1842 40.0527 81.8886 39.7069 81.5708 39.3821L68.9808 26.7559L62.6521 33.0845L64.7324 35.1596Z" fill="#2C256C"/>
</g>
<defs>
<linearGradient id="paint0_linear_6204_30" x1="23.7433" y1="67.2929" x2="66.6313" y2="24.4051" gradientUnits="userSpaceOnUse">
<stop stop-color="#623393"/>
<stop offset="0.6" stop-color="#432B7D"/>
<stop offset="1" stop-color="#2C256C"/>
</linearGradient>
<linearGradient id="paint1_linear_6204_30" x1="15.598" y1="59.1474" x2="58.4859" y2="16.2596" gradientUnits="userSpaceOnUse">
<stop stop-color="#754FA0"/>
<stop offset="0.21" stop-color="#6D4B9B"/>
<stop offset="0.52" stop-color="#583E8B"/>
<stop offset="0.9" stop-color="#362B73"/>
<stop offset="1" stop-color="#2C256C"/>
</linearGradient>
<linearGradient id="paint2_linear_6204_30" x1="35.9792" y1="79.5286" x2="78.8671" y2="36.6407" gradientUnits="userSpaceOnUse">
<stop stop-color="#754FA0"/>
<stop offset="0.21" stop-color="#6D4B9B"/>
<stop offset="0.52" stop-color="#583E8B"/>
<stop offset="0.9" stop-color="#362B73"/>
<stop offset="1" stop-color="#2C256C"/>
</linearGradient>
<linearGradient id="paint3_linear_6204_30" x1="25.8691" y1="69.4187" x2="68.757" y2="26.5309" gradientUnits="userSpaceOnUse">
<stop stop-color="#623393"/>
<stop offset="0.6" stop-color="#432B7D"/>
<stop offset="1" stop-color="#2C256C"/>
</linearGradient>
<linearGradient id="paint4_linear_6204_30" x1="21.8003" y1="73.4876" x2="73.3088" y2="21.979" gradientUnits="userSpaceOnUse">
<stop stop-color="#754FA0"/>
<stop offset="0.21" stop-color="#6D4B9B"/>
<stop offset="0.52" stop-color="#583E8B"/>
<stop offset="0.9" stop-color="#362B73"/>
<stop offset="1" stop-color="#2C256C"/>
</linearGradient>
<clipPath id="clip0_6204_30">
<rect width="84.57" height="75.2297" fill="white" transform="translate(6 10)"/>
</clipPath>
</defs>
</svg>
