<svg width="96" height="96" viewBox="0 0 96 96" fill="none" xmlns="http://www.w3.org/2000/svg">
<rect width="96" height="96" fill="white"/>
<path fill-rule="evenodd" clip-rule="evenodd" d="M49.2555 4L50.5124 4.07249C53.655 4.21251 56.7705 4.71941 59.7954 5.58286C66.8412 7.59124 72.8939 10.9759 78.2649 15.9801C85.6351 22.8472 90.339 32.4247 91.6363 42.3734L91.8991 44.6944V45.5648L91.9955 46.5319C92.0649 52.456 91.3327 57.6721 89.2834 63.2627C84.8941 75.2362 75.2487 84.8826 63.2765 89.2724C57.6869 91.3221 52.4711 92.0543 46.548 91.9854L45.4841 91.8926C41.5605 91.7217 37.7029 90.939 33.9773 89.6968C29.4157 88.1766 25.1359 85.915 21.3098 83.0029C17.8589 80.3697 14.7871 77.2419 12.2615 73.7075C2.40185 59.9097 1.28737 41.8069 9.34894 26.8998C14.8175 16.788 24.0939 9.31912 35.0409 5.91613C37.1958 5.24628 39.6694 4.688 41.9065 4.39368L44.7105 4.08494L45.9678 4.00018H49.2555V4Z" fill="url(#paint0_linear_6240_17)"/>
<path fill-rule="evenodd" clip-rule="evenodd" d="M20.2682 21.8314C20.6383 21.8378 21.3185 21.9965 21.5916 22.2514C21.9106 22.5492 21.8321 23.0302 21.423 23.2139C20.9058 23.4031 20.0648 22.9674 19.2045 23.2139C18.9663 23.3065 18.2816 23.6181 18.3887 23.9459C18.4935 24.2671 19.0265 24.3051 19.3012 24.3156C20.0339 24.3433 21.0159 24.4312 21.6155 24.8773C22.5791 25.5896 22.5296 27.1741 21.6155 27.902C20.7124 28.6172 19.527 28.6811 18.4309 28.6682C17.7382 28.66 16.9831 28.4674 16.5385 27.8908C16.2684 27.5403 16.1587 26.8061 16.6077 26.5431C16.8521 26.4 17.1953 26.4443 17.4144 26.612C17.6412 26.7858 17.7452 27.0755 18.1422 27.2467C18.7099 27.4915 19.7208 27.2792 20.2681 27.0363C20.5166 26.926 20.8837 26.7481 20.9154 26.4403C20.9813 25.7995 20.0936 25.7914 19.688 25.7508C18.5043 25.6324 16.7894 25.6106 16.9982 23.9295C17.0265 23.6907 17.1038 23.4602 17.2252 23.2526C17.4062 22.9382 17.6526 22.6664 17.9478 22.4556C18.3803 22.1306 18.6879 21.991 19.2045 21.8312C19.5579 21.7906 19.9148 21.7906 20.2682 21.8314ZM26.9939 25.0025C27.0958 25.3791 26.8051 26.1762 26.8848 26.831C26.9904 27.7004 27.2854 28.3828 27.3024 28.5715C27.3287 28.8633 27.2363 29.1243 26.9298 29.2054C26.5643 29.3022 26.3101 29.0544 25.9731 29.0483C25.6134 29.0417 24.2183 29.6903 23.2756 28.7549C22.6531 28.1374 22.676 27.5406 22.6858 26.7343C22.7007 25.5004 23.5268 24.5486 24.7162 24.2649C25.3758 24.1728 26.7733 24.1879 26.9939 25.0025ZM29.244 32.2054C29.0373 32.5058 28.4205 32.5058 28.214 32.2054C28.0777 32.0071 28.1009 31.6134 28.1005 31.3766V29.2488L28.004 27.7981V26.0574C28.0082 25.7519 28.0104 25.4528 28.2386 25.2173C28.6145 24.8295 29.1841 24.9346 29.3574 25.47C29.9897 25.1552 30.9523 25.0004 31.5637 25.47C32.6171 26.2593 32.623 28.7022 31.7545 29.6257C31.0838 30.3386 30.24 30.2159 29.3574 30.2159C29.3576 30.6044 29.4269 31.9392 29.244 32.2052V32.2054ZM25.5862 26.0576C25.5854 25.9174 25.5944 25.6421 25.5311 25.5202C25.3273 25.1289 24.6838 25.5171 24.4771 25.7219C23.8199 26.3731 23.6544 28.3273 25.0063 28.0946C25.2841 28.0468 25.4483 27.9388 25.6832 27.7982C25.5425 27.2202 25.5897 26.6479 25.5862 26.0574V26.0576ZM29.3577 28.0885C29.3608 28.542 29.3226 28.794 29.8429 28.8804C30.8398 29.0458 31.143 28.2527 31.0407 27.4115C30.984 26.9432 31.004 26.6884 30.5138 26.5284C29.3684 26.5452 29.3515 27.1757 29.3576 28.0882L29.3577 28.0885ZM21.6632 35.0516C21.5593 35.42 21.4269 36.3348 21.2493 36.5849C20.9799 36.9643 20.303 37.0739 20.27 36.2121C20.2339 35.2662 20.9183 33.3471 21.1382 32.247C21.2454 31.7113 21.3679 30.6763 22.0099 30.5384C22.5381 30.4249 22.7481 30.8508 22.8556 31.2799C23.1037 32.2698 23.1599 33.4436 23.5556 34.3746C23.6434 33.8068 23.8668 33.2773 24.0367 32.7306L24.2833 31.8602C24.4095 31.3555 24.5249 30.3648 25.2873 30.5384C25.7779 30.6501 25.8822 31.3469 25.9466 31.7635L26.4009 34.4714L26.8263 36.2121C26.9058 37.1079 26.2193 37.0726 25.944 36.762C25.7275 36.5178 25.4969 35.4287 25.3939 35.0516L25.0061 33.4075C24.9259 33.9266 24.4009 35.5023 24.1887 36.0187C24.063 36.3248 23.9081 36.6809 23.5519 36.7602C23.0767 36.8661 22.8866 36.4949 22.7577 36.1154C22.5313 35.4484 22.3075 34.2424 22.0085 33.6976C21.9556 34.2849 21.8155 34.5109 21.6631 35.0514L21.6632 35.0516ZM37.5769 33.4847C37.8033 33.4138 38.1135 33.3979 38.3505 33.4112C39.5416 33.4793 39.5091 34.8309 39.5108 35.728L39.6037 36.9852C39.6204 37.4384 39.5423 37.9586 38.9347 37.8234C38.333 37.6896 38.3766 36.6948 38.3421 36.2115L38.29 35.5345C38.3022 35.281 38.4181 34.839 38.1679 34.6545C37.9003 34.4574 37.4955 34.8654 37.3456 35.0552C37.0914 35.3771 36.929 35.7034 36.9042 36.1148C36.8835 36.4593 36.957 37.0697 36.7865 37.358C36.5695 37.725 36.0341 37.7317 35.8386 37.4384C35.7196 37.26 35.7401 36.9066 35.7397 36.6951L35.7954 32.73C35.8343 32.4355 35.8061 31.6964 35.9353 31.5031C36.131 31.2101 36.6418 31.224 36.8287 31.6717C36.9474 31.9557 36.9001 33.4806 36.9001 33.8904C37.1358 33.7031 37.2809 33.5775 37.5769 33.4847ZM41.2767 31.4476C41.4936 31.6661 41.5072 32.2314 40.9572 32.3201C40.2787 32.4296 39.9215 31.7685 40.4996 31.3508C40.7539 31.2866 41.0673 31.2368 41.2767 31.4477V31.4476ZM48.3101 34.8668L49.2771 34.5899C49.521 34.5631 49.7585 34.5991 49.8251 34.8719C50.0658 35.8534 48.5504 36.0253 47.9233 36.018C47.2453 36.01 46.5774 35.8274 46.1685 35.2409C45.5553 34.3602 45.8667 32.3218 47.1497 31.7849C47.8351 31.4982 49.5311 31.5686 49.651 32.6336C49.6722 32.8219 49.6529 33.0418 49.5651 33.2124C49.2688 33.7904 47.7777 34.4202 47.1497 34.5675V34.7609C47.5319 34.8306 47.9206 34.9242 48.3101 34.8669V34.8668ZM42.9616 36.2064C42.8775 36.5136 42.6202 36.6327 42.3168 36.5666C41.7931 36.4524 41.8324 35.954 41.8359 35.5349V33.8909L41.9246 33.1172C41.941 32.7435 41.8364 32.1969 42.3203 32.0855C42.7711 31.9817 42.9108 32.2653 42.992 32.6336C43.3697 32.3278 43.5547 32.1803 44.0556 32.1542C45.3766 32.0853 45.4078 32.9549 45.4092 33.9876L45.5061 35.5349C45.5075 35.9049 45.5851 36.459 45.1138 36.5666C44.3257 36.7465 44.3466 35.7418 44.3455 35.2448V34.0843C44.3405 33.6767 44.3193 33.606 44.2491 33.2139C42.7389 34.0891 43.1495 35.5206 42.9616 36.2064ZM47.0533 33.6007C47.5696 33.4204 48.1117 33.2184 48.5035 32.827C47.7373 32.733 47.3344 32.7788 47.0533 33.6007ZM41.1395 33.3161V36.4053C41.1517 36.8498 41.1031 37.3851 40.4833 37.2435C40.0346 37.141 40.0917 36.6656 40.091 36.3086V33.8909C40.0918 33.4949 40.034 33.3236 40.3148 33.0226C40.6586 32.8967 41.0079 32.8902 41.1395 33.3161ZM30.8295 33.6187C30.989 33.9724 30.8519 34.4888 30.8295 34.858C30.7703 35.6381 31.1543 36.536 31.1692 36.7919C31.1849 37.0613 31.0876 37.2813 30.8025 37.3371C30.5054 37.3953 30.2714 37.188 29.9377 37.2092C29.5825 37.2318 28.432 37.7128 27.6374 36.9531C26.8086 36.1607 26.7607 33.7004 28.7774 33.072C29.3679 32.9745 30.5441 32.961 30.8295 33.6187ZM34.8475 33.8876C35.1074 34.092 35.2728 34.5325 35.0048 34.8C34.6426 35.1615 34.109 34.6607 33.709 34.6754C33.1085 34.6975 32.4457 35.7531 32.7083 36.313C33.2195 37.4019 34.515 36.2646 35.0324 36.6012C35.548 36.9366 35.0206 37.4953 34.6755 37.6796C34.3793 37.845 34.048 37.9373 33.709 37.9489C33.0498 37.9799 32.392 37.8442 31.9227 37.3408C30.8964 36.2402 31.7237 34.116 33.0321 33.5668C33.6251 33.444 34.3532 33.499 34.8475 33.8876ZM29.744 34.7617C29.7308 33.9839 29.2056 34.0146 28.691 34.4296C27.957 35.0214 28.132 36.378 29.1642 36.2341C29.3735 36.2049 29.6416 36.0952 29.841 36.0186C29.7079 35.471 29.7531 35.2996 29.744 34.7617Z" fill="#2C7491"/>
<path fill-rule="evenodd" clip-rule="evenodd" d="M22.6069 61.289C19.3592 68.3818 14.3986 68.9417 16.3609 64.9461C17.6213 62.3134 19.9591 60.5145 20.1567 60.4231C22.3666 59.6156 20.6121 58.9876 20.2929 58.8158C15.8805 57.3917 12.8137 50.9251 16.8633 52.8894C19.3898 54.093 20.6934 54.9552 21.7527 56.7298C22.8881 58.842 22.9719 57.1786 23.3921 56.5318C23.6383 55.5657 25.883 52.9312 26.9618 52.3262C31.2293 50.0358 29.2938 53.1669 29.2938 53.1669C28.537 54.2496 25.9645 57.8327 22.6069 61.289Z" fill="url(#paint1_linear_6240_17)"/>
<path fill-rule="evenodd" clip-rule="evenodd" d="M68.3049 43.7273C77.8056 48.1034 79.2802 58.7172 79.232 61.4252C79.4254 77.4789 61.8746 80.6224 53.0753 80.2351C35.7661 78.8814 26.9667 73.9973 23.534 65.7773C19.7625 62.2957 21.2132 60.3613 21.2132 60.3613C21.2132 60.3613 22.7252 60.4757 23.0507 60.2648C22.8661 59.5174 22.9277 57.9436 23.165 57.3722C23.2529 57.0557 23.4287 56.871 23.7803 56.6951C25.3187 56.0974 28.1757 55.2683 31.7535 54.8488C32.3639 54.6192 33.3613 53.8277 33.4941 53.5915C38.4899 46.7253 46.3634 44.8001 46.3547 44.7911C46.4603 43.6042 47.8141 42.6107 47.8049 42.6283C47.7962 41.7491 49.8886 37.5643 55.154 37.7314C57.7329 37.8279 64.5045 38.5387 64.6303 38.6018C64.6515 38.7111 64.9207 41.0196 64.9207 41.0196L65.4039 41.9866C65.4039 41.9866 68.8612 42.0107 68.3049 43.7273Z" fill="url(#paint2_linear_6240_17)"/>
<path fill-rule="evenodd" clip-rule="evenodd" d="M60.6659 45.5636C70.9802 44.9512 72.7529 48.9806 72.9463 50.2057C73.0432 51.7529 70.948 51.7855 70.2066 50.7859C68.4982 47.9814 61.5038 46.1439 60.6659 45.5636ZM68.3048 43.7261C67.2776 43.0492 61.3912 43.5811 57.8614 42.7953C60.9075 42.5173 65.4039 41.9854 65.4039 41.9854C65.4039 41.9854 68.8611 42.0096 68.3048 43.7261ZM23.0328 60.271C22.9477 60.345 22.4994 60.3978 22.1182 60.3937C22.7482 63.449 31.7525 63.7113 33.3144 63.3438C37.7244 62.5169 39.1944 65.6406 39.1944 65.6406C39.1944 65.6406 38 61.9657 35.9788 61.9657C34.7844 62.0575 22.7251 62.0217 23.0504 60.2637C23.0449 60.266 23.039 60.2687 23.0328 60.271Z" fill="url(#paint3_linear_6240_17)"/>
<path fill-rule="evenodd" clip-rule="evenodd" d="M46.3547 44.7902C46.4975 43.5666 47.8173 42.6263 47.8141 42.6274C49.3764 41.6592 53.051 40.7042 54.3161 40.5672C60.5208 40.4382 64.9207 41.0306 64.9207 41.0306C64.9207 41.0306 65.4104 41.9917 65.4039 41.9917C65.3975 41.9917 47.9262 43.8473 47.9262 43.8473C47.9262 43.8473 46.481 43.9366 46.3547 44.7902ZM40.4807 68.1215C41.0125 68.7499 41.513 69.7146 41.3076 70.2346C36.9562 70.6214 28.514 68.9194 23.534 65.7764C19.7625 62.2948 21.2132 60.3604 21.2132 60.3604C22.7846 67.1302 35.259 67.7829 40.4807 68.1215ZM76.2107 71.5466C70.8356 78.8818 59.5708 80.52 53.0753 80.2342C35.7661 78.8805 26.9667 73.9964 23.534 65.7764C38.4255 75.2055 57.0397 80.9596 76.2107 71.5466Z" fill="url(#paint4_linear_6240_17)"/>
<path fill-rule="evenodd" clip-rule="evenodd" d="M54.3086 40.5832C54.683 39.326 54.6467 39.4952 55.1543 37.7305C57.7332 37.8269 64.5048 38.5378 64.6307 38.6008C64.6518 38.7102 64.921 41.0186 64.921 41.0186C64.921 41.0186 58.0796 40.3414 54.3086 40.5832Z" fill="#FFE698"/>
<path fill-rule="evenodd" clip-rule="evenodd" d="M53.3811 37.8922C55.5328 34.6041 48.198 26.3193 58.7636 20.2555C61.6117 18.6018 65.2867 17.3156 66.5729 17.8668C70.4316 19.7043 69.8464 34.6003 58.7636 29.8105C55.2723 27.973 56.5531 36.1501 56.8944 37.8922C56.6289 37.6746 53.8768 37.6625 53.3811 37.8922Z" fill="url(#paint5_linear_6240_17)"/>
<path fill-rule="evenodd" clip-rule="evenodd" d="M65.8379 19.245C60.5092 17.9588 59.2229 30.3618 63.4492 29.3512C68.1348 28.7081 68.2266 19.8882 65.8379 19.245Z" fill="url(#paint6_linear_6240_17)"/>
<path fill-rule="evenodd" clip-rule="evenodd" d="M65.4234 19.9951C67.4299 22.437 66.8433 25.3141 66.0215 26.5956C64.7886 28.1913 64.4789 27.7658 65.0109 26.8712C65.8571 25.2513 67.2848 24.7339 65.4234 19.9951Z" fill="#83DCF3"/>
<path opacity="0.8" fill-rule="evenodd" clip-rule="evenodd" d="M36.9298 55.8158C37.3532 56.9041 37.2664 59.2138 35.9112 59.6208C35.0971 59.8656 34.5124 59.104 34.277 58.4269C33.8601 57.2275 34.0085 55.2728 35.331 54.7184C36.1624 54.5668 36.6454 55.084 36.9298 55.8158ZM44.1055 56.396C45.1184 58.4756 44.6301 62.4487 42.0031 63.0188C40.4867 63.3481 39.4088 62.2066 38.8422 60.941C37.8846 58.8026 38.4977 55.2108 41.0362 54.5116C42.5182 54.2769 43.4861 55.124 44.1056 56.396H44.1055ZM54.3913 57.1696C55.4409 59.403 55.4437 62.462 54.1855 64.616C53.4064 65.9496 52.1279 66.9988 50.5123 66.9335C48.5802 66.8554 47.2641 65.2421 46.6499 63.5526C45.4997 60.3879 46.3155 55.3528 50.1255 54.5066C52.0546 54.2397 53.6013 55.4883 54.3915 57.1696H54.3913ZM61.665 54.0105C64.1309 53.8171 73.2205 54.0105 74.6225 54.3003C76.8059 54.8373 78.2304 56.9477 77.9892 58.8986C75.6202 75.5325 59.9685 73.0533 57.753 60.1821C57.6479 59.2152 56.7687 54.5378 61.6652 54.0105H61.665Z" fill="#959595"/>
<path fill-rule="evenodd" clip-rule="evenodd" d="M64.8851 56.7656C61.1403 58.7524 59.2766 63.9217 59.2417 64.6604C62.4238 63.5878 66.362 64.467 67.1006 65.0472C67.3643 65.2406 67.47 65.9793 67.5049 66.1552C67.8917 66.1552 68.1025 65.2231 68.1025 65.2231C68.1025 65.2231 69.5872 63.4518 69.6851 63.4118C69.9612 63.4853 70.777 63.4518 70.8983 63.4118C71.6893 63.9309 72.0586 63.1307 71.6016 63.025C72.3572 62.9901 72.0407 62.2073 71.7596 62.0934C72.1905 61.7415 71.9792 61.5128 71.7068 61.3897C71.7068 61.3897 70.7136 61.3989 70.6961 61.2845C70.7136 60.3262 71.0563 59.6316 69.6148 60.0184C69.6148 60.0184 69.9575 61.5656 69.8959 61.6451C69.5532 61.6713 69.3686 62.7439 69.4476 63.28C69.4476 63.28 68.1113 64.9507 68.0148 65.0035C67.9532 64.7394 67.4259 64.7481 67.074 64.7661C67.1443 64.4054 65.2195 57.0996 64.8851 56.7656Z" fill="black"/>
<path fill-rule="evenodd" clip-rule="evenodd" d="M59.7282 65.5043C59.5541 65.2269 59.3938 64.949 59.2417 64.6609C62.4238 63.5883 66.362 64.4675 67.1006 65.0477C67.3041 65.2081 67.3818 65.6881 67.5049 66.1557C68.1485 68.6005 68.2523 70.0806 67.7672 70.4196C67.5306 70.585 67.2412 70.5616 66.7566 70.4656C65.8245 70.2804 64.8098 69.9722 64.4138 69.7765C63.2929 69.2225 62.3879 68.5785 61.6575 67.8931C60.9887 67.2651 60.3479 66.4915 59.7282 65.5043Z" fill="white"/>
<path fill-rule="evenodd" clip-rule="evenodd" d="M64.7927 62.6916C65.7772 63.7941 65.361 65.7606 63.3737 66.1194C62.6305 66.2535 61.7287 66.0624 61.1586 65.5525C60.9374 65.3554 60.7619 65.1121 60.6447 64.8399C60.5274 64.5678 60.4712 64.2732 60.4799 63.9769C60.4886 63.6807 60.5621 63.3899 60.6951 63.1251C60.8282 62.8603 61.0176 62.6278 61.25 62.444C61.6203 62.1477 61.957 62.054 62.4068 61.9538C63.2685 61.8348 64.19 62.0172 64.7927 62.6916Z" fill="url(#paint7_linear_6240_17)"/>
<path fill-rule="evenodd" clip-rule="evenodd" d="M62.9113 63.6482C62.3752 63.8421 61.7992 63.1889 62.4157 62.7658C63.1649 62.5724 63.4424 63.4562 62.9113 63.6482Z" fill="white"/>
<path opacity="0.73" fill-rule="evenodd" clip-rule="evenodd" d="M36.9298 55.8158C37.3532 56.9041 37.2664 59.2138 35.9112 59.6208C35.0971 59.8656 34.5124 59.104 34.277 58.4269C33.8601 57.2275 34.0085 55.2728 35.331 54.7184C36.1624 54.5668 36.6454 55.084 36.9298 55.8158ZM44.1055 56.396C45.1184 58.4756 44.6301 62.4487 42.0031 63.0188C40.4867 63.3481 39.4088 62.2066 38.8422 60.941C37.8846 58.8026 38.4977 55.2108 41.0362 54.5116C42.5182 54.2769 43.4861 55.124 44.1056 56.396H44.1055ZM54.3913 57.1696C55.4409 59.403 55.4437 62.462 54.1855 64.616C53.4064 65.9496 52.1279 66.9988 50.5123 66.9335C48.5802 66.8554 47.2641 65.2421 46.6499 63.5526C45.4997 60.3879 46.3155 55.3528 50.1255 54.5066C52.0546 54.2397 53.6013 55.4883 54.3915 57.1696H54.3913ZM61.665 54.0105C64.1309 53.8171 73.2205 54.0105 74.6225 54.3003C76.8059 54.8373 78.2304 56.9477 77.9892 58.8986C75.6202 75.5325 59.9685 73.0533 57.753 60.1821C57.6479 59.2152 56.7687 54.5378 61.6652 54.0105H61.665Z" fill="url(#paint8_linear_6240_17)"/>
<path fill-rule="evenodd" clip-rule="evenodd" d="M35.0085 55.2354C34.3639 56.4605 34.3316 57.7821 34.7829 58.6205C35.073 59.2328 35.492 58.6205 35.073 57.9755C34.4605 57.0407 34.8151 56.4927 35.0085 55.2354ZM39.9723 55.6548C38.3285 57.2019 38.9409 60.6835 39.7467 61.4249C40.5848 62.1342 40.5203 61.3928 40.1335 60.8447C39.0054 59.1685 39.3599 56.8151 39.9723 55.6548ZM48.0306 56.7508C48.0306 56.7508 45.0328 60.1355 48.1593 65.0999C48.9328 66.2929 49.4487 64.3263 48.8042 63.6171C45.7742 60.5866 48.0306 56.7508 48.0306 56.7508ZM75.2668 55.4288C75.2668 55.4288 79.6506 59.1685 73.3007 67.4854C72.3659 68.5172 71.6571 67.2599 72.7205 66.099C77.6202 60.1676 75.8796 56.2671 75.2668 55.4288Z" fill="url(#paint9_linear_6240_17)"/>
<path opacity="0.45" fill-rule="evenodd" clip-rule="evenodd" d="M75.3015 39.8241C75.8651 40.0662 76.1798 40.5591 76.3121 40.9725C76.4516 41.3929 76.4353 41.8494 76.2661 42.2588C76.1472 42.5302 75.9636 42.7684 75.7314 42.9526C75.4991 43.1368 75.2254 43.2613 74.934 43.3153C74.1824 43.4554 73.3436 43.1037 72.9587 42.3506C72.7884 42.0158 72.725 41.6369 72.7769 41.2649C72.8288 40.8929 72.9936 40.5458 73.249 40.2703C73.5043 39.9949 73.8381 39.8045 74.2051 39.7247C74.5721 39.6449 74.9548 39.6796 75.3015 39.8241ZM75.8068 37.9866C75.9199 37.9392 76.0157 37.8582 76.0812 37.7545C76.1467 37.6508 76.1788 37.5295 76.173 37.407C76.1673 37.2845 76.124 37.1667 76.0491 37.0697C75.9741 36.9726 75.8711 36.9009 75.7541 36.8643C75.637 36.8277 75.5116 36.828 75.3947 36.8652C75.2778 36.9023 75.1752 36.9745 75.1007 37.0719C75.0262 37.1693 74.9835 37.2873 74.9783 37.4099C74.9731 37.5324 75.0058 37.6535 75.0718 37.7569C75.1488 37.8743 75.2642 37.9613 75.3982 38.0032C75.5322 38.0451 75.6766 38.0392 75.8068 37.9866ZM72.0858 35.5519C72.5089 35.4775 72.8999 35.7941 72.9587 36.195C72.9772 36.3405 72.9526 36.4882 72.888 36.6199C72.8233 36.7515 72.7215 36.8613 72.5951 36.9356C72.4686 37.0099 72.3232 37.0454 72.1767 37.0378C72.0303 37.0302 71.8893 36.9798 71.7712 36.8928C71.6531 36.8058 71.5632 36.686 71.5126 36.5484C71.4619 36.4108 71.4528 36.2613 71.4863 36.1186C71.5198 35.9758 71.5944 35.846 71.701 35.7453C71.8076 35.6445 71.9414 35.5773 72.0858 35.5519ZM21.8764 49.0115C22.1801 48.964 22.4908 48.9937 22.7799 49.0981C23.0689 49.2025 23.327 49.3781 23.5302 49.6087C23.7196 49.826 23.8555 50.0845 23.9273 50.3636C23.9991 50.6428 24.0047 50.9348 23.9436 51.2165C23.8651 51.5955 23.666 51.939 23.3763 52.1956C23.0865 52.4523 22.7216 52.6084 22.3358 52.6406C21.8696 52.6819 21.3442 52.5441 20.9577 52.1812C20.2556 51.522 20.2336 50.3171 20.8199 49.6087C21.0892 49.2896 21.4641 49.0777 21.8764 49.0115ZM20.6361 47.3119C20.276 47.4028 19.8892 47.0817 19.9011 46.7147C19.9082 46.5765 19.9639 46.4452 20.0583 46.3441C20.1528 46.243 20.2799 46.1785 20.4173 46.162C20.5547 46.1455 20.6935 46.1781 20.8092 46.254C20.9249 46.3299 21.01 46.4443 21.0496 46.5769C21.0915 46.7291 21.0716 46.8918 20.9941 47.0294C20.9167 47.1671 20.788 47.2686 20.6361 47.3119ZM23.7599 46.2553C23.3311 46.268 22.9789 45.897 22.9789 45.4744C22.9789 45.0517 23.3311 44.6808 23.7599 44.6934C24.1733 44.7056 24.4949 45.0698 24.4949 45.4744C24.4949 45.8789 24.1733 46.2431 23.7599 46.2553ZM20.2686 42.5344C20.3355 42.2829 20.6662 42.1283 20.9118 42.2588C21.0139 42.315 21.0902 42.4087 21.1245 42.5202C21.1588 42.6316 21.1484 42.752 21.0955 42.8559C20.9683 43.0859 20.6519 43.1276 20.4524 42.9938C20.379 42.9447 20.3221 42.8746 20.2893 42.7926C20.2565 42.7106 20.2493 42.6205 20.2686 42.5344Z" fill="#08A4E4"/>
<path opacity="0.5" fill-rule="evenodd" clip-rule="evenodd" d="M22.8867 49.6554C22.9338 49.703 22.9639 49.7648 22.9722 49.8313C22.9805 49.8978 22.9666 49.9651 22.9327 50.0229C22.8297 50.1901 22.5503 50.2153 22.4274 50.0688C22.3874 50.0159 22.3657 49.9514 22.3657 49.885C22.3657 49.8187 22.3874 49.7542 22.4274 49.7013C22.533 49.5616 22.7589 49.5332 22.8867 49.6554ZM20.6358 46.3938C20.654 46.3938 20.6718 46.3992 20.6869 46.4093C20.702 46.4194 20.7137 46.4337 20.7207 46.4505C20.7277 46.4673 20.7295 46.4858 20.7259 46.5036C20.7224 46.5214 20.7136 46.5378 20.7008 46.5506C20.6879 46.5635 20.6716 46.5722 20.6537 46.5758C20.6359 46.5793 20.6174 46.5775 20.6007 46.5706C20.5839 46.5636 20.5695 46.5518 20.5594 46.5367C20.5493 46.5216 20.5439 46.5039 20.5439 46.4857C20.5441 46.4614 20.5538 46.4381 20.571 46.4209C20.5882 46.4037 20.6115 46.3939 20.6358 46.3938ZM20.8655 42.3973C20.8837 42.4064 20.8987 42.4206 20.9088 42.4383C20.9189 42.4559 20.9235 42.4762 20.922 42.4964C20.9206 42.5167 20.9132 42.5361 20.9007 42.5521C20.8883 42.5682 20.8713 42.5802 20.852 42.5866C20.8328 42.593 20.812 42.5936 20.7924 42.5882C20.7728 42.5828 20.7553 42.5718 20.742 42.5564C20.7287 42.5411 20.7202 42.5221 20.7177 42.502C20.7151 42.4818 20.7186 42.4614 20.7277 42.4432C20.74 42.4189 20.7613 42.4005 20.7872 42.3919C20.813 42.3833 20.8411 42.3852 20.8655 42.3973ZM24.0811 45.0616C24.1068 45.0838 24.1249 45.1133 24.1332 45.1462C24.1414 45.1791 24.1392 45.2138 24.1271 45.2454C24.1139 45.2712 24.0943 45.2932 24.0701 45.3093C24.046 45.3254 24.0181 45.335 23.9892 45.3373C23.9528 45.3432 23.9155 45.3375 23.8825 45.321C23.8495 45.3045 23.8226 45.278 23.8055 45.2454C23.7934 45.2137 23.7913 45.1791 23.7995 45.1463C23.8078 45.1134 23.8259 45.0839 23.8514 45.0616C23.8834 45.0341 23.9241 45.019 23.9663 45.019C24.0084 45.019 24.0492 45.0341 24.0811 45.0616ZM75.3011 40.4679C75.3634 40.4782 75.4217 40.5049 75.4702 40.5453C75.5186 40.5856 75.5554 40.6382 75.5768 40.6976C75.5933 40.7513 75.5978 40.8079 75.5899 40.8635C75.5819 40.9191 75.5618 40.9723 75.5308 41.0192C75.4977 41.0724 75.404 41.1948 75.2552 41.2029C75.1899 41.2046 75.1254 41.1884 75.0687 41.156C75.012 41.1236 74.9653 41.0763 74.9336 41.0192C74.9017 40.9632 74.8849 40.8999 74.8849 40.8354C74.8849 40.771 74.9017 40.7076 74.9336 40.6517C74.9694 40.5877 75.0235 40.5359 75.0891 40.5032C75.1546 40.4704 75.2285 40.4581 75.3011 40.4679ZM75.8524 37.1604C75.8599 37.1853 75.8596 37.212 75.8513 37.2366C75.8431 37.2613 75.8274 37.2828 75.8064 37.2982C75.7862 37.3122 75.7621 37.3196 75.7375 37.3196C75.7129 37.3196 75.6889 37.3122 75.6686 37.2982C75.6478 37.2827 75.6322 37.2612 75.624 37.2366C75.6158 37.2119 75.6153 37.1853 75.6227 37.1604C75.628 37.1381 75.6394 37.1177 75.6556 37.1015C75.6719 37.0853 75.6923 37.0739 75.7146 37.0686C75.7447 37.0649 75.7752 37.0721 75.8005 37.089C75.8258 37.1058 75.8442 37.1312 75.8524 37.1604ZM72.4071 35.7823C72.4488 35.7811 72.4897 35.7941 72.523 35.8191C72.5564 35.8442 72.5803 35.8798 72.5908 35.9201C72.5961 35.9565 72.5901 35.9936 72.5737 36.0264C72.5573 36.0593 72.5312 36.0863 72.499 36.1039C72.471 36.1198 72.4393 36.1282 72.4071 36.1282C72.3749 36.1282 72.3432 36.1198 72.3152 36.1039C72.283 36.0863 72.2569 36.0593 72.2405 36.0264C72.224 35.9936 72.2181 35.9565 72.2233 35.9201C72.2338 35.8797 72.2577 35.8441 72.2911 35.819C72.3245 35.794 72.3654 35.781 72.4071 35.7823Z" fill="white"/>
<defs>
<linearGradient id="paint0_linear_6240_17" x1="4.00501" y1="91.9896" x2="91.9948" y2="3.99977" gradientUnits="userSpaceOnUse">
<stop stop-color="#79DFF2" stop-opacity="0.6"/>
<stop offset="0.5" stop-color="#D5EDF2" stop-opacity="0.702"/>
<stop offset="1" stop-color="#79DFF2" stop-opacity="0.6"/>
</linearGradient>
<linearGradient id="paint1_linear_6240_17" x1="23.7565" y1="67.4281" x2="20.9461" y2="51.4893" gradientUnits="userSpaceOnUse">
<stop stop-color="#937266"/>
<stop offset="1" stop-color="#DBBCB0"/>
</linearGradient>
<linearGradient id="paint2_linear_6240_17" x1="20.9387" y1="58.9959" x2="79.2329" y2="58.9959" gradientUnits="userSpaceOnUse">
<stop stop-color="#FFA92F"/>
<stop offset="0.004" stop-color="#FFA92F"/>
<stop offset="1" stop-color="#FFCC2F"/>
</linearGradient>
<linearGradient id="paint3_linear_6240_17" x1="47.5348" y1="65.6406" x2="47.5348" y2="41.9858" gradientUnits="userSpaceOnUse">
<stop stop-color="#FDDC76"/>
<stop offset="1" stop-color="#FFE699"/>
</linearGradient>
<linearGradient id="paint4_linear_6240_17" x1="20.9387" y1="60.4068" x2="76.2111" y2="60.4068" gradientUnits="userSpaceOnUse">
<stop stop-color="#FF782F"/>
<stop offset="0.001" stop-color="#FF782F"/>
<stop offset="1" stop-color="#FB9C40"/>
</linearGradient>
<linearGradient id="paint5_linear_6240_17" x1="53.2793" y1="37.8926" x2="68.3308" y2="17.7362" gradientUnits="userSpaceOnUse">
<stop stop-color="#0F738D"/>
<stop offset="1" stop-color="#05647C"/>
</linearGradient>
<linearGradient id="paint6_linear_6240_17" x1="67.1161" y1="29.4101" x2="61.1934" y2="19.1517" gradientUnits="userSpaceOnUse">
<stop stop-color="#16A6CB"/>
<stop offset="1" stop-color="#70D6F0"/>
</linearGradient>
<linearGradient id="paint7_linear_6240_17" x1="62.4108" y1="66.1617" x2="63.3715" y2="61.9198" gradientUnits="userSpaceOnUse">
<stop stop-color="#C5224C"/>
<stop offset="1" stop-color="#FF0042"/>
</linearGradient>
<linearGradient id="paint8_linear_6240_17" x1="56.0434" y1="70.6099" x2="56.0434" y2="53.9328" gradientUnits="userSpaceOnUse">
<stop stop-color="#377798" stop-opacity="0.631"/>
<stop offset="1" stop-color="#23B3FD" stop-opacity="0.6"/>
</linearGradient>
<linearGradient id="paint9_linear_6240_17" x1="55.6102" y1="67.8681" x2="55.6102" y2="55.2354" gradientUnits="userSpaceOnUse">
<stop stop-color="#B7D1DA"/>
<stop offset="1" stop-color="#B7D1DA" stop-opacity="0"/>
</linearGradient>
</defs>
</svg>
