<svg width="96" height="96" viewBox="0 0 96 96" fill="none" xmlns="http://www.w3.org/2000/svg">
<rect width="96" height="96" fill="white"/>
<path d="M41.1025 50.8806V71.6996C41.103 71.7385 41.0754 71.7719 41.0373 71.7785L21.0916 75.2147C21.048 75.2212 21.0074 75.191 21.0009 75.1472C20.9987 75.1324 21.0006 75.1174 21.0065 75.1037L40.9521 30.3357C40.9713 30.2958 41.019 30.2791 41.0587 30.2984C41.0858 30.3116 41.1032 30.3389 41.1038 30.3692L41.1025 50.8806ZM44.4642 38.8827V71.7865C44.4646 71.8269 44.4948 71.8608 44.5348 71.8655L74.4112 75.2187C74.4551 75.2233 74.4943 75.1912 74.4989 75.1471C74.5003 75.1332 74.4981 75.1191 74.4924 75.1064L44.6159 8.04539C44.5968 8.00548 44.549 7.98873 44.5093 8.00799C44.4826 8.02094 44.4653 8.0477 44.4642 8.07749V38.8827ZM74.1823 78.2884L41.1331 88.2532C41.1146 88.26 41.0943 88.26 41.0758 88.2532L21.105 78.2884C21.0652 78.2709 21.0471 78.2244 21.0645 78.1845C21.0775 78.1547 21.1073 78.136 21.1396 78.1373H74.1597C74.2032 78.1444 74.2328 78.1856 74.2257 78.2293C74.2216 78.2549 74.2054 78.2769 74.1823 78.2884Z" fill="#516BAA"/>
</svg>
