<svg width="96" height="96" viewBox="0 0 96 96" fill="none" xmlns="http://www.w3.org/2000/svg">
<rect width="96" height="96" fill="white"/>
<path d="M83.7279 44.2341C83.3503 44.2341 82.7695 44.2341 82.4442 44.2341C80.1092 44.205 75.6309 44.4555 71.5707 47.9745C61.8764 56.3933 59.6634 68.7856 43.0744 75.474C29.256 81.0438 12.2197 75.7712 12.2197 75.7712C12.2197 75.7712 27.4205 74.7108 29.4361 63.0759C31.0101 53.9755 22.7563 47.5142 17.5751 39.3052C12.3069 30.9446 10.9535 23.9998 13.4918 20.9993C20.6885 12.4756 40.507 35.5181 50.3466 38.6235C59.977 41.6589 66.4767 34.6093 74.4517 35.6463C76.9959 35.9726 78.2389 37.0737 79.0637 38.4778C79.3425 38.9498 80.0279 40.5578 80.6378 41.1521C81.236 41.7347 82.0318 42.1658 82.7753 42.6028C83.7221 43.1621 84.6572 44.2341 83.7279 44.2341Z" fill="url(#paint0_linear_6114_386)"/>
<path d="M38.1835 30.9044C35.802 29.0867 33.345 27.1815 30.9287 25.4453C30.3827 25.055 29.8367 24.6704 29.2965 24.2976C22.8201 19.8522 16.8141 17.0673 13.4917 21C10.9534 24.0004 12.3067 30.9452 17.5808 39.3058C17.6331 39.3932 17.6912 39.4747 17.7435 39.5621C20.4909 43.8269 28.4601 53.8188 47.3493 53.3935C48.5923 52.0709 50.48 49.5715 52.9196 46.8507C48.964 40.4361 43.0045 34.8429 38.1835 30.9044Z" fill="url(#paint1_linear_6114_386)"/>
<path d="M57.2239 61.0481C57.2994 58.2049 56.7824 55.4025 55.8008 52.6934C53.3206 53.0662 50.5267 53.3226 47.3494 53.3925C45.0377 55.857 39.7578 62.4405 31.0102 68.3716C19.3642 76.2719 12.2256 75.7708 12.2256 75.7708C12.2256 75.7708 29.2677 81.0435 43.0802 75.4737C48.0348 73.4753 51.7116 70.9701 54.6856 68.2084C55.1735 67.7424 57.1193 65.307 57.2239 61.0481Z" fill="url(#paint2_linear_6114_386)"/>
<path d="M52.9258 46.8516C50.4862 49.5666 48.5927 52.0718 47.3555 53.3944C50.5385 53.3244 53.3324 53.0681 55.8068 52.6952C55.5164 51.8854 55.1795 51.0872 54.8077 50.3007C54.2501 49.1296 53.617 47.976 52.9258 46.8516Z" fill="url(#paint3_linear_6114_386)"/>
<path d="M67.0866 36.544C61.9867 38.0938 56.8927 40.6864 50.3465 38.624C47.1054 37.6044 42.7781 34.4175 38.1836 30.9043C43.0046 34.8428 48.9641 40.4301 52.9255 46.8505C56.5384 42.8363 61.3594 38.3501 67.0866 36.544Z" fill="url(#paint4_linear_6114_386)"/>
<path d="M55.8066 52.6936C56.7882 55.4028 57.3052 58.2052 57.2297 61.0484C57.1193 65.3015 55.1735 67.7368 54.6855 68.2087C61.6615 61.7358 64.7807 53.8763 71.5766 47.9744C72.8428 46.8791 74.1439 46.0984 75.416 45.5449H75.4102C70.9551 47.4209 66.1224 51.1322 55.8066 52.6936Z" fill="url(#paint5_linear_6114_386)"/>
<path d="M83.7281 44.2355C84.6575 44.2355 83.7223 43.1634 82.7814 42.61C82.0379 42.1672 81.2421 41.736 80.6438 41.1592C80.0281 40.565 79.3427 38.9511 79.0697 38.485C78.2391 37.0751 77.0019 35.9798 74.4578 35.6535C71.9021 35.3214 69.4974 35.8225 67.0927 36.5507C61.3655 38.3569 56.5387 42.843 52.9258 46.8572C53.617 47.9817 54.2559 49.1294 54.8077 50.3005C55.1795 51.0929 55.5164 51.8911 55.8068 52.6951C66.1285 51.1337 70.9553 47.4224 75.4104 45.5464H75.4162C78.2217 44.3229 80.8471 44.2122 82.4503 44.2355C82.7755 44.2355 83.3564 44.2355 83.7281 44.2355Z" fill="url(#paint6_linear_6114_386)"/>
<path d="M31.0102 68.3729C39.7578 62.4419 45.0377 55.8583 47.3494 53.3938C28.4603 53.8191 20.491 43.8273 17.7436 39.5625C22.9306 47.6551 30.9986 54.0755 29.4419 63.0769C27.4264 74.7118 12.2256 75.7721 12.2256 75.7721C12.2256 75.7721 19.3642 76.2732 31.0102 68.3729Z" fill="url(#paint7_linear_6114_386)"/>
<path d="M73.9291 41.4907C74.7632 41.4907 75.4394 40.8177 75.4394 39.9875C75.4394 39.1574 74.7632 38.4844 73.9291 38.4844C73.0951 38.4844 72.4189 39.1574 72.4189 39.9875C72.4189 40.8177 73.0951 41.4907 73.9291 41.4907Z" fill="white"/>
<defs>
<linearGradient id="paint0_linear_6114_386" x1="12.2197" y1="48.574" x2="84.1112" y2="48.574" gradientUnits="userSpaceOnUse">
<stop stop-color="#2A59A2"/>
<stop offset="1" stop-color="#2A59A2"/>
</linearGradient>
<linearGradient id="paint1_linear_6114_386" x1="9.31678" y1="36.2629" x2="85.3566" y2="36.2629" gradientUnits="userSpaceOnUse">
<stop stop-color="#91D3F2"/>
<stop offset="0.2664" stop-color="#6FB2DE"/>
<stop offset="0.5214" stop-color="#5598CE"/>
<stop offset="0.6729" stop-color="#4B8FC8"/>
</linearGradient>
<linearGradient id="paint2_linear_6114_386" x1="12.2256" y1="65.361" x2="84.6419" y2="65.361" gradientUnits="userSpaceOnUse">
<stop stop-color="#2C9EC7"/>
<stop offset="0.4037" stop-color="#2C63A5"/>
<stop offset="1" stop-color="#395DA1"/>
</linearGradient>
<linearGradient id="paint3_linear_6114_386" x1="12.2246" y1="50.123" x2="84.6409" y2="50.123" gradientUnits="userSpaceOnUse">
<stop stop-color="#4FAAC4"/>
<stop offset="0.00155453" stop-color="#2F75B1"/>
<stop offset="1" stop-color="#356EAC"/>
</linearGradient>
<linearGradient id="paint4_linear_6114_386" x1="38.1836" y1="38.8774" x2="85.0571" y2="38.8774" gradientUnits="userSpaceOnUse">
<stop stop-color="#4FAAC4"/>
<stop offset="0.00155453" stop-color="#2F81B6"/>
<stop offset="1" stop-color="#3B5EA9"/>
</linearGradient>
<linearGradient id="paint5_linear_6114_386" x1="38.1818" y1="56.8768" x2="85.0553" y2="56.8768" gradientUnits="userSpaceOnUse">
<stop stop-color="#4FAAC4"/>
<stop offset="0.00155453" stop-color="#1E3773"/>
<stop offset="1" stop-color="#203370"/>
</linearGradient>
<linearGradient id="paint6_linear_6114_386" x1="68.5187" y1="60.8052" x2="68.5187" y2="35.0235" gradientUnits="userSpaceOnUse">
<stop stop-color="#4FAAC4"/>
<stop offset="0.00155453" stop-color="#2C5A9A"/>
<stop offset="1" stop-color="#374580"/>
</linearGradient>
<linearGradient id="paint7_linear_6114_386" x1="4.40707" y1="57.6705" x2="57.7483" y2="57.6705" gradientUnits="userSpaceOnUse">
<stop offset="0.1115" stop-color="#38B1DA"/>
<stop offset="1" stop-color="#326FB5"/>
</linearGradient>
</defs>
</svg>
