<svg width="96" height="96" viewBox="0 0 96 96" fill="none" xmlns="http://www.w3.org/2000/svg">
<rect width="96" height="96" fill="white"/>
<path d="M74.3243 42.3558C81.7566 27.2047 83.0001 13 83.0001 13C83.0001 13 68.7897 14.2435 53.6343 21.6795C63.9619 23.8832 72.1133 32.0319 74.3243 42.3564V42.3558Z" fill="#5ACE8C"/>
<path opacity="0.5" d="M74.3203 53.6607C72.0693 64.1292 63.7093 72.3541 53.1704 74.4095L53.944 75.1831C56.8377 78.0768 60.6291 79.5221 64.4204 79.5221C68.2118 79.5221 72.0026 78.0774 74.8947 75.1831C80.6784 69.3994 80.6784 60.0183 74.8947 54.2346L74.3208 53.6602L74.3203 53.6607Z" fill="#5ACE8C"/>
<path d="M64.2726 47.997C64.2726 46.1586 63.9667 44.3902 63.3996 42.7399C61.7741 37.9942 58.0132 34.2333 53.2675 32.6078C51.6172 32.0412 49.8487 31.7354 48.0104 31.7354C39.0418 31.7354 31.7466 39.0306 31.7466 47.997C31.7466 50.2028 32.1875 52.3071 32.9879 54.2275C34.6382 58.1917 37.8136 61.3671 41.7778 63.0173C43.6982 63.8178 45.803 64.2587 48.0104 64.2587C56.9768 64.2587 64.272 56.9635 64.272 47.997H64.2726Z" fill="#5ACE8C"/>
<path opacity="0.5" d="M21.5973 42.8375C23.6507 32.2985 31.8777 23.9386 42.3462 21.6876L41.8007 21.1421C36.0148 15.3563 26.6358 15.3563 20.85 21.1421C15.0663 26.9258 15.0663 36.3069 20.85 42.0907L21.5973 42.838V42.8375Z" fill="#5ACE8C"/>
<path d="M21.689 53.6133C14.2456 68.7781 13 82.9996 13 82.9996C13 82.9996 27.2199 81.754 42.3805 74.3127C32.0471 72.1054 23.8921 63.9488 21.689 53.6133Z" fill="#5ACE8C"/>
</svg>
