<?xml version="1.0" encoding="UTF-8"?>
<svg id="Layer_1" xmlns="http://www.w3.org/2000/svg" xmlns:xlink="http://www.w3.org/1999/xlink" width="96" height="96" viewBox="0 -16 110 110" style="enable-background:new 0 0 110 110">
  <style>.st0{fill:#02070d}</style>
  <g id="Symbols">
    <g id="Atoms-_x2F_-Logo-_x2F_-Vertical-_x2F_-Black">
      <g id="k8ssandra-stacked-1">
        <polygon id="Path" class="st0" points="2.9,77 0,77 0,65 2.9,65 2.9,69.7 4.4,69.7 6.9,65 10,65 6.8,70.9 10,77 6.9,77 4.4,72.1 2.9,72.1"/>
        <path id="Shape" class="st0" d="M22 73.8c0 1.1-.3 1.9-.8 2.4s-1.3.8-2.4.8H15c-1.1.0-1.9-.3-2.4-.8s-.8-1.3-.8-2.4v-.2c0-.8.2-1.5.6-2.1.3-.4.8-.8 1.3-.9-.5-.2-.9-.5-1.2-.9-.3-.5-.5-1.1-.4-1.6V68c-.1-.8.2-1.6.8-2.3.5-.5 1.3-.7 2.4-.7h3.1c1.1.0 1.9.2 2.4.7.5.6.8 1.4.8 2.3v.2c0 .6-.1 1.1-.4 1.6-.3.4-.7.7-1.2.9.9.2 1.5.9 1.8 1.8.1.4.2.8.2 1.2L22 73.8zm-6.1-1.7c-.3.0-.5.1-.7.3s-.3.5-.2.8v.7c0 .2.1.4.2.6.2.2.4.2.6.2h2.5c.2.0.4-.1.6-.2s.2-.4.2-.6v-.7c0-.3.0-.6-.2-.8s-.5-.3-.8-.2H15.9zM16.2 67.3c-.3.0-.5.0-.7.2s-.3.5-.2.8v.5c0 .3.1.6.2.8.2.2.5.3.7.2h1.5c.3.0.5.0.7-.2s.3-.5.2-.8v-.5c0-.3.0-.6-.2-.8s-.5-.3-.7-.2H16.2z"/>
        <path id="Path_1_" class="st0" d="M24.1 74.4c3 .2 5 .3 6.1.3.2.0.4-.1.6-.2s.2-.4.2-.6v-1.5h-3.8c-1.1.0-2-.3-2.5-.8s-.8-1.4-.8-2.6v-.5c0-1.2.3-2 .8-2.6.5-.5 1.4-.8 2.5-.8H33v2.4h-5.1c-.3.0-.6.0-.8.3-.2.2-.3.5-.2.8v.3c0 .3.0.6.2.8s.5.3.7.2h3c1.1.0 1.9.3 2.4.8C33.8 71 34 71.9 34 73v.8c0 1.1-.3 1.9-.8 2.4S32 77 30.9 77c-.6.0-1.1.0-1.8.0l-1.5-.1c-1.1-.1-2.3-.1-3.4-.2L24.1 74.4z"/>
        <path id="Path_2_" class="st0" d="M36.1 74.4c3 .2 5 .3 6.1.3.2.0.4-.1.6-.2.2-.2.2-.4.2-.6v-1.5h-3.8c-1.1.0-2-.3-2.5-.8S36 70.1 36 68.9v-.5c0-1.2.3-2 .8-2.6.5-.5 1.4-.8 2.5-.8H45v2.4h-5.1c-.3.0-.6.0-.8.2-.2.2-.3.5-.2.8v.3c0 .3.0.6.2.8s.5.3.7.2h3c1.1.0 1.9.3 2.4.8s.8 1.3.8 2.4v.8c0 1.1-.3 1.9-.8 2.4C44.7 76.7 44 77 42.9 77c-.6.0-1.2.0-1.8.0l-1.5-.1c-1.1-.1-2.3-.1-3.4-.2V74.4z"/>
        <path id="Shape_1_" class="st0" d="M50.2 77H47l4.3-12h3.3L59 77h-3.2l-.7-2.1H51L50.2 77zM51.7 72.6h2.6l-1.3-4-1.3 4z"/>
        <polygon id="Path_3_" class="st0" points="71,77 67.9,77 64,69.8 64,77 61,77 61,65 64.1,65 68.1,72.2 68.1,65 71,65"/>
        <path id="Shape_2_" class="st0" d="M80.3 65c1.2.0 2.1.3 2.8 1 .6.7.9 1.6.9 2.9V73c0 1.3-.3 2.3-.9 2.9-.6.7-1.6 1-2.8 1H74V65h6.3zM81.1 68.9c0-1-.5-1.5-1.5-1.5h-2.7v7.2h2.7c1 0 1.5-.5 1.5-1.5V68.9z"/>
        <path id="Shape_3_" class="st0" d="M86 65h7.3c1.2.0 2.1.3 2.7.8.6.5.8 1.4.8 2.6V70c0 .8-.1 1.5-.5 2.2-.3.5-.9.9-1.5 1L97 77h-3.4l-2-3.6h-2.4V77H86V65zM93.7 68.4c0-.3.0-.6-.3-.8s-.5-.3-.8-.3h-3.5V71h3.5c.3.0.6-.1.8-.3s.3-.5.3-.8V68.4z"/>
        <path id="Shape_4_" class="st0" d="M101.2 77H98l4.4-12h3.3l4.4 12h-3.2l-.7-2.1h-4.1L101.2 77zM102.7 72.6h2.6l-1.3-4-1.3 4z"/>
        <path id="Shape_5_" class="st0" d="M54.5 3.9c2.3.0 4.2 1.9 4.2 4.2s-1.9 4.2-4.2 4.2-4.2-1.9-4.2-4.2C50.3 5.8 52.2 3.9 54.5 3.9zM77.3 33.1c-.2-.2-.6-.2-.9.0-1.3 1.3-2.8 2.5-4.3 3.5-.1.1-.3.1-.5.1s-.3-.1-.4-.3L63.7 25h5.8c.2.0.3-.1.3-.3v-1.4c0-.2.1-.3.3-.3h7.6c.2.0.3-.1.3-.3v-5.9c0-.2-.1-.3-.3-.3H70c-.2.0-.3-.1-.3-.3v-1.4c0-.2-.1-.3-.3-.3h-9.5c-.1.0-.2-.1-.2-.2s0-.2.1-.3l.1-.1c2.5-2.2 3.4-5.8 2.2-8.9S57.8.0 54.5.0 48.2 2.1 47 5.2s-.3 6.7 2.2 8.9c1.2 1.1 1.4 2.8.5 4.2L37.8 36.4c-.1.1-.2.2-.4.3-.2.0-.3.0-.5-.1-1.5-1-3-2.2-4.3-3.5-.2-.2-.6-.2-.9.0l-4.5 4.6C27.1 37.8 27 38 27 38.2s.1.3.2.5C33 44.3 40.4 48 48.4 49.3v4.1c0 .4.3.6.6.6h10.9c.2.0.3-.1.5-.2s.2-.3.2-.5v-4.1c8-1.2 15.4-5 21.2-10.6.1-.1.2-.3.2-.4.0-.2-.1-.3-.2-.4l-4.5-4.7zM41.2 38.8c-.1-.2.0-.4.1-.5l10.2-15.5c.2-.2.4-.3.7-.3s.5.3.5.6v18.8c-3.8-.2-7.6-1.2-11.1-2.7C41.4 39.1 41.2 39 41.2 38.8zm26.6.0c-.1.2-.2.3-.4.4-3.5 1.6-7.2 2.5-11.1 2.7V25.6c0-.2.1-.3.2-.5.1-.1.3-.2.5-.2h1.6c.2.0.4.1.5.3l8.5 13C67.9 38.4 67.9 38.6 67.8 38.8z"/>
        <path id="Path_4_" class="st0" d="M32 9.4c0-.3.2-.4.5-.4S33 9.2 33 9.4l.7 6.1c0 .2.1.3.3.4.1.1.3.1.5.0l5.1-3.2c.2-.2.5-.1.7.1s.1.5-.1.7L36 17.8c-.1.1-.2.3-.1.4.0.2.2.3.3.4l5.6 2c.2.1.4.3.3.6-.1.2-.3.4-.5.4l-5.9-.7c-.2.0-.3.0-.4.2C35 21.2 35 21.3 35 21.5l2 5.8c.1.2.0.5-.2.7-.2.1-.5.0-.7-.2l-3.2-5.2c-.1-.1-.2-.2-.4-.2-.2.0-.3.1-.4.2l-3.2 5.2c-.1.2-.4.3-.7.2s-.3-.4-.2-.7l2-5.8c.1-.2.0-.3-.1-.5-.1-.1-.3-.2-.4-.2l-6 .7c-.2.0-.5-.1-.5-.4-.1-.2.1-.5.3-.6l5.6-2c.2-.1.3-.2.3-.4s0-.3-.1-.4l-4.2-4.3c-.2-.2-.2-.5.0-.6s.4-.2.6-.1l5.1 3.2c.1.1.3.1.5.0.1-.1.2-.2.3-.4L32 9.4z"/>
      </g>
    </g>
  </g>
</svg>
