<?xml version="1.0" encoding="UTF-8" standalone="no"?>
<svg
   viewBox="0 0 96 96"
   fill="#ffffff"
   fill-rule="evenodd"
   stroke="#000000"
   stroke-linecap="round"
   stroke-linejoin="round"
   version="1.1"
   id="svg6"
   width="96"
   height="96"
   xmlns:xlink="http://www.w3.org/1999/xlink"
   xmlns="http://www.w3.org/2000/svg"
   xmlns:svg="http://www.w3.org/2000/svg">
  <defs
     id="defs6" />
  <use
     xlink:href="#A"
     x="0.5"
     y="0.5"
     id="use1"
     transform="matrix(1.6596453,0,0,1.4999844,-0.82865918,-0.74999218)" />
  <symbol
     id="A"
     overflow="visible">
    <g
       stroke="none"
       fill-rule="nonzero"
       id="g6">
      <path
         d="m 11.58,0 c 0,0 -3.572,12.018 -3.312,15.592 0.183,2.504 4.84,5.788 4.84,5.788 0,0 -2.535,3.008 -3.512,4.703 -1.008,1.74 -2.55,5.742 -2.55,5.742 0,0 -7.646,-8.965 -7.009,-13.363 C 0.785,13.148 11.58,0 11.58,0 Z m 34.68,0 c 0,0 3.573,12.018 3.314,15.592 -0.183,2.504 -4.84,5.788 -4.84,5.788 0,0 2.535,3.008 3.512,4.703 1.008,1.74 2.55,5.742 2.55,5.742 0,0 7.635,-8.964 7.01,-13.362 C 57.058,13.148 46.26,0 46.26,0 Z"
         fill="#bfbfbf"
         id="path1" />
      <path
         d="m 29.036,14.08 c -10.124,0 -19.058,7.162 -22.005,17.668 l 22.005,7.3 z"
         fill="#7d9199"
         id="path2" />
      <path
         d="m 29.02,14.034 c 10.125,0 19.058,7.177 22.005,17.668 l -22.005,7.3 z"
         fill="#566366"
         id="path3" />
      <path
         d="m 28.975,31.733 h -22 V 47.11 c 0,0 8.888,3.482 12.553,6.292 C 22.577,55.74 28.44,64 28.44,64 H 29 V 31.733 Z"
         fill="#7d9199"
         id="path4" />
      <path
         d="m 29,31.52 h 22 v 15.378 c 0,0 -8.888,3.482 -12.553,6.292 -3.13,2.398 -8.933,10.796 -8.933,10.796 h -0.535 z"
         fill="#566366"
         id="path5" />
      <path
         d="m 26.24,31 a 2.764,2.764 0 1 1 5.528,0 2.764,2.764 0 1 1 -5.528,0 z"
         id="path6" />
    </g>
  </symbol>
</svg>
