<?xml version="1.0" encoding="UTF-8" standalone="no"?>
<!-- Generator: Adobe Illustrator 23.0.2, SVG Export Plug-In . SVG Version: 6.00 Build 0)  -->

<svg
   version="1.1"
   id="Layer_1"
   x="0px"
   y="0px"
   viewBox="0 0 96.000001 96"
   xml:space="preserve"
   width="96"
   height="96"
   xmlns="http://www.w3.org/2000/svg"
   xmlns:svg="http://www.w3.org/2000/svg"><defs
   id="defs15" />&#10;<rect
   style="fill:#ffffff"
   id="rect1"
   width="99.254242"
   height="98.237305"
   x="-1.6271186"
   y="-1.0169492" /><path
   style="fill:#00a79d;stroke-width:0.139197"
   d="m 70.542168,79.929613 c 0,0 6.021945,-2.649991 8.450011,-5.320867 2.428073,-2.670867 6.798497,-8.558897 6.677099,-10.197748 -0.121395,-1.639 -1.092571,-1.092568 -3.520639,0.849786 -2.428065,1.942494 -6.13081,3.884827 -9.226558,3.217142 0,0 -1.880695,-0.391339 -2.740493,-0.779594 -0.859789,-0.388286 -2.634808,-3.744227 -3.96614,-5.352891 -1.331333,-1.608653 -3.522306,-5.602483 -6.212672,-6.684189 -2.690365,-1.081708 -6.517834,-3.161892 -10.206532,-2.745761 -3.6888,0.415956 -7.072454,0.915206 -10.1511,3.07862 -3.078615,2.163275 -3.938432,4.881339 -7.654961,4.659586 -3.716507,-0.22193 -4.049366,-4.049401 -3.577844,-6.739625 0.471521,-2.690216 2.856726,-7.405335 4.68728,-10.151101 1.830554,-2.745758 3.966125,-7.238839 3.966125,-7.238839 0,0 2.99539,-6.295937 2.856727,-10.622635 -0.138663,-4.326706 -1.664051,-8.015553 -2.412897,-8.875322 -0.748848,-0.859818 -2.662534,-2.468483 -2.773466,-2.412898 -0.110955,0.0555 -6.684227,0.36055 -8.126482,0.249579 -1.442312,-0.110917 -3.115118,-0.06218 -3.115118,-0.06218 0,0 -2.958898,0.922023 -3.125401,3.806442 -0.166502,2.884419 0.776553,5.075576 3.716501,6.046312 2.939994,0.970777 7.682672,0.0834 7.682672,0.0834 0,0 0.499212,5.879809 -1.137129,9.457646 -1.636332,3.577882 -7.238852,10.705753 -7.322081,10.78902 -0.0834,0.0834 -4.24345,6.767463 -5.408437,11.953817 -1.164926,5.186384 -0.970732,8.542483 -0.970732,8.542483 0,0 0.721147,7.627232 4.049395,11.759749 3.328246,4.132497 3.799776,4.493055 3.799776,4.493055 0,0 -0.748847,2.024644 -0.693464,4.24346 0.0555,2.218833 0.887512,4.493073 1.636359,4.29902 0.748848,-0.194198 2.357506,-1.941523 3.217277,-2.412899 0.859819,-0.471521 1.386765,-0.665609 1.719636,-1.331337 0.33286,-0.665719 0.388244,-1.553228 0.388244,-1.553228 l 2.563255,0.687296 c 0,0 1.070011,3.916854 2.318116,5.747272 1.248073,1.830576 2.024611,2.801328 2.801299,2.329806 0.776539,-0.471521 0.804272,-1.858261 1.941524,-3.189585 1.137238,-1.331338 1.885969,-1.442304 2.385199,-2.496172 0.49922,-1.053869 0.360557,-2.274237 0.360557,-2.274237 0,0 7.544006,-0.305018 9.568648,-0.499216 2.024613,-0.194208 10.400712,-2.107882 10.400712,-2.107882 0,0 1.553103,3.21728 3.661129,4.604012 2.107878,1.386754 3.688801,1.053872 3.938434,0.443824 0.249592,-0.610185 -0.943052,-1.775009 -0.693456,-2.607096 0.249627,-0.83211 1.386731,-2.412899 1.469996,-3.411512 0.08339,-0.998591 -1.220369,-2.274379 -1.220369,-2.274379 z"
   id="path1" />&#10;<path
   style="fill:#ef4136;stroke-width:0.139197"
   d="m 22.469744,21.455063 c 0,0 0.424167,-0.410967 2.280066,-0.132547 1.855899,0.278451 3.234698,1.166647 3.234698,1.166647 0,0 -1.140027,0.702608 -2.399394,0.556702 -1.259366,-0.1459 -3.11537,-1.590802 -3.11537,-1.590802 z"
   id="path2" />&#10;<path
   d="m 22.257697,21.402025 c 0.04171,0.0417 0.238625,-0.33149 2.319915,-0.06649 2.081283,0.26506 3.406896,0.941245 3.406896,1.047326 0,0.106076 -0.01333,0.145757 0,0.106076 0.01323,-0.04003 0.981062,-0.8087 0.86177,-1.497984 -0.119334,-0.689399 -0.676036,-1.179859 -1.68357,-0.941238 -1.00748,0.238623 -1.00748,0.662831 -1.64384,0.570114 -0.636361,-0.09304 -1.033968,-0.198799 -1.551029,-0.835157 -0.51705,-0.636356 -1.100345,-1.100393 -1.763179,-0.74244 -0.662812,0.35777 -1.140026,1.166487 0.05298,2.359573 z"
   id="path3"
   style="stroke-width:0.139197" />&#10;<path
   style="fill:#ef4136;stroke-width:0.139197"
   d="m 26.609478,14.862749 c 0,0 -3.897533,-0.739689 -4.598732,-1.879171 -0.701227,-1.139472 -2.015886,-1.446166 -0.48213,-2.804781 1.533756,-1.3586143 6.770794,-2.4102555 8.76482,-2.4761039 1.993972,-0.065711 5.017777,2.0158548 6.37638,3.5278849 1.358484,1.511881 0.898373,2.914355 -0.08755,3.374478 -0.985903,0.460223 -8.134669,0.493393 -9.972609,0.257693 z"
   id="path4" />&#10;<path
   style="fill:#008e85;stroke-width:0.139197"
   d="m 57.238773,84.843937 c -0.01054,-0.04992 5.992579,-1.656121 5.992579,-1.656121 l 0.887768,1.348748 c 0,0 -0.187795,1.519534 -0.273131,2.56101 -0.08544,1.041483 -1.058464,1.843931 -1.8609,1.946408 -0.802451,0.102459 -4.217015,-1.673106 -4.746316,-4.200045 z"
   id="path5" />&#10;<g
   id="g11"
   transform="matrix(0.13921662,0,0,0.13921662,-6.466429,-0.4754413)">&#10;	<path
   d="m 212.864,136.552 c -5.208,-2.066 -12.356,-0.043 -13.87,5.917 -1.349,5.313 1.511,11.768 5.9,14.75 0.212,0.144 0.423,0.235 0.63,0.292 1.582,1.87 3.533,3.521 5.504,5.033 6.507,4.995 13.39,8.485 21.716,8.978 7.11,0.421 15.148,-1.384 19.718,-7.265 3.771,-4.854 4.427,-11.792 0.06,-16.519 -4.609,-4.988 -10.738,-3.372 -16.189,-0.892 -2.476,1.126 -4.678,2.449 -7.547,1.759 -2.712,-0.654 -4.782,-2.807 -6.684,-4.694 -2.833,-2.809 -5.433,-5.849 -9.238,-7.359 z m 14.65,29.988 c -5.49,-1.136 -10.12,-3.988 -14.576,-7.26 -0.995,-0.73 -1.861,-1.493 -2.656,-2.283 5.438,0.701 11.009,0.155 16.501,1.27 0.729,0.148 1.453,0.313 2.175,0.485 -0.092,0.022 -0.187,0.043 -0.277,0.065 -1.961,0.484 -3.516,1.419 -5.012,2.753 -0.761,0.679 0.207,1.69 1.018,1.319 1.501,-0.686 3.207,-1.204 4.84,-1.452 1.476,-0.224 2.969,0.094 4.371,-0.488 0.319,-0.133 0.534,-0.356 0.64,-0.611 3.582,1.182 7.062,2.653 10.443,4.377 -5.19,2.846 -11.821,2.994 -17.467,1.825 z m 4.81,-13.382 c 4.293,-0.717 8.625,-4.319 12.965,-4.141 8.411,0.344 6.108,10.277 1.736,14.286 -0.076,-0.074 -0.163,-0.144 -0.274,-0.202 -6.141,-3.186 -12.589,-5.591 -19.384,-6.957 -5.757,-1.157 -13.008,-2.647 -18.747,-0.97 -0.36,-0.436 -0.708,-0.88 -1.041,-1.333 -1.683,-3.465 -4.553,-10.14 0.359,-11.379 5.002,-1.261 9.708,5.267 13.308,7.804 3.366,2.371 6.964,3.579 11.078,2.892 z"
   id="path6" />&#10;	<path
   d="m 247.892,135.815 c 1.43,-1.02 3.004,-1.788 4.798,-1.668 1.842,0.123 3.029,1.221 4.574,2.077 2.108,1.168 3.976,-1.104 3.087,-3.086 -2.748,-6.128 -11.955,-4.861 -15.102,0.034 -1.009,1.568 1.053,3.777 2.643,2.643 z"
   id="path7" />&#10;	<path
   d="m 208.571,127.152 c -0.634,1.362 0.629,2.516 1.954,1.954 2.238,-0.948 4.333,-2.06 6.783,-0.918 1.777,0.828 2.716,2.683 4.387,3.677 0.891,0.53 2.182,0.051 2.427,-0.988 1.851,-7.842 -12.465,-10.35 -15.551,-3.725 z"
   id="path8" />&#10;	<path
   d="m 357.319,423.039 c 2.932,2.192 6.457,0.615 9.311,-0.79 4.981,-2.452 10.084,-5.012 14.824,-7.873 5.414,-3.269 3.43,-10.047 -2.819,-10.45 -7.973,-0.515 -18.25,5.662 -23.613,11.104 -1.266,1.284 -0.703,2.906 0.485,3.621 -0.169,1.593 0.333,3.283 1.812,4.388 z"
   id="path9" />&#10;	<path
   d="m 410.307,422.68 c -5.32,0.021 -11.397,0.645 -15.799,3.832 -0.759,0.55 -0.909,1.902 -0.049,2.37 -0.511,1.225 -0.564,2.703 0.156,4.314 1.875,4.193 6.759,4.653 10.539,3.105 2.316,-0.948 4.089,-2.83 6.624,-2.077 2.046,0.608 3.561,2.155 5.722,2.592 7.017,1.418 12.689,-6.625 6.153,-11.46 -3.553,-2.627 -9.145,-2.692 -13.346,-2.676 z"
   id="path10" />&#10;	<path
   d="m 421.246,406.271 c 4.916,2.607 12.253,3.576 17.773,4.245 3.439,0.417 7.301,-0.968 6.814,-5.112 -0.517,-4.395 -6.564,-5.689 -10.08,-6.349 -5.365,-1.006 -10.69,-0.47 -15.701,1.667 -1.506,0.643 -1.33,2.753 -0.259,3.706 0.155,0.725 0.608,1.395 1.453,1.843 z"
   id="path11" />&#10;</g>&#10;<path
   d="m 85.740419,63.493554 c -0.396763,-0.552682 -1.136266,-0.792696 -1.726543,-0.412623 -0.115708,0.07465 -0.162883,0.182649 -0.162483,0.289997 -0.448135,0.20227 -0.870654,0.573832 -1.237347,0.841683 -0.642771,0.469449 -1.28192,0.943469 -1.947095,1.381032 -1.339261,0.880956 -2.775559,1.639685 -4.320027,2.090214 -2.355949,0.687296 -5.006921,0.554496 -6.998264,-0.882654 -0.0062,-0.01914 -0.01311,-0.03873 -0.02266,-0.05836 -0.794935,-1.610173 -1.800765,-3.127632 -2.82136,-4.604001 -0.990527,-1.432959 -2.063337,-2.817483 -3.278137,-4.068334 -2.236511,-2.3028 -4.95791,-4.015302 -8.05561,-4.889305 -5.940806,-1.676294 -12.536303,-0.312119 -17.198386,3.755643 -1.469159,1.281767 -2.926752,2.862581 -4.894874,3.332009 -1.322677,0.315625 -2.968382,0.02968 -3.813274,-1.059698 0.0047,-0.02232 0.0055,-0.04571 -6.84e-4,-0.07138 -0.319798,-1.390061 -0.596293,-2.747715 -0.506066,-4.182881 0.08696,-1.388685 0.410987,-2.749125 0.90242,-4.04871 1.003876,-2.654565 2.635231,-5.011523 4.125681,-7.406465 2.937326,-4.71972 5.441816,-9.573209 6.460201,-15.08855 0.278852,-1.510645 0.360413,-3.024892 0.225117,-4.556292 -0.130735,-1.479159 -0.296553,-3.19611 -1.152603,-4.442258 -0.596532,-1.668649 -1.737834,-3.20113 -3.033113,-4.379029 0.401104,-0.12697 0.769446,-0.340004 1.069622,-0.674232 0.585384,-0.651979 0.654591,-1.264947 0.299301,-2.051783 C 37.265818,11.447195 36.440933,10.856919 35.759072,10.242278 35.199566,9.7378961 34.630978,9.2431194 34.009396,8.8211561 34.532145,8.8093202 34.677364,7.9376877 34.123397,7.857778 33.693071,7.7955453 33.265832,7.7175848 32.838871,7.6379539 c 0.513417,-0.3679505 0.969772,-0.8135801 1.325186,-1.3275677 0.07079,-0.1024636 0.06871,-0.27384 0,-0.3765805 -0.02716,-0.040661 -0.04824,-0.068916 -0.08711,-0.098565 -0.01543,-0.011694 -0.03113,-0.023536 -0.0466,-0.03523 -0.107199,-0.081321 -0.266903,-0.05553 -0.376599,0 -0.461491,0.2341613 -0.915888,0.4637318 -1.375178,0.6841104 0.03502,-0.045944 0.07004,-0.09174 0.105243,-0.1375472 0.3284,-0.4298986 0.682594,-0.8549291 0.846448,-1.3783835 0.112051,-0.3580619 -0.301981,-0.6302301 -0.607147,-0.4667901 -0.481404,0.2581068 -0.840293,0.7027658 -1.199475,1.1041256 -0.06292,0.070311 -0.125703,0.14061 -0.188629,0.2109142 0.0071,-0.5577034 0.0028,-1.1702557 -0.315628,-1.633984 -0.144216,-0.2102191 -0.517731,-0.2742573 -0.646389,0 -0.296358,0.6319036 -0.191408,1.3826983 -0.260299,2.0675041 -0.0034,0.032143 -0.0082,0.065278 -0.01275,0.0987 -0.182781,-0.5357058 -0.345663,-1.0741956 -0.456927,-1.6548662 -0.08221,-0.4285088 -0.794647,-0.4347723 -0.87218,0 -0.08071,0.4528735 -0.114265,0.9260739 -0.09349,1.3974585 -0.261329,-0.2291469 -0.52153,-0.4598291 -0.78188,-0.6902323 -0.550877,-0.4872564 -1.287586,0.2525386 -0.804956,0.8049528 0.177507,0.2032537 0.355451,0.4060945 0.532793,0.6094898 -0.444921,0.046361 -0.884594,0.111791 -1.334094,0.1928124 -0.387029,0.069752 -0.449415,0.6573808 -0.158583,0.8560438 -1.66963,0.3687832 -3.325173,0.8950218 -4.829565,1.6743557 -1.107348,0.5737123 -1.335496,1.8568713 -0.84587,2.9309313 0.387314,0.849629 1.084495,1.438807 1.933838,1.699544 -0.02552,0.208825 0.05714,0.429051 0.260201,0.598099 -0.244887,0.204468 -0.487131,0.411928 -0.713914,0.639973 -0.181818,0.182762 -0.334371,0.367656 -0.474845,0.560189 -2.038014,2.049113 -1.630097,5.715947 0.409011,7.600124 2.616314,2.417492 6.365402,2.311522 9.658273,1.523864 0.276095,1.004702 0.112236,2.300129 0.03755,3.297872 -0.09511,1.268847 -0.307262,2.52651 -0.601136,3.764004 -0.498127,2.097451 -1.295414,4.128902 -2.432559,5.961665 -0.03546,0.0094 -0.06989,0.02537 -0.100202,0.05417 -5.383239,5.093518 -9.590777,11.662872 -11.42872,18.879557 -1.765673,6.932841 -1.059446,14.821147 3.170797,20.76402 1.207695,1.696624 2.683517,3.216996 4.379621,4.417598 -0.596977,1.484047 -0.86735,3.048426 -0.687203,4.658325 0.116403,1.040372 0.404444,3.457307 1.765822,3.668921 0.70906,0.110248 1.311573,-0.595017 1.826936,-0.972156 0.860111,-0.62912 1.741598,-1.225943 2.590263,-1.871067 0.6255,-0.475431 1.52289,-1.286369 1.706398,-2.13836 0.642892,0.114441 1.296527,0.156068 1.955001,0.08844 0.08162,0.463453 0.181817,0.924946 0.303356,1.38351 0.569671,2.1502 1.545449,4.466905 3.007914,6.170493 0.542127,0.631508 1.340096,1.024647 2.142423,0.611996 1.026564,-0.527898 1.128625,-1.719164 1.692724,-2.600694 1.032435,-1.613799 3.1928,-2.33437 3.250153,-4.519799 0.0046,-0.161625 -0.0042,-0.321023 -0.02297,-0.47822 0.01083,0.0031 0.02004,0.0074 0.03136,0.0098 1.557396,0.318523 3.2255,0.244884 4.804766,0.170955 1.616989,-0.07598 3.229408,-0.22651 4.833597,-0.443409 1.119995,-0.151459 2.249741,-0.328283 3.375034,-0.543229 6.93e-4,0.0027 6.93e-4,0.005 0.0015,0.0077 0.626478,2.105095 2.900295,4.223967 5.213655,4.069858 1.013356,-0.06762 1.876929,-0.666853 2.088799,-1.696495 0.155928,-0.757893 -0.06277,-1.526096 -0.10036,-2.283015 0.869811,1.179023 1.948471,2.203801 3.181366,2.99845 0.856195,0.55185 1.905173,0.998182 2.922292,0.634409 0.77419,-0.276902 1.36975,-0.997068 1.315734,-1.845036 -0.05819,-0.913262 -1.183481,-1.596261 -0.672819,-2.510635 0.471092,-0.843646 1.113459,-1.391741 1.119721,-2.434339 0.0064,-0.985791 -0.410701,-1.817889 -1.048443,-2.465945 6.356328,-2.535142 11.689311,-7.722494 14.53224,-13.940598 0.344412,-0.753855 0.698306,-1.713474 0.158285,-2.465663 z M 33.446265,8.8243594 c 0.661668,0.3928694 1.267154,0.8783166 1.840837,1.3902176 0.621343,0.554358 1.713362,1.404276 1.911326,2.250991 0.285652,1.222475 -1.037581,1.361822 -2.025623,1.365591 0.08117,-0.180987 0.126286,-0.371026 0.120024,-0.561062 -0.02629,-0.803007 0.11679,-1.396757 -0.324786,-2.108571 -0.447028,-0.720723 -1.189604,-1.2225996 -1.83212,-1.7557969 -0.111762,-0.09286 -0.223552,-0.1855776 -0.335502,-0.2784347 -0.06054,-0.096479 -0.125696,-0.1921176 -0.19366,-0.2867842 0.279838,-0.00772 0.559683,-0.013081 0.839504,-0.016151 z m -5.881611,0.6410923 c 0.386731,-0.1777802 0.73422,-0.3778338 1.087275,-0.6062887 -0.08963,0.4184872 -0.180438,0.8405915 -0.204952,1.264227 -0.03576,0.616032 0.798264,0.624941 0.995545,0.13476 0.13421,-0.3332845 0.221929,-0.6902346 0.304334,-1.0464892 0.188082,0.3850713 0.390644,0.7609569 0.634003,1.1240342 0.195575,0.291798 0.794509,0.224972 0.741028,-0.200752 -0.0488,-0.3868816 -0.123602,-0.7597044 -0.213278,-1.1290451 0.10861,0.037317 0.216504,0.079067 0.32189,0.1319788 0.386592,0.1937873 0.695526,0.3735172 0.99164,0.6969158 0.157007,0.1716545 0.367941,0.1603773 0.525392,0.057935 0.410698,0.2834425 0.820135,0.5693935 1.211747,0.8752535 0.348445,0.272168 0.687306,0.577192 0.773908,1.026582 0.05223,0.271321 0.04953,0.665295 -0.189058,0.857974 -0.09784,0.079 -0.27121,0.08492 -0.381203,0.151764 -0.452144,0.275504 -0.931624,0.901699 -1.107052,1.411237 -0.212688,-0.01187 -0.419459,-0.02567 -0.612529,-0.0502 -1.085181,-0.136681 -2.160382,-0.356509 -3.231762,-0.571708 -1.027836,-0.206455 -2.121115,-0.225533 -3.17222,-0.248352 -0.36696,-0.806074 -0.686461,-1.78573 -0.231234,-2.46288 0.376991,-0.560763 0.972599,-0.9401282 1.484339,-1.3789379 0.08696,0.013207 0.180303,0.00443 0.272187,-0.038018 z M 22.042757,11.4291 c -0.175407,-1.066397 0.693555,-1.35388 1.516913,-1.70582 1.216466,-0.5199715 2.55852,-1.0364671 3.91212,-1.3623728 -0.151483,0.1287775 -0.299452,0.2621463 -0.445935,0.4065141 -0.09814,0.096755 -0.137937,0.2033948 -0.136986,0.3051611 -0.270487,0.216342 -0.536267,0.4396454 -0.807718,0.6452703 -0.574707,0.4354673 -0.969664,0.8954383 -1.401207,1.4688713 -0.413349,0.54921 -0.582642,1.047054 -0.384826,1.738962 0.03948,0.137396 0.08815,0.262698 0.141305,0.383257 -0.390052,0.007 -0.777667,0.0388 -1.14908,0.125304 C 22.88377,12.76849 22.169578,12.19965 22.042757,11.4291 Z m 8.178411,74.914341 c -0.420731,0.448833 -0.953074,0.796892 -1.432522,1.17765 -0.486005,0.386046 -0.959926,0.787802 -1.437858,1.183619 -0.498529,0.412913 -1.565457,1.614634 -2.136107,0.866879 -0.699726,-0.916874 -0.851315,-2.540827 -0.891279,-3.651229 -0.04155,-1.162297 0.119727,-2.340228 0.476415,-3.448951 0.628678,0.421131 1.287447,0.796055 1.972099,1.121821 0.162199,0.104557 0.329146,0.199484 0.486153,0.290681 0.624519,0.362803 1.270764,0.678538 1.940546,0.948623 0.498824,0.201157 1.010429,0.383946 1.530966,0.529584 -0.05758,0.347894 -0.207015,0.659614 -0.508413,0.981323 z m 32.301164,2.059583 c -2.020189,0.468189 -3.759283,-1.611012 -4.700671,-3.135429 1.812739,-0.377979 3.603905,-0.867049 5.313352,-1.527344 0.09216,0.180007 0.186417,0.356939 0.283442,0.528726 0.06262,0.110823 0.127256,0.22052 0.193226,0.329243 -0.520513,1.278296 0.571223,3.41999 -1.089349,3.804804 z M 85.176321,65.031897 c -0.141014,0.459693 -0.378657,0.898089 -0.592914,1.32674 -0.412366,0.824873 -0.867329,1.628567 -1.361134,2.407325 -1.029208,1.622994 -2.229418,3.133068 -3.571718,4.508112 -2.564524,2.627034 -5.666529,4.733502 -8.999953,6.266279 -0.798813,-0.640382 -1.823028,-1.045246 -2.796558,-1.170518 -0.312836,-0.0404 -0.350965,0.39383 -0.145644,0.537634 0.883753,0.619236 1.968814,0.981351 2.737832,1.75315 0.434773,0.436322 0.74065,0.974941 0.757202,1.604494 0.01528,0.586797 -0.314756,1.013755 -0.656814,1.45577 -0.512325,0.661992 -0.931643,1.349005 -0.63915,2.203674 0.139355,0.407046 0.446762,0.723072 0.605316,1.1165 0.219958,0.545882 -0.225098,0.974114 -0.751496,1.069181 -1.042868,0.188649 -2.282455,-0.866072 -3.019726,-1.491571 -0.771548,-0.654571 -1.464854,-1.410263 -2.050674,-2.235101 -1.251835,-1.76278 -1.771798,-3.670159 -2.269785,-5.736552 -0.0693,-0.288618 -0.467358,-0.200893 -0.490167,0.06663 -0.11513,1.34871 0.220372,2.763028 0.754678,4.054539 -2.970737,0.778206 -5.908344,1.57271 -8.958434,2.007919 -1.584004,0.226087 -3.179154,0.376437 -4.776958,0.4583 -1.599436,0.08192 -3.237191,4.03e-4 -4.826193,0.202967 -0.113198,0.01425 -0.208681,0.0742 -0.279128,0.154267 -0.259084,-0.843818 -0.791863,-1.612701 -1.333552,-2.291948 -0.491033,-0.615615 -1.018677,-1.20268 -1.536394,-1.795614 -0.548674,-0.628283 -0.982872,-1.142823 -1.748149,-1.497819 -0.252958,-0.117357 -0.600994,0.0785 -0.50396,0.387437 0.644287,2.050242 2.856282,3.206025 3.795737,5.126801 0.940663,1.923273 -0.667957,2.996473 -1.772221,4.307755 -0.538494,0.639433 -0.84004,1.31156 -1.13645,2.086584 -0.205348,0.537233 -0.464426,1.201727 -1.081705,1.361134 -0.572026,0.147826 -1.015565,-0.317564 -1.351358,-0.727561 -1.270071,-1.550439 -2.159538,-3.49782 -2.727253,-5.40662 -0.656823,-2.208235 -0.889762,-4.541085 -0.704177,-6.836213 0.01,-0.116793 -0.189594,-0.145758 -0.20672,-0.02805 -0.23652,1.622424 -0.242097,3.251823 -0.01217,4.859765 -0.688565,-0.24041 -1.392304,-0.43547 -2.094081,-0.636765 -0.03962,-0.0555 -0.08207,-0.110532 -0.131713,-0.165122 -0.117773,-0.129329 -0.331446,-0.113462 -0.46022,-0.0094 -0.38688,-0.116366 -0.771547,-0.239313 -1.150498,-0.379912 -0.206868,-0.07659 -0.412221,-0.15787 -0.616873,-0.241257 -0.01528,-0.141027 -0.08755,-0.27549 -0.235255,-0.361114 -5.311781,-3.08106 -9.140516,-8.267018 -10.381366,-14.299121 -1.449226,-7.044913 0.463567,-14.455543 3.836396,-20.669889 0.919358,-1.693848 1.926351,-3.363751 2.954289,-4.993554 0.950431,-1.506886 2.017698,-2.93191 3.057089,-4.377113 0.0141,-0.01129 0.02805,-0.02359 0.0401,-0.03993 1.49339,-1.970061 2.510364,-4.256397 3.155087,-6.636024 0.319898,-1.180978 0.525934,-2.39119 0.644294,-3.608646 0.05995,-0.618532 0.0949,-1.239575 0.102014,-1.861039 0.0077,-0.642335 -0.119,-1.338143 -0.02463,-1.972288 0.182353,-0.05022 0.36334,-0.102031 0.541537,-0.155504 0.412653,-0.123749 0.241265,-0.754415 -0.178345,-0.646648 -3.28994,0.845881 -7.034861,1.603345 -10.009117,-0.56063 -1.226483,-0.892384 -1.980197,-2.160082 -2.090607,-3.676436 -0.09216,-1.263245 0.218858,-2.612103 1.068498,-3.57021 0.205887,-0.180007 0.415299,-0.356796 0.618405,-0.533887 0.273409,-0.238348 0.560082,-0.470124 0.864658,-0.672002 0.779625,0.392877 1.706374,0.493246 2.554887,0.611584 1.116695,0.155783 2.322578,0.333416 3.445776,0.191702 1.076277,-0.135877 2.152294,-0.273979 3.228716,-0.408874 0.73741,-0.0926 1.699388,-0.0653 2.471233,-0.293763 0.156868,0.01303 0.314755,0.0187 0.472355,0.01736 1.061521,0.845592 1.933155,1.877048 2.629648,3.050376 0.469859,0.7913 0.775855,1.608366 1.025195,2.452438 0.165524,1.053307 0.482235,2.094776 0.577893,3.16243 0.120706,1.347761 0.07509,2.715005 -0.05965,4.060261 -0.289412,2.889709 -1.344258,5.766344 -2.541092,8.394331 -1.159403,2.545711 -2.517456,4.989102 -4.003605,7.357588 -1.445757,2.304322 -2.958057,4.599991 -3.902083,7.167843 -0.83349,2.266998 -1.36309,5.233281 -0.404289,7.576583 -0.03903,0.04118 -0.05818,0.101486 -0.03621,0.175549 0.785198,2.673509 4.249458,2.84335 6.329069,1.723913 1.508261,-0.811914 2.698148,-2.080728 4.001501,-3.166891 1.25684,-1.047458 2.677551,-1.899745 4.188749,-2.526784 6.02042,-2.497954 13.34597,-1.560479 18.31767,2.725582 1.563981,1.348172 2.90448,2.933297 4.105081,4.608065 0.958649,1.33717 1.787831,2.760671 2.703582,4.124292 -0.04793,0.07651 -0.05536,0.179875 0.02004,0.267709 0.180007,0.210353 0.372273,0.4061 0.574828,0.588063 0.02671,0.03695 0.05209,0.07479 0.07895,0.111364 0.05883,0.08059 0.134464,0.121117 0.210491,0.131971 1.929388,1.537228 4.670555,1.929133 7.059233,1.4537 1.663651,-0.331196 3.214791,-1.093402 4.644264,-1.987453 0.741067,-0.463455 1.460658,-0.966156 2.153821,-1.498527 0.514542,-0.395099 1.308232,-0.894873 1.604065,-1.51161 0.282754,-0.09843 0.538355,0.08572 0.686901,0.343039 0.190578,0.330493 0.110095,0.711116 0.0036,1.058733 z"
   id="path12"
   style="stroke-width:0.139197" />&#10;<path
   style="fill:#53c0a5;stroke-width:0.139197"
   d="m 36.076903,68.996232 c 0.03279,0.257287 1.366811,8.416621 9.20791,10.64658 7.841092,2.229969 15.825989,-4.244287 15.53824,-8.560405 -0.287783,-4.316151 -6.977808,-3.812582 -9.063974,-3.956532 -2.08618,-0.143832 -16.689266,-5.970718 -15.682176,1.870357 z"
   id="path13" />&#10;<path
   style="fill:#53c0a5;stroke-width:0.139197"
   d="m 65.642727,73.600119 c 0.215349,0.01469 2.877448,-0.1438 2.445884,-2.30193 -0.431576,-2.158129 -3.812586,-2.373934 -4.17231,-1.36684 -0.35975,1.007093 -0.359614,3.52497 1.726426,3.66877 z"
   id="path14" />&#10;<path
   style="fill:#53c0a5;stroke-width:0.139197"
   d="m 23.746898,53.563109 c 0.0748,0.279969 -1.285954,7.31402 0.964506,13.10084 2.250402,5.786796 6.188732,8.358825 5.626165,9.966353 -0.562578,1.607535 -5.706508,0.321454 -9.001875,-6.912099 -3.295418,-7.233549 1.44671,-19.7718 2.411204,-16.155094 z"
   id="path15" />&#10;</svg>
