<svg width="96" height="96" version="1.1" viewBox="0 0 96 96" xmlns="http://www.w3.org/2000/svg" xmlns:xlink="http://www.w3.org/1999/xlink" fill="none">
 <rect width="96" height="96" fill="white"/>
 <svg x="4" y="4" width="88" height="88" viewBox="0 0 96 96">
 <style>.st0{fill:#fff}.st1{clip-path:url(#am);fill:url(#ak)}.st2{clip-path:url(#ab);fill:url(#v)}.st3{clip-path:url(#k)}.st4{fill:#c0202e}.st5{clip-path:url(#ay)}.st6{fill:#811719}.st7{clip-path:url(#ax)}.st8{clip-path:url(#aw);fill:#a62026}.st10,.st11,.st9{clip-path:url(#av);fill:#a62026}.st10,.st11{clip-path:url(#au)}.st11{clip-path:url(#at)}.st12{clip-path:url(#as);fill:url(#ar)}.st13{clip-path:url(#aq);fill:url(#ap)}.st14{clip-path:url(#ao);fill:url(#an)}.st15{clip-path:url(#bq);fill:url(#bp)}.st16{clip-path:url(#bn);fill:url(#bm)}.st17{clip-path:url(#al);fill:#811719}.st18{clip-path:url(#SVGID_39_)}.st19{fill:url(#aj)}.st20{clip-path:url(#SVGID_42_)}.st21{fill:url(#ai)}.st22{clip-path:url(#SVGID_45_)}.st23{fill:url(#ah)}.st24{clip-path:url(#SVGID_48_)}.st25{fill:url(#ag)}.st26{clip-path:url(#af)}.st27{fill:#587a9a}.st28{clip-path:url(#ae)}.st29{clip-path:url(#ad)}.st30{clip-path:url(#ac)}.st31{clip-path:url(#SVGID_59_)}.st32{fill:url(#aa)}.st33{clip-path:url(#z)}.st34,.st35,.st36{clip-path:url(#y);fill:#1e76bc}.st35,.st36{clip-path:url(#x)}.st36{clip-path:url(#w)}.st37{clip-path:url(#u)}.st38{clip-path:url(#t)}.st39{clip-path:url(#s)}.st40{clip-path:url(#r)}.st41{clip-path:url(#q)}.st42{clip-path:url(#p)}.st43{clip-path:url(#o)}.st44{clip-path:url(#n)}.st45{clip-path:url(#m)}.st46{clip-path:url(#l)}.st47{clip-path:url(#j)}.st48{fill:url(#i)}.st49{fill:url(#h)}.st50{fill:url(#g)}.st51{fill:url(#f)}.st52{fill:url(#e)}.st53{fill:url(#d)}.st54{fill:url(#c)}.st55{fill:#3f3166}.st56{fill:#7b75aa}.st57{fill:url(#b)}.st58{fill:url(#a)}.st59{fill:#eb5b99}.st60{fill:#f197bf}</style>
 <defs>
  <circle id="bv" cx="3674" cy="2951" r="2114"/>
  <linearGradient id="b" x1="3762" x2="3633" y1="2730" y2="3860" gradientTransform="matrix(.0173 .00362 .00348 -.0175 -20.5 89.2)" gradientUnits="userSpaceOnUse">
   <stop stop-color="#d9eef6" offset="0"/>
   <stop stop-color="#799acd" offset="1"/>
  </linearGradient>
  <linearGradient id="a" x1="4479" x2="4602" y1="2553" y2="2958" gradientTransform="matrix(.0146 .00363 .00322 -.0165 -13.1 84.7)" gradientUnits="userSpaceOnUse">
   <stop stop-color="#d9eef6" offset="0"/>
   <stop stop-color="#799acd" offset="1"/>
  </linearGradient>
  <linearGradient id="c" x1="5351" x2="5189" y1="2047" y2="3464" gradientTransform="matrix(.0132 -.00143 -2.85e-5 -.0149 -1.16 91.9)" gradientUnits="userSpaceOnUse">
   <stop stop-color="#d9eef6" offset="0"/>
   <stop stop-color="#799acd" offset="1"/>
  </linearGradient>
  <clipPath id="z">
   <use overflow="visible" xlink:href="#SVGID_61_"/>
  </clipPath>
  <clipPath id="y">
   <use overflow="visible" xlink:href="#SVGID_63_"/>
  </clipPath>
  <linearGradient id="g" x1="5137" x2="3875" y1="5584" y2="2781" gradientTransform="matrix(.0146 .00363 .00322 -.0165 -13.1 84.7)" gradientUnits="userSpaceOnUse">
   <stop stop-color="#d9eef6" offset="0"/>
   <stop stop-color="#799acd" offset="1"/>
  </linearGradient>
  <clipPath id="af">
   <use overflow="visible" xlink:href="#SVGID_50_"/>
  </clipPath>
  <clipPath id="ad">
   <use overflow="visible" xlink:href="#SVGID_54_"/>
  </clipPath>
  <clipPath id="ac">
   <use overflow="visible" xlink:href="#SVGID_56_"/>
  </clipPath>
  <clipPath id="x">
   <use overflow="visible" xlink:href="#SVGID_65_"/>
  </clipPath>
  <clipPath id="al">
   <use overflow="visible" xlink:href="#SVGID_36_"/>
  </clipPath>
  <clipPath id="w">
   <use overflow="visible" xlink:href="#SVGID_67_"/>
  </clipPath>
  <clipPath id="m">
   <use overflow="visible" xlink:href="#SVGID_85_"/>
  </clipPath>
  <clipPath id="o">
   <use overflow="visible" xlink:href="#SVGID_81_"/>
  </clipPath>
  <clipPath id="l">
   <use overflow="visible" xlink:href="#SVGID_87_"/>
  </clipPath>
  <clipPath id="j">
   <use overflow="visible" xlink:href="#SVGID_89_"/>
  </clipPath>
  <clipPath id="q">
   <use overflow="visible" xlink:href="#SVGID_77_"/>
  </clipPath>
  <linearGradient id="i" x1="3606" x2="3e3" y1="6187" y2="4197" gradientTransform="matrix(.0146 .00363 .00322 -.0165 -13.1 84.7)" gradientUnits="userSpaceOnUse">
   <stop stop-color="#d9eef6" offset="0"/>
   <stop stop-color="#799acd" offset="1"/>
  </linearGradient>
  <linearGradient id="h" x1="3635" x2="2521" y1="5807" y2="3363" gradientTransform="matrix(.0146 .00363 .00322 -.0165 -13.1 84.7)" gradientUnits="userSpaceOnUse">
   <stop stop-color="#fffffb" offset=".049"/>
   <stop stop-color="#d9eef6" offset=".282"/>
   <stop stop-color="#799acd" offset="1"/>
  </linearGradient>
  <clipPath id="n">
   <use overflow="visible" xlink:href="#SVGID_83_"/>
  </clipPath>
  <clipPath id="r">
   <use overflow="visible" xlink:href="#SVGID_75_"/>
  </clipPath>
  <radialGradient id="ag" cx="5565" cy="831" r="5283" gradientTransform="matrix(.0146 .00361 .0032 -.0164 -12.8 84.5)" gradientUnits="userSpaceOnUse">
   <stop stop-color="#fffffb" offset=".003"/>
   <stop stop-color="#d9eef6" offset=".17"/>
   <stop stop-color="#d2e8f3" offset=".201"/>
   <stop stop-color="#a3bddf" offset=".413"/>
   <stop stop-color="#85a3d2" offset=".574"/>
   <stop stop-color="#799acd" offset=".663"/>
  </radialGradient>
  <clipPath id="ba">
   <use transform="matrix(.015 0 0 .0169 .0336 -.0942)" overflow="visible" xlink:href="#SVGID_47_"/>
  </clipPath>
  <radialGradient id="ah" cx="4059" cy="1272" r="2516" gradientTransform="matrix(.0146 .00361 .0032 -.0164 -12.8 84.5)" gradientUnits="userSpaceOnUse">
   <stop stop-color="#fffffb" offset=".003"/>
   <stop stop-color="#d9eef6" offset=".17"/>
   <stop stop-color="#d2e8f3" offset=".201"/>
   <stop stop-color="#a3bddf" offset=".413"/>
   <stop stop-color="#85a3d2" offset=".574"/>
   <stop stop-color="#799acd" offset=".663"/>
  </radialGradient>
  <clipPath id="az">
   <use transform="matrix(.015 0 0 .0169 .0336 -.0942)" overflow="visible" xlink:href="#SVGID_44_"/>
  </clipPath>
  <linearGradient id="aa" x1="5143" x2="2961" y1="1948" y2="137" gradientTransform="matrix(.0146 .00363 .00322 -.0165 -13.1 84.7)" gradientUnits="userSpaceOnUse">
   <stop stop-color="#e83e5c" offset=".129"/>
   <stop stop-color="#c0202e" offset=".405"/>
  </linearGradient>
  <clipPath id="bd">
   <use transform="matrix(.015 0 0 .0169 .0336 -.0942)" overflow="visible" xlink:href="#SVGID_58_"/>
  </clipPath>
  <linearGradient id="aj" x1="3326" x2="4028" y1="833" y2="833" gradientTransform="matrix(.0146 .00363 .00322 -.0165 -13.1 84.7)" gradientUnits="userSpaceOnUse">
   <stop stop-color="#d9eef6" offset="0"/>
   <stop stop-color="#799acd" offset="1"/>
  </linearGradient>
  <clipPath id="bc">
   <use transform="matrix(.015 0 0 .0169 .0336 -.0942)" overflow="visible" xlink:href="#SVGID_38_"/>
  </clipPath>
  <linearGradient id="ai" x1="5299" x2="5716" y1="1258" y2="1258" gradientTransform="matrix(.0146 .00363 .00322 -.0165 -13.1 84.7)" gradientUnits="userSpaceOnUse">
   <stop stop-color="#d9eef6" offset="0"/>
   <stop stop-color="#799acd" offset="1"/>
  </linearGradient>
  <clipPath id="bb">
   <use transform="matrix(.015 0 0 .0169 .0336 -.0942)" overflow="visible" xlink:href="#SVGID_41_"/>
  </clipPath>
 </defs>
 <clipPath id="am">
  <use overflow="visible" xlink:href="#bv"/>
 </clipPath>
 <linearGradient id="ak" x1="8172" x2="8172" y1="8171" y2="-3050" gradientTransform="matrix(1 0 0 -1 0 5679)" gradientUnits="userSpaceOnUse">
  <stop stop-color="#a780a0" offset=".049"/>
  <stop stop-color="#b490ac" offset=".245"/>
  <stop stop-color="#d4bacd" offset=".627"/>
  <stop stop-color="#d8bed1" offset=".661"/>
  <stop stop-color="#eed5b9" offset=".935"/>
 </linearGradient>
 <defs>
  <circle id="bl" cx="3674" cy="2951" r="2114"/>
 </defs>
 <clipPath id="ab">
  <use overflow="visible" xlink:href="#bl"/>
 </clipPath>
 <linearGradient id="v" x1="4815" x2="2846" y1="7866" y2="-1074" gradientTransform="matrix(1 0 0 -1 0 5679)" gradientUnits="userSpaceOnUse">
  <stop stop-color="#fff" offset=".294"/>
  <stop stop-color="#fff" stop-opacity="0" offset=".864"/>
 </linearGradient>
 <defs>
  <circle id="bf" cx="3674" cy="2951" r="2114"/>
 </defs>
 <clipPath id="k">
  <use overflow="visible" xlink:href="#bf"/>
 </clipPath>
 <defs>
  <circle id="be" cx="3674" cy="2951" r="2114"/>
 </defs>
 <clipPath id="ay">
  <use overflow="visible" xlink:href="#be"/>
 </clipPath>
 <defs>
  <circle id="ca" cx="3674" cy="2951" r="2114"/>
 </defs>
 <clipPath id="ax">
  <use overflow="visible" xlink:href="#ca"/>
 </clipPath>
 <defs>
  <circle id="bz" cx="3674" cy="2951" r="2114"/>
 </defs>
 <clipPath id="aw">
  <use overflow="visible" xlink:href="#bz"/>
 </clipPath>
 <defs>
  <circle id="by" cx="3674" cy="2951" r="2114"/>
 </defs>
 <clipPath id="av">
  <use overflow="visible" xlink:href="#by"/>
 </clipPath>
 <defs>
  <circle id="bx" cx="3674" cy="2951" r="2114"/>
 </defs>
 <clipPath id="au">
  <use overflow="visible" xlink:href="#bx"/>
 </clipPath>
 <defs>
  <circle id="bw" cx="3674" cy="2951" r="2114"/>
 </defs>
 <clipPath id="at">
  <use overflow="visible" xlink:href="#bw"/>
 </clipPath>
 <rect width="96" height="96" fill="#fff" stroke-width=".917"/>
 <path class="st11" d="m3945 5784s-202-100-449 132c0 0 392-584 646-265" clip-path="url(#at)" fill="#fff"/>
 <defs>
  <circle id="bu" cx="3674" cy="2951" r="2114"/>
 </defs>
 <clipPath id="as">
  <use overflow="visible" xlink:href="#bu"/>
 </clipPath>
 <linearGradient id="ar" x1="3773" x2="2152" y1="1196" y2="2210" gradientTransform="matrix(.977 .215 .215 -.977 -876 5018)" gradientUnits="userSpaceOnUse">
  <stop stop-color="#e83e5c" offset=".129"/>
  <stop stop-color="#c0202e" offset=".405"/>
 </linearGradient>
 <defs>
  <circle id="bt" cx="3674" cy="2951" r="2114"/>
 </defs>
 <clipPath id="aq">
  <use overflow="visible" xlink:href="#bt"/>
 </clipPath>
 <linearGradient id="ap" x1="5486" x2="-380" y1="1875" y2="819" gradientTransform="matrix(.977 .215 .215 -.977 -876 5018)" gradientUnits="userSpaceOnUse">
  <stop stop-color="#e83e5c" offset=".129"/>
  <stop stop-color="#c0202e" offset=".405"/>
 </linearGradient>
 <defs>
  <circle id="bs" cx="3674" cy="2951" r="2114"/>
 </defs>
 <clipPath id="ao">
  <use overflow="visible" xlink:href="#bs"/>
 </clipPath>
 <linearGradient id="an" x1="5123" x2="3617" y1="1178" y2="-735" gradientTransform="matrix(.977 .215 .215 -.977 -876 5018)" gradientUnits="userSpaceOnUse">
  <stop stop-color="#e83e5c" offset="0"/>
  <stop stop-color="#c0202e" offset=".405"/>
 </linearGradient>
 <defs>
  <circle id="br" cx="3674" cy="2951" r="2114"/>
 </defs>
 <clipPath id="bq">
  <use overflow="visible" xlink:href="#br"/>
 </clipPath>
 <linearGradient id="bp" x1="4348" x2="4348" y1="153" y2="153" gradientTransform="matrix(.977 .215 .215 -.977 -876 5018)" gradientUnits="userSpaceOnUse">
  <stop stop-color="#e83e5c" offset=".129"/>
  <stop stop-color="#c0202e" offset=".405"/>
 </linearGradient>
 <defs>
  <circle id="bo" cx="3674" cy="2951" r="2114"/>
 </defs>
 <clipPath id="bn">
  <use overflow="visible" xlink:href="#bo"/>
 </clipPath>
 <linearGradient id="bm" x1="5300" x2="5300" y1="489" y2="489" gradientTransform="matrix(.977 .215 .215 -.977 -876 5018)" gradientUnits="userSpaceOnUse">
  <stop stop-color="#e83e5c" offset=".129"/>
  <stop stop-color="#c0202e" offset=".405"/>
 </linearGradient>
 <defs>
  <circle id="bk" cx="3674" cy="2951" r="2114"/>
 </defs>
 <clipPath id="ae">
  <use overflow="visible" xlink:href="#bk"/>
 </clipPath>
 <path class="st28 st27" d="m4562 5345c74.8 24.5 169-22.8 230-63 46.6-30.9 138-103 92.3-168-38.3-54-114 4.5-71.8 55.4-15.3-18.3-0.9-28.4-8.8-12.9-5.1 9.9-12.6 18-20 26.2-17.9 19.7-39.1 36.4-60.7 51.8-38.9 27.7-96.6 73.3-148 65.4-29.6-4.3-42 35.8-12.6 45.4z" clip-path="url(#ae)"/>
 <defs>
  <circle id="bj" cx="3674" cy="2951" r="2114"/>
 </defs>
 <clipPath id="u">
  <use overflow="visible" xlink:href="#bj"/>
 </clipPath>
 <path class="st37 st6" d="m3981 5840c10.6-6.5 7-4.9-11 5-15.3 2.2-30.5 4.5-45.8 6.7 0.4 0.1 0.9 0.2 1.3 0.3-20.4-16.1-40.8-32.3-61.1-48.4l0.9-32.5c-4.5 21.4-6.4 40.9 6.4 60.2 11.8 17.9 31.9 27.7 52.8 29.7 43.9 4.1 102-27.6 112-73.8 4-19 7-31.2 2.9-50.4-6.5-30.9-33.9-42.4-61.1-48.4-28.2-6.2-58.4 10.1-81.2 24.6-36.3 23-63.9 75.5-37.4 116 27.2 41 84.9 34.2 121 11.2z" clip-path="url(#u)"/>
 <defs>
  <circle id="bi" cx="3674" cy="2951" r="2114"/>
 </defs>
 <clipPath id="t">
  <use overflow="visible" xlink:href="#bi"/>
 </clipPath>
 <path class="st38 st6" d="m3590 5952c67.8-101 233-136 343-105 89.3 24.9 120-104 37.5-136-164-63-401 27.1-493 175-45 72.1 66.1 135 113 65.9z" clip-path="url(#t)"/>
 <defs>
  <circle id="bh" cx="3674" cy="2951" r="2114"/>
 </defs>
 <clipPath id="s">
  <use overflow="visible" xlink:href="#bh"/>
 </clipPath>
 <path class="st39 st6" d="m3565 5913c67.9 0 67.9-105 0-105s-67.9 105 0 105z" clip-path="url(#s)"/>
 <defs>
  <circle id="bg" cx="3674" cy="2951" r="2114"/>
 </defs>
 <clipPath id="p">
  <use overflow="visible" xlink:href="#bg"/>
 </clipPath>
 <path class="st42 st6" d="m3013 5403c132 0 22.8-48.1-46.4-48.1-132 0-22.8 48.1 46.4 48.1z" clip-path="url(#p)"/>
 <radialGradient id="f" cx="4624" cy="4026" r="4831" gradientTransform="matrix(.0146 .00361 .0032 -.0164 -12.8 84.5)" gradientUnits="userSpaceOnUse">
  <stop stop-color="#fffffb" offset=".003"/>
  <stop stop-color="#d9eef6" offset=".17"/>
  <stop stop-color="#d2e8f3" offset=".201"/>
  <stop stop-color="#a3bddf" offset=".413"/>
  <stop stop-color="#85a3d2" offset=".574"/>
  <stop stop-color="#799acd" offset=".663"/>
 </radialGradient>
 <linearGradient id="e" x1="1297" x2="1216" y1="1418" y2="6812" gradientTransform="matrix(.0113 .0028 .00322 -.0165 -4.15 86.9)" gradientUnits="userSpaceOnUse">
  <stop stop-color="#d9eef6" offset="0"/>
  <stop stop-color="#799acd" offset="1"/>
 </linearGradient>
 <linearGradient id="d" x1="1399" x2="1243" y1="4774" y2="1623" gradientTransform="matrix(.0113 .0028 .00322 -.0165 -4.15 86.9)" gradientUnits="userSpaceOnUse">
  <stop stop-color="#fffffb" offset=".049"/>
  <stop stop-color="#d9eef6" offset=".282"/>
  <stop stop-color="#799acd" offset="1"/>
 </linearGradient>
 <g transform="matrix(.917 0 0 .917 -.0312 .0878)">
  <g transform="translate(4.36 4.36)">
   <g>
    <path class="st0" d="m63.8 4.96c-22-5.44-43.7 10.2-48.5 35-4.82 24.8 9.07 49.2 31 54.7 22 5.44 43.7-10.2 48.5-35 4.82-24.7-9.07-49.2-31-54.7zm-15.5 79.7c-17.1-4.23-27.9-23.3-24.2-42.6 3.76-19.3 20.7-31.5 37.8-27.2 17.1 4.23 27.9 23.3 24.2 42.6-3.76 19.3-20.7 31.5-37.8 27.2z"/>
    <path class="st0" d="m55.2 95.9c-2.95 0-5.91-0.362-8.86-1.09-10.7-2.64-19.8-9.81-25.7-20.2-5.89-10.4-7.84-22.7-5.5-34.7 2.34-12 8.7-22.3 17.9-29 9.21-6.64 20.2-8.84 30.8-6.2 10.7 2.64 19.8 9.81 25.7 20.2 5.89 10.4 7.84 22.7 5.5 34.7-2.34 12-8.7 22.3-17.9 29-6.66 4.81-14.2 7.29-22 7.29zm-0.16-91.8c-7.65 0-15.1 2.45-21.7 7.21-9.11 6.57-15.4 16.8-17.7 28.7-2.32 11.9-0.388 24.1 5.44 34.4 5.83 10.3 14.9 17.4 25.4 20 10.6 2.61 21.4 0.438 30.5-6.13 9.11-6.57 15.4-16.8 17.7-28.7 2.32-11.9 0.388-24.1-5.44-34.4-5.83-10.3-14.9-17.4-25.4-20-2.92-0.722-5.85-1.08-8.77-1.08zm0.142 81.6c-2.3 0-4.61-0.281-6.91-0.85-8.32-2.06-15.4-7.65-20-15.7-4.59-8.09-6.11-17.7-4.29-27.1 3.77-19.4 20.8-31.7 38-27.4 17.2 4.26 28.1 23.5 24.3 42.8-1.83 9.38-6.79 17.4-14 22.6-5.2 3.75-11.1 5.68-17.1 5.68zm-0.0675-71.5c-14.5 0-27.5 11.3-30.7 27.9-1.81 9.26-0.303 18.8 4.23 26.7 4.53 7.99 11.6 13.5 19.8 15.5 8.22 2.03 16.6 0.34 23.7-4.77 7.09-5.11 12-13 13.8-22.3 3.73-19.1-7.04-38.1-24-42.3-2.27-0.563-4.53-0.832-6.76-0.832z"/>
    <g stroke-width="62.8">
     <path class="st1" transform="matrix(.015 0 0 .0169 .0336 -.0942)" d="m-125 544h16593v14275h-16593z" clip-path="url(#am)" fill="url(#ak)"/>
     <path class="st2" transform="matrix(.015 0 0 .0169 .0336 -.0942)" d="m6492 4847c-718 130-1396 251-2039 366-694 124-1349 241-1967 352-560 100-1092 196-1599 288-377 68.4-741 135-1092 201-111 20.8-220 41.8-328 63.3-45.2 9.2-302 75.5-239-123 24-74.9 93.1-51.1 126-37.2 2.7-114 59.1-109 98-114-21.5-32.1-73.8-10.2-80.9-73.7-9.6-82.3 59.1-151 87.1-175 68.2-57.5 218-72.6 226-280-35.8 36-102 37-86.4-85.6 12.3-99.8 66-69.8 98.1-56.9-44-124-105-193-80.1-385 10.2-79.9 47.8-214 91.5-252 25.4-22.6 47.4 11.4 67.2 0.6 29.8-16 34.6-49.7 55.3-87.1 42.4-77.2 63.5-98.4 74.6-203 13.2-124 5.2-208 76.4-286 53.8-59.8 148-89.1 207-94.8 59.4-5.8 86.7 71.6 140 75.8 110 8.9 89.7-334 215-251-21.6-54.1-33.6-138 8.8-194 37.9-50.2 97.1 4 142-16.8-34.9-208 69.5-221 158-260 35.4-144 137-71.4 177-10.3-57.6-115-54.1-330-6.8-487 72.1-238 244-347 371-369 150-25.8 282 36.7 364 249 39.4 102 136 400 66.9 542 56.3-198 186-241 282-181 116 72.6 167 234 121 454 64.2-30 150 75 135 196 115-238 237-127 361-42.4 3-290 310-300 303-22.4 84.1-61.5 157-111 248-105 63 4.1 135 102 199 79.2 100-35.9 50.6-181 63.2-304 8.7-81.8 26.2-163 58.3-233 85.1-187 220-206 347-205 138 1.5 273 34.5 371 188 65.1 102 147 309 85.9 478 48.2-157 204 16.2 154 162 77.9-36.8 312 76.9 200 236 82.7 59.3 159-75.4 239-133 112-81 214-106 330-127 196-35 378 34.5 436 331 34.8-69.3 115-109 169-97.8 73.5 14.6 78.2 111 143 82.2 58.9-26.2 112-132 184-156 72.6-23.5 121 1.4 127 140 6.5 145-150 427 49.2 270 72.5-57.3 82.7-95.5 171-87.8 80 6.5 141 25.6 203 78.6 59.6-279 310-303 468-308" clip-path="url(#ab)" fill="url(#v)"/>
     <path class="st3 st4" transform="matrix(.015 0 0 .0169 .0336 -.0942)" d="m4568 5357c400-164 250-231 250-231l193-131c945-633-45-1137-45-1137-1132-491-2742 212-2742 212-1229 623 272 1091 272 1091 619 179 498 179 498 179m580 517c282-181 372-74.4 372-74.4m-817-1110-214-35.8s-114-112-263 54.8l-227-32.5c13.7-23 461-323 695-324 0 0 79.7-86.5 39.1 217zm1518-71.2-22.6-213c0.1 0.1 476 122 22.6 213z" clip-path="url(#k)"/>
     <path class="st5 st6" transform="matrix(.015 0 0 .0169 .0336 -.0942)" d="m2920 5274c-249-65.6-486-174-712-296-124-67.6-247-148-330-264-93.5-131-1.7-252 93.4-347 292-290 794-424 1194-446 126-7 128-203 0-197-510 23.4-1172 226-1454 685-136 221 36.3 433 209 561 276 204 658 284 988 350 29.6 5.9 42.4-38 12.5-45.8z" clip-path="url(#ay)"/>
     <path class="st7 st6" transform="matrix(.015 0 0 .0169 .0336 -.0942)" d="m4991 5006c178-39.3 295-169 397-312 138-194 139-358 25.4-565-192-348-693-519-1068-502-89.5 3.9-119 150-22.2 164 295 42.2 593 99 830 295 178 148 254 335 130 547-84 144-187 241-302 357-7.4 7.4 0 18.8 9.5 16.7z" clip-path="url(#ax)"/>
     <path class="st8" transform="matrix(.015 0 0 .0169 .0336 -.0942)" d="m2014 4229s-806 445 453 937c0 0 87.4-5.4 117-140 0 0-1417-305-53.1-935 0-0.1 4.2-159-517 139z" clip-path="url(#aw)"/>
     <path class="st9" transform="matrix(.015 0 0 .0169 .0336 -.0942)" d="m4520 4137c-16.1-16.8 938 221 383 521l-112-108s304-46.2-192-155c0-0.1 13.2-163-78.9-258z" clip-path="url(#av)"/>
     <path class="st10" transform="matrix(.015 0 0 .0169 .0336 -.0942)" d="m3036 5852s349-353 357-735c0 0 135-581-229-811" clip-path="url(#au)"/>
     <path class="st12" transform="matrix(.015 0 0 .0169 .0336 -.0942)" d="m2329 4586s289-475 792-456c0 0 306 75.1-32.2 147 0 0-380 47.4-760 310z" clip-path="url(#as)" fill="url(#ar)"/>
     <path class="st13" transform="matrix(.015 0 0 .0169 .0336 -.0942)" d="m4682 3957c-22.1-8.7 1123 208 422 777 0 0-63.4 78.4-131 1.9 0.1 0 587-432-290-779z" clip-path="url(#aq)" fill="url(#ap)"/>
     <path class="st14" transform="matrix(.015 0 0 .0169 .0336 -.0942)" d="m4541 4549s-16.1 692-196 1036c0 0-360-287-714-60.9 0 0 310-356 94.2-611 0 0 313 468 505 359 0-0.2 204-203 311-723z" clip-path="url(#ao)" fill="url(#an)"/>
     <path class="st17" transform="matrix(.015 0 0 .0169 .0336 -.0942)" d="m1869 4316s461-305 1189-242c0 0 1946 215 1479-359l-242-14.4-670 201c0-0.1-756-347-1756 414z" clip-path="url(#al)"/>
    </g>
    <g>
     <path class="st19" d="m40 79.2s1.4-2.27 3.12-0.923c0 0 5.74-0.0406 5.75 4.12 0 0 0.0345 8.94-4.6 8.18 0 0-1.27 0.225-1.67-1.26l-5.15-1.97c-0.0015-0.0017 3.73-3.39 2.54-8.15z" clip-path="url(#bc)" fill="url(#aj)"/>
     <path class="st21" d="m71.5 77.2s-2.1 0.712-2.19 2.33l-0.576 10.5s5.03-1.6 3.49-3.22l2.5-2.31c0.0015 0 1.18-5.33-3.23-7.27z" clip-path="url(#bb)" fill="url(#ai)"/>
     <path class="st23" d="m42.8 79.9s4.64-1.38 4.68 2.42c0 0 0.472 4.13-0.843 5.48-1.31 1.35-6.22 1.32-3.93-4.15 0.0015 0.0017 1.53-2.88 0.09-3.75z" clip-path="url(#az)" fill="url(#ah)"/>
     <path class="st25" d="m72.2 79.2s3.13 1.78 1.09 4.19c0 0-2.6 2.39-2.98 3.81 0 0-1.79-5.75 1.89-8z" clip-path="url(#ba)" fill="url(#ag)"/>
    </g>
    <g stroke-width="62.8">
     <path class="st26 st27" transform="matrix(.015 0 0 .0169 .0336 -.0942)" d="m3772 3904c-88.3-54.2-162-94.3-266-112-94.2-16.1-192 0.2-288-10.4-45.8-5.1-53.6 67.9-10.7 78.9 182 46.9 374 38.6 560 59.6 9 1 11.1-12 4.4-16.1z" clip-path="url(#af)"/>
     <path class="st29 st6" transform="matrix(.015 0 0 .0169 .0336 -.0942)" d="m4619 4436c60.4 5.4 128 26.4 175 66.1 9.4 7.9 33.7 35 33.2 34.3-11.8-15.4 42.2-64.5 16.2-54.6-16.9 6.5-36.1 8.4-53.8 10.9-74.2 10.7-56.9 139 17.7 131 48.3-5.1 110-12.3 138-58.6 24.6-40.9 10.4-80.6-16.7-115-28.6-36.3-89.4-49-131-66-56.3-23.1-118-31.5-179-28.6-52.2 2.5-51 75.9 0.1 80.4z" clip-path="url(#ad)"/>
     <path class="st30 st27" transform="matrix(.015 0 0 .0169 .0336 -.0942)" d="m4815 4526c-37.2 5.2-74 12.3-110 23.1-10.6 3.2-20.9 8-31.4 11.8-5.5 2-32.1 6.9-19.7 6-81.4 6-63.8 128 14.8 109 61.7-14.5 115-63.8 171-91.5 35.8-17.6 8.2-63.2-24.7-58.7z" clip-path="url(#ac)"/>
    </g>
    <path class="st32" d="m50.5 72.4c-0.151-0.414 9.15-4.86 17.1-0.897 0 0 0.708 7.53-6.59 13.5 0 0-7.97-5.76-10.5-12.6z" clip-path="url(#bd)" fill="url(#aa)"/>
    <path class="st33 st0" transform="matrix(.015 0 0 .0169 .0336 -.0942)" d="m3503 4332c-8.3-20 497-234 928-43.2 0 0 38.5 363-358 652 0 0-433-278-570-608z" clip-path="url(#z)" stroke-width="62.8"/>
   </g>
   <g fill="#1e76bc" stroke-width="62.8">
    <path class="st34" transform="matrix(.00322 -.0165 .0146 .00363 -15.5 127)" d="m4296 4419a121 118 0 0 1-121 118 121 118 0 0 1-121-118 121 118 0 0 1 121-118 121 118 0 0 1 121 118z" clip-path="url(#y)"/>
    <path class="st35" transform="matrix(.015 0 0 .0169 .0336 -.0942)" d="m4066 4694a77.2 77.2 0 0 1-77.2 77.2 77.2 77.2 0 0 1-77.2-77.2 77.2 77.2 0 0 1 77.2-77.2 77.2 77.2 0 0 1 77.2 77.2z" clip-path="url(#x)"/>
    <path class="st36" transform="matrix(.015 0 0 .0169 .0336 -.0942)" d="m3857 4416a55.1 55.1 0 0 1-55.1 55.1 55.1 55.1 0 0 1-55.1-55.1 55.1 55.1 0 0 1 55.1-55.1 55.1 55.1 0 0 1 55.1 55.1z" clip-path="url(#w)"/>
   </g>
   <g>
    <g stroke-width="62.8">
     <path class="st40 st6" transform="matrix(.015 0 0 .0169 .0336 -.0942)" d="m3094 4335c11.7 109-30.6 214-20.6 324 5 54.6 78.7 84.3 109 29.6 59.6-107 65.4-252 28-369-19.5-60.9-124-53.6-117 15.7z" clip-path="url(#r)"/>
     <path class="st41 st27" transform="matrix(.015 0 0 .0169 .0336 -.0942)" d="m4785 5135c61.3 16.3 128-9.2 174-50.2 60.5-53.2 84.1-119 54.6-196-6.8-17.8-33.8-21-39.4 0-12.1 46.1-24.7 99-57.5 135-35.9 39.6-80 91.1-132 108-1.7 0.5-1.8 3 0 3.5z" clip-path="url(#q)"/>
     <path class="st43 st6" transform="matrix(.015 0 0 .0169 .0336 -.0942)" d="m2668 4688c-78.4-24.7-161-50.5-231-95.1 5.4 41.4 10.7 82.8 16 124 219-170 471-227 724-322 67.1-25.1 62.8-137-17.9-132-290 15.7-592 168-818 342-71.4 55.2 10.4 141 77 132 79.5-10.9 164-1 244-7 24.2-1.9 29.8-35.1 5.8-42.6z" clip-path="url(#o)"/>
     <path class="st44 st27" transform="matrix(.015 0 0 .0169 .0336 -.0942)" d="m2636 4710c35 185-68.3 288-172 423-25.7 33.4 21.8 66.4 52 52 178-84.5 236-316 186-493-12.1-43-74.3-24.6-66.1 18.3z" clip-path="url(#n)"/>
     <path class="st45 st27" transform="matrix(.015 0 0 .0169 .0336 -.0942)" d="m4774 4581c134 65.8 231 241 187 389-14.3 47.8 57.8 66.5 73.9 20.4 62.4-179-78.4-384-247-441-18.5-6.3-30.9 23-13.3 31.6z" clip-path="url(#m)"/>
     <path class="st46 st27" transform="matrix(.015 0 0 .0169 .0336 -.0942)" d="m2654 4717c34.8-21.2 69.4-53.8 109-65.7-12.9-5.9-12.1-5.7 2.3 0.5 9.7 2.6 18.5 0.3 28.1 2.1 26.5 4.9 53.1 18.2 79.8 24.8 37.4 9.2 60.2-34.4 36.1-62-32.8-37.6-103-82.3-155-51.7-48.8 28.6-85.7 79.1-127 117-18.7 17.3 5.4 48 26.9 34.9z" clip-path="url(#l)"/>
     <path class="st47 st27" transform="matrix(.015 0 0 .0169 .0336 -.0942)" d="m2809 5288c7.4 99.2 103 121 189 119 149-4.3 255-117 285-257 27.3-127 60.2-333-29.8-444-91.4-112-270-133-404-107-69.4 13.4-47.4 112 15.8 117 73.5 5.2 144 1.9 217 19.6 120 29.2 112 162 107 258-5.2 97.8-10.6 193-81.9 267-36.7 38.2-220 113-253 20.4-8.3-23.2-47.3-21.4-45.3 6z" clip-path="url(#j)"/>
    </g>
    <g>
     <path class="st48" d="m44 0.962s-13.2-1.3-6.81 5.39c0 0-0.106 2.33 12.8 7.51 0 0 11.4 5.97 10.6 15.2l2.46 0.806s2.25-8.88-4.22-17.8c0 0-5.81-10.5-14.9-11.2z" fill="url(#i)"/>
     <path class="st49" d="m50.1 3.65c-0.445-0.282-6.98-4.48-11.3-1.82 0 0-6.48 1.94 10.8 8.18 0 0 7.69 1.71 12.1 14.8l1.85 1.25s1.32-13-13.4-22.4z" fill="url(#h)"/>
     <path class="st27" d="m61 28.3c0.607-7.02-4.82-11.6-9.63-14.9-2.6-1.77-5.64-2.68-8.45-3.89-1.36-0.588-8.98-5.14-5.26-6.8 4.78-2.13 10.6 0.357 14.6 3.33 3.39 2.56 6 6.34 8.04 10.3 1.21 2.32 2.13 4.76 2.32 7.46 0.153 2.16-0.327 4.32-0.214 6.49 0.045 0.884 1.1 1.04 1.35 0.206 2.8-9.3-2.12-18.1-8.14-24.3-4.76-4.84-10.7-7.1-17.1-6.03-1.55 0.262-3.83 1.2-3.93 3.31-0.138 2.96 2.62 5.19 4.6 6.52 3.49 2.36 7.66 3.04 11.2 5.16 4.39 2.59 9.7 7.12 10.1 13.2 0.0225 0.306 0.393 0.301 0.418 0z"/>
     <path class="st50" d="m53 18.8s-20.4 10.9-19.6 37.2c0 0 3.48 6.59 19.6 9.16 0 0 8.56 4.98 14.4-2.33 0 0 13.4-6.16 12.7-14.7 0 0-9.71-25.1-27.3-27 3e-3 0.0017-0.489-1.55 0.132-2.29z" fill="url(#g)"/>
     <path class="st51" d="m50.4 24.1s-34.2 34 6.02 38.4c0 0 16.9 0.428 23.6-11.7 1.27-2.31-2.02-8.91-7.05-15.2 0 0-15.5-20.7-22.5-11.5z" fill="url(#f)"/>
     <path class="st27" d="m63 65.8c4.17-2.95 9.42-4.02 12.7-8.44 0.315-0.421-0.075-1.04-0.528-0.771-4.27 2.58-9.06 4.85-12.4 8.87-0.148 0.176 0.045 0.48 0.237 0.343z"/>
     <path class="st27" d="m53 17.8c-9.41 5.1-17 15.4-19.7 26.7-0.489 2.05-0.747 4.17-0.923 6.28-0.123 1.46-0.621 4.67 0.039 5.97 0.43 0.85 1.2 1.52 1.87 2.11 5.77 5.08 14.4 6.21 21.4 7.03 0.838 0.098 2.58-1.14 1.04-1.32-6.79-0.801-14.6-1.9-20.3-6.49-0.678-0.543-1.36-1.2-1.81-2-0.589-1.04-0.0075-4.43 0.069-5.68 0.157-2.56 0.646-5.08 1.28-7.54 2.62-10.1 9.9-19.6 18.3-24.1 1.4-0.755-0.55-1.36-1.33-0.941z"/>
     <path class="st52" d="m43.4 32.1s0.139-17.6-21.1-19.6c0 0-12.1-0.843-19.1 8.11 0 0-3.45 4.1-1.73 6.69 0 0 1.04 1.19 8.5-0.0608 0 0 25.5-5.92 31.5 7.04-0.0015-0.0017 1.79 0.597 1.91-2.16z" fill="url(#e)"/>
     <path class="st53" d="m7.54 19.5s-3.91 6.03 6.86 4.26c0 0 16.4-5.2 26.2 4.72 0.72 0.73 1.03-0.308 0.586-1.62-5.86-17.5-28.3-16.7-33.7-7.35z" fill="url(#d)"/>
     <path class="st27" d="m42.1 34.5c-2.5-7.59-10.5-9.17-16.9-9.61-4.48-0.308-9.01 0.436-13.4 1.11-1.96 0.297-3.92 0.642-5.89 0.872-0.687 0.0794-1.37 0.0879-2.06 0.0794-2.15-0.027-1.87-2.05-1.08-3.55 4.14-7.81 13.9-10.1 21.3-9.4 4.52 0.423 9.07 2.45 12.6 5.57 3.82 3.33 5.13 7.86 5.83 13 0.175 1.31 2.08 0.987 2.03-0.309-0.859-21.9-29.3-26.3-41.2-13.1-1.88 2.08-4.38 5.41-2.92 8.5 1.24 2.63 6.11 1.35 8.06 1.02 11.1-1.84 24.8-4.47 33.1 6.14 0.192 0.247 0.603-0.0118 0.498-0.328z"/>
     <path class="st27" d="m53.4 17.7c-0.864 0.847-1.84 2.27-1.71 3.64 0.165 1.66 2.3 1.47 3.32 1.63 3.21 0.515 6.26 2.55 8.86 4.6 2.79 2.21 5.23 4.96 7.44 7.87 1.37 1.81 2.6 3.75 3.78 5.72 0.766 1.28 1.47 2.6 2.16 3.93 0.543 1.03 1.99 3.05 2.09 4.23 0.447 5.57-7.89 9.95-11.5 11.7-0.78 0.39-1.82 3.28-0.76 2.75 5.33-2.66 11.5-6.54 13.6-13.1 0.331-1.03 0.591-2.15 0.526-3.26-0.0974-1.71-1.97-4.26-2.74-5.73-1.3-2.48-2.77-4.85-4.33-7.13-3.64-5.31-8.21-10.1-13.7-12.9-1.25-0.637-6.2-2.59-6.9-1.9 0.757-0.739 1.2-3.45-0.205-2.08z"/>
     <path class="st54" d="m70.7 45.4c0.265 2.57-0.451 4.97-1.56 5.47-1.07 0.482-2.18-0.982-2.52-3.35-0.36-2.48 0.235-5.12 1.38-5.8 1.19-0.708 2.42 0.987 2.7 3.68z" fill="url(#c)"/>
     <path class="st55" d="m70.5 47.2c0.142 2.22-0.603 4.07-1.64 4.19-1.01 0.122-1.97-1.45-2.17-3.57-0.207-2.2 0.468-4.21 1.54-4.44 1.09-0.23 2.12 1.51 2.27 3.82z"/>
     <path class="st56" d="m69.9 45.2c0.247 1.11-0.0825 2.26-0.723 2.58-0.628 0.313-1.34-0.292-1.59-1.36-0.258-1.08 0.0375-2.25 0.675-2.61 0.646-0.363 1.39 0.264 1.64 1.39z"/>
     <path class="st56" d="m69.3 50.2c-0.042 0.355-0.286 0.634-0.547 0.624-0.258-0.0101-0.435-0.304-0.397-0.656 0.039-0.355 0.282-0.639 0.544-0.632 0.264 0.0068 0.444 0.306 0.4 0.664z"/>
     <path class="st57" d="m57.9 46.8c0.19 3.03-0.855 5.41-2.28 5.46-1.38 0.0473-3.94-2.86-4.24-5.7 0.129-3.37 0.903-3.86 3.15-3.38 1.53 0.635 3.18 0.441 3.38 3.63z" fill="url(#b)"/>
     <path class="st55" d="m57 48.4c0.081 2.39-0.762 4.14-1.85 4-1.07-0.142-2.05-2.06-2.21-4.37-0.165-2.4 0.607-4.39 1.76-4.33 1.18 0.0524 2.22 2.2 2.3 4.7z"/>
     <path class="st56" d="m56.4 46.1c0.229 1.25-0.156 2.39-0.844 2.55-0.676 0.162-1.41-0.673-1.65-1.88-0.247-1.23 0.1-2.4 0.79-2.61 0.702-0.211 1.47 0.664 1.71 1.94z"/>
     <path class="st56" d="m55.7 51.3c-0.0555 0.365-0.322 0.593-0.595 0.512-0.273-0.0794-0.453-0.436-0.402-0.798 0.051-0.365 0.316-0.602 0.594-0.524 0.277 0.0794 0.459 0.443 0.403 0.81z"/>
     <path class="st58" d="m61.1 52.2s-1.73 2.6 1.6 3.3c0.986 0.204 4.36-1.32 3.04-2.54-0.0015 0-2.6-2.02-4.64-0.761z" fill="url(#a)"/>
     <path class="st59" d="m66.4 53.1c-0.106 0.75-1.96 2.01-3.46 1.78-1.46-0.218-2.13-1.77-2.07-2.49 0.063-0.728 1.32-1.19 2.85-1.01 1.57 0.183 2.79 0.96 2.68 1.72z"/>
     <path class="st60" d="m65.7 52.7c-0.0615 0.335-0.971 0.443-2.01 0.25-1.03-0.189-1.81-0.605-1.76-0.93 0.0465-0.328 0.915-0.451 1.95-0.269 1.06 0.184 1.88 0.612 1.82 0.948z"/>
     <path class="st27" d="m63.1 55-0.393 4.82s1.34-1.89 0.393-4.82z"/>
     <path class="st55" d="m51.5 43.9c0.103-0.122 5.29 0.799 5.29 0.799s1.17-0.701 0.944-2.13c0 0-0.732 1.19-1.03 1.06 0 0 0.516-0.532 0.445-0.928l-0.882 0.301s-4.16-0.894-4.28-0.877c-0.121 0.0169-1.57 2.63-1.57 2.63s-0.219 0.656 1.08-0.864z"/>
    </g>
   </g>
  </g>
 </g>
  </svg>
</svg>
