<svg width="96" height="96" viewBox="0 0 96 96" fill="none" xmlns="http://www.w3.org/2000/svg">
<rect width="96" height="96" fill="white"/>
<g clip-path="url(#clip0_6115_451)">
<path d="M75.9655 35.3695C75.8238 35.219 75.6732 35.0684 75.5226 34.9267C75.3721 34.785 75.2304 34.6255 75.0798 34.4838C74.9292 34.3421 74.7875 34.1827 74.6369 34.041C74.4864 33.8992 74.3446 33.7398 74.1941 33.5981C74.0435 33.4564 73.9018 33.297 73.7512 33.1552C73.6006 33.0135 73.4589 32.8541 73.3084 32.7124C73.1578 32.5707 73.0161 32.4112 72.8655 32.2695C77.2588 36.5871 79.7756 42.4608 79.8715 48.6198C79.8715 63.2961 64.9738 75.2355 46.6572 75.2355C36.4006 75.2355 27.2246 71.489 21.1221 65.6167L21.5649 66.0595L22.0078 66.5024L22.4506 66.9452L22.8935 67.3881L23.3364 67.831L23.7792 68.2738L24.2221 68.7167C30.3158 74.837 39.6955 78.7784 50.2001 78.7784C68.5166 78.7784 83.4144 66.839 83.4144 52.207C83.4144 45.9538 80.7218 40.0284 75.9655 35.3695Z" fill="black"/>
<path d="M77.6582 48.6211C77.6582 62.0928 63.7791 73.0136 46.6582 73.0136C29.5373 73.0136 15.6582 62.0928 15.6582 48.6211C15.6582 40.2688 20.9725 32.8908 29.1388 28.5153C37.3051 24.1399 42.3891 19.6582 46.6582 19.6582C50.9273 19.6582 54.5765 23.3162 64.1776 28.5153C72.3439 32.8908 77.6582 40.2688 77.6582 48.6211Z" fill="#FBF0DF"/>
<path d="M77.6573 48.6214C77.653 46.8908 77.4147 45.1687 76.9488 43.502C74.5308 72.9962 38.5531 74.4134 24.4082 65.5917C30.7668 70.5201 38.6134 73.1377 46.6573 73.014C63.7516 73.014 77.6573 62.0754 77.6573 48.6214Z" fill="#F6DECE"/>
<path d="M34.7276 26.8945C38.6868 24.5208 43.9479 20.0656 49.1205 20.0568C48.3247 19.7996 47.4945 19.6652 46.6582 19.6582C44.5148 19.6582 42.2296 20.7653 39.3511 22.4305C38.3502 23.0151 37.3139 23.6616 36.2156 24.3348C34.1519 25.6102 31.7871 27.0539 29.1299 28.4976C20.6979 33.0591 15.6582 40.5788 15.6582 48.6211C15.6582 48.9753 15.6582 49.3296 15.6582 49.6751C21.0256 30.7119 30.7773 29.2682 34.7276 26.8945Z" fill="#FFFEFC"/>
<path fill-rule="evenodd" clip-rule="evenodd" d="M44.1072 21.8977C44.1196 23.989 43.6805 26.0585 42.8199 27.9646C41.9593 29.8707 40.6975 31.5687 39.1206 32.9425C38.8726 33.164 39.0675 33.5891 39.3863 33.4651C42.3712 32.3048 46.4012 28.8328 44.7006 21.8268C44.6298 21.4282 44.1072 21.5345 44.1072 21.8977ZM46.1178 21.8977C47.2015 23.6659 47.8901 25.6476 48.1362 27.7069C48.3823 29.7662 48.1802 31.8544 47.5438 33.8282C47.4375 34.1382 47.8183 34.404 48.0309 34.1471C49.9706 31.6671 51.6623 26.7425 46.5961 21.4282C46.3392 21.198 45.9406 21.5522 46.1178 21.8622V21.8977ZM48.5623 21.7471C50.2595 22.9486 51.6793 24.5001 52.7259 26.2969C53.7725 28.0937 54.4216 30.0941 54.6295 32.1631C54.6205 32.2377 54.6406 32.3128 54.6855 32.373C54.7305 32.4331 54.7969 32.4737 54.8709 32.4862C54.945 32.4987 55.021 32.4823 55.0832 32.4403C55.1455 32.3982 55.1891 32.3339 55.2052 32.2605C56.0201 29.1694 55.5595 23.8994 48.8546 21.1625C48.5003 21.0208 48.2701 21.4991 48.5623 21.7117V21.7471ZM32.2121 30.9585C34.2308 30.3554 36.1 29.3339 37.6977 27.9604C39.2955 26.587 40.5861 24.8924 41.4855 22.9871C41.6449 22.6682 42.1498 22.7922 42.0701 23.1465C40.5378 30.2322 35.4095 31.7114 32.2209 31.5165C31.8843 31.5254 31.8932 31.056 32.2121 30.9585Z" fill="#CCBEA7"/>
<path d="M46.6576 75.2362C28.3411 75.2362 13.4434 63.2968 13.4434 48.6205C13.4434 39.7634 18.9171 31.4996 28.0842 26.5485C30.7414 25.1314 33.0176 23.7054 35.0459 22.4565C36.1619 21.7656 37.2159 21.1191 38.2345 20.5168C41.3434 18.6745 44.0005 17.4434 46.6576 17.4434C49.3148 17.4434 51.6354 18.5062 54.5405 20.2245C55.4262 20.7294 56.3119 21.2785 57.2596 21.8808C59.4651 23.2448 61.9539 24.7859 65.2311 26.5485C74.3982 31.4996 79.8719 39.7545 79.8719 48.6205C79.8719 63.2968 64.9742 75.2362 46.6576 75.2362ZM46.6576 19.6576C44.5142 19.6576 42.2291 20.7648 39.3505 22.4299C38.3496 23.0145 37.3134 23.6611 36.2151 24.3342C34.1514 25.6096 31.7865 27.0534 29.1294 28.4971C20.6974 33.0585 15.6576 40.5782 15.6576 48.6205C15.6576 62.0745 29.5634 73.0219 46.6576 73.0219C63.7519 73.0219 77.6576 62.0745 77.6576 48.6205C77.6576 40.5782 72.6179 33.0585 64.1771 28.5148C60.8291 26.7434 58.2162 25.0782 56.0994 23.7674C55.1339 23.1739 54.2482 22.6248 53.4422 22.1376C50.7585 20.5434 48.8011 19.6576 46.6576 19.6576Z" fill="black"/>
<path d="M52.9012 55.0853C52.5033 56.715 51.5976 58.1759 50.3149 59.257C49.3519 60.1905 48.1053 60.7764 46.7721 60.9222C45.3988 60.7995 44.1084 60.2121 43.1141 59.257C41.8445 58.1708 40.9515 56.7104 40.5632 55.0853C40.5503 54.9888 40.5597 54.8907 40.5907 54.7984C40.6216 54.7061 40.6732 54.6221 40.7416 54.5529C40.81 54.4836 40.8933 54.4309 40.9852 54.3989C41.0771 54.3668 41.1752 54.3562 41.2718 54.3679H52.2015C52.2974 54.3577 52.3944 54.3694 52.4852 54.4021C52.576 54.4348 52.6581 54.4877 52.7255 54.5568C52.7929 54.6258 52.8437 54.7093 52.8741 54.8008C52.9046 54.8924 52.9138 54.9897 52.9012 55.0853Z" fill="#B71422"/>
<path d="M43.1139 59.3277C44.1062 60.2834 45.392 60.8763 46.7631 61.0106C48.1311 60.8744 49.4134 60.2816 50.4034 59.3277C50.72 59.0325 51.016 58.7159 51.2891 58.38C50.7435 57.761 50.077 57.2602 49.3306 56.9083C48.5842 56.5564 47.7738 56.361 46.9491 56.334C46.0666 56.3549 45.2025 56.5899 44.4311 57.0188C43.6596 57.4478 43.0039 58.0577 42.5205 58.7963C42.7242 58.9823 42.9014 59.1594 43.1139 59.3277Z" fill="#FF6164"/>
<path d="M43.2561 58.6275C43.6952 58.0599 44.2573 57.5992 44.9001 57.2801C45.5429 56.961 46.2496 56.7918 46.9672 56.7852C48.2936 56.8243 49.5574 57.3583 50.5101 58.2821C50.7138 58.0606 50.9087 57.8303 51.0947 57.6001C49.9679 56.5269 48.4788 55.9168 46.9229 55.8906C46.0915 55.8978 45.2719 56.0889 44.5231 56.4503C43.7743 56.8117 43.1147 57.3344 42.5918 57.9809C42.8012 58.2084 43.023 58.4243 43.2561 58.6275Z" fill="black"/>
<path d="M46.7368 61.4534C45.2608 61.3241 43.8719 60.6999 42.7953 59.682C41.4243 58.5224 40.4593 56.9554 40.0408 55.2091C40.0107 55.0537 40.0158 54.8935 40.0557 54.7402C40.0955 54.587 40.1691 54.4446 40.271 54.3234C40.3924 54.1768 40.5457 54.0599 40.7192 53.9817C40.8926 53.9034 41.0817 53.8658 41.2719 53.8717H52.2016C52.3915 53.8677 52.58 53.9062 52.7531 53.9843C52.9263 54.0625 53.0798 54.1783 53.2025 54.3234C53.3034 54.445 53.3757 54.5877 53.4141 54.7411C53.4524 54.8944 53.4557 55.0543 53.4239 55.2091C53.0054 56.9554 52.0404 58.5224 50.6693 59.682C49.5951 60.698 48.2096 61.3222 46.7368 61.4534ZM41.2719 54.8991C41.1302 54.8991 41.0948 54.9611 41.0859 54.9788C41.4603 56.4931 42.3072 57.8488 43.5039 58.8494C44.3789 59.7115 45.5166 60.257 46.7368 60.3994C47.9537 60.2586 49.0901 59.72 49.9696 58.8671C51.1625 57.8648 52.0062 56.5095 52.3787 54.9966C52.3594 54.9682 52.3327 54.9458 52.3014 54.9317C52.2702 54.9177 52.2356 54.9125 52.2016 54.9168L41.2719 54.8991Z" fill="black"/>
<path d="M60.1375 55.6347C62.9991 55.6347 65.3189 54.2706 65.3189 52.5879C65.3189 50.9051 62.9991 49.541 60.1375 49.541C57.2759 49.541 54.9561 50.9051 54.9561 52.5879C54.9561 54.2706 57.2759 55.6347 60.1375 55.6347Z" fill="#FEBBD0"/>
<path d="M33.3269 55.6347C36.1886 55.6347 38.5084 54.2706 38.5084 52.5879C38.5084 50.9051 36.1886 49.541 33.3269 49.541C30.4653 49.541 28.1455 50.9051 28.1455 52.5879C28.1455 54.2706 30.4653 55.6347 33.3269 55.6347Z" fill="#FEBBD0"/>
<path fill-rule="evenodd" clip-rule="evenodd" d="M35.763 51.366C36.7286 51.3678 37.6731 51.0831 38.4768 50.5479C39.2805 50.0127 39.9074 49.2511 40.2781 48.3595C40.6489 47.4679 40.7468 46.4864 40.5595 45.5391C40.3722 44.5918 39.9081 43.7214 39.2259 43.038C38.5437 42.3546 37.6742 41.8889 36.7272 41.6999C35.7803 41.5109 34.7986 41.607 33.9063 41.9761C33.0141 42.3452 32.2513 42.9707 31.7147 43.7735C31.1781 44.5762 30.8916 45.5201 30.8916 46.4857C30.8916 47.7785 31.4046 49.0185 32.3179 49.9335C33.2312 50.8485 34.4702 51.3637 35.763 51.366ZM57.7022 51.366C58.6689 51.3731 59.6159 51.0928 60.4231 50.5608C61.2303 50.0289 61.8613 49.2691 62.2361 48.378C62.611 47.4869 62.7127 46.5046 62.5284 45.5556C62.3441 44.6065 61.8821 43.7337 61.201 43.0476C60.5199 42.3615 59.6504 41.8932 58.7028 41.702C57.7552 41.5108 56.7721 41.6053 55.8783 41.9737C54.9845 42.342 54.2202 42.9675 53.6823 43.7708C53.1445 44.5741 52.8573 45.519 52.8573 46.4857C52.855 47.7747 53.3635 49.012 54.2716 49.9267C55.1797 50.8415 56.4133 51.359 57.7022 51.366Z" fill="black"/>
<path fill-rule="evenodd" clip-rule="evenodd" d="M34.2572 46.7957C34.6202 46.7975 34.9755 46.6915 35.2782 46.4911C35.5809 46.2907 35.8172 46.005 35.9574 45.6701C36.0975 45.3352 36.1351 44.9663 36.0653 44.6101C35.9956 44.2539 35.8217 43.9263 35.5656 43.669C35.3096 43.4118 34.9829 43.2363 34.627 43.1648C34.2711 43.0933 33.902 43.1291 33.5665 43.2676C33.231 43.4061 32.9441 43.6411 32.7422 43.9428C32.5404 44.2445 32.4326 44.5993 32.4326 44.9623C32.4326 45.447 32.6246 45.912 32.9665 46.2556C33.3084 46.5992 33.7725 46.7934 34.2572 46.7957ZM56.1963 46.7957C56.5593 46.7975 56.9147 46.6915 57.2173 46.4911C57.52 46.2907 57.7564 46.005 57.8965 45.6701C58.0366 45.3352 58.0742 44.9663 58.0045 44.6101C57.9347 44.2539 57.7608 43.9263 57.5048 43.669C57.2487 43.4118 56.922 43.2363 56.5661 43.1648C56.2103 43.0933 55.8412 43.1291 55.5056 43.2676C55.1701 43.4061 54.8832 43.6411 54.6814 43.9428C54.4795 44.2445 54.3718 44.5993 54.3718 44.9623C54.3717 45.444 54.5612 45.9064 54.8993 46.2494C55.2374 46.5925 55.697 46.7888 56.1786 46.7957H56.1963Z" fill="white"/>
</g>
<defs>
<clipPath id="clip0_6115_451">
<rect width="70.8571" height="62" fill="white" transform="translate(13 17)"/>
</clipPath>
</defs>
</svg>
