<svg width="96" height="96" viewBox="0 0 96 96" fill="none" xmlns="http://www.w3.org/2000/svg">
<rect width="96" height="96" fill="white"/>
<g clip-path="url(#clip0_6115_401)">
<path d="M31.9096 30.054C30.4964 30.2563 29.1102 30.394 27.7303 30.8012C23.6107 32.0167 19.8129 34.7374 17.6507 38.4493C16.9027 39.7334 16.2613 41.076 15.8135 42.492C15.6741 42.9327 15.5407 43.385 15.4576 43.8396C15.4152 44.0713 15.41 44.4188 15.256 44.6093C14.9878 44.9409 14.2121 45.1249 13.8267 45.3197C12.8967 45.7899 11.9767 46.3675 11.1784 47.0356C9.01873 48.8429 7.31905 51.4206 8.27034 54.2935C8.49088 54.9595 8.87554 55.6026 9.28261 56.1719C9.83109 56.939 10.5218 57.5719 11.2612 58.1555C13.5019 59.924 16.2228 61.0304 18.9164 61.9298C21.6621 62.8465 24.4617 63.6022 27.3165 64.1109C39.9424 66.3606 52.927 66.7424 65.5926 64.4856C71.6278 63.4102 77.7689 61.9755 82.9307 58.554C84.7906 57.3212 86.7491 55.3879 86.9803 53.0684C87.0754 52.1145 86.8156 51.119 86.4307 50.2508C85.4096 47.9477 82.9347 46.2811 80.7375 45.197C80.0381 44.8519 79.3204 44.5407 78.5858 44.2756C78.3413 44.1873 77.8199 44.0857 77.6653 43.874C77.4231 43.5423 77.3852 42.8866 77.2611 42.492C76.9656 41.553 76.6218 40.6371 76.1754 39.7561C74.5533 36.5544 71.882 33.8706 68.6961 32.1724C63.55 29.4294 57.2069 29.3859 51.9373 31.7875C50.4162 32.4807 48.9255 33.4655 47.7166 34.6115C47.3628 34.947 47.016 35.279 46.6796 35.6317C46.5984 35.7169 46.4224 35.9573 46.2854 35.9372C46.1727 35.9206 46.0539 35.7469 45.9787 35.6725L45.2752 34.9783C44.5066 34.2198 43.6644 33.5475 42.751 32.9643C40.4241 31.4786 37.7265 30.5099 34.9717 30.1953C33.9851 30.0826 32.9027 29.9119 31.9096 30.054ZM34.5993 33.1407C34.8999 33.3927 35.2535 33.5809 35.551 33.8406C36.2514 34.452 36.7613 35.2687 37.1058 36.1217C37.2602 36.504 37.4295 36.9379 37.4851 37.3468C37.5655 37.9377 37.455 38.3929 37.9518 38.8522C38.9911 39.8132 40.6964 39.0141 40.5524 37.5918C40.4694 36.772 40.0837 35.9516 39.6459 35.2642C39.4809 35.0052 38.9586 34.5314 38.9855 34.2433C40.6698 34.9773 42.2569 35.757 43.5786 37.0609C43.9042 37.382 44.5155 37.8051 44.6696 38.2451C44.7744 38.5442 44.191 39.2771 44.0407 39.5519C43.8125 39.9692 43.6034 40.3939 43.3886 40.8178C43.3041 40.9845 43.2342 41.2146 43.0763 41.3292C42.8882 41.4658 42.4458 41.4757 42.2131 41.5226C41.6143 41.6432 41.0305 41.8317 40.4338 41.9612C39.589 40.5663 37.9487 39.92 36.4614 40.7887C35.7154 41.2243 34.7017 42.3912 35.7993 43.0412C36.3829 43.3869 36.8207 42.9682 37.3717 43.0637C37.1793 43.3419 36.8651 43.4951 36.5855 43.6763C36.0772 44.0056 35.5793 44.3267 35.0958 44.6921C33.8838 45.6081 32.8548 46.7315 31.8789 47.8823C31.4617 48.3743 31.067 48.928 30.7274 49.4749C30.6159 49.6546 30.5059 50.0304 30.2948 50.1088C29.8131 50.2878 29.03 50.1136 28.5165 50.129C27.0593 50.1729 25.59 50.1283 24.1302 50.1283C22.2012 50.1283 19.7003 50.6417 18.5204 48.7399C17.77 47.5303 17.9304 46.1076 18.1616 44.7788C18.7435 41.4339 20.6202 38.3399 23.3026 36.2279C24.2473 35.4842 25.6927 34.4529 26.944 34.3658C26.8448 34.7024 26.5516 34.9987 26.376 35.305C25.9456 36.0561 25.5225 36.9508 25.581 37.8368C25.6812 39.3536 27.5752 39.6541 28.4563 38.6072C28.848 38.1418 28.7071 37.2737 28.8766 36.6934C29.3109 35.2062 30.1015 33.9877 31.4544 33.1815C31.6304 33.5193 31.5372 34.0327 31.5372 34.4066V37.1834C31.5372 37.6051 31.4501 38.1141 31.6793 38.4902C32.3006 39.5095 34.2415 39.5008 34.4987 38.1635C34.5733 37.7756 34.5165 37.3326 34.5165 36.9384V34.4883C34.5172 34.1538 34.3767 33.3969 34.5993 33.1407ZM58.4753 33.1815C58.4753 34.409 58.4339 35.6309 58.4339 36.8567C58.4339 37.3052 58.3592 38.0631 58.6029 38.4493C59.2485 39.4726 60.8951 39.4808 61.4271 38.3268C61.6273 37.8924 61.5374 37.3218 61.5374 36.8567C61.5374 36.1326 61.496 35.4161 61.496 34.6925C61.496 34.2471 61.5654 33.7372 61.4546 33.304L61.496 33.2632C62.9717 33.7513 63.8223 35.5236 64.1704 36.8976C64.3595 37.6443 64.1784 38.4362 64.8891 38.9505C65.7376 39.5645 67.066 39.2225 67.4782 38.2451C67.7188 37.6748 67.5489 37.077 67.3135 36.5301C67.1121 36.0621 66.8694 35.59 66.5589 35.1825C66.3751 34.9412 66.0337 34.6562 65.965 34.3658C67.2028 34.6119 68.4056 35.3502 69.3995 36.0858C72.1011 38.0853 74.0916 40.9582 74.5825 44.2888C74.8201 45.9007 74.9814 48.0859 73.7005 49.35C72.8385 50.2006 71.6345 50.0875 70.5168 50.0875H64.9305C64.0826 50.0875 63.1149 50.2168 62.2822 50.0875C62.272 49.8953 62.0786 49.7561 61.9711 49.5974C61.6794 49.1668 61.3806 48.74 61.0579 48.3315C59.9983 46.9904 58.8099 45.7464 57.4408 44.706C56.9127 44.3047 56.3684 43.9312 55.827 43.5481C55.6511 43.4236 55.3116 43.2795 55.2027 43.0923C55.0754 42.8734 55.4416 42.9305 55.5373 42.9613C55.764 43.0342 55.9625 43.1703 56.1994 43.2101C56.8557 43.3203 58.0569 42.9452 57.8828 42.0837C57.8047 41.6973 57.481 41.3537 57.1923 41.1036C56.2601 40.296 54.8159 40.1293 53.758 40.7976C53.415 41.0142 53.0812 41.2806 52.8241 41.5937C52.7219 41.7182 52.6203 42.0127 52.4331 42.0147C52.2147 42.017 51.9368 41.8654 51.7304 41.7978C51.2985 41.6564 50.8517 41.5312 50.4063 41.4386C49.1202 41.1713 47.846 41.1553 46.558 40.9811C46.721 40.5234 47.0316 40.0507 47.2852 39.6336C48.3792 37.8339 49.8398 36.3555 51.6477 35.2473C52.2231 34.8946 52.8587 34.6168 53.5098 34.4306C53.7145 34.3721 53.9177 34.2434 54.1304 34.2841C53.3883 35.3712 52.4636 36.4333 52.5174 37.8368C52.5727 39.28 54.3499 39.5808 55.2891 38.7998C55.8926 38.2979 55.718 37.3228 55.9268 36.6117C56.3394 35.2065 57.124 33.8764 58.4753 33.1815ZM67.5374 40.3446C66.6898 40.4675 65.8978 40.8596 65.3813 41.5528C64.9922 42.075 64.9174 42.665 65.5098 43.0815C65.9634 43.4004 66.5015 43.3882 66.9995 43.1976C67.2522 43.1009 67.5048 42.9264 67.7857 42.9288C68.0363 42.9309 68.2661 43.1107 68.4892 43.2023C68.8293 43.342 69.1966 43.3933 69.565 43.3433C70.5258 43.2131 70.6158 42.2464 70.1564 41.5937C69.5809 40.7758 68.5784 40.1936 67.5374 40.3446ZM25.4958 40.3854C24.6365 40.5101 23.8957 40.921 23.3931 41.6345C23.0077 42.1815 22.9698 42.7571 23.5923 43.1422C24.0194 43.4065 24.5632 43.3344 24.9992 43.1335C25.2041 43.0391 25.4651 42.8218 25.7027 42.8382C25.9214 42.8533 26.1303 43.0449 26.3233 43.1335C26.6139 43.2669 26.9586 43.3026 27.2751 43.2571C28.2466 43.1177 28.5252 42.1897 27.9898 41.4712C27.444 40.7387 26.4241 40.2508 25.4958 40.3854ZM44.7373 44.0846C44.8778 44.5106 44.7698 45.0735 44.7511 45.5163C44.7195 46.2635 44.7644 47.0099 44.7508 47.7598C44.7432 48.1793 44.6644 48.7999 44.8486 49.1891C45.3819 50.3154 47.1364 50.2833 47.6711 49.1891C47.8793 48.763 47.7579 48.1022 47.7579 47.6373C47.7579 46.4795 47.6636 45.2754 47.7992 44.1255C48.2111 44.1881 48.6314 44.5797 48.9165 44.8605C49.7516 45.6831 50.3037 46.7182 50.6071 47.8415C50.7932 48.5303 50.6732 49.1855 51.319 49.6834C52.3193 50.4546 54.1359 49.7651 53.9062 48.3724C53.79 47.6679 53.4799 47.003 53.0817 46.4123C52.9172 46.1682 52.4889 45.8189 52.5579 45.5139C53.4239 45.9278 54.3272 46.2486 55.1648 46.7257C56.4254 47.4437 57.608 48.5577 58.4509 49.7199C59.2599 50.8356 59.9227 51.9492 60.4281 53.2318C61.0126 54.7151 61.3071 56.3427 61.2085 57.9279C61.1415 59.0066 60.7638 60.0626 59.7993 60.6769C59.2156 61.0487 58.5215 61.0314 57.8545 61.0314H55.0821H43.6613H36.1302C35.1102 61.0314 33.7234 61.2583 32.8198 60.7092C31.07 59.6459 31.1569 57.0433 31.5286 55.3144C32.2664 51.8835 34.2501 48.7304 37.2061 46.7395C38.0068 46.2002 38.906 45.9178 39.7716 45.5139C39.7996 45.7786 39.4463 46.0998 39.3101 46.3306C38.9653 46.9147 38.6586 47.4943 38.5475 48.1682C38.292 49.7164 40.0127 50.5007 41.1783 49.5781C41.798 49.0876 41.6255 48.3391 41.8513 47.6782C42.3206 46.3046 43.244 44.5895 44.7372 44.0846M38.9027 51.4927C38.071 51.6133 37.3056 52.0334 36.8365 52.7418C36.4873 53.269 36.476 53.9036 37.0407 54.2858C37.4187 54.5416 37.9423 54.5593 38.3648 54.3984C38.6039 54.3074 38.8861 54.105 39.151 54.1137C39.6492 54.13 40.0063 54.4954 40.5579 54.4047C41.624 54.2293 41.8976 53.3494 41.2968 52.5376C40.7998 51.8659 39.7515 51.3696 38.9027 51.4927ZM51.8132 51.5337C51.0649 51.6542 50.2958 52.1399 49.9019 52.7826C49.6597 53.1776 49.5958 53.6666 49.9933 53.9884C50.4286 54.3409 50.9705 54.497 51.5235 54.3336C51.7583 54.2642 52.0368 54.0323 52.2854 54.0504C52.7979 54.0876 53.1506 54.4978 53.7167 54.4047C54.7966 54.227 54.8987 53.2277 54.3178 52.4967C53.7594 51.7941 52.7064 51.3899 51.8132 51.5337Z" fill="#010101"/>
</g>
<defs>
<clipPath id="clip0_6115_401">
<rect width="79" height="36" fill="white" transform="translate(8 30)"/>
</clipPath>
</defs>
</svg>
