<svg width="96" height="96" viewBox="0 0 96 96" fill="none" xmlns="http://www.w3.org/2000/svg">
<rect width="96" height="96" fill="white"/>
<path d="M79.5968 48.3906C80.1818 47.8056 80.0838 46.6906 79.5968 46.0836L76.5098 42.9966L62.7098 29.6106C62.1248 29.0256 61.2148 29.0256 60.5098 29.6106C59.9248 30.1956 59.6978 31.3106 60.5098 31.9176L75.0098 46.1156C75.5948 46.7006 75.5948 47.8156 75.0098 48.4226L60.1998 63.1086C59.6148 63.6936 59.6148 64.8086 60.1998 65.4156C60.7848 66.0006 61.8998 65.9026 62.3998 65.4156L76.1998 51.7356L79.5968 48.3906ZM16.4028 48.3906C15.8178 47.8056 15.9158 46.6906 16.4028 46.0836L19.4898 42.9966L33.2898 29.6106C33.8748 29.0256 34.7848 29.0256 35.4898 29.6106C36.0748 30.1956 36.3018 31.3106 35.4898 31.9176L21.2898 46.1176C20.7048 46.7026 20.7048 47.8176 21.2898 48.4246L35.7898 63.1106C36.3748 63.6956 36.3748 64.8106 35.7898 65.4176C35.2048 66.0026 34.0898 65.9046 33.5898 65.4176L19.4898 51.9406L16.4028 48.3906Z" fill="#3999C6"/>
<path d="M50.5828 38.415L63.5798 18.5H44.0848L33.5898 48.1L46.3898 48.197L36.3828 77.504L63.9998 38.418L50.5828 38.415Z" fill="#FCD116"/>
<path opacity="0.3" d="M64.0018 38.415H50.5818L63.5798 18.5H53.3768L42.5898 43.094L55.3898 43.191L36.3828 77.491L64.0018 38.415Z" fill="#FF8C00"/>
</svg>
