<svg width="96" height="96" viewBox="0 0 96 96" fill="none" xmlns="http://www.w3.org/2000/svg">
<rect width="96" height="96" fill="white"/>
<path d="M44.6413 43.5699C44.6413 46.2191 42.4925 48.3638 39.8474 48.3638C37.2007 48.3638 35.0576 46.2191 35.0576 43.5699C35.0576 40.9322 37.2015 38.7793 39.8474 38.7793C42.4925 38.7785 44.6413 40.9322 44.6413 43.5699Z" fill="#419EDA"/>
<path d="M50.8379 43.5699C50.8379 46.2224 52.9834 48.3646 55.6318 48.3646C58.2769 48.3646 60.4256 46.2224 60.4256 43.5699C60.4256 40.9305 58.2769 38.7793 55.6318 38.7793C52.9834 38.7785 50.8379 40.9305 50.8379 43.5699Z" fill="#419EDA"/>
<path d="M83.4624 48.7688C83.1149 48.7966 82.7715 48.8088 82.4036 48.8088C80.2646 48.8088 78.191 48.3085 76.3194 47.3927C76.9408 43.8163 77.2074 40.2178 77.1387 36.63C75.1093 33.693 72.7913 30.9253 70.1732 28.3758C71.3089 26.2467 72.9892 24.4143 75.0815 23.1184L75.9826 22.5599L75.2794 21.766C71.6678 17.7023 67.3597 14.5584 62.4701 12.4235L61.4955 12L61.2477 13.0278C60.6639 15.4284 59.4473 17.5943 57.7744 19.3327C54.5602 17.6254 51.2021 16.2444 47.7386 15.1986C44.2832 16.2419 40.9284 17.6189 37.7175 19.3261C36.0495 17.5903 34.8377 15.4276 34.258 13.0351L34.0062 12.0041L33.0348 12.426C28.2099 14.5282 23.7798 17.7579 20.2263 21.7652L19.524 22.5591L20.4234 23.1167C22.5133 24.4086 24.1846 26.2303 25.3203 28.3464C22.712 30.8876 20.3931 33.648 18.367 36.5703C18.2885 40.1541 18.5403 43.7803 19.165 47.4041C17.3024 48.3117 15.242 48.8081 13.1177 48.8081C12.7457 48.8081 12.3957 48.7958 12.0564 48.768L11 48.6854L11.0981 49.7402C11.6181 55.0729 13.2714 60.148 16.0253 64.8192L16.5616 65.7325L17.3662 65.0473C19.2362 63.4627 21.4929 62.4129 23.8951 61.991C25.4789 65.2256 27.353 68.2672 29.4829 71.0914C32.8778 72.2786 36.4158 73.1666 40.0707 73.6948C40.4214 76.1085 40.1418 78.608 39.1892 80.9187L38.7869 81.8983L39.8205 82.1272C42.4664 82.711 45.136 83.0045 47.7533 83.0045L55.6845 82.1272L56.7188 81.8983L56.3181 80.9187C55.3656 78.608 55.0843 76.1044 55.4392 73.6866C59.0761 73.1592 62.6001 72.2737 65.9844 71.0914C68.116 68.2672 69.9933 65.2215 71.5763 61.9828C73.9867 62.4014 76.2589 63.4513 78.1379 65.0424L78.9433 65.7244L79.4805 64.8184C82.2359 60.1366 83.8917 55.0639 84.4019 49.7402L84.5 48.6862L83.4624 48.7688ZM59.09 61.6574C55.3353 62.6754 51.5267 63.1905 47.7394 63.1905C43.9389 63.1905 40.1344 62.6754 36.3798 61.6574C34.3193 58.4571 32.6906 55.0279 31.5197 51.4171C30.3513 47.8219 29.6677 44.0583 29.469 40.1819C31.8958 37.1827 34.6529 34.5556 37.7003 32.3463C40.7967 30.0945 44.1638 28.2638 47.7394 26.8853C51.3084 28.2638 54.6706 30.0896 57.758 32.3316C60.816 34.5556 63.587 37.2015 66.0252 40.2211C65.8159 44.0739 65.1226 47.8179 63.9558 51.4065C62.7849 55.0173 61.1504 58.4571 59.09 61.6574Z" fill="#419EDA"/>
</svg>
