<svg width="96" height="96" viewBox="0 0 96 96" fill="none" xmlns="http://www.w3.org/2000/svg">
<rect width="96" height="96" fill="white"/>
<path d="M19.597 36.4374C19.4107 36.5939 19.2156 36.7548 19.0769 36.9509C15.4159 42.1304 15.1361 47.5614 17.8931 53.2081C17.9886 53.4036 18.0084 53.7998 18.314 53.7034C18.6098 53.6101 18.5278 53.2436 18.4888 52.9832C18.3506 52.0618 18.2244 51.137 18.0429 50.2237C17.269 46.3285 17.59 42.5636 19.3077 38.9478C19.57 38.3959 19.7692 37.813 19.9822 37.2389C20.0779 36.9808 20.0992 36.7117 19.9426 36.4823C19.8251 36.3545 19.6934 36.3568 19.597 36.4374Z" fill="#FAF7EF"/>
<path d="M57.647 13.4303C58.1979 13.6002 58.7473 13.7778 59.3052 13.9214C61.6845 14.534 63.6976 15.7221 65.2533 17.6489C65.4907 17.9428 65.7622 18.2103 66.0253 18.4828C66.1435 18.6054 66.2879 18.6895 66.4577 18.6635C66.5605 18.6324 66.5946 18.5583 66.5754 18.483C66.5381 18.3371 66.5007 18.1853 66.4285 18.0554C64.5218 14.6258 61.5686 13.0142 57.6813 13.038C57.5466 13.0388 57.3204 12.9437 57.2923 13.1398C57.2651 13.3296 57.4914 13.3824 57.647 13.4303Z" fill="#FAF7EF"/>
<path d="M76.6074 47.6066C76.7152 33.2588 66.5394 20.5888 52.702 17.7027C37.2905 14.4878 24.6398 23.31 20.1211 32.335C21.11 31.1163 21.9382 29.9502 22.9105 28.9201C30.9463 20.4062 42.4482 17.3313 53.0231 19.9232C57.5785 21.0396 61.9629 23.2011 65.8223 26.4431C72.7412 32.255 76.2459 41.1229 75.4855 49.8052C75.2737 52.2249 74.731 54.6301 73.8382 56.9507C68.8056 70.0315 54.8079 77.7528 40.4372 75.3189C32.5092 73.976 26.0552 70.0975 21.0431 63.7855C25.4931 72.1509 37.8428 79.7912 51.3071 77.3624C66.0613 74.701 76.4964 62.3719 76.6074 47.6066Z" fill="#FAF7EF"/>
<path d="M76.524 63.1277C76.2408 63.0012 76.059 63.33 75.9156 63.5507C75.4077 64.3321 74.8889 65.1076 74.4188 65.9117C72.4144 69.34 69.677 71.9446 65.9933 73.5113C65.4309 73.7504 64.8953 74.0544 64.3551 74.3427C64.1123 74.4724 63.9178 74.6595 63.8828 74.9353C63.886 75.1087 63.9861 75.1945 64.1117 75.1977C64.355 75.2044 64.6076 75.2136 64.8416 75.1587C71.0168 73.7107 74.8285 69.8319 76.5105 63.7776C76.5687 63.5678 76.8167 63.2582 76.524 63.1277Z" fill="#FAF7EF"/>
<path d="M79.2091 34.026C74.5168 30.0024 73.9839 27.7146 72.3664 21.4601C70.6073 14.6574 61.1787 8.75276 54.2728 10.2282C48.9858 11.3578 43.8242 11.655 38.5719 10.4032C38.016 10.2708 37.4272 10.2556 36.8517 10.2296C34.059 10.1033 31.7876 11.1199 30.0539 13.3354C29.0117 14.6676 28.0967 16.0881 27.3373 17.5872C25.3227 21.5644 22.2337 24.387 18.3146 26.4174C16.524 27.345 14.7557 28.3487 13.0989 29.4943C10.5474 31.2582 8.46236 33.4338 8.06366 36.7242C7.7731 39.1214 8.5083 41.3343 9.63517 43.3645C11.7069 47.0968 12.7262 51.0205 12.3165 54.8915C12.3165 56.4911 12.2735 57.6961 12.3243 58.8973C12.4995 63.0334 13.4679 66.8181 17.1148 69.3723C18.5 70.3426 19.9708 71.1825 21.526 71.8161C26.0848 73.6727 29.7567 76.5375 32.2612 80.8328C32.5958 81.4067 33.0836 81.8994 33.5411 82.392C35.6205 84.6311 38.171 85.7595 41.2519 85.6582C43.5473 85.5827 45.7418 85.0354 47.81 84.1003C53.9998 81.3017 60.2623 78.8876 67.0561 77.7978C71.8635 77.0265 74.9973 73.7484 76.6624 69.1365C77.2069 67.6285 77.4753 66.0653 77.7049 64.4992C78.1619 61.3826 79.6776 59.025 82.4292 57.4651C83.0555 57.1098 83.3003 56.6989 83.8838 56.2754C85.9748 54.7584 87.2182 52.7156 87.5916 50.1559C87.9801 47.4927 87.4403 44.9904 86.2563 42.6017C84.5246 39.1079 82.0969 36.502 79.2091 34.026ZM57.681 13.0383C61.5683 13.0146 64.5215 14.6261 66.4282 18.0558C66.5004 18.1856 66.5378 18.3374 66.575 18.4833C66.5943 18.5586 66.5602 18.6327 66.4574 18.6638C66.2876 18.6898 66.1432 18.6057 66.025 18.4831C65.7619 18.2106 65.4904 17.9431 65.253 17.6492C63.6973 15.7224 61.6842 14.5343 59.3049 13.9217C58.747 13.7781 58.1975 13.6005 57.6467 13.4306C57.4911 13.3827 57.2648 13.33 57.292 13.1401C57.3201 12.9441 57.5463 13.0391 57.681 13.0383ZM19.9826 37.239C19.7695 37.813 19.5703 38.3959 19.3081 38.9478C17.5904 42.5637 17.2694 46.3285 18.0432 50.2238C18.2247 51.1371 18.351 52.0619 18.4891 52.9832C18.5281 53.2436 18.6102 53.6102 18.3144 53.7034C18.0088 53.7999 17.989 53.4037 17.8935 53.2081C15.1364 47.5615 15.4162 42.1305 19.0772 36.951C19.2159 36.7548 19.411 36.594 19.5974 36.4375C19.6937 36.3568 19.8255 36.3546 19.943 36.4823C20.0996 36.7118 20.0783 36.9809 19.9826 37.239ZM21.0433 63.7862C26.0554 70.0982 32.5093 73.9766 40.4374 75.3196C54.8081 77.7535 68.8057 70.0322 73.8384 56.9514C74.7312 54.6308 75.2738 52.2256 75.4857 49.8059C76.246 41.1236 72.7414 32.2557 65.8225 26.4438C61.963 23.2018 57.5786 21.0403 53.0233 19.9238C42.4484 17.332 30.9464 20.4069 22.9107 28.9208C21.9384 29.9509 21.1102 31.117 20.1213 32.3357C24.6399 23.3107 37.2907 14.4885 52.7022 17.7034C66.5396 20.5895 76.7154 33.2595 76.6076 47.6073C76.4966 62.3725 66.0614 74.7017 51.3073 77.363C37.843 79.7919 25.4933 72.1516 21.0433 63.7862ZM56.6915 47.746L55.757 48.3689C55.1339 48.8363 54.1994 48.6803 53.7321 48.0574L44.6983 35.5969C44.2308 34.9737 44.3866 34.0393 45.0097 33.5719L45.9442 32.9488C46.5673 32.4814 47.5018 32.6376 47.9691 33.2605L57.0032 45.7213C57.4703 46.3442 57.3146 47.2786 56.6915 47.746ZM59.4952 50.3938C59.9625 50.0821 60.4298 50.238 60.4298 50.8612L60.7412 53.9764C60.7412 54.5993 60.274 54.9109 59.8067 54.5993L57.0032 53.1978C56.5357 52.8861 56.5357 52.4187 57.0032 52.1074L59.4952 50.3938ZM51.3957 51.64C52.1746 51.9513 52.486 53.0416 52.1746 53.8206C51.7073 54.7552 50.617 55.0667 49.8383 54.5993C46.5673 52.8861 44.3866 53.6649 41.7389 54.4435C40.4927 54.9109 39.4024 55.2222 38.0004 55.3781H37.066C35.82 55.3781 34.4182 55.0667 32.8604 54.4435C32.0817 54.1319 31.6144 53.1978 31.9259 52.2629C32.2375 51.4841 33.172 51.0171 34.1066 51.3283C35.5085 51.7958 36.7545 52.1074 37.689 51.9513C38.7793 51.7958 39.714 51.4841 40.8042 51.1726C43.7637 50.3938 47.0345 49.3035 51.3957 51.64ZM76.51 63.7771C74.8281 69.8315 71.0163 73.7103 64.8411 75.1582C64.6071 75.2131 64.3545 75.2039 64.1113 75.1973C63.9856 75.1941 63.8855 75.1082 63.8823 74.9348C63.9174 74.6591 64.1118 74.4719 64.3546 74.3422C64.8948 74.0539 65.4305 73.75 65.9928 73.5109C69.6765 71.9442 72.4139 69.3396 74.4184 65.9112C74.8884 65.1072 75.4073 64.3316 75.9151 63.5503C76.0586 63.3296 76.2403 63.0008 76.5235 63.1273C76.8162 63.2578 76.5683 63.5674 76.51 63.7771Z" fill="#5A9ECC"/>
<path d="M47.9694 33.2611C47.5021 32.6382 46.5676 32.482 45.9445 32.9494L45.01 33.5725C44.3869 34.0398 44.2311 34.9743 44.6985 35.5975L53.7324 48.058C54.1997 48.6809 55.1342 48.8369 55.7573 48.3695L56.6918 47.7466C57.3149 47.2792 57.4705 46.3448 57.0034 45.7219L47.9694 33.2611Z" fill="#FAF7EF"/>
<path d="M37.6888 51.9511C36.7543 52.1071 35.5083 51.7955 34.1063 51.328C33.1718 51.0168 32.2373 51.4839 31.9257 52.2626C31.6142 53.1975 32.0815 54.1317 32.8602 54.4432C34.418 55.0664 35.8197 55.3778 37.0657 55.3778H38.0002C39.4022 55.222 40.4925 54.9106 41.7386 54.4432C44.3864 53.6646 46.567 52.8858 49.838 54.599C50.6168 55.0664 51.7071 54.7549 52.1744 53.8203C52.4858 53.0414 52.1744 51.9511 51.3955 51.6397C47.0343 49.3033 43.7635 50.3936 40.804 51.1723C39.7138 51.4839 38.7791 51.7955 37.6888 51.9511Z" fill="#FAF7EF"/>
<path d="M57.0029 53.1981L59.8065 54.5996C60.2737 54.9112 60.741 54.5996 60.741 53.9767L60.4295 50.8615C60.4295 50.2383 59.9623 50.0824 59.495 50.3941L57.0029 52.1077C56.5355 52.419 56.5355 52.8864 57.0029 53.1981Z" fill="#FAF7EF"/>
</svg>
