<svg width="96" height="96" viewBox="0 0 96 96" fill="none" xmlns="http://www.w3.org/2000/svg">
<rect width="96" height="96" fill="white"/>
<g clip-path="url(#clip0_6163_7)">
<path d="M4 57.3767V44.1769H6.95757V45.8493C7.70375 44.4941 9.32874 43.7881 10.7923 43.7881C12.4972 43.7881 13.988 44.5754 14.6815 46.1209C15.6961 44.3851 17.214 43.7881 18.8917 43.7881C21.2373 43.7881 23.4743 45.3075 23.4743 48.8067V57.3767H20.4911V49.3208C20.4911 47.7754 19.7178 46.6089 17.9858 46.6089C16.3607 46.6089 15.295 47.9103 15.295 49.5371V57.3751H12.2591V49.3208C12.2591 47.803 11.5098 46.6171 9.75216 46.6171C8.10161 46.6171 7.06143 47.8649 7.06143 49.5453V57.3832L4 57.3767Z" fill="#333333"/>
<path d="M27.2549 57.3773V37.7402H30.3466V57.3773H27.2549Z" fill="#333333"/>
<path d="M29.105 64.5642C29.8 64.761 30.4248 64.8896 31.751 64.8896C34.2164 64.8896 37.1244 63.4742 37.8898 59.5016L41.0503 43.5736H45.7495L46.3231 40.9236H41.576L42.2151 37.7578C42.7041 35.2998 44.0398 34.0536 46.1841 34.0536C46.7418 34.0536 46.5852 34.1024 47.0821 34.1984L47.7692 31.4849C47.1076 31.2832 46.5149 31.1628 45.2238 31.1628C43.8608 31.1419 42.5301 31.5857 41.4433 32.4236C40.2402 33.3704 39.4461 34.7613 39.0834 36.5573L38.1934 40.9236H33.9911L33.6476 43.5753H37.6741L34.7724 58.3027C34.4529 59.9733 33.5197 61.9711 30.8418 61.9711C30.2346 61.9711 30.4551 61.9239 29.9055 61.8328L29.105 64.5642Z" fill="#0194E2"/>
<path d="M48.533 57.2698H45.4429L49.6787 37.457H52.7689L48.533 57.2698Z" fill="#0194E2"/>
<path d="M63.9489 45.005C61.2519 43.0836 57.5799 43.4614 55.315 45.8933C53.05 48.3251 52.8744 52.0785 54.902 54.7186L56.9265 53.2056C55.9216 51.9364 55.7175 50.1942 56.401 48.7199C57.0845 47.2457 58.5354 46.2988 60.1365 46.282V47.8925L63.9489 45.005Z" fill="#43C9ED"/>
<path d="M56.2773 56.0505C58.9744 57.9719 62.6464 57.5941 64.9113 55.1622C67.1763 52.7304 67.3519 48.9769 65.3242 46.3369L63.2998 47.8498C64.3047 49.119 64.5088 50.8613 63.8252 52.3355C63.1417 53.8098 61.6908 54.7567 60.0897 54.7734V53.1629L56.2773 56.0505Z" fill="#0194E2"/>
<path d="M69.1958 44.1689H72.572L73.259 53.1896L78.0669 44.1689L81.2721 44.2161L82.5312 53.1896L86.767 44.1689L89.8571 44.2161L83.4467 57.3851H80.3566L78.8673 47.9447L73.9461 57.3851H70.7409L69.1958 44.1689Z" fill="#0194E2"/>
<path d="M91.7206 44.4029H91.0811V44.1768H92.6214V44.4077H91.9827V46.3143H91.7206V44.4029Z" fill="#0194E2"/>
<path d="M93.0078 44.1768H93.3276L93.73 45.3155C93.7817 45.4619 93.8293 45.6116 93.8786 45.7612H93.8936C93.9429 45.6116 93.9879 45.4619 94.0372 45.3155L94.4363 44.1768H94.756V46.3143H94.5072V45.135C94.5072 44.9479 94.5273 44.6908 94.5406 44.5004H94.5273L94.3678 44.9885L93.9712 46.0964H93.7976L93.396 44.9901L93.2366 44.5021H93.224C93.2382 44.6925 93.2591 44.9495 93.2591 45.1366V46.316H93.0162L93.0078 44.1768Z" fill="#0194E2"/>
</g>
<defs>
<clipPath id="clip0_6163_7">
<rect width="91" height="34" fill="white" transform="translate(4 31)"/>
</clipPath>
</defs>
</svg>
