<svg width="96" height="96" viewBox="0 0 96 96" fill="none" xmlns="http://www.w3.org/2000/svg">
<g clip-path="url(#clip0_6105_356)">
<rect width="96" height="96" fill="white"/>
<g clip-path="url(#clip1_6105_356)">
<path d="M96 0H0V96H96V0Z" fill="#512BD4"/>
<path d="M17.1101 61.3324C16.4314 61.3324 15.8544 61.1063 15.3792 60.6539C14.9041 60.1899 14.6665 59.639 14.6665 59.0011C14.6665 58.3514 14.9041 57.7948 15.3792 57.3308C15.8544 56.8668 16.4314 56.6348 17.1101 56.6348C17.8003 56.6348 18.3829 56.8668 18.858 57.3308C19.3445 57.7948 19.5877 58.3514 19.5877 59.0011C19.5877 59.639 19.3445 60.1899 18.858 60.6539C18.3829 61.1063 17.8003 61.3324 17.1101 61.3324Z" fill="white"/>
<path d="M44.2457 60.9505H39.8335L28.2093 42.6118C27.9152 42.1478 27.6718 41.6663 27.4796 41.1676H27.3777C27.4682 41.7013 27.5135 42.8438 27.5135 44.5952V60.9505H23.6104V36H28.311L39.5451 53.9038C40.0202 54.6463 40.3257 55.1566 40.4615 55.4349H40.5293C40.4162 54.7739 40.3596 53.6545 40.3596 52.0768V36H44.2457V60.9505Z" fill="white"/>
<path d="M63.2524 60.9505H49.5918V36H62.7095V39.5147H53.6307V46.5787H61.9968V50.076H53.6307V57.4533H63.2524V60.9505Z" fill="white"/>
<path d="M82.6667 39.5147H75.6751V60.9505H71.6361V39.5147H64.6616V36H82.6667V39.5147Z" fill="white"/>
</g>
</g>
<defs>
<clipPath id="clip0_6105_356">
<rect width="96" height="96" fill="white"/>
</clipPath>
<clipPath id="clip1_6105_356">
<rect width="96" height="96" fill="white"/>
</clipPath>
</defs>
</svg>
