<svg width="96" height="96" viewBox="0 0 96 96" fill="none" xmlns="http://www.w3.org/2000/svg">
<rect width="96" height="96" fill="white"/>
<path d="M71.7637 33.5791C71.6695 33.5822 71.5763 33.559 71.4944 33.5123C71.4126 33.4655 71.3454 33.3969 71.3002 33.3142L63.1957 19.2651C63.1464 19.1838 63.0768 19.1166 62.9938 19.0702C62.9108 19.0238 62.8171 18.9997 62.722 19.0003H29.6623C29.5681 18.9972 29.4749 19.0203 29.3931 19.0671C29.3112 19.1139 29.244 19.1824 29.1988 19.2651L20.7734 33.844L12.6639 47.8982C12.6179 47.9798 12.5938 48.0719 12.5938 48.1656C12.5938 48.2593 12.6179 48.3514 12.6639 48.433L20.7734 62.4821L29.1937 77.0762C29.2389 77.159 29.3061 77.2275 29.388 77.2743C29.4698 77.321 29.563 77.3442 29.6572 77.3411H62.722C62.8171 77.3417 62.9108 77.3176 62.9938 77.2712C63.0768 77.2247 63.1464 77.1576 63.1957 77.0762L71.3053 63.0272C71.3504 62.9444 71.4177 62.8759 71.4995 62.8291C71.5814 62.7823 71.6746 62.7592 71.7688 62.7623H81.8599C82.0207 62.7623 82.1748 62.6984 82.2885 62.5847C82.4022 62.471 82.4661 62.3169 82.4661 62.1561V34.1904C82.4661 34.0296 82.4022 33.8754 82.2885 33.7617C82.1748 33.6481 82.0207 33.5842 81.8599 33.5842H71.7637V33.5791Z" fill="#4D4D4D"/>
<path d="M22.6171 46.6968L13.5601 49.9823L12.6686 48.4542C12.619 48.3738 12.5928 48.2812 12.5928 48.1867C12.5928 48.0923 12.619 47.9997 12.6686 47.9193L16.7438 40.8184L22.6171 46.6968Z" fill="#E1E1E1"/>
<path d="M76.4961 49.3194L82.4662 48.4688V55.3914L76.4961 49.3194Z" fill="#C8C8C8"/>
<path d="M76.4957 49.3203L82.4658 55.3923V62.157C82.4658 62.3156 82.4032 62.4677 82.2915 62.5803C82.1799 62.6928 82.0283 62.7568 81.8698 62.7581H74.9268L76.4957 49.3203Z" fill="#C2C2C2"/>
<path d="M76.4957 49.3203L74.9268 62.753H66.5727L64.041 56.6607L76.4957 49.3203Z" fill="#C7C7C7"/>
<path d="M76.4961 49.3186L82.4662 42.0547V48.468L76.4961 49.3186Z" fill="#CECECE"/>
<path d="M82.4663 34.1851V42.0552L76.4962 49.3242L71.9932 33.584H81.8601C82.02 33.584 82.1734 33.6471 82.287 33.7597C82.4005 33.8723 82.465 34.0252 82.4663 34.1851Z" fill="#D3D3D3"/>
<path d="M66.5727 62.7525H62.1664L61.0254 61.1174L64.041 56.6602L66.5727 62.7525Z" fill="#C6C6C6"/>
<path d="M76.4962 49.3204L59.9766 42.3366L68.6668 33.5801H71.9983L76.4962 49.3204Z" fill="#D5D5D5"/>
<path d="M59.9971 42.3359L64.0722 56.6601L76.5269 49.3197L59.9971 42.3359Z" fill="#D0D0D0"/>
<path d="M62.1666 62.7523H60.9746L61.0255 61.1172L62.1666 62.7523Z" fill="#BFBFBF"/>
<path d="M68.6664 33.5801L59.9762 42.3366L58.4072 34.5072L61.759 33.5801H68.6664Z" fill="#D9D9D9"/>
<path d="M59.9972 42.3359L39.9424 46.9612L61.016 61.1173L59.9972 42.3359Z" fill="#D4D4D4"/>
<path d="M59.9971 42.3359L61.0159 61.1173L64.0315 56.6601L59.9971 42.3359Z" fill="#D0D0D0"/>
<path d="M58.4078 34.5059L39.9219 46.9605L59.9971 42.3352L58.4078 34.5059Z" fill="#D9D9D9"/>
<path d="M39.9213 46.9622L31.2259 62.7534H26.2746L22.6172 46.6973L39.9213 46.9622Z" fill="#D8D8D8"/>
<path d="M31.0067 33.5801L22.617 46.697L20.4775 34.3696L20.7781 33.8603C20.8271 33.7813 20.8954 33.7161 20.9764 33.6707C21.0575 33.6252 21.1487 33.6011 21.2416 33.6005H31.0067V33.5801Z" fill="#E2E2E2"/>
<path d="M26.2752 62.7534H21.2475C21.1517 62.7544 21.0573 62.73 20.9741 62.6826C20.8908 62.6351 20.8217 62.5664 20.7738 62.4834L13.5557 49.9829L22.6127 46.6973L26.2752 62.7534Z" fill="#D8D8D8"/>
<path d="M22.6176 46.6965L16.7646 40.7977L20.473 34.3691L22.6176 46.6965Z" fill="#E4E4E4"/>
<path d="M49.0804 33.5801H43.2988H34.4404L39.9215 46.9619L58.4074 34.5072L52.8346 33.5801H49.0804Z" fill="#DEDEDE"/>
<path d="M32.153 33.5801H31.0069L22.6172 46.697L39.9213 46.9619L34.4402 33.5801H32.153Z" fill="#DEDEDE"/>
<path d="M57.002 62.7523H60.2264H60.9752L61.0262 61.1172L57.002 62.7523Z" fill="#C5C5C5"/>
<path d="M61.0261 61.117L39.9219 46.9609L43.722 62.7521H49.0808H57.0018L61.0261 61.117Z" fill="#D0D0D0"/>
<path d="M31.2256 62.7521H32.1527H43.2982H43.721L39.9209 46.9609L31.2256 62.7521Z" fill="#D1D1D1"/>
<path d="M58.4633 33.5801L58.4072 34.5072L61.759 33.5801H60.2258H58.4633Z" fill="#DDDDDD"/>
<path d="M52.835 33.5801L58.4077 34.5072L57.8932 33.5801H52.835Z" fill="#E3E3E3"/>
<path d="M57.8936 33.5801L58.408 34.5072L58.4641 33.5801H57.8936Z" fill="#E2E2E2"/>
<path d="M43.2429 33.8332L35.0926 47.9536C35.0573 48.0195 35.0381 48.0928 35.0366 48.1676H29.3467L40.5533 28.7852C40.6231 28.8232 40.6812 28.8796 40.7214 28.9482L43.2684 33.3544C43.3038 33.4302 43.32 33.5135 43.3155 33.597C43.3111 33.6805 43.2862 33.7616 43.2429 33.8332Z" fill="#00B8E3"/>
<path d="M43.232 63.0219L40.685 67.4078C40.641 67.475 40.5816 67.5309 40.5118 67.5708L29.3408 48.168H35.0358C35.0348 48.2447 35.0541 48.3202 35.0919 48.387L43.2422 62.4972C43.2917 62.5762 43.3172 62.6679 43.3154 62.7611C43.3135 62.8543 43.2846 62.9449 43.232 63.0219Z" fill="#33C6E9"/>
<path d="M40.5274 28.8104L29.3462 48.1674L26.5395 53.027L23.8295 48.4017C23.7918 48.3349 23.7724 48.2594 23.7735 48.1827C23.7741 48.1023 23.7951 48.0234 23.8346 47.9534L26.5497 43.2517L34.7917 28.9887C34.8333 28.9145 34.8939 28.8528 34.9673 28.8098C35.0408 28.7668 35.1243 28.7442 35.2094 28.7442H40.2676C40.3586 28.7427 40.4483 28.7656 40.5274 28.8104Z" fill="#008AAA"/>
<path d="M40.5272 67.5708C40.4541 67.6123 40.3719 67.635 40.2878 67.637H35.2295C35.1445 67.637 35.0609 67.6144 34.9875 67.5714C34.9141 67.5284 34.8535 67.4667 34.8118 67.3925L27.2779 54.3418L26.5342 53.048L29.3409 48.168L40.5272 67.5708Z" fill="#00B8E3"/>
<path d="M63.0531 48.168L51.8464 67.5708C51.7785 67.5302 51.7209 67.4744 51.6783 67.4078L49.1313 63.0117C49.0963 62.9413 49.0781 62.8637 49.0781 62.785C49.0781 62.7064 49.0963 62.6288 49.1313 62.5583L57.2816 48.4379C57.3255 48.364 57.3484 48.2794 57.3479 48.1934H63.0531V48.168Z" fill="#008AAA"/>
<path d="M68.5695 48.169C68.57 48.255 68.5472 48.3395 68.5033 48.4135L57.5411 67.3935C57.4979 67.4624 57.4377 67.5191 57.3664 67.5584C57.2951 67.5976 57.215 67.618 57.1336 67.6176H52.0804C51.9947 67.6165 51.9106 67.5937 51.8359 67.5514L63.0528 48.169L65.8595 43.3145L68.5237 47.9296C68.5598 48.0039 68.5756 48.0865 68.5695 48.169Z" fill="#00B8E3"/>
<path d="M63.0531 48.1675H57.3377C57.3376 48.0832 57.3147 48.0005 57.2715 47.9281L49.1212 33.823C49.0733 33.7467 49.0479 33.6584 49.0479 33.5683C49.0479 33.4782 49.0733 33.3899 49.1212 33.3136L51.6682 28.9226C51.7192 28.8732 51.7799 28.8351 51.8465 28.8105L63.0531 48.1675Z" fill="#00B8E3"/>
<path d="M65.8346 43.3179L63.0533 48.1673L51.8467 28.8104C51.9213 28.7681 52.0054 28.7453 52.0912 28.7441H57.1444C57.2257 28.7438 57.3059 28.7642 57.3772 28.8034C57.4485 28.8426 57.5086 28.8994 57.5519 28.9683L65.8346 43.3179Z" fill="#33C6E9"/>
</svg>
