<svg xmlns="http://www.w3.org/2000/svg" xmlns:xlink="http://www.w3.org/1999/xlink" width="96" height="96" viewBox="0 0 96 96" fill="none">
  <rect width="96" height="96" fill="white"/>
  <svg x="4" y="4" width="88" height="88" viewBox="0 0 135.47 135.47">
    <defs><linearGradient id="a" x1="13.604" x2="105.83" y1="90.791" y2="62.723" gradientUnits="userSpaceOnUse"><stop stop-color="#fd7d00" offset="0"/><stop stop-color="#ffc730" offset="1"/></linearGradient></defs>
    <g stroke-width="1.3111">
      <path d="m94.002 15.965-2.7805 3.4357c-1.529 1.889-3.4352 6.1163-4.236 9.3932-1.1164 4.5682-2.9626 5.7855-4.4361 5.22-2.7699-1.0629-9.1036-1.64-14.816-1.5594-5.7128-0.08045-12.046 0.49655-14.816 1.5594-1.4735 0.56543-3.3197-0.6518-4.4361-5.22-0.80083-3.2769-2.707-7.5042-4.236-9.3932l-2.7805-3.4333-6.386 4.8114c-3.893 2.9331-9.4712 7.2854-11.952 10.312-10.373 12.659-16.255 33.341-13.368 47.01 4.8463 22.946 23.86 38.654 51.473 41.078 4.4017 0.38647 8.4742 0.47415 13.003-3e-3 27.567-2.901 46.626-18.133 51.473-41.078 2.8869-13.668-2.995-34.351-13.368-47.01-2.4799-3.0265-7.8575-7.6661-11.952-10.312z" fill="#fff" stroke-width="1.2379"/>
      <path d="m94.434 12.905-2.945 3.6391c-1.6194 2.0006-3.6384 6.4777-4.4865 9.9482-1.1824 4.8382-2.0164 6.1272-3.577 5.5283-2.9336-1.1257-9.6417-1.7368-15.692-1.6516-6.0503-0.0852-12.758 0.52584-15.692 1.6516-1.5606 0.59885-2.3947-0.69013-3.577-5.5283-0.84816-3.4706-2.8672-7.9476-4.4865-9.9482l-2.945-3.6365-7.8843 5.0958c-4.3356 2.8022-10.031 7.7159-12.658 10.921-10.986 13.407-17.215 35.312-14.158 49.788 5.1327 24.302 25.27 40.938 54.515 43.506 4.6619 0.40931 8.9753 0.50207 13.772-0.0031 29.196-3.0725 49.382-19.205 54.515-43.506 3.0575-14.476-3.1716-36.381-14.158-49.788-2.6265-3.2054-8.322-8.1196-12.658-10.922l-7.8843-5.0953zm5.5873 21.697 4.6478 5.1087c10.124 11.127 14.64 33.646 7.6305 44.966-19.847 32.053-70.605 33.063-89.133 0.003101-6.509-11.615-2.4936-33.838 7.6305-44.966l4.6478-5.1087-0.76326 10.776-0.76533 10.776 10.64-5.5314c15.347-7.7742 32.887-6.9741 46.354 0l10.64 5.5309-0.76533-10.775-0.76326-10.779zm-31.67 21.103c-6.3454-0.085707-12.912 1.2748-19.002 4.3574-0.00377 0.0019-0.007669 0.002234-0.011369 0.004134l-18.627 9.6852c-0.006202 4.3228 0.71975 8.0266 1.6878 9.7539 14.452 25.788 55.256 24.87 70.904-0.40049 0.91401-1.4761 1.6668-5.0061 1.666-9.2439l-18.926-9.8382c-5.2138-2.7002-11.342-4.2323-17.691-4.3181zm-9.354 28.027c6.1911 1.8525 11.995 1.7494 17.472 0-1.53e-4 2.0915-1.6654 4.0238-4.3682 5.0695-2.7027 1.0457-6.0327 1.0457-8.7354 0-2.7028-1.0456-4.3681-2.978-4.3682-5.0695z" fill="url(#a)"/>
    </g>
  </svg>
</svg>
