<svg width="96" height="96" viewBox="0 0 96 96" fill="none" xmlns="http://www.w3.org/2000/svg">
<rect width="96" height="96" fill="black"/>
<path d="M60.9692 35.0308C59.2208 21.9332 54.7961 11 48 11C41.2039 11 36.7792 21.9332 35.0308 35.0308C21.9332 36.7792 11 41.2039 11 48C11 54.7961 21.9351 59.2208 35.0308 60.9692C36.7792 74.0649 41.2039 85 48 85C54.7961 85 59.2208 74.0649 60.9692 60.9692C74.0668 59.2208 85 54.7961 85 48C85 41.2039 74.0649 36.7792 60.9692 35.0308ZM34.6033 57.1541C22.0597 55.3425 14.7441 51.1958 14.7441 48C14.7441 44.8042 22.0597 40.6575 34.6033 38.8459C34.3273 41.8653 34.1835 44.948 34.1835 48C34.1835 51.052 34.3273 54.1366 34.6033 57.1541ZM48 14.7441C51.1958 14.7441 55.3425 22.0597 57.1541 34.6033C54.1366 34.3273 51.052 34.1835 48 34.1835C44.948 34.1835 41.8634 34.3273 38.8459 34.6033C40.6575 22.0597 44.8042 14.7441 48 14.7441ZM61.3967 57.1541C60.7794 57.2442 58.2469 57.5414 57.6066 57.6047C57.5433 58.2469 57.2443 60.7775 57.1561 61.3948C55.3444 73.9383 51.1977 81.254 48.0019 81.254C44.8061 81.254 40.6594 73.9383 38.8478 61.3948C38.7596 60.7775 38.4605 58.245 38.3973 57.6047C38.1059 54.6312 37.9295 51.4374 37.9295 48C37.9295 44.5626 38.1059 41.3688 38.3973 38.3934C41.3707 38.102 44.5646 37.9256 48.0019 37.9256C51.4393 37.9256 54.6332 38.102 57.6066 38.3934C58.2488 38.4567 60.7794 38.7557 61.3967 38.8439C73.9403 40.6556 81.2578 44.8042 81.2578 47.9981C81.2578 51.192 73.9403 55.3425 61.3967 57.1541Z" fill="white"/>
</svg>
