<svg width="96" height="96" viewBox="0 0 96 96" fill="none" xmlns="http://www.w3.org/2000/svg">
<rect width="96" height="96" fill="white"/>
<path d="M9 47.5812C9 37.349 12.9337 27.6806 20.2043 20.4105C27.9152 12.7 38.006 8.65478 48.6164 9.02311C58.38 9.35714 67.8507 13.4276 74.6131 20.1897C81.8631 27.4405 85.9049 37.057 85.9992 47.2661C86.0648 57.6197 82.0565 67.4278 74.6405 74.8442C59.6646 89.821 35.2291 89.7515 20.1674 74.692C18.4934 73.0175 17.99 69.9637 20.3527 67.6011L30.5883 57.3628C28.2668 53.2443 24.9849 42.4495 33.574 33.8565C42.2124 25.2202 54.6773 26.9907 61.2717 33.5855C64.9893 37.3036 67.0578 42.1759 67.0908 47.3064C67.156 52.5655 65.0082 57.5858 61.1156 61.4771C56.3715 66.2216 49.5267 68.0809 42.8046 66.4558C41.1035 66.0424 40.0599 64.329 40.4698 62.6258C40.8823 60.9244 42.5953 59.8785 44.298 60.2919C48.9208 61.4093 53.4176 60.2061 56.6331 56.9919C59.2916 54.3317 60.7512 50.9443 60.7512 47.438C60.7512 47.4102 60.7512 47.3784 60.7512 47.3506C60.7272 43.8971 59.319 40.6031 56.7896 38.0698C52.3507 33.6318 43.9267 32.4741 38.0587 38.3425C30.9005 45.5038 36.1939 54.3883 36.2488 54.4758C37.997 57.2406 37.0884 60.1298 35.2574 61.6657L25.7104 71.214C36.9113 81.3665 56.5906 83.9268 70.1571 70.3612C76.2914 64.2269 79.6583 56.1601 79.6583 47.6156C79.6583 47.5174 79.6583 47.4217 79.6574 47.3227C79.5815 38.7868 76.1971 30.7435 70.1284 24.6744C64.4915 19.0379 56.5709 15.6436 48.4007 15.3619C39.5655 15.0562 31.1427 18.4428 24.6912 24.8969C14.8067 34.7784 14.8208 46.4574 15.705 52.5372C16.0943 55.2081 16.9463 58.0587 18.1693 60.7721C18.8883 62.3689 18.1765 64.2471 16.5784 64.9661C14.9825 65.6839 13.1039 64.9721 12.387 63.3758C10.9038 60.0839 9.91246 56.7432 9.43093 53.4527C9.14278 51.4828 9 49.5232 9 47.5812Z" fill="#064780"/>
</svg>
