<svg width="96" height="96" viewBox="0 0 96 96" fill="none" xmlns="http://www.w3.org/2000/svg">
<rect width="96" height="96" fill="white"/>
<g clip-path="url(#clip0_6102_105)">
<path d="M42.5207 54.6738L42.3799 54.8502L46.2684 54.956L42.1688 55.1324L41.9577 55.397L46.2684 55.591L41.6761 55.7674L41.4826 56.0143L46.2684 56.2083L41.1835 56.42L41.0076 56.6492L46.2684 56.8433L40.6909 57.0549L40.5149 57.2666L46.2684 57.4782L40.1982 57.6899L40.0398 57.8839L46.2684 58.0955L39.7055 58.3248L39.5648 58.5012L46.2684 58.7305L39.2481 58.9069L39.1249 59.0656L46.2684 59.3478L38.8434 59.436L38.6851 59.6476H51.2476V54.6738H42.5207Z" fill="#142241"/>
<path d="M42.2394 53.3683L50.3505 42.627H50.2274L41.7819 52.9273L49.5412 42.627H49.4004L41.2717 52.5393L48.7494 42.627H48.5911L40.779 52.1336L47.9577 42.627H47.7641L40.2864 51.7456L47.1483 42.627H46.9372L39.7761 51.3576L46.3565 42.627H46.1102L39.2835 50.9519L45.5648 42.627H45.3009L38.7908 50.5639L44.773 42.627H44.4739L38.2806 50.1759L43.9813 42.627H43.7877L33.2661 56.0139V59.6473H37.8055L51.2654 42.627H51.0543L42.2394 53.3683Z" fill="#142241"/>
<path d="M31.1018 59.6294C30.222 59.9116 29.5007 59.9821 28.2163 59.9821C25.7706 59.9821 23.888 58.8357 23.1138 56.3311H23.061C22.322 57.7245 20.4394 59.9821 15.6537 59.9821C10.6744 59.9998 8 57.5481 8 53.809C8 48.2707 13.6655 46.6481 19.8236 46.6481H22.7267V45.6251C22.7267 43.2793 21.3016 41.7095 18.4512 41.7095C16.0584 41.7095 14.5452 42.9089 14.3165 44.849H8.59822C8.96771 39.7341 12.9265 36.9121 18.7679 36.9121C25.3483 36.9121 28.8497 40.3691 28.8497 46.1013V53.3857C28.8497 54.3028 29.2719 54.7614 29.9053 54.7614C30.2924 54.7614 30.6971 54.6908 31.049 54.5321L31.1018 59.6294ZM22.7267 51.5513V50.1227H19.4717C16.1111 50.1227 14.1405 51.0928 14.1405 53.0682C14.1405 54.5497 15.249 55.3787 17.4131 55.3787C20.7033 55.3787 22.7267 53.3504 22.7267 51.5513Z" fill="#142241"/>
<path d="M87.0002 59.5591C86.0501 59.8765 85.0472 60.0176 84.0443 60C80.367 60 78.4668 57.7777 78.4668 53.7739V27H84.7833V53.4035C84.7833 54.2854 85.2407 54.7793 85.8917 54.7793C86.2788 54.7793 86.6483 54.7087 87.0002 54.55V59.5591Z" fill="#142241"/>
<path d="M76.8477 54.5509C76.4958 54.7096 76.1263 54.7801 75.7392 54.7801C75.0882 54.7801 74.6308 54.2687 74.6308 53.4044V37.1602H68.2791V49.8063C68.2791 52.6284 66.4845 54.5156 64.1444 54.5156C61.6107 54.5156 60.2735 52.8576 60.2735 50.2296V37.1778H53.9219V51.6936C53.9219 56.3499 56.5435 60.0009 61.6987 60.0009C64.4787 60.0009 67.0827 58.6075 68.631 56.297C69.2996 58.7133 71.0767 60.0009 73.8918 60.0009C74.8947 60.0362 75.8976 59.8774 76.8477 59.5599V54.5509Z" fill="#142241"/>
<path d="M33.2661 37.0352V37.1233L44.2276 37.3526L33.2661 37.5819V37.7583L44.2276 37.97L33.2661 38.1992V38.3756L44.2276 38.6049L33.2661 38.8342V39.0106L44.2276 39.2399L33.2661 39.4691V39.6455L44.2276 39.8572L33.2661 40.0865V40.2628L44.2276 40.4921L33.2661 40.7214V40.8978L44.2276 41.1271L33.2661 41.3387V41.5328L44.2276 41.7444L33.2661 41.9737V42.0619H51.283V37.0352H33.2661Z" fill="#142241"/>
</g>
<defs>
<clipPath id="clip0_6102_105">
<rect width="79" height="33" fill="white" transform="translate(8 27)"/>
</clipPath>
</defs>
</svg>
