<svg width="96" height="96" viewBox="0 0 96 96" fill="none" xmlns="http://www.w3.org/2000/svg">
<rect width="96" height="96" fill="white"/>
<path d="M47.5 85L16 66.5V29.5L47.5 11L79 29.5V66.5L47.5 85ZM20.4026 63.8926L47.438 79.7852L74.4734 63.8926V32.1074L47.5 16.2148L20.4026 32.1074V63.8926Z" fill="url(#paint0_linear_6115_432)"/>
<path d="M60.9015 38L50.009 57.6096L53.5582 64L68 38H60.9015ZM48.7239 38L37.8313 57.6096L41.3806 64L55.8224 38H48.7239ZM27 38L41.4418 64L44.991 57.6096L34.0985 38H27ZM27 38L41.4418 64L44.991 57.6096L34.0985 38H27ZM48.7239 38L37.8313 57.6096L41.3806 64L55.8224 38H48.7239Z" fill="url(#paint1_linear_6115_432)"/>
<defs>
<linearGradient id="paint0_linear_6115_432" x1="15.8685" y1="66.2622" x2="79.1139" y2="29.7901" gradientUnits="userSpaceOnUse">
<stop stop-color="#10E7FF"/>
<stop offset="0.103" stop-color="#33D5FF"/>
<stop offset="0.255" stop-color="#60BDFF"/>
<stop offset="0.408" stop-color="#86AAFF"/>
<stop offset="0.56" stop-color="#A39AFF"/>
<stop offset="0.71" stop-color="#B790FF"/>
<stop offset="0.858" stop-color="#C489FF"/>
<stop offset="1" stop-color="#C887FF"/>
</linearGradient>
<linearGradient id="paint1_linear_6115_432" x1="35.6124" y1="53.7328" x2="66.9105" y2="36.0828" gradientUnits="userSpaceOnUse">
<stop stop-color="#10E7FF"/>
<stop offset="0.103" stop-color="#33D5FF"/>
<stop offset="0.255" stop-color="#60BDFF"/>
<stop offset="0.408" stop-color="#86AAFF"/>
<stop offset="0.56" stop-color="#A39AFF"/>
<stop offset="0.71" stop-color="#B790FF"/>
<stop offset="0.858" stop-color="#C489FF"/>
<stop offset="1" stop-color="#C887FF"/>
</linearGradient>
</defs>
</svg>
