<svg width="96" height="96" viewBox="0 0 96 96" fill="none" xmlns="http://www.w3.org/2000/svg">
<rect width="96" height="96" fill="white"/>
<g clip-path="url(#clip0_6211_12)">
<path fill-rule="evenodd" clip-rule="evenodd" d="M47.9998 80.7842L49.1989 64.4043L50.1723 51.1037C52.1781 50.256 53.5861 48.2699 53.5861 45.9557C53.5861 42.8711 51.0845 40.3695 47.9998 40.3695C44.9151 40.3695 42.4136 42.8711 42.4136 45.9557C42.4136 48.2699 43.8215 50.256 45.8274 51.1037L46.8008 64.4043L47.9998 80.7842Z" fill="#F3771C"/>
<path fill-rule="evenodd" clip-rule="evenodd" d="M9.84829 45.9347C9.84829 55.3845 13.3033 64.2303 19.2953 71.0655L15.6839 74.3027C8.92217 66.6079 5 56.6139 5 45.9347C5 33.9017 9.94589 23.0218 17.9146 15.2162L18.0962 15.379L28.7783 24.9549C18.7389 34.1582 16.6597 49.1253 23.6448 60.6553L27.3324 57.3497C22.0078 47.7308 24.0365 35.5809 32.409 28.2099L36.0666 31.488L39.3197 34.4047L42.694 37.4295C41.4319 38.2208 40.3592 39.2858 39.5587 40.5413C38.5695 42.0928 37.9962 43.9352 37.9962 45.9111C37.9962 50.3157 40.8446 54.0563 44.7993 55.3915L45.1396 60.0398C38.5505 58.7126 33.5868 52.8905 33.5868 45.9111C33.5868 42.8032 34.571 39.9247 36.2447 37.5704L33.0162 34.6756L33.004 34.6647C27.7114 41.6947 28.0385 51.4547 33.7378 58.1189L22.9062 67.8286C12.2423 55.6166 11.9378 37.4914 22.1515 24.9363L18.5384 21.6972C13.5515 27.7517 10.3936 35.3688 9.91258 43.7027L9.89056 43.7273L9.91015 43.7449C9.86908 44.4697 9.84829 45.1997 9.84829 45.9347ZM51.2006 55.3915C55.1553 54.0563 58.0036 50.3156 58.0036 45.9111C58.0036 43.9352 57.4304 42.0928 56.4413 40.5414C55.6408 39.2859 54.568 38.2208 53.3062 37.4296L56.6803 34.4049L59.9337 31.4883L59.9334 31.488L63.591 28.2099C71.9635 35.5809 73.9922 47.7308 68.6676 57.3497L72.3552 60.6553C79.3401 49.1253 77.2611 34.1582 67.2217 24.9549L77.9042 15.3786L78.0853 15.2162C86.0541 23.0218 91 33.9017 91 45.9347C91 56.6139 87.0778 66.6079 80.3161 74.3027L76.7047 71.0655C82.6966 64.2303 86.1516 55.3845 86.1516 45.9347C86.1516 45.1997 86.1309 44.4697 86.0898 43.7449L86.1094 43.7273L86.0874 43.7027C85.6064 35.3688 82.4485 27.7517 77.4615 21.6972L73.8485 24.9363C84.0621 37.4914 83.7575 55.6166 73.0938 67.8286L62.2621 58.1189C67.9615 51.4547 68.2885 41.6947 62.9959 34.6647L62.9837 34.6756L59.7552 37.5704C61.4289 39.9247 62.4131 42.8033 62.4131 45.9111C62.4131 52.8905 57.4493 58.7125 50.8604 60.0398L51.2006 55.3915Z" fill="#3C5280"/>
</g>
<defs>
<clipPath id="clip0_6211_12">
<rect width="86" height="86" fill="white" transform="translate(5 5)"/>
</clipPath>
</defs>
</svg>
