<svg width="96" height="96" viewBox="0 0 96 96" fill="none" xmlns="http://www.w3.org/2000/svg">
<g clip-path="url(#clip0_6102_64)">
<rect width="96" height="96" fill="black"/>
<path d="M76.6431 -0.216797H19.1398C8.44919 -0.216797 -0.217285 8.44967 -0.217285 19.1403V76.6436C-0.217285 87.3342 8.44919 96.0006 19.1398 96.0006H76.6431C87.3336 96.0006 96 87.3342 96 76.6436V19.1403C96 8.44967 87.3336 -0.216797 76.6431 -0.216797Z" fill="black"/>
<path d="M56.9697 23.6683C56.9708 24.862 57.447 26.0065 58.2942 26.8506C59.141 27.6947 60.2892 28.1694 61.4868 28.1706C62.6847 28.1694 63.8329 27.6947 64.6798 26.8506C65.5266 26.0065 66.0028 24.862 66.0042 23.6683C66.0028 22.4746 65.5266 21.3301 64.6798 20.486C63.8329 19.6419 62.6847 19.1672 61.4868 19.166C60.2892 19.1672 59.141 19.6419 58.2942 20.486C57.447 21.3301 56.9708 22.4746 56.9697 23.6683Z" fill="white"/>
<path d="M29.7783 72.0865C29.7795 73.2799 30.2558 74.4246 31.1026 75.2686C31.9495 76.1127 33.0978 76.5875 34.2955 76.5886C35.4933 76.5875 36.6415 76.1127 37.4884 75.2686C38.3352 74.4246 38.8114 73.2799 38.8128 72.0865C38.8114 70.8927 38.3352 69.748 37.4884 68.9039C36.6415 68.0599 35.4933 67.585 34.2955 67.584C33.0978 67.585 31.9495 68.0599 31.1026 68.9039C30.2558 69.748 29.7795 70.8927 29.7783 72.0865Z" fill="white"/>
<path d="M56.6367 47.8771C56.6378 49.0709 57.114 50.2153 57.9608 51.0593C58.808 51.9033 59.9562 52.3782 61.1538 52.3792C62.3514 52.3782 63.4999 51.9033 64.3468 51.0593C65.1936 50.2153 65.6698 49.0709 65.6709 47.8771C65.6698 46.6834 65.1936 45.539 64.3468 44.6949C63.4999 43.8506 62.3514 43.376 61.1538 43.375C59.9562 43.376 58.808 43.8506 57.9608 44.6949C57.114 45.539 56.6378 46.6834 56.6367 47.8771Z" fill="white"/>
<path d="M15.8379 47.8771C15.839 49.0709 16.3153 50.2153 17.1622 51.0593C18.0091 51.9033 19.1574 52.3782 20.3551 52.3792C21.5528 52.3782 22.7011 51.9033 23.548 51.0593C24.3949 50.2153 24.8712 49.0709 24.8723 47.8771C24.8712 46.6834 24.3949 45.539 23.548 44.6949C22.7011 43.8506 21.5528 43.376 20.3551 43.375C19.1574 43.376 18.0091 43.8506 17.1622 44.6949C16.3153 45.539 15.839 46.6834 15.8379 47.8771Z" fill="white"/>
<path d="M38.0541 26.1971C38.2408 25.9028 38.4967 25.6584 38.7998 25.4855C39.1029 25.3125 39.4443 25.2161 39.7933 25.2048H42.4408C42.7902 25.2154 43.1316 25.3114 43.4347 25.4845C43.7382 25.6575 43.994 25.9023 44.18 26.1971C44.5944 26.801 45.1502 27.295 45.7996 27.6363C46.449 27.9776 47.172 28.1559 47.9059 28.1558C48.5779 28.157 49.2411 28.0081 49.8474 27.7202C50.454 27.4322 50.988 27.0125 51.4103 26.4918C51.8382 25.9661 52.1421 25.3512 52.2992 24.6926C52.4567 24.0341 52.4633 23.3487 52.3187 22.6872C52.1358 21.8253 51.7016 21.0365 51.0703 20.4198C50.439 19.8031 49.6392 19.3859 48.7711 19.2206C47.8836 19.0498 46.9652 19.1475 46.1337 19.5012C45.3025 19.8548 44.5965 20.4483 44.106 21.2052C43.9113 21.4823 43.6502 21.7066 43.3468 21.8579C43.0429 22.0092 42.7064 22.0827 42.3671 22.0719H39.8409C39.502 22.0808 39.1662 22.0064 38.8627 21.8553C38.5596 21.7041 38.2982 21.4809 38.1021 21.2052C37.6067 20.4565 36.899 19.872 36.0688 19.5262C35.2387 19.1804 34.3238 19.0891 33.4413 19.2639C32.5736 19.4303 31.7743 19.8478 31.1434 20.4644C30.5124 21.0809 30.0777 21.8691 29.8936 22.7305C29.7515 23.3921 29.7592 24.077 29.9165 24.7352C30.0737 25.3934 30.3763 26.0083 30.8023 26.5351C31.2258 27.0555 31.7607 27.4749 32.3677 27.7627C32.9747 28.0506 33.6386 28.1997 34.3109 28.1991C35.0517 28.1973 35.7806 28.0137 36.4335 27.6646C37.0863 27.3154 37.6432 26.8115 38.0541 26.1971Z" fill="url(#paint0_linear_6102_64)"/>
<path d="M44.8524 38.3279C45.0391 38.0338 45.295 37.7894 45.5981 37.6163C45.9012 37.4432 46.2423 37.3469 46.5916 37.3357H49.2392C49.5885 37.3462 49.9299 37.4421 50.233 37.6152C50.5365 37.7883 50.7924 38.0331 50.9783 38.3279C51.3927 38.9317 51.9486 39.426 52.5979 39.767C53.2473 40.1084 53.9704 40.2867 54.7042 40.2867C55.3758 40.2878 56.0394 40.139 56.6457 39.8512C57.2523 39.563 57.7863 39.1434 58.2086 38.6227C58.6366 38.097 58.9404 37.4821 59.0975 36.8233C59.255 36.1649 59.2616 35.4794 59.117 34.8179C58.9341 33.9562 58.5 33.1674 57.8687 32.5506C57.2374 31.9339 56.4375 31.5167 55.5695 31.3514C54.682 31.1806 53.7635 31.2784 52.932 31.632C52.1008 31.9857 51.3948 32.5791 50.9043 33.3361C50.7096 33.6131 50.4486 33.8375 50.1451 33.9887C49.8412 34.1401 49.5047 34.2136 49.1655 34.2027H46.6393C46.3003 34.2117 45.9645 34.1373 45.661 33.9861C45.3579 33.835 45.0965 33.6117 44.9004 33.3361C44.4051 32.5874 43.6973 32.0028 42.8671 31.6571C42.037 31.3113 41.1221 31.22 40.2398 31.3947C39.3721 31.5611 38.5726 31.9787 37.9416 32.5952C37.3107 33.2118 36.8761 34 36.6919 34.8613C36.5497 35.5229 36.5577 36.2077 36.7148 36.8661C36.872 37.5241 37.1747 38.1391 37.6006 38.6661C38.0243 39.1862 38.559 39.6057 39.166 39.8936C39.7729 40.1814 40.4369 40.3305 41.1092 40.3299C41.85 40.3281 42.579 40.1446 43.2318 39.7955C43.8847 39.4462 44.4412 38.9425 44.8524 38.3279Z" fill="url(#paint1_linear_6102_64)"/>
<path d="M31.9874 61.8272C31.6843 62.0004 31.4282 62.2444 31.2417 62.5388C30.8306 63.1531 30.274 63.6571 29.6212 64.0065C28.9683 64.3555 28.2393 64.5391 27.4984 64.5408C26.8261 64.5415 26.1622 64.3924 25.5552 64.1045C24.9482 63.8167 24.4133 63.3971 23.9898 62.8771C23.5638 62.3501 23.2612 61.7351 23.104 61.0771C22.9467 60.4187 22.939 59.7338 23.0811 59.0723C23.2652 58.2109 23.6999 57.4228 24.3309 56.8061C24.9618 56.1894 25.7611 55.7719 26.6288 55.6057C27.5113 55.4309 28.426 55.5223 29.2562 55.8679C30.0863 56.2137 30.7942 56.7985 31.2895 57.5469C31.4857 57.8226 31.747 58.0457 32.0503 58.197C32.3536 58.3482 32.6896 58.4226 33.0286 58.4135H35.5545C35.8938 58.4247 36.2307 58.351 36.5341 58.1997C36.8376 58.0485 37.0987 57.824 37.2937 57.5469C37.7839 56.7901 38.4899 56.1967 39.3214 55.8428C40.1526 55.4893 41.071 55.3916 41.9585 55.5623C42.8269 55.7278 43.6268 56.1449 44.2577 56.7616C44.5278 57.0255 44.7618 57.3206 44.9554 57.6397C45.1421 57.873 45.3778 58.0631 45.6462 58.197C45.9496 58.3482 46.2854 58.4226 46.6244 58.4135H49.1506C49.4899 58.4247 49.8264 58.351 50.1302 58.1997C50.4337 58.0485 50.6948 57.824 50.8894 57.5469C51.3799 56.7901 52.086 56.1967 52.9171 55.8428C53.7487 55.4893 54.6671 55.3916 55.5546 55.5623C56.4226 55.7278 57.2225 56.1449 57.8538 56.7616C58.4851 57.3783 58.9193 58.1671 59.1021 59.0288C59.2467 59.6904 59.2401 60.3759 59.0827 61.0343C58.9255 61.6931 58.6217 62.308 58.1938 62.8336C57.7714 63.3544 57.2375 63.774 56.6308 64.0618C56.0246 64.35 55.3613 64.4988 54.6893 64.4977C53.9555 64.4977 53.2324 64.3194 52.5831 63.978C51.9337 63.6366 51.3778 63.1427 50.9635 62.5388C50.7775 62.244 50.5216 61.9993 50.2182 61.8262C49.915 61.6531 49.5737 61.5571 49.2243 61.5467H46.5768C46.2277 61.5578 45.8864 61.6541 45.5832 61.8272C45.2801 62.0004 45.0243 62.2444 44.8376 62.5388C44.4267 63.1531 43.8698 63.6571 43.2169 64.0065C42.5641 64.3555 41.8351 64.5391 41.0943 64.5408C40.422 64.5415 39.758 64.3924 39.1511 64.1045C38.5441 63.8167 38.0095 63.3971 37.5857 62.8771C37.4348 62.6904 37.2996 62.4929 37.1807 62.2861C37.0229 62.1029 36.8342 61.9472 36.6224 61.8262C36.319 61.6531 35.9776 61.5571 35.6286 61.5467H32.9807C32.6316 61.5578 32.2906 61.6541 31.9874 61.8272Z" fill="url(#paint2_linear_6102_64)"/>
<path d="M52.3961 73.9308C52.093 74.1035 51.8368 74.3479 51.6505 74.6423C51.2392 75.2566 50.6827 75.7607 50.0298 76.1097C49.377 76.459 48.648 76.6426 47.9072 76.6443C47.2349 76.645 46.5709 76.4959 45.964 76.2081C45.357 75.9199 44.822 75.5006 44.3986 74.9802C43.9724 74.4536 43.67 73.8386 43.5125 73.1802C43.3554 72.5222 43.3477 71.8373 43.4899 71.1758C43.6738 70.3144 44.1087 69.526 44.7396 68.9096C45.3706 68.2929 46.1698 67.8754 47.0374 67.7093C47.9201 67.5344 48.8347 67.6255 49.6648 67.9714C50.4949 68.3173 51.2031 68.9016 51.6981 69.6504C51.8945 69.9261 52.1556 70.1493 52.459 70.3005C52.7622 70.4517 53.0983 70.5261 53.4373 70.5171H55.9631C56.3024 70.5278 56.6393 70.4545 56.9427 70.3033C57.2466 70.1517 57.5076 69.9275 57.7023 69.6504C58.1925 68.8936 58.8988 68.2999 59.73 67.9463C60.5612 67.5928 61.48 67.4951 62.3675 67.6658C63.2355 67.8309 64.0354 68.2481 64.6667 68.8651C65.2976 69.4818 65.7322 70.2706 65.915 71.1324C66.0593 71.7939 66.0527 72.4794 65.8955 73.1378C65.7381 73.7966 65.4342 74.4112 65.0063 74.9371C64.5843 75.4575 64.05 75.8775 63.4437 76.1653C62.8375 76.4535 62.1738 76.6023 61.5022 76.6009C60.768 76.6012 60.045 76.4229 59.396 76.0815C58.7466 75.7402 58.1907 75.2462 57.7763 74.6423C57.5904 74.3476 57.3345 74.1028 57.031 73.9297C56.7279 73.7566 56.3865 73.6606 56.0372 73.6499H53.3893C53.0403 73.6613 52.6993 73.7576 52.3961 73.9308Z" fill="url(#paint3_linear_6102_64)"/>
<path d="M70.9102 47.8775C70.9112 49.0709 71.3874 50.2156 72.2343 51.0597C73.0811 51.9037 74.2296 52.3786 75.4272 52.3796C76.6248 52.3786 77.7734 51.9037 78.6202 51.0597C79.467 50.2156 79.9433 49.0709 79.9443 47.8775C79.9433 46.6837 79.467 45.539 78.6202 44.6949C77.7734 43.8509 76.6248 43.376 75.4272 43.375C74.2296 43.376 73.0811 43.8509 72.2343 44.6949C71.3874 45.539 70.9112 46.6837 70.9102 47.8775Z" fill="url(#paint4_linear_6102_64)"/>
<path d="M30.7692 51.0597C29.9223 50.2156 29.446 49.0709 29.4448 47.8775C29.446 46.6837 29.9223 45.539 30.7692 44.6949C31.6161 43.8509 32.7644 43.376 33.962 43.375C35.1596 43.376 36.3081 43.8509 37.155 44.6949C38.0018 45.539 38.478 46.6837 38.4794 47.8775C38.478 49.0709 38.0018 50.2156 37.155 51.0597C36.3081 51.9037 35.1596 52.3786 33.962 52.3796C32.7644 52.3786 31.6161 51.9037 30.7692 51.0597Z" fill="url(#paint5_linear_6102_64)"/>
<path d="M63.7539 35.7719C63.7549 36.9657 64.2312 38.1101 65.078 38.9541C65.9252 39.7982 67.0734 40.273 68.271 40.2741C69.4689 40.273 70.6171 39.7982 71.4639 38.9541C72.3108 38.1101 72.787 36.9657 72.7884 35.7719C72.787 34.5782 72.3108 33.4336 71.4639 32.5895C70.6171 31.7454 69.4689 31.2707 68.271 31.2695C67.0734 31.2707 65.9252 31.7454 65.078 32.5895C64.2312 33.4336 63.7549 34.5782 63.7539 35.7719Z" fill="white"/>
<path d="M22.9946 35.7719C22.9958 36.9657 23.4721 38.1101 24.319 38.9541C25.1658 39.7982 26.3141 40.273 27.5118 40.2741C28.7095 40.273 29.8578 39.7982 30.7047 38.9541C31.5516 38.1101 32.0279 36.9657 32.029 35.7719C32.0279 34.5782 31.5516 33.4336 30.7047 32.5895C29.8578 31.7454 28.7095 31.2707 27.5118 31.2695C26.3141 31.2707 25.1658 31.7454 24.319 32.5895C23.4721 33.4336 22.9958 34.5782 22.9946 35.7719Z" fill="white"/>
<path d="M63.7539 59.9826C63.7549 61.1763 64.2312 62.3207 65.078 63.1651C65.9252 64.0092 67.0734 64.4837 68.271 64.4851C69.4689 64.4837 70.6171 64.0092 71.4639 63.1651C72.3108 62.3207 72.787 61.1763 72.7884 59.9826C72.787 58.7888 72.3108 57.6445 71.4639 56.8004C70.6171 55.9564 69.4689 55.4815 68.271 55.4805C67.0734 55.4815 65.9252 55.9564 65.078 56.8004C64.2312 57.6445 63.7549 58.7888 63.7539 59.9826Z" fill="white"/>
</g>
<defs>
<linearGradient id="paint0_linear_6102_64" x1="22.9802" y1="16.5931" x2="69.6006" y2="79.8707" gradientUnits="userSpaceOnUse">
<stop stop-color="#00FAFF"/>
<stop offset="1" stop-color="#8BFF95"/>
</linearGradient>
<linearGradient id="paint1_linear_6102_64" x1="22.9803" y1="16.5911" x2="69.6007" y2="79.8687" gradientUnits="userSpaceOnUse">
<stop stop-color="#00FAFF"/>
<stop offset="1" stop-color="#8BFF95"/>
</linearGradient>
<linearGradient id="paint2_linear_6102_64" x1="22.98" y1="16.5923" x2="69.6005" y2="79.8698" gradientUnits="userSpaceOnUse">
<stop stop-color="#00FAFF"/>
<stop offset="1" stop-color="#8BFF95"/>
</linearGradient>
<linearGradient id="paint3_linear_6102_64" x1="22.9804" y1="16.5907" x2="69.6009" y2="79.8682" gradientUnits="userSpaceOnUse">
<stop stop-color="#00FAFF"/>
<stop offset="1" stop-color="#8BFF95"/>
</linearGradient>
<linearGradient id="paint4_linear_6102_64" x1="22.9802" y1="16.5917" x2="69.6007" y2="79.8693" gradientUnits="userSpaceOnUse">
<stop stop-color="#00FAFF"/>
<stop offset="1" stop-color="#8BFF95"/>
</linearGradient>
<linearGradient id="paint5_linear_6102_64" x1="22.9803" y1="16.5917" x2="69.6008" y2="79.8693" gradientUnits="userSpaceOnUse">
<stop stop-color="#00FAFF"/>
<stop offset="1" stop-color="#8BFF95"/>
</linearGradient>
<clipPath id="clip0_6102_64">
<rect width="96" height="96" fill="white"/>
</clipPath>
</defs>
</svg>
