<svg width="96" height="96" viewBox="0 0 96 96" fill="none" xmlns="http://www.w3.org/2000/svg">
<rect width="96" height="96" fill="#4F5B93"/>
<g clip-path="url(#clip0_6105_395)">
<path d="M13.3664 36.3438H25.2977C28.7997 36.3731 31.3373 37.3828 32.9106 39.3711C34.484 41.3594 35.0031 44.0751 34.4688 47.5183C34.2614 49.0916 33.801 50.6347 33.0887 52.1483C32.4058 53.662 31.4566 55.027 30.2394 56.2442C28.7552 57.7873 27.1676 58.7667 25.4758 59.1825C23.784 59.5983 22.0326 59.8058 20.2224 59.8058H14.88L13.1883 68.2646H7L13.3664 36.3438ZM18.5752 41.419L15.904 54.775C16.0821 54.8044 16.2602 54.8195 16.4382 54.8195C16.6457 54.8195 16.854 54.8195 17.0615 54.8195C19.9108 54.8489 22.2855 54.5675 24.1847 53.9737C26.084 53.3504 27.3608 51.184 28.0134 47.4737C28.5477 44.3573 28.0134 42.5614 26.4107 42.0868C24.8374 41.6122 22.8642 41.3896 20.4896 41.419C20.1334 41.4484 19.7924 41.4636 19.4656 41.4636C19.1691 41.4636 18.8574 41.4636 18.5307 41.4636L18.5752 41.419Z" fill="white"/>
<path d="M41.5183 27.8398H47.6621L45.9258 36.3432H51.4463C54.4736 36.4028 56.729 37.0261 58.2133 38.213C59.727 39.3999 60.1722 41.6562 59.5489 44.98L56.5661 59.8052H50.3333L53.1825 45.6478C53.4791 44.1636 53.39 43.1102 52.9154 42.4869C52.4408 41.8636 51.4169 41.552 49.8435 41.552L44.9018 41.5075L41.2512 59.8052H35.1074L41.5183 27.8398Z" fill="white"/>
<path d="M66.1461 36.3438H78.0775C81.5795 36.3731 84.1171 37.3828 85.6904 39.3711C87.2637 41.3594 87.7829 44.0751 87.2486 47.5183C87.0411 49.0916 86.5808 50.6347 85.8685 52.1483C85.1856 53.662 84.2364 55.027 83.0192 56.2442C81.5349 57.7873 79.9473 58.7667 78.2556 59.1825C76.5638 59.5983 74.8124 59.8058 73.0022 59.8058H67.6598L65.9681 68.2646H59.7798L66.1461 36.3438ZM71.355 41.419L68.6838 54.775C68.8619 54.8044 69.0399 54.8195 69.218 54.8195C69.4255 54.8195 69.6338 54.8195 69.8413 54.8195C72.6906 54.8489 75.0653 54.5675 76.9645 53.9737C78.8637 53.3504 80.1405 51.184 80.7932 47.4737C81.3275 44.3573 80.7932 42.5614 79.1905 42.0868C77.6172 41.6122 75.644 41.3896 73.2693 41.419C72.9132 41.4484 72.5721 41.4636 72.2454 41.4636C71.9489 41.4636 71.6372 41.4636 71.3105 41.4636L71.355 41.419Z" fill="white"/>
</g>
<defs>
<clipPath id="clip0_6105_395">
<rect width="81" height="42" fill="white" transform="translate(7 27)"/>
</clipPath>
</defs>
</svg>
