<svg width="96" height="96" viewBox="0 0 96 96" fill="none" xmlns="http://www.w3.org/2000/svg">
<rect width="96" height="96" fill="white"/>
<g clip-path="url(#clip0_6114_995)">
<path d="M15.3316 80.4773L47.1614 47.8504C47.2596 47.7533 47.3206 47.6248 47.3336 47.4873C47.3466 47.3498 47.3108 47.2121 47.2325 47.0983C45.297 44.3961 41.7254 43.9274 40.4016 42.1116C36.4809 36.7333 35.4861 33.6885 33.8011 33.8774C33.6835 33.8944 33.5754 33.9514 33.4951 34.0389L21.9972 45.8257C15.382 52.6011 14.4315 67.5353 14.2598 80.0412C14.2592 80.1657 14.2959 80.2874 14.3651 80.3908C14.4344 80.4943 14.533 80.5746 14.6482 80.6215C14.7635 80.6683 14.8902 80.6797 15.0119 80.6539C15.1337 80.6282 15.2452 80.5668 15.3316 80.4773Z" fill="#017CEE"/>
<path d="M80.4716 79.6711L47.8447 47.8393C47.7475 47.7408 47.6188 47.6797 47.481 47.6667C47.3433 47.6537 47.2054 47.6896 47.0915 47.7682C44.3892 49.7048 43.9206 53.2753 42.1048 54.5991C36.7265 58.5198 33.6816 59.5146 33.8706 61.1996C33.8878 61.3168 33.9448 61.4245 34.0321 61.5045L45.8189 73.0023C52.5942 79.6175 67.5284 80.5681 80.0344 80.7398C80.1582 80.7399 80.2793 80.7031 80.3821 80.6341C80.4849 80.5651 80.5649 80.4671 80.6118 80.3525C80.6587 80.2379 80.6704 80.1119 80.6454 79.9906C80.6204 79.8694 80.56 79.7579 80.4716 79.6711Z" fill="#00AD46"/>
<path d="M45.8209 73.0014C42.1171 69.3878 40.4007 62.24 47.499 47.5C35.9592 52.6572 31.9157 59.4359 33.9042 61.3769L45.8209 73.0014Z" fill="#04D659"/>
<path d="M79.665 14.5294L47.8363 47.1563C47.7379 47.2533 47.6768 47.3818 47.6637 47.5194C47.6507 47.657 47.6866 47.7947 47.7652 47.9084C49.7018 50.6106 53.2712 51.0793 54.596 52.8951C58.5167 58.2734 59.5127 61.3182 61.1966 61.1293C61.3142 61.1125 61.4224 61.0555 61.5026 60.9678L73.0004 49.181C79.6156 42.4057 80.5662 27.4715 80.7379 14.9655C80.7381 14.8411 80.7012 14.7194 80.6318 14.6161C80.5624 14.5128 80.4638 14.4326 80.3485 14.3858C80.2332 14.3389 80.1066 14.3276 79.9848 14.3532C79.863 14.3789 79.7516 14.4401 79.665 14.5294Z" fill="#00C7D4"/>
<path d="M73.0073 49.18C69.3937 52.8838 62.2459 54.6002 47.5049 47.502C52.6621 59.0417 59.4408 63.0852 61.3817 61.0967L73.0073 49.18Z" fill="#11E1EE"/>
<path d="M14.5243 15.3346L47.1512 47.1633C47.2483 47.2615 47.3768 47.3225 47.5143 47.3355C47.6518 47.3485 47.7895 47.3127 47.9033 47.2344C50.6055 45.2978 51.0742 41.7274 52.89 40.4036C58.2683 36.4829 61.3131 35.488 61.1242 33.803C61.107 33.6855 61.05 33.5775 60.9627 33.497L49.1759 21.9992C42.4005 15.384 27.4663 14.4334 14.9604 14.2617C14.8357 14.2609 14.7136 14.2975 14.61 14.3668C14.5063 14.4361 14.4258 14.5349 14.3789 14.6504C14.3319 14.7659 14.3207 14.8929 14.3467 15.0148C14.3726 15.1368 14.4344 15.2483 14.5243 15.3346Z" fill="#E43921"/>
<path d="M49.181 22C52.8848 25.6136 54.6012 32.7613 47.5029 47.5024C59.0426 42.3452 63.0862 35.5654 61.0976 33.6255L49.181 22Z" fill="#FF7557"/>
<path d="M21.998 45.8258C25.6116 42.122 32.7594 40.4056 47.5004 47.5038C42.3433 35.9641 35.5645 31.9206 33.6236 33.9091L21.998 45.8258Z" fill="#0CB6FF"/>
<path d="M47.5048 48.9198C48.2906 48.9198 48.9276 48.2828 48.9276 47.497C48.9276 46.7112 48.2906 46.0742 47.5048 46.0742C46.719 46.0742 46.082 46.7112 46.082 47.497C46.082 48.2828 46.719 48.9198 47.5048 48.9198Z" fill="#4A4848"/>
</g>
<defs>
<clipPath id="clip0_6114_995">
<rect width="67" height="67" fill="white" transform="translate(14 14)"/>
</clipPath>
</defs>
</svg>
