<svg width="96" height="96" viewBox="0 0 96 96" fill="none" xmlns="http://www.w3.org/2000/svg">
<rect width="96" height="96" fill="white"/>
<g clip-path="url(#clip0_6105_332)">
<path d="M79.1941 25.2879C77.1585 23.2298 74.4117 22.0515 71.5333 22.0017C68.6547 21.9518 65.8696 23.0341 63.7654 25.0205C63.66 25.1219 63.5761 25.2439 63.5187 25.3791C63.4613 25.5143 63.4317 25.6599 63.4317 25.807C63.4317 25.9542 63.4613 26.0998 63.5187 26.235C63.5761 26.3702 63.66 26.4922 63.7654 26.5936L65.1037 27.9779C65.2846 28.1598 65.5242 28.2694 65.7787 28.2868C66.0332 28.3041 66.2853 28.228 66.4887 28.0723C67.772 27.036 69.402 26.5414 71.0377 26.6919C72.6734 26.8424 74.1882 27.6264 75.2654 28.8799C76.3426 30.1335 76.8986 31.7594 76.8173 33.4179C76.7361 35.0763 76.0237 36.6387 74.8293 37.7785C66.014 46.6823 54.2499 21.7169 27.5475 34.585C27.0968 34.8039 26.6959 35.1148 26.3701 35.4982C26.0442 35.8815 25.8005 36.3289 25.6542 36.8123C25.508 37.2957 25.4625 37.8044 25.5205 38.3064C25.5786 38.8085 25.7389 39.2929 25.9915 39.7291L30.5742 47.7285C31.0486 48.5628 31.8299 49.174 32.7479 49.4288C33.6659 49.6836 34.6463 49.5616 35.4757 49.0892L35.5847 49.0263L35.4991 49.0892L37.5065 47.9566C39.7699 46.536 41.9094 44.9228 43.902 43.135C44.0993 42.9532 44.3541 42.8486 44.6208 42.8399C44.8876 42.8313 45.1486 42.9191 45.3569 43.0878C45.4696 43.1833 45.561 43.3017 45.6252 43.4355C45.6893 43.5692 45.7247 43.7152 45.7291 43.8638C45.7335 44.0123 45.7068 44.1601 45.6507 44.2976C45.5946 44.435 45.5104 44.5587 45.4037 44.6609C43.3065 46.5706 41.0465 48.2894 38.6502 49.7972H38.5802L36.5495 50.9455C35.6918 51.4323 34.7243 51.6871 33.7407 51.6849C32.7221 51.6885 31.7203 51.4207 30.8366 50.9084C29.9528 50.3961 29.2182 49.6574 28.7068 48.7668L24.3731 41.2079C16.0869 47.1701 10.9985 58.6223 13.7528 73.1265C13.798 73.3709 13.9261 73.5919 14.1149 73.7512C14.3038 73.9106 14.5416 73.9984 14.7876 73.9996H19.6737C19.9429 74.0066 20.2046 73.9098 20.4055 73.7285C20.6065 73.5473 20.7315 73.2954 20.7552 73.0243C20.9848 71.2673 21.8381 69.6546 23.1564 68.4864C24.4746 67.3182 26.1679 66.6741 27.9209 66.6741C29.674 66.6741 31.3673 67.3182 32.6856 68.4864C34.0038 69.6546 34.8572 71.2673 35.0867 73.0243C35.1172 73.2822 35.2402 73.5199 35.4322 73.6925C35.6244 73.8649 35.8724 73.9602 36.1293 73.9603H40.9065C41.163 73.9585 41.4101 73.8626 41.6019 73.6904C41.7937 73.5183 41.9171 73.2815 41.9491 73.0243C42.1787 71.2673 43.032 69.6546 44.3503 68.4864C45.6686 67.3182 47.3619 66.6741 49.1149 66.6741C50.868 66.6741 52.5613 67.3182 53.8795 68.4864C55.1977 69.6546 56.0511 71.2673 56.2807 73.0243C56.3127 73.2815 56.4362 73.5183 56.6279 73.6904C56.8197 73.8626 57.0667 73.9585 57.3233 73.9603H62.0693C62.3473 73.9604 62.6141 73.8498 62.8121 73.6525C63.0101 73.4553 63.1234 73.1873 63.1274 72.9063C63.2364 66.1419 65.0414 58.3706 70.1844 54.4771C88.0015 41.0034 83.3177 29.4567 79.1941 25.2879ZM61.0268 45.6362L57.6267 43.9137C57.6264 43.5457 57.7193 43.1836 57.8966 42.8622C58.0738 42.5408 58.3296 42.2706 58.6394 42.0774C58.9493 41.8842 59.3029 41.7745 59.6667 41.7586C60.0303 41.7427 60.392 41.8213 60.7171 41.9867C61.0423 42.1522 61.3202 42.3991 61.5242 42.7039C61.7282 43.0088 61.8515 43.3613 61.8826 43.728C61.9136 44.0947 61.8513 44.4633 61.7015 44.7987C61.5517 45.1341 61.3194 45.4251 61.0268 45.6442V45.6362Z" fill="url(#paint0_linear_6105_332)"/>
</g>
<defs>
<linearGradient id="paint0_linear_6105_332" x1="16.1892" y1="19.5068" x2="72.2262" y2="72.7422" gradientUnits="userSpaceOnUse">
<stop stop-color="#209BC4"/>
<stop offset="1" stop-color="#4DC9C0"/>
</linearGradient>
<clipPath id="clip0_6105_332">
<rect width="70" height="52" fill="white" transform="translate(13 22)"/>
</clipPath>
</defs>
</svg>
