<svg width="96" height="96" viewBox="0 0 96 96" fill="none" xmlns="http://www.w3.org/2000/svg">
<rect width="96" height="96" fill="white"/>
<g clip-path="url(#clip0_6154_14)">
<path fill-rule="evenodd" clip-rule="evenodd" d="M9.73377 47.9761C21.5488 48.2474 25.6465 48.79 34.3193 49.616C39.1083 59.3815 38.9056 57.3291 40.9194 68.7644C33.1293 59.8914 21.4292 50.487 9.37695 47.8994" fill="#B1DB9E"/>
<path d="M9.73377 47.9761C21.5488 48.2474 25.6465 48.79 34.3193 49.616C39.1083 59.3815 38.9056 57.3291 40.9194 68.7644C33.1293 59.8914 21.4292 50.487 9.37695 47.8994" stroke="#B1DB9E" stroke-width="0.5" stroke-linecap="round"/>
<path fill-rule="evenodd" clip-rule="evenodd" d="M11.0898 5.46777C21.5028 10.8272 47.3269 28.1233 54.4081 31.5341C58.1565 30.5593 63.5713 28.1233 71.069 31.0467C62.739 32.0215 55.6579 41.2781 47.3269 47.6123C39.8301 28.6107 27.3342 17.6478 21.9194 11.801" fill="#85CB65"/>
<path d="M11.0898 5.46777C21.5028 10.8272 47.3269 28.1233 54.4081 31.5341C58.1565 30.5593 63.5713 28.1233 71.069 31.0467C62.739 32.0215 55.6579 41.2781 47.3269 47.6123C39.8301 28.6107 27.3342 17.6478 21.9194 11.801" stroke="#85CB65" stroke-width="0.5" stroke-linecap="round"/>
<path fill-rule="evenodd" clip-rule="evenodd" d="M5.62279 30.3772C19.9925 33.3006 24.8347 34.9452 35.2476 37.8686C41.8954 51.7745 40.0272 58.3229 38.5804 67.1015C31.9158 51.0233 19.6282 36.1632 5.4668 30.3164" fill="#75B35B"/>
<path d="M5.62279 30.3772C19.9925 33.3006 24.8347 34.9452 35.2476 37.8686C41.8954 51.7745 40.0272 58.3229 38.5804 67.1015C31.9158 51.0233 19.6282 36.1632 5.4668 30.3164" stroke="#75B35B" stroke-width="0.5" stroke-linecap="round"/>
<path fill-rule="evenodd" clip-rule="evenodd" d="M11.2981 5.58939C19.6291 10.4614 30.6669 25.1999 35.2485 37.3809C36.9149 42.2529 39.4135 53.9464 38.5803 67.1012C40.0384 75.384 50.6597 99.2584 74.4008 89.0261C62.3215 89.0261 56.4901 84.3974 50.2431 74.166C49.8265 73.9227 43.9951 56.8698 47.3269 47.6123C39.4135 21.3027 17.5461 8.39116 11.0898 5.46777" fill="#6FB950"/>
<path d="M11.2981 5.58939C19.6291 10.4614 30.6669 25.1999 35.2485 37.3809C36.9149 42.2529 39.4135 53.9464 38.5803 67.1012C40.0384 75.384 50.6597 99.2584 74.4008 89.0261C62.3215 89.0261 56.4901 84.3974 50.2431 74.166C49.8265 73.9227 43.9951 56.8698 47.3269 47.6123C39.4135 21.3027 17.5461 8.39116 11.0898 5.46777" stroke="#6FB950" stroke-width="0.5" stroke-linecap="round"/>
<path fill-rule="evenodd" clip-rule="evenodd" d="M70.2358 82.6925C79.8156 82.6925 87.5217 76.1151 89.3954 65.6395C89.5 65.0305 90.9058 73.4349 81.7417 83.6673C81.0645 84.2763 75.4414 85.1285 70.4432 82.6925" fill="#B1DB9E"/>
<path d="M70.2358 82.6925C79.8156 82.6925 87.5217 76.1151 89.3954 65.6395C89.5 65.0305 90.9058 73.4349 81.7417 83.6673C81.0645 84.2763 75.4414 85.1285 70.4432 82.6925" stroke="#B1DB9E" stroke-width="0.5" stroke-linecap="round"/>
<path fill-rule="evenodd" clip-rule="evenodd" d="M76.9006 45.6641C78.9836 47.1263 80.2324 48.3434 81.4822 49.8055C82.732 50.7803 80.649 46.3948 80.2324 45.9074C80.8573 42.7408 78.879 37.9904 78.6707 37.8678C77.2126 36.4066 50.6599 46.638 59.8231 70.9989C58.9899 50.5352 68.5183 46.638 76.8483 45.6632L76.9006 45.6641Z" fill="#6FB850" stroke="#6FB850" stroke-width="0.5" stroke-linecap="round"/>
<path fill-rule="evenodd" clip-rule="evenodd" d="M74.4009 89.0263C77.3161 87.8083 79.1908 85.6763 81.6904 83.7277C81.794 83.6669 64.8211 86.0421 59.823 70.9378C58.1566 68.2576 52.0553 45.9678 78.6182 37.6851C77.3684 35.0058 72.318 31.5343 71.0691 31.0469C62.7382 32.0216 53.3611 36.7318 47.4998 47.097C42.8295 55.5163 45.2786 90.6877 74.4009 89.0263Z" fill="#77C656" stroke="#77C656" stroke-width="0.5" stroke-linecap="round"/>
<path d="M76.4837 41.7652C77.1739 41.7652 77.7334 41.111 77.7334 40.304C77.7334 39.497 77.1739 38.8428 76.4837 38.8428C75.7934 38.8428 75.2339 39.497 75.2339 40.304C75.2339 41.111 75.7934 41.7652 76.4837 41.7652Z" fill="white"/>
</g>
<defs>
<clipPath id="clip0_6154_14">
<rect width="85" height="87" fill="white" transform="translate(5 5)"/>
</clipPath>
</defs>
</svg>
