<svg width="96" height="96" viewBox="0 0 96 96" fill="none" xmlns="http://www.w3.org/2000/svg">
<rect width="96" height="96" fill="white"/>
<path d="M37.9557 56.0869V48.2439L32.3108 53.8889C32.9202 54.312 33.4897 54.6582 34.0292 54.9429C34.5687 55.2261 35.0733 55.4425 35.5429 55.6123C36.0129 55.7792 36.447 55.893 36.8517 55.967C37.2533 56.0404 37.621 56.0734 37.9557 56.0779M66.8296 55.4285C66.8396 55.437 66.8946 55.4834 66.996 55.5479C67.0979 55.6128 67.2468 55.6962 67.4446 55.7787C67.6419 55.8606 67.8887 55.942 68.1839 56.0024C68.4817 56.0634 68.8283 56.1034 69.233 56.1034C69.5682 56.1034 69.9373 56.0739 70.342 56.0034C70.7476 55.9325 71.1862 55.8201 71.6608 55.6543C72.1369 55.4879 72.6499 55.2681 73.1944 54.9849C73.7389 54.6991 74.3234 54.3454 74.9428 53.9158L70.6617 49.7196L56.4745 35.4825L50.2301 41.7268L41.8377 33.0846L20.7567 53.9158C21.3761 54.3454 21.9556 54.6951 22.5001 54.9849C23.0446 55.2701 23.5592 55.4894 24.0337 55.6543C24.5088 55.8201 24.9479 55.9325 25.3526 56.0029C25.7572 56.0739 26.1269 56.1034 26.4616 56.1034C26.8632 56.1034 27.2109 56.0634 27.5106 56.0024C27.8083 55.942 28.0551 55.8606 28.2499 55.7782C28.4478 55.6962 28.5961 55.6128 28.698 55.5479C28.7999 55.4829 28.8549 55.4365 28.8649 55.428L38.4063 45.8866L41.8082 42.6245L51.2497 52.066L54.5417 55.4529C54.5517 55.4614 54.6067 55.5079 54.7086 55.5723C54.8105 55.6373 54.9589 55.7207 55.1567 55.8031C55.3545 55.8851 55.6013 55.9665 55.896 56.0269C56.1937 56.0879 56.5454 56.1278 56.9451 56.1278C57.2798 56.1278 57.6494 56.0984 58.0541 56.0279C58.4592 55.957 58.8983 55.8446 59.3729 55.6787C59.8484 55.5124 60.362 55.2926 60.9065 55.0093C61.451 54.7236 62.0355 54.3699 62.6549 53.9403L55.1117 46.547L56.5204 45.1382L63.0645 51.6823L66.8811 55.4639M66.7997 15.9995L85.3829 48.2205L66.7997 80.4414H29.5832L11 48.2205L29.5832 15.9995H66.7997Z" fill="#0D597F"/>
<path d="M55.4398 46.5957L50.4893 41.6502L50.8414 41.296L55.8269 46.2265L55.4398 46.5957Z" fill="#0D597F"/>
</svg>
