<svg width="96" height="96" viewBox="0 0 96 96" fill="none" xmlns="http://www.w3.org/2000/svg">
<rect width="96" height="96" fill="white"/>
<path fill-rule="evenodd" clip-rule="evenodd" d="M83.6983 37.8768C84.7388 42.9699 84.6399 47.9958 83.7816 52.8186C82.9112 57.7114 81.1423 62.3381 78.6282 66.5235C77.6266 68.1927 76.5198 69.7964 75.3047 71.3224C74.0937 72.8338 72.785 74.2778 71.371 75.6233C67.2143 79.5829 62.1781 82.7358 56.3346 84.5272C51.7096 85.9896 47.0281 86.5373 42.4633 86.2301C37.6562 85.9013 33.0067 84.6734 28.7174 82.6523L28.2988 83.4613C32.5708 85.9222 37.2891 87.5732 42.2356 88.3261C47.0827 89.0655 52.129 88.9148 57.1999 87.7804C63.779 86.232 69.6383 83.1983 74.4323 79.0399C76.0919 77.6015 77.6121 76.0133 78.9847 74.3177C80.3615 72.6076 81.5928 70.7829 82.6438 68.8596C85.2486 64.1009 86.9094 58.8006 87.3794 53.2997C87.8274 48.0725 87.1877 42.6904 85.445 37.4053L83.6983 37.8768Z" fill="#1F88C0"/>
<path fill-rule="evenodd" clip-rule="evenodd" d="M17.2321 73.1303C15.3179 71.0167 13.6065 68.6813 12.1871 66.1198C10.8039 63.6221 9.70194 60.928 8.88089 58.0711C8.56627 56.6435 8.32443 55.2298 8.18303 53.8091C7.6059 47.9952 8.54021 42.3489 10.3757 37.0884C11.3597 34.2664 12.67 31.5971 14.1708 29.037C16.1631 25.6349 18.5296 22.4531 21.3951 19.6986C25.6098 15.6499 30.7232 12.4225 36.6648 10.5778C41.5011 9.07829 46.4012 8.5254 51.1544 8.9691C54.4561 9.27571 57.6945 10.0012 60.7315 11.216C64.1684 12.5904 67.3343 14.5869 70.1848 16.9562C72.9874 19.285 75.4287 22.0592 77.4845 25.1449C77.7547 25.5538 77.9347 26.0205 78.2704 26.3784C78.5292 26.6499 78.8274 26.7568 79.1315 26.9759L80.3605 26.1889C80.2859 25.8009 80.2919 25.4714 80.1309 25.1132C79.9191 24.6417 79.5187 24.288 79.201 23.8852C75.8439 19.6315 71.6964 16.1801 67.0675 13.5813C65.0955 12.474 63.0335 11.5382 60.9217 10.7295C58.5899 9.83305 56.1913 9.09526 53.7247 8.57646C48.0899 7.39363 42.1401 7.29968 36.1599 8.67956C29.677 10.1752 23.8965 13.1275 19.1608 17.2032C15.8673 20.0396 13.0281 23.3826 10.9164 27.1449C9.33155 29.9684 8.17198 33.0321 7.40109 36.1981C6.01442 41.8997 6.00337 47.9324 7.25207 53.9532C7.54829 55.379 7.89265 56.7985 8.33665 58.218C9.05734 61.1622 10.1009 63.939 11.3776 66.5458C12.7052 69.2592 14.2894 71.783 16.1254 74.0849L17.2321 73.1303Z" fill="#1F88C0"/>
<path d="M76.8416 30.2731C76.3527 33.4991 78.5865 36.5599 81.7889 37.0523C83.4792 37.3122 85.1208 36.8093 86.3695 35.8036C87.4861 34.901 88.2874 33.5948 88.5187 32.0686C89.0075 28.8426 86.7738 25.7817 83.5713 25.2893C80.3689 24.7969 77.3304 27.0471 76.8416 30.2731Z" stroke="#1F88C0" stroke-width="3.58064" stroke-linecap="round" stroke-linejoin="round"/>
<path fill-rule="evenodd" clip-rule="evenodd" d="M69.975 43.3861C69.975 43.3861 71.0074 42.4165 72.2947 41.1437C74.5567 38.9051 77.5896 35.7766 77.5896 35.7766L76.5948 34.6025C76.5948 34.6025 73.0543 37.1356 70.504 39.0337C69.0583 40.1187 67.9458 40.9952 67.9458 40.9952L69.975 43.3861Z" fill="#1F88C0"/>
<path d="M41.3238 71.7461H63.6701C64.9188 71.7461 65.9301 70.7274 65.9301 69.4695V46.8557C65.9301 45.5979 64.9188 44.5791 63.6701 44.5791H30.4338C29.1852 44.5791 28.1738 45.5979 28.1738 46.8557V60.2219" stroke="#22B638" stroke-width="5.88595"/>
<path d="M36.2646 44.5793V33.7125C36.2646 27.7521 41.1352 22.8457 47.0522 22.8457C52.9691 22.8457 57.8397 27.7521 57.8397 33.7125V44.5793" stroke="#22B638" stroke-width="5.88595" stroke-linecap="round" stroke-linejoin="round"/>
<path d="M34.4823 75.5675C34.6882 73.988 34.4826 72.4436 33.9494 71.0443C32.7687 67.9385 29.9701 65.5468 26.4939 65.0869C21.4497 64.4195 16.7522 68.0527 16.0897 73.134C15.4272 78.2152 19.0339 82.9472 24.0781 83.6146C29.1223 84.282 33.8197 80.6488 34.4823 75.5675Z" stroke="#1F88C0" stroke-width="5.24827" stroke-linecap="round" stroke-linejoin="round"/>
<path fill-rule="evenodd" clip-rule="evenodd" d="M44.577 57.0703C44.577 57.0703 38.8843 60.4892 34.7958 63.1489C32.4806 64.6539 30.7295 65.9179 30.7295 65.9179L34.3594 70.5907C34.3594 70.5907 35.9921 69.1768 38.0015 67.2772C41.5464 63.9183 46.2172 59.1769 46.2172 59.1769L44.577 57.0703Z" fill="#1F88C0"/>
</svg>
