<svg width="96" height="96" viewBox="0 0 96 96" fill="none" xmlns="http://www.w3.org/2000/svg">
<rect width="96" height="96" fill="white"/>
<path d="M47.7783 85.717C26.9572 85.717 10.0181 68.7777 10.0181 47.9567C10.0181 27.1356 26.9572 10.1963 47.7783 10.1963C68.5992 10.1963 85.5383 27.1356 85.5383 47.9567C85.5383 68.7777 68.5992 85.717 47.7783 85.717ZM47.7783 12.8691C28.4311 12.8691 12.6909 28.6093 12.6909 47.9567C12.6909 67.304 28.4311 83.0442 47.7783 83.0442C67.1255 83.0442 82.8659 67.304 82.8659 47.9567C82.8659 28.6093 67.1255 12.8691 47.7783 12.8691Z" fill="#06ED94"/>
<path d="M54.3618 28.083L53.272 32.1568L62.034 39.3477L70.2689 38.3321L54.3618 28.083Z" fill="#059B61"/>
<path d="M75.6896 45.2428V37.6795L63.7283 27.502L54.3616 28.0828L65.782 37.2555H19.8667V45.754L75.6896 45.2428Z" fill="#06ED94"/>
<path d="M41.1945 66.1122L42.2843 62.0384L33.2629 54.4844L25.2876 55.8628L41.1945 66.1122Z" fill="#1957BA"/>
<path d="M19.8667 48.9513V56.5149L31.8278 66.6924L41.1945 66.1115L29.774 56.9387H75.6896V48.4404L19.8667 48.9513Z" fill="#6CA8FF"/>
</svg>
