<svg width="96" height="96" viewBox="0 0 96 96" fill="none" xmlns="http://www.w3.org/2000/svg">
<rect width="96" height="96" fill="white"/>
<path d="M28.9277 34.2056C28.9277 34.2056 33.426 30.2998 46.7395 30.2998C58.9531 30.2998 62.3855 33.0634 65.8715 34.2056L47.6843 43.0699L28.9277 34.2056Z" fill="#C9781F"/>
<path d="M27.0288 45.961C27.1112 47.6553 28.8082 46.8714 29.5768 46.3417C30.3064 45.8388 30.5198 46.2568 30.5838 45.2643C30.6257 44.612 30.7012 43.9597 30.664 43.3047C29.5607 43.205 28.3606 43.467 27.4562 44.1225C26.9903 44.4602 26.1168 45.538 27.0288 45.961Z" fill="#F6D2A2"/>
<path d="M27.0283 45.9615C27.2753 45.8699 27.537 45.8048 27.7047 45.582L27.0283 45.9615Z" fill="#C6B198"/>
<path d="M30.9509 25.7769C24.4481 23.9529 29.2835 15.7014 34.5054 19.0954L30.9509 25.7769Z" fill="#37ABC8"/>
<path d="M59.8428 18.4765C64.99 14.8704 69.6413 23.0064 63.6593 25.0535L59.8428 18.4765Z" fill="#37ABC8"/>
<path d="M60.9492 66.8145C62.2567 67.6214 64.6464 70.0611 62.6851 71.2442C60.8006 72.9653 59.7458 69.3551 58.0918 68.8549C58.8042 67.8901 59.707 67.0103 60.9492 66.8145Z" fill="#F6D2A2"/>
<path d="M37.5923 69.5709C36.0578 69.8077 35.194 71.1887 33.9147 71.8899C32.7093 72.6069 32.2481 71.6604 32.1395 71.4682C31.9505 71.3823 31.9664 71.5482 31.6747 71.2553C30.5571 69.4961 32.8391 68.2103 34.0273 67.3364C35.6824 67.0025 36.7197 68.4337 37.5923 69.5709Z" fill="#F6D2A2"/>
<path d="M31.2216 23.4977C30.3636 23.0451 29.7343 22.4304 30.2591 21.4405C30.7449 20.5243 31.6475 20.6237 32.5055 21.0764L31.2216 23.4977Z" fill="#077E91"/>
<path d="M62.3034 22.6374C63.1614 22.1848 63.7908 21.57 63.266 20.5802C62.7801 19.6639 61.8776 19.7634 61.0195 20.216L62.3034 22.6374Z" fill="#077E91"/>
<path d="M68.2096 45.746C68.1272 47.4403 66.4303 46.6564 65.6616 46.1267C64.932 45.6238 64.7187 46.0418 64.6547 45.0494C64.6127 44.3971 64.5373 43.7448 64.5745 43.0899C65.6777 42.9901 66.8778 43.2522 67.7823 43.9076C68.2481 44.2453 69.1217 45.3231 68.2096 45.746Z" fill="#F6D2A2"/>
<path d="M68.2096 45.7457C67.9625 45.6541 67.7008 45.589 67.5332 45.3662L68.2096 45.7457Z" fill="#C6B198"/>
<path d="M46.9669 15.0488C53.4771 15.0488 59.58 15.9775 62.7614 22.2161C65.617 29.2089 64.6015 36.7494 65.037 44.1397C65.411 50.4855 66.2403 57.8167 63.2888 63.6973C60.1839 69.8842 52.4254 71.4405 46.0332 71.2125C41.0124 71.0333 34.9472 69.3994 32.1135 64.824C28.789 59.4563 30.363 51.4747 30.6044 45.5019C30.8905 38.4268 28.6831 31.3304 31.0133 24.4071C33.4307 17.2256 39.9503 15.6025 46.9669 15.0488Z" fill="#37ABC8"/>
<path d="M48.1169 23.7661C49.2858 30.5434 60.3923 28.7515 58.797 21.9162C57.3666 15.7868 47.7285 17.4834 48.1169 23.7661Z" fill="white"/>
<path d="M34.8443 24.8617C36.3593 30.762 45.83 29.2514 45.4731 23.3328C45.0454 16.2444 33.3959 17.6122 34.8443 24.8617Z" fill="white"/>
<path d="M50.2731 31.666C50.2782 32.5718 50.4879 33.457 50.3068 34.4738C50.0812 34.8989 49.6389 34.9438 49.2575 35.1156C48.7301 35.033 48.2867 34.6877 48.0751 34.1956C47.9398 33.1257 48.1256 32.0898 48.1597 31.0195L50.2731 31.666Z" fill="white"/>
<path d="M37.4567 25.6275C38.3399 25.6275 39.0559 24.8539 39.0559 23.8997C39.0559 22.9454 38.3399 22.1719 37.4567 22.1719C36.5734 22.1719 35.8574 22.9454 35.8574 23.8997C35.8574 24.8539 36.5734 25.6275 37.4567 25.6275Z" fill="black"/>
<path d="M38.1836 24.7289C38.3918 24.7289 38.5606 24.5323 38.5606 24.2897C38.5606 24.0472 38.3918 23.8506 38.1836 23.8506C37.9754 23.8506 37.8066 24.0472 37.8066 24.2897C37.8066 24.5323 37.9754 24.7289 38.1836 24.7289Z" fill="white"/>
<path d="M50.8559 25.1978C51.7244 25.1978 52.4285 24.4242 52.4285 23.47C52.4285 22.5158 51.7244 21.7422 50.8559 21.7422C49.9873 21.7422 49.2832 22.5158 49.2832 23.47C49.2832 24.4242 49.9873 25.1978 50.8559 25.1978Z" fill="black"/>
<path d="M51.571 24.2992C51.7758 24.2992 51.9418 24.1026 51.9418 23.8601C51.9418 23.6175 51.7758 23.4209 51.571 23.4209C51.3662 23.4209 51.2002 23.6175 51.2002 23.8601C51.2002 24.1026 51.3662 24.2992 51.571 24.2992Z" fill="white"/>
<path d="M45.7028 31.8025C45.005 33.4893 46.0919 36.8621 47.9852 34.3743C47.8498 33.3044 48.0356 32.2685 48.0698 31.1982L45.7028 31.8025Z" fill="white"/>
<path d="M45.5916 28.5543C44.2911 28.6649 43.228 30.2073 43.9042 31.4274C44.7997 33.0436 46.7985 31.2844 48.0433 31.4493C49.4761 31.4786 50.65 32.9604 51.8008 31.7172C53.0806 30.3345 51.2497 28.9878 49.8188 28.3857L45.5916 28.5543Z" fill="#F6D2A2"/>
<path d="M28.9286 34.2051C28.9286 34.2051 29.3403 38.6538 29.3121 40.5715C29.2839 42.489 31.126 41.2783 31.2215 44.2941C31.3171 47.3098 30.1057 46.7379 29.4675 48.214C28.8293 49.6899 28.3955 56.6024 28.3955 56.6024C28.3955 56.6024 29.0504 57.894 31.096 59.057C33.1416 60.2199 36.4309 60.8731 39.2791 60.7444C42.1273 60.6157 44.1617 60.0071 44.6704 59.6705C45.179 59.334 46.0232 58.2694 46.3407 57.4461C46.6583 56.6228 47.3217 49.8417 47.2754 45.9613C47.2291 42.0809 46.5863 38.5005 46.5863 38.5005L28.9286 34.2051Z" fill="#EF9325"/>
<path d="M46.9703 53.0981C38.5828 54.032 28.8506 51.4503 28.8506 51.4503C28.8506 51.4503 28.9935 48.8317 29.623 47.9102C38.3464 50.6059 47.147 49.7512 47.147 49.7512C47.2776 50.9737 47.1856 51.9455 46.9703 53.0981Z" fill="#E5E5E5"/>
<path d="M45.9143 58.2598C37.5268 59.1937 28.3952 56.5082 28.3952 56.5082C28.3952 56.5082 28.3659 53.9931 28.6991 52.8887C37.4225 55.5845 46.74 54.9126 46.74 54.9126C46.6616 56.2396 46.4745 57.5457 45.9143 58.2598Z" fill="#E5E5E5"/>
<path d="M65.8716 34.2051C65.8716 34.2051 65.8148 38.6538 65.8433 40.5715C65.8719 42.489 64.7268 41.2783 64.6299 44.2941C64.533 47.3098 65.7597 46.7379 66.406 48.214C67.0523 49.6899 67.4915 56.6024 67.4915 56.6024C67.4915 56.6024 66.8283 57.894 64.7571 59.057C62.6859 60.2199 59.3552 60.8731 56.4712 60.7444C53.5872 60.6157 51.5273 60.0071 51.0122 59.6705C50.497 59.3339 49.6423 58.2694 49.3208 57.4461C48.9993 56.6228 48.3275 49.8417 48.3744 45.9613C48.4213 42.0809 49.0721 38.5005 49.0721 38.5005L65.8716 34.2051Z" fill="#EF9325"/>
<path d="M48.6833 53.0981C57.1762 54.032 67.0307 51.4503 67.0307 51.4503C67.0307 51.4503 66.8859 48.8317 66.2486 47.9102C57.4155 50.6059 48.5043 49.7512 48.5043 49.7512C48.3722 50.9737 48.4653 51.9455 48.6833 53.0981Z" fill="#E5E5E5"/>
<path d="M49.7521 58.2598C58.245 59.1937 67.4913 56.5082 67.4913 56.5082C67.4913 56.5082 67.5209 53.9931 67.1836 52.8887C58.3505 55.5845 48.916 54.9126 48.916 54.9126C48.9955 56.2396 49.1849 57.5457 49.7521 58.2598Z" fill="#E5E5E5"/>
<path d="M69.2601 42.3648C68.9962 42.8615 68.4738 43.1013 68.0933 42.9001L67.7885 42.7391C67.408 42.5381 67.3133 41.9723 67.5773 41.4756L73.5207 30.2862C73.7845 29.7895 74.3069 29.5497 74.6874 29.7509L74.9922 29.9119C75.3727 30.1129 75.4674 30.6787 75.2035 31.1754L69.2601 42.3648Z" fill="#D2E261"/>
<path d="M66.4529 47.6492C66.2992 47.9386 65.8661 48.0103 65.4856 47.8091L65.1808 47.6481C64.8003 47.447 64.6164 47.0494 64.7701 46.76L67.5585 41.5104C67.7123 41.221 68.1453 41.1494 68.5258 41.3505L68.8307 41.5115C69.2111 41.7126 69.3951 42.1102 69.2413 42.3996L66.4529 47.6492Z" fill="black"/>
<path d="M68.9327 41.3202L68.6278 41.1592C68.2473 40.9582 67.858 40.9472 67.7583 41.1348L67.5801 41.4703C67.6797 41.2827 68.069 41.2936 68.4496 41.4948L68.7544 41.6558C69.1349 41.8568 69.3627 42.1721 69.263 42.3596L69.4413 42.024C69.5409 41.8365 69.3131 41.5214 68.9327 41.3202Z" fill="#9B9B9B"/>
<path d="M66.068 45.3017C66.7452 45.5531 67.4523 45.3333 67.6473 44.8107C67.8422 44.2881 67.4513 43.6607 66.7741 43.4093C66.0969 43.1579 65.3898 43.3777 65.1948 43.9003C64.9998 44.4229 65.3907 45.0503 66.068 45.3017Z" fill="#F6D2A2"/>
<path d="M26.1941 42.5451C26.4348 43.0535 26.9456 43.3168 27.335 43.1334L27.6468 42.9864C28.0361 42.8029 28.1567 42.2421 27.916 41.7338L22.4933 30.2843C22.2526 29.776 21.7418 29.5126 21.3524 29.6961L21.0406 29.8431C20.6512 30.0265 20.5307 30.5873 20.7714 31.0957L26.1941 42.5451Z" fill="#D2E261"/>
<path d="M28.7548 47.9524C28.895 48.2485 29.3243 48.3398 29.7138 48.1564L30.0256 48.0095C30.415 47.826 30.617 47.4372 30.4766 47.141L27.9325 41.7694C27.7922 41.4732 27.3629 41.3819 26.9734 41.5653L26.6616 41.7123C26.2723 41.8957 26.0703 42.2846 26.2106 42.5807L28.7548 47.9524Z" fill="black"/>
<path d="M26.5693 41.5165L26.8811 41.3696C27.2705 41.1861 27.6598 41.193 27.7507 41.3849L27.9133 41.7284C27.8224 41.5364 27.4331 41.5296 27.0437 41.7129L26.7319 41.8599C26.3425 42.0434 26.1005 42.3478 26.1915 42.5397L26.0289 42.1963C25.938 42.0044 26.1799 41.7 26.5693 41.5165Z" fill="#9B9B9B"/>
<path d="M28.8479 43.556C28.1707 43.8074 27.7798 44.4348 27.9748 44.9574C28.1697 45.4799 28.8768 45.6998 29.554 45.4484C30.2313 45.197 30.6222 44.5695 30.4272 44.047C30.2322 43.5244 29.5252 43.3046 28.8479 43.556Z" fill="#F6D2A2"/>
<path d="M31.7141 28.32C31.4555 28.789 30.8456 28.9495 30.3517 28.6786L29.7836 28.3671C29.2897 28.0962 29.099 27.4965 29.3575 27.0276L35.2693 16.3037C35.5278 15.8348 36.1377 15.6742 36.6316 15.9451L37.1997 16.2566C37.6936 16.5276 37.821 17.0344 37.6259 17.5962C35.555 23.5561 31.7141 28.32 31.7141 28.32Z" fill="#960000"/>
<path d="M33.2781 22.1943C35.0758 18.9332 36.257 16.1285 35.9756 15.8104L35.9823 15.7984C35.9746 15.7942 35.9664 15.7914 35.9587 15.7873C35.9578 15.7867 35.9576 15.7848 35.9565 15.7842L35.9557 15.7859C33.1931 14.2928 29.4763 15.7714 27.6402 19.1022C25.8041 22.4329 26.5433 26.3554 29.2871 27.8824L29.2863 27.884C29.2874 27.8846 29.289 27.8838 29.29 27.8843C29.2977 27.8886 29.3044 27.8939 29.3121 27.8981L29.3187 27.8861C29.7386 27.9527 31.4803 25.4554 33.2781 22.1943Z" fill="#595959"/>
<path d="M62.9044 28.3416C63.1492 28.8177 63.7543 28.9958 64.2558 28.7392L64.8326 28.4441C65.3341 28.1876 65.5422 27.5936 65.2974 27.1174L59.6983 16.2279C59.4535 15.7518 58.8484 15.5737 58.3469 15.8303L57.7701 16.1254C57.2686 16.3819 57.1265 16.885 57.3054 17.452C59.203 23.469 62.9044 28.3416 62.9044 28.3416Z" fill="#960000"/>
<path d="M61.5182 22.1741C59.8156 18.8626 58.7159 16.025 59.0064 15.7151L59.0001 15.7029C59.0079 15.699 59.0162 15.6964 59.024 15.6925C59.0251 15.6919 59.0253 15.69 59.0264 15.6896L59.0272 15.6912C61.8318 14.2782 65.5042 15.8633 67.2432 19.2455C68.9823 22.6278 68.1299 26.5273 65.343 27.9747L65.3438 27.9763C65.3428 27.9768 65.3411 27.976 65.3401 27.9764C65.3323 27.9805 65.3255 27.9857 65.3177 27.9897L65.3114 27.9775C64.8897 28.0319 63.2208 25.4855 61.5182 22.1741Z" fill="#595959"/>
<path d="M67.0621 20.7781C67.0621 20.7781 64.9935 15.6103 62.5944 12.878C60.1954 10.1458 36.7229 9.21399 32.8684 12.878C29.0138 16.542 27.5605 20.7781 27.5605 20.7781V19.6335C27.5605 19.6335 29.3435 14.6026 32.8684 11.7334C36.3933 8.86412 59.5569 9.01516 62.5453 11.7334C65.5336 14.4516 67.0621 19.6335 67.0621 19.6335V20.7781Z" fill="#353535"/>
<path d="M66.1286 17.6639C65.7306 17.8675 65.8121 18.8188 66.3108 19.7888C66.8094 20.7587 67.5364 21.3799 67.9345 21.1763C68.3326 20.9727 68.251 20.0213 67.7523 19.0514C67.2537 18.0815 66.5267 17.4602 66.1286 17.6639Z" fill="#960000"/>
<path d="M26.8959 21.0154C27.2879 21.2304 28.0325 20.6304 28.5591 19.6751C29.0856 18.7199 29.1947 17.7713 28.8026 17.5563C28.4106 17.3413 27.6659 17.9413 27.1394 18.8966C26.6128 19.8518 26.5038 20.8004 26.8959 21.0154Z" fill="#960000"/>
<path opacity="0.6" d="M58.2167 19.6875H53.8797H50.4415H45.1683H42.1894H36.3235C32.3927 19.6875 32.4062 30.1062 36.0968 30.7068L43.7282 30.2173C44.6509 30.2173 46.4932 26.6529 46.8388 26.3727C47.1844 26.0925 48.3226 26.0583 48.771 26.3727C49.2193 26.6871 50.2389 29.8581 51.1615 29.8581L58.793 30.7067C62.3576 29.0705 61.4589 19.6875 58.2167 19.6875Z" fill="white"/>
<path opacity="0.5" d="M42.1362 21.8417C39.725 21.7879 35.9521 21.8098 33.8913 21.8265C33.5458 22.9566 33.1605 24.3873 33.3515 25.7766C35.2232 25.7766 39.292 25.7856 42.1856 25.7856C43.9278 25.7856 45.3927 26.1135 46.7549 26.4687C46.7885 26.4259 46.8167 26.3944 46.8387 26.3766C47.1844 26.0964 48.3226 26.0622 48.7709 26.3766C48.8869 26.458 49.0417 26.7322 49.2225 27.0916C49.9181 27.2379 50.6147 27.3389 51.3386 27.348C53.3104 27.3729 57.9315 27.365 60.9052 27.3566C61.2839 26.0942 61.0046 24.741 60.9197 23.4694C58.0164 23.4694 53.4024 23.404 51.1903 23.404C48.0735 23.4039 45.3521 21.9133 42.1362 21.8417Z" fill="white"/>
<path d="M45.4285 28.487C45.3322 26.2396 49.6279 25.9587 50.1352 27.8398C50.6413 29.7165 45.64 30.1524 45.4285 28.487Z" fill="black"/>
<path d="M28.8699 85.3626H29.3874C29.5979 85.3626 29.7674 85.3567 29.8961 85.3451C30.0305 85.3334 30.1621 85.3072 30.2908 85.2664C30.4252 85.2255 30.5246 85.1614 30.589 85.0739C30.6533 84.9806 30.6854 84.861 30.6854 84.7152C30.6854 84.5519 30.6299 84.409 30.5188 84.2865C30.4077 84.1641 30.2557 84.1028 30.0627 84.1028H30.0101L29.4137 84.1291H29.3172C28.9488 84.1291 28.6798 83.9978 28.5103 83.7354C28.3407 83.4671 28.2559 83.0326 28.2559 82.4319V77.664H29.8698C30.2557 77.6641 30.4486 77.4978 30.4486 77.1654C30.4486 77.0079 30.3989 76.8796 30.2995 76.7805C30.206 76.6813 30.0627 76.6318 29.8698 76.6317H28.2559V74.0947C28.2559 73.8906 28.1974 73.7361 28.0805 73.6311C27.9636 73.5203 27.8174 73.4649 27.642 73.4648C27.4549 73.4649 27.2824 73.5319 27.1245 73.6661C26.9725 73.8002 26.8906 73.9606 26.8789 74.1472L26.6684 76.6317H25.5896C25.3966 76.6318 25.2505 76.6813 25.1511 76.7805C25.0517 76.8738 25.002 76.9963 25.002 77.1479C25.002 77.3054 25.0517 77.4308 25.1511 77.5241C25.2563 77.6174 25.4054 77.6641 25.5984 77.664H26.6684V82.7031C26.6684 83.6071 26.8672 84.2778 27.2648 84.7152C27.6624 85.1468 28.1974 85.3626 28.8699 85.3626Z" fill="#333333"/>
<path d="M33.3255 85.2402C33.5419 85.2402 33.729 85.176 33.8869 85.0477C34.0506 84.9194 34.1324 84.7386 34.1324 84.5053V79.9999C34.1324 79.3175 34.3488 78.7722 34.7815 78.364C35.22 77.9557 35.834 77.7516 36.6233 77.7516C36.8105 77.7516 36.9537 77.6904 37.0531 77.5679C37.1525 77.4396 37.2022 77.2879 37.2022 77.113C37.2022 76.9263 37.1467 76.763 37.0356 76.623C36.9303 76.4831 36.7841 76.4131 36.597 76.4131C35.9772 76.4131 35.4451 76.5968 35.0007 76.9642C34.5622 77.3258 34.2698 77.7778 34.1237 78.3202L34.1324 77.2704C34.1324 77.0488 34.0535 76.8768 33.8956 76.7543C33.7436 76.626 33.5594 76.5618 33.3431 76.5618C33.1267 76.5618 32.9396 76.626 32.7817 76.7543C32.6239 76.8768 32.5449 77.0546 32.5449 77.2879V84.5053C32.5449 84.7386 32.6209 84.9194 32.773 85.0477C32.925 85.176 33.1092 85.2402 33.3255 85.2402Z" fill="#333333"/>
<path d="M54.7799 85.2401C54.9963 85.2401 55.1834 85.1731 55.3413 85.0389C55.4991 84.899 55.5781 84.7065 55.5781 84.4615V77.6641H57.0603C57.4346 77.6641 57.6217 77.495 57.6217 77.1567C57.6217 77.005 57.5749 76.8797 57.4813 76.7805C57.3936 76.6814 57.2533 76.6318 57.0603 76.6318H55.5781V75.9494C55.5781 75.477 55.5956 75.1037 55.6307 74.8296C55.6716 74.5497 55.7447 74.3368 55.85 74.191C55.9611 74.0394 56.0868 73.9431 56.2271 73.9023C56.3674 73.8557 56.5633 73.8323 56.8148 73.8323H57.5603C57.7357 73.8323 57.8702 73.774 57.9637 73.6573C58.0631 73.5407 58.1128 73.4007 58.1128 73.2374C58.1128 73.0741 58.0631 72.9342 57.9637 72.8175C57.8702 72.695 57.7386 72.6338 57.5691 72.6338H56.499C55.7155 72.6338 55.1015 72.8554 54.6571 73.2987C54.2128 73.7361 53.9906 74.4768 53.9906 75.5207V76.6318H52.8416C52.6486 76.6318 52.5054 76.6814 52.4118 76.7805C52.3183 76.8797 52.2715 77.005 52.2715 77.1567C52.2715 77.3025 52.3183 77.425 52.4118 77.5241C52.5054 77.6174 52.6486 77.6641 52.8416 77.6641H53.9906V84.4615C53.9906 84.7065 54.0666 84.899 54.2186 85.0389C54.3765 85.1731 54.5636 85.2401 54.7799 85.2401Z" fill="#333333"/>
<path d="M60.3143 74.5232C60.6242 74.5232 60.8727 74.4358 61.0598 74.2608C61.2469 74.08 61.3404 73.8467 61.3405 73.5609C61.3404 73.2693 61.2469 73.036 61.0598 72.861C60.8727 72.6803 60.6271 72.5899 60.323 72.5898C60.0131 72.5899 59.7617 72.6803 59.5688 72.861C59.3816 73.0419 59.2881 73.2751 59.2881 73.5609C59.2881 73.8467 59.3816 74.08 59.5688 74.2608C59.7559 74.4358 60.0044 74.5232 60.3143 74.5232ZM60.3055 85.2399C60.5218 85.2399 60.709 85.17 60.8668 85.03C61.0305 84.8842 61.1124 84.6888 61.1124 84.4438V77.3314C61.1124 77.0865 61.0335 76.894 60.8756 76.7541C60.7236 76.6141 60.5423 76.5441 60.3318 76.5441C60.1155 76.5441 59.9254 76.6141 59.7617 76.7541C59.6038 76.894 59.5249 77.0865 59.5249 77.3314V84.4438C59.5249 84.7005 59.6009 84.8988 59.7529 85.0387C59.905 85.1729 60.0892 85.2399 60.3055 85.2399Z" fill="#333333"/>
<path d="M64.5247 85.2397C64.7411 85.2397 64.9282 85.1697 65.0861 85.0297C65.2498 84.8898 65.3317 84.6944 65.3317 84.4436V80.6293L69.4539 85.0035C69.6001 85.1668 69.7755 85.2484 69.9802 85.2484C70.1731 85.2484 70.3427 85.1755 70.4889 85.0297C70.6409 84.8839 70.7169 84.7177 70.7169 84.5311C70.7169 84.3619 70.6526 84.2103 70.524 84.0762L67.042 80.4194L70.2258 77.5762C70.3661 77.442 70.4363 77.2933 70.4363 77.13C70.4363 76.9492 70.3632 76.7859 70.217 76.6401C70.0767 76.4943 69.9129 76.4214 69.7258 76.4214C69.5796 76.4214 69.4422 76.4768 69.3136 76.5876L65.3317 80.2269V73.5344C65.3317 73.2895 65.2527 73.097 65.0948 72.957C64.9428 72.8171 64.7616 72.7471 64.5511 72.7471C64.3347 72.7471 64.1447 72.8171 63.9809 72.957C63.8231 73.097 63.7441 73.2895 63.7441 73.5344V84.4436C63.7441 84.7002 63.8201 84.8985 63.9722 85.0385C64.1242 85.1726 64.3084 85.2397 64.5247 85.2397Z" fill="#333333"/>
<path d="M40.6971 85.2366C39.6866 85.1497 38.9144 84.8456 38.3527 84.3135C37.7813 83.7721 37.5361 83.0662 37.6329 82.2411C37.7442 81.2916 38.1966 80.6211 38.9897 80.23C39.601 79.9285 40.2108 79.8138 41.2038 79.8136C41.9094 79.8133 42.5007 79.8709 43.4024 80.0274C43.6254 80.0661 43.8184 80.0978 43.8314 80.0978C43.8502 80.0978 43.8652 80.027 43.9061 79.744C43.9801 79.232 43.9934 79.0553 43.9732 78.8502C43.9498 78.6114 43.9191 78.4977 43.8284 78.3127C43.5945 77.8353 43.0391 77.5432 42.1472 77.4286C41.8921 77.3958 41.3034 77.3912 41.0479 77.42C40.6198 77.4683 40.3809 77.5298 39.8482 77.7289C39.5365 77.8454 39.535 77.8457 39.4107 77.8384C39.197 77.826 39.051 77.7294 38.9575 77.5386C38.9189 77.4601 38.9121 77.4276 38.9121 77.3218C38.9121 77.1628 38.9536 77.0785 39.0981 76.9436C39.4222 76.6413 39.9674 76.3838 40.5178 76.2733C40.8702 76.2025 41.0436 76.1876 41.5079 76.1883C41.9883 76.1896 42.2955 76.2161 42.7224 76.2953C43.4325 76.427 43.9717 76.6591 44.3783 77.0081C44.4989 77.1117 44.6808 77.3155 44.7588 77.4344C44.7826 77.4708 44.8071 77.5005 44.8133 77.5005C44.8195 77.5005 44.8589 77.4569 44.9009 77.4035C45.5165 76.621 46.5534 76.1781 47.7682 76.1787C48.6274 76.1787 49.4261 76.396 50.0214 76.7904C50.4936 77.1033 50.8772 77.5853 51.0322 78.0604C51.1212 78.3332 51.1347 78.434 51.1355 78.8303C51.136 79.0768 51.1292 79.2431 51.1154 79.3202C50.9761 80.099 50.6442 80.6385 50.0682 81.0227C49.6048 81.3317 49.0228 81.5126 48.2616 81.584C47.8784 81.62 47.1776 81.6166 46.7236 81.5765C46.3383 81.5426 45.8652 81.4828 45.6633 81.4426C45.4944 81.409 44.9158 81.3126 44.911 81.3174C44.909 81.3195 44.8814 81.492 44.8499 81.7009C44.7995 82.0345 44.7924 82.1177 44.7913 82.384C44.7902 82.6548 44.7941 82.7023 44.8268 82.8273C44.9321 83.2291 45.1642 83.4979 45.5853 83.7057C45.9996 83.9102 46.4339 83.9986 47.09 84.0123C47.3805 84.0184 47.5293 84.0141 47.711 83.9949C48.1516 83.9483 48.3524 83.8972 48.9377 83.6826C49.0835 83.6291 49.2323 83.5804 49.2684 83.5745C49.3457 83.5616 49.4898 83.5881 49.5738 83.6307C49.7254 83.7075 49.8528 83.9123 49.852 84.078C49.8511 84.2716 49.7856 84.3889 49.5935 84.5414C49.1341 84.906 48.5475 85.1296 47.8472 85.207C47.5975 85.2346 47.0274 85.2387 46.752 85.2149C45.9765 85.1477 45.4381 85.0154 44.9461 84.7711C44.5621 84.5805 44.2692 84.3441 44.0504 84.0482C43.9966 83.9755 43.951 83.9142 43.9489 83.9119C43.9469 83.9097 43.9111 83.9517 43.8695 84.0052C43.6855 84.242 43.4042 84.4964 43.1292 84.6747C42.7323 84.9322 42.1625 85.1285 41.5859 85.2066C41.4139 85.2299 40.8434 85.2491 40.6971 85.2366ZM41.6872 84.1284C42.158 84.0243 42.5775 83.7898 42.882 83.4604C43.1598 83.1599 43.3877 82.7098 43.5131 82.2137C43.5838 81.9341 43.7013 81.1559 43.6752 81.1398C43.665 81.1335 43.6029 81.1235 43.5373 81.1176C43.4717 81.1116 43.2847 81.0896 43.1217 81.0686C42.1539 80.9437 41.5601 80.8952 41.2272 80.9138C40.5944 80.9492 40.3364 81.0043 39.9564 81.1853C39.7618 81.278 39.6274 81.3786 39.5211 81.5113C39.3686 81.7016 39.2766 81.8908 39.2124 82.1456C39.1657 82.3311 39.161 82.8167 39.2043 82.9732C39.2773 83.2367 39.364 83.3859 39.5588 83.5834C39.8257 83.8539 40.1774 84.0343 40.6138 84.1245C40.8369 84.1707 40.8303 84.1702 41.2038 84.1646C41.4749 84.1605 41.5763 84.1529 41.6872 84.1284ZM47.8541 80.4794C48.2478 80.4447 48.4899 80.3838 48.7873 80.2444C49.0347 80.1285 49.1785 80.01 49.3145 79.8099C49.5148 79.5154 49.5928 79.2366 49.5908 78.8225C49.5894 78.5273 49.5643 78.4045 49.4622 78.1926C49.2339 77.7192 48.6977 77.38 47.9944 77.2643C47.8189 77.2354 47.3479 77.2406 47.168 77.2733C46.8219 77.3362 46.5294 77.451 46.2714 77.6251C45.7948 77.9467 45.4658 78.4314 45.2826 79.0821C45.2107 79.3377 45.1915 79.4358 45.1274 79.8764L45.0682 80.2828L45.1475 80.2915C45.3869 80.318 45.9267 80.3832 46.2402 80.4235C46.4375 80.4489 46.6796 80.4759 46.7782 80.4837C47.0633 80.506 47.5745 80.5039 47.8541 80.4793V80.4794Z" fill="#37ABC8"/>
</svg>
