<svg width="96" height="96" viewBox="0 0 96 96" fill="none" xmlns="http://www.w3.org/2000/svg">
<rect width="96" height="96" fill="white"/>
<g clip-path="url(#clip0_6201_12)">
<path d="M72.6897 30.5734L66.4106 36.8525C76.7207 47.1626 76.7207 63.7517 66.4106 73.9068C56.1006 84.2169 39.5114 84.2169 29.3564 73.9068C19.0463 63.5967 19.0463 47.0075 29.3564 36.8525L45.713 20.4959L48.0385 18.1703V5.84473L23.3874 30.4959C9.66645 44.2169 9.66645 66.3874 23.3874 80.1083C37.1083 93.8293 59.2789 93.8293 72.7672 80.1083C86.4106 66.3874 86.4106 44.3719 72.6897 30.5734Z" fill="#EE4C2C"/>
<path d="M60.3647 29.1004C62.8906 29.1004 64.9383 27.0527 64.9383 24.5268C64.9383 22.0008 62.8906 19.9531 60.3647 19.9531C57.8387 19.9531 55.791 22.0008 55.791 24.5268C55.791 27.0527 57.8387 29.1004 60.3647 29.1004Z" fill="#EE4C2C"/>
</g>
<defs>
<clipPath id="clip0_6201_12">
<rect width="70" height="84.5736" fill="white" transform="translate(13 6)"/>
</clipPath>
</defs>
</svg>
