<svg xmlns="http://www.w3.org/2000/svg" width="96" height="96" viewBox="0 0 96 96" fill="none">
  <rect width="96" height="96" fill="white"/>
  <g transform="matrix(1.166 0 0 1.166 -16.64 8.40)">
    <path d="M73.79,15.23C67.32,15.23 61.36,18.87 55.6,25.23C49.94,18.77 43.88,15.23 37.11,15.23C25.9,15.23 17.72,23.23 17.72,34C17.72,44.77 25.9,52.67 37.11,52.67C44,52.67 49.34,49.44 55.3,43C61.06,49.46 66.92,52.69 73.79,52.69C85,52.67 93.18,44.8 93.18,34C93.18,23.2 85,15.23 73.79,15.23ZM37.19,41.37C32.44,41.37 29.61,38.24 29.61,34.1C29.61,29.96 32.44,26.74 37.19,26.74C41.19,26.74 44.46,29.96 48,34.3C44.66,38.34 41.13,41.37 37.19,41.37ZM73.45,41.37C69.51,41.37 66.18,38.24 62.64,34.1C66.28,29.76 69.41,26.74 73.45,26.74C78.2,26.74 81,30 81,34.1C81,38.2 78.2,41.37 73.45,41.37Z" fill="#484848"/>
    <path d="M63.74,50L71.28,41C68.28,40.1 65.51,37.4 62.64,34.05L55.3,43C57.703,45.788 60.556,48.154 63.74,50Z" fill="#20A7C9"/>
    <path d="M55.6,25.22C53.213,22.392 50.378,19.973 47.21,18.06L39.66,27.16C42.53,28.16 45.07,30.74 47.77,34.03L48.07,34.24L55.6,25.22Z" fill="#20A7C9"/>
  </g>
</svg>
