
<svg xmlns="http://www.w3.org/2000/svg" width="96" height="96" viewBox="0 0 96 96" fill="none">
  <rect width="96" height="96" fill="white"/>
  <svg x="4" y="4" width="88" height="88" xmlns="http://www.w3.org/2000/svg" viewBox="0 0 134.71 134.71"><defs><style>.cls-1{fill:#a8a271;}.cls-2{fill:#fff;}</style></defs><g id="Layer_2" data-name="Layer 2"><g id="Layer_2-2" data-name="Layer 2"><path class="cls-1" d="M133.34,70A79.48,79.48,0,0,0,67.67,40v0a27.43,27.43,0,0,0-11.76,2.52A66.88,66.88,0,0,1,77.79,11.22,6.29,6.29,0,1,0,70,1.37,79.47,79.47,0,0,0,40,67h0A27.43,27.43,0,0,0,42.57,78.8,66.9,66.9,0,0,1,11.22,56.91a6.29,6.29,0,0,0-9.85,7.83A79.47,79.47,0,0,0,67,94.71v0A27.57,27.57,0,0,0,78.8,92.14a67,67,0,0,1-21.89,31.35,6.29,6.29,0,0,0,7.83,9.85,79.48,79.48,0,0,0,30-65.67h0a27.57,27.57,0,0,0-2.52-11.76,67,67,0,0,1,31.35,21.88A6.29,6.29,0,1,0,133.34,70Zm-52.59-.5L73.2,71.7a2.21,2.21,0,0,0-1.5,1.5l-2.23,7.55a2.21,2.21,0,0,1-4.24,0L63,73.2a2.23,2.23,0,0,0-1.5-1.5L54,69.47a2.21,2.21,0,0,1,0-4.24L61.51,63a2.25,2.25,0,0,0,1.5-1.5L65.23,54a2.21,2.21,0,0,1,4.24,0l2.23,7.55A2.23,2.23,0,0,0,73.2,63l7.55,2.22a2.21,2.21,0,0,1,0,4.24Z"/><path class="cls-2" d="M80.75,69.47,73.2,71.7a2.21,2.21,0,0,0-1.5,1.5l-2.23,7.55a2.21,2.21,0,0,1-4.24,0L63,73.2a2.23,2.23,0,0,0-1.5-1.5L54,69.47a2.21,2.21,0,0,1,0-4.24L61.51,63a2.25,2.25,0,0,0,1.5-1.5L65.23,54a2.21,2.21,0,0,1,4.24,0l2.23,7.55A2.23,2.23,0,0,0,73.2,63l7.55,2.22a2.21,2.21,0,0,1,0,4.24Z"/></g></g></svg>
</svg>
