<svg width="96" height="96" viewBox="0 0 96 96" fill="none" xmlns="http://www.w3.org/2000/svg">
<g clip-path="url(#clip0_6114_911)">
<rect width="96" height="96" fill="white"/>
<path d="M90 48C90 56.3068 87.5368 64.4271 82.9217 71.3339C78.3067 78.2408 71.7472 83.6241 64.0727 86.8029C56.3982 89.9818 47.9534 90.8136 39.8062 89.193C31.659 87.5724 24.1753 83.5723 18.3015 77.6985C12.4277 71.8247 8.42762 64.341 6.80704 56.1938C5.18646 48.0466 6.0182 39.6018 9.19708 31.9273C12.376 24.2528 17.7592 17.6933 24.6661 13.0783C31.5729 8.46326 39.6932 6 48 6C59.1391 6 69.822 10.425 77.6985 18.3015C85.575 26.178 90 36.8609 90 48Z" fill="#0064BD"/>
<path fill-rule="evenodd" clip-rule="evenodd" d="M60.2582 67.6113L50.4512 62.7003V52.9023L60.2582 57.8043V67.6113Z" fill="white"/>
<path fill-rule="evenodd" clip-rule="evenodd" d="M21.0361 38.1964L30.8401 33.3004L40.6471 38.2054L30.8401 43.0984L21.0361 38.1964ZM30.8401 33.3004L40.6471 28.3984L50.4511 33.3004L40.6471 38.2054L30.8401 33.3004ZM40.6471 48.0004L50.4511 43.0984L60.2581 48.0004L50.4511 52.9024L40.6471 48.0004ZM50.4511 33.3004L60.2581 28.3984L70.0621 33.3004L60.2581 38.2054L50.4511 33.3004ZM50.4511 52.9114L60.2581 48.0004L70.0621 52.9024L60.2581 57.8044L50.4511 52.9114Z" fill="#BFBFBF"/>
<path fill-rule="evenodd" clip-rule="evenodd" d="M40.6475 67.6108V57.8038L50.4515 52.9018V62.6998L40.6475 67.6108ZM60.2585 47.9998V38.1958L70.0625 33.2998V43.1068L60.2585 47.9998ZM60.2585 67.6108V57.8038L70.0625 52.9018V62.6998L60.2585 67.6108ZM50.4515 62.6998V52.9018L60.2585 47.9998V57.8038L50.4515 62.6998ZM40.6475 47.9998V38.1958L50.4515 33.2998V43.1068L40.6475 47.9998Z" fill="#808080"/>
<path fill-rule="evenodd" clip-rule="evenodd" d="M21.0361 47.9998L30.8401 52.9018V62.6998L40.6471 67.6018V57.8038L50.4511 62.6998V52.9018L40.6471 47.9998V38.1958L30.8401 33.2998V43.1068L21.0361 38.1958V47.9998ZM60.2581 47.9998L50.4511 43.0978V33.2998L60.2581 38.2048V47.9998Z" fill="white"/>
</g>
<defs>
<clipPath id="clip0_6114_911">
<rect width="96" height="96" fill="white"/>
</clipPath>
</defs>
</svg>
