<svg width="96" height="96" viewBox="0 0 96 96" fill="none" xmlns="http://www.w3.org/2000/svg">
<rect width="96" height="96" fill="white"/>
<path d="M66.5202 39.0558C61.892 18.6939 52.2331 13.2718 49.7822 9.43906C48.4501 7.35411 47.0918 4.18555 47.0918 4.18555C46.959 5.99157 46.7235 7.13538 45.1781 8.50796C42.0833 11.2591 28.9311 21.9468 27.8264 45.0839C26.7961 66.6558 43.7233 79.9601 45.973 81.3347C47.6914 82.1775 49.7963 81.3508 50.8024 80.5782C58.9601 74.9916 70.1201 60.0959 66.5101 39.0558" fill="#10AA50"/>
<path d="M47.7915 69.8457C47.3669 75.1875 47.0611 78.2959 45.9805 81.342C45.9805 81.342 46.6928 86.425 47.1878 91.8109H48.9526C49.3738 88.0176 50.0169 84.252 50.8783 80.5333C48.5924 79.4156 47.878 74.5313 47.7915 69.8457Z" fill="#B8C4C2"/>
<path d="M50.8767 80.5355C48.5667 79.472 47.8986 74.4893 47.796 69.8439C48.3651 62.1849 48.5297 54.5014 48.289 46.8251C48.1682 42.7977 48.3493 9.51677 47.2949 4.64453C47.7215 5.59771 48.7518 7.83717 49.7821 9.43651C52.2431 13.2713 61.8939 18.6934 66.5181 39.0572C70.122 60.0432 59.0284 74.9128 50.8767 80.5355Z" fill="#12924F"/>
</svg>
