<svg width="96" height="96" viewBox="0 0 96 96" fill="none" xmlns="http://www.w3.org/2000/svg">
<rect width="96" height="96" fill="white"/>
<path d="M16.5604 33.9011H15.3412C14.6096 33.9011 14 34.5055 14 35.2308C14 35.956 14.6096 36.5604 15.3412 36.5604H16.5604C17.292 36.5604 17.9016 35.956 17.9016 35.2308C17.9016 34.5055 17.292 33.9011 16.5604 33.9011ZM41.0671 53.0001H39.8478C39.1164 53.0001 38.5068 53.6045 38.5068 54.3297C38.5068 55.055 39.1164 55.6593 39.8478 55.6593H41.0671C41.7985 55.6593 42.4081 55.055 42.4081 54.3297C42.2863 53.6045 41.7985 53.0001 41.0671 53.0001ZM39.9696 40.4286C39.9696 39.7034 39.36 39.099 38.6286 39.099H34.2394C33.508 39.099 32.8982 39.7034 32.8982 40.4286C32.8982 41.1539 33.508 41.7582 34.2394 41.7582H38.6286C39.36 41.7582 39.9696 41.1539 39.9696 40.4286ZM81.912 32.2088L80.5702 24.7143C79.9606 21.6923 77.7664 20 74.84 20H22.9005C20.5839 20 18.9989 21.9341 19.3647 24.2308L20.8277 32.2088C20.8277 32.3297 20.8277 32.3297 20.8277 32.4506C20.9497 33.4176 20.462 33.7803 20.0962 33.9011C19.6085 34.1429 19.2428 34.5055 19.2428 35.1099C19.2428 35.8351 19.8524 36.4396 20.5839 36.4396H78.376C80.8145 36.5605 82.3991 34.6264 81.912 32.2088ZM64.3546 62.3077C63.745 59.4066 62.1597 58.3187 60.209 58.3187H46.6755H46.4319C45.7005 58.3187 45.0909 58.9231 45.0909 59.6484C45.0909 60.3737 45.578 60.8571 46.3102 60.9781C46.7972 61.0989 47.1633 61.5824 47.5294 63.033L48.9922 70.7692C49.3583 73.066 51.6743 75 54.1128 75H62.2822C64.7207 75 66.3053 73.066 65.94 70.7692L64.3546 62.3077ZM46.1876 55.7803H61.063C61.1847 55.7803 61.3065 55.7803 61.4283 55.7803C62.7693 55.5385 62.8918 54.3297 62.6475 53.2418L60.6969 42.9671C60.209 40.3077 58.6245 39.2198 56.5513 39.2198H43.1395H42.896C42.1646 39.2198 41.5549 39.8242 41.5549 40.5494C41.5549 41.2747 42.0428 41.7583 42.7742 41.8792C43.262 42.0001 43.7491 42.6045 43.9934 44.055L45.4562 51.9121C45.578 52.6374 45.0909 53 44.6031 53.2418C44.1152 53.3626 43.7491 53.8461 43.7491 54.4506C43.7491 55.1758 44.3587 55.7803 45.0909 55.7803H46.1876Z" fill="url(#paint0_linear_6114_749)"/>
<defs>
<linearGradient id="paint0_linear_6114_749" x1="108.13" y1="27.4219" x2="29.2412" y2="51.9621" gradientUnits="userSpaceOnUse">
<stop stop-color="#FFF100"/>
<stop offset="1" stop-color="#F05A28"/>
</linearGradient>
</defs>
</svg>
