<svg width="96" height="96" viewBox="0 0 96 96" fill="none" xmlns="http://www.w3.org/2000/svg">
<rect width="96" height="96" fill="white"/>
<path d="M53.4984 50.0609C52.2736 50.0773 53.7288 50.6905 55.3283 50.9373C55.7719 50.5913 56.1703 50.2437 56.5278 49.9043C55.5333 50.1478 54.52 50.1535 53.4984 50.0609Z" fill="#A80030"/>
<path d="M60.0709 48.4229C60.8031 47.4153 61.3343 46.3134 61.5221 45.1738C61.3573 45.9855 60.9187 46.6865 60.5022 47.4276C58.2123 48.8697 60.2857 46.5717 60.5005 45.6969C58.0393 48.7984 60.1611 47.5563 60.0709 48.4229Z" fill="#A80030"/>
<path d="M62.5007 42.107C62.65 39.9008 62.067 40.5993 61.8711 41.4397C62.099 41.5594 62.2802 42.9958 62.5007 42.107Z" fill="#A80030"/>
<path d="M48.8516 11.9531C49.5058 12.0695 50.265 12.1597 50.1559 12.3163C50.8741 12.1581 51.0357 12.0154 48.8516 11.9531Z" fill="#A80030"/>
<path d="M50.1572 12.3164L49.6973 12.4123L50.126 12.373L50.1572 12.3164Z" fill="#A80030"/>
<path d="M70.545 42.9438C70.6188 44.9246 69.967 45.8871 69.3775 47.5891L68.3175 48.1162C67.4509 49.8002 68.4035 49.1853 67.7829 50.5242C66.4285 51.7269 63.6787 54.2865 62.7982 54.5209C62.1546 54.507 63.2336 53.7618 63.3746 53.4707C61.5635 54.7136 61.921 55.3367 59.1507 56.0934L59.0703 55.9122C52.241 59.1261 42.7536 52.7583 42.8782 44.0711C42.8061 44.622 42.6708 44.4843 42.52 44.7057C42.1674 40.2366 44.5844 35.7479 48.6607 33.9123C52.6476 31.9397 57.3216 32.7481 60.1755 35.4118C58.6079 33.3573 55.4851 31.1789 51.7868 31.3806C48.1622 31.4396 44.7705 33.7426 43.6391 36.244C41.7829 37.4122 41.5665 40.7499 40.7581 41.3615C39.6685 49.3632 42.8053 52.8189 48.1122 56.8862C48.9452 57.4486 48.3467 57.5347 48.4582 57.9627C46.6955 57.1379 45.082 55.8917 43.7538 54.366C44.4589 55.3965 45.2189 56.3984 46.2019 57.1855C44.5384 56.6239 42.3175 53.1575 41.6706 53.0165C44.536 58.1471 53.2945 62.0144 57.8832 60.0951C55.7598 60.1738 53.0633 60.1386 50.6791 59.2572C49.6748 58.7415 48.3147 57.6749 48.5582 57.4757C54.8186 59.8131 61.2839 59.2449 66.6999 54.9038C68.0789 53.8298 69.5841 52.004 70.0195 51.9794C69.3644 52.9649 70.1318 52.4533 69.6284 53.3231C70.9992 51.1087 69.0307 52.4213 71.0467 49.4993L71.7912 50.5242C71.5124 48.6844 74.0745 46.4528 73.8138 43.5456C74.4016 42.6568 74.4688 44.5032 73.8457 46.5479C74.7107 44.2793 74.0745 43.9145 74.2958 42.042C74.5344 42.6716 74.8517 43.3398 75.0132 44.0047C74.4491 41.8116 75.5896 40.3129 75.8732 39.038C75.5928 38.915 75.0034 40.0071 74.8673 37.418C74.8878 36.2931 75.1813 36.8285 75.2936 36.5514C75.0739 36.4243 74.4942 35.5618 74.1425 33.9082C74.3958 33.5188 74.8246 34.9158 75.1722 34.9724C74.9484 33.6581 74.5639 32.6555 74.5475 31.6462C73.5309 29.5228 74.1876 31.9299 73.3645 30.7345C72.2823 27.3617 74.2614 29.9516 74.3959 28.4201C76.0339 30.7936 76.9677 34.4747 77.3982 35.9988C77.0702 34.1402 76.5414 32.339 75.8945 30.5968C76.3938 30.8075 75.0919 26.7738 76.543 29.4449C74.9943 23.751 69.9203 18.4302 65.2512 15.9346C65.821 16.4568 66.5417 17.1127 66.2842 17.216C63.9608 15.8345 64.369 15.7255 64.0362 15.1418C62.1464 14.3719 62.0202 15.2049 60.7699 15.1434C57.2035 13.2512 56.5165 13.452 53.2346 12.2682L53.3838 12.9667C51.0218 12.1796 50.6316 13.2635 48.0794 12.9683C47.9244 12.8478 48.8976 12.5289 49.6994 12.4133C47.4153 12.715 47.5219 11.9624 45.287 12.4961C45.8371 12.1099 46.4208 11.8533 47.0078 11.5254C45.146 11.6385 42.561 12.6092 43.3587 11.7254C40.3211 13.0815 34.9257 14.9843 31.898 17.8235L31.8029 17.1873C30.4157 18.8524 25.7532 22.1605 25.3818 24.3192L25.0104 24.4053C24.2897 25.6277 23.8216 27.0124 23.2493 28.2692C22.3057 29.8786 21.8654 28.8891 21.9999 29.1416C20.1429 32.9063 19.2189 36.0693 18.4229 38.665C18.9902 39.5135 18.4368 43.7743 18.6508 47.1841C17.7194 64.0271 30.4714 80.3791 44.4105 84.1537C46.4536 84.8858 49.4912 84.8596 52.0754 84.9317C49.0271 84.0594 48.6336 84.4702 45.6625 83.4347C43.5202 82.4246 43.0512 81.2727 41.5329 79.9552L42.1338 81.0169C39.1578 79.9634 40.4031 79.7134 37.9813 78.9468L38.6232 78.1097C37.6582 78.036 36.0677 76.4848 35.6332 75.6231L34.5772 75.6649C33.3097 74.1023 32.6334 72.9734 32.6834 72.0986L32.3423 72.7069C31.9562 72.0437 27.6765 66.8384 29.8967 68.0502C29.4843 67.6747 28.9358 67.4377 28.3414 66.3563L28.7932 65.8406C27.7265 64.4658 26.8272 62.7039 26.896 62.1169C27.4658 62.8859 27.861 63.0302 28.2529 63.1622C25.5548 56.4689 25.4031 62.7941 23.3608 56.3492L23.7921 56.3148C23.4617 55.8138 23.2592 55.2736 22.9935 54.7415L23.1821 52.8681C21.2407 50.625 22.6394 43.3209 22.9206 39.3159C23.1132 37.6877 24.5414 35.9537 25.6261 33.2343L24.9653 33.1211C26.2295 30.9174 32.1816 24.2675 34.9396 24.6086C36.2751 22.9312 34.674 24.602 34.4124 24.1806C37.3467 21.1447 38.269 22.0359 40.249 21.4891C42.3831 20.2224 38.4166 21.9843 39.4283 21.0062C43.1201 20.0642 42.0436 18.8631 46.8586 18.3851C47.3669 18.6737 45.6805 18.8311 45.2575 19.2058C48.3319 17.7005 54.9883 18.044 59.3138 20.0404C64.3289 22.386 69.967 29.3162 70.19 35.8365L70.4433 35.9045C70.3154 38.4969 70.8401 41.4951 69.9293 44.2482L70.545 42.9438Z" fill="#A80030"/>
<path d="M40.1251 51.7422L39.9521 52.6006C40.7581 53.6951 41.3976 54.8806 42.4248 55.7332C41.6853 54.2911 41.1368 53.6951 40.1251 51.7422Z" fill="#A80030"/>
<path d="M42.0283 51.6681C41.6019 51.1959 41.3511 50.6285 41.0674 50.0645C41.3379 51.0573 41.8922 51.9108 42.4062 52.7798L42.0283 51.6681Z" fill="#A80030"/>
<path d="M75.7118 44.3477L75.5322 44.8002C75.2026 47.1434 74.4885 49.4619 73.3965 51.6124C74.6033 49.3438 75.3814 46.8621 75.7118 44.3477Z" fill="#A80030"/>
<path d="M49.0955 11.3657C49.9227 11.0631 51.1303 11.1992 52.0109 11C50.8647 11.0959 49.7243 11.1533 48.5986 11.2968L49.0955 11.3657Z" fill="#A80030"/>
<path d="M20.0144 26.8301C20.2054 28.596 18.6862 29.2823 20.3505 28.1164C21.2442 26.1045 20.0029 27.5614 20.0144 26.8301Z" fill="#A80030"/>
<path d="M18.0557 35.0072C18.4402 33.8291 18.5091 33.1224 18.6559 32.4395C17.5958 33.7955 18.1672 34.0849 18.0557 35.0072Z" fill="#A80030"/>
</svg>
